<?xml version="1.0" encoding="utf-8"?>
<!-- Generator: Adobe Illustrator 27.6.1, SVG Export Plug-In . SVG Version: 6.00 Build 0)  -->
<svg version="1.1" id="Layer_1" xmlns="http://www.w3.org/2000/svg" xmlns:xlink="http://www.w3.org/1999/xlink" x="0px" y="0px"
	 viewBox="0 0 661.87 864" style="enable-background:new 0 0 661.87 864;" xml:space="preserve">
<style type="text/css">
	.st0{fill:#FFFFFF;}
	.st1{fill:#5FA440;}
	.st2{fill:#A0C88D;}
	.st3{fill:#D9F1CB;}
	.st4{fill:#B4B0BC;}
	.st5{fill:#F6FAF8;}
	.st6{fill:#EBBF7A;}
	.st7{fill:#487C2D;}
	.st8{fill:#FF0000;}
	.st9{fill:#B2AE18;}
	.st10{fill:#FFFF2E;}
	.st11{fill:#F9E8B9;}
	.st12{fill:#8E8813;}
	.st13{fill:#CCAA19;}
	.st14{fill:#EDAACF;}
	.st15{fill:#CB336F;}
	.st16{fill:#998014;}
	.st17{fill:#163784;}
	.st18{fill:#C3E1F3;}
	.st19{fill:#3470B0;}
	.st20{fill:#FBFDFA;}
	.st21{fill:#E8E8E8;}
	.st22{fill:#3C3C3C;}
	.st23{fill:#133685;}
	.st24{fill:#112C63;}
	.st25{fill:#E59936;}
	.st26{fill:#E19A39;}
	.st27{fill:#EB5E55;}
	.st28{fill:#8C7752;}
	.st29{font-family:'Roboto-Black';}
	.st30{font-size:12px;}
	.st31{fill:#AF732B;}
	.st32{fill:#6772DB;}
	.st33{fill:#4F5CA8;}
	.st34{fill:#D13270;}
	.st35{fill:#DCDCDE;}
	.st36{fill:#CC4D4A;}
	.st37{fill:#25527A;}
	.st38{fill:#773E84;}
	.st39{fill:#773B85;}
	.st40{fill:#4D2756;}
</style>
<path class="st0" d="M34.05,847.74c0.14,0.14,0.28,0.28,0.42,0.42C34.33,848.02,34.19,847.88,34.05,847.74z"/>
<path class="st9" d="M384.48,418.18h-0.1c0.03-0.03,0.06-0.05,0.09-0.07C384.47,418.13,384.47,418.15,384.48,418.18z"/>
<path class="st2" d="M577.04,809.22c-0.01,2.12-0.02,4.23-0.04,6.35C577.02,813.45,577.03,811.34,577.04,809.22z"/>
<path class="st3" d="M567.18,806.67c-0.85-1.11-1.71-2.22-2.56-3.33C565.47,804.46,566.33,805.56,567.18,806.67z"/>
<path class="st2" d="M583.7,828.69c0.39,1,0.79,2,1.18,3.01C584.49,830.69,584.1,829.69,583.7,828.69z"/>
<path class="st3" d="M576.03,825.74c-0.57-0.68-1.14-1.37-1.7-2.05C574.9,824.37,575.47,825.05,576.03,825.74z"/>
<path class="st3" d="M577.31,827.85c-0.42-0.7-0.85-1.41-1.27-2.11C576.46,826.44,576.88,827.15,577.31,827.85z"/>
<path class="st2" d="M548.83,778.74c0.09-0.42,0.17-0.84,0.26-1.25C549.01,777.91,548.92,778.33,548.83,778.74z"/>
<path class="st2" d="M581.57,824.44c0.3,0.39,0.6,0.77,0.91,1.16C582.17,825.21,581.87,824.83,581.57,824.44z"/>
<path class="st2" d="M582.68,826.02c0.18,0.33,0.37,0.65,0.55,0.98C583.04,826.68,582.86,826.35,582.68,826.02z"/>
<path class="st2" d="M577.12,817.1c0.18,0.35,0.36,0.71,0.54,1.06C577.47,817.81,577.29,817.45,577.12,817.1z"/>
<path class="st2" d="M550.15,785.6c-0.22-0.33-0.44-0.66-0.65-0.99C549.71,784.93,549.93,785.26,550.15,785.6z"/>
<path class="st4" d="M214.6,411.19c-0.12-0.08-0.23-0.16-0.35-0.24C214.37,411.03,214.49,411.11,214.6,411.19z"/>
<path class="st18" d="M251.74,357.61c-0.12,0.15-0.25,0.3-0.37,0.45C251.5,357.91,251.62,357.76,251.74,357.61z"/>
<path class="st25" d="M412.49,386.93l0.08,0.08l0.02,0.02c0-0.01,0.01-0.01,0.01-0.02S412.53,386.94,412.49,386.93z"/>
<path class="st25" d="M441.01,346.74c-0.82-0.67-1.35-1.99-0.02-3.09c2.38-1.98,2.31-2.93-0.04-4.91c-1.01-0.85-2.17-1.74-1.1-3.33
	c2.14-3.17,1.4-5.34-2.34-6.31c-1.8-0.47-2.25-1.41-1.5-2.88c1.12-2.23,2.42-4.37,3.68-6.53c1.27-2.18,1.22-3.22-0.86-4.55
	c-1.81-1.15-2.96-2.69-3.62-4.62c-0.18-0.5,0.18-1.29,0.49-1.83h-0.01c0,0-3.57-4.27-8.86-1.62c-4.27,2.13-4.66,0.96-6.16-2.35
	c-0.36-0.79-0.78-1.7-1.33-2.72c-2.06-3.78-3.66-0.45-4.96,2.64c-0.52,1.22-0.99,2.4-1.43,3.09c-1.55,2.42-7.5,2.64-12.12,1.98
	c-4.63-0.66-6.61,1.76-9.7,0.88c-3.08-0.88-6.83,0.88-7.49,6.82c-0.66,5.95-2.87,4.41-2.87,4.41l-2.64,0.44l-1.54,1.1l-1.33,1.76
	l-1.54,0.22l-0.66-2.42l-0.22-1.54c0,0-0.44-1.1-0.44-1.98s-1.76,0.44-1.76,0.44s-0.44,1.54-0.66,2.2c-0.22,0.66-1.77,1.1-1.77,1.1
	l-1.1,1.32c0,0,0,0-1.32-0.66c-1.3-0.65-1.32-0.87-2.58-0.08c-0.02,0.01-0.05,0.02-0.07,0.04c-1.33,0.84-1.98-1.5-1.98-1.5
	l-1.54,0.22l-1.54,0.66c0,0,0,0-0.67,0.44c-0.66,0.44,0,1.98,0,1.98s0.45,1.54,1.11,3.3l1.32,1.77l1.32,1.54l0.66,1.54l-0.22,3.52
	c0,0,0.22,1.1,0,2.64c-0.22,1.54,0,1.54,0,1.54s0.22,1.33,0,2.43c-0.22,1.1,0,2.42,0,3.74s0.44,3.3,0.44,3.3s0,0-2.64,0.88
	c0,0-1.1,0.22-1.99,0.44c-0.88,0.22-1.32,0.22-3.08,0.22s-1.76,0-1.76,0l-1.99-1.32l-1.32-2.64l-1.1-1.54l-0.66-1.98l-3.75-0.88
	l-2.2-1.54l-1.54-1.11l-2.21,1.33l-1.76,2.2l-2.87,2.64h-3.74c0,0-2.87-1.54-5.51,0c-2.65,1.54-6.39,0.44-7.05-1.76
	s-1.55-5.29-1.55-5.29s-3.96,0-1.54-5.72c2.43-5.73,0-6.83,0-6.83s-3.3-3.08-1.32-5.94c1.98-2.86-0.66-4.4-0.66-4.4l-3.31-2.21
	l-2.2-1.1l-1.98-4.18l-0.89-2.86l-0.74-4.1l-35.23-0.46c-1.03,1.63-2.39,3.97-3.03,4.78c-0.61,0.76-3.23-1.85-4.81-3.55
	c-0.08,0.12-0.16,0.24-0.25,0.36c-0.04,0.3-0.09,0.62-0.13,0.92c0.06,0.26,0.12,0.51,0.18,0.76c0.14,0.28,0.27,0.55,0.41,0.83
	c0.2,0.05,0.37,0.1,0.53,0.17c0.24,0.1,0.44,0.22,0.59,0.37c0.11,0.09,0.2,0.19,0.27,0.3c0.04,0.04,0.07,0.09,0.09,0.14
	c0.18,0.3,0.27,0.65,0.31,1.02c0.01,0.11,0.02,0.22,0.02,0.33c0.02,0.42,0,0.86-0.02,1.3c0.49,0.07,0.89,0.13,1.3,0.19
	c1.26,0.2,1.91,1.01,1.55,1.96c-0.06,0.17-0.16,0.35-0.29,0.53c-0.07,0.09-0.13,0.18-0.2,0.26c-0.29,0.41-0.53,0.79-0.65,1.16
	c-0.02,0.04-0.03,0.09-0.04,0.14c-0.02,0.06-0.03,0.12-0.04,0.17c-0.01,0.08-0.02,0.16-0.02,0.24c0,0.51,0.27,1.02,0.97,1.57
	c0.15,0.11-0.14,0.79-0.23,1.21c0.01,0.43,0.01,0.85,0.02,1.28c1.88,0.3,2.01,1.82,2.26,3.26c0.23,0.03,0.46,0.07,0.69,0.11
	c0.89,0.08,1.78,0.16,2.74,0.24c0.31,0.03,0.63,0.06,0.96,0.09c0.1,0.3,0.15,0.59,0.15,0.85c0,0.31-0.06,0.6-0.19,0.87
	c-0.04,0.1-0.09,0.19-0.15,0.28c-0.06,0.09-0.12,0.19-0.2,0.28c-0.22,0.28-0.5,0.56-0.86,0.86c-0.39,0.33-0.89,0.66-1.35,1.03
	c-0.16,0.13-0.31,0.26-0.45,0.39c-0.2,0.18-0.38,0.38-0.53,0.6c-0.05,0.07-0.1,0.14-0.14,0.21c-0.07,0.12-0.14,0.25-0.19,0.38
	c-0.03,0.08-0.06,0.17-0.08,0.26c-0.02,0.06-0.03,0.12-0.04,0.19c-0.01,0.05-0.02,0.1-0.02,0.15c-0.06,0.46,0.02,0.99,0.27,1.61
	c1.12,0.09,2.26,0.19,3.39,0.29c0.08,0.21,0.15,0.42,0.22,0.64c-0.13,0.08-0.27,0.15-0.4,0.24c-0.41,0.24-0.81,0.48-1.23,0.69
	c-0.68,0.35-1.38,0.66-2.03,0.59c-1.1-0.09-2.27-0.45-3.29-0.2c-0.13,0.03-0.25,0.07-0.37,0.12c-0.49,0.18-0.85,0.45-1.12,0.81
	c-0.04,0.05-0.07,0.1-0.1,0.15c-0.05,0.07-0.08,0.13-0.12,0.2c-0.07,0.14-0.13,0.29-0.18,0.45c-0.03,0.1-0.06,0.2-0.08,0.31
	c-0.08,0.4-0.11,0.84-0.09,1.32c0.1,2.46-2.02,3.8-3.34,5.54c0,0.27-0.01,0.54-0.02,0.81c0.57,0.59,1.13,1.16,1.7,1.75h-0.01
	c0.08,0.11,0.17,0.21,0.27,0.32c0.09,0.11,0.19,0.22,0.29,0.32c0.12,0.14,0.25,0.28,0.35,0.42c0.06,0.07,0.1,0.14,0.14,0.21v0.01
	c0.09,0.14,0.14,0.28,0.14,0.42c0.01,0.5,0.05,0.94,0.15,1.35c0.03,0.13,0.07,0.26,0.12,0.38c0.09,0.24,0.22,0.46,0.38,0.65
	c0.04,0.05,0.08,0.1,0.13,0.15c0.09,0.09,0.19,0.17,0.3,0.24c0.05,0.04,0.1,0.08,0.16,0.11c0.24,0.14,0.52,0.25,0.84,0.34
	c0.11,0.03,0.23,0.06,0.35,0.08c0.05,0.01,0.1,0.02,0.15,0.04c0.04,0.01,0.08,0.03,0.13,0.05c0.43,0.22,0.88,0.74,1.74,1.4
	c-1.15,0.55-2.07,1-3.04,1.47c-0.33,0.15-0.66,0.31-1.01,0.48c-0.01-0.04-0.01-0.08-0.02-0.11c-0.04-0.27-0.08-0.53-0.11-0.76
	c-0.01-0.05-0.01-0.1-0.02-0.15c-0.04-0.27-0.08-0.52-0.11-0.76c-0.07-0.5-0.14-0.93-0.2-1.36c-0.2-0.02-0.41-0.05-0.61-0.07
	c-0.07,0.69-0.43,1.53-0.16,2.04c0.18,0.33,0.36,0.69,0.54,1.04c0.19,0.35,0.38,0.7,0.59,1.03c0.41,0.66,0.89,1.24,1.48,1.62
	c0.11,0.07,0.22,0.14,0.31,0.21c0.45,0.34,0.71,0.66,0.83,1.01c0.02,0.04,0.03,0.08,0.04,0.13c0.02,0.05,0.03,0.11,0.03,0.16
	c0.07,0.47-0.08,0.98-0.31,1.58c-0.26,0.68-0.47,1.36-0.47,2.02c0,0.11,0.01,0.22,0.02,0.34c0,0,0,0,0,0.01
	c0.01,0.08,0.03,0.17,0.05,0.26c0.02,0.13,0.06,0.26,0.12,0.39c0.04,0.1,0.09,0.21,0.15,0.32c0.14,0.26,0.34,0.51,0.6,0.75
	c0.02,0.02,0.04,0.05,0.07,0.08c0.04,0.05,0.07,0.11,0.1,0.18c0.04,0.07,0.06,0.14,0.08,0.21c0.02,0.07,0.04,0.15,0.05,0.22
	c0.04,0.2,0.03,0.38-0.04,0.46c-0.32,0.35-0.63,0.73-0.94,1.1c-0.14,0.17-0.28,0.34-0.43,0.51c-0.27,0.33-0.55,0.65-0.85,0.95
	c-0.11,0.12-0.23,0.23-0.34,0.33c-0.13,0.12-0.26,0.23-0.4,0.34c-0.09,0.08-0.19,0.15-0.29,0.21c-0.09,0.07-0.19,0.13-0.28,0.18
	c-0.12,0.07-0.24,0.13-0.37,0.19l-0.01,0.01c-0.35,0.16-0.67,0.34-0.96,0.54c-0.09,0.05-0.18,0.12-0.26,0.18
	c-0.27,0.2-0.51,0.41-0.72,0.65c-0.13,0.14-0.25,0.29-0.35,0.44c-0.07,0.09-0.13,0.19-0.17,0.29c-0.05,0.08-0.1,0.16-0.13,0.25
	c-0.09,0.17-0.15,0.35-0.2,0.53c-0.02,0.08-0.04,0.16-0.05,0.24c-0.01,0.02-0.01,0.04-0.01,0.06c-0.02,0.07-0.03,0.13-0.03,0.2
	c-0.11,0.96,0.23,2,1.1,2.99c0.25,0.29,0.47,0.59,0.65,0.89c0.07,0.1,0.12,0.2,0.17,0.3c0.06,0.1,0.11,0.2,0.15,0.3
	c0.14,0.31,0.25,0.62,0.32,0.93c0.04,0.17,0.07,0.34,0.1,0.52c0.04,0.22,0.06,0.45,0.06,0.69c0.01,0.35,0,0.71-0.05,1.08
	c-0.04,0.31-0.09,0.62-0.16,0.94c-0.06,0.26-0.12,0.48-0.19,0.66c-0.1,0.28-0.23,0.48-0.4,0.62c-0.06,0.04-0.11,0.08-0.17,0.11
	c-0.23,0.1-0.51,0.11-0.84,0.03c-0.08-0.01-0.17-0.04-0.25-0.07c-0.08-0.03-0.17-0.06-0.26-0.1l-0.01,0.01
	c-0.14,0.14-0.27,0.28-0.41,0.42h-0.01c0.03,0.03,0.06,0.06,0.09,0.1c0.2,0.23,0.51,0.49,0.51,0.64c0.01,0.02,0.01,0.03,0,0.05
	c-0.2,0.52-0.4,1.04-0.6,1.56c-0.61,1.56-1.25,3.12-1.87,4.67c-0.03,0.07-0.06,0.14-0.09,0.21c-0.05,0.11-0.12,0.23-0.18,0.35
	c-0.15,0.29-0.31,0.58-0.37,0.85c-0.03,0.09-0.04,0.17-0.04,0.25c0,0.06,0,0.11,0.02,0.17c0.13,0.46,0.2,0.84,0.2,1.15
	c0,0.11-0.01,0.2-0.03,0.29c-0.01,0.06-0.02,0.11-0.05,0.16c-0.02,0.09-0.07,0.16-0.13,0.22c-0.02,0.03-0.05,0.06-0.09,0.08
	c-0.05,0.04-0.11,0.07-0.17,0.09c-0.21,0.07-0.51,0.07-0.89-0.01c-0.19-0.04-0.41-0.1-0.65-0.18c-0.29-0.1-0.65,0.02-0.95,0.04
	c-0.07,0.22-0.13,0.43-0.2,0.64c-0.09,0.31-0.18,0.61-0.26,0.9c-0.09,0.3-0.18,0.58-0.26,0.87v0.84l0.01,0.01
	c0.27,0.1,0.52,0.2,0.74,0.33c0.23,0.12,0.43,0.25,0.6,0.4c0.39,0.35,0.61,0.81,0.53,1.42c-0.02,0.17-0.06,0.34-0.13,0.53
	c-0.04,0.1-0.08,0.2-0.12,0.3c0.02,0.28,0.04,0.55,0.06,0.83v0.01c0.01,0.02,0.01,0.04,0.01,0.06c0.03,0.09,0.06,0.18,0.09,0.27
	c0.09,0.34,0.18,0.69,0.33,1c0.26,0.54,0.62,1.03,0.93,1.54c0.33-0.25,0.63-0.55,0.97-0.77c0.11-0.07,0.23-0.13,0.35-0.18
	c0.48-0.18,1.05-0.1,1.58-0.14c-0.06,0.89,0.1,1.87-0.25,2.63s-1.2,1.29-1.84,1.93c1.22,1.18,0.55,3.5,2.62,4.23
	c0.95,0.33,1.79,0.97,2.71,1.49h0.01c-1.13,1.25-1.4,2.47-1.29,3.66c0.02,0.17,0.04,0.34,0.07,0.5c0.02,0.13,0.05,0.26,0.08,0.39
	c0.03,0.15,0.07,0.3,0.11,0.45c0.04,0.15,0.09,0.3,0.14,0.45c0.23,0.74,0.52,1.48,0.73,2.21c0.06,0.21,0.11,0.42,0.16,0.63
	c0.04,0.18,0.08,0.37,0.13,0.56c0.03,0.14,0.07,0.28,0.12,0.42c0.05,0.16,0.12,0.33,0.19,0.49c0.06,0.15,0.14,0.3,0.23,0.45
	c0.09,0.16,0.2,0.31,0.32,0.46c0.06,0.07,0.12,0.13,0.19,0.2c0.07,0.07,0.14,0.13,0.21,0.19c0.22,0.17,0.48,0.33,0.77,0.45
	c0.1,0.04,0.21,0.08,0.32,0.11c1.83,0.54,3.25,0.22,4.24-1.42c0.03-0.05,0.06-0.11,0.08-0.17c0.06-0.11,0.11-0.23,0.17-0.34
	c0.04-0.06,0.07-0.1,0.11-0.14c0.02-0.03,0.04-0.05,0.07-0.06c0.27-0.16,0.55-0.31,0.83-0.46c0.08-0.04,0.15-0.08,0.23-0.11
	c0.18-0.09,0.36-0.17,0.54-0.24c0.16-0.06,0.32-0.12,0.48-0.16c0.03-0.01,0.05-0.01,0.08-0.02c0.21-0.05,0.9,0.69,0.84,0.97
	c-0.16,0.76-0.5,1.52-0.94,2.18c-0.24,0.37-0.86,0.47-1.22,0.79c-0.76,0.69-1.12,1.41-0.1,2.27c1.59,1.34,2.98,3.16,5.59,1.52
	c-0.1,2.15,0.91,2.9,2.79,2.63c-0.15,0.21-0.29,0.42-0.44,0.63c1.17,0.87,2.27,1.88,3.53,2.56c0.66,0.35,1.34,0.68,1.95,1.05
	c0.13,0.07,0.25,0.15,0.37,0.23c0.6,0.39,1.12,0.84,1.5,1.42c0.08,0.12,0.15,0.24,0.21,0.37c0.07,0.13,0.13,0.27,0.18,0.41
	c0.05,0.14,0.09,0.28,0.13,0.44c0.08,0.31,0.12,0.65,0.13,1.02c0,0.03,0.01,0.07,0.02,0.1c0.04,0.09,0.14,0.17,0.25,0.25
	c0.03,0.03,0.07,0.06,0.11,0.08c0.16,0.11,0.33,0.23,0.44,0.35c1.82,1.95,3.63,3.91,5.45,5.86v0.01c0.13,0.08,0.26,0.15,0.39,0.23
	c0.9,0.56,1.79,1.16,2.75,1.57c0.56,0.24,1.3,0.04,1.97,0.04c0.32,2.21,1.29,2.72,4.22,2.04c-0.14-0.51-0.35-1-0.4-1.51
	c-0.04-0.45,0.11-0.91,0.17-1.37c0.05,0.03,0.11,0.06,0.17,0.08c0.4,0.2,0.92,0.34,1.06,0.66c0.36,0.78,0.72,1.58,1.05,2.38
	c0.17,0.4,0.32,0.8,0.45,1.21c0.14,0.4,0.26,0.81,0.35,1.23c0.36,1.63,1.11,2.49,2.87,2.61c0.15-0.23,0.3-0.46,0.47-0.72
	c0.11-0.17,0.23-0.36,0.36-0.56c0.2-0.3,0.41-0.64,0.67-1.03c0.9,1.33,1.62,2.4,2.34,3.46c-0.34,0.21-0.68,0.41-1.02,0.62
	c-0.34,0.21-0.69,0.42-1.05,0.64c0.03,0.12,0.06,0.25,0.09,0.4c0.06,0.22,0.12,0.47,0.18,0.74c0.04,0.18,0.09,0.36,0.13,0.55
	c0.03,0.09,0.05,0.19,0.07,0.28c-0.05,0.34-0.1,0.68-0.15,1.01c0.03,0.37,0.07,0.73,0.1,1.1c0.15,0,0.31,0,0.47,0.01
	c1.81,0.55,3.65,1.03,5.42,1.67c0.06,0.02,0.13,0.05,0.19,0.09c0.07,0.03,0.13,0.07,0.19,0.12c0.06,0.04,0.12,0.08,0.18,0.14
	c0.18,0.16,0.35,0.34,0.49,0.53c0.1,0.13,0.19,0.26,0.26,0.39c0.05,0.09,0.11,0.19,0.17,0.28c0.04,0.09,0.1,0.17,0.16,0.25
	c0.11,0.16,0.23,0.32,0.35,0.46c0.12,0.14,0.25,0.27,0.38,0.39c0.06,0.06,0.12,0.11,0.18,0.15c0.1,0.08,0.2,0.15,0.3,0.21
	c0.11,0.08,0.22,0.14,0.34,0.2c0.29,0.14,0.6,0.24,0.93,0.28c0.17,0.02,0.34,0.03,0.51,0.03c0.55,0,1.16-0.11,1.84-0.33
	c0.49-0.16,0.89-0.24,1.22-0.23c0.11,0,0.21,0.01,0.29,0.03c0.2,0.03,0.36,0.11,0.48,0.24c0.06,0.05,0.12,0.12,0.17,0.2
	c0.03,0.03,0.05,0.06,0.06,0.1c0.04,0.06,0.07,0.13,0.1,0.2c0.04,0.1,0.07,0.21,0.1,0.33c0.03,0.11,0.05,0.22,0.07,0.35
	c0.02,0.16,0.04,0.34,0.05,0.54c0.04,0.73,0.11,1.45,0.18,2.17c0.07,0.73,0.15,1.46,0.22,2.18h0.01c0.42,0.02,0.82,0.05,1.24,0.06
	c0.3-0.14,0.58-0.25,0.86-0.32c0.53-0.15,1.01-0.16,1.44-0.02c0.31,0.1,0.59,0.28,0.84,0.54c0.17,0.18,0.32,0.39,0.47,0.64
	c0.07,0.13,0.14,0.26,0.2,0.41v0.01c1.38-0.01,2.76-0.01,4.15-0.03c1.43-0.03,2.23,0.59,2.22,2.08c0.42,0.03,0.84,0.04,1.26,0.06
	c0.03-0.06,0.06-0.12,0.1-0.2c0.06-0.15,0.13-0.31,0.19-0.39c0.01-0.02,0.02-0.04,0.04-0.05c0.01-0.02,0.01-0.02,0.02-0.02h0.01
	c0.18,0.04,0.37,0.07,0.56,0.11c0.32,0.05,0.65,0.09,0.97,0.13c0.21,0.02,0.42,0.05,0.63,0.08c0.18,0.02,0.35,0.05,0.53,0.09
	c0.13,0.02,0.25,0.05,0.37,0.08c0.62,0.15,1.2,0.39,1.7,0.82c0.1,0.09,0.2,0.19,0.29,0.29c0.08,0.09,0.16,0.19,0.24,0.3
	c0.1,0.13,0.19,0.27,0.27,0.43c0.13,0.08,0.26,0.1,0.41,0.04c0.08-0.04,0.16-0.09,0.25-0.14c0.16-0.1,0.33-0.2,0.49-0.29
	c0.08-0.05,0.16-0.1,0.24-0.15c0.32-0.19,0.65-0.36,1.01-0.43c0.06-0.01,0.12-0.02,0.19-0.02c0.17-0.02,0.36-0.01,0.56,0.02
	c0.19,0.02,0.38,0.06,0.58,0.11c0.28,0.08,0.57,0.19,0.84,0.33c0.15,0.06,0.29,0.14,0.43,0.22c0.11,0.07,0.21,0.13,0.31,0.2
	c0.08,0.05,0.15,0.1,0.22,0.15c0.29,0.22,0.54,0.45,0.74,0.68c0.04,0.05,0.08,0.1,0.11,0.14c0.04,0.05,0.08,0.1,0.11,0.15
	c0.08,0.11,0.13,0.23,0.17,0.33c0.03,0.09,0.06,0.18,0.07,0.26c0.98,0.06,1.97,0.12,2.95,0.18c0.58-0.05,1.16-0.09,1.74-0.14
	c1.69-1.53,3.38-3.07,5.07-4.61c0.02-0.11,0.03-0.23,0.04-0.35c-0.46-0.66-0.79-1.73-1.39-1.92c-1.08-0.34-1.56-0.9-1.72-1.54
	c-0.02-0.09-0.04-0.17-0.05-0.26c-0.02-0.12-0.02-0.24-0.02-0.36c0-0.11,0.01-0.23,0.02-0.35c0.04-0.46,0.15-0.92,0.25-1.34
	c0.04-0.18,0.09-0.35,0.12-0.52c0.03-0.14,0.12-0.27,0.25-0.4c0.04-0.03,0.08-0.06,0.12-0.09c0.25-0.18,0.59-0.33,0.97-0.47
	c0.41-0.16,0.88-0.29,1.31-0.41c0.17-0.04,0.33-0.09,0.49-0.13c0.26-0.5,0.55-1.11,0.45-1.62c-0.01-0.06-0.02-0.11-0.04-0.17
	c-0.01-0.01-0.01-0.02-0.02-0.03c-0.02-0.06-0.05-0.11-0.09-0.17c-0.02-0.02-0.04-0.05-0.07-0.08c-0.03-0.03-0.05-0.06-0.08-0.08
	c-0.23-0.21-0.6-0.36-1.16-0.44c-0.03,0-0.08-0.02-0.11-0.04c-0.02-0.01-0.04-0.02-0.05-0.03c-0.01-0.01-0.02-0.02-0.02-0.03
	c-0.05-0.16-0.11-0.31-0.17-0.45c-0.11-0.28-0.25-0.55-0.4-0.8c0-0.01-0.01-0.01-0.01-0.01c-0.15-0.25-0.32-0.48-0.5-0.71
	c-0.19-0.23-0.38-0.45-0.59-0.65c-0.23-0.23-0.46-0.45-0.71-0.66c-0.01-0.02-0.03-0.03-0.04-0.04c-0.18-0.16-0.38-0.31-0.57-0.47
	c-0.57-0.47-1.16-0.91-1.71-1.39c-0.27-0.03-0.55-0.07-0.83-0.1c-0.32,0.2-0.71,0.64-0.95,0.57c-1.49-0.46-1.63-1.66-1.63-3.03
	c0-0.14,0.01-0.26,0.03-0.37c0.01-0.07,0.02-0.12,0.04-0.18c0.02-0.08,0.04-0.16,0.08-0.22c0.02-0.05,0.04-0.1,0.07-0.14
	c0.12-0.19,0.27-0.32,0.45-0.42c0.09-0.05,0.18-0.09,0.29-0.12c0.11-0.04,0.22-0.07,0.33-0.09c0.1-0.03,0.2-0.04,0.3-0.06
	c0.13-0.03,0.26-0.05,0.39-0.08c0.74-0.15,1.54-0.05,2.31-0.06c2.23-0.02,2.5-0.4,1.69-2.46c-0.67-1.69-0.69-3.33-0.07-4.96h0.01
	c0.24-0.05,0.48-0.09,0.73-0.13c0.19,0.84,0.49,1.68,0.55,2.53c0.11,1.64,0.9,1.86,2.27,1.36c1.08-0.4,2.43-0.41,3.26-1.09
	c1.05-0.86,1.69-2.22,2.52-3.36c0.39-0.55,0.82-1.08,1.23-1.61c0.03-0.28,0.06-0.55,0.1-0.83c-0.29-0.66-0.61-1.33-0.61-1.92
	c0-0.07,0-0.15,0.02-0.22c0.01-0.06,0.02-0.13,0.04-0.19c0.03-0.08,0.06-0.16,0.11-0.24c0.03-0.06,0.08-0.13,0.14-0.19
	c0.03-0.05,0.08-0.1,0.14-0.14c0.08-0.07,0.18-0.15,0.3-0.22c0.19-0.11,0.41-0.21,0.68-0.3c0.13-0.26,0.26-0.53,0.4-0.8
	c-0.18-1.28,0.37-1.89,1.65-2.19c0.55-0.14,1.11-0.29,1.66-0.46c0.37-0.12,0.73-0.25,1.09-0.39c0.13-0.05,0.25-0.1,0.37-0.15
	c0.23-0.1,0.46-0.2,0.68-0.31c0.17-0.09,0.34-0.18,0.51-0.27c0.08-0.04,0.15-0.09,0.22-0.15c0.14-0.12,0.28-0.28,0.39-0.47
	c0.06-0.08,0.11-0.17,0.16-0.26l0.15-0.33c0.04-0.1,0.08-0.21,0.11-0.31c0.03-0.11,0.06-0.21,0.08-0.31
	c0.02-0.11,0.04-0.21,0.05-0.3c0.13-1.35,0.03-2.48,1.58-3.3c0.13-0.07,0.26-0.15,0.39-0.25c0.06-0.04,0.12-0.09,0.18-0.15
	c0.07-0.05,0.13-0.11,0.18-0.16c0.1-0.08,0.18-0.17,0.26-0.26c0.08-0.09,0.16-0.18,0.24-0.27c0.48-0.59,0.88-1.3,1.2-1.95
	c0.23-0.47-0.32-1.53-0.78-2.11c-1.06-1.35-2.49-2.54-0.44-4.2c0.17-0.14,0.24-0.55,0.18-0.79c-0.75-3.02,1.29-4.8,2.85-6.88
	c0.12-0.16,0.24-0.33,0.34-0.5c0.11-0.17,0.21-0.35,0.31-0.53c0.09-0.16,0.18-0.32,0.27-0.49c0.19-0.38,0.37-0.77,0.55-1.16
	c0.18-0.38,0.35-0.75,0.54-1.11c0.09-0.18,0.19-0.36,0.29-0.54c0.28-0.48,0.93-1.19,1.29-1.12c0.4,0.07,0.75,0.11,1.08,0.11
	c0.14,0,0.28-0.01,0.41-0.02c0.06-0.01,0.12-0.02,0.18-0.03c0.1-0.01,0.19-0.03,0.29-0.06c0.07-0.01,0.13-0.03,0.19-0.06
	c0.19-0.06,0.38-0.14,0.54-0.25c0.05-0.02,0.1-0.06,0.14-0.09c0.24-0.17,0.45-0.38,0.62-0.62c0.09-0.1,0.16-0.21,0.23-0.33
	c0.09-0.14,0.17-0.29,0.24-0.44c0.04-0.08,0.07-0.16,0.11-0.24c0.14-0.33,0.27-0.69,0.4-1.05c0.09-0.27,0.19-0.55,0.28-0.82
	c0.1-0.27,0.2-0.54,0.31-0.8c0.11-0.26,0.27-0.5,0.45-0.73c0.18-0.23,0.37-0.45,0.54-0.69c0.17,0.07,0.35,0.15,0.52,0.22
	c0.1,1.14,0.2,2.28,0.37,4.1c0.59-0.89,0.77-1.38,1.12-1.65c0.16-0.12,0.32-0.24,0.49-0.35c0.34-0.23,0.69-0.43,1.05-0.64
	c0.17-0.1,0.35-0.2,0.52-0.3c0.28-0.01,0.56-0.01,0.84-0.02c0.31-0.24,0.62-0.49,0.93-0.73c-0.05,0.39-0.1,0.78-0.14,1.18
	c0.02,1.39,0.04,2.78,0.07,4.19c0,0,0,0.01,0.01,0.01c0.1-0.03,0.19-0.06,0.29-0.09c0.71-0.18,1.47-0.38,2.55-0.66
	c1.03,0.68,0.84,1.64-1.24,3.32c0.01,0.26,0.01,0.52,0.01,0.78c0.6,0.47,1.13,0.82,1.62,0.82c0.06,0,0.12-0.01,0.18-0.02
	c0.05-0.01,0.11-0.03,0.17-0.05c0.13-0.05,0.25-0.13,0.37-0.24c0.13-0.11,0.24-0.24,0.35-0.41c0.11-0.17,0.23-0.38,0.34-0.62
	c0.07-0.16,0.15-0.31,0.23-0.45c0.05-0.11,0.11-0.21,0.18-0.31c0.06-0.11,0.13-0.22,0.2-0.32c0.07-0.1,0.14-0.19,0.21-0.29
	c0.08-0.11,0.16-0.21,0.24-0.31c0.1-0.12,0.21-0.24,0.32-0.36s0.22-0.23,0.34-0.34c0.15-0.15,0.3-0.28,0.45-0.4
	c0.13-0.11,0.26-0.21,0.39-0.31c0.19-0.15,0.38-0.29,0.58-0.41c0.15-0.1,0.3-0.2,0.46-0.29c0.72-0.44,1.49-0.82,2.27-1.16
	c0.03-0.13,0.05-0.25,0.05-0.37c0.13-0.16,0.27-0.32,0.4-0.48c0.03-0.41,0.06-0.82,0.09-1.22c-0.33-0.22-0.67-0.44-1.02-0.67
	c-0.17-0.11-0.35-0.22-0.53-0.34c-0.17-0.13-0.35-0.25-0.54-0.37c0.15-0.13,0.29-0.26,0.42-0.39c0.11-0.1,0.21-0.2,0.3-0.3
	c0.1-0.11,0.19-0.21,0.28-0.32c0.18-0.21,0.35-0.43,0.49-0.65c0.15-0.22,0.29-0.44,0.41-0.67c0.13-0.23,0.24-0.47,0.35-0.7
	c0.14-0.33,0.26-0.66,0.37-1c0.1-0.33,0.19-0.67,0.27-1.01c0-0.01,0-0.01,0-0.01c0.11-0.52,0.2-1.05,0.27-1.58
	c0.04-0.36,0.08-0.73,0.11-1.09c0.03-0.34,0.04-0.72-0.06-1.05c-0.39-1.21-1.37-2.3-0.01-3.64c0.15-0.15,0.3-0.28,0.45-0.41
	c0.3-0.26,0.6-0.48,0.92-0.68c0.16-0.1,0.32-0.18,0.49-0.26c0.17-0.08,0.33-0.15,0.5-0.2c0.17-0.06,0.34-0.11,0.52-0.15
	c0.13-0.03,0.26-0.06,0.39-0.07c0.06-0.01,0.12-0.02,0.19-0.02c0.16-0.02,0.33-0.03,0.5-0.03c0.29-0.01,0.59,0.02,0.9,0.07
	l-0.08-0.07c0.04,0.01,0.1,0.06,0.1,0.07c0.09-0.19,0.17-0.4,0.26-0.59l0.01-0.01c0.57-0.7,1.13-1.41,1.69-2.11
	c0.56-0.71,1.13-1.41,1.69-2.11c-0.01-0.71-0.01-1.41-0.02-2.12v-0.01c-0.35,0.11-0.71,0.22-1.07,0.33
	c-0.36,0.1-0.72,0.21-1.09,0.32c-1.49-1.52-3.8-2.61-2.61-5.84c-0.3,0.1-0.53,0.26-0.71,0.46c-0.06,0.06-0.11,0.13-0.16,0.2
	c-0.06,0.08-0.1,0.15-0.14,0.23c-0.05,0.08-0.09,0.16-0.12,0.24c-0.47,1.01-0.56,2.18-2.12,1.52c-0.01,0.07-0.02,0.2-0.03,0.2
	c-1.35,0.01-2.73,0.18-4.04-0.07c-0.43-0.08-0.81-1.18-0.96-1.86c-0.12-0.52-0.09-1.07-0.06-1.61c0.01-0.24,0.02-0.47,0.03-0.71
	c0-0.9,0.24-1.58,0.7-2.03c0.04-0.05,0.09-0.09,0.14-0.13c0.04-0.03,0.08-0.06,0.12-0.09c0.17-0.12,0.37-0.22,0.6-0.29
	c0.17-0.06,0.36-0.1,0.55-0.13c0.2-0.03,0.42-0.04,0.64-0.04h3.73c-0.22-0.27-0.39-0.53-0.51-0.78c-0.1-0.17-0.16-0.32-0.2-0.47
	c-0.02-0.08-0.04-0.15-0.06-0.22c-0.06-0.28-0.06-0.55-0.01-0.79c0,0,0-0.01,0-0.02c0.07-0.36,0.23-0.68,0.45-0.97
	c0.06-0.1,0.14-0.2,0.23-0.29c0.08-0.1,0.16-0.19,0.25-0.28c0.18-0.19,0.37-0.36,0.56-0.53c0.05-0.04,0.11-0.08,0.17-0.11
	c0.03-0.02,0.07-0.03,0.11-0.04c0.11-0.05,0.24-0.07,0.38-0.08c0.07-0.01,0.14-0.01,0.21-0.01c0.28-0.02,0.59,0,0.88,0
	c0.12,0,0.23,0,0.34-0.01h0.01c0.4,0.13,0.79,0.27,1.18,0.4c0.8-0.55,1.74-0.98,2.35-1.69c0.07-0.08,0.14-0.16,0.22-0.23
	c0.15-0.15,0.31-0.28,0.47-0.39c0.47-0.31,0.96-0.46,1.43-0.41c0.06,0,0.11,0.01,0.17,0.03c0.28,0.05,0.55,0.19,0.8,0.42
	c0.05,0.05,0.1,0.09,0.14,0.14l0.01,0.01c0.69,0.01,1.38,0.04,2.06,0.06c0.46-0.17,0.91-0.34,1.36-0.51h0.01v-1.27
	c-0.23-0.12-0.47-0.23-0.7-0.35c0.26-0.15,0.51-0.3,0.77-0.45c1.11-0.39,2.21-0.79,3.32-1.19c0.04-0.38,0.1-0.72,0.22-0.96
	c0.05-0.12,0.13-0.22,0.21-0.29c0.17-0.13,0.4-0.15,0.72,0.01c0.16,0.08,0.34,0.2,0.54,0.36c0.28-0.12,0.57-0.25,0.86-0.37
	c-0.04-0.2-0.1-0.4-0.13-0.61c-0.11-0.74-0.23-1.48-0.34-2.23c0.65,0.3,1.31,0.61,1.97,0.9c0.18,0.08,0.39,0.1,0.59,0.15v-0.01
	c0.29-0.21,0.57-0.42,0.86-0.63c0.28-0.22,0.57-0.43,0.86-0.65c0.21-0.01,0.42-0.03,0.62-0.05c0.02-0.13,0.05-0.28,0.05-0.41
	c0.12-4.86,0.81-5.38,5.52-4.81c0.93,0.11,2.27-0.41,2.86-1.11C442.2,349.08,442.37,347.86,441.01,346.74z M255.37,397.33
	c-0.23-1.3-0.58-2.54,0.53-3.2c0.08-0.06,0.16-0.1,0.26-0.14c0.11-0.05,0.24-0.1,0.38-0.14c0.37-0.11,1.36,0.54,1.36,0.83
	C257.88,396.19,256.92,396.97,255.37,397.33z M257.89,389.88c-0.07,0.05-0.13,0.09-0.19,0.13c-0.06,0.03-0.11,0.06-0.17,0.09
	c-0.05,0.02-0.1,0.03-0.15,0.03c-0.01,0-0.03,0.01-0.05,0c-0.07-0.01-0.15-0.05-0.21-0.1c-0.07-0.05-0.13-0.1-0.19-0.16
	c-0.14-0.13-0.26-0.27-0.39-0.39c0.23-0.14,0.45-0.38,0.69-0.44c0.03-0.01,0.07-0.01,0.1-0.01c0.04,0,0.07,0,0.11,0.01
	c0.23,0.06,0.48,0.3,0.89,0.54C258.16,389.68,258.02,389.79,257.89,389.88z M347.45,474.49c-0.8-0.2-1.6-0.39-2.39-0.6
	c-0.8-0.2-1.59-0.41-2.38-0.66c-0.18-0.05-0.38-0.91-0.24-1.04c0.34-0.31,0.93-0.69,1.28-0.63c0.03,0,0.05,0,0.07,0.01
	c0.34,0.14,0.68,0.3,1.01,0.46c0.66,0.32,1.31,0.67,1.96,1.03c0.33,0.18,0.65,0.36,0.98,0.53
	C347.64,473.9,347.55,474.19,347.45,474.49z M402.07,375.71c0.01,0.02,0,0.04,0,0.06c-0.02,0.06-0.03,0.12-0.04,0.19
	c-0.07,0.25-0.19,0.5-0.35,0.75c-0.03,0.06-0.11,0.09-0.21,0.11c-0.16,0.03-0.38,0.03-0.6,0.02h-0.45v-3.46c0,0,0.01,0,0.01,0.01
	c0.23,0.14,0.42,0.28,0.6,0.43c0.09,0.07,0.17,0.14,0.25,0.21c0.35,0.31,0.58,0.62,0.69,0.93c0.03,0.07,0.05,0.13,0.06,0.19
	c0.03,0.07,0.04,0.13,0.04,0.19C402.09,375.46,402.09,375.59,402.07,375.71z"/>
<path class="st26" d="M358.36,473.24c-0.46-0.66-0.79-1.73-1.39-1.92c-2.62-0.82-1.68-2.93-1.4-4.37c0.14-0.73,1.9-1.16,3.14-1.5
	c0.49-0.95,1.09-2.29-1.01-2.59c-0.06-0.01-0.16-0.05-0.18-0.1c-0.78-2.44-2.93-3.64-4.7-5.17c1.11-0.13,2.22-0.22,3.31-0.39
	c2.12-0.32,3.75,0.99,3.83,3.11c0.02,0.63,0.06,1.26,0.09,1.89c-0.01,0.41-0.02,0.82-0.03,1.23c-0.01,0.42-0.01,0.85-0.02,1.27
	c-0.03,2.39-0.06,4.79-0.08,7.18c-0.13,0.41-0.27,0.83-0.4,1.24c-0.09,0.03-0.18,0.07-0.27,0.11
	C358.95,473.24,358.65,473.24,358.36,473.24z"/>
<path class="st26" d="M360.06,520.59c-0.44,0.44-0.87,0.88-1.31,1.32c-0.67-0.19-1.33-0.39-2-0.58c-0.01-0.37-0.01-0.73-0.02-1.1
	c0.48-0.61,0.96-1.22,1.43-1.83c-0.51-0.24-1.02-0.49-1.53-0.73c1.39-2.58,2.65,0.76,4.22-0.02c0-1.34-0.06-2.8,0.02-4.26
	c0.08-1.43,0.3-2.84,0.46-4.27c0.26,0.02,0.51,0.03,0.77,0.05c0.03,0.12,0.07,0.24,0.09,0.36c0.1,1.56,0.21,3.13,0.31,4.69
	c-0.03,0.4-0.06,0.8-0.09,1.2c-0.1,0.31-0.2,0.62-0.3,0.93C361.43,517.76,360.74,519.18,360.06,520.59z"/>
<path class="st26" d="M343.94,476.95c-0.54-0.02-1.08-0.03-1.62-0.05c-0.06-0.09-0.09-0.19-0.09-0.3c0.66-0.35,1.29-0.86,1.99-1.01
	c1.54-0.31,4.17,1.33,4.33,2.56c0.06,0.06,0.1,0.14,0.1,0.22c-0.46,0-0.92,0-1.38-0.01c-0.26-0.05-0.52-0.1-0.78-0.15
	c-0.42-0.28-0.84-0.56-1.26-0.84C344.8,477.24,344.37,477.09,343.94,476.95z"/>
<path class="st3" d="M374.4,535.78c0.4,0.72,0.81,1.45,1.21,2.17C375.21,537.22,374.81,536.5,374.4,535.78z"/>
<path class="st4" d="M364.17,531.17c-0.39-0.57-0.78-1.13-1.17-1.7C363.39,530.03,363.78,530.6,364.17,531.17z"/>
<path class="st3" d="M368.83,491.81c0.16,0.42,0.32,0.84,0.48,1.25C369.15,492.65,368.99,492.23,368.83,491.81z"/>
<path class="st4" d="M362.49,529.06c-0.39-0.29-0.78-0.58-1.17-0.87C361.71,528.48,362.1,528.77,362.49,529.06z"/>
<path class="st2" d="M366.42,518.46c-0.04,0.28-0.08,0.56-0.11,0.84C366.34,519.03,366.38,518.75,366.42,518.46z"/>
<path class="st2" d="M368.42,503.22c-0.09,0.3-0.19,0.6-0.28,0.91C368.23,503.82,368.32,503.52,368.42,503.22z"/>
<path class="st3" d="M369.68,493.92c0.15,0.28,0.31,0.56,0.46,0.84C369.99,494.49,369.83,494.2,369.68,493.92z"/>
<path class="st11" d="M360,464.71c0.01-0.42,0.01-0.85,0.02-1.27C360.01,463.86,360,464.28,360,464.71z"/>
<path class="st3" d="M374.01,534.88c0.11,0.17,0.22,0.34,0.33,0.51C374.23,535.22,374.12,535.05,374.01,534.88z"/>
<path class="st4" d="M362.95,529.45c-0.14-0.12-0.28-0.23-0.43-0.35C362.67,529.22,362.81,529.33,362.95,529.45z"/>
<path class="st3" d="M380.69,441.78c0.29-0.4,0.58-0.81,0.86-1.21C381.27,440.97,380.98,441.38,380.69,441.78z"/>
<path class="st3" d="M382.42,439.34c0.04-0.17,0.08-0.34,0.12-0.51C382.5,439,382.46,439.17,382.42,439.34z"/>
<path class="st26" d="M416.42,366.62c-0.6,0.86-1.2,1.71-1.8,2.57c-0.34-0.88-0.68-1.76-1.01-2.64c0.8-0.56,1.74-0.98,2.35-1.7
	c0.98-1.14,2.33-1.43,3.24-0.44c-0.39,0.25-0.77,0.51-1.15,0.76c-0.33,0.15-0.66,0.31-0.99,0.47
	C416.85,365.98,416.63,366.3,416.42,366.62z"/>
<path class="st26" d="M428.57,359.47c-0.04-0.2-0.09-0.4-0.12-0.61c-0.12-0.74-0.23-1.49-0.34-2.23c0.65,0.3,1.31,0.61,1.96,0.9
	c0.19,0.08,0.4,0.11,0.6,0.16C430.82,359.28,429.71,359.4,428.57,359.47z"/>
<path class="st26" d="M426.02,360.72c0.13-1.14,0.46-1.88,1.69-0.87C427.15,360.13,426.58,360.42,426.02,360.72z"/>
<path class="st26" d="M421.26,364.49c0.45-0.17,0.91-0.34,1.36-0.51c-0.15,0.4-0.3,0.79-0.45,1.19
	C421.87,364.94,421.56,364.72,421.26,364.49z"/>
<path class="st26" d="M430.66,357.68c0.57-0.43,1.14-0.85,1.71-1.28C431.81,356.82,431.23,357.25,430.66,357.68z"/>
<path class="st26" d="M422.63,362.71c-0.23-0.12-0.47-0.23-0.7-0.35c0.26-0.15,0.51-0.3,0.77-0.45
	C422.68,362.18,422.65,362.44,422.63,362.71z"/>
<path class="st26" d="M379.39,415.48c-1.61,1.77-1.44,3.07,0.58,4.33c2.08,1.3,2.14,2.54,0.83,4.57c-1.23,1.91-2.05,4.07-3.04,6.13
	c-0.41,0.85-0.67,1.8-1.2,2.56c-1.35,1.94-0.93,3.1,1.46,3.73c0.47,0.12,0.91,0.32,1.37,0.49c0.18,0.25,0.36,0.5,0.54,0.75
	c0.01,0.28,0.01,0.56,0.02,0.85c-0.34,0.49-0.6,1.08-1.04,1.45c-0.54,0.45-1.27,1.07-1.84,1c-1.68-0.2-3.32-0.7-4.98-1.09
	c0.3-2.55-0.34-3.07-2.87-2.35c-0.67,0.19-1.33,0.4-2,0.6c-0.18-1.28,0.37-1.89,1.65-2.19c1.48-0.36,2.98-0.84,4.31-1.57
	c0.61-0.34,1.09-1.37,1.16-2.14c0.13-1.34,0.03-2.47,1.58-3.3c1.07-0.57,1.88-1.89,2.46-3.04c0.23-0.47-0.32-1.52-0.78-2.11
	c-1.07-1.35-2.49-2.54-0.44-4.2c0.17-0.14,0.24-0.55,0.18-0.79c-0.75-3.02,1.29-4.8,2.85-6.88c0.97-1.29,1.48-2.91,2.3-4.33
	c0.28-0.48,0.93-1.19,1.29-1.12c3.89,0.73,4.03-2.39,5.01-4.7c0.22-0.52,0.66-0.95,1-1.42c0.17,0.08,0.34,0.15,0.52,0.23
	c0.1,1.14,0.21,2.27,0.37,4.1c0.59-0.89,0.77-1.38,1.12-1.65c0.64-0.5,1.37-0.87,2.06-1.3c-0.39,1.29-1.1,2.58-1.1,3.87
	c-0.01,1.84,0.5,3.68,0.79,5.52c-0.11,0.07-0.24,0.12-0.37,0.14c-1.42-0.46-1.95,0.13-1.77,1.52c0,0-0.02,0.02-0.02,0.02
	c-1.01,0.09-2.01,0.17-3.02,0.26c-0.25-0.04-0.51-0.07-0.76-0.11c-0.53-0.4-1.07-0.79-1.64-1.22c0.06-0.11,0.13-0.3,0.25-0.46
	c0.78-1.12,0.49-2.14-0.66-2.53c-0.41-0.14-1.24,0.84-1.82,1.37c-0.88,0.82-1.71,1.68-2.54,2.55c-0.43,0.44-0.81,0.93-1.21,1.39
	c0,0-0.01,0.01-0.01,0.01c-0.15,0.14-0.29,0.28-0.44,0.41c-0.05,0.04-0.15,0.1-0.14,0.11c0.04,0.09,0.1,0.17,0.16,0.25
	C379.45,415.27,379.4,415.37,379.39,415.48z"/>
<path class="st11" d="M390.49,415.64c-0.16,0.12-0.31,0.24-0.47,0.36C390.18,415.88,390.34,415.76,390.49,415.64z"/>
<path class="st26" d="M406.6,402.53c-0.67-0.44-1.34-0.87-2.1-1.37c2.42-2.04,3.03-4.8,3.28-7.72c0.03-0.35,0.04-0.73-0.06-1.05
	c-0.39-1.21-1.37-2.3-0.01-3.64c1.41-1.39,2.93-2.07,4.89-1.75c-0.18,0.24-0.37,0.47-0.56,0.7c-0.27,0.3-0.55,0.6-0.82,0.89
	c-0.03,0.11-0.07,0.22-0.14,0.31c-0.36,0.62-0.71,1.24-1.07,1.86c-0.08,0.22-0.16,0.44-0.24,0.67c-0.92,1.13-1.98,2.22-1.13,3.87
	c-0.08,1.39-0.15,2.77-0.23,4.16C407.81,400.48,407.2,401.51,406.6,402.53z"/>
<path class="st26" d="M411.63,374.51c0.24,0.2,0.47,0.4,0.71,0.61c0.4,0.55,0.79,1.11,1.19,1.66c0.18,0.15,0.35,0.29,0.53,0.44
	c0.33,0.2,0.67,0.41,1,0.61c0.12,0.02,0.24,0.06,0.35,0.11c0.36,0.45,0.73,0.9,1.09,1.35c0.05,0.26,0.11,0.51,0.16,0.77
	c-0.14,0-0.29,0-0.43,0c-0.71,0.21-1.43,0.42-2.16,0.64c-1.49-1.52-3.8-2.61-2.61-5.84c-1.86,0.6-0.94,3.63-3.26,2.65
	c0.31-0.97,0.61-1.93,0.92-2.9C409.95,374.58,410.79,374.54,411.63,374.51z"/>
<path class="st26" d="M412.86,386.4c1.13-1.41,2.26-2.82,3.39-4.23c0.16,0.29,0.31,0.57,0.47,0.86c-0.69,0.87-1.38,1.75-2.07,2.62
	C414.05,385.9,413.45,386.15,412.86,386.4z"/>
<path class="st6" d="M410.01,390.76c0.36-0.62,0.71-1.24,1.07-1.86C410.72,389.52,410.37,390.14,410.01,390.76z"/>
<path class="st6" d="M411.22,388.59c0.27-0.3,0.55-0.6,0.82-0.89C411.77,388,411.49,388.3,411.22,388.59z"/>
<path class="st26" d="M412.85,386.41c0.03,0.17,0.05,0.33,0.08,0.5c0,0-0.15,0.12-0.15,0.12s-0.19-0.01-0.19-0.01
	C412.67,386.82,412.76,386.61,412.85,386.41z"/>
<path class="st26" d="M374.66,459.66c0.01,0.26,0.03,0.52,0.04,0.78c-0.04,0.05-0.14,0.11-0.13,0.15c0.03,0.12,0.09,0.23,0.14,0.34
	c-0.01,0.25-0.02,0.5-0.03,0.75c-0.4,0.4-0.81,0.8-1.22,1.2c-0.23-0.01-0.46-0.01-0.7-0.02c-2.59-2.75-3.13-2.73-4.94,0.24
	c-0.11,0.18-0.2,0.37-0.29,0.56c-0.4,0.03-0.79,0.07-1.19,0.1c-0.3,0.14-0.6,0.27-0.9,0.41c-0.12,0.06-0.23,0.14-0.33,0.24
	c-0.53,0.12-1.12,0.44-1.58,0.31c-0.66-0.18-1.65-0.61-1.75-1.08c-0.46-2.3-0.66-4.64-0.95-6.97c0.21-0.63,0.41-1.27,0.62-1.9
	c0.35-0.36,0.69-0.73,1.04-1.09c0.71-0.7,1.42-1.4,2.12-2.11c0.6-0.05,1.24-0.01,1.81-0.18c1.05-0.31,2.7-0.53,2.93-1.2
	c0.35-1-0.28-2.36-0.56-3.54c-0.18-0.76-0.5-1.5-0.75-2.25c0.39-0.06,0.79-0.11,1.18-0.16c1.71,0.05,3.42,0.16,5.12,0.13
	c1.56-0.03,3.12-0.22,4.68-0.33c0.3,0,0.61,0.01,0.91,0.01c0.79,0.8,1.58,1.6,2.48,2.51c-0.32,0.16-0.6,0.43-0.87,0.42
	c-1.96-0.11-2.54,0.9-2.51,2.72c0.04,3.16-0.07,3.16-3.16,4.12c-1.5,0.47-1.92,1.51-1.08,2.92c0.01,0.14,0.02,0.27,0.04,0.41
	c-0.07,0.1-0.13,0.21-0.18,0.32C374.67,458.18,374.67,458.92,374.66,459.66z"/>
<path class="st6" d="M415.05,377.83c-0.33-0.2-0.67-0.41-1-0.61C414.39,377.42,414.72,377.62,415.05,377.83z"/>
<path class="st26" d="M254.82,317.17c0.04-0.12,0.05-0.25,0.03-0.37c0.55-0.34,1.09-0.68,1.64-1.03c0.26-0.35,0.49-0.74,0.79-1.05
	c0.36-0.37,0.77-0.69,1.17-1.03c0.25,0.28,0.5,0.55,0.75,0.83c0.08,0.26,0.15,0.53,0.23,0.79c-0.06,0.41-0.13,0.82-0.19,1.24
	c0.27,0.6,0.55,1.19,0.82,1.79c0.07,0.24,0.14,0.48,0.21,0.71c0.2,0.61,0.4,1.21,0.59,1.82c0,0.66,0,1.31-0.01,1.97
	c-0.01,1.04-0.02,2.08-0.03,3.12c0.01,0.65,0.01,1.31,0.02,1.96c-0.52,1.37-1.04,2.75-1.55,4.12c-0.22-0.01-0.44-0.01-0.65-0.02
	c-0.45-0.48-0.9-0.95-1.34-1.43c-0.41,0.84-0.83,1.69-1.24,2.53c0,0,0,0,0,0c-0.79-0.17-1.58-0.34-2.37-0.51
	c-0.06-0.55-0.11-1.1-0.17-1.65c-0.34-0.47-0.68-0.93-1.02-1.4c-0.27-0.24-0.54-0.49-0.81-0.73c0.05-0.55,0.1-1.1,0.16-1.66
	c0.55-0.03,1.11-0.07,1.66-0.1c0.11,0.05,0.22,0.11,0.31,0.18c0.42,0.22,0.97,0.72,1.22,0.6c0.41-0.19,0.96-0.97,0.85-1.19
	c-0.32-0.64-0.95-1.13-1.46-1.68l-0.08-0.08c-0.5-0.28-1-0.56-1.5-0.84c-0.06-0.38-0.13-0.76-0.19-1.14
	c0.06-0.25,0.12-0.51,0.18-0.76c0.24-0.16,0.48-0.31,0.71-0.47C253.98,320.2,254.4,318.69,254.82,317.17z"/>
<path class="st18" d="M250.14,329.69c-0.16-0.03-0.31-0.06-0.47-0.09C249.82,329.63,249.98,329.66,250.14,329.69z"/>
<path class="st26" d="M259.78,344.54c0.42,0.57,1.17,1.13,1.18,1.7c0.03,1.77,0.51,2.94,2.43,3.29c0.54,0.1,0.98,0.7,2.03,1.49
	c-1.54,0.75-2.65,1.28-4.05,1.96c-0.21-1.43-0.33-2.28-0.46-3.14c-0.2-0.02-0.41-0.05-0.61-0.07c-0.07,0.69-0.43,1.53-0.16,2.04
	c0.7,1.34,1.43,2.94,2.61,3.68c1.51,0.95,1.39,1.82,0.9,3.1c-0.55,1.43-0.86,2.83,0.48,4.09c0.25,0.23,0.41,0.97,0.25,1.14
	c-1.24,1.35-2.34,3.11-3.91,3.82c-2.87,1.3-3.89,3.95-1.78,6.38c1.48,1.7,1.7,3.5,1.25,5.65c-0.31,1.47-0.88,1.74-2.12,1.26
	c0.12-0.27,0.25-0.55,0.37-0.82c1.74-1.54,1.79-3.6-0.13-4.81c-1.33-0.83-1.78-1.81-1.68-3.26c0.09-1.25,0.08-2.5,0.11-3.76
	c2.73-2,4.78-4.36,4.2-8.08c0.15-0.12,0.3-0.24,0.45-0.36c0.29-0.15,0.57-0.3,0.86-0.45c1.29-1.55,1.08-2.38-0.78-3.1
	c-0.43-0.17-0.86-0.34-1.29-0.51c0-0.09,0-0.18-0.01-0.27c-0.21-0.4-0.41-0.8-0.62-1.2c-0.22-0.32-0.43-0.65-0.65-0.97
	c0-0.26-0.01-0.52-0.01-0.77c-0.06-0.56-0.12-1.12-0.17-1.68c0-0.29,0-0.57,0-0.86C260.34,348.52,260.18,346.56,259.78,344.54z"/>
<path class="st26" d="M250.09,398.25c0.16,1.74,0.31,3.49,0.47,5.23c-0.57,0.27-1.13,0.54-1.7,0.8c-0.16-0.03-0.31-0.06-0.47-0.09
	c-0.3-0.09-0.59-0.18-0.89-0.27c-0.42-0.34-0.84-0.68-1.25-1.02c-0.01-0.55-0.02-1.1-0.03-1.65c-0.02-0.29-0.03-0.58-0.05-0.88
	c0.07-0.26,0.14-0.53,0.22-0.79c0.96-0.73,1.93-1.46,2.9-2.2c0.24,0.16,0.49,0.32,0.73,0.48C249.98,398,250.01,398.13,250.09,398.25
	z"/>
<path class="st26" d="M257.4,381.35c0.21,0.27,0.65,0.62,0.59,0.78c-0.78,2.09-1.63,4.16-2.46,6.24c-0.24,0.61-0.8,1.32-0.66,1.83
	c0.51,1.86,0.04,2.43-1.81,1.8c-0.29-0.1-0.66,0.02-0.96,0.04c-0.26,0.87-0.49,1.64-0.72,2.42c-0.04-0.74-0.08-1.49-0.11-2.23
	c0.03-0.24,0.06-0.49,0.09-0.73c0.19-0.37,0.37-0.75,0.56-1.12c0,0-0.05-0.13-0.05-0.13s0.07,0.12,0.07,0.12
	c0.09,0.03,0.18,0.05,0.27,0.06c1.94-1.07,2.36-2.85,2.28-4.87c0.24-0.55,0.48-1.11,0.72-1.66c0.27-0.43,0.54-0.86,0.82-1.29
	C256.47,382.18,256.93,381.77,257.4,381.35z"/>
<path class="st26" d="M256.44,361.46c0.45-0.05,0.9-0.1,2.06-0.23c-0.9,1.9-1.47,3.45-2.35,4.79c-0.33,0.49-1.42,0.47-2.16,0.68
	c-0.15-0.72-0.37-1.43-0.44-2.15c-0.03-0.3,0.25-0.63,0.39-0.94c0.13-0.14,0.27-0.28,0.4-0.42c0.42-0.29,0.84-0.59,1.26-0.88
	C255.89,362.03,256.17,361.74,256.44,361.46z"/>
<path class="st26" d="M250.06,418.57c-2.58,1.02-4.1-0.91-5.87-2.12c0,0-0.01-0.01-0.01-0.01c-0.01-0.28-0.01-0.56-0.02-0.83
	c0.57-0.18,1.14-0.37,1.72-0.55c0.54,0.47,1.08,0.95,1.63,1.42c0.16,0.11,0.32,0.22,0.48,0.33
	C248.68,417.39,249.37,417.98,250.06,418.57z"/>
<path class="st6" d="M248.75,408.84c0.05-0.16,0.1-0.31,0.14-0.47c0.53,0.59,1.07,1.17,1.61,1.76c-0.4-0.16-0.8-0.32-1.2-0.48
	C249.11,409.39,248.93,409.11,248.75,408.84z"/>
<path class="st11" d="M251.9,390.36c-0.19,0.37-0.37,0.75-0.56,1.12C251.53,391.11,251.72,390.74,251.9,390.36z"/>
<path class="st6" d="M259.31,354.29c0.21,0.4,0.41,0.8,0.62,1.2C259.72,355.09,259.52,354.69,259.31,354.29z"/>
<path class="st11" d="M255.62,362.31c-0.42,0.29-0.84,0.59-1.26,0.88C254.77,362.89,255.2,362.6,255.62,362.31z"/>
<path class="st6" d="M246.21,401.25c-0.13,0.03-0.26,0.08-0.37,0.16c0.11-0.34,0.22-0.69,0.33-1.03
	C246.18,400.66,246.2,400.95,246.21,401.25z"/>
<path class="st11" d="M247.5,403.92c0.3,0.09,0.59,0.18,0.89,0.27c-0.28,0.02-0.57,0.05-0.85,0.07
	C247.51,404.15,247.5,404.04,247.5,403.92z"/>
<path class="st26" d="M219.13,416.14c1.07,1.1,2.1,2.24,3.23,3.27c0.5,0.45,1.3,0.58,1.78,1.04c2.55,2.47,5.18,1.42,8.11,0.71
	c3.82-0.92,7.42-4.01,11.74-1.77c0.73,0.38,1.52,0.64,2.28,0.95c-0.18,1.15-0.8,1.21-1.84,0.97c-1.49-0.34-3.03-0.5-4.56-0.59
	c-1.19-0.07-2.03,0.43-1.89,1.89c3.7,0.21,7.35,0.41,10.99,0.62c-0.02,0.28-0.03,0.55-0.05,0.83c-3.43,0-6.86,0.09-10.29-0.04
	c-1.97-0.07-4.14-1.16-5.85-0.62c-2.56,0.8-4.96,1.15-7.56,0.7c-1.22-0.21-1.77,0.44-1.82,1.71c-0.02,0.53-0.44,1.42-0.78,1.47
	c-0.57,0.09-1.34-0.22-1.83-0.62c-1.48-1.2-0.13-2.02,0.48-2.97c0.49-0.76,0.85-1.61,1.26-2.41c-0.78-0.34-1.54-0.93-2.34-0.98
	c-2.32-0.15-3.66-1.75-5.14-3.16c-0.66-0.64-1.14-1.47-1.67-2.16c-0.96,1.05-1.52,1.65-2.08,2.26c-0.59-0.72-1.2-1.43-1.77-2.18
	c-0.11-0.14,0.02-0.45-0.07-0.62c-0.42-0.78-0.87-1.54-1.33-2.35c-0.71,0.67-1.09,1.03-1.47,1.39c-0.08-1.26-0.15-2.51-0.23-3.77
	c0,0,0.2,0.01,0.2,0.01c0.14,0.12,0.27,0.23,0.41,0.35c0.65,0.56,1.22,1.29,1.98,1.64C212.38,413.25,215.77,414.67,219.13,416.14z"
	/>
<path class="st26" d="M270.37,429.77c0,0-0.11-0.02-0.11-0.02c-0.38-0.34-0.75-0.69-1.13-1.04c0,0-0.02,0.01-0.02,0.01
	c-0.56-0.43-1.13-0.86-1.69-1.29c-0.14-0.1-0.27-0.21-0.41-0.31c-0.14-0.03-0.28-0.07-0.41-0.1c-0.99-0.56-1.98-1.13-2.97-1.69l0,0
	c-3.02-2.21-4.75-5.24-5.65-8.82c-0.09-1.22-0.01-2.48-0.31-3.65c-0.23-0.88-0.95-1.63-1.46-2.43c-0.04-0.12-0.11-0.22-0.22-0.29
	c-0.14-0.15-0.28-0.31-0.43-0.46c-0.16-0.27-0.32-0.54-0.49-0.82c-0.12-0.13-0.25-0.26-0.37-0.4c0,0,0.04-0.07,0.04-0.07
	c-0.26-1.35-0.52-2.7-0.76-4.06c-0.32-1.74-0.62-3.48-0.93-5.23c0.14,0.45,0.23,0.92,0.44,1.34c0.26,0.54,0.61,1.03,0.93,1.54
	c0.44-0.33,0.83-0.76,1.32-0.95c0.48-0.18,1.05-0.1,1.58-0.14c-0.06,0.89,0.09,1.87-0.25,2.63c-0.35,0.76-1.2,1.3-1.84,1.93
	c1.22,1.19,0.55,3.51,2.62,4.23c0.95,0.33,1.78,0.97,2.71,1.49c-2.64,2.91-0.57,5.64,0,8.29c0.27,1.27,0.72,2.8,2.49,3.33
	c1.83,0.54,3.25,0.22,4.23-1.42c0.14-0.24,0.22-0.59,0.43-0.71c0.69-0.39,1.41-0.79,2.16-0.99c0.2-0.05,0.89,0.69,0.84,0.97
	c-0.16,0.77-0.51,1.53-0.94,2.18c-0.24,0.37-0.87,0.47-1.22,0.79c-0.76,0.69-1.12,1.41-0.1,2.27c1.59,1.34,2.98,3.16,5.58,1.52
	c-0.1,2.15,0.91,2.9,2.79,2.63c-0.15,0.21-0.29,0.42-0.44,0.64c1.17,0.86,2.26,1.87,3.53,2.55c2.11,1.13,4.39,1.97,4.46,4.95
	c0.01,0.26,0.56,0.5,0.83,0.78c1.82,1.95,3.63,3.91,5.45,5.86c-0.07,0.07-0.14,0.14-0.2,0.21c-1.21-0.77-2.42-1.53-3.63-2.3
	c0,0,0-0.01,0-0.01c-0.7-0.56-1.4-1.13-2.1-1.69c-0.46-0.55-0.91-1.11-1.37-1.66c-0.53-0.72-1.06-1.43-1.59-2.15
	c-0.04-0.14-0.07-0.28-0.11-0.42c-0.09-0.16-0.19-0.31-0.28-0.47c-0.15-0.16-0.29-0.31-0.44-0.47c-1.79-2.17-4.05-3.56-6.82-4.12
	C272.89,431.08,271.63,430.43,270.37,429.77z"/>
<path class="st26" d="M366.27,443.56c-0.02,0.39-0.03,0.78-0.04,1.18c-1.24,0.9-0.11,1.53,0.31,2.15c0.43,0.64,1.04,1.17,1.71,1.89
	c-0.83,0.43-1.36,0.71-1.89,0.98c-0.19,0.03-0.38,0.05-0.57,0.08c-0.18-0.02-0.37-0.05-0.55-0.07c-0.5-0.06-0.99-0.12-1.48-0.19
	c-0.25,0.1-0.5,0.21-0.76,0.31c-0.36,0.21-0.72,0.42-1.08,0.63c-0.48,0.09-0.95,0.19-1.43,0.28c-0.62,0.47-1.24,0.93-1.86,1.4
	c0,0-0.07,0.07-0.07,0.07c-0.35,0.39-0.85,0.73-1.03,1.19c-0.85,2.09-2.7,2.86-4.78,2.06c-0.65-0.25-1.45-0.11-2.18-0.15
	c-0.06,0.23-0.12,0.46-0.18,0.69c0.54,0.48,1.08,0.95,1.62,1.43c-0.32,0.2-0.71,0.64-0.95,0.57c-1.5-0.46-1.63-1.66-1.63-3.03
	c0-1.46,1.08-1.49,1.98-1.67c0.74-0.15,1.54-0.05,2.31-0.06c2.22-0.02,2.5-0.4,1.69-2.46c-0.66-1.69-0.68-3.33-0.06-4.97
	c0.24-0.04,0.49-0.08,0.73-0.13c0.19,0.84,0.49,1.68,0.55,2.53c0.11,1.63,0.9,1.86,2.27,1.35c1.08-0.4,2.43-0.41,3.26-1.09
	c1.05-0.86,1.69-2.23,2.52-3.37c0.4-0.55,0.82-1.08,1.23-1.61c0,0,0.19,0.01,0.19,0.01S366.27,443.56,366.27,443.56z"/>
<path class="st26" d="M303.23,454.67c-0.1-0.03-0.19-0.09-0.26-0.17c-0.46-0.38-0.91-0.77-1.37-1.16c-0.28-0.15-0.56-0.3-0.84-0.45
	c-1.12-0.67-2.25-1.35-3.37-2.02c-0.12-0.06-0.24-0.1-0.37-0.13c-1.13-0.85-2.26-1.7-3.38-2.55c-0.13-0.15-0.27-0.29-0.4-0.44
	c-0.58-0.4-1.16-0.8-1.74-1.21c-0.16-0.14-0.32-0.28-0.48-0.42c-0.18-0.37-0.36-0.74-0.53-1.11c0.07-0.07,0.14-0.14,0.2-0.21
	c1.04,0.62,2.04,1.33,3.14,1.81c0.56,0.24,1.31,0.04,1.97,0.04c0.33,2.21,1.29,2.72,4.22,2.04c-0.14-0.51-0.35-1-0.4-1.51
	c-0.04-0.45,0.11-0.92,0.17-1.38c0.42,0.24,1.07,0.39,1.23,0.75c0.71,1.57,1.47,3.16,1.85,4.83c0.37,1.62,1.12,2.49,2.87,2.61
	c0.39-0.61,0.82-1.27,1.5-2.32c0.9,1.33,1.62,2.4,2.34,3.47c-0.67,0.41-1.35,0.82-2.07,1.26c0.11,0.47,0.29,1.22,0.47,1.97
	c-0.54-0.29-1.08-0.58-1.63-0.87c-0.06-0.08-0.11-0.18-0.12-0.28c-0.25-0.32-0.51-0.63-0.76-0.95l0,0
	c-0.33-0.25-0.65-0.49-0.98-0.74c-0.1-0.01-0.19-0.05-0.27-0.12C303.87,455.16,303.55,454.91,303.23,454.67z"/>
<path class="st26" d="M260.18,334.28c0.29-0.41,0.58-0.82,0.87-1.23c0.73-0.52,1.46-1.04,2.2-1.56c0.36-0.21,0.73-0.42,1.09-0.63
	c1.36,0.09,1.4-0.81,1.34-1.79c0-0.65-0.01-1.3-0.01-1.95c0.06-0.26,0.11-0.51,0.17-0.77c0.37-1.27,0.74-2.54,1.1-3.81
	c1.19,0.1,2.38,0.21,3.71,0.33c0.4,1.26,0,2.08-1.25,3.15c-1.28,1.09-3.66,2.1-2.53,4.82c1.12,0.09,2.26,0.19,3.39,0.28
	c0.07,0.21,0.15,0.43,0.22,0.64c-0.54,0.31-1.08,0.64-1.63,0.93c-0.68,0.35-1.38,0.67-2.03,0.59c-1.1-0.09-2.27-0.45-3.29-0.2
	c-1.58,0.39-2.14,1.61-2.06,3.35c0.1,2.46-2.02,3.81-3.34,5.54c0.23-0.86,0.25-1.86,0.73-2.55
	C259.95,337.84,260.46,336.19,260.18,334.28z"/>
<path class="st26" d="M312.96,464.39c-0.11-0.02-0.2-0.06-0.29-0.13c-0.7-0.43-1.39-0.86-2.09-1.29c-0.13-0.03-0.26-0.06-0.39-0.1
	c-0.6-0.79-1.2-1.59-1.8-2.38c1.81,0.54,3.64,1.03,5.42,1.67c0.52,0.19,1.01,0.76,1.3,1.27c1.21,2.1,2.76,2.71,5.16,1.93
	c1.79-0.59,2.43-0.12,2.54,1.75c0.09,1.45,0.27,2.9,0.41,4.35c-0.01,0.09-0.02,0.17-0.02,0.26c-0.82-0.36-1.76-0.57-2.44-1.11
	c-2.04-1.63-3.97-3.4-5.95-5.11C314.2,465.13,313.58,464.76,312.96,464.39z"/>
<path class="st26" d="M404.75,373.62c-0.32,0.77-0.63,1.54-0.95,2.32c0.19,0.14,0.37,0.28,0.56,0.42c0.61-0.41,1.22-0.81,1.8-1.2
	c0.67,0.77,1.35,1.56,2.04,2.35c-0.01,0.07-0.02,0.2-0.03,0.2c-1.35,0.02-2.73,0.18-4.04-0.06c-0.43-0.08-0.81-1.18-0.96-1.87
	c-0.16-0.74-0.04-1.54-0.04-2.32c0.02-1.82,0.95-2.71,2.75-2.71c1.1,0,2.21,0,3.73,0c-1.65-2.05-0.47-3.29,0.71-4.35
	c0.43-0.39,1.39-0.19,2.11-0.26c-2.38,1.12-1.4,3.6-2.18,5.37c0,0-0.03,0.02-0.03,0.02c-0.87,0.16-1.8,0.2-2.61,0.52
	C406.61,372.45,405.7,373.09,404.75,373.62z"/>
<path class="st26" d="M406.06,404.61c0.02,0.15,0.05,0.3,0.07,0.45c-0.04,0.11-0.08,0.22-0.11,0.34c-0.25,0.31-0.49,0.62-0.74,0.93
	c-0.27,0.17-0.53,0.35-0.8,0.52c-0.33,0.21-0.67,0.42-1,0.62c-0.11,0.04-0.23,0.07-0.34,0.11c-0.15,0.12-0.3,0.25-0.45,0.37
	c0,0-0.02,0.01-0.02,0.01c-0.13,0.15-0.25,0.3-0.38,0.45c-0.41,0.95-0.66,2.03-1.28,2.82c-0.64,0.82-1.66,1.94-2.46,1.9
	c-1.58-0.08-1.95-1.52-1.73-3.01c0.11-0.03,0.23-0.05,0.35-0.06c1.19,0.95,2.13,1.42,3.02-0.52
	C401.33,407.07,403.61,405.68,406.06,404.61z"/>
<path class="st26" d="M261.12,312.34c-0.15-0.42-0.3-0.85-0.45-1.27c-0.27-0.86-0.54-1.72-0.81-2.59c-0.03-0.53-0.05-1.07-0.08-1.6
	l0.04-0.05c1.98,0.46,1.86,2.03,1.79,3.62c0.49,0.07,0.9,0.13,1.3,0.19c1.48,0.24,2.13,1.31,1.26,2.48
	c-0.96,1.29-1.54,2.33,0.03,3.54c0.15,0.11-0.14,0.8-0.23,1.21c-0.25-0.02-0.51-0.03-0.77-0.05c-0.27-0.43-0.54-0.87-0.82-1.3
	c-0.04-0.27-0.07-0.53-0.11-0.8C262.22,314.49,262.98,312.97,261.12,312.34z"/>
<path class="st26" d="M347.45,474.49c-1.59-0.41-3.2-0.78-4.77-1.26c-0.19-0.06-0.38-0.92-0.24-1.04c0.36-0.33,1.02-0.75,1.35-0.62
	c1.36,0.57,2.64,1.32,3.95,2.01C347.64,473.89,347.55,474.19,347.45,474.49z"/>
<path class="st26" d="M255.37,397.33c-0.27-1.5-0.69-2.93,1.17-3.48c0.36-0.11,1.36,0.54,1.36,0.83
	C257.88,396.19,256.92,396.97,255.37,397.33z"/>
<path class="st26" d="M397.15,409.3c-0.54-0.86-1.07-1.72-1.61-2.58c0.81-0.21,1.61-0.42,2.86-0.74
	C399.42,406.66,399.23,407.62,397.15,409.3z"/>
<path class="st26" d="M328.27,472.78c1.38-0.01,2.77-0.01,4.15-0.03c1.43-0.02,2.23,0.6,2.22,2.09c-0.74-0.21-1.47-0.45-2.21-0.63
	c-1.09-0.25-2.19-0.45-3.29-0.67c-0.28,0.02-0.56,0.03-0.83,0.05c0,0,0.06-0.12,0.06-0.11
	C328.34,473.24,328.31,473.01,328.27,472.78z"/>
<path class="st26" d="M358.32,473.59c0.01,0.15,0.02,0.31,0.03,0.46c-0.07,0.1-0.12,0.2-0.15,0.32c-0.23,0.18-0.46,0.37-0.69,0.55
	c-0.33,0.38-0.66,0.77-0.99,1.15c-0.19,0.34-0.38,0.68-0.58,1.01c-0.06,0.25-0.11,0.5-0.17,0.76c-0.73,0.18-1.46,0.36-2.19,0.54
	c-0.12-0.04-0.24-0.1-0.35-0.18C354.94,476.67,356.63,475.13,358.32,473.59z"/>
<path class="st26" d="M337.67,476.02c-0.59-0.38-1.17-0.76-1.76-1.13c0.12-0.23,0.29-0.67,0.36-0.66c1.99,0.44,4.34,0.07,5.57,2.32
	c-0.57,0.01-1.14,0.03-1.71,0.04c-0.3-1.21-0.94-1.04-1.68-0.41C338.18,476.13,337.92,476.08,337.67,476.02z"/>
<path class="st26" d="M400.42,373.39c1.92,1.22,1.93,2.26,1.26,3.32c-0.14,0.22-0.82,0.1-1.26,0.14
	C400.42,375.85,400.42,374.86,400.42,373.39z"/>
<path class="st26" d="M366.81,439.32c-0.01,1.12-0.03,2.25-0.04,3.37c0,0,0,0,0,0c-0.26,0.01-0.51,0.03-0.77,0.04
	C365.41,441.39,364.68,440.01,366.81,439.32z"/>
<path class="st26" d="M328.28,472.77c-1.27-0.42-2.54-0.83-3.81-1.25C326.14,470.72,327.48,470.94,328.28,472.77z"/>
<path class="st26" d="M253.01,398.28c-0.54-1-1.09-1.99-1.63-2.99C252.78,395.82,253.78,396.57,253.01,398.28z"/>
<path class="st26" d="M363.21,323.76c-0.01-1.26-0.02-2.53-0.04-3.79C363.18,321.23,363.2,322.5,363.21,323.76z"/>
<path class="st26" d="M258.33,389.58c-0.47,0.28-0.78,0.61-0.99,0.56c-0.3-0.08-0.54-0.43-0.8-0.66c0.26-0.16,0.52-0.45,0.79-0.46
	C257.59,389.02,257.85,389.3,258.33,389.58z"/>
<path class="st26" d="M395.47,402.53c-0.26-0.15-0.53-0.3-0.79-0.45c0.31-0.24,0.62-0.49,0.93-0.73
	C395.56,401.74,395.51,402.13,395.47,402.53z"/>
<path class="st26" d="M259.17,306.44c0.08-0.15,0.16-0.29,0.24-0.44c0.14,0.28,0.27,0.56,0.41,0.84c0,0-0.04,0.05-0.04,0.05
	c-0.17,0.03-0.34,0.05-0.52,0.08C259.23,306.78,259.2,306.61,259.17,306.44z"/>
<path class="st26" d="M406.51,403.76c-0.13,0.16-0.27,0.32-0.4,0.48C406.24,404.08,406.38,403.92,406.51,403.76z"/>
<path class="st25" d="M206.69,413.49c0.38-0.36,0.76-0.72,1.47-1.39c0.46,0.81,0.92,1.57,1.33,2.35c0.09,0.17-0.03,0.48,0.07,0.62
	c0.57,0.74,1.17,1.45,1.77,2.18c0.56-0.6,1.12-1.21,2.08-2.26c0.52,0.69,1,1.52,1.67,2.16c1.47,1.41,2.82,3.02,5.14,3.16
	c0.8,0.05,1.56,0.64,2.34,0.98c-0.42,0.81-0.77,1.66-1.26,2.41c-0.62,0.95-1.96,1.77-0.48,2.97c0.49,0.39,1.25,0.7,1.83,0.62
	c0.34-0.05,0.76-0.94,0.78-1.47c0.05-1.27,0.6-1.92,1.82-1.71c2.6,0.44,5,0.1,7.56-0.7c1.72-0.54,3.88,0.55,5.85,0.62
	c3.43,0.13,6.86,0.04,10.29,0.04c0.02-0.28,0.03-0.55,0.05-0.83c-3.64-0.2-7.29-0.41-10.99-0.62c-0.14-1.46,0.7-1.96,1.89-1.89
	c1.53,0.1,3.07,0.26,4.56,0.59c1.03,0.23,1.65,0.17,1.84-0.97c1.55,0,3.1-0.01,4.65-0.01c0.48,0.45,0.89,1.01,1.44,1.32
	c1.47,0.83,1.89,2.06,0.92,2.94c-0.52,0.47-0.97,1.03-1.44,1.56c0.65,0.45,1.26,0.98,1.96,1.35c2.15,1.13,2.13-0.71,2.33-1.62
	c1.21,0.11,2.24,0.2,3.26,0.3c0.42,0.15,0.84,0.3,1.25,0.46c0.18,0.51,0.37,1.01,0.54,1.52c0.3,0.93,0.59,1.86,0.89,2.79
	c-0.2,0.11-0.41,0.23-0.61,0.34c-1.22-1.4-2.37-2.97-4.47-1.75c-0.23,2.48,0.84,3.7,3.47,3.87c1.86,0.12,4.36-0.59,3.2,2.87
	c-0.04,0.11,0.04,0.28,0.11,0.4c0.95,1.82,0.61,3.64,0.14,5.53c-0.16,0.63,0.16,1.44,0.43,2.08c0.29,0.68,0.86,1.23,1.19,1.89
	c1.12,2.25,2.85,2.93,5.1,1.94c1.33-0.58,2.21-0.01,3.37,0.78c1.46,0.99,3.37,1.39,5.14,1.79c0.48,0.11,1.11-0.91,1.77-1.12
	c2.09-0.67,3.76,0.7,3.81,3.14c0.03,1.32,0.09,2.49,1.86,2.3c1.75-0.19,3.2,0.16,3.78,1.96c1.07-0.29,1.99-0.55,2.92-0.8l-0.02,0.04
	c0.15,0.37,0.2,0.98,0.45,1.08c3.49,1.42,4.34,4.16,3.85,7.76c2.27,0.31,4.52,0.62,6.76,0.92l0.15-0.01l0.15,0.05
	c-0.54,0.83-1.08,1.66-1.85,2.82c1.05,1.06,0.12,4.03,3.16,4.34c0,0-0.02-0.01-0.02-0.01c0.23,1.88-1.05,1.64-2.26,1.8
	c-0.56,0.08-1.46,0.91-1.42,1.34c0.06,0.79,0.7,1.54,1.1,2.3c0.45-0.42,1.03-0.76,1.34-1.27c1.27-2.14,4.15-2.26,6.1-0.25
	c0.56,0.58,1.24,1.41,1.9,1.45c0.9,0.05,1.84-0.54,2.76-0.86c-0.54-0.56-1.08-1.13-1.62-1.7c-0.09-0.1-0.15-0.23-0.22-0.34
	c0.74-2.39,1.58-2.79,3.81-2.01c0.77,0.27,1.63,0.27,2.45,0.39l0.01-0.01c-0.37,2.71,3.21,1.55,3.56,3.62
	c0.04,0.26,0.63,0.48,1,0.61c2.21,0.79,4.45,1.52,6.64,2.35c0.3,0.11,0.42,0.71,0.62,1.08c-0.22-0.1-0.44-0.21-0.66-0.31
	c-0.73,0.64-1.45,1.28-2.18,1.92c0.82,0.72,1.55,1.64,2.5,2.1c0.55,0.27,1.72,0.07,2.14-0.37c1.82-1.91,2.86,0.27,3.48,0.96
	c0.92,1.03-0.45,1.72-1.38,2.25c-0.21,0.12-0.31,0.42-0.45,0.64c1.81,2.57,3.08,0.22,4.09-0.3c1.45,0.86,2.55,1.69,3.77,2.18
	c0.8,0.32,1.79,0.16,2.69,0.21c1.39,0.28,2.78,0.56,4.17,0.84c-0.35,0.8-0.7,1.6-1.3,2.96c2.18-1.11,4.39,1.26,6.19-1.17
	c0.23-0.32,0.99-0.25,1.5-0.35c0.08,0.44,0.23,0.89,0.24,1.34c0.01,0.33-0.28,0.69-0.23,1c0.07,0.43,0.33,0.82,0.5,1.23
	c0.4-0.27,0.93-0.45,1.17-0.82c0.5-0.78,0.85-1.66,1.27-2.5l-0.01,0.02c0.14,0.57,0.29,1.15,0.43,1.72c0.13,0.27,0.26,0.53,0.39,0.8
	c0.54,0.3,1.08,0.59,1.62,0.89c0,0,0.12-0.02,0.12-0.02c0.27,0.27,0.54,0.55,0.81,0.82c0,0,0.02,0.02,0.02,0.02
	c0.01,0.54,0.01,1.07,0.02,1.61c-0.16,1.03-0.32,2.06-0.48,3.09c-0.22,0.43-0.45,0.87-0.67,1.3c-0.03,0.11-0.07,0.22-0.12,0.33
	c-0.03,1.41-0.05,2.83-0.07,4.24c0.03,0.28,0.05,0.56,0.08,0.83c-0.16,1.42-0.38,2.84-0.46,4.27c-0.08,1.45-0.02,2.91-0.02,4.26
	c-1.57,0.77-2.83-2.57-4.22,0.01c-0.45,0.41-0.9,0.81-1.34,1.22c-0.82,0.67-1.56,1.76-2.48,1.93c-2.85,0.54-5.78,1.12-8.54-0.52
	c-3.06,2.2-3.09,2.26-2.39,4.12c-0.02,0.27-0.05,0.55-0.07,0.82c-0.12,0.18-0.24,0.35-0.35,0.53c-0.12,0.15-0.25,0.3-0.37,0.45
	c-0.62-0.07-1.24-0.15-1.83-0.21c-1.19-0.85-2.46-1.75-3.72-2.67c-0.32-0.23-0.67-0.51-0.83-0.85c-1.36-2.85-1.35-2.86-4.28-1.91
	c0.05-1.17-0.55-1.51-1.55-1.09c-1.65,0.69-2.95,1.72-3.1,3.69c-0.71,0.83-1.43,1.66-2.14,2.48c-1.49-0.09-1.48,1.08-1.19,1.85
	c0.89,2.43,1.31,4.7-0.87,6.69c-0.07,0.07-0.01,0.27-0.02,0.41c-0.28,0-0.57,0-0.85-0.01c-0.3-2.03-1.9-1.1-2.99-1.32
	c-0.43-0.25-0.85-0.5-1.28-0.74c-0.28-0.31-0.56-0.61-0.84-0.92l-0.02,0.01c0.43-0.92,1-1.81,1.26-2.77c0.76-2.85-2.29-8.5-5-9.47
	c-3.36-1.19-4.59-0.54-4.66,2.47c-0.42,0-0.84,0-1.26,0c-0.82-1.64-1.69-0.06-2.49,0.06c-0.22,0.03-0.28,1.07-0.41,1.65
	c-0.02,0.27-0.03,0.54-0.05,0.8c-0.98,1.16-1.96,2.32-2.94,3.48c-1.99,0.72-2.8,2.43-3.33,4.23c-0.41,1.36-1.11,2.1-2.46,2.54
	c-0.58,0.19-0.93,1.08-1.39,1.65c-0.47,0.51-1.07,0.96-1.38,1.55c-1.43,2.69-2.78,5.42-4.16,8.14c-0.14,0.14-0.27,0.27-0.41,0.41
	c-0.17,0.28-0.34,0.56-0.5,0.84c-1.1,0.51-2.21,1.03-3.31,1.54c-0.43,0.02-0.85,0.04-1.28,0.07c-3.52-0.52-7.04-1.03-10.57-1.55
	c-0.68-0.73-1.36-1.45-2.04-2.18c0.04-0.04,0.13-0.11,0.13-0.13c-0.05-0.1-0.13-0.18-0.19-0.27c-0.05-0.11-0.06-0.23-0.03-0.34
	c-0.6-1.9-1.9-3.03-3.83-3.44c-0.13-0.12-0.26-0.24-0.39-0.36c-0.14-0.17-0.28-0.33-0.41-0.5l0,0.01c-0.56-2.4-0.79-4.98-3.3-6.37
	c-0.44-0.18-0.89-0.36-1.33-0.54c-1.19-2.06-2.37-4.13-3.6-6.17c-0.23-0.38-0.67-0.64-1.01-0.95c-0.57-0.75-1.49-1.44-1.63-2.26
	c-0.43-2.53-1.82-3.69-4.28-4.16c-1.75-0.33-2.66-2.4-2.15-3.99c3.14,1.04,3.07,0.99,4.82-2c0.65-1.11,1.24-2.38,2.9-2.67
	c2.1-0.36,1.7-2.27,1.46-3.58c-0.14-0.77-1.18-1.67-2.01-1.94c-1.5-0.5-2.55,0.4-3.49,1.66c-0.58,0.77-1.76,1.08-2.67,1.6
	c-0.48-0.91-1-1.81-1.43-2.75c-0.13-0.29-0.03-0.69-0.04-1.05c0.01-0.84,0.05-1.67,0.03-2.51c-0.03-2.21-0.64-2.53-2.8-2.32
	c-1.29,0.12-2.64-0.42-3.97-0.67c0-0.14-0.04-0.27-0.11-0.4c0.03-1.52,0.84-2.45,2.21-2.96c1.18-0.5,1.17-1.06,0.09-1.67
	c-0.44-0.3-0.89-0.6-1.33-0.9c0,0,0,0,0,0c-0.15-0.28-0.31-0.57-0.46-0.85c-0.43-0.41-0.86-0.81-1.3-1.22
	c-0.26-0.29-0.53-0.58-0.79-0.87c-0.28-0.42-0.55-0.84-0.83-1.25c-0.05-0.11-0.07-0.23-0.07-0.35c-0.38-1.69-0.81-3.38-1.13-5.08
	c-0.23-1.22,0.15-1.9,1.62-1.59c0.49,0.1,1.1-0.33,1.65-0.51c0.15-0.31,0.3-0.63,0.45-0.94c-0.1-0.42-0.21-0.83-0.31-1.25
	c-0.47-1.17-1.01-2.32-1.39-3.52c-0.75-2.35-1.41-4.72-2.1-7.08c0,0,0-0.01,0-0.01c-0.56-0.85-1.12-1.7-1.68-2.54c0,0,0-0.01,0-0.01
	c-0.84-0.71-1.68-1.42-2.53-2.13c0,0,0,0,0,0c-1.74-2.18-5.35-2.21-6.96-0.1c-0.3,0.39-0.8,0.66-1.26,0.87
	c-0.11,0.05-0.55-0.36-0.65-0.63c-0.5-1.34,0.47-3.23,1.76-3.89c0.62-0.32,1.06-0.99,1.58-1.5c-0.57-0.5-1.13-1.01-1.7-1.51
	l-0.15-0.04c0,0-0.15,0.02-0.15,0.02c-0.19-1.39-0.38-2.78-0.57-4.16c0.68-0.25,1.43-0.39,1.98-0.81c0.19-0.14,0.01-1.3-0.29-1.46
	c-2.17-1.19-1.85-2.83-1.08-4.93c-1.21,0.28-2.45,0.61-3.09,1.41c-0.41,0.52-0.01,1.75,0.14,2.64c0.09,0.52,0.43,1,0.65,1.5
	c-0.68-0.21-1.36-0.42-2.05-0.63c-0.03-0.52-0.07-1.04-0.1-1.56c-0.06-0.4,0.02-1.04-0.2-1.18c-2.97-1.75-3.78-5.02-5.51-7.64
	c-0.45-0.69-1.39-1.2-2.22-1.46c-0.52-0.16-1.23,0.31-1.86,0.49c-0.67,0.15-1.33,0.3-2,0.45c-2.13,0.07-4.32,0.25-5.04-2.53
	c1.65,1.06,3.3,1.06,5.11-0.03c-0.3-0.71-0.56-1.34-0.83-1.96c-0.74-1.74-2.14-1.96-3.24-0.43c-0.5,0.7-0.72,1.59-1.06,2.4
	c-0.98-0.99-1.96-1.97-2.94-2.96c0,0,0.01,0,0.01,0c-1.29-1.82-0.62-3.65,0-5.48c0.01-0.23,0.02-0.46,0.03-0.69
	c0.7-1.25,1.68-2.42,2.04-3.76c0.66-2.51,1.09-5.06,3.04-6.99c0.25-0.29,0.51-0.58,0.76-0.87
	C206.3,415.73,206.49,414.61,206.69,413.49z M207.49,430.63c-0.73-0.86-1.28-1.51-1.83-2.16c-0.39,0.82-1.05,1.65-1.06,2.47
	c-0.01,0.52,0.98,1.04,1.51,1.56C206.49,431.98,206.88,431.46,207.49,430.63z M325.85,518.18c-0.95-0.46-1.5-0.93-2.03-0.91
	c-0.47,0.02-0.92,0.59-1.38,0.92c0.49,0.5,0.92,1.27,1.5,1.4C324.33,519.67,324.93,518.88,325.85,518.18z M234.68,425.78
	c-0.03-0.29-0.05-0.58-0.08-0.87c-0.98,0.07-1.97,0.14-2.95,0.21c0.01,0.22,0.03,0.44,0.04,0.66
	C232.68,425.78,233.68,425.78,234.68,425.78z M268.79,451.52c0,0.21,0,0.41,0,0.62c0.64,0,1.27,0,1.91,0c0-0.21,0-0.41,0-0.62
	C270.07,451.52,269.43,451.52,268.79,451.52z M205.57,422.99c0.18-0.39,0.4-0.64,0.34-0.78c-0.09-0.21-0.37-0.34-0.56-0.5
	c-0.14,0.19-0.4,0.39-0.38,0.57C204.98,422.47,205.26,422.64,205.57,422.99z M218.81,444.54c-0.16-0.14-0.29-0.36-0.42-0.35
	c-0.12,0-0.37,0.28-0.34,0.34c0.08,0.19,0.27,0.34,0.42,0.5C218.57,444.89,218.67,444.74,218.81,444.54z M358.63,497.04
	c-0.05,0.12-0.17,0.26-0.13,0.35c0.03,0.08,0.22,0.11,0.33,0.16c0.05-0.12,0.17-0.26,0.14-0.34
	C358.93,497.11,358.74,497.09,358.63,497.04z"/>
<path class="st26" d="M246.69,504.89c0.01,0.35-0.1,0.75,0.04,1.05c0.43,0.94,0.95,1.84,1.43,2.75c0.91-0.52,2.09-0.83,2.67-1.6
	c0.95-1.26,1.99-2.16,3.49-1.66c0.82,0.27,1.87,1.17,2.01,1.94c0.25,1.32,0.64,3.22-1.46,3.58c-1.66,0.28-2.25,1.56-2.9,2.67
	c-1.76,2.99-1.68,3.04-4.82,2c-0.51,1.59,0.4,3.66,2.15,3.99c2.47,0.47,3.85,1.62,4.28,4.16c0.14,0.82,1.07,1.51,1.63,2.26
	l-0.04,0.04c-0.41-0.05-0.81-0.11-1.22-0.16c-1.04-1.57-1.9-3.32-3.19-4.64c-1.01-1.02-2.84-1.24-3.8-2.28
	c-0.84-0.91-1.11-2.44-1.34-3.75c-0.08-0.44,0.66-1.17,1.18-1.51c0.22-0.14,0.95,0.31,1.31,0.64c1.37,1.27,2.47,1.09,2.81-0.71
	c0.37-1.99,1.12-3.28,3.32-3.62c0.49-0.08,1.27-1.58,1.07-2.12c-0.36-0.98-1.28-2-2.61-0.9c-0.48,0.39-1.01,0.76-1.39,1.24
	c-0.99,1.24-3.01,1.77-4.39,0.85c-1.35-0.89-1.82-2.21-1.06-3.78C246.14,505.19,246.41,505.04,246.69,504.89z"/>
<path class="st26" d="M236.18,487.99c-0.23-1.3-0.54-2.59-0.67-3.9c-0.09-0.87-0.1-1.82,0.15-2.64c0.32-1.06,1.02-1.41,2.05-0.51
	c0.47,0.41,1.2,0.53,1.81,0.78c-0.55,0.19-1.16,0.62-1.65,0.51c-1.47-0.31-1.84,0.37-1.62,1.59c0.32,1.71,0.75,3.39,1.13,5.08
	c-0.39-0.2-0.79-0.4-1.18-0.61C236.22,488.19,236.21,488.09,236.18,487.99z"/>
<path class="st26" d="M255.21,526.03c0.34,0.31,0.78,0.57,1.01,0.95c1.23,2.04,2.4,4.11,3.6,6.17c-0.69-0.12-1.38-0.25-2.07-0.37
	c-0.27-0.27-0.54-0.55-0.81-0.82c-0.59-1.97-1.17-3.93-1.76-5.9C255.17,526.07,255.21,526.03,255.21,526.03z"/>
<path class="st26" d="M261.14,533.69c2.51,1.39,2.74,3.97,3.3,6.37c-0.27-0.02-0.54-0.03-0.81-0.05c0,0,0.01,0.01,0.01,0.01
	c-0.55-1.18-1.1-2.36-1.65-3.55c0-0.22-0.01-0.44-0.01-0.67C261.7,535.11,261.42,534.4,261.14,533.69z"/>
<path class="st26" d="M346.03,486.36c-0.27,0-0.54-0.01-0.81-0.01c-1.44-1.84-3.01-3.6-4.29-5.55c-0.87-1.32,0.26-1.96,1.31-1.63
	c1.96,0.61,3.87,1.48,5.69,2.44c3.91,2.07,7.76,4.27,11.63,6.41c0.25,0.32,0.49,0.63,0.74,0.95c-0.07,0.65-0.15,1.29-0.22,1.94
	c-0.66-0.23-1.33-0.45-1.99-0.68c-0.37-0.13-0.73-0.28-1.09-0.42c-0.52-0.53-0.97-1.16-1.57-1.58c-1.16-0.82-2.39-1.33-3.49,0.15
	c-0.69,0.58-1.39,1.16-2.14,1.79c-0.68-1-1.1-1.84-1.73-2.47C347.51,487.12,346.72,486.79,346.03,486.36z"/>
<path class="st6" d="M343.94,476.95c0.43,0.14,0.86,0.29,1.29,0.43C344.8,477.24,344.37,477.09,343.94,476.95z"/>
<path class="st6" d="M362.41,515.41c-0.1,0.31-0.2,0.62-0.3,0.93C362.21,516.03,362.31,515.72,362.41,515.41z"/>
<path class="st26" d="M359.19,493.46c-0.41,0.84-0.76,1.72-1.27,2.5c-0.24,0.37-0.77,0.55-1.17,0.82c-0.18-0.41-0.44-0.81-0.5-1.23
	c-0.05-0.31,0.23-0.67,0.23-1c-0.01-0.45-0.15-0.89-0.24-1.34c-0.51,0.11-1.27,0.04-1.5,0.35c-1.79,2.43-4,0.06-6.19,1.17
	c0.6-1.37,0.95-2.17,1.3-2.96c0-0.14,0-0.29,0-0.43c0.73-0.05,1.46-0.11,2.2-0.16c1.08,0.01,2.17,0.01,3.25,0.02
	c0.73,0.34,1.45,0.67,2.18,1.01c0.46,0.22,0.91,0.44,1.37,0.67c0.14,0.04,0.28,0.08,0.41,0.12
	C359.24,493.15,359.22,493.31,359.19,493.46z"/>
<path class="st6" d="M358.85,492.87c-0.46-0.22-0.91-0.44-1.37-0.67C357.94,492.43,358.39,492.65,358.85,492.87z"/>
<path class="st26" d="M361.66,508.3l-0.2-0.01c0,0-0.2,0-0.2,0c0.02-1.41,0.05-2.83,0.07-4.24
	C361.44,505.46,361.55,506.88,361.66,508.3z"/>
<path class="st26" d="M345.75,522.73c-0.77-1.12-1.56-1-2.38-0.04c-0.49,0.58-1,1.15-1.49,1.73c-0.71-1.86-0.67-1.92,2.39-4.12
	c2.76,1.63,5.7,1.06,8.54,0.52c0.92-0.18,1.66-1.26,2.48-1.93c0.02,0.13,0.03,0.27,0.04,0.4c-0.12,0.16-0.25,0.32-0.37,0.48
	c-0.13,0.15-0.25,0.3-0.38,0.44c-0.16,0.42-0.31,0.83-0.47,1.25C351.33,521.87,348.54,522.3,345.75,522.73z"/>
<path class="st6" d="M354.58,520.2c0.13-0.15,0.25-0.3,0.38-0.44C354.84,519.91,354.71,520.05,354.58,520.2z"/>
<path class="st26" d="M362.12,502.41c0.16-1.03,0.32-2.06,0.48-3.09c0.38,0.05,0.77,0.1,1.15,0.14c0.03,0.12,0.05,0.24,0.08,0.36
	c0.09,0.16,0.18,0.33,0.27,0.49c0.04,0.26,0.08,0.52,0.12,0.79c-0.14,0.88-0.28,1.76-0.4,2.56
	C363.28,503.27,362.7,502.84,362.12,502.41z"/>
<path class="st26" d="M360.01,496c0.3-0.01,0.59-0.01,0.89-0.02c0.16,0.12,0.32,0.23,0.48,0.35c0,0,0,0,0,0
	c0.08,0.19,0.17,0.37,0.25,0.56C361.09,496.59,360.55,496.29,360.01,496z"/>
<path class="st6" d="M362.56,497.69c-0.27-0.27-0.54-0.55-0.81-0.82C362.02,497.14,362.29,497.41,362.56,497.69z"/>
<polygon class="st25" points="361.37,496.33 361.37,496.32 361.51,496.22 "/>
<path class="st6" d="M364.1,500.32c-0.09-0.16-0.18-0.33-0.27-0.49C363.92,499.99,364.01,500.16,364.1,500.32z"/>
<path class="st6" d="M355.96,477.08c0.19-0.34,0.38-0.68,0.58-1.01C356.34,476.41,356.15,476.75,355.96,477.08z"/>
<path class="st6" d="M379.93,438.04c-0.18-0.25-0.36-0.5-0.54-0.75C379.57,437.55,379.75,437.8,379.93,438.04z"/>
<path class="st6" d="M416.42,366.62c0.21-0.32,0.42-0.65,0.64-0.97C416.85,365.97,416.63,366.3,416.42,366.62z"/>
<path class="st6" d="M374.66,459.66c0-0.74,0-1.48,0-2.22C374.67,458.18,374.66,458.92,374.66,459.66z"/>
<path class="st6" d="M373.47,462.88c0.41-0.4,0.81-0.8,1.22-1.2C374.28,462.08,373.87,462.48,373.47,462.88z"/>
<path class="st6" d="M365.44,464.18c0.3-0.14,0.6-0.27,0.9-0.41C366.04,463.9,365.74,464.04,365.44,464.18z"/>
<path class="st6" d="M405.28,406.33c0.25-0.31,0.49-0.62,0.74-0.93C405.77,405.71,405.53,406.02,405.28,406.33z"/>
<path class="st6" d="M403.48,407.47c0.33-0.21,0.67-0.42,1-0.62C404.15,407.05,403.82,407.26,403.48,407.47z"/>
<path class="st6" d="M402.29,408.42c0.13-0.15,0.25-0.3,0.38-0.45C402.54,408.12,402.42,408.27,402.29,408.42z"/>
<path class="st6" d="M402.69,407.95c0.15-0.12,0.3-0.25,0.45-0.37C402.99,407.71,402.84,407.83,402.69,407.95z"/>
<path class="st11" d="M361.46,454.76c0.35-0.36,0.69-0.73,1.04-1.09C362.15,454.03,361.8,454.39,361.46,454.76z"/>
<path class="st6" d="M260.87,322.85c-0.01,1.04-0.02,2.08-0.02,3.12C260.85,324.93,260.86,323.89,260.87,322.85z"/>
<path class="st6" d="M254.36,324.92c-0.5-0.28-1-0.56-1.51-0.83C253.35,324.36,253.86,324.64,254.36,324.92z"/>
<path class="st6" d="M251.85,327.19c0.55-0.03,1.11-0.06,1.66-0.1C252.96,327.13,252.4,327.16,251.85,327.19z"/>
<path class="st6" d="M258.54,302.61c-0.02,0.15-0.04,0.3-0.06,0.45C258.51,302.91,258.52,302.76,258.54,302.61z"/>
<path class="st6" d="M258.65,352.54c-0.06-0.56-0.11-1.12-0.17-1.68C258.54,351.42,258.6,351.98,258.65,352.54z"/>
<path class="st26" d="M293.29,456.13c-0.92,0.25-1.85,0.51-2.92,0.8c-0.57-1.8-2.02-2.15-3.78-1.96c-1.77,0.19-1.83-0.98-1.86-2.3
	c-0.05-2.44-1.72-3.81-3.81-3.14c-0.66,0.21-1.29,1.23-1.77,1.12c-1.77-0.39-3.68-0.8-5.14-1.79c-1.17-0.79-2.04-1.36-3.37-0.78
	c-2.25,0.98-3.98,0.31-5.1-1.94c-0.33-0.66-0.9-1.21-1.19-1.89c-0.28-0.65-0.59-1.46-0.43-2.08c0.47-1.88,0.81-3.7-0.14-5.53
	c-0.06-0.12-0.14-0.29-0.11-0.4c1.16-3.46-1.34-2.76-3.2-2.87c-2.63-0.16-3.71-1.39-3.47-3.87c2.1-1.22,3.26,0.35,4.47,1.75
	c0.2-0.11,0.41-0.23,0.61-0.34c-0.3-0.93-0.58-1.86-0.89-2.79c-0.17-0.51-0.36-1.01-0.54-1.52c0.17-0.02,0.33-0.04,0.5-0.07
	c0.1,0.04,0.21,0.06,0.32,0.08c1.18,2.8,2.46,5.52,4.69,7.7c1.09,1.06,0.99,2.27,0.2,3.61c-0.4,0.69-0.26,1.71-0.34,2.58
	c-0.05,0.6,0.08,1.25-0.11,1.79c-0.66,1.84-0.13,3.37,1.77,3.81c2.54,0.59,5.16,0.87,7.74,1.28c0.24,0.98,0.65,1.58,1.73,0.85
	c1.13,0,2.26,0,3.39,0c1.38,0.3,2.76,0.59,4.14,0.89c0.76,0.5,1.52,1,2.28,1.5C289.07,452.46,291.18,454.3,293.29,456.13z"/>
<path class="st26" d="M250.5,410.13c-0.54-0.59-1.07-1.17-1.61-1.76c0,0-0.02-0.02-0.02-0.02c-0.02-0.41-0.05-0.82-0.07-1.23
	c0.02-0.12,0.05-0.24,0.1-0.35c0.7-0.05,1.41-0.1,2.11-0.14c0.42,0.3,0.83,0.6,1.25,0.9c0.49,1.1,0.69,2.61,1.54,3.23
	c2.08,1.51,2.98,3.21,2.22,5.71c-0.2,1.58-0.93,1.89-2.18,0.88c-0.12-0.15-0.24-0.31-0.36-0.46c0,0-0.02-0.02-0.02-0.02
	c-0.15-0.13-0.3-0.25-0.46-0.38c-0.24-0.06-0.48-0.13-0.72-0.19c-0.48-0.95-0.96-1.9-1.43-2.86
	C250.74,412.34,250.62,411.24,250.5,410.13z"/>
<path class="st26" d="M259.4,426.16c-1.02-0.09-2.05-0.19-3.26-0.3c-0.2,0.91-0.18,2.75-2.33,1.62c-0.7-0.37-1.31-0.89-1.96-1.35
	c0.48-0.52,0.92-1.09,1.44-1.56c0.97-0.87,0.55-2.11-0.92-2.94c-0.55-0.31-0.96-0.87-1.44-1.32c1.02,0.24,2.03,0.47,3.05,0.71
	c0.67,0.6,1.33,1.2,2,1.8c0.06,0.09,0.1,0.18,0.13,0.28c0.27,0.29,0.54,0.58,0.81,0.87c0,0,0.01,0.01,0.01,0.01
	c0.28,0.28,0.57,0.56,0.85,0.84c0.1,0.04,0.19,0.09,0.28,0.15C258.52,425.38,258.96,425.77,259.4,426.16z"/>
<path class="st6" d="M259.4,426.16c-0.44-0.39-0.89-0.77-1.33-1.16c1.03,0.52,2.05,1.03,3.08,1.55c-0.17,0.02-0.33,0.04-0.5,0.07
	C260.24,426.46,259.82,426.31,259.4,426.16z"/>
<path class="st6" d="M255.98,422.84c-0.67-0.6-1.33-1.2-2-1.8c0.26,0.02,0.52,0.04,0.78,0.06
	C255.17,421.68,255.58,422.26,255.98,422.84z"/>
<path class="st6" d="M256.93,423.99c-0.27-0.29-0.54-0.58-0.81-0.87C256.38,423.41,256.65,423.7,256.93,423.99z"/>
<path class="st6" d="M257.79,424.85c-0.28-0.28-0.57-0.56-0.85-0.84C257.22,424.29,257.51,424.57,257.79,424.85z"/>
<path class="st6" d="M253.48,416.89c0.12,0.15,0.24,0.31,0.36,0.46C253.72,417.2,253.6,417.05,253.48,416.89z"/>
<path class="st6" d="M253.01,416.49c0.15,0.13,0.3,0.25,0.46,0.38C253.31,416.74,253.16,416.62,253.01,416.49z"/>
<path class="st11" d="M247.99,416.8c-0.16-0.11-0.32-0.22-0.48-0.33C247.67,416.58,247.83,416.69,247.99,416.8z"/>
<path class="st6" d="M251.02,406.64c-0.7,0.05-1.41,0.1-2.11,0.14C249.54,405.65,250.23,405.47,251.02,406.64z"/>
<path class="st11" d="M248.86,404.28c0.57-0.27,1.13-0.54,1.7-0.8C250.45,404.72,249.85,404.93,248.86,404.28z"/>
<path class="st6" d="M248.81,407.13c0.02,0.41,0.05,0.82,0.07,1.23C248.85,407.95,248.83,407.54,248.81,407.13z"/>
<path class="st11" d="M255.57,409.68c0.14,0.15,0.28,0.31,0.43,0.46C255.85,409.99,255.71,409.83,255.57,409.68z"/>
<path class="st11" d="M254.71,408.47c0.12,0.13,0.25,0.26,0.37,0.4C254.96,408.73,254.84,408.6,254.71,408.47z"/>
<path class="st11" d="M250.09,398.25c-0.08-0.12-0.11-0.25-0.08-0.39C250.04,397.99,250.06,398.12,250.09,398.25z"/>
<path class="st11" d="M284.74,441.03c0.7,0.56,1.4,1.13,2.1,1.69C286.14,442.16,285.44,441.59,284.74,441.03z"/>
<path class="st6" d="M301.59,453.34c0.46,0.39,0.91,0.77,1.37,1.16C302.51,454.11,302.05,453.73,301.59,453.34z"/>
<path class="st21" d="M269.14,428.72c0.38,0.35,0.75,0.69,1.13,1.04C269.89,429.41,269.51,429.06,269.14,428.72z"/>
<path class="st6" d="M303.23,454.67c0.32,0.25,0.65,0.49,0.97,0.74C303.87,455.16,303.55,454.91,303.23,454.67z"/>
<path class="st11" d="M281.68,436.79c-0.09-0.16-0.19-0.31-0.28-0.47C281.49,436.48,281.58,436.64,281.68,436.79z"/>
<path class="st21" d="M267.42,427.44c-0.14-0.1-0.27-0.21-0.41-0.31C267.15,427.23,267.29,427.34,267.42,427.44z"/>
<path class="st26" d="M345.69,490.93c-0.9-0.05-1.89,0.11-2.69-0.21c-1.23-0.49-2.32-1.32-3.77-2.18c-1.01,0.52-2.28,2.87-4.09,0.3
	c0.15-0.22,0.25-0.52,0.45-0.64c0.93-0.52,2.3-1.22,1.38-2.25c-0.62-0.69-1.66-2.87-3.48-0.96c-0.42,0.44-1.59,0.63-2.14,0.37
	c-0.95-0.46-1.68-1.38-2.5-2.1c0.73-0.64,1.45-1.28,2.18-1.92c0.22,0.1,0.44,0.21,0.66,0.31c-0.2-0.37-0.32-0.96-0.62-1.08
	c-2.19-0.84-4.43-1.56-6.64-2.35c-0.37-0.13-0.96-0.36-1-0.61c-0.35-2.07-3.93-0.91-3.56-3.62c2.55,0.84,5.09,1.68,7.64,2.52
	c0.16,0.11,0.33,0.23,0.49,0.34c0.28,0.29,0.55,0.57,0.83,0.86c0,0,0.02,0.02,0.02,0.02c0.72,0.62,1.41,1.29,2.18,1.84
	c1.84,1.29,3.78,2.43,5.55,3.8c1.04,0.8,1.85,1.92,2.76,2.9c0.1,0.03,0.19,0.06,0.29,0.09c0.27,0.32,0.54,0.64,0.81,0.96
	c0.19,0.21,0.38,0.43,0.57,0.64c0.64,0.42,1.24,0.9,1.91,1.24c0.92,0.47,1.89,0.83,2.84,1.23
	C345.73,490.6,345.71,490.77,345.69,490.93z"/>
<path class="st11" d="M340.43,487.32c-0.27-0.32-0.54-0.64-0.81-0.96C339.89,486.67,340.16,486.99,340.43,487.32z"/>
<path class="st6" d="M328.82,477.71c-0.28-0.29-0.55-0.57-0.83-0.86C328.27,477.14,328.55,477.43,328.82,477.71z"/>
<path class="st11" d="M360.47,450.8c-0.62,0.47-1.24,0.94-1.86,1.4C359.23,451.74,359.85,451.27,360.47,450.8z"/>
<path class="st11" d="M362.98,449.9c-0.36,0.21-0.72,0.42-1.08,0.63C362.26,450.32,362.62,450.11,362.98,449.9z"/>
<path class="st11" d="M366.35,449.76c-0.19,0.03-0.38,0.05-0.57,0.08C365.97,449.82,366.16,449.79,366.35,449.76z"/>
<path class="st26" d="M304.63,465.97c2.52,0.42,5.06,0.74,7.55,1.31c1.43,0.33,1.8,2.47,0.8,3.7c-1.11,1.36-3.09,1.74-4.73,0.89
	c-1.41-0.73-2.31-0.57-2.3,1.27c-3.04-0.32-2.11-3.28-3.16-4.34C303.55,467.63,304.09,466.8,304.63,465.97z"/>
<path class="st26" d="M318.93,472.86c0.31,0.38,0.62,0.76,0.93,1.15c-0.82-0.12-1.68-0.12-2.45-0.39c-2.22-0.78-3.07-0.37-3.81,2.01
	c0.07,0.12,0.13,0.24,0.22,0.34c0.54,0.57,1.08,1.13,1.62,1.7c-0.92,0.32-1.86,0.91-2.76,0.86c-0.66-0.04-1.34-0.87-1.9-1.45
	c-1.95-2.01-4.82-1.89-6.1,0.25c-0.3,0.51-0.88,0.85-1.34,1.27c-0.4-0.77-1.04-1.51-1.1-2.3c-0.03-0.43,0.86-1.27,1.42-1.34
	c1.21-0.16,2.49,0.07,2.26-1.8c0.41,0.16,0.82,0.32,1.23,0.47c1.2,1.2,3.57,1.17,4.65-0.06c0.71-0.23,1.57-0.29,2.1-0.74
	C315.65,471.36,317.27,471.63,318.93,472.86z"/>
<path class="st26" d="M307.16,521.85c0.07-3.02,1.3-3.67,4.66-2.47c2.72,0.97,5.76,6.62,5,9.47c-0.26,0.97-0.83,1.85-1.26,2.77
	c-1.42-1.19-0.79-2.64-0.51-4.04c0.12-0.6,0.62-1.34,0.41-1.75c-0.84-1.65-1.73-3.32-2.9-4.74c-0.82-1-2.12-1.63-2.94,0.26
	C308.81,521.51,307.99,521.68,307.16,521.85z"/>
<path class="st26" d="M293.27,456.17c2.75,0.83,4.89,2.33,6.53,4.81c1.21,1.84,3,3.31,4.53,4.95c-2.24-0.31-4.48-0.61-6.76-0.92
	c0.49-3.6-0.36-6.34-3.85-7.76C293.47,457.14,293.42,456.54,293.27,456.17z"/>
<path class="st26" d="M323.63,525.65c1.08,1.27,2.16,2.53,3.38,3.96c-2.2,1.17-1.59,5.4-5.46,4.99c0-0.14-0.05-0.35,0.02-0.41
	c2.18-1.99,1.77-4.26,0.87-6.69C322.15,526.73,322.14,525.56,323.63,525.65z"/>
<path class="st26" d="M341.08,526.21c-0.18,0.52-0.37,1.05-0.55,1.57c-0.09,0.04-0.18,0.07-0.27,0.1c-1.33-0.43-2.66-0.86-4-1.3
	c0,0-0.02-0.02-0.02-0.02c-0.33-2.21-1.85-3.18-3.81-3.71l-0.08-0.06c-0.66-0.72-1.33-1.44-1.99-2.16l0.06-0.07
	c2.93-0.95,2.92-0.95,4.28,1.91c0.16,0.34,0.52,0.61,0.83,0.85c1.26,0.93,2.53,1.83,3.72,2.67
	C339.84,526.07,340.46,526.14,341.08,526.21z"/>
<path class="st26" d="M222.93,452.05c-0.25-0.13-0.51-0.26-0.76-0.39c-0.23-0.5-0.56-0.97-0.65-1.49c-0.16-0.89-0.56-2.12-0.14-2.64
	c0.64-0.81,1.87-1.13,3.09-1.41c-0.77,2.1-1.09,3.74,1.08,4.93c0.3,0.16,0.48,1.31,0.29,1.46c-0.54,0.42-1.3,0.56-1.98,0.81
	c0,0,0.01,0,0.01,0C223.55,452.88,223.24,452.46,222.93,452.05z"/>
<path class="st26" d="M203.17,437.59c0.35-0.81,0.56-1.7,1.06-2.4c1.09-1.53,2.49-1.3,3.24,0.43c0.27,0.62,0.53,1.25,0.83,1.96
	c-1.81,1.09-3.45,1.09-5.11,0.03C203.2,437.61,203.17,437.59,203.17,437.59z"/>
<path class="st26" d="M271.24,547.86c-0.01-0.2-0.01-0.39-0.02-0.59c3.52,0.52,7.04,1.03,10.57,1.55c-0.01,0.24-0.01,0.49-0.02,0.73
	c-1.92-0.05-3.83-0.1-5.75-0.16c-0.32-0.16-0.65-0.32-0.97-0.47c-0.52-0.1-1.04-0.2-1.56-0.31l-0.09-0.13
	C272.68,548.29,271.96,548.08,271.24,547.86z"/>
<path class="st26" d="M207.49,430.63c-0.61,0.83-0.99,1.35-1.38,1.88c-0.54-0.52-1.52-1.05-1.51-1.56c0.01-0.83,0.67-1.65,1.06-2.47
	C206.21,429.12,206.76,429.77,207.49,430.63z"/>
<path class="st26" d="M325.85,518.18c-0.91,0.71-1.51,1.5-1.91,1.41c-0.58-0.13-1-0.9-1.5-1.4c0.46-0.33,0.91-0.9,1.38-0.92
	C324.35,517.24,324.9,517.72,325.85,518.18z"/>
<path class="st26" d="M302.53,526.89c-0.84,0.32-1.68,0.64-2.52,0.96c0.98-1.16,1.96-2.32,2.94-3.48c0.17,0.01,0.34,0.03,0.51,0.04
	C303.15,525.24,302.84,526.06,302.53,526.89z"/>
<path class="st26" d="M305.9,521.85c-0.54,0.44-1.08,0.88-1.63,1.32c-0.14,0.14-0.28,0.29-0.43,0.43c-0.28-0.01-0.56-0.02-0.84-0.04
	c0.13-0.58,0.19-1.62,0.41-1.65C304.21,521.79,305.08,520.21,305.9,521.85z"/>
<path class="st26" d="M234.68,425.78c-1,0-1.99,0-2.99,0c-0.01-0.22-0.03-0.44-0.04-0.66c0.98-0.07,1.97-0.14,2.95-0.21
	C234.62,425.2,234.65,425.49,234.68,425.78z"/>
<path class="st26" d="M286.38,547.22c-0.13,0.36-0.25,0.71-0.38,1.07c-0.19,0.15-0.37,0.3-0.56,0.45c-0.41,0.04-0.81,0.08-1.22,0.12
	c-0.39-0.03-0.77-0.06-1.16-0.1C284.17,548.25,285.27,547.73,286.38,547.22z"/>
<path class="st26" d="M317.94,534.27c-0.08-0.33-0.16-0.66-0.24-1c1.09,0.23,2.69-0.7,2.99,1.32c-0.74,0.04-1.47,0.08-2.21,0.12
	C318.3,534.57,318.12,534.42,317.94,534.27z"/>
<path class="st26" d="M268.79,451.52c0.64,0,1.27,0,1.91,0c0,0.21,0,0.41,0,0.62c-0.64,0-1.27,0-1.91,0
	C268.79,451.93,268.79,451.72,268.79,451.52z"/>
<path class="st26" d="M205.57,422.99c-0.32-0.35-0.59-0.52-0.61-0.72c-0.02-0.18,0.24-0.38,0.38-0.57c0.2,0.16,0.48,0.29,0.56,0.5
	C205.97,422.35,205.75,422.6,205.57,422.99z"/>
<path class="st26" d="M242.07,496.02c0.03-0.56,0.06-1.12,0.09-1.68C243.23,494.96,243.25,495.52,242.07,496.02z"/>
<path class="st27" d="M240.36,492.6c-0.43-0.41-0.86-0.81-1.3-1.22C239.5,491.79,239.93,492.2,240.36,492.6z"/>
<path class="st26" d="M238.27,490.51c-0.28-0.42-0.56-0.84-0.83-1.25C237.72,489.68,237.99,490.1,238.27,490.51z"/>
<path class="st26" d="M218.81,444.54c-0.13,0.2-0.24,0.35-0.34,0.49c-0.15-0.16-0.33-0.31-0.42-0.5c-0.03-0.06,0.21-0.34,0.34-0.34
	C218.52,444.18,218.65,444.4,218.81,444.54z"/>
<path class="st26" d="M239.96,480.78c-0.1-0.42-0.21-0.83-0.31-1.25C239.75,479.95,239.86,480.36,239.96,480.78z"/>
<path class="st26" d="M316.42,532.53c-0.28-0.31-0.56-0.61-0.84-0.92C315.86,531.92,316.14,532.22,316.42,532.53z"/>
<path class="st26" d="M358.63,497.03c0.12,0.05,0.3,0.08,0.33,0.16c0.03,0.08-0.08,0.23-0.14,0.34c-0.12-0.05-0.3-0.08-0.33-0.16
	C358.46,497.3,358.58,497.15,358.63,497.03z"/>
<path class="st26" d="M359.18,493.48c0.14,0.57,0.29,1.14,0.43,1.72C359.47,494.62,359.33,494.05,359.18,493.48z"/>
<path class="st26" d="M205.34,417.72c0.25-0.29,0.51-0.58,0.76-0.87C205.85,417.14,205.59,417.43,205.34,417.72z"/>
<path class="st26" d="M287.28,545.97c-0.14,0.14-0.27,0.27-0.41,0.41C287.01,546.24,287.15,546.1,287.28,545.97z"/>
<path class="st26" d="M269.18,545.1c-0.06-0.13-0.09-0.26-0.07-0.4c0.07,0.09,0.14,0.17,0.19,0.27
	C269.31,544.99,269.22,545.06,269.18,545.1z"/>
<path class="st26" d="M264.86,540.55c-0.14-0.17-0.28-0.33-0.41-0.5C264.58,540.22,264.72,540.39,264.86,540.55z"/>
<path class="st26" d="M341.81,525.24c-0.12,0.18-0.24,0.35-0.35,0.53C341.57,525.59,341.69,525.41,341.81,525.24z"/>
<path class="st25" d="M222.93,452.05c0.31,0.42,0.62,0.84,0.93,1.25C223.55,452.88,223.24,452.46,222.93,452.05z"/>
<path class="st26" d="M269,441.88c0.48-1.24,1.21-2.09,2.71-1.8c0.97,0.65,2.02,1.21,2.89,1.98c0.43,0.38,0.88,1.38,0.69,1.69
	c-0.35,0.53-1.15,0.88-1.83,1.04c-0.72,0.18-1.52,0.06-2.28,0.07c-0.13-0.04-0.27-0.09-0.4-0.13c-0.18-0.05-0.36-0.11-0.54-0.16
	c-0.09-0.2-0.18-0.4-0.27-0.6c-0.23-0.34-0.47-0.69-0.7-1.03C269.17,442.59,269.08,442.24,269,441.88z"/>
<path class="st6" d="M270.77,444.73c0.13,0.04,0.27,0.09,0.4,0.13C271.04,444.82,270.9,444.77,270.77,444.73z"/>
<path class="st11" d="M269.25,442.94c0.23,0.34,0.47,0.69,0.7,1.03C269.72,443.63,269.49,443.28,269.25,442.94z"/>
<path class="st28" d="M276.01,549.4c-0.32-0.16-0.65-0.32-0.97-0.47C275.37,549.09,275.69,549.25,276.01,549.4z"/>
<g>
	<text transform="matrix(1 0 0 1 296.3016 427.0699)" class="st0 st29 st30">DHAKA</text>
</g>
<ellipse class="st31" cx="316.54" cy="409.79" rx="8.92" ry="0.87"/>
<g>
	<g>
		<circle class="st8" cx="316.54" cy="391" r="3.95"/>
	</g>
	<g>
		<path class="st8" d="M316.54,397.32c-3.48,0-6.31-2.83-6.31-6.31c0-3.48,2.83-6.31,6.31-6.31s6.31,2.83,6.31,6.31
			C322.85,394.49,320.02,397.32,316.54,397.32z M316.54,385.88c-2.83,0-5.13,2.3-5.13,5.13s2.3,5.13,5.13,5.13s5.13-2.3,5.13-5.13
			S319.36,385.88,316.54,385.88z"/>
	</g>
	<polygon class="st8" points="317.79,397.06 316.54,410.23 316.54,410.25 316.53,410.23 315.28,397.06 316.53,397.03 316.54,397.03 
			"/>
</g>
</svg>
