<?xml version="1.0" encoding="utf-8"?>
<!-- Generator: Adobe Illustrator 27.6.1, SVG Export Plug-In . SVG Version: 6.00 Build 0)  -->
<svg version="1.1" id="Layer_1" xmlns="http://www.w3.org/2000/svg" xmlns:xlink="http://www.w3.org/1999/xlink" x="0px" y="0px"
	 viewBox="0 0 661.87 864" style="enable-background:new 0 0 661.87 864;" xml:space="preserve">
<style type="text/css">
	.st0{fill:#FFFFFF;}
	.st1{fill:#5FA440;}
	.st2{fill:#A0C88D;}
	.st3{fill:#D9F1CB;}
	.st4{fill:#B4B0BC;}
	.st5{fill:#F6FAF8;}
	.st6{fill:#EBBF7A;}
	.st7{fill:#487C2D;}
	.st8{fill:#FF0000;}
	.st9{fill:#B2AE18;}
	.st10{fill:#FFFF2E;}
	.st11{fill:#F9E8B9;}
	.st12{fill:#8E8813;}
	.st13{fill:#CCAA19;}
	.st14{fill:#EDAACF;}
	.st15{fill:#CB336F;}
	.st16{fill:#998014;}
	.st17{fill:#163784;}
	.st18{fill:#C3E1F3;}
	.st19{fill:#3470B0;}
	.st20{fill:#FBFDFA;}
	.st21{fill:#E8E8E8;}
	.st22{fill:#3C3C3C;}
	.st23{fill:#133685;}
	.st24{fill:#112C63;}
	.st25{fill:#E59936;}
	.st26{fill:#E19A39;}
	.st27{fill:#EB5E55;}
	.st28{fill:#8C7752;}
	.st29{fill:#AF732B;}
	.st30{fill:#6772DB;}
	.st31{fill:#4F5CA8;}
	.st32{fill:#D13270;}
	.st33{fill:#DCDCDE;}
	.st34{fill:#CC4D4A;}
	.st35{fill:#25527A;}
	.st36{fill:#773E84;}
	.st37{fill:#773B85;}
	.st38{font-family:'Roboto-Black';}
	.st39{font-size:12px;}
	.st40{fill:#4D2756;}
</style>
<path class="st0" d="M34.05,847.74c0.14,0.14,0.28,0.28,0.42,0.42C34.33,848.02,34.19,847.88,34.05,847.74z"/>
<path class="st36" d="M270.47,179.02c-0.02,0.14-0.04,0.29-0.06,0.43c-0.2,0.53-0.39,1.07-0.59,1.6c-0.37,0.86-0.89,1.68-1.07,2.58
	c-0.49,2.44-0.69,4.95-1.27,7.36c-0.75,3.11-1.75,6.15-2.65,9.22c-1.75,0-3.5-0.05-5.25,0.03c-0.57,0.02-1.42,0.2-1.65,0.59
	c-1.41,2.44-2.81,4.91-3.97,7.49c-0.83,1.85-1.26,3.87-1.87,5.82c-0.83-0.24-1.66-0.49-2.48-0.73c-0.09-0.09-0.18-0.16-0.29-0.22
	c-0.19-0.96-0.38-1.92-0.57-2.88c0.68-0.84,2.06-1.39,1.1-2.95c-1.68,0.42-2.47-0.26-2.27-2.04c0.23-0.45,0.45-0.9,0.68-1.35
	c0.21-0.84,0.41-1.67,0.62-2.51c0.26-0.56,0.53-1.12,0.79-1.69c1.83-1.04,0.62-2.84,1.06-4.19c0.9-2.74,2.12-5.38,3.21-8.06
	c0.2-0.17,0.59-0.35,0.58-0.52c-0.08-2.61-0.21-5.22-0.38-7.83c-0.01-0.11-0.53-0.18-0.82-0.27c-0.47-0.2-0.95-0.39-1.42-0.59
	c0.2-1.05,0.41-2.11,0.61-3.16c0.44-0.43,0.89-0.87,1.33-1.3c2.61-1.09,4.36-3.63,3.77-6.24c-0.45-1.97-0.32-3.46,1.28-4.73
	c1.31-0.67,2.61-1.33,4.29-2.19c-1.9-1.11-3.39-2-3.01-4.06c0.02-0.28,0.05-0.57,0.07-0.85c1.48-1.69,3.08-2.97,5.47-1.41
	c-0.65,1.91,0.01,3.06,1.96,3.74c0.65,0.23,1.04,1.23,1.55,1.87c0.06,0.31,0.13,0.62,0.19,0.92c0.18,0.54,0.35,1.09,0.53,1.63
	c1.25,1.84,1.66,3.88,1.48,6.08c-0.02,0.2,0.27,0.43,0.42,0.65c-0.11,0.26-0.22,0.52-0.33,0.78c-0.34,1.03-0.69,2.07-1.03,3.1
	C270.47,175.1,270.47,177.06,270.47,179.02z"/>
<path class="st36" d="M166.87,60.08c0,0.14-0.01,0.29-0.01,0.43c0.29,1.92,2.9,4.42,4.8,4.26c1.93-0.17,2.51,0.58,2.34,2.35
	c-0.07,0.76,0.01,1.53,0.02,2.29c0.36,1.48,1.38,1.04,2.44,1.04c1.19,0.01,2.52,0.32,3.52,0.93c0.44,0.27,0.22,1.62,0.31,2.48
	c-0.68-0.08-1.35-0.16-2.03-0.24c-1.95-0.57-3.01,0.03-2.92,1.8c0.05,0.98,0.48,1.94,0.74,2.91c0.26,0.56,0.53,1.12,0.79,1.68
	l0.04,0.04c0.27,0.41,0.53,0.82,0.8,1.24l0.03,0.04c0.28,0.4,0.55,0.81,0.83,1.21c0,0,0.05,0.05,0.05,0.05
	c0.18,0.65,0.36,1.3,0.54,1.95c-0.55-0.2-1.1-0.39-2.11-0.75c-0.16,1.42-0.3,2.66-0.43,3.82c-0.82,0.58-1.73,1.18-2.6,1.83
	c-1.11,0.83-1.83,0.67-2.42-0.66c-0.27-0.62-1.01-1.55-1.41-1.49c-0.78,0.12-1.47,0.84-2.7,1.64c3,0.86,3.57,2.56,2.99,4.62
	c-0.21,0.76-1.06,1.86-1.65,1.88c-1.23,0.05-2.19-0.65-2.05-2.27c0.14-1.65,0.03-3.31,0.03-4.96c-4.25-0.69-9.1,0.5-10.57-5.55
	c0.25,4.6-2.88,7.5-4.38,11.28c-0.51,0-1.25,0.15-1.89-0.04c-0.63-0.18-1.15-0.71-1.72-1.09c0.49-0.33,1-0.63,1.47-1
	c0.59-0.46,1.72-1.16,1.64-1.43c-0.66-2.03,0.57-3.35,1.46-4.84c1.14-1.91,0.67-3.95-1.41-5.62c-0.71,2.04-1.38,3.99-2.08,5.94
	c-0.19,0.53-0.39,1.09-0.74,1.5c-0.25,0.3-1,0.63-1.12,0.52c-0.79-0.77-1.47-1.65-2.19-2.49c2.85,0.58,3.71-0.14,3.73-3.12
	c0-0.49-0.05-0.98-0.08-1.47c0.06-0.12,0.11-0.25,0.15-0.37c2.17-2.07,4.58-2.16,7.15-0.85l0,0c0.44,0.85,0.82,1.74,1.32,2.55
	c0.94,1.52,1.29,3.54,3.36,4.14c1.86,0.16,3.72,0.5,5.58,0.44c3.81-0.11,6.29-2.75,5.58-5.93c-0.86,0-1.76,0-2.66,0
	c-0.02-0.28-0.07-0.57-0.04-0.84c0.36-3.09,0.13-3.34-2.95-3.28c-0.42,0.01-0.84-0.06-1.26-0.09c-0.32-0.68-0.64-1.37-0.95-2.05
	c-0.04-0.47-0.03-0.96-0.14-1.41c-0.44-1.94-0.91-3.79-3.68-2.91c-0.26,0.08-1.07-0.82-1.24-1.38c-0.29-0.94-0.21-2.02-1.66-1.88
	c-0.84-0.17-1.67-0.34-2.51-0.51l0,0c-0.28-0.44-0.55-0.88-0.83-1.32c0-1.1,0-2.19,0-3.29c1.32-1.25,2.64-2.49,3.96-3.74
	c0.33-0.32,0.65-0.66,0.95-1.01c0.43-0.52,0.99-1.59,1.22-1.52c0.95,0.29,2.08,0.34,2.4,1.83c0.16,0.74,1.37,1.3,2.19,1.83
	C165.47,59.61,166.19,59.8,166.87,60.08z"/>
<path class="st36" d="M94.88,170.14c0.31-1.13,0.62-2.26,0.93-3.38c0.15-0.28,0.31-0.57,0.46-0.85c0.4-0.55,0.83-1.08,1.19-1.66
	c0.54-0.88,0.9-1.9,1.54-2.69c1.85-2.29,4.5-1.53,6.88-1.55c2.24-0.02,3.01,0.78,2.98,3.09c-0.04,3.29-0.21,6.58-0.41,9.87
	c-0.21,3.54-0.34,3.64-3.82,4.36c-0.39,0.08-0.77,0.19-1.36,0.35c0.23,0.76,0.43,1.39,0.49,1.6c3.33,0.25,4.43,2.93,6.4,4.42
	c-0.32,0.64-0.59,1.18-0.86,1.72c-0.29,0-0.58,0.01-0.86,0.01c-0.41-0.84-0.74-1.73-1.24-2.5c-0.34-0.52-0.88-1.2-1.39-1.26
	c-2.63-0.32-3.06-0.69-3.29-3.44c-0.15-1.83-1.74-3.78-2.97-3.33c-1.81,0.66-2.59-0.42-3.3-1.57
	C95.64,172.34,95.32,171.2,94.88,170.14z"/>
<path class="st36" d="M193.11,101.83c0.24,0.07,0.48,0.15,0.72,0.22c0.8,1.18,2.09,2.28,2.31,3.56c0.67,3.97,0.52,4,4.06,3.98
	c0.14,0.14,0.28,0.29,0.42,0.43l0,0c0.4,0.44,0.8,0.88,1.2,1.33c0.06,0.1,0.12,0.2,0.2,0.29c0.49,1.03,0.98,2.07,1.47,3.1
	c0,0,0.03,0.04,0.03,0.04c0.05,0.32,0.11,0.65,0.16,0.97c-1.14-0.05-2.29-0.1-3.43-0.15c0.17-0.24,0.33-0.47,0.5-0.71
	c-0.44-1.21-0.88-2.43-1.33-3.64c-0.21,0.07-0.43,0.13-0.64,0.2c-0.04,0.47-0.09,0.93-0.13,1.4c-0.17,0.02-0.34,0.04-0.51,0.06
	c-0.15-0.63-0.3-1.27-0.47-1.98c-0.32-0.02-0.67-0.04-1.02-0.05c-2.21-0.08-2.32-0.3-1.42-2.29c0.16-0.35-0.15-0.91-0.19-1.16
	c-1.31,0.48-2.37,0.87-3.84,1.4c0.53,1.12,1.08,2.3,1.67,3.56c-1.08,1.1-1.84,2.37-0.1,3.6c1.41,1.01,3.28,0.15,4.64-2.05
	c0.91,0.84,1.81,1.66,2.51,2.31c-0.39,0.88-0.7,1.59-1.02,2.31c0.77-0.36,1.54-0.73,2.67-1.26c0.18,0.85,0.44,1.73,0.51,2.62
	c0.01,0.15-0.81,0.52-1.24,0.52c-3.72-0.05-7.43-0.26-11.15-0.2c-1.82,0.03-2.28-0.6-2.2-2.3c0.13-2.6,0.07-5.21,0.02-7.82
	c-0.04-2.05-0.95-2.96-2.97-3.04c-1.33-0.05-2.67-0.01-4.01-0.01c-2.98,0-3.44-0.71-2.18-3.83c0.34,1.97,1.23,3.45,3.16,2.9
	c1.33-0.38,2.43-1.55,3.63-2.37c1.21,1.96,2.6,2.68,5.03,1.92c0.67-0.21,1.38-1.33,1.47-2.1c0.13-1.12-0.75-1.22-1.77-0.95
	c-0.51,0.13-1.54-0.06-1.64-0.34c-0.61-1.71-1.58-1.11-2.75-0.3c-0.51-1.1-0.93-2.01-1.35-2.93c0.42,0.13,0.85,0.27,1.27,0.4
	c1.01,0.22,2.03,0.43,3.04,0.65c0.26,0.03,0.52,0.07,0.77,0.1C190.52,100.77,191.81,101.3,193.11,101.83z"/>
<path class="st36" d="M93.12,51.53c-0.37-0.12-0.73-0.23-1.1-0.35c-0.42-0.29-0.84-0.58-1.26-0.88c0,0,0,0,0,0
	c-0.91-0.85-1.88-1.28-3.01-0.39c-0.15,0.14-0.29,0.28-0.44,0.41c-0.28,0.77-0.5,1.57-0.84,2.3c-0.38,0.8-0.87,1.54-1.32,2.31
	c-0.28-0.11-0.56-0.21-0.85-0.32c-0.4-0.43-0.8-0.86-1.2-1.29c-0.05-0.14-0.1-0.27-0.15-0.41c-0.09-0.43-0.18-0.86-0.27-1.29
	c0-0.71,0.01-1.41,0.01-2.12c1.14-1.98,2.27-3.96,3.41-5.93c0.11-2.26,0.22-4.52,0.33-6.77c1.02-1.14,2.13-2.21,3.03-3.44
	c0.61-0.84,0.93-1.9,1.38-2.85c0.78,0.01,1.56,0.02,2.35,0.03c0.25,1.38,0.51,2.76,0.76,4.14c-0.42-0.38-0.84-0.77-1.26-1.16
	c-2.47,3.04-3.37,7.98-1.42,10.52c1.73,2.24,2.57,4.68,3.19,7.3C94.01,51.42,93.56,51.47,93.12,51.53z"/>
<path class="st36" d="M237.87,106.2c-0.14-0.15-0.28-0.3-0.42-0.45c-0.11-0.26-0.22-0.53-0.33-0.79c0.44-0.39,0.82-0.93,1.33-1.15
	c0.76-0.32,1.76-0.2,2.39-0.65c0.56-0.39,0.77-1.3,1.13-1.97c-0.61-0.3-1.3-0.95-1.82-0.83c-2.39,0.56-2.2-1.35-2.72-2.61
	c0-0.42,0-0.83,0-1.25c0.18-0.38,0.37-0.76,0.55-1.14l-0.06-0.12c0,0,0.04,0.13,0.04,0.13c1.21-0.17,2.42-0.34,3.63-0.51
	c0.17,0.1,0.34,0.2,0.51,0.31c0.28,0.03,0.56,0.06,0.85,0.08c0.37-0.49,0.75-0.98,1.12-1.47c-0.43-0.3-0.85-0.6-1.28-0.9
	c-0.11-0.06-0.23-0.11-0.34-0.17c-0.08-1.03-0.16-2.07-0.24-3.1c0.05-0.39,0.1-0.79,0.15-1.18c0.19-0.41,0.37-0.82,0.56-1.23
	c0.78-0.13,1.58-0.43,2.33-0.34c1.05,0.12,2.06,0.53,3.09,0.82c0.38,0.44,0.76,0.89,1.13,1.33c0.01,0.34,0.02,0.68,0.03,1.02
	c-0.48,1.18-0.96,2.36-1.44,3.54c-0.18-0.64-0.37-1.29-0.52-1.93c-0.68-2.85-1.73-3.32-3.64-1.6c1.76,4.58,2.04,6.46-2.95,7.18
	c-0.34,1.85,0.62,2.21,2.14,1.8c0.88,3.33,0.88,3.33-1.26,5.39c1.09,0.67,2.06,1.25,3.02,1.87c0.33,0.21,0.75,0.44,0.9,0.76
	c0.31,0.69-1.36,4.07-2.2,4.53c-0.38-0.57-0.77-1.15-1.15-1.73c1.43-2.46,1.31-2.99-0.81-3.46c-0.24,0-0.47,0-0.71,0
	c-0.3,0.1-0.61,0.2-0.91,0.29c-0.42-0.01-0.85-0.02-1.27-0.02C238.4,106.5,238.14,106.35,237.87,106.2z"/>
<path class="st36" d="M266.12,127.37c1.09-0.63,2.18-1.26,3.27-1.89c0.38,0.54,0.76,1.09,1.14,1.63c0.01,0.18,0.01,0.37,0.02,0.55
	c-1.36,0.57-2.72,1.14-4.08,1.71c-0.29,0.29-0.59,0.58-0.88,0.87c-0.42,0.54-0.84,1.08-1.26,1.62c-0.74,0.27-1.47,0.65-2.23,0.76
	c-0.3,0.04-0.78-0.45-0.99-0.81c-0.1-0.17,0.12-0.71,0.35-0.89c1.23-0.97,2.5-1.88,3.76-2.82
	C265.53,127.87,265.83,127.62,266.12,127.37z"/>
<path class="st36" d="M264.93,119.27c-0.55-0.97-1.19-1.9-1.63-2.93c-0.33-0.75-0.39-1.63-0.57-2.45h-0.01
	c-0.53-0.22-1.07-0.44-1.61-0.66c-0.28-0.04-0.56-0.09-0.84-0.14c0.02,0.11,0.01,0.23-0.03,0.33c-0.07,0.84-0.14,1.68-0.21,2.51
	c-0.03,0.27-0.16,0.55-0.13,0.81c0.14,0.93,3.59,3.69,4.49,3.89c1.05,0.25,2.03,0.75,3.04,1.15c-0.08,0.26-0.15,0.52-0.24,0.79
	c-0.63-0.06-1.26-0.11-2.1-0.18c0.14,0.48,0.26,0.88,0.47,1.59c-0.77-0.1-1.41-0.2-2.06-0.25c-1.19-0.1-2.12,0.03-1.96,1.67
	c0.03,0.34-0.77,0.76-1.46,1.41c-0.3-2.1-0.34-3.96-2.9-3.48c-0.24,0.04-0.88-1.28-1.03-2.03c-0.06-0.28,0.75-0.74,1.19-1.1
	c0.08-0.07,0.3,0.03,0.41-0.03c0.68-0.32,1.35-0.68,2.01-1.02c-0.17-0.34-0.37-0.98-0.51-0.96c-0.84,0.08-1.69,0.25-2.49,0.53
	c-0.75,0.26-1.4,0.83-2.16,1.02c-2,0.52-2.84,2.44-1.49,4.02c2.51,2.91,2.5,6.45,2.37,9.85c-0.09,2.31-1.22,4.55-1.77,6.86
	c-0.23,0.98-0.07,2.05-0.28,3.04c-0.17,0.77-0.52,1.58-1.02,2.17c-0.75,0.88-1.05,1.47,0.26,2.01c1.52,0.62,2.23,3.07,1.38,4.45
	c-0.23,0.37-0.25,0.88-0.36,1.32c-0.12,0.5-0.08,1.29-0.37,1.45c-1.63,0.9-2.01,2.45-2.24,4.03c-0.19,1.33-0.92,1.46-2.04,1.46
	c-5.21-0.04-10.41-0.08-15.62,0.02c-2.26,0.04-4.52,0.68-6.75,0.54c-1.15-0.07-2.29-1-3.59-0.57c-1.5,0.49-3.02,0.95-4.47,1.57
	c-1.4,0.61-1.53,1.76-0.39,2.64c1.72,1.35,0.8,2.99,0.35,4.22c-0.26,0.7-1.92,1.06-3,1.24c-1.08,0.18-2.23-0.1-3.35-0.08
	c-2.62,0.02-3.15-1.78-3.28-3.99c-1.57,1.35-2.95,2.65-4.45,3.76c-1.44,1.07-3.49-0.38-3.88-2.64c-1.07,0.12-2.13,0.24-3.2,0.36
	c-0.28,0.13-0.57,0.26-1.22,0.56c1.08,0.36,1.83,0.5,2.47,0.85c0.42,0.22,0.7,0.73,1.04,1.11c-0.4,0.32-0.77,0.69-1.2,0.96
	c-0.52,0.32-1.09,0.56-1.63,0.84c0.59,0.3,1.18,0.84,1.79,0.87c4.63,0.19,9.26,0.35,13.89,0.41c4.49,0.07,8.99,0.02,13.73,0.02
	c0.2-0.25,0.63-0.77,1.35-1.63c1.37,3.66,0.58,7.14,1.02,10.64c1.52,0.44,3.11,0.77,2.51,3.23c-0.32,1.35,1.28,1.98,2.34,1.61
	c1.9-0.64,2.51,0.66,3.37,1.71c0.08,0.1,0.04,0.35,0.13,0.4c2.32,1.23,3.28,3.74,5.06,5.97c-0.01,0.03-0.04,0.15-0.06,0.21
	c-0.01,0.03-0.02,0.04-0.02,0.04c0.86,1.13,1.45,1.98,2.12,2.77c0.69,0.8,1.47,1.51,2.13,2.17c-1.3,1.84-2.72,3.85-4.16,5.84
	c-1.32,1.83-1.37,1.81-2.37-0.35c-0.12-0.25-0.3-0.46-0.82-1.24c-0.45,1.2-1.03,2.03-1.02,2.84c0.07,3.2-0.64,6.49,1,9.56
	c0.24,0.44-0.3,1.25-0.36,1.9c-0.18,1.82-0.35,3.65-0.41,5.47c-0.01,0.26,0.55,0.55,1.43,1.37c0.17-1.92,0.38-3.3,0.38-4.67
	c0-1.16,0.3-1.97,1.54-2.06c0.41-0.03,0.96,0.25,1.23,0.57c0.17,0.21-0.05,0.75-0.11,1.14c-0.15,0.95-0.61,1.98-0.39,2.83
	c0.33,1.25,0.11,1.88-1.12,2.16c-2.86,0.65-3.8,3-4.83,5.34c-1.28,2.9-0.41,5.85-0.42,8.79c-0.01,1.52-0.18,3.06-0.28,4.58
	c-0.02,0.21-0.09,0.41-0.07,0.61c0.14,1.23,0.89,3.12,0.38,3.56c-1.77,1.52-3.93,2.63-6.04,3.67c-0.59,0.29-1.65-0.04-2.35-0.38
	c-3.2-1.52-5.97-3.96-9.7-4.32c-0.56-0.05-1.04-0.78-1.61-0.85c-1.19-0.14-2.44-0.2-3.61-0.02c-0.61,0.1-1.1,0.82-1.67,1.24
	c-2.17,1.6-3.91,0.88-4.32-1.78c-0.45-2.92-4.87-5.64-7.17-4.55c-1.19,0.56-2.57,0.8-3.89,1.02c-0.47,0.08-1.35-0.22-1.46-0.54
	c-0.69-2.1-2.89-3.81-2.12-6.24c0.67-2.12-0.57-2.28-1.95-2.46c-0.97-0.13-2.02,0.09-2.93-0.19c-0.63-0.19-1.07-0.98-1.59-1.51
	c0.59-0.37,1.14-0.88,1.79-1.07c0.47-0.14,1.07,0.14,1.62,0.25c1.46,0.33,2.73,0.15,3.51-0.98c-2.45-2.49-4.81-4.87-7.15-7.25
	c-0.16,0.1-0.31,0.2-0.47,0.3c0.21-0.92,0.42-1.85,0.68-2.93c-1.43,0.13-2.71,0.24-3.94,0.35c-0.1,0.26-0.19,0.39-0.19,0.52
	c-0.02,0.72-0.03,1.45-0.03,2.17c-0.74-0.12-1.64-0.01-2.21-0.39c-2.26-1.51-4.43-3.16-6.69-4.8c-0.08,0.06-0.32,0.14-0.38,0.3
	c-1.06,2.55-1.25,2.54-3.44,0.97c-0.66-0.47-1.74-0.36-2.51-0.48c-0.15-1.6-0.4-3.3-0.44-5.01c-0.03-1.34-0.5-1.86-1.86-1.92
	c-0.96-0.05-1.88-0.53-2.98-0.87c-1.23,0.26-2.7,0.69-4.2,0.85c-0.54,0.06-1.21-0.42-1.74-0.78c-0.74-0.49-1.39-1.58-2.08-1.58
	c-3.41-0.03-4.2-2.78-5.68-5.09c-0.58,0.07-1.24,0.14-2.17,0.25v-3.48c0.71,0.09,1.41,0.19,2.25,0.3c0.9-1.41,1.02-2.78-0.48-4.15
	c-0.32-0.3-0.35-1.61-0.11-1.74c2.51-1.4,0.67-3.04-0.22-3.6c-2.05-1.3-1.79-3.03-1.66-5.23c-1.67-0.57-3.42-1.16-5.17-1.75
	c0.25,1.05,0.52,2.1,0.78,3.16c0.25,0.03,0.49,0.06,0.74,0.09c2.19,0.21,3.31,1.72,3.19,4.3c0.03,0.39,0.06,0.79,0.09,1.18
	c0.8,1.9,0.14,3.22-1.64,4.07c-0.25,0.2-0.51,0.4-0.77,0.6c0.14,0.79,0.27,1.58,0.41,2.38c0.45,0.63,1,1.23,1.34,1.92
	c0.49,0.99,0.66,2.18,1.29,3.06c1.05,1.48,2.29,2.84,3.58,4.11c0.36,0.37,1.19,0.5,1.75,0.41c1.4-0.23,2.31,0.15,2.68,1.57
	c0.4,0.45,0.8,0.89,1.19,1.33c0.11,0.06,0.22,0.1,0.34,0.14c2.04-0.26,4.08-0.52,6.11-0.8c0.5,0.01,0.99,0.01,1.49,0.01
	c2.34-0.03,2.54,1.49,2.39,3.28c0.04,0.4,0.08,0.79,0.12,1.18c0.36,1.94,0.09,2.34-1.97,2.94c-0.43,0.16-0.86,0.33-1.3,0.49
	c1.26,2.24,3.27,1.73,5.19,1.35c2.37-0.45,4.22,0.38,5.72,2.31c0.52,0.67,1.61,1.28,2.43,1.27c2.51-0.03,5.01-0.5,7.53-0.58
	c1.28-0.03,2.66,0.16,3.83,0.66c1.53,0.67,1.54,2.07,0.24,3.17c-2.58,2.17-2.62,3.62-0.28,6.04c1.53,1.58,3.05,3.2,4.41,4.93
	c0.63,0.8,0.8,1.94,1.3,2.87c1.4,2.63,3.12,3.09,5.71,1.63c0.73-0.41,1.5-0.76,2.29-1.04c2.25-0.8,5.86,1.54,6.08,3.92
	c0.24,2.62,3.31,4.13,5.28,2.4c2.28-2,4.38-1.79,6.7-0.32c0.35,0.21,0.76,0.31,1.14,0.47c2.19,0.86,4.54,1.46,6.53,2.67
	c3.32,2.01,5.53,2.08,8.43-0.58c1.24-1.13,2.48-2,4.25-1.64c0.01-0.65,0.02-1.3,0.02-1.96c-0.14-0.92-0.28-1.85-0.42-2.77
	c-0.1-1.65-0.19-3.29-0.29-4.93c-0.14-0.61-0.26-1.23-0.4-1.84c0-0.92-0.01-1.85-0.02-2.78c0.14-0.46,0.28-0.91,0.42-1.37
	c0.26-3.07,1.85-4.99,4.81-5.98c0.74-0.25,1.22-1.31,1.82-2.01c0.07-1.84,0.14-3.68,0.2-5.52c-0.28-0.59-0.56-1.18-0.85-1.76
	c-1.76-2.96-2.77-6.02-1.13-9.4c0.05-0.25,0.09-0.48,0.14-0.73c-0.49-1.93,1.12-2.01,2.22-2.52c0.98-1.57,1.96-3.12,2.94-4.69
	c0.01-1.4,0.02-2.79,0.03-4.19c-3.02-1.42-4.47-3.23-3.06-6.92c0.87-2.29-0.93-4.16-3.23-5.12c-1.75-0.17-3.5-0.33-5.25-0.5
	c-1.75-0.13-3-0.95-3.77-2.56c-0.8-1.69-1.91-3.27-2.47-5.03c-0.39-1.23,0.02-2.68-0.13-4.02c-0.07-0.67-0.43-1.47-0.93-1.89
	c-2-1.68-1.97-3.94,0.25-5.74c0.19,0.16,0.57,0.34,0.56,0.5c-0.11,2.45,1.97,4.63,1.7,6.64c-0.49,3.7,1.05,6.04,3.01,8.73
	c1.79,2.45,1.56,2.62,4.61,2.07c1.5-0.26,3.07-0.14,4.61-0.08c0.41,0.02,1.16,0.45,1.16,0.69c-0.03,2.53,2.95,4.64,1.07,7.45
	c-0.19,0.28,0.03,1.22,0.14,1.24c0.55,0.09,1.14-0.04,1.71-0.1l0.02-0.01c0.13-0.43,0.25-0.85,0.38-1.28
	c0.17-0.42,0.35-0.85,0.52-1.27c0.12-0.14,0.23-0.29,0.35-0.43l-0.06-0.08c-0.14-1.35-0.3-2.69-0.44-4.04
	c-0.1-0.06-0.2-0.12-0.3-0.19c-1.68-0.85-2.44-2.82-1.46-4.76c1.37-2.73,2.5-5.41,2.43-8.58c-0.03-1.13,0.13-2.82,2-3.01
	c0.26-0.16,0.53-0.32,0.8-0.48c0.34-0.47,0.67-0.95,1.01-1.41c0.05-0.25,0.09-0.49,0.14-0.74c-0.25-2.03-0.53-4.05-0.69-6.09
	c-0.04-0.52,0.36-1.08,0.56-1.63c0.05-0.14,0.1-0.27,0.15-0.41c0.29-0.4,0.58-0.8,0.86-1.19c0.17-0.69,0.35-1.37,0.52-2.06
	c0.37-1.02,0.74-2.05,1.11-3.06c0.23-0.37,0.47-0.74,0.69-1.12c-0.01-0.9-0.01-1.79-0.02-2.69c-0.21-0.24-0.42-0.47-0.63-0.71
	c-0.32-0.62-0.63-1.24-0.96-1.87c0.01-1.05,0.01-2.1,0.02-3.15c0.22-0.6,0.45-1.21,0.67-1.81c0.06-0.25,0.11-0.48,0.17-0.73
	c0.44-1.06,0.88-2.12,1.32-3.17c0.11-0.24,0.22-0.47,0.33-0.72c0.85-2.51,1.27-4.99-0.36-7.4c-0.25-0.36-0.3-1.01-0.15-1.41
	c0.24-0.63,0.72-1.18,1.1-1.75c0.3,0.58,0.69,1.15,0.87,1.77c0.25,0.78,0.32,1.6,0.47,2.4c0.62-0.25,1.32-0.36,1.84-0.74
	c2.07-1.53,4.11-3.08,6.06-4.75c1.34-1.13,2.5-2.46,3.67-3.64C268.65,118.02,266.69,119.5,264.93,119.27z M240.11,214.73v-2.42
	c0.17-0.01,0.34-0.02,0.51-0.02c0.04,0.8,0.08,1.62,0.12,2.42C240.52,214.72,240.32,214.73,240.11,214.73z M251.62,164.31
	c-0.32-0.32-0.68-0.62-0.94-0.98c-0.03-0.05,0.4-0.43,0.61-0.66c0.3,0.36,0.61,0.74,0.91,1.1
	C252.01,163.95,251.82,164.13,251.62,164.31z"/>
<path class="st18" d="M238.3,250.13c-0.01,0.85-0.02,1.69-0.03,2.54C238.28,251.82,238.29,250.98,238.3,250.13z"/>
<path class="st4" d="M135.35,230.92c0.46,0.2,0.92,0.39,1.37,0.59C136.27,231.31,135.81,231.11,135.35,230.92z"/>
<path class="st4" d="M106.28,230.01c0.41,0.21,0.82,0.42,1.23,0.63C107.1,230.42,106.69,230.21,106.28,230.01z"/>
<path class="st4" d="M115.26,227.63c0.25-0.07,0.51-0.14,0.76-0.21C115.77,227.49,115.51,227.56,115.26,227.63z"/>
<path class="st4" d="M113.24,230.66c0.08-0.27,0.16-0.54,0.25-0.81C113.4,230.12,113.32,230.39,113.24,230.66z"/>
<path class="st18" d="M69.97,263.27c0.14,0.14,0.27,0.29,0.41,0.43C70.24,263.55,70.1,263.41,69.97,263.27z"/>
<path class="st18" d="M70.39,263.71c0.13,0.15,0.27,0.3,0.4,0.45C70.66,264.01,70.52,263.86,70.39,263.71z"/>
<path class="st18" d="M58.09,268.77c-0.11-0.16-0.22-0.31-0.34-0.47C57.86,268.45,57.98,268.61,58.09,268.77z"/>
<path class="st18" d="M81.86,270.48c0.11-0.15,0.23-0.3,0.34-0.45C82.09,270.17,81.97,270.33,81.86,270.48z"/>
<path class="st4" d="M271.51,170.04c-0.34,1.03-0.69,2.07-1.03,3.1C270.82,172.11,271.16,171.07,271.51,170.04z"/>
<path class="st4" d="M269.22,159.99c0.06,0.31,0.13,0.62,0.19,0.92C269.35,160.6,269.29,160.29,269.22,159.99z"/>
<path class="st36" d="M252.17,96.45c0.44,0,0.87,0.01,1.31,0.01c0.61,0.11,1.21,0.22,1.82,0.33c0.52,1.54,0.89,3.16,1.6,4.61
	c0.58,1.18,1.37,2.4,2.4,3.17c2.11,1.58,2.46,2.81,0.95,5.05c-0.37,0.08-0.74,0.15-1.12,0.23c-0.05-0.42-0.01-0.88-0.18-1.24
	c-0.31-0.66-0.75-1.26-1.13-1.88c-0.6,0.68-1.3,1.3-1.74,2.06c-0.21,0.36,0.07,1,0.18,1.89c-0.56-0.41-1.02-0.61-1.01-0.77
	c0.12-1.99,0.33-3.97,0.48-5.95c0.04-0.51,0.07-1.07-0.1-1.54c-0.06-0.17-0.98-0.29-1.03-0.18c-1.34,2.53-3.22,0.04-4.78,0.49
	c-0.16,0.04-0.9-0.97-0.79-1.21c0.22-0.46,0.88-1.02,1.33-1c1.52,0.08,3.03,0.4,4.56,0.62c0.17-2.87-1.22-3.9-3.52-3
	c-1.39,0.54-2.85,0.94-4.32,1.16c-0.3,0.05-1.21-1.22-1.08-1.44c0.48-0.83,1.27-1.48,1.95-2.2l0.05-0.1c0,0,0.11,0.02,0.11,0.02
	c0.39,2.1,1.63,2.19,3.25,1.39C251.63,96.8,251.9,96.62,252.17,96.45z"/>
<path class="st36" d="M265.06,145.73c0.11,0.21,0.22,0.43,0.33,0.64c0.32,1.88,1.23,3.94-1.47,4.91c-0.25,0.08-0.49,0.16-0.74,0.24
	c-0.28,0.13-0.57,0.25-0.85,0.38c-0.41-0.01-0.82-0.01-1.24-0.02c-0.28-0.27-0.57-0.55-0.85-0.82c-0.01-0.13,0-0.26,0.01-0.38
	c-0.01-0.57-0.01-1.14-0.02-1.71c0.01-0.42,0.03-0.84,0.04-1.26c1.03-1.92-0.53-2.13-1.7-2.6c-0.19-0.56-0.39-1.11-0.73-2.09
	c4.67,0.89,5.15-3.55,8.23-5.74c-0.37,1.29-0.59,2.05-0.81,2.82C264.44,141.95,263.6,143.8,265.06,145.73z"/>
<path class="st36" d="M258.17,141.88c0.09-1.04-0.03-1.76,0.24-2.26c0.8-1.48,1.7-2.92,2.68-4.29c0.22-0.31,1.06-0.55,1.34-0.37
	c0.38,0.23,0.82,1.09,0.67,1.34C261.9,138.29,260.99,140.58,258.17,141.88z"/>
<path class="st36" d="M259.54,154.89c-0.35,1.25-0.69,2.51-1.04,3.76c0,0,0,0.01,0,0.01c-0.31,0.23-0.62,0.46-0.93,0.69
	c-0.33-0.01-0.65-0.02-0.98-0.04c-0.15-0.98-0.43-1.96-0.4-2.94c0.03-0.93,0.38-1.85,0.59-2.78c0.26-0.24,0.53-0.48,0.79-0.71
	c0.56,0.28,1.13,0.56,1.69,0.84C259.35,154.11,259.44,154.5,259.54,154.89z"/>
<path class="st4" d="M255.39,139.78c0.44-1.06,0.88-2.12,1.32-3.18C256.28,137.66,255.83,138.72,255.39,139.78z"/>
<path class="st4" d="M254.35,154.92c0.37-1.02,0.74-2.04,1.11-3.06C255.09,152.88,254.72,153.9,254.35,154.92z"/>
<path class="st4" d="M254.56,142.32c0.22-0.6,0.45-1.21,0.67-1.81C255,141.11,254.78,141.72,254.56,142.32z"/>
<path class="st4" d="M255.5,147.34c-0.32-0.62-0.64-1.25-0.95-1.87C254.86,146.1,255.18,146.72,255.5,147.34z"/>
<path class="st4" d="M262.72,113.89c-0.54-0.22-1.08-0.44-1.61-0.66C261.64,113.46,262.18,113.68,262.72,113.89z"/>
<path class="st33" d="M260.24,148.97c0.01,0.57,0.01,1.14,0.02,1.71C260.25,150.11,260.24,149.54,260.24,148.97z"/>
<path class="st4" d="M264.35,131.87c0.42-0.54,0.84-1.08,1.26-1.62C265.19,130.79,264.77,131.33,264.35,131.87z"/>
<path class="st4" d="M251.79,168.45c0.34-0.47,0.67-0.94,1.01-1.41C252.46,167.51,252.12,167.98,251.79,168.45z"/>
<path class="st4" d="M252.97,158.18c0.29-0.4,0.57-0.8,0.86-1.2C253.54,157.38,253.26,157.78,252.97,158.18z"/>
<path class="st33" d="M260.25,151.06c0.28,0.27,0.57,0.55,0.85,0.82C260.81,151.61,260.53,151.34,260.25,151.06z"/>
<path class="st4" d="M266.12,127.37c-0.3,0.25-0.59,0.5-0.89,0.75C265.53,127.87,265.83,127.62,266.12,127.37z"/>
<path class="st4" d="M257.56,159.35c0.31-0.23,0.62-0.46,0.93-0.69C258.18,158.89,257.87,159.12,257.56,159.35z"/>
<path class="st4" d="M262.33,151.9c0.28-0.13,0.57-0.26,0.85-0.38C262.9,151.65,262.62,151.77,262.33,151.9z"/>
<path class="st36" d="M55.47,125.15c0.01-0.01,0.02-0.01,0.03-0.02c0-0.01,0-0.01,0-0.02C55.49,125.12,55.47,125.15,55.47,125.15z
	 M64.08,144.34L64.08,144.34l0.02-0.01C64.09,144.34,64.09,144.34,64.08,144.34z M153.59,124.3c0.05-0.01,0.11-0.02,0.11-0.01v-0.01
	L153.59,124.3z"/>
<path class="st36" d="M267.42,121.8c-1.01-0.4-1.99-0.91-3.04-1.15c-0.9-0.2-4.34-2.96-4.49-3.89c-0.03-0.26,0.1-0.54,0.13-0.81
	c0.08-0.84,0.14-1.68,0.21-2.51c-0.36-0.17-0.71-0.33-1.07-0.5c-0.36-0.25-1.08-0.57-1.04-0.71c0.19-0.76-1.35-2.39,0.96-2.18
	c0.07-0.06,0.08-0.13,0.03-0.2c-0.05-0.41,0-0.88-0.17-1.24c-0.31-0.66-0.74-1.25-1.13-1.88c-0.59,0.68-1.3,1.3-1.74,2.07
	c-0.21,0.36,0.07,1,0.18,1.88c-0.56-0.41-1.02-0.6-1.01-0.77c0.12-1.98,0.32-3.96,0.47-5.95c0.04-0.51,0.07-1.07-0.1-1.53
	c-0.06-0.18-0.97-0.29-1.03-0.18c-1.34,2.53-3.23,0.04-4.78,0.49c-0.16,0.04-0.91-0.96-0.79-1.21c0.22-0.46,0.87-1.02,1.33-0.99
	c1.52,0.08,3.03,0.39,4.55,0.62c0.17-2.86-1.21-3.89-3.51-3c-1.39,0.53-2.85,0.94-4.32,1.16c-0.3,0.04-1.21-1.22-1.08-1.44
	c0.48-0.83,1.27-1.48,1.95-2.2c0.04-0.28,0.08-0.57,0.12-0.85c0-0.41-0.01-0.83-0.01-1.24c-0.18-0.64-0.37-1.29-0.52-1.93
	c-0.68-2.85-1.73-3.32-3.64-1.61c1.75,4.58,2.03,6.46-2.95,7.19c-0.34,1.85,0.62,2.21,2.14,1.79c0.89,3.33,0.89,3.33-1.26,5.39
	c1.09,0.66,2.07,1.25,3.03,1.86c0.33,0.21,0.74,0.44,0.9,0.76c0.31,0.69-1.36,4.07-2.2,4.53c-0.38-0.57-0.77-1.15-1.15-1.73
	c-0.55,0.31-1.09,0.63-1.64,0.94c-0.09,0.81-0.14,1.71-1.3,0.81c-0.25,0.08-0.51,0.14-0.76,0.22c-0.83,1.57-0.25,3.11-0.11,4.73
	c0.25,3.11-0.11,6.26-0.21,9.39c-0.2,0.09-0.4,0.18-0.6,0.26c-0.63-0.52-1.26-1.04-2.1-1.73c-2.45,1.19-5.05,2.45-7.9,3.83
	c-1.49-2.29,0.46-4.98,0.3-7.01c-2.47,0.08-4.6,0.07-6.74,0.21c-1.58,0.11-3.15,0.58-4.73,0.59c-2.57,0.02-5.15-0.2-7.72-0.35
	c-0.56-0.03-1.1-0.21-1.65-0.28c-3.12-0.38-3.86-1.55-2.89-4.56c0.1-0.32,0.07-0.69,0.1-1.04c-0.25-0.03-0.5-0.07-0.75-0.1
	c-1.14-0.05-2.29-0.1-3.43-0.15c0.16-0.24,0.33-0.47,0.49-0.7c-0.44-1.22-0.88-2.43-1.32-3.64c-0.22,0.06-0.43,0.13-0.64,0.19
	c-0.05,0.47-0.09,0.93-0.14,1.4c-0.17,0.02-0.34,0.03-0.51,0.06c-0.15-0.63-0.3-1.27-0.47-1.98c-0.33-0.02-0.67-0.03-1.02-0.05
	c-2.22-0.08-2.33-0.3-1.42-2.29c0.16-0.35-0.14-0.91-0.19-1.15c-1.31,0.47-2.37,0.86-3.84,1.4c0.52,1.13,1.08,2.3,1.68,3.56
	c-1.08,1.1-1.85,2.37-0.11,3.61c1.41,1,3.28,0.15,4.64-2.06c0.91,0.84,1.8,1.66,2.51,2.31c-0.39,0.87-0.7,1.59-1.02,2.3
	c0.76-0.36,1.53-0.73,2.67-1.26c0.19,0.85,0.44,1.73,0.51,2.62c0.01,0.15-0.8,0.52-1.24,0.52c-3.72-0.04-7.43-0.26-11.15-0.2
	c-1.82,0.03-2.28-0.6-2.2-2.3c0.13-2.6,0.08-5.21,0.03-7.81c-0.04-2.05-0.96-2.96-2.97-3.04c-1.33-0.05-2.67-0.01-4-0.01
	c-2.98,0-3.44-0.71-2.18-3.83c0.33,1.97,1.23,3.45,3.16,2.9c1.33-0.38,2.43-1.55,3.63-2.37c1.21,1.96,2.6,2.67,5.04,1.92
	c0.66-0.2,1.38-1.32,1.46-2.09c0.13-1.13-0.75-1.23-1.77-0.96c-0.51,0.14-1.54-0.05-1.64-0.35c-0.6-1.71-1.58-1.1-2.75-0.3
	c-0.51-1.09-0.93-2.01-1.35-2.93c-0.15-0.15-0.3-0.3-0.46-0.45c-0.3-0.14-0.61-0.3-0.91-0.44c-0.75-0.06-1.51-0.12-2.26-0.18
	c0.29-0.53,0.58-1.07,0.85-1.6c0.01-0.13-0.03-0.24-0.11-0.34c-0.58-0.76-1.59-1.49-1.68-2.3c-0.32-3.04-0.33-6.1-0.46-9.17
	c0,0,0.03-0.03,0.03-0.04c-0.55-0.19-1.1-0.4-2.11-0.75c-0.16,1.42-0.3,2.66-0.43,3.82c-0.82,0.58-1.73,1.19-2.6,1.84
	c-1.11,0.83-1.83,0.67-2.41-0.67c-0.27-0.62-1.02-1.55-1.41-1.49c-0.78,0.12-1.46,0.84-2.7,1.63c3,0.86,3.57,2.56,2.99,4.63
	c-0.21,0.75-1.05,1.85-1.65,1.88c-1.23,0.06-2.18-0.65-2.05-2.27c0.14-1.65,0.03-3.32,0.03-4.96c-4.25-0.69-9.1,0.5-10.57-5.54
	c0.25,4.6-2.88,7.5-4.38,11.28c-0.52,0-1.25,0.14-1.9-0.04c-0.63-0.19-1.15-0.71-1.72-1.09c0.49-0.33,1.01-0.63,1.47-0.99
	c0.59-0.47,1.73-1.16,1.63-1.43c-0.66-2.02,0.57-3.35,1.46-4.84c1.13-1.91,0.66-3.95-1.42-5.61c-0.7,2.03-1.37,3.99-2.07,5.93
	c-0.19,0.52-0.39,1.08-0.74,1.5c-0.25,0.3-1.01,0.63-1.12,0.52c-0.8-0.77-1.47-1.65-2.19-2.49c-0.54-0.27-1.09-0.53-1.64-0.8
	c-2.27,0.52-3.3-0.05-4.31-2.5c-0.44,0.08-0.92,0.12-1.36,0.28c-1.68,0.59-1.68,0.6-1.82-1.14c-0.19-2.18-2.75-3.11-5.37-1.68
	c0.52,0.49,1.02,0.89,1.42,1.35c0.29,0.34,0.75,0.93,0.65,1.12c-0.25,0.4-0.77,0.79-1.23,0.86c-0.58,0.09-1.23-0.22-1.83-0.18
	c-0.6,0.05-1.44,0.14-1.72,0.53c-1.08,1.5-2.94,1.88-4.09,0.5c-1.02-1.2-1.92-2.56-2.61-3.97c-0.3-0.63-0.05-1.63,0.22-2.35
	c0.06-0.18,1.2,0.04,1.85,0.08c0.08-0.17,0.16-0.33,0.24-0.49c0.03-0.5-0.13-1.2,0.14-1.45c1.27-1.2,2.66-2.28,1.72-4.35
	c-0.08-0.17,0.14-0.51,0.27-0.74c1.22-2.23,0.36-4.27-2.29-5.2c-0.24,1.63-0.47,3.23-0.66,4.48c-2.3-0.29-4.32-0.45-6.27-0.85
	c-0.52-0.1-1.34-1.03-1.27-1.46c0.34-2.06,0.93-4.06,1.44-6.09c0.19,0.02,0.37,0.03,0.56,0.03c-0.6-0.84-1.26-1.64-1.79-2.52
	c-0.29-0.48-0.4-1.1-0.52-1.67c-0.18-0.81-0.29-1.64-0.42-2.46c-0.69,0.4-1.38,0.8-2.45,1.41c-1.3-0.92-1.28-5.23-5.16-2.53
	c0.74-3.07-1.68-3.96-3.14-4.84c-2.03-1.24-2.44-2.78-2.56-4.75c-1.63,0.94-3.39,2.09-5.03,0.36c-1.58-1.68-3.04-3.57-4.13-5.6
	c-0.72-1.34,0.56-2.09,1.84-2.4c0-0.57,0-1.13,0.01-1.7c-0.42-0.38-0.84-0.77-1.26-1.15c-2.47,3.04-3.37,7.98-1.41,10.51
	c1.73,2.24,2.56,4.68,3.19,7.31c0.16,0.07,0.31,0.14,0.47,0.21c0.58-1.11,1.01-1.97,2.67-1.1c1,0.52,2.53,0.23,3.78,0.02
	c1.44-0.24,2.13,0.32,2.84,1.5c0.95,1.58,1.34,2.96,0.34,4.71c-0.28,0.48,0.36,1.47,0.53,2.23c0.29,1.41,0.54,2.81,0.81,4.22
	c-0.01,0.12,0.02,0.23,0.08,0.32c0.12-0.03,0.24-0.03,0.36,0.03c0.14,0.18,0.26,0.36,0.4,0.53c1.38,1.9,1.19,2.82-0.86,4.35
	c-0.19,1.76-1.87,0.7-2.62,1.41c-0.52-0.57-1.03-1.13-1.55-1.7c-0.45,0.22-0.9,0.44-1.35,0.66c-0.03,0.13-0.07,0.25-0.11,0.39
	c-0.08-0.1-0.17-0.2-0.25-0.3l-0.11-0.03l-0.05,0.1c-0.61-0.23-1.21-0.45-1.76-0.66c-0.62,0.4-1.23,0.78-1.83,1.17
	c-0.3,0.12-0.6,0.24-0.91,0.36c-0.27,0.16-0.55,0.32-0.82,0.49c0,0.14,0.01,0.29,0.01,0.43c0.06,1.03,0.12,2.07,0.21,3.6
	c-1.3-0.47-2.89-1.06-4.49-1.63c-0.38,0.06-0.76,0.13-1.14,0.19l-0.02,0.04c-0.02,0.19-0.03,0.36-0.06,0.54
	c0.47,0.54,0.93,1.08,1.35,1.57c-0.25,0.36-0.3,0.53-0.4,0.58c-3.34,1.48-4.11,3.11-3.33,6.85c0.24,1.17,0.96,2.56-0.97,3.06
	c-0.17,0.25-0.34,0.49-0.51,0.74c-0.36,3.34-0.68,6.7-1.13,10.02c-0.08,0.53-0.78,0.97-1.19,1.46c-0.37-0.45-0.84-0.85-1.08-1.35
	c-0.54-1.14-1.13-2.13-2.62-1.98c-0.2,0.03-0.49,0.05-0.62-0.06c-2.62-2.28-5.71-1.02-8.61-1.2c-0.29,0.36-0.57,0.72-0.85,1.08
	c-0.41,2.37-2.69,1.37-4.16,2.5c0.48,0.72,1.05,1.57,1.55,2.32c-0.96,0.38-2.04,0.5-2.59,1.1c-0.62,0.68-0.76,1.79-1.19,2.94
	c1.01,1.27,2.21,2.79,3.67,4.63c-0.74,0.27-1.31,0.47-1.87,0.68c-0.17,0.83-0.34,1.66-0.5,2.49c0.41,0.96,0.84,1.94,1.46,3.39
	c-2.21-0.19-3.71-0.3-5.21-0.42l-0.03-0.03c0.68,3.42,0.18,4.33-2.56,4.71c-0.3,0.29-0.59,0.57-0.88,0.85
	c0.03,0.14,0.07,0.27,0.1,0.41c0.03,0.98,0.05,1.97,0.08,2.95c-0.04,0.49-0.08,0.98-0.12,1.47c-0.44,0.31-0.87,0.63-1.31,0.95
	c0.29,1.05-0.16,1.48-1.19,1.41c-0.4,0.01-0.79,0.03-1.19,0.03l-0.03-0.03c0.09,0.99,0.18,1.99,0.26,2.99
	c0.11,0.24,0.22,0.47,0.33,0.71c1.4,1.05,0.67,2.11,0,3.16c-0.53,2.47,0.07,4.56,2.03,6.2c0.53,0.73,1.07,1.45,1.6,2.18
	c0.5,0.44,1.34,0.82,1.44,1.34c0.36,1.89,1.24,2.68,3.17,2.13c0.12-0.03,0.31,0.23,0.47,0.36c0.13,0.02,0.26,0.01,0.4-0.03
	c0.02-0.14,0.03-0.27,0.03-0.41c0.42-0.28,0.85-0.55,1.28-0.82v-0.01c0.36-1.08-1.27-2.51,0.53-3.31c0.49-0.21,1.31-0.38,1.65-0.13
	c1.45,1.09,2.76,0.86,4.33,0.25c1.24-0.49,2.85-0.69,3.19,1.41c1.35,1.35,3.21,2.46,3.98,4.09c2.24,4.75,6.07,7.98,9.91,11.19
	c1.81,1.52,3.97,2.61,5.97,3.89c0.15,0.12,0.3,0.24,0.44,0.35c0.28,0.18,0.56,0.36,0.83,0.53c0.15,0.1,0.3,0.2,0.44,0.3l0.01,0.01
	c0.3,0.99,0.6,1.98,0.91,2.97c0.4-0.55,0.83-1.08,1.19-1.66c0.53-0.88,0.89-1.9,1.53-2.69c1.85-2.29,4.49-1.52,6.88-1.55
	c2.24-0.01,3.01,0.79,2.98,3.09c-0.04,3.29-0.2,6.58-0.4,9.87c-0.21,3.53-0.35,3.63-3.83,4.36c-0.38,0.08-0.76,0.19-1.35,0.35
	c0.24,0.76,0.42,1.39,0.49,1.6c3.34,0.25,4.43,2.94,6.4,4.42c-0.32,0.64-0.59,1.18-0.86,1.72c1.69,0.02,3.39,0.03,5.08,0.05v-1.96
	c0.25-0.08,0.48-0.15,0.72-0.23c0.32,0.69,0.64,1.37,0.96,2.05c0.41,0.05,0.83,0.11,1.24,0.16c0.14-0.46,0.27-0.91,0.47-1.57
	c1.13,1.24,2.02,2.22,2.9,3.18c1.56,0.52,3.09,1.14,4.68,1.52c0.49,0.11,1.13-0.44,1.7-0.69c-0.36-0.08-0.73-0.14-1.1-0.22
	c0.07-0.18,0.14-0.36,0.2-0.54c0.3,0.25,0.6,0.51,0.9,0.76c0.32-0.14,0.65-0.28,0.97-0.41c0.38-0.2,0.76-0.41,1.14-0.63
	c0.45-0.36,0.87-0.96,1.36-1.02c1.23-0.15,2.49-0.05,3.73-0.05c0.58-0.52,1.15-1.03,1.72-1.54c-0.19-1.33,0.11-2.3,1.56-2.76
	c0.56-0.18,0.94-0.85,1.49-1.08c0.64-0.26,1.38-0.28,2.08-0.4c-0.14,0.85-0.14,1.74-0.45,2.51c-0.29,0.75-0.89,1.38-1.35,2.07
	c0,0,0.14,0.1,0.14,0.11c1.75,0.59,3.5,1.19,5.17,1.75c-0.14,2.2-0.39,3.93,1.66,5.23c0.89,0.56,2.73,2.2,0.22,3.6
	c-0.24,0.13-0.21,1.44,0.11,1.74c1.51,1.37,1.38,2.73,0.48,4.15c-0.84-0.11-1.54-0.2-2.25-0.3v3.48c0.93-0.1,1.59-0.18,2.17-0.25
	c1.48,2.31,2.27,5.06,5.68,5.09c0.69,0,1.35,1.09,2.08,1.58c0.52,0.36,1.19,0.84,1.74,0.78c1.5-0.17,2.97-0.59,4.2-0.85
	c1.1,0.34,2.02,0.82,2.98,0.87c1.36,0.06,1.84,0.58,1.86,1.92c0.04,1.71,0.29,3.41,0.44,5.01c0.77,0.13,1.85,0.02,2.51,0.48
	c2.18,1.57,2.38,1.57,3.44-0.97c0.06-0.16,0.3-0.25,0.38-0.3c2.26,1.64,4.43,3.29,6.69,4.8c0.57,0.38,1.46,0.27,2.21,0.39
	c0.01-0.72,0.02-1.45,0.03-2.17c0.01-0.13,0.09-0.25,0.19-0.52c1.23-0.11,2.51-0.22,3.94-0.35c-0.25,1.08-0.47,2.01-0.68,2.93
	c0.16-0.1,0.31-0.2,0.47-0.3c2.34,2.38,4.7,4.76,7.15,7.25c-0.79,1.13-2.06,1.31-3.51,0.98c-0.54-0.12-1.14-0.39-1.62-0.25
	c-0.64,0.19-1.19,0.69-1.79,1.07c0.52,0.52,0.96,1.31,1.59,1.51c0.91,0.28,1.96,0.06,2.93,0.19c1.38,0.19,2.62,0.34,1.95,2.46
	c-0.77,2.43,1.43,4.14,2.12,6.24c0.11,0.32,1,0.62,1.46,0.54c1.32-0.22,2.7-0.46,3.89-1.02c2.3-1.08,6.72,1.63,7.17,4.55
	c0.41,2.66,2.15,3.38,4.32,1.78c0.57-0.41,1.06-1.13,1.67-1.24c1.18-0.19,2.42-0.13,3.61,0.02c0.57,0.07,1.05,0.8,1.61,0.85
	c3.73,0.36,6.5,2.8,9.7,4.32c0.7,0.34,1.76,0.67,2.35,0.38c2.12-1.04,4.27-2.16,6.04-3.67c0.51-0.44-0.24-2.33-0.38-3.56
	c-0.03-0.19,0.05-0.4,0.07-0.61c0.1-1.52,0.27-3.06,0.28-4.58c0.02-2.94-0.85-5.88,0.42-8.79c1.03-2.34,1.97-4.69,4.83-5.34
	c1.23-0.28,1.45-0.91,1.12-2.16c-0.22-0.85,0.24-1.88,0.39-2.83c0.06-0.39,0.28-0.93,0.11-1.14c-0.27-0.31-0.82-0.59-1.23-0.57
	c-1.24,0.08-1.54,0.9-1.54,2.06c0,1.37-0.21,2.75-0.38,4.67c-0.88-0.82-1.44-1.11-1.43-1.37c0.07-1.82,0.24-3.65,0.41-5.47
	c0.07-0.64,0.6-1.46,0.36-1.9c-1.64-3.06-0.93-6.36-1-9.56c-0.02-0.81,0.57-1.64,1.02-2.84c0.52,0.78,0.7,0.99,0.82,1.24
	c1,2.16,1.05,2.18,2.37,0.35c1.45-1.99,2.86-4,4.16-5.84c-0.66-0.66-1.44-1.37-2.13-2.17c-0.68-0.79-1.26-1.64-2.12-2.77
	c0,0,0.01-0.02,0.02-0.04c0.02-0.06,0.05-0.18,0.06-0.21c-1.79-2.23-2.74-4.74-5.06-5.97c-0.08-0.05-0.04-0.3-0.13-0.4
	c-0.86-1.05-1.46-2.35-3.37-1.71c-1.07,0.37-2.67-0.26-2.34-1.61c0.59-2.45-0.99-2.78-2.51-3.23c-0.43-3.5,0.36-6.98-1.02-10.64
	c-0.72,0.86-1.15,1.39-1.35,1.63c-4.74,0-9.23,0.05-13.73-0.02c-4.63-0.07-9.26-0.22-13.89-0.41c-0.61-0.03-1.19-0.57-1.79-0.87
	c0.54-0.28,1.12-0.52,1.63-0.84c0.43-0.27,0.8-0.63,1.2-0.96c-0.34-0.38-0.62-0.89-1.04-1.11c-0.64-0.35-1.39-0.49-2.47-0.85
	c0.65-0.3,0.94-0.43,1.22-0.56c1.07-0.12,2.13-0.24,3.2-0.36c0.39,2.26,2.44,3.71,3.88,2.64c1.51-1.11,2.88-2.41,4.45-3.76
	c0.13,2.21,0.65,4,3.28,3.99c1.12-0.02,2.27,0.26,3.35,0.08c1.08-0.18,2.74-0.53,3-1.24c0.46-1.24,1.37-2.88-0.35-4.22
	c-1.14-0.88-1.01-2.03,0.39-2.64c1.45-0.63,2.97-1.08,4.47-1.57c1.3-0.43,2.44,0.5,3.59,0.57c2.23,0.14,4.49-0.5,6.75-0.54
	c5.21-0.1,10.41-0.06,15.62-0.02c1.12,0.01,1.85-0.13,2.04-1.46c0.23-1.57,0.62-3.13,2.24-4.03c0.3-0.16,0.25-0.95,0.37-1.45
	c0.11-0.44,0.13-0.95,0.36-1.32c0.85-1.38,0.14-3.83-1.38-4.45c-1.31-0.54-1.02-1.13-0.26-2.01c0.5-0.58,0.85-1.4,1.02-2.17
	c0.21-0.99,0.05-2.06,0.28-3.04c0.55-2.3,1.68-4.55,1.77-6.86c0.13-3.4,0.14-6.94-2.37-9.85c-1.35-1.58-0.51-3.5,1.49-4.02
	c0.76-0.19,1.41-0.76,2.16-1.02c0.8-0.28,1.65-0.45,2.49-0.53c0.14-0.02,0.34,0.63,0.51,0.96c-0.67,0.34-1.34,0.69-2.01,1.02
	c-0.11,0.06-0.32-0.04-0.41,0.03c-0.43,0.36-1.24,0.82-1.19,1.1c0.15,0.75,0.8,2.07,1.03,2.03c2.56-0.48,2.61,1.38,2.9,3.48
	c0.69-0.64,1.5-1.07,1.46-1.41c-0.16-1.64,0.77-1.77,1.96-1.67c0.64,0.05,1.29,0.15,2.06,0.25c-0.21-0.71-0.33-1.11-0.47-1.59
	c0.84,0.07,1.47,0.12,2.1,0.18C267.27,122.33,267.35,122.07,267.42,121.8z M193.48,109.85c-0.11-0.14-0.32-0.33-0.29-0.4
	c0.07-0.17,0.27-0.27,0.41-0.4c0.07,0.11,0.14,0.22,0.24,0.39C193.73,109.57,193.6,109.72,193.48,109.85z M178.44,97.57v1.22
	c-0.14,0.01-0.27,0.02-0.41,0.03c-0.03-0.41-0.07-0.81-0.11-1.23C178.1,97.58,178.27,97.58,178.44,97.57z M56.7,133.89
	c-0.19,0.08-0.37,0.15-0.57,0.23c-0.31-0.75-0.81-1.49-0.87-2.27c-0.05-0.5,0.54-1.05,0.85-1.58c0.19,0.08,0.4,0.17,0.59,0.25
	V133.89z M124.82,187.07c-0.2-0.13-0.36-0.23-0.52-0.32c0.16-0.15,0.3-0.35,0.49-0.43c0.07-0.03,0.34,0.19,0.36,0.33
	C125.17,186.76,124.95,186.91,124.82,187.07z M151.67,115.65L151.67,115.65L151.67,115.65L151.67,115.65z M153.7,124.29
	c0-0.01-0.06,0-0.11,0.01L153.7,124.29L153.7,124.29z M242.93,115.27c-0.66-0.29-1.32-0.58-1.98-0.86c0.16-0.27,0.39-0.8,0.48-0.8
	c0.64,0.16,1.25,0.43,1.87,0.67C243.17,114.61,243.05,114.94,242.93,115.27z M247.75,121.29c-2.25-0.31-4.16-2.84-3.34-4.59
	c0.22-0.47,1.5-0.81,2.14-0.64c0.69,0.19,1.67,0.99,1.73,1.6C248.4,118.84,247.96,120.08,247.75,121.29z M252.05,153.94
	c-0.05,0.12-0.08,0.3-0.16,0.34c-0.08,0.03-0.23-0.08-0.35-0.14c0.05-0.12,0.08-0.3,0.16-0.33
	C251.79,153.78,251.93,153.89,252.05,153.94z"/>
<path class="st4" d="M176.07,78.35c0.27,0.56,0.53,1.12,0.79,1.68C176.6,79.46,176.34,78.9,176.07,78.35z"/>
<path class="st4" d="M176.91,80.06c0.27,0.41,0.54,0.82,0.8,1.24C177.44,80.88,177.17,80.47,176.91,80.06z"/>
<path class="st4" d="M177.74,81.34c0.28,0.41,0.55,0.81,0.83,1.21C178.29,82.15,178.02,81.74,177.74,81.34z"/>
<path class="st36" d="M123.68,77.02c0.03-0.49-0.13-1.19,0.13-1.44c1.27-1.2,2.66-2.27,1.71-4.35c-0.08-0.17,0.14-0.51,0.27-0.74
	c1.22-2.23,0.37-4.27-2.29-5.2c-0.24,1.62-0.48,3.23-0.67,4.48c-2.3-0.29-4.31-0.45-6.27-0.86c-0.53-0.11-1.34-1.03-1.27-1.46
	c0.34-2.05,0.93-4.07,1.44-6.09c0.19,0.01,0.38,0.02,0.56,0.03c-0.6-0.84-1.26-1.64-1.79-2.53c-0.29-0.49-0.4-1.1-0.52-1.67
	c-0.17-0.81-0.29-1.64-0.43-2.46c-0.69,0.4-1.38,0.79-2.45,1.41c-1.3-0.92-1.28-5.23-5.16-2.53c0.73-3.07-1.69-3.96-3.14-4.84
	c-2.03-1.23-2.44-2.77-2.55-4.75l0.06-0.06c0.66,0.89,1.31,1.77,1.97,2.66c2.82,2.09,5.6,4.23,8.49,6.21
	c0.49,0.34,1.66,0.3,2.14-0.06c1.54-1.18,2.9-0.96,4.33,0.07c0.21,0.88,0.44,1.76,0.64,2.65c0.49,2.13,1.29,3.87,3.96,3.78
	c0.39-0.01,0.99,0.64,1.19,1.11c0.86,2.11,2.68,3.77,2.94,6.19c0.03,0.27,0.6,0.48,0.92,0.71c0.4,0.33,0.81,0.66,1.21,0.98
	c0.17,0.21,0.31,0.48,0.53,0.61c0.85,0.51,2.22,0.8,2.48,1.51c0.34,0.91-0.21,2.14-0.37,3.24c0,0,0,0.01,0,0.01
	c-0.14,0.14-0.29,0.27-0.43,0.41c-1.53,0.03-3.3-0.53-3.78,1.84c-0.07,0.33-1.06,0.5-1.63,0.69c-0.57,0.19-1.16,0.33-1.74,0.49
	C123.98,77.07,123.83,77.04,123.68,77.02z"/>
<path class="st36" d="M101.26,44.03c-1.63,0.94-3.4,2.09-5.04,0.35c-1.58-1.68-3.04-3.57-4.13-5.6c-0.72-1.34,0.55-2.09,1.83-2.39
	c0.29,1.31,0.58,2.61,0.87,3.92c0.31,0.42,0.62,0.83,0.93,1.25c0.61,0.38,1.19,0.86,1.85,1.13c1.22,0.49,2.49,0.86,3.74,1.28
	L101.26,44.03z"/>
<path class="st4" d="M152.91,211.58c0.4,0.44,0.8,0.88,1.2,1.32C153.71,212.46,153.31,212.02,152.91,211.58z"/>
<path class="st36" d="M238.68,111.81c-0.83,1.57-0.24,3.11-0.11,4.73c0.25,3.11-0.1,6.26-0.21,9.39c-0.2,0.09-0.4,0.17-0.6,0.26
	c-0.63-0.52-1.26-1.04-2.1-1.72c-2.46,1.19-5.06,2.45-7.9,3.83c-1.49-2.29,0.46-4.97,0.31-7c-2.47,0.07-4.61,0.06-6.74,0.21
	c-1.58,0.11-3.15,0.58-4.73,0.59c-2.57,0.02-5.15-0.2-7.72-0.35c-0.55-0.03-1.1-0.21-1.65-0.27c-3.12-0.38-3.86-1.55-2.89-4.56
	c0.11-0.33,0.07-0.7,0.11-1.05c0.72-0.02,1.45-0.05,2.17-0.07c0.09,0.1,0.19,0.2,0.29,0.29c0.42,0.52,0.76,1.16,1.28,1.53
	c1.57,1.1,3.95,0.61,4.62-0.84c0.05-0.55,0.1-1.1,0.15-1.64c0.68-0.13,1.35-0.26,2.03-0.4c0.56,0.43,1.13,0.86,1.69,1.29
	c0.17,0.25,0.34,0.51,0.52,0.76c0.04,0.56,0.07,1.11,0.11,1.67c0.01,2.03,1.47,1.49,2.3,1.02c3.06-1.77,6.16-1.87,9.39-0.69
	c0.27,0.63,0.6,1.23,0.79,1.88c0.24,0.81,0.1,1.89,0.59,2.41c0.53,0.57,1.62,0.89,2.44,0.86c1.81-0.08,2.96-2.31,2.37-4.33
	c-0.75-2.62,0.13-4.57,1.41-6.58C237.28,112.61,237.98,112.21,238.68,111.81z"/>
<path class="st4" d="M239.95,106.67c0.3-0.1,0.61-0.2,0.91-0.29C240.55,106.47,240.25,106.57,239.95,106.67z"/>
<path class="st4" d="M237.87,106.2c0.27,0.15,0.54,0.3,0.81,0.45C238.4,106.5,238.14,106.35,237.87,106.2z"/>
<path class="st14" d="M217.18,116.77c-0.17-0.25-0.35-0.51-0.52-0.76C216.84,116.27,217.01,116.52,217.18,116.77z"/>
<path class="st4" d="M237.12,104.96c0.11,0.26,0.22,0.53,0.33,0.79C237.34,105.49,237.23,105.22,237.12,104.96z"/>
<path class="st4" d="M185.41,99.48c1.01,0.22,2.03,0.43,3.04,0.65C187.43,99.91,186.42,99.7,185.41,99.48z"/>
<path class="st4" d="M202.02,111.65c0.49,1.03,0.98,2.07,1.47,3.1C203,113.72,202.51,112.68,202.02,111.65z"/>
<path class="st4" d="M200.63,110.03c0.4,0.44,0.8,0.88,1.2,1.33C201.42,110.92,201.03,110.48,200.63,110.03z"/>
<path class="st4" d="M200.2,109.61c0.14,0.14,0.28,0.29,0.42,0.43C200.49,109.89,200.34,109.75,200.2,109.61z"/>
<path class="st36" d="M94.93,51.57c0.58-1.1,1.01-1.97,2.67-1.1c1,0.52,2.53,0.23,3.77,0.02c1.44-0.24,2.13,0.32,2.84,1.5
	c0.94,1.58,1.33,2.96,0.34,4.7c-0.28,0.48,0.36,1.47,0.53,2.24c0.3,1.4,0.55,2.81,0.82,4.21c-2.21-1.99-2.75-4.54-2.52-7.37
	c0.15-1.79-0.72-2.75-2.5-2.89c-0.6-0.41-1.17-1.07-1.82-1.17C97.7,51.51,96.31,51.6,94.93,51.57z"/>
<path class="st36" d="M99.15,67.32c0.22,0.53,0.45,1.06,0.67,1.59c-0.6-0.22-1.21-0.45-1.76-0.65c-0.62,0.4-1.22,0.78-1.82,1.16
	c0-0.68,0.01-1.37,0.01-2.05C97.2,66.02,98.17,66.65,99.15,67.32z"/>
<path class="st36" d="M85.16,86.23c-0.36,3.34-0.68,6.7-1.13,10.02c-0.08,0.53-0.78,0.97-1.19,1.46c-0.37-0.45-0.84-0.85-1.08-1.35
	c-0.54-1.14-1.13-2.13-2.62-1.98c-0.2,0.03-0.49,0.05-0.62-0.06c-2.62-2.28-5.71-1.02-8.61-1.2c0.11-0.74,0.23-1.46,0.34-2.19
	c0.08-0.11,0.14-0.23,0.19-0.35c1.17-0.04,2.35,0.06,3.49-0.15c0.84-0.16,1.6-0.73,2.4-1.11c0.14-0.01,0.3-0.01,0.44-0.02
	C79.99,89.43,82.87,88.63,85.16,86.23z"/>
<path class="st36" d="M64.91,96.68c0.48,0.72,1.05,1.57,1.55,2.32c-0.96,0.38-2.04,0.5-2.59,1.1c-0.62,0.68-0.76,1.79-1.19,2.94
	c1.01,1.27,2.21,2.79,3.67,4.63c-0.74,0.27-1.31,0.47-1.87,0.68c-0.23-2.56-2.12-3.28-4.19-3.83c-0.02-0.07-0.08-0.16-0.05-0.19
	c2.05-3.16,1.95-7.41,5.06-10.02c0.17-0.09,0.35-0.19,0.52-0.29c0.38,0.03,0.76,0.05,1.15,0.08c0.7,0.03,1.41,0.06,2.11,0.09
	C68.65,96.55,66.37,95.55,64.91,96.68z"/>
<path class="st36" d="M57.63,118.49c0.01-0.72,0.03-1.43,0.04-2.15l0.01-0.02c0.16-0.26,0.31-0.52,0.47-0.79
	c0.14-0.29,0.29-0.58,0.43-0.85c0.54-0.3,1.08-0.6,1.62-0.91C60.87,117.2,60.37,118.11,57.63,118.49z"/>
<path class="st4" d="M58.14,115.54c-0.15,0.26-0.31,0.53-0.46,0.79C57.83,116.06,57.99,115.8,58.14,115.54z"/>
<path class="st4" d="M65.8,94.02c-0.17,0.09-0.34,0.19-0.52,0.28C65.46,94.2,65.63,94.11,65.8,94.02z"/>
<path class="st36" d="M64.09,144.35c0.37-1.08-1.28-2.52,0.53-3.31c0.49-0.22,1.31-0.38,1.65-0.12c1.45,1.08,2.75,0.86,4.33,0.24
	c1.25-0.49,2.85-0.68,3.19,1.41c-2.28-0.55-4.32-0.09-6.36,1.1C66.5,144.21,65.21,144.14,64.09,144.35z"/>
<path class="st36" d="M57.3,141.78c0.5,0.44,1.34,0.82,1.45,1.34c0.36,1.88,1.25,2.68,3.17,2.13c0.11-0.03,0.31,0.23,0.47,0.36
	c-0.28,0.29-0.56,0.57-0.84,0.86c-0.7,0.01-1.4,0.02-2.11,0.03C58.72,144.92,58.01,143.35,57.3,141.78z"/>
<path class="st36" d="M62.81,145.18c0.43-0.28,0.86-0.56,1.29-0.84C63.67,144.62,63.24,144.9,62.81,145.18z"/>
<path class="st33" d="M93.66,161.74c0.15,0.12,0.29,0.23,0.44,0.35C93.95,161.97,93.8,161.86,93.66,161.74z"/>
<path class="st33" d="M94.92,162.62c0.15,0.1,0.29,0.2,0.44,0.31C95.22,162.82,95.07,162.72,94.92,162.62z"/>
<path class="st36" d="M127.06,187.91c0.32-0.14,0.65-0.27,0.97-0.41c0.39,1.65-1.11,1.96-1.94,2.74c-0.25,0.02-0.5,0.05-0.75,0.07
	c-0.99-0.02-1.98-0.04-2.97-0.06c-0.26-0.08-0.53-0.16-0.79-0.24c-0.3-0.97-0.6-1.94-0.9-2.92c1.55,0.52,3.09,1.14,4.68,1.51
	C125.85,188.72,126.49,188.16,127.06,187.91L127.06,187.91z"/>
<path class="st36" d="M134.67,186.64c-1.24,1.89-2.8,0.58-4.26,0.42c-0.41-0.07-0.82-0.13-1.24-0.19c0.45-0.36,0.87-0.96,1.36-1.02
	c1.23-0.15,2.49-0.05,3.73-0.05C134.41,186.08,134.54,186.36,134.67,186.64z"/>
<path class="st36" d="M54.3,126.54c0.05-0.37,0.1-0.74,0.15-1.11c0.35-0.1,0.7-0.21,1.05-0.31
	C55.79,126.18,55.34,126.62,54.3,126.54z"/>
<path class="st36" d="M56.92,122.72c-0.09-0.57-0.17-1.15-0.26-1.72c0.06-0.41,0.12-0.82,0.18-1.23
	C56.87,120.75,56.9,121.73,56.92,122.72z"/>
<path class="st36" d="M55.74,124.5c0.36-0.1,0.71-0.2,1.07-0.31c-0.45,0.32-0.89,0.64-1.34,0.96
	C55.55,124.94,55.65,124.72,55.74,124.5z"/>
<path class="st4" d="M248.33,87.68c0.38,0.44,0.76,0.89,1.13,1.33C249.08,88.57,248.71,88.13,248.33,87.68z"/>
<path class="st4" d="M242.36,88.43c0.19-0.41,0.37-0.82,0.56-1.23C242.73,87.61,242.54,88.02,242.36,88.43z"/>
<path class="st4" d="M241.59,94.86c0.17,0.1,0.34,0.2,0.51,0.31C241.93,95.06,241.76,94.96,241.59,94.86z"/>
<path class="st36" d="M89.02,73.43c0.47,0.54,0.93,1.08,1.34,1.56c-0.24,0.37-0.29,0.54-0.4,0.59c-3.34,1.48-4.11,3.11-3.33,6.85
	c0.24,1.16,0.96,2.55-0.97,3.06c-0.14-1.27-0.29-2.53-0.43-3.8c-1.52-3.9,1.43-5.96,3.47-8.39C88.82,73.33,88.93,73.37,89.02,73.43z
	"/>
<path class="st36" d="M94.51,70.69c0.06,1.03,0.12,2.06,0.21,3.6c-1.3-0.47-2.9-1.05-4.49-1.63c0.58-0.52,1.16-1.03,1.74-1.55
	c0.25-0.06,0.49-0.13,0.74-0.19C93.31,70.84,93.91,70.77,94.51,70.69z"/>
<path class="st36" d="M143.1,82.97c0.18,0.55,0.35,1.09,0.53,1.64c-2.27,0.52-3.3-0.06-4.31-2.5c-0.44,0.09-0.92,0.12-1.36,0.28
	c-1.68,0.59-1.67,0.61-1.82-1.14c-0.19-2.18-2.74-3.11-5.36-1.67c0.53,0.49,1.01,0.89,1.42,1.35c0.29,0.33,0.76,0.93,0.65,1.11
	c-0.24,0.4-0.76,0.79-1.22,0.86c-0.58,0.1-1.23-0.22-1.83-0.17c-0.6,0.05-1.43,0.14-1.72,0.53c-1.08,1.49-2.93,1.87-4.09,0.5
	c-1.02-1.21-1.92-2.56-2.6-3.97c-0.3-0.63-0.05-1.62,0.21-2.35c0.06-0.18,1.2,0.04,1.85,0.08c0.12,1.29,0.14,2.6,0.43,3.85
	c0.08,0.33,0.98,0.48,1.5,0.71c0.29,0.02,0.58,0.03,0.86,0.05c0.54-0.3,1.08-0.6,1.62-0.9c1.7-2.35,4.01-3.9,6.74-4.7
	c1.36-0.39,2.86-0.3,4.29-0.43c2.68,1.32,3.68,3.65,3.92,6.45C142.9,82.69,143,82.83,143.1,82.97z"/>
<path class="st4" d="M127.85,81.22c-0.54,0.3-1.08,0.6-1.62,0.9C126.77,81.82,127.31,81.52,127.85,81.22z"/>
<path class="st4" d="M131.29,74.06c0.14-0.14,0.29-0.27,0.43-0.41C131.58,73.79,131.44,73.92,131.29,74.06z"/>
<path class="st36" d="M182.76,98.19c-0.75-0.06-1.5-0.12-2.26-0.18c0.29-0.53,0.57-1.07,0.86-1.6c0.47,0.33,0.94,0.66,1.4,1
	c0.08,0.11,0.11,0.24,0.11,0.38C182.84,97.92,182.8,98.05,182.76,98.19z"/>
<path class="st36" d="M117.31,185.47c0.14-0.46,0.27-0.91,0.47-1.57c1.14,1.25,2.03,2.23,2.91,3.2
	C119.22,187.28,118.02,186.88,117.31,185.47z"/>
<path class="st36" d="M114.39,185.46c0-0.66,0-1.31,0-1.97c0.24-0.07,0.48-0.15,0.72-0.22c0.32,0.68,0.64,1.37,0.97,2.05
	C115.51,185.36,114.95,185.41,114.39,185.46z"/>
<path class="st36" d="M181.25,96.07c-0.59-0.77-1.6-1.49-1.68-2.3c-0.32-3.04-0.33-6.11-0.46-9.16c0.55,2.03,1.23,4.04,1.62,6.1
	C181.07,92.46,181.09,94.28,181.25,96.07z"/>
<path class="st37" d="M240.11,214.73c0-0.81,0-1.62,0-2.42c0.17-0.01,0.34-0.01,0.51-0.02c0.04,0.81,0.08,1.62,0.11,2.43
	C240.53,214.72,240.32,214.73,240.11,214.73z"/>
<path class="st37" d="M251.62,164.31c-0.32-0.32-0.68-0.62-0.94-0.98c-0.04-0.05,0.39-0.43,0.61-0.66c0.3,0.37,0.61,0.74,0.91,1.1
	C252.01,163.95,251.82,164.13,251.62,164.31z"/>
<path class="st4" d="M237.65,244.94c0.14,0.92,0.29,1.85,0.43,2.77C237.94,246.78,237.79,245.86,237.65,244.94z"/>
<path class="st36" d="M239.05,238.28c-0.14-1.28-0.29-2.56-0.43-3.84c0.3-0.29,0.6-0.57,0.89-0.86c0.23-0.42,0.46-0.84,0.7-1.26
	c0.68-0.8,1.24-1.77,2.08-2.34c1.06-0.72,2.34-1.1,3.76-1.73c0.22,1.19,0.45,2.44,0.68,3.69c0.84,2.18,0.61,4.31-0.33,6.4
	c-0.07,0.1-0.12,0.2-0.17,0.31c-0.67,1.38-1.39,2.74-1.97,4.15c-0.28,0.69-0.19,1.53-0.49,2.21c-0.12,0.28-0.8,0.32-1.23,0.47
	c-0.12-0.4-0.42-0.87-0.32-1.2c0.7-2.21-0.43-4.54-2.74-5.51C239.33,238.61,239.19,238.45,239.05,238.28z"/>
<path class="st36" d="M250.1,222.58c0-0.14-0.03-0.27-0.11-0.38c0.33-1.8-0.56-3.03-1.73-4.27c-0.36-0.38-0.07-1.36-0.08-2.06
	c0.78,0.08,1.95-0.13,2.28,0.3c1.61,2.11,1.59,4.55,1.05,7.26C250.9,223.05,250.5,222.82,250.1,222.58z"/>
<path class="st11" d="M255.13,228.17c0.15,0.12,0.31,0.25,0.46,0.37C255.44,228.41,255.29,228.29,255.13,228.17z"/>
<path class="st36" d="M259.17,112.93c-0.37-0.24-1.08-0.56-1.04-0.71c0.19-0.77-1.36-2.39,0.97-2.18
	C259.11,111.01,259.14,111.97,259.17,112.93z"/>
<polygon class="st36" points="151.67,115.64 151.67,115.65 151.66,115.64 "/>
<path class="st36" d="M247.75,121.29c-2.25-0.32-4.16-2.85-3.35-4.59c0.22-0.48,1.5-0.81,2.14-0.64c0.7,0.18,1.67,0.99,1.73,1.6
	C248.39,118.84,247.96,120.08,247.75,121.29z"/>
<path class="st36" d="M141.12,180.01c-0.14,0.85-0.14,1.74-0.45,2.51c-0.29,0.75-0.89,1.38-1.35,2.07
	c-1.11-0.12-2.22-0.23-3.33-0.34c-0.19-1.33,0.11-2.3,1.56-2.76c0.56-0.18,0.94-0.85,1.49-1.08
	C139.68,180.15,140.42,180.13,141.12,180.01z"/>
<path class="st36" d="M132.13,126.54c0.95,1.25,3.32,1.74,4.74,0.96c0.54-0.3,1.06-0.65,1.58-0.98c-0.94,1.24-1.87,2.5-2.86,3.71
	c-0.09,0.12-0.58,0.05-0.78-0.08c-1.08-0.73-2.16-1.48-3.14-2.32C131.55,127.72,131.96,126.99,132.13,126.54z"/>
<path class="st36" d="M65.43,114.23c-2.21-0.19-3.71-0.3-5.21-0.42c0.93-0.76,1.86-1.52,2.79-2.28c0.31-0.24,0.63-0.47,0.95-0.69
	C64.38,111.8,64.8,112.77,65.43,114.23z"/>
<path class="st36" d="M56.71,130.53c0,1.12,0,2.25,0,3.37c-0.19,0.08-0.38,0.15-0.57,0.23c-0.31-0.75-0.81-1.49-0.88-2.27
	c-0.04-0.5,0.54-1.05,0.85-1.58C56.31,130.36,56.51,130.44,56.71,130.53z"/>
<path class="st36" d="M101.7,68.08c1.39,0.1,2.78,0.2,4.17,0.3c-0.18,1.76-1.87,0.7-2.62,1.4C102.73,69.21,102.21,68.64,101.7,68.08
	z"/>
<path class="st36" d="M242.93,115.27c-0.66-0.29-1.32-0.57-1.98-0.86c0.17-0.28,0.4-0.82,0.49-0.79c0.64,0.16,1.25,0.43,1.87,0.67
	C243.17,114.61,243.05,114.94,242.93,115.27z"/>
<path class="st36" d="M153.7,124.28L153.7,124.28c0,0-0.06,0.01-0.11,0.02L153.7,124.28z"/>
<path class="st36" d="M115.93,127.94c-0.28-0.3-0.61-0.55-0.58-0.65c0.09-0.25,0.36-0.45,0.56-0.66c0.17,0.18,0.45,0.35,0.48,0.55
	C116.41,127.37,116.15,127.59,115.93,127.94z"/>
<path class="st36" d="M178.44,97.57c0,0.41,0,0.81,0,1.22c-0.14,0.01-0.28,0.02-0.41,0.03c-0.04-0.41-0.07-0.82-0.11-1.23
	C178.1,97.58,178.27,97.57,178.44,97.57z"/>
<path class="st36" d="M239.44,111.58c0.43-0.27,0.87-0.54,1.3-0.81C240.65,111.59,240.61,112.49,239.44,111.58z"/>
<path class="st36" d="M127.06,187.91c-0.37-0.07-0.73-0.15-1.1-0.22c0.07-0.18,0.13-0.36,0.2-0.54
	C126.46,187.41,126.76,187.66,127.06,187.91L127.06,187.91z"/>
<path class="st36" d="M124.82,187.07c-0.21-0.13-0.36-0.23-0.52-0.32c0.16-0.15,0.3-0.34,0.49-0.43c0.06-0.03,0.34,0.2,0.35,0.33
	C125.16,186.76,124.96,186.9,124.82,187.07z"/>
<path class="st36" d="M193.85,109.44c-0.12,0.13-0.24,0.27-0.37,0.41c-0.1-0.14-0.32-0.32-0.29-0.4c0.07-0.16,0.27-0.27,0.42-0.39
	C193.68,109.17,193.75,109.28,193.85,109.44z"/>
<path class="st36" d="M252.05,153.95c-0.05,0.12-0.08,0.3-0.16,0.33c-0.08,0.03-0.23-0.08-0.35-0.13c0.05-0.12,0.08-0.3,0.16-0.33
	C251.79,153.78,251.93,153.9,252.05,153.95z"/>
<path class="st36" d="M99.98,68.83c0.12-0.05,0.24-0.08,0.37-0.09c-0.04,0.13-0.07,0.26-0.11,0.39
	C100.15,69.03,100.07,68.93,99.98,68.83z"/>
<path class="st36" d="M106.73,64.02c-0.13-0.18-0.27-0.36-0.4-0.53C106.46,63.66,106.6,63.84,106.73,64.02z"/>
<path class="st33" d="M240.2,232.33c-0.23,0.42-0.46,0.84-0.7,1.26C239.74,233.17,239.97,232.75,240.2,232.33z"/>
<text transform="matrix(1 0 0 1 139.5951 166.6536)" class="st0 st38 st39">RANGPUR</text>
<ellipse class="st40" cx="167.25" cy="151.03" rx="8.92" ry="0.87"/>
<g>
	<g>
		<circle class="st8" cx="167.25" cy="132.24" r="3.95"/>
	</g>
	<g>
		<path class="st8" d="M167.25,138.55c-3.48,0-6.31-2.83-6.31-6.31s2.83-6.31,6.31-6.31s6.31,2.83,6.31,6.31
			S170.73,138.55,167.25,138.55z M167.25,127.12c-2.83,0-5.13,2.3-5.13,5.13c0,2.83,2.3,5.13,5.13,5.13s5.13-2.3,5.13-5.13
			C172.38,129.41,170.08,127.12,167.25,127.12z"/>
	</g>
	<polygon class="st8" points="168.51,138.3 167.25,151.47 167.25,151.48 167.25,151.47 166,138.3 167.25,138.27 167.25,138.27 	"/>
</g>
</svg>
