<?xml version="1.0" encoding="utf-8"?>
<!-- Generator: Adobe Illustrator 27.6.1, SVG Export Plug-In . SVG Version: 6.00 Build 0)  -->
<svg version="1.1" id="Layer_1" xmlns="http://www.w3.org/2000/svg" xmlns:xlink="http://www.w3.org/1999/xlink" x="0px" y="0px"
	 viewBox="0 0 661.87 864" style="enable-background:new 0 0 661.87 864;" xml:space="preserve">
<style type="text/css">
	.st0{fill:#FFFFFF;}
	.st1{fill:#5FA440;}
	.st2{fill:#A0C88D;}
	.st3{fill:#D9F1CB;}
	.st4{fill:#B4B0BC;}
	.st5{fill:#F6FAF8;}
	.st6{fill:#EBBF7A;}
	.st7{fill:#487C2D;}
	.st8{fill:#FF0000;}
	.st9{fill:#B2AE18;}
	.st10{fill:#FFFF2E;}
	.st11{fill:#F9E8B9;}
	.st12{font-family:'Roboto-Black';}
	.st13{font-size:12px;}
	.st14{fill:#8E8813;}
	.st15{fill:#CCAA19;}
	.st16{fill:#EDAACF;}
	.st17{fill:#CB336F;}
	.st18{fill:#998014;}
	.st19{fill:#163784;}
	.st20{fill:#C3E1F3;}
	.st21{fill:#3470B0;}
	.st22{fill:#FBFDFA;}
	.st23{fill:#E8E8E8;}
	.st24{fill:#3C3C3C;}
	.st25{fill:#133685;}
	.st26{fill:#112C63;}
	.st27{fill:#E59936;}
	.st28{fill:#E19A39;}
	.st29{fill:#EB5E55;}
	.st30{fill:#8C7752;}
	.st31{fill:#AF732B;}
	.st32{fill:#6772DB;}
	.st33{fill:#4F5CA8;}
	.st34{fill:#D13270;}
	.st35{fill:#DCDCDE;}
	.st36{fill:#CC4D4A;}
	.st37{fill:#25527A;}
	.st38{fill:#773E84;}
	.st39{fill:#773B85;}
	.st40{fill:#4D2756;}
</style>
<path class="st1" d="M453.56,509.09c-0.16,0.26-0.33,0.52-0.5,0.77C453.23,509.61,453.4,509.35,453.56,509.09L453.56,509.09z"/>
<path class="st9" d="M384.48,418.18h-0.1c0.03-0.03,0.06-0.05,0.09-0.07C384.47,418.13,384.47,418.15,384.48,418.18z"/>
<path class="st9" d="M388.34,416.55c-0.19,0.03-0.38,0.05-0.56,0.07c-0.39,0.05-0.78,0.09-1.17,0.17c-0.17,0.04-0.33,0.08-0.49,0.13
	c-0.31,0.1-0.59,0.33-0.99,0.66c-0.13,0.11-0.28,0.23-0.44,0.36h-0.01c-0.03,0.03-0.07,0.06-0.1,0.08
	c-0.03,0.03-0.07,0.06-0.11,0.09v-0.01c-0.11-0.68-0.21-1.36-0.33-2.03c1.6-1.62,2.87-0.46,4.19,0.47
	C388.33,416.55,388.34,416.55,388.34,416.55z"/>
<path class="st9" d="M388.2,441.63c-0.37-2.02-0.74-4.03-1.11-6.05c-0.1,0.02-0.2,0.04-0.3,0.05c-0.1,0.02-0.2,0.03-0.3,0.05
	c-0.04,0.13-0.1,0.27-0.15,0.4c-0.03,0.07-0.05,0.14-0.07,0.21c-0.03,0.1-0.04,0.2-0.02,0.29c0.17,0.66,0.3,1.25,0.23,1.7
	c-0.01,0.08-0.03,0.15-0.05,0.22c-0.02,0.07-0.05,0.13-0.09,0.19c-0.03,0.06-0.07,0.11-0.12,0.16c-0.07,0.06-0.14,0.11-0.23,0.16
	c-0.04,0.02-0.09,0.04-0.14,0.06c-0.09,0.03-0.2,0.05-0.33,0.07c-0.21,0.03-0.46,0.03-0.76,0c-0.13,0-0.27-0.02-0.42-0.04
	c-0.12-0.02-0.24-0.01-0.34,0.02c-0.07,0.02-0.13,0.05-0.18,0.08c-0.07,0.04-0.13,0.09-0.19,0.15c-0.11,0.11-0.21,0.25-0.27,0.42
	c-0.04,0.08-0.06,0.17-0.09,0.26c-0.08,0.28-0.1,0.6-0.04,0.91c0.02,0.12,0.05,0.23,0.09,0.34c0.03,0.12,0.09,0.23,0.15,0.34
	c0.05,0.08,0.1,0.15,0.16,0.22c0.02,0.03,0.04,0.06,0.06,0.08c0.08,0.09,0.15,0.17,0.23,0.26c0.07,0.09,0.13,0.18,0.19,0.27
	c0.12,0.18,0.21,0.35,0.28,0.53c0.04,0.09,0.07,0.18,0.09,0.26c0.04,0.14,0.07,0.27,0.09,0.4c0.01,0.06,0.02,0.13,0.01,0.19
	c0.01,0.1,0.01,0.21,0.01,0.31c-0.01,0.12-0.02,0.24-0.03,0.36c0,0.05-0.01,0.09-0.02,0.14c-0.03,0.14-0.06,0.28-0.09,0.42
	c-0.05,0.17-0.1,0.34-0.16,0.51c-0.06,0.18-0.13,0.35-0.21,0.53c-1.32-0.74-2.63-1.49-3.95-2.23c0.17-0.68,0.35-1.36,0.52-2.05
	l0.04-0.04c0.29-0.4,0.58-0.81,0.87-1.21c0.28-0.41,0.57-0.82,0.86-1.23c0.04-0.17,0.08-0.34,0.12-0.51l-0.06-0.11
	c0.34-1.39,0.73-2.77,0.96-4.18c0.05-0.31-0.5-0.71-0.77-1.08c-0.36,0.41-0.71,0.82-1.06,1.22c-0.26,0.19-0.51,0.38-0.76,0.57
	c-0.49-0.52-1.06-0.98-1.43-1.58c-0.27-0.43-0.26-1.03-0.38-1.55c0.41-0.86,0.81-1.72,1.22-2.58l0.78-1.32
	c0.7-0.6,1.39-1.21,2.09-1.81c2.19-0.52,2.78-1.95,2.14-4.22c-0.37-1.31-0.59-2.66-0.79-4.01c0.19,0,0.38,0.01,0.55,0.02
	c0.39,0.02,0.73,0.05,1.04,0.09c0.85,0.11,1.43,0.32,1.83,0.68c0.05,0.04,0.09,0.09,0.13,0.13c0.52,0.56,0.69,1.44,0.76,2.78
	c0.18,3.38-0.35,6.73,0.24,10.17C389.56,435.11,388.83,438.39,388.2,441.63z"/>
<path class="st9" d="M380.51,488.97c-0.01-0.37-1.71-0.88-2.66-0.94c-1.71-0.1-3.46-0.23-4.89,0.51c-0.23,0.12-0.44,0.26-0.65,0.42
	c-0.05,0.04-0.1,0.08-0.16,0.13c-0.05,0.04-0.1,0.09-0.15,0.14c-0.1,0.09-0.2,0.2-0.29,0.31c-0.2,0.21-0.38,0.46-0.54,0.74
	c-0.16,0.28-0.32,0.59-0.46,0.94c0-0.01,0-0.01-0.01-0.02c-0.08-0.23-0.16-0.44-0.23-0.64c-0.03-0.1-0.07-0.2-0.1-0.3
	c-0.06-0.18-0.13-0.36-0.19-0.53c-0.02-0.08-0.05-0.16-0.08-0.24c-0.03-0.07-0.06-0.14-0.08-0.22c-0.04-0.11-0.08-0.21-0.11-0.3
	c-0.04-0.09-0.07-0.18-0.11-0.26c-0.03-0.05-0.05-0.11-0.07-0.17c-0.04-0.1-0.08-0.19-0.12-0.27c-0.07-0.13-0.14-0.24-0.2-0.34
	c-0.08-0.13-0.16-0.23-0.25-0.31c-0.07-0.06-0.13-0.11-0.2-0.15c-0.23-0.15-0.5-0.22-0.89-0.33c-3.23-0.91-3.8-1.82-3.95-5.25
	c-0.06-1.36-0.74-2.71-1.13-4.05c-1.56,0.99-1.76,2.46-1.45,4.11c0.88,1.61,1.76,3.22,2.64,4.83c0.72,0.58,1.44,1.17,2.16,1.75
	c0.9,0,1.79-0.01,2.69-0.02c-0.05,0.67-0.11,1.34-0.16,2c-0.01,0.44-0.02,0.87-0.04,1.3c0.16,0.42,0.32,0.84,0.48,1.25
	c0.12,0.29,0.25,0.58,0.37,0.86c0.15,0.28,0.31,0.57,0.46,0.85h0.01c1.36,1.29,0.99,2.74,0.39,4.21c-0.71,1.41-1.41,2.82-2.12,4.24
	c-0.1,0.3-0.19,0.6-0.28,0.91c-0.04,0.54-0.08,1.09-0.12,1.63c0.67-0.18,1.34-0.35,2-0.56c0.15-0.05,0.3-0.1,0.44-0.15
	s0.28-0.11,0.41-0.17c0.07-0.03,0.13-0.06,0.2-0.09c0.18-0.09,0.35-0.19,0.5-0.3c0.1-0.07,0.19-0.15,0.27-0.23
	c0.06-0.06,0.11-0.13,0.16-0.2c0.05-0.07,0.09-0.14,0.12-0.22c0.03-0.07,0.06-0.15,0.07-0.24c0.02-0.08,0.03-0.17,0.03-0.26
	c0.01-0.41-0.17-0.92-0.59-1.55c-0.06-0.09-0.08-0.21-0.08-0.34c0-0.17,0.04-0.37,0.08-0.58c0.05-0.21,0.1-0.43,0.12-0.64v-0.01
	c0.05,0.04,0.11,0.08,0.16,0.13h0.01c0.35,0.27,0.67,0.56,0.96,0.81c0.1,0.09,0.19,0.17,0.28,0.24c0.15,0.13,0.29,0.23,0.42,0.3
	c0.07,0.05,0.14,0.08,0.2,0.1c0.07,0.03,0.12,0.04,0.18,0.04c0.03,0,0.06,0,0.09-0.01c1.34-0.4,2.67-1.13,3.74-2.05
	c0.04-0.04,0.08-0.08,0.11-0.13c0.04-0.05,0.07-0.1,0.09-0.16c0.03-0.06,0.06-0.12,0.07-0.19c0-0.01,0-0.01,0-0.01
	c0.03-0.07,0.04-0.15,0.05-0.23c0.02-0.1,0.03-0.21,0.04-0.32s0.01-0.22,0.01-0.34c0.02-0.23,0.01-0.47,0.01-0.69v-0.32
	c0.01-0.38,0.01-0.74,0.04-1.09c0.01-0.1,0.01-0.21,0.03-0.31c0-0.1,0.02-0.2,0.04-0.3c0.05-0.31,0.14-0.6,0.28-0.89
	c0.04-0.09,0.09-0.17,0.15-0.26c0.11-0.18,0.26-0.36,0.43-0.54c0.03-0.05,0.07-0.09,0.11-0.12c0.16-0.15,0.34-0.3,0.54-0.44
	C380.68,492.81,380.59,490.5,380.51,488.97z M375.5,493.83c-0.13,0.61-1.17,1.02-1.81,1.52c-0.25-0.16-0.49-0.33-0.74-0.49
	c0.38-1.32,0.76-2.64,1.14-3.96c0.33,0,0.65,0.01,0.98,0.02C375.24,491.9,375.7,492.93,375.5,493.83z"/>
<path class="st9" d="M445.06,469.78c-0.32,0.15-0.64,0.3-0.97,0.45c-0.16,0.07-0.32,0.15-0.49,0.23c-0.34,0.16-0.68,0.31-1.04,0.48
	c-0.18,0.08-0.36,0.16-0.55,0.25c-0.38,0.17-0.77,0.35-1.19,0.55c0.09-0.84,0.14-1.64,0.26-2.43c0.02-0.12,0.05-0.24,0.08-0.37
	c0.03-0.13,0.06-0.26,0.1-0.39c0.03-0.13,0.07-0.26,0.11-0.39c0.02-0.08,0.05-0.17,0.07-0.25c0.08-0.24,0.14-0.47,0.2-0.69
	c0.04-0.17,0.08-0.34,0.1-0.51c0.01-0.06,0.02-0.12,0.03-0.18c0.03-0.34,0-0.64-0.15-0.85c-0.19-0.28-0.4-0.56-0.64-0.82
	c-0.05-0.06-0.11-0.13-0.17-0.19c-0.06-0.07-0.13-0.13-0.19-0.19c-0.13-0.12-0.26-0.24-0.39-0.34c-0.55-0.43-1.2-0.71-1.95-0.71
	c-0.13,0-0.27,0.01-0.4,0.03c-0.1,0.01-0.2,0.03-0.31,0.06c-0.12,0.02-0.25,0.06-0.37,0.1c-0.13,0.05-0.27,0.1-0.4,0.16
	c0-1.86-0.18-3.59,0.05-5.27c0.34-2.55-1.17-4.45-1.94-6.62c-0.04-0.11-0.08-0.22-0.11-0.34c-0.04-0.15-0.09-0.3-0.13-0.46
	c-0.01-0.04-0.02-0.08-0.04-0.13c-0.04-0.12-0.07-0.24-0.11-0.36c-0.05-0.14-0.1-0.27-0.17-0.39c-0.03-0.05-0.06-0.09-0.09-0.13
	c-0.02-0.03-0.04-0.06-0.06-0.08c-0.05-0.07-0.11-0.12-0.17-0.17c-0.12-0.09-0.23-0.17-0.34-0.26c-0.11-0.09-0.21-0.18-0.3-0.27
	l-0.27-0.27c-0.17-0.18-0.32-0.37-0.46-0.56v-0.01c-0.13-0.19-0.24-0.38-0.35-0.58c-0.1-0.2-0.18-0.4-0.25-0.61
	c-0.07-0.2-0.13-0.41-0.18-0.62v-0.01c-0.04-0.21-0.07-0.42-0.1-0.63c-0.2-1.83,0.29-3.8,0.19-5.64c0-0.04,0-0.08,0.02-0.12
	c0-0.02,0.01-0.05,0.02-0.08c0.05-0.13,0.15-0.26,0.28-0.4c0.03-0.04,0.07-0.07,0.11-0.11c0.32-0.3,0.76-0.59,1.11-0.71
	c0.14-0.05,0.3-0.08,0.45-0.1c0.19-0.02,0.4-0.03,0.6-0.02c0.1,0,0.2,0,0.31,0.01c0.1,0.01,0.2,0.02,0.31,0.02
	c0.25,0.01,0.5,0.03,0.74,0.03h0.01c0.1-0.26,0.21-0.52,0.32-0.78c-0.34-0.22-0.68-0.53-1.03-0.79c-0.09-0.07-0.17-0.13-0.26-0.18
	c-0.17-0.12-0.34-0.2-0.51-0.25c-0.08-0.03-0.16-0.04-0.24-0.04h-0.04c-0.91,0.03-1.5-0.16-1.87-0.57c-0.09-0.1-0.16-0.21-0.23-0.33
	c-0.04-0.06-0.06-0.12-0.09-0.19c-0.05-0.14-0.09-0.28-0.13-0.44c-0.02-0.08-0.04-0.16-0.05-0.25c-0.03-0.17-0.05-0.35-0.06-0.55
	v-0.01c-0.02-0.39-0.06-0.77-0.1-1.16c-0.04-0.39-0.09-0.77-0.14-1.16c-0.07-0.52-0.14-1.04-0.21-1.55
	c-0.05-0.39-0.1-0.78-0.13-1.16c-0.04-0.39-0.07-0.77-0.09-1.16c-0.1-2.2,0.72-2.67,2.83-2.42c1.85,0.21,3.73,0.04,6.15,0.04
	c-0.17-1.88-0.31-3.42-0.44-4.96c0.43,0.13,1.18,0.34,1.93,0.56c0.01,0.42,0.01,0.85,0.02,1.27c-0.27,0.6-0.72,1.18-0.77,1.8
	c-0.24,2.55-1.53,3.49-4.01,3.17c-1.21-0.15-3.28-0.11-3.59,0.51c-0.65,1.32-0.4,3.09-0.51,4.67c0.04,0.26,0.09,0.51,0.14,0.77
	c-0.37,1.42,0.63,1.72,1.64,2.13c1.27,0.52,2.48,1.17,3.71,1.77c0,0.55,0,1.11-0.01,1.66c-0.11,0.16-0.22,0.32-0.33,0.48
	c-0.86,0.17-1.94,0.76-2.54,0.44c-2.09-1.12-2.33,0.16-2.57,1.65c0.01,0.77-0.11,1.57,0.05,2.3c0.96,4.6,3.96,8.18,6.15,12.16
	c0.01,0.23,0.01,0.47,0.02,0.7c-0.09,0.46-0.17,0.91-0.26,1.37c-0.14,0.55-0.29,1.11-0.44,1.66c-0.07,1.7,1.12,2.36,2.42,2.92
	c2.1,0.89,4.05,1.89,3.99,4.65C444.79,468.34,444.92,469.06,445.06,469.78z"/>
<path class="st9" d="M380.99,462.47c0.05,0.6-0.02,1.32-0.19,2.19c-0.21,1.06-0.59,1.77-1.19,2.21c-0.14,0.11-0.3,0.2-0.47,0.28
	c-0.17,0.08-0.35,0.14-0.55,0.19c-0.02,0.01-0.05,0.01-0.08,0.02c-0.02,0-0.04,0.01-0.06,0.01c-0.07,0.02-0.14,0.03-0.22,0.04
	c-0.09,0.02-0.19,0.03-0.29,0.04c-0.08,0.01-0.17,0.02-0.26,0.02c-0.08,0.01-0.17,0.01-0.26,0.01c-0.09,0.01-0.19,0.01-0.28,0.01
	c-0.09,0-0.18-0.01-0.28-0.01c-0.48-0.01-0.95-0.01-1.43,0.01c-0.32,0.01-0.64,0.03-0.96,0.05c-0.52,0.03-1.04,0.07-1.56,0.11
	c-0.41,0.03-0.83,0.07-1.24,0.1c-0.26,0.03-0.51,0.05-0.76,0.06c-0.25,0.02-0.5,0.03-0.75,0.05c-0.15,0.01-0.31,0.02-0.46,0.01
	c-0.05,0.01-0.1,0-0.15-0.01c-0.07,0.01-0.13,0-0.2-0.01c-0.12-0.02-0.25-0.04-0.36-0.09c-1.57-0.62-3.46,0-3.85,1.52
	c-0.36,1.44-0.44,2.97-0.49,4.47c-0.04,1.09-0.03,2.03-1.51,1.91c-0.09,0.05-0.16,0.08-0.26,0.1c-0.18-1.75-0.25-3.52-0.56-5.25
	c-0.27-1.47-0.31-2.75,1.08-3.67c0.44-0.22,0.89-0.43,1.33-0.65c0.26-0.07,0.53-0.15,0.79-0.22c0.27-0.01,0.54-0.01,0.81-0.02
	c0.61-0.18,1.23-0.37,1.84-0.55c0.62,0.01,1.24,0.02,1.86,0.03c0.74,0.25,1.48,0.5,2.22,0.75c0.57-0.07,1.15-0.13,1.72-0.2
	c0.44-0.25,0.88-0.5,1.33-0.76c2.13-1.69,1.96-4.15,1.99-6.46c0-0.58-0.81-1.17-1.24-1.75c-0.37-1.51-0.41-2.71,1.76-2.54
	c0.51,0.04,1.06-0.5,1.6-0.78c0-0.01,0.01-0.01,0.01-0.01c0.01,0.04,0.01,0.09,0.02,0.14c0.01,0.06,0.02,0.12,0.04,0.18
	c0.02,0.08,0.03,0.15,0.05,0.22c0.07,0.33,0.13,0.65,0.07,0.68c-2.47,1.14-1.27,3.13-1.3,4.83c0.59,0.16,1.08,0.35,1.47,0.6
	c0.05,0.03,0.1,0.07,0.15,0.1c0.1,0.07,0.19,0.14,0.27,0.22c0.06,0.05,0.12,0.11,0.18,0.18c0.06,0.06,0.11,0.12,0.15,0.19
	c0.05,0.07,0.09,0.14,0.13,0.21c0.08,0.15,0.15,0.3,0.2,0.47c0.03,0.08,0.05,0.16,0.07,0.25c0.02,0.11,0.04,0.22,0.05,0.34
	C380.98,462.35,380.99,462.41,380.99,462.47z"/>
<path class="st9" d="M412.41,398.55c-0.1,0.19-0.22,0.37-0.37,0.55c-0.08,0.1-0.16,0.19-0.25,0.28c-0.09,0.1-0.18,0.18-0.28,0.27
	c-0.08,0.07-0.15,0.14-0.21,0.22c-0.05,0.06-0.09,0.12-0.13,0.19c-0.05,0.07-0.09,0.14-0.12,0.21c-0.04,0.07-0.07,0.15-0.11,0.22
	c-0.03,0.07-0.05,0.15-0.08,0.22c-0.78,2.36-1.35,4.8-2.32,7.07c-0.61,1.43-1.85,2.56-2.69,3.9c-0.07,0.12-0.15,0.24-0.22,0.36
	c-0.14,0.24-0.29,0.48-0.42,0.73c-0.14,0.25-0.26,0.51-0.37,0.77c-0.06,0.12-0.11,0.25-0.16,0.39c-0.1,0.26-0.18,0.52-0.24,0.79
	c-0.03,0.11-0.05,0.21-0.09,0.31c-0.03,0.11-0.06,0.21-0.1,0.31c-0.03,0.09-0.06,0.17-0.1,0.24c-0.03,0.08-0.07,0.15-0.12,0.22
	c-0.04,0.08-0.09,0.14-0.14,0.2c-0.06,0.07-0.13,0.14-0.21,0.2c-0.08,0.07-0.18,0.12-0.28,0.16c-0.06,0.02-0.12,0.04-0.19,0.05
	c-0.19,0.05-0.42,0.06-0.68,0.02c-0.13-0.02-0.27-0.04-0.41-0.08c-0.94-0.25-1.89-0.6-2.85-0.63c-0.67-0.02-1.63,0.23-1.96,0.71
	c-1.95,2.8-6.33,2.5-8.55,0.11c0.42-0.18,0.85-0.36,1.27-0.54c0.15-0.12,0.31-0.24,0.46-0.36l-0.01,0.02
	c0.42-0.04,1.02,0.08,1.23-0.15c1.7-1.9,3.6-1.26,5.69-0.82c3.52,0.75,5.5-0.52,6.87-3.87c0.28-0.69,0.48-1.68,1.01-1.94
	c2.72-1.33,3.1-4.07,4.14-6.41c0.17-1.12,0.34-2.23,0.5-3.35c0.38-0.61,0.81-1.2,1.13-1.83c0.33-0.66,0.56-1.36,0.84-2.03
	C412.7,396.41,412.95,397.51,412.41,398.55z"/>
<path class="st9" d="M426.2,384.99c0.05,0.22,0,0.52-0.15,0.9c-0.46,1.1-0.83,2.24-1.3,3.33c-0.18,0.42-0.4,0.73-0.65,0.97
	c-0.22,0.21-0.46,0.35-0.71,0.43c-0.41,0.15-0.83,0.14-1.19,0.02c-0.13-0.16-0.24-0.31-0.36-0.45c-0.04-0.04-0.07-0.07-0.09-0.11
	c-0.42-0.53-0.78-0.98-1.12-1.4c-0.18-0.23-0.35-0.44-0.52-0.65c-0.09-0.11-0.18-0.21-0.26-0.32c-0.16,0.15-0.34,0.28-0.51,0.41
	c-0.35,0.27-0.72,0.52-1.09,0.78c-0.55,0.39-1.09,0.79-1.51,1.24c-0.07,0.08-0.14,0.15-0.2,0.23c-0.2,0.23-0.36,0.47-0.48,0.74
	c-0.03,0.06-0.05,0.11-0.06,0.16v0.01c-0.04,0.1-0.06,0.19-0.07,0.27c-0.01,0.04-0.01,0.08-0.01,0.12c0,0.07,0.01,0.13,0.03,0.19
	c0.01,0.04,0.02,0.08,0.05,0.11c0.01,0.03,0.03,0.06,0.05,0.08c0.02,0.03,0.06,0.06,0.09,0.09c0.09,0.08,0.21,0.14,0.34,0.19
	c0.14,0.05,0.28,0.1,0.44,0.14c0.08,0.03,0.15,0.05,0.23,0.07c0.16,0.05,0.32,0.1,0.48,0.16c0.15,0.06,0.3,0.14,0.44,0.23
	c0.06,0.05,0.13,0.1,0.18,0.16c0.03,0.03,0.06,0.05,0.08,0.09c0.03,0.03,0.06,0.06,0.08,0.1c0.1,0.14,0.17,0.32,0.21,0.52
	c-0.09,0.06-0.19,0.16-0.3,0.26c-0.27,0.25-0.6,0.56-0.94,0.67c-0.07,0.02-0.14,0.04-0.21,0.04c-0.14,0.01-0.29-0.03-0.44-0.1
	c-0.07-0.03-0.14-0.07-0.21-0.12c-0.07-0.04-0.14-0.08-0.21-0.14c-0.12-0.09-0.24-0.19-0.36-0.28c-0.16-0.12-0.31-0.25-0.46-0.36
	c-0.61-0.45-1.19-0.95-1.79-1.44l-0.14-0.14c0.2-0.64,0.4-1.28,0.6-1.93c1.66-1.74,3.36-3.45,4.94-5.26
	c0.42-0.47,0.49-1.24,0.72-1.88c0.1-0.6,0.19-1.19,0.28-1.79c0.93,0.18,1.87,0.36,3.2,0.61c-0.29,0.42-0.52,0.77-0.75,1.12
	c-0.23,0.34-0.46,0.68-0.74,1.1c1.12,0.05,2.1,0.09,3.09,0.14c0.1,0,0.19,0.01,0.28,0.02c0.36,0.05,0.65,0.14,0.83,0.31
	c0.07,0.06,0.12,0.14,0.15,0.23C426.18,384.9,426.19,384.94,426.2,384.99z"/>
<path class="st9" d="M450.45,485c-0.23,0.25-0.47,0.5-0.7,0.75c0.23,0.19,0.45,0.38,0.68,0.58c0.01,0.13,0.03,0.26,0.05,0.39
	c0.03,1.27,0.05,2.55,0.08,3.82c-1.22-1.61-1.35-1.64-3.89-0.36c-0.28-0.81-0.58-1.59-0.84-2.36c-0.1-0.31-0.19-0.61-0.28-0.92
	c-0.04-0.16-0.08-0.31-0.11-0.47c-0.05-0.25-0.08-0.45-0.08-0.63c0-0.1,0.01-0.2,0.03-0.28c0.01-0.07,0.03-0.13,0.06-0.19
	c0.03-0.08,0.08-0.14,0.12-0.19c0.05-0.05,0.1-0.09,0.16-0.12c0.04-0.03,0.08-0.05,0.13-0.06c0.03-0.02,0.06-0.03,0.1-0.04
	c0.05-0.02,0.11-0.03,0.16-0.04c0.22-0.05,0.47-0.06,0.72-0.07c0.09-0.01,0.17-0.01,0.26-0.02c0.06-0.01,0.13-0.02,0.19-0.03
	c0.12-0.01,0.25-0.04,0.37-0.08c0.06-0.01,0.12-0.04,0.18-0.06c0.07-0.03,0.14-0.07,0.21-0.12c0.07-0.04,0.14-0.1,0.2-0.16
	c0.05-0.06,0.11-0.12,0.16-0.2c-0.32-0.42-0.64-0.84-0.98-1.29c-0.34-0.45-0.7-0.91-1.08-1.41c-0.24-0.33-0.51-0.68-0.79-1.04
	c0.01-0.02,0.04-0.1,0.09-0.2c0.01-0.03,0.03-0.08,0.05-0.12c0.02-0.04,0.04-0.08,0.07-0.12c0.04-0.08,0.09-0.16,0.15-0.24
	c0.03-0.06,0.07-0.12,0.12-0.17c0.15-0.17,0.28-0.33,0.39-0.49c0.12-0.17,0.22-0.34,0.29-0.51c0.11-0.22,0.18-0.44,0.21-0.65
	c0.03-0.29,0-0.56-0.11-0.83c-0.09-0.21-0.21-0.41-0.39-0.61c-0.07-0.08-0.14-0.16-0.23-0.24c-0.17-0.15-0.36-0.31-0.59-0.47h-0.01
	c-0.13-0.1-0.25-0.2-0.36-0.29c-0.11-0.09-0.21-0.2-0.29-0.31c-0.12-0.14-0.2-0.29-0.27-0.44c-0.05-0.1-0.08-0.2-0.1-0.31
	c-0.01-0.02-0.01-0.05-0.01-0.08c-0.03-0.1-0.04-0.2-0.04-0.3c0-0.62,0.34-1.24,1-1.75c0.27-0.01,0.55-0.02,0.82-0.03
	c0.07,0.06,0.16,0.1,0.25,0.13c0.15,0.42,0.31,0.84,0.46,1.27c0.31,0.54,0.62,1.08,0.92,1.62c0.12,0.82,0.56,1.75,0.31,2.43
	c-0.8,2.15,0.42,2.54,2.05,2.8c0.73,0.11,1.44,0.35,2.66,0.65c-0.58,0.83-1.03,1.46-1.45,2.11c-0.37,0.58-0.69,1.19-1.04,1.79
	L450.45,485z"/>
<path class="st9" d="M440.76,363.54v0.01h-0.01c-0.01,0.01-0.02,0.02-0.03,0.04c-0.01,0.01-0.03,0.03-0.03,0.04
	c-0.02,0.02-0.05,0.05-0.08,0.08c-0.05,0.06-0.1,0.12-0.14,0.18c-0.05,0.06-0.1,0.12-0.14,0.18c-0.07,0.09-0.14,0.18-0.22,0.26
	c-0.04,0.05-0.08,0.1-0.13,0.14c-0.13,0.14-0.28,0.24-0.44,0.3c-0.64,0.22-1.47-0.13-2.07,0.12c-0.56,0.25-1.23,0.94-1.28,1.48
	c-0.01,0.12,0,0.25,0.02,0.4c0,0.05,0.01,0.1,0.02,0.16c0.02,0.15,0.06,0.32,0.11,0.48c0.01,0.06,0.03,0.11,0.05,0.16
	c0.06,0.21,0.15,0.4,0.23,0.55c0.04,0.08,0.09,0.14,0.13,0.2c0.04,0.04,0.07,0.06,0.1,0.09c0.03,0.02,0.06,0.03,0.09,0.04h0.01
	c1.64,0.18,3.31,1.14,5-0.26c0.1-0.09,0.2-0.16,0.31-0.22c0.08-0.05,0.15-0.09,0.23-0.12c0.15-0.06,0.29-0.11,0.43-0.13
	c0.14-0.02,0.28-0.03,0.41-0.01c0.06,0.01,0.12,0.02,0.17,0.03c0.11,0.02,0.22,0.06,0.33,0.12c0.11,0.05,0.21,0.11,0.31,0.19
	c0.05,0.04,0.1,0.08,0.15,0.12l0.14,0.14c0.04,0.03,0.08,0.07,0.11,0.12c0.04,0.04,0.07,0.09,0.11,0.13
	c0.06,0.09,0.13,0.19,0.19,0.29c0.07,0.1,0.13,0.21,0.18,0.32c0.11,0.23,0.21,0.46,0.3,0.73c0.16,0.45,0.33,0.98,0.59,1.7
	c0.54-0.82,1.09-1.29,1.14-1.81c0.12-1.04,0.2-2.08,0.27-3.13c0.03-0.52,0.07-1.05,0.1-1.57c0.03-0.52,0.07-1.05,0.1-1.57
	C445.27,363.53,443.02,363.54,440.76,363.54z M443.16,366.64c-0.28-0.3-0.62-0.54-0.58-0.64c0.1-0.26,0.36-0.45,0.56-0.67
	c0.17,0.19,0.45,0.36,0.47,0.56C443.63,366.08,443.38,366.3,443.16,366.64z"/>
<path class="st9" d="M419.47,373.44c0.09,0.24,0.19,0.5,0.3,0.79c-0.3-0.2-0.57-0.4-0.82-0.58c-0.25-0.19-0.48-0.37-0.7-0.53
	c-0.21-0.16-0.42-0.29-0.62-0.39c-0.1-0.05-0.2-0.09-0.3-0.13c-0.1-0.03-0.2-0.06-0.3-0.07c-0.16-0.02-0.32-0.01-0.49,0.02
	c-0.11,0.01-0.23,0.03-0.34,0.06c-0.61,0.16-1.23,0.49-1.77,0.66c0.05,0.18,0.1,0.35,0.14,0.51c0.14,0.49,0.27,0.92,0.39,1.33
	c0.05,0.18,0.1,0.36,0.15,0.54c-0.47-0.24-0.95-0.48-1.42-0.72c-0.12-0.12-0.23-0.23-0.35-0.35c-0.57-1.18-0.32-1.87,0.88-2.68
	c1.99-1.35,4.39-2.52,4.66-5.43c0.82-1.06,1.64-1.21,2.44,0.02c-0.68,1.76-1.35,3.51-2.03,5.27h-0.01c-0.17-0.04-0.33-0.08-0.5-0.12
	v0.01c0.03,0.08,0.06,0.17,0.1,0.26c0.11,0.27,0.22,0.55,0.33,0.86C419.29,372.98,419.38,373.2,419.47,373.44z"/>
<path class="st9" d="M411.14,416.64v0.19c0,0.24-0.01,0.48-0.02,0.71c-0.01,0.3-0.03,0.59-0.06,0.88c-0.01,0.18-0.19,0.37-0.42,0.54
	c-0.11,0.08-0.24,0.16-0.37,0.24c-0.13,0.07-0.26,0.13-0.37,0.18c-0.12,0.05-0.25,0.09-0.39,0.11c-0.2,0.05-0.41,0.07-0.62,0.09
	c-0.21,0.02-0.42,0.04-0.62,0.08c-0.87,0.17-2.33,0.75-2.51,0.47h-0.01c-0.08-0.11-0.15-0.23-0.21-0.36
	c-0.46-0.88-0.63-1.94-0.94-2.95c0.25-0.05,0.5-0.11,0.77-0.19c0.27-0.06,0.55-0.15,0.84-0.25c0.14-0.05,0.28-0.1,0.42-0.15
	c0.15-0.05,0.29-0.1,0.44-0.16c0.43-0.17,0.86-0.35,1.28-0.55c0.28-0.13,0.55-0.26,0.82-0.4c0.23-0.12,0.46-0.24,0.67-0.37
	c0.38-0.22,0.73-0.44,1.01-0.66c0.09-0.07,0.18-0.14,0.26-0.21v-0.01h0.01c0,0.45,0.01,0.88,0.01,1.3
	C411.13,415.68,411.14,416.16,411.14,416.64z"/>
<path class="st9" d="M444.15,416.46c-1.78-0.38-2.82-1.63-2.9-3.28c-0.02-0.37-0.04-0.73-0.06-1.08c-0.04-0.43-0.09-0.85-0.19-1.24
	c-0.09-0.34-0.21-0.65-0.4-0.94c-0.06-0.09-0.11-0.17-0.18-0.24c-0.07-0.09-0.14-0.16-0.22-0.24c-0.32-0.3-0.75-0.54-1.32-0.72
	c-0.01,0-0.03-0.01-0.04-0.03c-0.08-0.09-0.1-0.39-0.2-0.71c1.16-0.58,2.33-1.15,3.49-1.72
	C442.8,409.66,443.48,413.06,444.15,416.46z"/>
<path class="st9" d="M452.22,392.77c-0.16,0.34-0.31,0.69-0.47,1.04c-0.3,0.06-0.59,0.12-0.89,0.18c-0.34,0.48-0.68,0.96-1.03,1.43
	l-0.08,0.07c-3.17,0.14-4.2,0.99-4.34,3.62h-0.01c-0.99-0.66-1.21-1.42-1.12-2.22c0.02-0.2,0.06-0.41,0.12-0.62
	c0.05-0.21,0.12-0.41,0.19-0.62c0.07-0.21,0.14-0.42,0.21-0.62c0.04-0.11,0.07-0.21,0.1-0.31c0.03-0.1,0.06-0.18,0.1-0.26
	c0.03-0.08,0.07-0.16,0.12-0.22c0.04-0.07,0.09-0.12,0.14-0.17c0.09-0.1,0.2-0.16,0.32-0.21c0.07-0.03,0.14-0.05,0.21-0.06
	c0.04-0.01,0.08-0.01,0.12-0.01c0.46-0.06,1,0.06,1.53,0.04c1.05-0.06,2.01-1.1,3.03-1.66c0.5-0.27,1.04-0.46,1.56-0.68h0.01
	C452.1,391.91,452.16,392.34,452.22,392.77z"/>
<path class="st9" d="M453.93,502.36c-0.09,0.14-0.18,0.29-0.27,0.44c-0.33-0.08-0.62-0.16-0.88-0.25c-0.13-0.04-0.24-0.08-0.35-0.13
	c-0.11-0.04-0.21-0.09-0.3-0.14c-0.13-0.07-0.23-0.14-0.33-0.22c-0.62-0.5-0.64-1.27-0.36-2.78c0.13-0.71,0.21-1.14,0.15-1.39
	c-0.01-0.04-0.02-0.08-0.04-0.11c-0.03-0.05-0.06-0.1-0.11-0.13c-0.04-0.03-0.09-0.05-0.14-0.07c-0.06-0.02-0.12-0.04-0.2-0.05
	c-0.05-0.01-0.12-0.01-0.18-0.02c-0.05,0-0.1-0.01-0.16-0.01c-0.17,0-0.37-0.01-0.6-0.01v-0.01c-0.15-0.53-0.28-1.05-0.42-1.56
	s-0.28-1-0.45-1.49c-0.33-0.95-0.62-1.86-0.06-2.48c0.05-0.06,0.12-0.13,0.2-0.18c0.08-0.07,0.18-0.13,0.3-0.18
	c0.08-0.04,0.16-0.07,0.25-0.1c0.12-0.05,0.26-0.08,0.41-0.12c-0.07,2.62,1.18,4.74,2.54,6.83c0.05,0.12,0.11,0.23,0.18,0.34
	c0.11,0.71,0.22,1.43,0.33,2.14c0.11,0.3,0.22,0.6,0.33,0.9C453.82,501.84,453.88,502.1,453.93,502.36z"/>
<path class="st9" d="M453.29,360.78c0.09,0.46-0.87,1.39-1.54,1.67c-2.24,0.93-1.6,2.8-1.67,4.46c-0.33-0.36-0.69-0.71-0.98-1.08
	c-0.05-0.07-0.11-0.13-0.16-0.2c-0.05-0.06-0.09-0.12-0.13-0.18c-0.05-0.07-0.09-0.15-0.13-0.23c-0.04-0.07-0.09-0.15-0.13-0.23
	c-0.24-0.48-0.44-0.99-0.67-1.48c1.16-1.51,2.33-3.02,3.75-4.87C452.26,359.39,453.14,360.02,453.29,360.78z"/>
<path class="st9" d="M450.64,372.27c-0.03,0.13-0.05,0.25-0.04,0.37c0.03,0.36,0.05,0.72,0.09,1.08c0.04,0.36,0.08,0.72,0.12,1.08
	c0.27,2.16,0.67,4.3,0.99,6.46v0.01c-0.32-0.01-0.59-0.05-0.81-0.14c-0.09-0.03-0.18-0.07-0.25-0.13c-0.04-0.02-0.07-0.04-0.1-0.06
	c-0.06-0.04-0.11-0.09-0.15-0.14c-0.02-0.01-0.03-0.03-0.05-0.05c-0.06-0.07-0.12-0.15-0.16-0.24c-0.05-0.09-0.08-0.18-0.11-0.28
	c-0.08-0.29-0.11-0.63-0.09-1.03c0.04-0.75,0.03-1.5,0.01-2.24c-0.01-0.38-0.02-0.75-0.02-1.13c-0.41-1-0.83-1.99-1.24-2.98
	c0.42-0.97,0.83-1.95,1.25-2.92c1.1-0.3,2.21-0.61,3.32-0.92c0.05,0.05,0.11,0.1,0.16,0.15c-0.49,0.33-1.1,0.57-1.46,1.01
	c-0.18,0.23-0.4,0.48-0.61,0.73c-0.07,0.08-0.13,0.16-0.19,0.24c-0.04,0.04-0.08,0.09-0.11,0.13c-0.1,0.13-0.19,0.26-0.27,0.39
	c0,0.01,0,0.01-0.01,0.01c-0.06,0.1-0.11,0.2-0.16,0.3c-0.02,0.05-0.05,0.1-0.06,0.15C450.67,372.17,450.65,372.22,450.64,372.27z"
	/>
<path class="st9" d="M388.32,446.92c-0.01,0.07-0.02,0.14-0.04,0.2c-0.01,0.08-0.03,0.15-0.05,0.21s-0.05,0.12-0.08,0.18
	c-0.03,0.07-0.07,0.14-0.11,0.2c-0.03,0.06-0.07,0.11-0.12,0.16c-0.05,0.06-0.1,0.12-0.16,0.17c-0.09,0.08-0.2,0.16-0.32,0.24
	c-0.24,0.15-0.55,0.28-0.92,0.38c-0.07-0.23-0.16-0.45-0.25-0.67c-0.49-1.24-1.03-2.38,0.29-3.41c0.29-0.22,1.61,0.23,1.64,0.47
	C388.28,445.66,388.41,446.32,388.32,446.92z"/>
<path class="st9" d="M384.07,448.36c-0.01,0.08-0.03,0.16-0.06,0.23c-0.02,0.07-0.05,0.14-0.09,0.2c-0.03,0.04-0.05,0.09-0.08,0.13
	c-0.03,0.04-0.06,0.08-0.1,0.11c-0.27,0.29-0.71,0.47-1.4,0.51c-0.84,0.05-1.65,0.78-2.48,1.2c-0.25-1.83,0.34-2.78,2.38-2.62
	c0.6,0.05,1.23-0.51,1.85-0.79C384.13,447.72,384.13,448.06,384.07,448.36z"/>
<path class="st9" d="M368.37,481.58c-0.01,0.06-0.02,0.11-0.05,0.17c-0.05,0.11-0.13,0.22-0.24,0.32c-0.1,0.11-0.23,0.21-0.36,0.32
	c-0.07,0.05-0.13,0.1-0.2,0.16c-0.13,0.1-0.25,0.21-0.36,0.31c-0.35-0.43-0.68-0.84-1.21-1.49c0.32-0.29,0.58-0.53,0.83-0.74
	c0.25-0.22,0.47-0.41,0.7-0.61c0.12,0.19,0.28,0.38,0.42,0.57c0.1,0.13,0.19,0.25,0.27,0.38c0.08,0.13,0.14,0.25,0.17,0.37
	C368.37,481.42,368.38,481.5,368.37,481.58z"/>
<path class="st9" d="M450.07,375.83c-0.76-0.17-1.53-0.33-2.29-0.5c0.35-0.83,0.7-1.66,1.05-2.48
	C449.24,373.84,449.66,374.83,450.07,375.83z"/>
<path class="st9" d="M452.22,388.51c-0.15-0.69-0.32-1.4-0.47-2.1c0-0.71,0.01-1.41,0.01-2.12c0.15-0.42,0.3-0.84,0.45-1.27
	C452.21,384.85,452.22,386.68,452.22,388.51z"/>
<path class="st9" d="M453.4,369.01c-1.11,0.31-2.22,0.62-3.32,0.92v-3C451.18,367.62,452.29,368.32,453.4,369.01z"/>
<path class="st9" d="M445.4,400.38c-0.98,1.42-1.97,2.85-2.95,4.28c0.04-0.15,0.08-0.31,0.12-0.46c0.04-0.16,0.08-0.31,0.13-0.46
	c0.04-0.15,0.09-0.3,0.14-0.44c0.05-0.15,0.1-0.29,0.16-0.44c0.05-0.14,0.11-0.28,0.18-0.41c0.06-0.14,0.13-0.27,0.21-0.4
	c0.15-0.26,0.32-0.5,0.54-0.72c0.11-0.11,0.22-0.22,0.35-0.33c0.07-0.06,0.15-0.12,0.24-0.17c0.07-0.06,0.15-0.1,0.23-0.14
	c0.09-0.06,0.19-0.11,0.29-0.16C445.15,400.47,445.27,400.42,445.4,400.38z"/>
<path class="st9" d="M419.99,378.13c-0.01,0.66-0.02,1.31-0.03,1.96c-0.31-0.19-0.62-0.37-0.94-0.56c-0.06-0.11-0.14-0.22-0.24-0.31
	c-0.15-0.23-0.3-0.45-0.45-0.68c0.03-0.12,0.08-0.23,0.16-0.32C418.99,378.19,419.49,378.16,419.99,378.13z"/>
<path class="st9" d="M448.88,378.71l-0.01,0.01c-0.14,0.29-0.28,0.59-0.43,0.89c-0.6-0.26-1.2-0.53-1.8-0.8
	c0.1-0.27,0.21-0.53,0.32-0.81C447.6,378.24,448.24,378.48,448.88,378.71z"/>
<path class="st9" d="M413.7,392.33v0.01c0.02,0.2,0.01,0.39-0.01,0.56c-0.02,0.11-0.04,0.2-0.07,0.3c-0.05,0.17-0.13,0.32-0.24,0.44
	c-0.12,0.13-0.28,0.23-0.47,0.3c-0.07,0.03-0.15,0.05-0.23,0.06c-0.18,0.04-0.39,0.05-0.62,0.03c0.08-0.46,0.16-0.91,0.24-1.37
	c0.04-0.11,0.1-0.21,0.16-0.31c0.37-0.05,0.74-0.11,1.1-0.16L413.7,392.33z"/>
<path class="st9" d="M417.09,377.52l-0.01-0.01c-0.61-0.63-1.22-1.27-1.82-1.9h-0.01v-0.01c0.12-0.03,0.24-0.06,0.35-0.07
	c0,0,0.01,0,0.02,0c0.18-0.03,0.35-0.03,0.49-0.01c0.06,0,0.12,0.02,0.17,0.04c0.05,0.01,0.09,0.03,0.14,0.05
	c0.09,0.04,0.16,0.1,0.23,0.17c0.04,0.05,0.08,0.1,0.11,0.16c0.04,0.05,0.07,0.11,0.09,0.18c0.08,0.19,0.12,0.4,0.15,0.63
	c0.01,0.08,0.02,0.15,0.03,0.23c-0.01,0.01,0,0.03,0,0.04c0.02,0.08,0.02,0.17,0.03,0.25C417.07,377.36,417.08,377.44,417.09,377.52
	z"/>
<path class="st9" d="M451.76,384.29c0,0.71-0.01,1.41-0.01,2.12c-0.08-0.05-0.16-0.09-0.24-0.13c-0.14-0.09-0.27-0.18-0.37-0.27
	c-0.32-0.26-0.45-0.52-0.38-0.79c0-0.03,0.01-0.06,0.03-0.1c0.03-0.09,0.09-0.18,0.17-0.26c0.05-0.06,0.11-0.11,0.18-0.17
	c0.1-0.09,0.23-0.17,0.37-0.27C451.59,384.38,451.67,384.33,451.76,384.29L451.76,384.29z"/>
<path class="st1" d="M436.13,361.81c0.43,0.29,0.86,0.58,1.29,0.87C436.99,362.4,436.56,362.1,436.13,361.81z"/>
<path class="st9" d="M439.76,403.23c-0.03,0.06-0.05,0.13-0.07,0.2c-0.01,0.04-0.02,0.07-0.04,0.09c-0.01,0.02-0.03,0.04-0.05,0.05
	c-0.08,0.03-0.22-0.09-0.34-0.14c0.05-0.12,0.07-0.3,0.16-0.33C439.5,403.07,439.65,403.18,439.76,403.23z"/>
<path class="st10" d="M441.43,419.73c-0.05,0.12-0.1,0.23-0.15,0.35c-0.12-0.05-0.3-0.07-0.34-0.16c-0.01-0.04,0-0.09,0.04-0.15
	c0.03-0.06,0.07-0.13,0.1-0.19C441.19,419.63,441.31,419.68,441.43,419.73z"/>
<path class="st9" d="M455.65,514.62c-0.22-0.68-0.44-1.37-0.66-2.05c-0.09-0.3-0.18-0.58-0.27-0.88l-0.11,0.06
	c-0.04-0.15-0.09-0.31-0.13-0.45c-0.05-0.15-0.09-0.31-0.13-0.46v-0.01c-0.07-0.53-0.13-1.07-0.18-1.61
	c-0.21-0.05-0.39-0.09-0.6-0.13c-0.17,0.26-0.34,0.52-0.51,0.77c0.17-0.25,0.34-0.51,0.5-0.77h0.01c0.11-0.55,0.22-1.09,0.33-1.64
	c-0.07-1.55-0.16-3.1-0.24-4.65c-0.33-0.08-0.62-0.16-0.88-0.25c-0.13-0.04-0.24-0.08-0.35-0.13c-0.11-0.04-0.21-0.09-0.3-0.14
	c-0.13-0.07-0.23-0.14-0.33-0.22c-0.62-0.5-0.64-1.27-0.36-2.78c0.13-0.71,0.21-1.14,0.15-1.39c-0.01-0.04-0.02-0.08-0.04-0.11
	c-0.03-0.05-0.06-0.1-0.11-0.13c-0.04-0.03-0.09-0.05-0.14-0.07c-0.06-0.02-0.12-0.04-0.2-0.05c-0.05-0.01-0.12-0.01-0.18-0.02
	c-0.05,0-0.1-0.01-0.16-0.01c-0.17,0-0.37-0.01-0.6-0.01v-0.01c-0.15-0.54-0.29-1.05-0.42-1.56c-0.14-0.5-0.29-1-0.45-1.49
	c-0.33-0.95-0.62-1.86-0.06-2.48c0.05-0.06,0.12-0.13,0.2-0.18c0.08-0.07,0.18-0.13,0.3-0.18c0.08-0.04,0.16-0.07,0.25-0.1
	c0.12-0.05,0.26-0.08,0.41-0.12h0.01c0.05-0.28,0.1-0.55,0.16-0.83c-1.22-1.61-1.35-1.64-3.89-0.36c-0.28-0.81-0.58-1.59-0.84-2.36
	c-0.1-0.31-0.2-0.61-0.28-0.92c-0.04-0.16-0.08-0.31-0.11-0.47c-0.05-0.25-0.08-0.45-0.08-0.63c0-0.1,0.01-0.2,0.03-0.28
	c0.01-0.07,0.03-0.14,0.06-0.19c0.03-0.08,0.08-0.14,0.12-0.19c0.05-0.05,0.1-0.09,0.16-0.12c0.04-0.03,0.08-0.05,0.13-0.06
	c0.03-0.02,0.06-0.03,0.1-0.04c0.05-0.02,0.11-0.03,0.16-0.04c0.22-0.05,0.47-0.06,0.72-0.07c0.09-0.01,0.17-0.01,0.26-0.02
	c0.06-0.01,0.13-0.02,0.19-0.03c0.12-0.01,0.25-0.04,0.37-0.08c0.06-0.01,0.12-0.04,0.18-0.06c0.07-0.03,0.14-0.07,0.21-0.12
	c0.07-0.04,0.14-0.1,0.2-0.16c0.05-0.06,0.11-0.12,0.16-0.2c-0.32-0.42-0.64-0.84-0.98-1.29c-0.34-0.45-0.7-0.91-1.08-1.41
	c-0.24-0.33-0.51-0.68-0.79-1.04c0.01-0.02,0.04-0.1,0.09-0.2c0.01-0.03,0.03-0.08,0.05-0.12c0.02-0.04,0.04-0.08,0.07-0.12
	c0.03-0.08,0.08-0.16,0.15-0.24c0.03-0.06,0.07-0.12,0.12-0.17c0.15-0.17,0.28-0.33,0.39-0.49c0.12-0.17,0.22-0.34,0.29-0.51
	c0.11-0.22,0.18-0.44,0.21-0.65c0.03-0.29,0-0.56-0.11-0.83c-0.09-0.21-0.21-0.41-0.39-0.61c-0.07-0.08-0.14-0.16-0.23-0.24
	c-0.17-0.15-0.36-0.31-0.59-0.47h-0.01c-0.13-0.09-0.25-0.18-0.36-0.29c-0.11-0.09-0.21-0.2-0.29-0.31
	c-0.12-0.14-0.2-0.29-0.27-0.44c-0.05-0.1-0.08-0.2-0.1-0.31c-0.01-0.02-0.01-0.05-0.01-0.08c-0.03-0.1-0.04-0.2-0.04-0.3
	c0-0.62,0.34-1.24,1-1.75c0.13-0.26,0.25-0.54,0.38-0.8c-0.06-0.4-0.12-0.8-0.18-1.2c-0.22-0.16-0.44-0.32-0.67-0.48
	c-0.32,0.15-0.64,0.29-0.97,0.44c-0.16,0.07-0.32,0.15-0.49,0.23c-0.34,0.16-0.68,0.31-1.04,0.48c-0.18,0.08-0.36,0.16-0.55,0.25
	c-0.38,0.18-0.77,0.36-1.19,0.55c0.09-0.84,0.14-1.64,0.26-2.43c0.02-0.12,0.05-0.24,0.08-0.37c0.02-0.12,0.06-0.25,0.1-0.39
	c0.03-0.13,0.07-0.26,0.11-0.39c0.02-0.08,0.05-0.17,0.07-0.25c0.07-0.23,0.14-0.46,0.2-0.69c0.04-0.17,0.08-0.34,0.1-0.51
	c0.01-0.06,0.02-0.12,0.03-0.18c0.03-0.34,0-0.64-0.15-0.85c-0.19-0.28-0.4-0.56-0.64-0.82c-0.05-0.06-0.11-0.13-0.17-0.19
	c-0.06-0.07-0.13-0.13-0.19-0.19c-0.12-0.11-0.25-0.23-0.39-0.34c-0.55-0.43-1.2-0.71-1.95-0.71c-0.13,0-0.27,0.01-0.4,0.03
	c-0.1,0.01-0.2,0.03-0.31,0.06c-0.12,0.02-0.25,0.06-0.37,0.1c-0.13,0.05-0.27,0.1-0.4,0.16c0-1.86-0.18-3.59,0.05-5.27
	c0.34-2.55-1.17-4.45-1.94-6.62c-0.04-0.11-0.08-0.22-0.11-0.34c-0.04-0.15-0.09-0.3-0.13-0.46c-0.01-0.04-0.02-0.08-0.04-0.13
	c-0.04-0.12-0.07-0.24-0.11-0.36c-0.05-0.14-0.1-0.27-0.17-0.39c-0.03-0.05-0.06-0.09-0.09-0.13c-0.02-0.03-0.04-0.06-0.06-0.08
	c-0.05-0.07-0.11-0.12-0.17-0.17c-0.12-0.09-0.23-0.17-0.34-0.26c-0.11-0.09-0.21-0.18-0.3-0.27l-0.27-0.27
	c-0.18-0.18-0.33-0.37-0.46-0.56v-0.01c-0.14-0.19-0.25-0.38-0.35-0.58c-0.1-0.2-0.18-0.4-0.25-0.61c-0.08-0.2-0.13-0.41-0.18-0.62
	v-0.01c-0.04-0.21-0.08-0.42-0.1-0.63c-0.2-1.83,0.29-3.8,0.19-5.64c0-0.04,0-0.08,0.02-0.12c0-0.02,0.01-0.05,0.02-0.08
	c0.05-0.13,0.15-0.26,0.28-0.4c0.03-0.04,0.07-0.07,0.11-0.11c0.32-0.3,0.76-0.59,1.11-0.71c0.14-0.05,0.3-0.08,0.45-0.1
	c0.19-0.03,0.39-0.03,0.6-0.02c0.1,0,0.2,0,0.31,0.01c0.1,0.01,0.2,0.02,0.31,0.02c0.25,0.01,0.5,0.03,0.74,0.03
	c0.11-0.26,0.22-0.52,0.33-0.78c-0.34-0.22-0.68-0.53-1.03-0.79c-0.09-0.07-0.17-0.13-0.26-0.18c-0.17-0.12-0.34-0.2-0.51-0.25
	c-0.08-0.03-0.16-0.04-0.24-0.04h-0.04c-0.91,0.03-1.5-0.16-1.87-0.57c-0.09-0.09-0.17-0.2-0.23-0.33
	c-0.04-0.06-0.06-0.12-0.09-0.19c-0.06-0.13-0.1-0.28-0.13-0.44c-0.02-0.08-0.04-0.16-0.05-0.25c-0.03-0.17-0.05-0.35-0.06-0.55
	v-0.01c-0.03-0.39-0.06-0.77-0.1-1.16c-0.04-0.39-0.09-0.77-0.14-1.16c-0.07-0.52-0.14-1.04-0.21-1.55
	c-0.05-0.39-0.1-0.78-0.13-1.16c-0.04-0.39-0.07-0.77-0.09-1.16c-0.1-2.2,0.72-2.67,2.83-2.42c1.85,0.21,3.73,0.04,6.15,0.04
	c-0.17-1.88-0.31-3.42-0.44-4.96c0.43,0.13,1.18,0.34,1.93,0.56c0.95-1.21,1.9-2.42,2.86-3.63c-0.09-0.49-0.17-0.97-0.25-1.45
	c-1.78-0.38-2.82-1.63-2.9-3.28c-0.02-0.37-0.04-0.73-0.06-1.08c-0.04-0.43-0.09-0.85-0.19-1.24c-0.09-0.34-0.21-0.65-0.4-0.94
	c-0.06-0.09-0.11-0.17-0.18-0.24c-0.07-0.09-0.14-0.16-0.22-0.24c-0.32-0.3-0.75-0.54-1.32-0.72c-0.01,0-0.03-0.01-0.04-0.03
	c-0.08-0.09-0.1-0.39-0.2-0.71c1.16-0.58,2.33-1.15,3.49-1.72c0.11-0.53,0.21-1.07,0.32-1.6c0.04-0.15,0.08-0.31,0.12-0.46
	c0.04-0.16,0.08-0.31,0.13-0.46c0.04-0.15,0.08-0.3,0.14-0.44c0.05-0.15,0.1-0.29,0.16-0.44c0.05-0.14,0.11-0.28,0.18-0.41
	c0.06-0.14,0.13-0.27,0.21-0.4c0.15-0.26,0.32-0.5,0.54-0.72c0.11-0.11,0.22-0.22,0.35-0.33c0.07-0.06,0.15-0.12,0.24-0.17
	c0.07-0.06,0.15-0.1,0.23-0.14c0.09-0.06,0.19-0.11,0.29-0.16c0.11-0.06,0.23-0.11,0.36-0.15v-1.27c-0.99-0.66-1.21-1.42-1.12-2.22
	c0.02-0.2,0.06-0.41,0.12-0.62c0.05-0.21,0.12-0.41,0.19-0.62c0.07-0.21,0.14-0.42,0.21-0.62c0.04-0.11,0.07-0.21,0.1-0.31
	c0.03-0.1,0.06-0.18,0.1-0.26c0.03-0.08,0.07-0.16,0.12-0.22c0.04-0.07,0.09-0.12,0.14-0.17c0.09-0.1,0.2-0.16,0.32-0.21
	c0.07-0.03,0.14-0.05,0.21-0.06c0.04-0.01,0.08-0.01,0.12-0.01c0.46-0.06,1,0.06,1.53,0.04c1.05-0.06,2.01-1.1,3.03-1.66
	c0.5-0.27,1.04-0.46,1.56-0.68c0.02-0.23,0.04-0.47,0.05-0.7c0.01-0.23,0.03-0.47,0.04-0.7c0.03-0.47,0.06-0.93,0.09-1.4
	c0-0.06,0.01-0.12,0.01-0.18c-0.15-0.69-0.32-1.4-0.47-2.1c-0.08-0.05-0.16-0.09-0.24-0.13c-0.14-0.09-0.27-0.18-0.37-0.27
	c-0.32-0.26-0.45-0.52-0.38-0.79c0-0.03,0.01-0.06,0.03-0.1c0.03-0.09,0.09-0.18,0.17-0.26c0.05-0.06,0.11-0.11,0.18-0.17
	c0.1-0.1,0.23-0.18,0.37-0.27c0.08-0.04,0.16-0.09,0.24-0.13c0.15-0.42,0.31-0.84,0.46-1.27c-0.14-0.58-0.27-1.15-0.41-1.75
	c-0.32-0.01-0.59-0.05-0.81-0.14c-0.09-0.03-0.18-0.07-0.25-0.13c-0.04-0.02-0.07-0.04-0.1-0.06c-0.06-0.04-0.11-0.09-0.15-0.14
	c-0.02-0.01-0.03-0.03-0.05-0.05c-0.06-0.07-0.12-0.15-0.16-0.24c-0.05-0.09-0.08-0.18-0.11-0.28c-0.08-0.29-0.11-0.63-0.09-1.03
	c0.04-0.75,0.03-1.5,0.01-2.24c-0.01-0.38-0.02-0.75-0.02-1.13c-0.76-0.17-1.53-0.33-2.29-0.5h-0.01c0.36-0.83,0.71-1.66,1.06-2.48
	c0.42-0.97,0.83-1.95,1.25-2.92v-3.02c-0.33-0.36-0.69-0.71-0.98-1.08c-0.05-0.07-0.11-0.13-0.16-0.2
	c-0.05-0.06-0.09-0.12-0.13-0.18c-0.05-0.07-0.09-0.15-0.13-0.23c-0.04-0.07-0.09-0.15-0.13-0.23c-0.24-0.48-0.44-0.99-0.67-1.48
	l-0.17-0.01l-0.18,0.02c-0.04,0.52-0.08,1.04-0.11,1.57c-0.03,0.52-0.07,1.05-0.1,1.57c-0.07,1.05-0.15,2.09-0.27,3.13
	c-0.05,0.52-0.6,0.99-1.14,1.81c-0.26-0.72-0.43-1.25-0.59-1.7c-0.1-0.27-0.19-0.5-0.31-0.73c-0.05-0.11-0.11-0.22-0.17-0.32
	c-0.06-0.1-0.13-0.2-0.19-0.29c-0.04-0.04-0.07-0.09-0.11-0.13c-0.03-0.05-0.07-0.09-0.11-0.12l-0.14-0.14
	c-0.05-0.04-0.1-0.08-0.15-0.12c-0.1-0.08-0.2-0.14-0.31-0.19c-0.1-0.05-0.21-0.09-0.33-0.12c-0.05-0.01-0.11-0.02-0.17-0.03
	c-0.13-0.02-0.27-0.01-0.41,0.01c-0.14,0.02-0.28,0.07-0.43,0.13c-0.08,0.03-0.15,0.07-0.23,0.12c-0.11,0.06-0.21,0.13-0.31,0.22
	c-1.69,1.4-3.36,0.44-5,0.26h-0.01c-0.03,0-0.06-0.02-0.09-0.04c-0.03-0.03-0.06-0.05-0.1-0.09c-0.04-0.06-0.09-0.12-0.13-0.2
	c-0.08-0.15-0.17-0.34-0.23-0.55c-0.02-0.05-0.04-0.1-0.05-0.16c-0.05-0.16-0.09-0.33-0.11-0.48c-0.01-0.06-0.02-0.11-0.02-0.16
	c-0.02-0.15-0.03-0.28-0.02-0.4c0.05-0.54,0.72-1.23,1.28-1.48c0.6-0.25,1.43,0.1,2.07-0.12c0.16-0.06,0.31-0.16,0.44-0.3
	c0.05-0.04,0.09-0.09,0.13-0.14c0.08-0.08,0.15-0.17,0.22-0.26c0.04-0.06,0.09-0.12,0.14-0.18c0.04-0.06,0.09-0.12,0.14-0.18
	c0.03-0.03,0.06-0.06,0.08-0.08c0-0.01,0.02-0.03,0.03-0.04c0.01-0.02,0.02-0.03,0.03-0.04c-1.11-0.29-2.21-0.58-3.33-0.87
	c-0.43-0.28-0.86-0.57-1.29-0.87c-0.38-0.58-0.73-1.19-1.15-1.74c-1.68-2.15-2.01-2.01-4.14-0.47c-1.46,1.06-3.3,1.69-5.07,2.19
	c-1.31,0.36-2.2,0.94-1.88,2.24c0.62,2.53-0.89,2.5-2.57,2.46c-0.68,1.76-1.35,3.51-2.03,5.27h-0.01c-0.16-0.04-0.33-0.08-0.5-0.11
	c0.03,0.08,0.06,0.17,0.1,0.26c0.11,0.27,0.22,0.55,0.33,0.86c0.08,0.21,0.17,0.43,0.26,0.67c0.09,0.24,0.19,0.5,0.3,0.79
	c-0.3-0.19-0.57-0.39-0.82-0.58s-0.48-0.37-0.7-0.53c-0.21-0.15-0.42-0.29-0.62-0.39c-0.1-0.05-0.2-0.09-0.3-0.13
	c-0.1-0.03-0.2-0.05-0.3-0.06c-0.16-0.02-0.32-0.01-0.49,0.01c-0.11,0.01-0.23,0.03-0.34,0.06c-0.61,0.16-1.23,0.49-1.77,0.66
	c0.05,0.18,0.1,0.35,0.14,0.51c0.14,0.49,0.27,0.92,0.39,1.33c0.06,0.18,0.11,0.36,0.16,0.53l0.13-0.03v-0.01
	c0.12-0.03,0.24-0.06,0.35-0.07c0,0,0.01,0,0.02,0c0.18-0.03,0.35-0.03,0.49-0.01c0.06,0,0.12,0.02,0.17,0.04
	c0.05,0.01,0.09,0.03,0.14,0.05c0.09,0.04,0.16,0.1,0.23,0.17c0.04,0.05,0.08,0.1,0.11,0.16c0.04,0.05,0.06,0.11,0.09,0.18
	c0.08,0.19,0.13,0.4,0.15,0.63c0.01,0.08,0.02,0.15,0.03,0.23c-0.01,0.01,0,0.03,0,0.04c0.02,0.08,0.02,0.17,0.03,0.25
	c0.01,0.09,0.02,0.17,0.03,0.25l-0.01-0.01c0.05,0.12,0.06,0.23,0.04,0.35c0.46,0.13,0.92,0.25,1.37,0.36c0.5-0.03,1-0.06,1.5-0.1
	v0.01c-0.01,0.66-0.02,1.31-0.03,1.96c0.04,0.41,0.09,0.83,0.14,1.24c0.93,0.18,1.87,0.36,3.2,0.61c-0.29,0.42-0.52,0.77-0.75,1.12
	c-0.23,0.34-0.46,0.68-0.74,1.1c1.12,0.05,2.1,0.09,3.09,0.14c0.1,0,0.19,0.01,0.28,0.02c0.37,0.04,0.66,0.13,0.83,0.31
	c0.07,0.06,0.12,0.14,0.15,0.23c0.02,0.04,0.03,0.08,0.04,0.13c0.05,0.22,0,0.52-0.15,0.9c-0.46,1.1-0.83,2.24-1.3,3.33
	c-0.18,0.42-0.4,0.73-0.65,0.97c-0.22,0.21-0.46,0.35-0.71,0.43c-0.41,0.15-0.83,0.14-1.19,0.02h-0.01
	c-0.12-0.16-0.24-0.31-0.35-0.45c-0.04-0.04-0.07-0.07-0.09-0.11c-0.43-0.53-0.79-0.98-1.12-1.4c-0.18-0.23-0.35-0.44-0.52-0.65
	c-0.09-0.11-0.18-0.21-0.26-0.32c-0.16,0.15-0.34,0.28-0.51,0.41c-0.35,0.27-0.72,0.52-1.09,0.78c-0.55,0.39-1.09,0.79-1.51,1.24
	c-0.07,0.08-0.14,0.15-0.2,0.23c-0.19,0.23-0.35,0.48-0.47,0.75c-0.02,0.05-0.04,0.1-0.07,0.15v0.01c-0.03,0.1-0.06,0.19-0.07,0.27
	c-0.01,0.04-0.01,0.08-0.01,0.12c0,0.07,0.01,0.13,0.03,0.19c0.01,0.04,0.02,0.08,0.05,0.11c0.01,0.03,0.03,0.06,0.05,0.08
	c0.02,0.03,0.06,0.06,0.09,0.09c0.09,0.08,0.21,0.14,0.34,0.19c0.14,0.05,0.28,0.1,0.44,0.14c0.08,0.03,0.15,0.05,0.23,0.07
	c0.16,0.05,0.32,0.1,0.48,0.16c0.15,0.06,0.3,0.14,0.44,0.23c0.06,0.05,0.13,0.1,0.18,0.16c0.03,0.03,0.06,0.05,0.08,0.09
	c0.03,0.03,0.06,0.06,0.08,0.1c0.1,0.14,0.17,0.32,0.21,0.52c-0.09,0.06-0.19,0.16-0.3,0.26c-0.27,0.25-0.6,0.56-0.94,0.67
	c-0.07,0.02-0.14,0.04-0.21,0.04c-0.14,0.01-0.29-0.03-0.44-0.1c-0.07-0.03-0.14-0.07-0.21-0.12c-0.07-0.04-0.14-0.08-0.21-0.14
	c-0.12-0.08-0.24-0.18-0.36-0.28c-0.16-0.12-0.31-0.25-0.46-0.36c-0.61-0.45-1.19-0.95-1.79-1.43c0.02,0.2,0.01,0.39-0.01,0.56
	c-0.01,0.11-0.03,0.21-0.07,0.3c-0.05,0.17-0.13,0.32-0.24,0.44c-0.12,0.13-0.28,0.23-0.47,0.3c-0.07,0.03-0.15,0.05-0.23,0.06
	c-0.18,0.04-0.39,0.05-0.62,0.03c-0.06,0.4-0.11,0.82-0.17,1.23c0.81,1.15,1.06,2.25,0.52,3.29c-0.1,0.19-0.22,0.37-0.37,0.55
	c-0.08,0.1-0.16,0.19-0.25,0.28c-0.09,0.1-0.18,0.18-0.28,0.27c-0.08,0.07-0.15,0.14-0.21,0.22c-0.05,0.06-0.09,0.12-0.13,0.19
	c-0.05,0.07-0.09,0.14-0.12,0.21c-0.04,0.07-0.07,0.15-0.11,0.22c-0.03,0.07-0.05,0.15-0.08,0.22c-0.78,2.36-1.35,4.8-2.32,7.07
	c-0.61,1.43-1.85,2.56-2.69,3.9c-0.07,0.12-0.15,0.24-0.22,0.36c-0.14,0.24-0.29,0.48-0.42,0.73s-0.26,0.51-0.37,0.77
	c-0.06,0.12-0.11,0.25-0.16,0.39c-0.1,0.26-0.18,0.52-0.24,0.79c-0.03,0.11-0.05,0.21-0.09,0.31c-0.03,0.11-0.06,0.21-0.1,0.31
	c-0.03,0.09-0.06,0.17-0.1,0.24c-0.03,0.08-0.07,0.15-0.12,0.22c-0.04,0.08-0.09,0.14-0.14,0.2c-0.06,0.08-0.13,0.15-0.21,0.2
	c-0.08,0.07-0.18,0.12-0.28,0.16c-0.06,0.02-0.12,0.04-0.19,0.05c-0.19,0.05-0.42,0.06-0.68,0.02c-0.13-0.02-0.27-0.04-0.41-0.08
	c-0.94-0.25-1.89-0.6-2.85-0.63c-0.67-0.02-1.63,0.23-1.96,0.71c-1.95,2.8-6.33,2.5-8.55,0.11h-0.43c0,0.01,0.01,0.01,0.01,0.01
	c-0.19,0.03-0.38,0.05-0.56,0.07c-0.39,0.05-0.78,0.09-1.17,0.17c-0.17,0.04-0.33,0.08-0.49,0.13c-0.31,0.1-0.59,0.33-0.99,0.66
	c-0.13,0.11-0.28,0.23-0.44,0.36h-0.01c-0.03,0.03-0.07,0.06-0.1,0.08c-0.03,0.03-0.07,0.06-0.11,0.09c0,0.02,0,0.04,0.01,0.07
	c0.19,0,0.38,0.01,0.55,0.02c0.39,0.02,0.73,0.05,1.04,0.09c0.85,0.11,1.43,0.32,1.83,0.68c0.05,0.04,0.09,0.09,0.13,0.13
	c0.52,0.56,0.69,1.44,0.76,2.78c0.18,3.38-0.35,6.73,0.24,10.17c0.53,3.06-0.2,6.34-0.83,9.58c-0.37-2.02-0.74-4.03-1.11-6.05
	c-0.1,0.02-0.2,0.04-0.3,0.05c-0.1,0.02-0.2,0.03-0.3,0.05c-0.04,0.13-0.1,0.27-0.15,0.4c-0.03,0.07-0.05,0.14-0.07,0.21
	c-0.03,0.1-0.04,0.2-0.02,0.29c0.17,0.66,0.3,1.25,0.23,1.7c-0.01,0.08-0.03,0.15-0.05,0.22c-0.02,0.07-0.05,0.13-0.09,0.19
	c-0.03,0.06-0.07,0.11-0.12,0.16c-0.07,0.06-0.14,0.11-0.23,0.16c-0.04,0.02-0.09,0.04-0.14,0.06c-0.09,0.03-0.2,0.05-0.33,0.07
	c-0.21,0.03-0.46,0.03-0.76,0c-0.13,0-0.27-0.02-0.42-0.04c-0.12-0.02-0.24-0.01-0.34,0.02c-0.07,0.02-0.13,0.05-0.18,0.08
	c-0.07,0.04-0.13,0.09-0.19,0.15c-0.11,0.11-0.21,0.25-0.27,0.42c-0.04,0.08-0.06,0.17-0.09,0.26c-0.08,0.28-0.1,0.6-0.04,0.91
	c0.02,0.12,0.05,0.23,0.09,0.34c0.03,0.12,0.09,0.23,0.15,0.34c0.05,0.08,0.1,0.15,0.16,0.22c0.02,0.03,0.04,0.05,0.07,0.08
	c0.08,0.09,0.15,0.18,0.22,0.26c0.07,0.09,0.13,0.18,0.19,0.27c0.12,0.18,0.21,0.35,0.28,0.53c0.04,0.09,0.07,0.18,0.09,0.26
	c0.04,0.14,0.07,0.27,0.09,0.4c0.01,0.06,0.02,0.13,0.01,0.19c0.01,0.1,0.01,0.21,0.01,0.31c-0.01,0.12-0.02,0.24-0.03,0.36
	c0,0.05-0.01,0.09-0.02,0.14c-0.03,0.14-0.06,0.28-0.09,0.42c-0.04,0.17-0.1,0.34-0.16,0.51c-0.06,0.18-0.13,0.35-0.21,0.53
	c0.01,0.41,0.01,0.82,0.01,1.23c0.04,0.39,0.04,0.73-0.02,1.03c-0.01,0.08-0.03,0.16-0.06,0.23c-0.02,0.07-0.05,0.14-0.09,0.2
	c-0.03,0.04-0.05,0.09-0.08,0.13c-0.03,0.04-0.06,0.08-0.1,0.11c-0.27,0.29-0.71,0.47-1.4,0.51c-0.84,0.05-1.65,0.78-2.48,1.2
	c-0.15,0.98-0.29,1.97-0.45,2.95c0-0.01,0.01-0.01,0.01-0.01c0.01,0.04,0.01,0.09,0.02,0.14c0.01,0.06,0.02,0.12,0.04,0.18
	c0.02,0.08,0.03,0.15,0.05,0.22c0.07,0.33,0.13,0.65,0.07,0.68c-2.47,1.14-1.27,3.13-1.3,4.83c0.59,0.16,1.08,0.35,1.47,0.6
	c0.05,0.03,0.1,0.07,0.15,0.1c0.1,0.07,0.19,0.14,0.27,0.22c0.06,0.05,0.12,0.11,0.18,0.18c0.06,0.06,0.11,0.12,0.15,0.19
	c0.05,0.07,0.09,0.14,0.13,0.21c0.08,0.15,0.15,0.3,0.2,0.47c0.03,0.08,0.05,0.16,0.07,0.25c0.02,0.11,0.04,0.22,0.05,0.34
	c0.01,0.06,0.02,0.12,0.02,0.18c0.05,0.6-0.02,1.32-0.19,2.19c-0.21,1.06-0.59,1.77-1.19,2.21c-0.14,0.11-0.3,0.2-0.47,0.28
	c-0.17,0.08-0.35,0.14-0.55,0.19c-0.02,0.01-0.05,0.01-0.08,0.02c-0.02,0-0.04,0.01-0.06,0.01c-0.07,0.02-0.14,0.03-0.22,0.04
	c-0.09,0.02-0.19,0.03-0.29,0.04c-0.08,0.01-0.17,0.02-0.26,0.02c-0.08,0.01-0.17,0.01-0.26,0.01c-0.09,0.01-0.19,0.01-0.28,0.01
	h-0.27c-0.48-0.01-0.96-0.01-1.44,0c-0.32,0.01-0.64,0.03-0.96,0.05c-0.52,0.03-1.04,0.07-1.56,0.11c-0.41,0.03-0.83,0.07-1.24,0.1
	c-0.26,0.03-0.51,0.05-0.76,0.06c-0.25,0.03-0.5,0.05-0.76,0.06c-0.15,0.01-0.3,0.01-0.45,0c-0.05,0.01-0.1,0-0.15-0.01
	c-0.07,0.01-0.13,0-0.2-0.01c-0.12-0.02-0.25-0.04-0.36-0.09c-1.57-0.62-3.46,0-3.85,1.52c-0.36,1.44-0.44,2.97-0.49,4.47
	c-0.04,1.09-0.03,2.03-1.51,1.91c-0.05,0.73-0.1,1.45-0.15,2.18c0.39,1.34,1.07,2.69,1.13,4.05c0.15,3.43,0.72,4.34,3.95,5.25
	c0.39,0.11,0.66,0.18,0.89,0.33c0.07,0.04,0.13,0.09,0.2,0.15c0.09,0.08,0.17,0.18,0.25,0.31c0.06,0.1,0.13,0.21,0.2,0.34
	c0.04,0.08,0.08,0.17,0.12,0.27c0.02,0.06,0.04,0.12,0.07,0.17c0.04,0.08,0.07,0.17,0.11,0.26c0.03,0.09,0.07,0.19,0.11,0.3
	c0.02,0.08,0.05,0.15,0.08,0.22c0.03,0.08,0.06,0.16,0.08,0.24c0.06,0.17,0.13,0.35,0.19,0.53c0.04,0.1,0.08,0.2,0.1,0.3
	c0.07,0.2,0.15,0.41,0.23,0.64c0.14-0.34,0.3-0.65,0.47-0.92c0.16-0.28,0.34-0.53,0.54-0.74c0.09-0.11,0.19-0.22,0.29-0.31
	c0.05-0.05,0.1-0.1,0.15-0.14c0.06-0.05,0.11-0.09,0.16-0.13c0.21-0.17,0.42-0.3,0.65-0.42c1.43-0.74,3.18-0.61,4.89-0.51
	c0.95,0.06,2.65,0.57,2.66,0.94c0.08,1.53,0.17,3.84-0.72,4.47c-0.2,0.14-0.38,0.29-0.54,0.44c-0.04,0.03-0.08,0.07-0.11,0.12
	c-0.17,0.18-0.32,0.36-0.43,0.54c-0.06,0.09-0.11,0.17-0.15,0.26c-0.14,0.29-0.23,0.58-0.28,0.89c-0.02,0.1-0.03,0.2-0.04,0.3
	c-0.02,0.1-0.02,0.21-0.03,0.31c-0.02,0.35-0.02,0.71-0.03,1.09c0,0.1-0.01,0.21-0.01,0.32c0,0.22,0.01,0.46-0.01,0.69
	c0,0.12,0,0.23-0.01,0.34s-0.02,0.22-0.04,0.32c-0.01,0.08-0.02,0.16-0.05,0.23c0,0,0,0,0,0.01c-0.01,0.07-0.04,0.13-0.07,0.19
	c-0.02,0.06-0.05,0.11-0.09,0.16c-0.02,0.05-0.06,0.09-0.1,0.13h-0.01c-1.07,0.92-2.4,1.65-3.74,2.05
	c-0.03,0.01-0.06,0.01-0.09,0.01c-0.06,0-0.11-0.01-0.18-0.04c-0.06-0.02-0.13-0.05-0.2-0.1c-0.13-0.07-0.27-0.17-0.42-0.3
	c-0.09-0.07-0.18-0.15-0.28-0.24c-0.29-0.25-0.61-0.54-0.96-0.81h-0.01c-0.05-0.04-0.1-0.08-0.16-0.12
	c-0.02,0.21-0.07,0.43-0.12,0.64c-0.04,0.21-0.08,0.41-0.08,0.58c0,0.13,0.02,0.25,0.08,0.34c0.42,0.63,0.6,1.14,0.59,1.55
	c0,0.09-0.01,0.18-0.03,0.26c-0.01,0.09-0.04,0.17-0.07,0.24c-0.03,0.08-0.07,0.15-0.12,0.22c-0.05,0.07-0.1,0.14-0.16,0.2
	c-0.08,0.08-0.17,0.16-0.27,0.23c-0.15,0.11-0.32,0.21-0.5,0.3c-0.07,0.03-0.13,0.06-0.2,0.09c-0.13,0.06-0.27,0.12-0.41,0.17
	s-0.29,0.1-0.44,0.15c-0.66,0.21-1.33,0.38-2,0.56c-0.14,1.39-0.26,2.77-0.4,4.16c0.11,0.29,0.22,0.57,0.33,0.85
	c1.88,2.04,0.28,4.26,0.25,6.38c-0.01,0.19-0.02,0.38-0.03,0.57c0,0.01,0,0.01,0,0.02c-0.02,0.18-0.04,0.36-0.07,0.54
	c-0.01,0.16-0.04,0.32-0.07,0.48c-0.04,0.22-0.08,0.43-0.12,0.65c-0.06,0.28-0.12,0.56-0.18,0.84c-0.1,0.45-0.2,0.91-0.29,1.38
	c-0.04,0.23-0.08,0.46-0.11,0.69c-0.01,0.05-0.02,0.09-0.02,0.14c-0.03,0.18-0.05,0.37-0.06,0.55c-0.11,1.54,0.65,2.78,2.18,3.08
	c0.29-0.51,0.52-1,0.77-1.45c0.08-0.15,0.16-0.29,0.25-0.43c0.07-0.12,0.15-0.23,0.23-0.34c0.09-0.14,0.2-0.26,0.32-0.38h0.01
	c0,0,0.01-0.01,0.03-0.03c0,0,0-0.01,0.01-0.01c0.15-0.19,0.79-0.96,1.08-1.15c0.33-0.22,0.33-0.22,0.33-0.22l0.96-0.76l4.71,1.63
	l0.5,0.67l-0.11,0.77l0.77,0.55l0.55,0.88l0.77,0.55l0.99-0.77l-0.11,1.54l-0.66,0.88l-2.09,0.44l2.31,2.53
	c1.32-0.11,2.53-0.22,2.53-0.22c0.77-0.88,0.88-1.65,0.88-1.65c1.1-0.11,2.31,0.55,2.31,0.55l0.11,0.77l0.11,1.21l-0.11,1.43
	l0.23,0.88l2.64,0.34l3.96,0.33l2.64,0.11c0.88-0.66,1.65-1.66,1.65-1.66s0.33-0.44,0.77-0.55c0.45-0.11,2.76,0,2.76,0
	c1.1,0.55,1.98,0.77,1.98,0.77l2.97,1.22l1.49-1.22l0.21-0.52c0.03,0.01,2.7,0.85,6.01,1.81c2.12,0.63,2.57,0.55,3.31,0.43
	c0.4-0.08,0.9-0.16,1.74-0.16c1.57,0,3.99,0.23,6.14,0.44c1.11,0.11,2.11,0.21,2.83,0.26c2.04,0.13,6.21-0.7,7.57-0.98l1.57-0.31
	c1.36-0.28,2.97-0.61,4.04-0.8c1.4-0.26,2.71-1.42,2.73-1.44l0.09-0.06l8.15-4.01l3.86-5.37l1.65-2.06l0.33,0.27
	C457.05,518.93,456.48,516.69,455.65,514.62z M440.98,419.77c0.03-0.06,0.07-0.13,0.1-0.19v-0.01c0.12,0.06,0.24,0.11,0.35,0.16
	c-0.05,0.12-0.1,0.23-0.15,0.35c-0.12-0.05-0.3-0.07-0.34-0.16C440.93,419.88,440.94,419.83,440.98,419.77z M446.64,378.81
	c0.1-0.27,0.21-0.53,0.32-0.81c0.64,0.24,1.28,0.48,1.92,0.71l-0.01,0.01c-0.14,0.29-0.28,0.59-0.43,0.89
	c-0.6-0.26-1.2-0.53-1.8-0.79V378.81z M439.42,403.1c0.08-0.03,0.23,0.08,0.34,0.13c-0.03,0.06-0.05,0.13-0.07,0.2
	c-0.01,0.04-0.02,0.07-0.04,0.09c-0.01,0.02-0.03,0.04-0.05,0.05c-0.08,0.03-0.22-0.09-0.34-0.14
	C439.31,403.31,439.33,403.13,439.42,403.1z M368.32,481.75c-0.05,0.11-0.13,0.22-0.24,0.32c-0.1,0.11-0.23,0.21-0.36,0.32
	c-0.07,0.05-0.13,0.1-0.2,0.16c-0.13,0.1-0.25,0.21-0.36,0.32v-0.01c-0.35-0.43-0.68-0.84-1.21-1.49c0.32-0.29,0.58-0.53,0.83-0.74
	c0.25-0.22,0.47-0.42,0.7-0.62v0.01c0.12,0.19,0.28,0.38,0.42,0.57c0.1,0.13,0.19,0.25,0.27,0.38c0.08,0.13,0.14,0.25,0.17,0.37
	c0.03,0.08,0.04,0.16,0.03,0.24C368.36,481.64,368.35,481.69,368.32,481.75z M388.32,446.92c-0.01,0.07-0.02,0.14-0.04,0.2
	c-0.01,0.08-0.03,0.15-0.05,0.21s-0.05,0.12-0.08,0.18c-0.03,0.07-0.07,0.14-0.11,0.2c-0.03,0.06-0.07,0.11-0.12,0.16
	c-0.05,0.06-0.1,0.12-0.16,0.17c-0.09,0.09-0.2,0.17-0.32,0.24c-0.24,0.15-0.55,0.28-0.92,0.38h-0.01
	c-0.07-0.23-0.16-0.45-0.24-0.67c-0.49-1.24-1.03-2.38,0.29-3.41c0.29-0.22,1.61,0.23,1.64,0.47
	C388.28,445.66,388.41,446.32,388.32,446.92z M411.14,416.83c0,0.24-0.01,0.48-0.02,0.71c-0.01,0.3-0.03,0.59-0.06,0.88
	c-0.01,0.18-0.19,0.37-0.42,0.54c-0.11,0.09-0.24,0.17-0.37,0.24s-0.26,0.13-0.37,0.18c-0.12,0.05-0.25,0.09-0.39,0.11
	c-0.2,0.05-0.41,0.07-0.62,0.09c-0.21,0.02-0.42,0.04-0.62,0.08c-0.87,0.17-2.33,0.75-2.51,0.47h-0.01
	c-0.08-0.11-0.15-0.23-0.21-0.36c-0.46-0.88-0.63-1.94-0.94-2.95c0.25-0.05,0.5-0.11,0.77-0.19c0.27-0.07,0.55-0.16,0.84-0.25
	c0.14-0.05,0.28-0.1,0.42-0.15c0.15-0.05,0.29-0.1,0.44-0.16c0.43-0.17,0.86-0.35,1.28-0.55c0.28-0.13,0.55-0.26,0.82-0.4
	c0.23-0.12,0.46-0.24,0.67-0.37c0.38-0.22,0.73-0.44,1.01-0.66c0.09-0.08,0.18-0.15,0.26-0.22h0.01c0,0.45,0.01,0.88,0.01,1.3
	c0,0.51,0.01,0.99,0.01,1.47V416.83z"/>
<path class="st9" d="M371.74,500.22c-0.02,0.22-0.07,0.44-0.11,0.65c0.05-0.21,0.1-0.43,0.12-0.64v-0.01H371.74z M379.42,453.68
	c0,0-0.01,0-0.01,0.01c0.01,0.04,0.02,0.08,0.03,0.13C379.43,453.77,379.43,453.72,379.42,453.68z M384.47,418.11
	c-0.03,0.02-0.06,0.04-0.09,0.07h0.1C384.47,418.15,384.47,418.13,384.47,418.11z M384.47,418.1v0.01c0.04-0.03,0.08-0.06,0.11-0.09
	C384.54,418.05,384.51,418.07,384.47,418.1z M384.35,439.09c-0.13-0.02-0.25-0.01-0.35,0.03c0.1-0.03,0.22-0.04,0.34-0.02
	c0.15,0.02,0.29,0.04,0.42,0.04C384.63,439.13,384.49,439.11,384.35,439.09z M386.52,448.66c0.37-0.1,0.68-0.23,0.92-0.38
	C387.2,448.42,386.9,448.55,386.52,448.66z M386.49,435.67v0.01c0.1-0.02,0.2-0.03,0.3-0.05
	C386.69,435.65,386.59,435.66,386.49,435.67z M388.33,416.54c-0.18,0.03-0.37,0.05-0.55,0.08c0.18-0.02,0.37-0.04,0.56-0.07
	C388.34,416.55,388.33,416.55,388.33,416.54z M404.43,414.72c-0.02,0.11-0.05,0.21-0.08,0.31c0.04-0.1,0.06-0.2,0.09-0.31
	c0.06-0.27,0.14-0.53,0.24-0.79C404.58,414.19,404.49,414.45,404.43,414.72z M405.54,419.77c0.06,0.13,0.13,0.25,0.21,0.36h0.01
	C405.68,420.01,405.61,419.89,405.54,419.77z M409.9,419.37c-0.13,0.05-0.26,0.09-0.39,0.12c0.14-0.02,0.27-0.06,0.39-0.11
	c0.11-0.05,0.24-0.11,0.37-0.18C410.14,419.27,410.01,419.32,409.9,419.37z M411.12,413.87h-0.01v0.01c0,0.45,0.01,0.88,0.02,1.29
	C411.13,414.75,411.12,414.32,411.12,413.87z M411.5,399.65c-0.07,0.06-0.14,0.14-0.2,0.22
	C411.36,399.79,411.43,399.72,411.5,399.65L411.5,399.65z M415.25,375.6v0.01h0.01c0.12-0.03,0.24-0.06,0.34-0.08
	C415.49,375.54,415.37,375.57,415.25,375.6z M416.85,376.12c0.08,0.19,0.13,0.4,0.15,0.63
	C416.97,376.52,416.93,376.31,416.85,376.12z M417.06,377.27c0,0.08,0.01,0.16,0.02,0.24l0.01,0.01
	C417.08,377.44,417.07,377.36,417.06,377.27z M417.17,394.76c-0.14,0.01-0.29-0.03-0.44-0.09c0.15,0.07,0.3,0.11,0.44,0.1
	c0.07,0,0.14-0.02,0.21-0.04C417.31,394.75,417.24,394.76,417.17,394.76z M419.86,387.71h-0.01c0.08,0.11,0.17,0.21,0.26,0.32
	C420.03,387.92,419.94,387.82,419.86,387.71z M419.28,371.76h0.01c0.68-1.76,1.35-3.51,2.03-5.27
	C420.64,368.24,419.97,370.01,419.28,371.76z M421.8,384.16h0.01c0.28-0.42,0.51-0.76,0.74-1.1
	C422.31,383.4,422.08,383.74,421.8,384.16z M438.88,408.71c-0.01,0-0.03-0.01-0.04-0.02C438.85,408.71,438.87,408.72,438.88,408.71
	c0.57,0.19,1,0.43,1.32,0.73C439.88,409.14,439.45,408.89,438.88,408.71z M440.75,363.55c-0.01,0.01-0.02,0.02-0.03,0.04
	C440.73,363.58,440.75,363.56,440.75,363.55L440.75,363.55z M443.39,402.05c0.16-0.26,0.33-0.5,0.54-0.72
	C443.71,401.55,443.54,401.79,443.39,402.05z M445.61,475.75c0.23,0.16,0.42,0.32,0.59,0.47
	C446.03,476.06,445.84,475.9,445.61,475.75z M446.12,484.88c0.22-0.04,0.47-0.05,0.72-0.07
	C446.59,484.82,446.34,484.83,446.12,484.88z M446.72,478.55c0.12-0.22,0.19-0.44,0.21-0.65
	C446.9,478.11,446.83,478.33,446.72,478.55z M446.82,477.07c0.11,0.27,0.14,0.54,0.11,0.83
	C446.97,477.62,446.94,477.34,446.82,477.07z M446.96,378c0.64,0.24,1.28,0.48,1.91,0.72l0.01-0.01
	C448.24,378.48,447.6,378.24,446.96,378z M448.82,365.44c-0.05-0.07-0.09-0.14-0.14-0.22c0.04,0.08,0.08,0.16,0.13,0.23
	c0.04,0.06,0.08,0.12,0.13,0.18C448.9,365.57,448.86,365.51,448.82,365.44z M450.08,375.83h-0.01c0,0.38,0.01,0.75,0.02,1.13
	C450.09,376.58,450.08,376.2,450.08,375.83z M450.16,497.48v0.01c0.23,0,0.43,0.01,0.6,0.01
	C450.59,497.49,450.39,497.49,450.16,497.48z M450.99,381.13c0.22,0.09,0.49,0.13,0.81,0.14v-0.01
	C451.48,381.26,451.21,381.21,450.99,381.13z M452.03,391.49h0.01c0.01-0.23,0.03-0.47,0.04-0.7
	C452.07,391.02,452.05,391.26,452.03,391.49z"/>
<path class="st2" d="M438.68,458.39c0.08-0.46,0.17-0.91,0.25-1.37C438.85,457.48,438.77,457.93,438.68,458.39z"/>
<path class="st2" d="M361.54,481.95c0.88,1.61,1.76,3.22,2.64,4.83C363.3,485.17,362.42,483.56,361.54,481.95z"/>
<path class="st3" d="M376.03,539.21c0.14,0.71,0.28,1.41,0.42,2.12C376.31,540.62,376.17,539.92,376.03,539.21z"/>
<path class="st3" d="M374.4,535.78c0.4,0.72,0.81,1.45,1.21,2.17C375.21,537.22,374.81,536.5,374.4,535.78z"/>
<path class="st3" d="M368.83,491.81c0.16,0.42,0.32,0.84,0.48,1.25C369.15,492.65,368.99,492.23,368.83,491.81z"/>
<path class="st2" d="M366.42,518.46c-0.04,0.28-0.08,0.56-0.11,0.84C366.34,519.03,366.38,518.75,366.42,518.46z"/>
<path class="st2" d="M368.42,503.22c-0.09,0.3-0.19,0.6-0.28,0.91C368.23,503.82,368.32,503.52,368.42,503.22z"/>
<path class="st3" d="M369.68,493.92c0.15,0.28,0.31,0.56,0.46,0.84C369.99,494.49,369.83,494.2,369.68,493.92z"/>
<path class="st11" d="M360,464.71c0.01-0.42,0.01-0.85,0.02-1.27C360.01,463.86,360,464.28,360,464.71z"/>
<path class="st3" d="M374.01,534.88c0.11,0.17,0.22,0.34,0.33,0.51C374.23,535.22,374.12,535.05,374.01,534.88z"/>
<path class="st3" d="M380.69,441.78c0.29-0.4,0.58-0.81,0.86-1.21C381.27,440.97,380.98,441.38,380.69,441.78z"/>
<path class="st3" d="M382.42,439.34c0.04-0.17,0.08-0.34,0.12-0.51C382.5,439,382.46,439.17,382.42,439.34z"/>
<path class="st9" d="M372.95,494.86c0.38-1.32,0.76-2.64,1.15-3.96c0.32,0.01,0.65,0.02,0.97,0.02c0.18,0.98,0.63,2.01,0.43,2.91
	c-0.13,0.61-1.17,1.02-1.81,1.52C373.44,495.19,373.2,495.02,372.95,494.86z"/>
<path class="st2" d="M370.03,465.43c0.74,0.25,1.48,0.5,2.22,0.74C371.51,465.93,370.77,465.68,370.03,465.43z"/>
<path class="st2" d="M366.33,465.95c0.61-0.19,1.23-0.37,1.84-0.55C367.56,465.58,366.94,465.77,366.33,465.95z"/>
<path class="st2" d="M373.97,465.98c0.44-0.25,0.88-0.51,1.33-0.76C374.85,465.48,374.41,465.73,373.97,465.98z"/>
<path class="st11" d="M390.49,415.64c-0.16,0.12-0.31,0.24-0.47,0.36C390.18,415.88,390.34,415.76,390.49,415.64z"/>
<path class="st3" d="M418.33,378.54c0.15,0.23,0.3,0.46,0.45,0.69C418.63,378.99,418.48,378.77,418.33,378.54z"/>
<path class="st9" d="M443.16,366.64c-0.28-0.3-0.61-0.55-0.58-0.65c0.09-0.25,0.36-0.45,0.56-0.66c0.17,0.18,0.45,0.35,0.48,0.55
	C443.63,366.08,443.38,366.3,443.16,366.64z"/>
<path class="st6" d="M362.41,515.41c-0.1,0.31-0.2,0.62-0.3,0.93C362.21,516.03,362.31,515.72,362.41,515.41z"/>
<path class="st6" d="M379.93,438.04c-0.18-0.25-0.36-0.5-0.54-0.75C379.57,437.55,379.75,437.8,379.93,438.04z"/>
<path class="st6" d="M416.42,366.62c0.21-0.32,0.42-0.65,0.64-0.97C416.85,365.97,416.63,366.3,416.42,366.62z"/>
<path class="st6" d="M374.66,459.66c0-0.74,0-1.48,0-2.22C374.67,458.18,374.66,458.92,374.66,459.66z"/>
<path class="st6" d="M373.47,462.88c0.41-0.4,0.81-0.8,1.22-1.2C374.28,462.08,373.87,462.48,373.47,462.88z"/>
<path class="st6" d="M365.44,464.18c0.3-0.14,0.6-0.27,0.9-0.41C366.04,463.9,365.74,464.04,365.44,464.18z"/>
<path class="st11" d="M361.46,454.76c0.35-0.36,0.69-0.73,1.04-1.09C362.15,454.03,361.8,454.39,361.46,454.76z"/>
<path class="st11" d="M360.47,450.8c-0.62,0.47-1.24,0.94-1.86,1.4C359.23,451.74,359.85,451.27,360.47,450.8z"/>
<path class="st11" d="M362.98,449.9c-0.36,0.21-0.72,0.42-1.08,0.63C362.26,450.32,362.62,450.11,362.98,449.9z"/>
<path class="st11" d="M366.35,449.76c-0.19,0.03-0.38,0.05-0.57,0.08C365.97,449.82,366.16,449.79,366.35,449.76z"/>
<g>
	<text transform="matrix(1 0 0 1 384.7711 491.9412)" class="st0 st12 st13">COMILLA</text>
</g>
<ellipse class="st14" cx="408.35" cy="477.56" rx="8.92" ry="0.87"/>
<g>
	<g>
		<circle class="st8" cx="408.35" cy="458.77" r="3.95"/>
	</g>
	<g>
		<path class="st8" d="M408.35,465.09c-3.48,0-6.31-2.83-6.31-6.31s2.83-6.31,6.31-6.31c3.48,0,6.31,2.83,6.31,6.31
			S411.83,465.09,408.35,465.09z M408.35,453.65c-2.83,0-5.13,2.3-5.13,5.13s2.3,5.13,5.13,5.13c2.83,0,5.13-2.3,5.13-5.13
			S411.18,453.65,408.35,453.65z"/>
	</g>
	<polygon class="st8" points="409.61,464.83 408.35,478 408.35,478.02 408.35,478 407.1,464.83 408.35,464.8 408.35,464.8 	"/>
</g>
</svg>
