<?xml version="1.0" encoding="utf-8"?>
<!-- Generator: Adobe Illustrator 27.6.1, SVG Export Plug-In . SVG Version: 6.00 Build 0)  -->
<svg version="1.1" id="Layer_1" xmlns="http://www.w3.org/2000/svg" xmlns:xlink="http://www.w3.org/1999/xlink" x="0px" y="0px"
	 viewBox="0 0 661.87 864" style="enable-background:new 0 0 661.87 864;" xml:space="preserve">
<style type="text/css">
	.st0{fill:#FFFFFF;}
	.st1{fill:#5FA440;}
	.st2{fill:#A0C88D;}
	.st3{fill:#D9F1CB;}
	.st4{fill:#B4B0BC;}
	.st5{fill:#F6FAF8;}
	.st6{fill:#EBBF7A;}
	.st7{font-family:'Roboto-Black';}
	.st8{font-size:12px;}
	.st9{fill:#487C2D;}
	.st10{fill:#FF0000;}
	.st11{fill:#B2AE18;}
	.st12{fill:#FFFF2E;}
	.st13{fill:#F9E8B9;}
	.st14{fill:#8E8813;}
	.st15{fill:#CCAA19;}
	.st16{fill:#EDAACF;}
	.st17{fill:#CB336F;}
	.st18{fill:#998014;}
	.st19{fill:#163784;}
	.st20{fill:#C3E1F3;}
	.st21{fill:#3470B0;}
	.st22{fill:#FBFDFA;}
	.st23{fill:#E8E8E8;}
	.st24{fill:#3C3C3C;}
	.st25{fill:#133685;}
	.st26{fill:#112C63;}
	.st27{fill:#E59936;}
	.st28{fill:#E19A39;}
	.st29{fill:#EB5E55;}
	.st30{fill:#8C7752;}
	.st31{fill:#AF732B;}
	.st32{fill:#6772DB;}
	.st33{fill:#4F5CA8;}
	.st34{fill:#D13270;}
	.st35{fill:#DCDCDE;}
	.st36{fill:#CC4D4A;}
	.st37{fill:#25527A;}
	.st38{fill:#773E84;}
	.st39{fill:#773B85;}
	.st40{fill:#4D2756;}
</style>
<path class="st0" d="M34.05,847.74c0.14,0.14,0.28,0.28,0.42,0.42C34.33,848.02,34.19,847.88,34.05,847.74z"/>
<path class="st1" d="M576.79,452.86c-1.11-0.52-2.22-1.05-3.45-1.63c-0.64-2.49-1.34-5.17-2.14-8.28c-0.97,0.32-2.39,0.47-2.49,0.91
	c-0.18,0.81,0.37,1.82,0.7,2.71c0.31,0.82,0.85,1.56,1.08,2.39c0.09,0.33-0.29,1.01-0.62,1.16c-0.32,0.14-1.09-0.05-1.26-0.34
	c-1.31-2.17-3.4-1.43-5.28-1.6c-1-0.09-1.97-0.4-3.47-0.72c3.39-2.04,3.49-2.31,2.81-5.54c-0.06-0.3,0.06-0.68,0.19-0.98
	c1.08-2.56,1.03-5.24,0.42-7.83c-0.64-2.69-1.71-3.28-3.83-2.85c0.12,0.82,0.24,1.64,0.36,2.46c-0.2,0.07-0.39,0.14-0.59,0.2
	c-0.34-0.3-0.65-0.66-1.04-0.88c-1.04-0.6-1.91-0.69-1.98,0.9c-0.01,0.21,0,0.42,0,0.63c-0.06,3.03-0.17,3.1-2.63,2.2
	c-2.21,2.19-4.33,4.29-6.56,6.51c0.12,0.18,0.43,0.55,0.64,0.96c0.3,0.58,0.91,1.43,0.71,1.73c-0.35,0.54-1.17,0.97-1.84,1.06
	c-1.66,0.23-3.35,0.28-5.03,0.32c-2.49,0.06-4.85-3.81-4.1-6.24c0.35-1.14,0.43-2.95-0.22-3.66c-0.72-0.78-2.43-0.71-3.72-0.83
	c-0.27-0.02-0.77,0.73-0.88,1.19c-0.22,0.94-0.24,1.93-0.35,3.01c0.91,0.5,2.93,0.13,2.15,2.31c-0.03,0.08,0.98,0.54,1.51,0.82
	c-0.15,0.22-0.31,0.44-0.46,0.65c-0.48,0.07-0.97,0.14-1.42,0.2c-1.17,2.77,1.88,2.16,2.73,3.46c-0.38,0.57-0.76,1.12-0.9,1.33
	c0.21,1.2,0.36,2.07,0.58,3.28c1.36,0.55,1.64,1.79,1.29,3.68c-0.36,1.91,0.04,3.94-0.13,5.9c-0.14,1.62-0.63,3.2-0.99,4.96
	c-1.11-0.34-1.82-0.56-2.71-0.83c-0.51,2.09-1,4.12-1.56,6.39c-1.75-1.61-3.08-0.69-4.79-0.2c-2.26,0.65-3.56,1.87-5.13,3.41
	c-1.18,1.16-1.91,1.51-0.96,3.18c0.62,1.09,0.7,2.4-0.24,3.74c-0.73,1.03-1.81,2.56,0.13,3.71c-2.12,0.73-4.21,1.45-5.87,2.03
	c-0.16,1.25-0.32,2.38-0.45,3.52c-0.06,0.48-0.26,1.06-0.07,1.42c0.68,1.28,0.73,2.42,0.11,3.8c-0.23,0.53,0.37,1.87,0.97,2.25
	c2.16,1.36,1.82,2.99,1.05,4.94c-0.62,1.59-0.96,3.29-1.42,4.94c-0.35-1.6-0.59-3.24-1.1-4.79c-0.24-0.72-1.01-1.26-1.54-1.88
	l-0.03-0.02c-0.26-0.43-0.52-0.87-0.78-1.3c0,0,0-0.01,0-0.01c-0.25-0.44-0.5-0.89-0.75-1.33l-0.1,0.07
	c-0.04-0.26-0.08-0.52-0.12-0.79c-0.2-0.33-0.41-0.66-0.61-0.99l-0.11,0.07c0.01-0.29,0.03-0.58,0.04-0.88c0-1.55,0-3.1,0-4.66
	c-0.02-0.29-0.03-0.59-0.05-0.88c0,0,0.11,0.06,0.11,0.06c0.18-0.34,0.35-0.68,0.53-1.02c0.25-0.92,0.5-1.85,0.75-2.77l-0.01,0.01
	c0.12-0.16,0.23-0.32,0.35-0.49c2.13-3.67,4.1-7.46,6.46-10.97c1.13-1.69,3.01-2.89,4.55-4.31c1.88-0.62,3.73-1.33,5.64-1.82
	c1.88-0.49,3.19-1.88,3.48-4.09c0.22-0.55,0.43-1.09,0.65-1.64c0,0,0.09,0.05,0.09,0.05c0.67-0.58,1.34-1.16,2.01-1.75
	c0,0,0.01-0.01,0.01-0.01c0.17-0.28,0.34-0.56,0.51-0.84c-0.02-1.42-0.04-2.84-0.05-4.25c-0.14-0.85-0.29-1.7-0.43-2.55
	c-0.03-0.27-0.06-0.55-0.08-0.82c-0.03-0.28-0.06-0.57-0.1-0.85c-0.02-0.23-0.04-0.46-0.06-0.69c0.22-1.23,0.47-2.48-1.04-3.13
	c-0.33-1.11-0.66-2.23-0.98-3.34c-0.65-2.41-1.31-4.82-1.96-7.23c0-0.28,0-0.55,0-0.83c0.09-1.14,0.18-2.28,0.27-3.41
	c0.08-0.27,0.17-0.54,0.25-0.81c0.14-0.41,0.27-0.82,0.41-1.23c0.37-0.55,0.73-1.09,1.15-1.72c1.33-0.04,2.36,0.31,2.64,1.95
	c0.09,0.53,0.64,0.99,0.98,1.48c0.18,0.12,0.37,0.24,0.55,0.36c1.04,1.08,2.3,2.02,3.07,3.27c1.17,1.88,2.87,3.23,4.84,2.93
	c2.35-0.36,4.79-1.33,5.67-4.08c1.72-2.11,3.44-4.21,5.16-6.32c0.53-0.3,1.06-0.6,1.59-0.91c0.74-0.21,1.48-0.43,2.22-0.64
	c0.5-0.02,1-0.04,1.5-0.05c0.34,0.2,0.69,0.4,1.03,0.6c0.71,0.84,1.42,1.68,2.14,2.51c0.21,1.03,0.42,2.05,0.63,3.08
	c0.01,0.4,0.01,0.8,0.02,1.2l-0.17-0.03c-0.12,1.01-0.56,2.12-0.28,3c0.38,1.2,1.37,1.42,2.24,0.2c0.33-0.3,0.67-0.6,1-0.9
	c1.85-1.9,1.01-4.25,1.08-6.45c0.03-0.27,0.07-0.54,0.1-0.81c0.12-0.28,0.24-0.56,0.36-0.84l0,0c3.12-0.83,4.09-0.47,5.83,2.17
	c0.09,1.15,0.18,2.3,0.27,3.46c0.05,0.24,0.11,0.48,0.16,0.72c-0.1,0.27-0.2,0.55-0.31,0.82c-0.48,1.41-0.96,2.82-1.44,4.22
	c-0.04,0.39-0.08,0.79-0.13,1.18c-0.01,1.06-0.02,2.11-0.03,3.17c0.04,0.24,0.09,0.49,0.13,0.73c0.2,0.5,0.37,1.03,0.62,1.51
	C575.19,449.92,576,451.38,576.79,452.86z"/>
<path class="st1" d="M464.67,597.56c0.05-0.15,0.1-0.3,0.15-0.45c0.67-1.82,1.34-3.63,2.01-5.45c0.08-0.27,0.16-0.54,0.24-0.8
	c0.14-0.7,0.29-1.39,0.43-2.09c0.04-0.59,0.08-1.19,0.11-1.78c0.47-1.04,0.03-3.01,1.74-2.79c0.95,0.12,1.85,1.53,2.57,2.51
	c0.85,1.18,1.36,2.6,2.23,3.77c1.3,1.75,2.78,3.38,4.18,5.05l0.02,0.02c1.19,2.5,2.37,4.99,3.57,7.48c0.76,1.58,1.55,3.16,2.33,4.73
	c0.65,1.81,1.29,3.62,1.94,5.43c-0.05,0.89-0.17,1.78-0.12,2.66c0.07,1.49-0.25,2.71-1.75,3.34c-0.15,0.13-0.29,0.27-0.44,0.4l0,0
	c-0.54,0.45-1.08,0.9-1.62,1.35c-0.09,0.07-0.2,0.11-0.31,0.14c-0.34,0.21-0.68,0.42-1.02,0.63c0,0,0.09,0.13,0.09,0.13
	c-0.16-0.03-0.32-0.05-0.48-0.08c-1.03,0.04-2.06,0.09-3.09,0.13c-1.5-0.92-3.01-1.85-4.51-2.77c-0.02-0.12-0.05-0.24-0.11-0.35
	c-0.53-1-1.06-2-1.59-2.99c-0.05-0.14-0.09-0.28-0.14-0.42c-0.1-0.14-0.19-0.29-0.29-0.43c-0.14-0.14-0.28-0.28-0.41-0.42
	c-1.12-3.77-2.83-7.22-5.52-10.13c-0.04-0.14-0.09-0.27-0.13-0.41c-0.11-0.57-0.23-1.14-0.34-1.71c-0.04-0.27-0.08-0.55-0.12-0.82
	c0.01-0.59,0.01-1.18,0.02-1.77c0.04-0.27,0.08-0.55,0.11-0.82C464.49,598.43,464.58,597.99,464.67,597.56z"/>
<path class="st1" d="M523.62,736c0.01-0.42,0.01-0.84,0.02-1.26c0.42-0.84,0.85-1.69,1.27-2.53c0.1-0.05,0.2-0.09,0.3-0.12
	c1.44-0.67,1.76-1.82,1.41-3.27c0.02-1.13,0.03-2.26,0.05-3.39c-0.43-1.91-0.82-3.84-1.33-5.73c-0.23-0.83-0.72-1.59-1.1-2.38
	c-0.25-0.22-0.5-0.44-0.75-0.66c-0.24-0.46-0.49-0.92-0.73-1.38c-0.05-0.39-0.09-0.79-0.14-1.18c-0.19-0.48-0.37-0.96-0.56-1.43
	c0-0.24-0.01-0.48-0.01-0.72c0.52-1.72,1.03-3.44,1.55-5.17c0.03-0.12,0.05-0.25,0.05-0.38c0.11-0.16,0.23-0.32,0.34-0.49
	c0.03-0.52,0.05-1.04,0.08-1.57c0.12-0.16,0.23-0.32,0.35-0.48c0.02-0.15,0.05-0.29,0.07-0.44c0.15-0.27,0.29-0.55,0.44-0.82
	c1.22,0.25,2.83-0.72,3.53,1.13c-0.03,1.75-0.06,3.49-0.09,5.24c-0.15,0.14-0.31,0.28-0.46,0.42c-1.71,0.79-1.52,1.63-0.06,2.5
	c3.41-0.87,4.58-5.42,2.18-8.48c0.03-0.92,0.05-1.84,0.08-2.76c1.76-0.2,3.48-0.34,3.38,2.25c-0.01,0.48-0.01,0.95-0.02,1.43
	c0.02,0.93,0.03,1.86,0.05,2.79c0.09,0.31,0.18,0.63,0.27,0.94c0.28,0.91,0.43,1.9,0.88,2.72c1.47,2.66,3.04,5.27,4.58,7.89
	c0.24,1.03,0.49,2.07,0.73,3.1c-0.05,0.5-0.1,1.01-0.15,1.51c-0.03,0.28-0.06,0.57-0.1,0.85c-0.06,0.25-0.13,0.51-0.19,0.76
	c-0.14,0.37-0.27,0.74-0.41,1.1c-0.04,0.22-0.08,0.45-0.12,0.67c-0.04,0.28-0.09,0.57-0.13,0.85c-0.03,0.83-0.07,1.66-0.1,2.49
	c-0.19,0.35-0.39,0.69-0.58,1.04c-0.04,1.5-0.07,3-0.11,4.51c-0.28,0.45-0.57,0.9-0.85,1.35c-0.1,0.07-0.21,0.13-0.33,0.17
	c-1.1-0.01-2.2-0.02-3.31-0.02c-0.22-0.04-0.45-0.08-0.67-0.13c-0.7-0.23-1.4-0.46-2.09-0.68c-1.81,0.11-1.7,1.44-1.7,2.7
	c0,0.55-0.02,1.1-0.03,1.65c-0.56,0.15-1.11,0.31-1.67,0.46c-0.28-0.01-0.56-0.02-0.83-0.04c-0.57-0.55-1.13-1.1-1.7-1.65l0,0
	c-0.27-0.43-0.55-0.86-0.82-1.29l0,0C523.92,737.4,523.77,736.7,523.62,736z"/>
<path class="st1" d="M614.15,625.93c-1.22-0.36-0.98-0.98-0.3-1.68c-0.08-2.23-0.16-4.46-0.25-6.69c-0.28-0.16-0.55-0.33-0.84-0.5
	c-0.11-0.16-0.22-0.32-0.33-0.47c-0.15-0.54-0.31-1.07-0.47-1.61c-1.92-2.08-2.36-4.52-1.69-7.21c-0.04-0.67-0.08-1.35-0.13-2.01
	c-0.21-0.74-0.6-1.49-0.62-2.24c-0.03-2.01,0.08-4.01,0.14-6.02c-0.03-0.25-0.06-0.5-0.08-0.75c-0.35-0.68-0.69-1.35-1.05-2.03
	c-1.5-1.78-1.83-3.78-1.2-5.98c0.11-1.13,0.21-2.26,0.32-3.39c-0.39,0.64-0.78,1.28-1.23,2.01c-0.47-0.36-0.92-0.72-1.89-1.47
	c-0.29,2.34-0.46,4.23-0.78,6.1c-0.36,2.05,0.39,3.35,2.41,3.89c2.44,0.64,2.89,1.57,2.21,3.92c-0.22,0.77,0.03,1.68,0.01,2.52
	c-0.06,1.75,0.5,4-0.38,5.13c-1.51,1.92-1.01,3.44,0.19,4.62c1.78,1.79,2.19,3.77,2.14,6.11c-0.01,0.69,0.39,1.64,0.92,2.05
	c1.57,1.19,1.57,3.61,0.04,4.98c-0.53,0.48-0.89,1.61-0.71,2.27c0.12,0.45,1.3,0.71,2.04,0.87c0.43,0.09,0.94-0.16,1.42-0.26
	c0.09-0.3,0.19-0.6,0.29-0.91C614.27,626.76,614.22,626.34,614.15,625.93z M612.07,618.59c-0.12-0.05-0.3-0.08-0.33-0.16
	c-0.03-0.08,0.08-0.23,0.14-0.35c0.12,0.05,0.3,0.08,0.33,0.16C612.23,618.33,612.12,618.47,612.07,618.59z"/>
<path class="st1" d="M445.01,585.5c-1.17,1.07-2.54,1.91-3.82,2.86c-1.76-0.93-3.31-0.61-4.66,0.82c-0.98,0.05-1.96,0.1-2.93,0.15
	c-0.7,0.24-1.41,0.47-2.11,0.71c-2-0.15-4.19,0.64-5.71-1.61c-0.37-0.55-1.63-0.51-2.49-0.74c-0.63-0.8-1.33-1.57-1.91-2.4
	c-0.8-1.17-1.55-2.38-2.27-3.61c-0.45-0.76-0.84-1.57-1.19-2.39c-0.54-1.23-0.93-2.53-1.58-3.69c-0.17-0.3-1.13-0.34-1.64-0.19
	c-0.29,0.08-0.66,0.89-0.55,1.19c0.94,2.45,1.98,4.85,3.01,7.26c0.11,0.24,0.36,0.42,0.58,0.6c1.79,1.54,1.57,3.53-0.5,4.64
	c-1.28,0.68-2.55,1.38-3.82,2.07c-1.64-0.03-3.29-0.04-4.94-0.07c-0.24-0.06-0.48-0.12-0.73-0.18c-0.55-0.65-1.09-1.3-1.64-1.96
	c-0.07-0.03-0.14-0.05-0.2-0.05c-0.75-0.54-1.5-1.08-2.24-1.62h-0.03c-1.13-0.96-2.27-1.94-3.4-2.9c-0.51-0.76-1.02-1.52-1.53-2.29
	c-0.08-0.34-0.18-0.67-0.26-1.01c-0.13-0.15-0.25-0.3-0.38-0.46c-0.03-0.57-0.06-1.13-0.09-1.68c0.91-1.27,0.44-2.25-0.63-3.11
	c-0.86-0.34-1.86-1.14-2.56-0.93c-1.96,0.58-2.39-0.21-2.31-1.88c1.89,1.39,2.33,1.25,4.07-1.31c0.91,0.9,2.6,0.81,2.65,2.82
	c0.02,0.7,0.8,1.79,2.43,1.59c2.25-0.28,4.6,0.19,6.9,0.28c1.87,0.07,3.5-0.33,4.86-1.9c0.53-0.61,1.9-0.47,2.97-0.69
	c0.27,0.36,0.53,1.08,0.99,1.23c1.57,0.53,1.55,1.78,1.63,3.03c0.02,0.19-0.21,0.47-0.14,0.59c0.83,1.35,1.58,2.78,2.59,4
	c1.13,1.38,2.72,1.62,4.36,0.94c0.63-0.26,1.21-0.68,1.81-1.02c-0.59-0.64-1.27-1.88-1.75-1.81c-2.45,0.38-2.7-1.96-3.81-3.03
	c-0.85-0.81,0.4-1.33,1.3-1.34c3-0.02,5.99-0.01,8.98-0.31c1.07-0.64-0.43-4.66,2.67-2.16c-0.03,0.27-0.04,0.55-0.07,0.82
	l-0.03,0.02c-0.27,0.22-0.8,0.53-0.76,0.65c0.12,0.36,0.47,0.64,0.72,0.96l0.01,0.01c0.27,0.14,0.55,0.28,0.83,0.41
	c0.7-0.01,1.41-0.02,2.12-0.03c0.89,0.03,1.78,0.07,2.67,0.1c1.78,0.7,3.56,1.41,5.33,2.11
	C448.13,580.86,447.19,583.52,445.01,585.5z"/>
<path class="st1" d="M487.18,576.14c-0.2,0.86-0.4,1.74-0.6,2.6c-0.63-0.91-1.24-1.81-1.87-2.72c-0.12-0.16-0.24-0.32-0.36-0.48
	c-0.03-0.12-0.08-0.24-0.13-0.35c-0.74-2.54-2.95-2.35-4.9-2.66c-1.57-1.82-3.13-3.64-4.7-5.46c-0.43-0.41-0.86-0.82-1.3-1.24
	c-0.57-0.84-1.13-1.68-1.7-2.51c-0.13-0.71-0.25-1.41-0.36-2.12c1.01-1.92,1.89-3.91,3.04-5.74c1.78-2.81,1.35-5.65,0.6-8.97
	c-1.93,1.51-2.47,3.44-2.39,5.22c0.11,2.35-0.6,3.8-2.69,4.82c-2.62,1.29-3.72,3.62-3.72,6.47c-0.01,1.45-0.74,2-2.07,2
	c-0.11-0.38-0.22-0.75-0.33-1.13v-0.01c0.05-0.08,0.1-0.17,0.16-0.25c0.11-0.17,0.24-0.34,0.36-0.52c0.3-0.43,0.58-0.86,0.6-1.3
	c0.11-2.18,0.24-4.18,2.84-4.95c0.35-0.1,0.46-1.02,0.66-1.57c0.41-1.08,0.42-2.59,2.26-1.84c0.55-3.23,1.08-6.31,1.59-9.35
	c0.29-0.03,0.43-0.06,0.56-0.03c4.23,0.71,5.45,3.21,4.48,7.24c-0.19,0.77,0.41,1.85,0.9,2.62c1.36,2.14,0.94,5.05-1.13,5.95
	c-0.16-0.83-0.25-1.64-0.49-2.4c-0.11-0.34-0.51-0.69-0.85-0.8c-0.2-0.07-0.74,0.25-0.81,0.48c-0.3,0.92-0.3,1.96-0.72,2.8
	c-0.36,0.73-1.13,1.25-1.29,1.41c0.95,1.37,1.54,2.46,2.36,3.34c0.58,0.6,1.47,0.89,2.38,1.41c-2.26,2.32,0.76,3.05,1.35,4.55
	c0.04,0.1,0.74,0.06,1.08-0.08c0.94-0.35,1.82-0.95,2.78-1.1c0.45-0.07,1.25,0.58,1.5,1.08c0.43,0.91,0.49,2,0.86,2.95
	c0.38,0.97,0.96,1.87,1.45,2.81C486.76,576.26,486.97,576.2,487.18,576.14z"/>
<path class="st1" d="M383.55,535.1c0,0.04-0.02,0.08-0.04,0.13c-0.01,0.05-0.03,0.09-0.06,0.13c-0.05,0.08-0.12,0.17-0.2,0.25
	c-0.07,0.07-0.16,0.15-0.26,0.22c-0.08,0.06-0.17,0.12-0.27,0.18c-0.09,0.06-0.18,0.11-0.25,0.17c-0.08,0.05-0.15,0.11-0.21,0.17
	c-0.24,0.21-0.39,0.43-0.47,0.68c-0.02,0.04-0.03,0.09-0.04,0.14c-0.01,0.05-0.02,0.11-0.02,0.16c-0.02,0.19-0.01,0.39,0.03,0.61
	c0.03,0.16,0.08,0.32,0.13,0.5c0.02,0.05,0.02,0.1,0.03,0.15c0.01,0.06,0.01,0.11,0.01,0.17c0,0.08-0.01,0.16-0.02,0.25
	c-0.03,0.25-0.12,0.52-0.23,0.77c-0.03,0.07-0.06,0.14-0.1,0.2c-0.03,0.06-0.06,0.12-0.1,0.18c-0.03,0.06-0.07,0.12-0.1,0.18
	c-0.02,0.03-0.05,0.06-0.08,0.09c-0.05,0.05-0.12,0.11-0.2,0.15c-0.05,0.03-0.1,0.06-0.16,0.08c-0.04,0.02-0.09,0.04-0.14,0.05
	c-0.11,0.04-0.22,0.06-0.32,0.07c-0.09,0.02-0.18,0.02-0.26,0c-0.04,0.01-0.07,0-0.1-0.01c-0.3-0.08-0.54-0.7-0.63-1.11
	c-0.11-0.47,0.13-1.07-0.08-1.45c-0.28-0.54-0.78-1.04-1.3-1.32c-0.32-0.16-1.23,0.05-1.26,0.21c-0.04,0.23-0.07,0.48-0.07,0.73
	c0,0.13,0.01,0.26,0.03,0.38c0,0.01,0,0.02,0,0.02c0.02,0.13,0.05,0.25,0.08,0.37c0.03,0.08,0.06,0.16,0.1,0.23
	c0.27,0.52,0.54,1.05,0.82,1.57c0.55,1.07,1.12,2.14,1.69,3.21c0.85,1.59,1.71,3.19,2.55,4.78c0.22,0.42,0.25,0.92,0.37,1.38
	l-0.06,0.06c-0.26-0.01-0.53-0.03-0.79-0.04c-0.27-0.02-0.54-0.04-0.81-0.05l0.05-0.13c-0.72-0.65-1.44-1.31-2.16-1.97
	c-0.17-1.4-0.34-2.8-0.52-4.19c-0.55-0.7-1.1-1.39-1.65-2.09l-0.03-0.03c-0.14-0.71-0.28-1.41-0.42-2.12
	c-0.14-0.42-0.28-0.84-0.42-1.26c-0.4-0.73-0.8-1.45-1.21-2.17c0-0.13-0.02-0.26-0.06-0.39c-0.11-0.17-0.22-0.34-0.33-0.51
	c-0.27-0.27-0.55-0.54-0.82-0.81c-0.58-0.71-1.15-1.42-1.72-2.13c-0.13-0.14-0.26-0.28-0.38-0.41c-1.42-1.57-2.84-3.14-4.25-4.71
	c-0.23-0.76-0.46-1.52-0.69-2.28c0.01-1.37,0.02-2.74,0.02-4.1c0.05-0.38,0.09-0.76,0.13-1.13c0.04-0.28,0.08-0.56,0.12-0.85
	c0.03-0.25,0.06-0.51,0.1-0.77c0.18-0.62,0.35-1.24,0.53-1.86c-0.03-0.27-0.06-0.54-0.1-0.82c0.13-0.8,0.26-1.6,0.4-2.4
	c0.15-0.63,0.31-1.25,0.47-1.88l0.13,0.04c1.88,2.04,0.28,4.26,0.25,6.38c-0.01,0.19-0.02,0.38-0.03,0.57c0,0.01,0,0.01,0,0.02
	c-0.02,0.18-0.04,0.36-0.07,0.54c-0.01,0.16-0.04,0.32-0.07,0.48c-0.04,0.22-0.08,0.43-0.12,0.65c-0.06,0.28-0.12,0.56-0.18,0.84
	c-0.11,0.46-0.21,0.92-0.29,1.38c-0.05,0.23-0.09,0.46-0.11,0.69c-0.01,0.05-0.02,0.09-0.02,0.14c-0.03,0.18-0.05,0.37-0.06,0.55
	c-0.11,1.54,0.65,2.78,2.18,3.08c0.29-0.51,0.52-1,0.77-1.45c0.08-0.15,0.16-0.29,0.25-0.43c0.07-0.12,0.15-0.23,0.23-0.34
	c0.09-0.14,0.2-0.26,0.32-0.38h0.01c0,0,0.01-0.01,0.03-0.03c0,0,0-0.01,0.01-0.01s0.02-0.01,0.03-0.02
	c0.03-0.02,0.06-0.03,0.1-0.03c0.23-0.07,0.59-0.01,0.96,0.06c0.25,0.05,0.5,0.1,0.71,0.11c-0.18,0.59-0.2,1.55-0.58,1.72
	c-0.24,0.11-0.46,0.21-0.67,0.33c-0.2,0.11-0.38,0.23-0.53,0.36c-0.11,0.1-0.2,0.2-0.28,0.32c-0.07,0.11-0.12,0.23-0.16,0.36
	c-0.06,0.23-0.04,0.5,0.06,0.81c0.06,0.2,0.16,0.41,0.3,0.64c1.97,3.37,2.57,3.74,4.73,2.86c2.1-0.85,4.03-0.13,5.07,1.73
	c0.14,0.24,0.4,0.43,0.69,0.6c0.15,0.08,0.3,0.16,0.46,0.23c0.07,0.03,0.15,0.07,0.23,0.11c0.08,0.03,0.15,0.06,0.22,0.1
	c0.09,0.04,0.17,0.09,0.25,0.14c0.06,0.04,0.12,0.07,0.17,0.11c0.06,0.03,0.11,0.07,0.16,0.11c0.1,0.07,0.2,0.14,0.27,0.22
	c0.1,0.11,0.18,0.21,0.24,0.32C383.55,534.79,383.58,534.94,383.55,535.1z"/>
<path class="st1" d="M500.68,597.24c-1.05-1.31-2.1-2.61-3.16-3.92c-0.76-0.97-1.52-1.94-2.28-2.91c-0.41-0.43-0.82-0.85-1.23-1.28
	l0,0c-1.7-1.83-3.4-3.67-5.1-5.5c-0.76-1.6-1.51-3.21-2.27-4.81c4.51,0.81,7.33-1.37,9.05-5.46c0.23,0.05,0.46,0.11,0.69,0.16
	c0.06,1.69,0.51,3.5,0.07,5.05c-0.64,2.27,0.41,3.83,1.27,5.62c0.41,0.85,0.52,1.9,0.55,2.87c0.05,1.42,0.14,2.56,1.9,2.99
	c1.18,0.29,2.27,1.06,3.31,1.76c0.34,0.23,0.63,1.07,0.47,1.37c-0.37,0.69-1.14,1.79-1.57,1.71c-2.11-0.38-2.16,0.36-1.33,1.9
	C501.09,596.87,500.81,597.09,500.68,597.24z M493.86,583.3c-0.63,0.48-1.25,0.95-1.88,1.43c1.07,1.02,2.14,2.05,3.21,3.07
	c0.32-0.62,0.81-1.2,0.92-1.86C496.35,584.49,495.96,583.38,493.86,583.3z"/>
<path class="st1" d="M458.45,569.2c-0.37,0-0.74,0-1.12-0.01c-0.62-0.33-1.23-0.67-1.85-1.01l-0.12-0.13
	c-1.08-0.76-2.08-2.01-3.45-0.44c-1.23,1.62,0.07,1.77,1.19,2.07c1.65,0.43,2.83,2.22,1.87,2.98c-1.28,1.02-3,1.48-4.53,2.18
	l-0.12-0.03c-0.08-0.08-0.18-0.16-0.27-0.25c-0.11-0.1-0.22-0.19-0.34-0.3c-0.67-0.26-1.46-0.89-1.99-0.71
	c-1.89,0.64-2.69,0.19-2.92-1.85c-0.16-1.48-1.08-2.43-2.81-1.9h-3.9c-0.95,1.54,0.14,2.35,1.05,3.23
	c-0.02,0.29-0.03,0.58-0.05,0.87c-0.16,0.27-0.31,0.54-0.47,0.8c-0.54,0-1.08-0.01-1.63-0.02c-0.03-0.22-0.07-0.44-0.11-0.66
	c0.8-1.78-0.19-2.7-1.57-3.55c-0.52-0.32-0.85-0.95-1.26-1.43c0.51-0.28,1.01-0.77,1.53-0.8c3.76-0.25,7.6-0.89,10.96,1.61
	c-0.84,2.13-0.74,2.28,1.48,2.34c0.63,0.02,1.41-0.12,1.84,0.2c1.61,1.2,2.23-0.1,3.06-0.78c-1.25-0.63-2.76-0.95-3.49-1.87
	c-1.15-1.46-0.17-2.93,1.32-3.45c2.56-0.91,5.24-1.46,7.87-2.15C459.43,565.88,460.74,567.6,458.45,569.2z"/>
<path class="st1" d="M598.16,555.67c-0.03,0.58-0.05,1.15-0.08,1.74c-0.14,0.28-0.26,0.56-0.4,0.84c-1.67,0.44-2.61,0.35-2.76-1.91
	c-0.13-1.75-1.36-3.39-1.96-5.14c-0.31-0.9-0.36-1.89-0.41-2.84c-0.08-1.18-0.25-1.99-1.62-2.56c-0.8-0.34-1.07-1.94-1.57-2.96
	c0.19-0.13,0.38-0.26,0.57-0.39c-1.27-0.64-2.54-1.29-4.16-2.11c0-1.6-0.07-3.54,0.04-5.48c0.03-0.54,0.56-1.05,0.86-1.57
	c0.05,1.08,0.1,2.18,0.15,3.27c0.2,0.47,0.41,0.93,0.61,1.41l0.12-0.07c0.28,0.63,0.57,1.27,0.85,1.91
	c0.03,0.07,0.07,0.13,0.14,0.15c0.35,0.3,0.69,0.61,1.04,0.91c1.57,1,3.14,1.98,4.68,3.01c0.48,0.31,1.02,0.69,1.29,1.17
	c0.77,1.4,1.41,2.86,2.11,4.3c-0.08,1.38-0.15,2.75-0.23,4.12c0.17,0.34,0.35,0.68,0.52,1.02
	C598.02,554.87,598.09,555.27,598.16,555.67z"/>
<path class="st1" d="M578.66,458.92c0.05,0.25,0.1,0.49,0.15,0.74c0.15,0.58,0.31,1.16,0.46,1.74c0.04,0.26,0.08,0.51,0.12,0.77
	c0.02,0.42,0.03,0.84,0.05,1.26c0.04,0.54,0.08,1.08,0.13,1.61c-0.46,3.66-0.21,7.04,3.57,9.02c0.08,0.07,0.18,0.1,0.29,0.08
	c0.03,0.39,0.06,0.78,0.08,1.18c0.27,1.13,0.19,2.62,0.89,3.32c1.39,1.38,1.54,2.85,1.32,4.56c-0.12,0.92-0.2,1.84-0.3,2.76
	c-1.19-1.01-2.66-1.91-0.74-3.63c0.21-0.19,0-1.27-0.35-1.58c-1.45-1.29-2.55-2.66-2.64-4.73c-0.08-1.63-1.14-2.3-3-2
	c-0.18-3.38-0.31-6.58-0.56-9.78c-0.11-1.38-0.62-2.6-2.23-2.94c-0.32-0.07-0.66-0.27-0.89-0.51c-1.42-1.54-0.16-6.33,1.85-7.1
	c0.42,0.57,0.84,1.15,1.26,1.72c0.11,0.98,0.22,1.97,0.34,2.95C578.52,458.56,578.59,458.74,578.66,458.92z"/>
<path class="st1" d="M390.84,570.18c-0.99-0.3-1.97-0.58-2.96-0.87c-0.44-0.7-0.89-1.41-1.33-2.11c-0.96-1.57-1.92-3.13-2.88-4.7
	l-0.01-0.01c-0.14-0.29-0.26-0.58-0.4-0.86c-0.05-0.24-0.1-0.47-0.15-0.71c-0.19-0.49-0.4-0.97-0.6-1.46l-0.02-0.05
	c0.05-0.13,0.02-0.23-0.08-0.31c-0.03-0.14-0.07-0.28-0.09-0.41c-0.19-0.85-0.36-1.71-0.55-2.56c-0.01-1.24-0.01-2.48-0.02-3.72
	c0.2-0.85,0.41-1.71,0.6-2.56l0.06-0.06c0.29,1.02,0.72,2.03,0.8,3.07c0.14,1.53-0.15,3.02,2,3.57c1.18,0.3,1.4,3.2,0.55,4.33
	c-0.3,0.4-0.59,0.8-1.04,1.39h2.53c-0.08,0.73-0.1,1.47-0.28,2.18c-0.27,1.09,1.16,3.78,2.4,4.01
	C390.53,568.55,390.98,569.07,390.84,570.18z"/>
<path class="st1" d="M585.15,507.87c-0.01,2.21-0.02,4.42-0.02,6.63c-0.02,0.85-0.05,1.71-0.07,2.56l-0.13,0.12
	c-2.53-0.42-1.22,1.95-2.07,2.88c-1.58-0.13-1.51-1.27-1.15-2.24c1.06-2.82,0.99-5.53-0.18-8.3c-0.26-0.62-0.17-1.49,0.02-2.18
	c0.52-1.93,1.18-3.82,1.7-5.43c-0.07-0.15,0.07,0.15,0.2,0.45c0.05,0.12,0.08,0.24,0.09,0.37c-0.29,1.08-0.88,2.25,0.88,2.66
	c0.21,0.54,0.43,1.09,0.64,1.63C585.08,507.31,585.11,507.59,585.15,507.87z"/>
<path class="st1" d="M587.84,524.37c-0.06,0.73-0.11,1.45-0.16,2.18c-0.04,0.55-0.08,1.1-0.13,1.65c-0.03,0.29-0.07,0.57-0.1,0.85
	c-0.03,0.26-0.05,0.52-0.08,0.78c-0.24,0.3-0.48,0.61-0.72,0.91c-0.25-0.39-0.61-0.74-0.69-1.16c-0.15-0.77-0.14-1.57-0.2-2.35
	c-0.78,0.19-1.56,0.36-2.33,0.57c-0.31,0.09-0.61,0.27-0.89,0.4c-1.84-2.35-1.47-3.67,1.19-5.55
	C585.23,523.27,586.54,523.82,587.84,524.37z"/>
<path class="st1" d="M605.64,573.48c-0.02,0.28-0.04,0.57-0.06,0.85c-0.41-1.16-1.04-2.3-1.16-3.5c-0.22-2.32-1.41-3.96-3.76-4.6
	c-2.28-0.61-3.17-2.77-2.12-5.08c0.12-0.16,0.24-0.31,0.36-0.47c0.07,0.08,0.15,0.14,0.25,0.19c0.38,2.61,1.5,4.57,4.35,5.03
	C606.25,567.84,605.5,570.79,605.64,573.48z"/>
<path class="st1" d="M515.03,525.29c0.77-0.74,1.29-1.23,1.8-1.72c0.43,0.61,1.24,1.26,1.19,1.83c-0.06,0.67-0.86,1.27-1.34,1.9
	C516.21,526.74,515.75,526.18,515.03,525.29z"/>
<path class="st1" d="M585.46,486.21c2.57,1.86,2.74,5.72,0.34,7.78c0.09-0.47,0.05-1.03,0.3-1.4c1.07-1.59,0.28-2.9-0.41-4.32
	C585.41,487.69,585.53,486.9,585.46,486.21z"/>
<path class="st1" d="M614.6,630.16c0.21,0.25,0.42,0.49,0.62,0.74c0.05,0.61,0.11,1.23,0.16,1.84c-0.04,1.58-0.09,3.15-0.13,4.73
	c-0.23,0-0.47,0-0.7,0.01c-1.44-2.12-0.24-4.56-0.76-6.8C613.77,630.57,614.32,630.33,614.6,630.16z"/>
<path class="st1" d="M586.15,517.22c0.1,0.04,0.21,0.06,0.32,0.05c0.48,1.52,0.96,3.04,1.44,4.56c-0.99-1.55-1.99-3.1-2.98-4.65
	c0,0,0.13-0.12,0.12-0.12C585.42,517.12,585.78,517.17,586.15,517.22z"/>
<path class="st1" d="M502.8,600.57c-0.55-0.84-1.1-1.68-1.66-2.52c0.59,0.13,1.23,0.17,1.77,0.41c0.59,0.27,1.08,0.73,1.62,1.11
	C503.96,599.91,503.38,600.24,502.8,600.57z"/>
<path class="st2" d="M577.04,809.22c-0.01,2.12-0.02,4.23-0.04,6.35C577.02,813.45,577.03,811.34,577.04,809.22z"/>
<path class="st1" d="M607.33,582.37c-0.4-0.19-1.13-0.35-1.15-0.56c-0.09-1.52-0.05-3.04-0.04-4.56
	C606.54,578.96,606.94,580.66,607.33,582.37z"/>
<path class="st1" d="M463.52,563.57c-1.35-0.27-2.71-0.54-4.07-0.81c0.48-0.36,1.22-1.13,1.4-1.02
	C461.74,562.32,463.85,561.25,463.52,563.57z"/>
<path class="st1" d="M393.95,571.09c-0.51,0.53-1.01,1.07-1.51,1.59c-0.41-0.71-0.83-1.42-1.24-2.13h2.43
	C393.74,570.74,393.84,570.92,393.95,571.09z"/>
<path class="st3" d="M567.18,806.67c-0.85-1.11-1.71-2.22-2.56-3.33C565.47,804.46,566.33,805.56,567.18,806.67z"/>
<path class="st1" d="M572.62,626.69c0.14-0.24,0.29-0.49,0.43-0.73c0.62,0.47,1.23,0.93,1.85,1.4c-0.18,0.26-0.36,0.52-0.54,0.77
	C573.78,627.65,573.2,627.17,572.62,626.69z"/>
<path class="st2" d="M575.16,749.1c-0.18,1.34-0.36,2.68-0.54,4.02C574.8,751.78,574.98,750.44,575.16,749.1z"/>
<path class="st1" d="M488.32,542.22c0.69-0.06,1.38-0.11,2.07-0.17c0.02,0.26,0.04,0.53,0.06,0.79c-0.69,0.04-1.38,0.08-2.07,0.12
	C488.36,542.72,488.34,542.47,488.32,542.22z"/>
<path class="st1" d="M584.32,496.62c-0.27,0.06-0.55,0.12-0.82,0.18c-0.14-0.39-0.29-0.78-0.43-1.17c0.49-0.02,0.98-0.04,1.47-0.06
	c0.12,0.08,0.25,0.09,0.38,0.03C584.72,495.94,584.52,496.28,584.32,496.62z"/>
<path class="st2" d="M583.7,828.69c0.39,1,0.79,2,1.18,3.01C584.49,830.69,584.1,829.69,583.7,828.69z"/>
<path class="st3" d="M576.03,825.74c-0.57-0.68-1.14-1.37-1.7-2.05C574.9,824.37,575.47,825.05,576.03,825.74z"/>
<path class="st2" d="M595.78,744.59c-0.32-0.63-0.63-1.27-0.95-1.9C595.14,743.32,595.46,743.95,595.78,744.59z"/>
<path class="st3" d="M577.31,827.85c-0.42-0.7-0.85-1.41-1.27-2.11C576.46,826.44,576.88,827.15,577.31,827.85z"/>
<path class="st2" d="M620,736.42c0.11,0.59,0.22,1.18,0.34,1.77C620.22,737.61,620.11,737.01,620,736.42z"/>
<path class="st2" d="M548.83,778.74c0.09-0.42,0.17-0.84,0.26-1.25C549.01,777.91,548.92,778.33,548.83,778.74z"/>
<path class="st2" d="M535.78,704.41c0.47-0.17,0.95-0.35,1.42-0.52C536.72,704.07,536.25,704.24,535.78,704.41z"/>
<path class="st2" d="M536.35,708.92c-0.19-0.38-0.38-0.75-0.57-1.12C535.97,708.17,536.16,708.54,536.35,708.92z"/>
<path class="st2" d="M624.29,766.94c-0.46,0.38-0.91,0.76-1.37,1.14C623.38,767.7,623.83,767.32,624.29,766.94z"/>
<path class="st2" d="M543.41,756.8c-0.27-0.42-0.55-0.85-0.82-1.27C542.86,755.95,543.14,756.37,543.41,756.8z"/>
<path class="st2" d="M622.65,748.21c0.09,0.46,0.18,0.91,0.27,1.37C622.83,749.12,622.74,748.66,622.65,748.21z"/>
<path class="st2" d="M581.57,824.44c0.3,0.39,0.6,0.77,0.91,1.16C582.17,825.21,581.87,824.83,581.57,824.44z"/>
<path class="st2" d="M582.68,826.02c0.18,0.33,0.37,0.65,0.55,0.98C583.04,826.68,582.86,826.35,582.68,826.02z"/>
<path class="st2" d="M577.12,817.1c0.18,0.35,0.36,0.71,0.54,1.06C577.47,817.81,577.29,817.45,577.12,817.1z"/>
<path class="st2" d="M550.15,785.6c-0.22-0.33-0.44-0.66-0.65-0.99C549.71,784.93,549.93,785.26,550.15,785.6z"/>
<path class="st2" d="M533.87,698.19c-0.31,0.19-0.63,0.38-0.94,0.58C533.25,698.57,533.56,698.38,533.87,698.19z"/>
<path class="st1" d="M549.12,767.32c-0.07-0.27-0.14-0.54-0.2-0.82c0.25,0.13,0.5,0.27,0.75,0.4
	C549.48,767.04,549.3,767.18,549.12,767.32z"/>
<path class="st3" d="M568.24,762.79c0.26,0.34,0.52,0.67,0.78,1.01C568.75,763.46,568.49,763.13,568.24,762.79z"/>
<path class="st1" d="M479.92,535.27c-0.05,0.12-0.08,0.3-0.16,0.33c-0.08,0.03-0.23-0.08-0.34-0.14c0.05-0.12,0.08-0.3,0.16-0.33
	C479.66,535.1,479.8,535.22,479.92,535.27z"/>
<path class="st2" d="M567.43,761.63c0.19,0.35,0.37,0.7,0.56,1.05C567.8,762.33,567.62,761.98,567.43,761.63z"/>
<path class="st2" d="M538,703.85c0.29-0.14,0.57-0.28,0.86-0.42C538.57,703.57,538.28,703.71,538,703.85z"/>
<path class="st2" d="M567.39,759.61c-0.03,0.31-0.06,0.63-0.09,0.94C567.33,760.24,567.36,759.92,567.39,759.61z"/>
<path class="st3" d="M567.96,758.84c-0.14,0.27-0.28,0.55-0.42,0.82C567.68,759.39,567.82,759.12,567.96,758.84z"/>
<path class="st2" d="M545.08,759.38c-0.25-0.31-0.49-0.63-0.74-0.94C544.59,758.75,544.84,759.06,545.08,759.38z"/>
<path class="st2" d="M568.94,757.23c-0.25,0.31-0.5,0.62-0.75,0.93C568.44,757.85,568.69,757.54,568.94,757.23z"/>
<path class="st1" d="M479.12,540.2c0.12,0.05,0.3,0.08,0.33,0.16c0.03,0.08-0.08,0.23-0.14,0.34c-0.12-0.05-0.3-0.08-0.33-0.16
	C478.95,540.47,479.07,540.32,479.12,540.2z"/>
<path class="st2" d="M543.85,757.64c-0.14-0.28-0.28-0.56-0.42-0.84C543.57,757.09,543.71,757.37,543.85,757.64z"/>
<path class="st2" d="M538.42,711.87c-0.25,0.17-0.5,0.33-0.75,0.5C537.91,712.2,538.16,712.04,538.42,711.87z"/>
<path class="st1" d="M371,523.49c-0.12,0.12-0.23,0.24-0.32,0.38c0.08-0.11,0.17-0.21,0.26-0.3
	C370.97,523.54,370.99,523.51,371,523.49L371,523.49z M627.51,760.18c-0.39-0.72-0.78-1.43-1.18-2.15c-0.64-1-1.46-1.92-1.87-3.01
	c-0.64-1.63-0.99-3.37-1.47-5.07c-0.03-0.12-0.06-0.25-0.07-0.37c-0.09-0.46-0.18-0.91-0.27-1.37c-0.19-0.82-0.38-1.64-0.58-2.46
	c-0.41-1.98-0.83-3.95-1.24-5.92l-0.11,0.06c-0.1-0.44-0.21-0.87-0.32-1.31c-0.02-0.13-0.05-0.26-0.07-0.38
	c-0.11-0.6-0.22-1.19-0.33-1.77c-0.04-0.69-0.08-1.37-0.11-2.04c-0.38-1.83-0.91-3.64-1.1-5.5c-0.19-1.7-0.04-3.45-0.03-5.18
	c0.09-0.56,0.19-1.13,0.28-1.7c0-0.25-0.01-0.5-0.02-0.75c-0.21-0.4-0.6-0.79-0.61-1.2c-0.16-8.16-0.35-16.32-0.39-24.48
	c-0.01-1.35,0.67-2.72,1.03-4.08c0.02-0.27,0.05-0.53,0.08-0.79c0.23-1.3,0.47-2.59,0.71-3.89c0.11-0.5,0.22-1,0.34-1.51
	c0.16-0.48,0.33-0.97,0.49-1.45c0-0.23,0.01-0.46,0.01-0.69c-0.33-1.74-0.66-3.47-0.99-5.22c-0.62-2.3-1.29-4.59-1.83-6.91
	c-0.24-1.04-0.2-2.15-0.29-3.22l-0.13,0.07c-0.26-1.14-0.52-2.28-0.79-3.41c-0.02-0.27-0.05-0.54-0.07-0.8
	c-0.17-0.77-0.34-1.54-0.5-2.31c-0.05-0.49-0.11-0.98-0.16-1.47c-0.23-1.35-0.45-2.69-0.68-4.03c-0.56-1.63-1.13-3.24-1.66-4.86
	c-0.76-2.31-0.39-2.97,1.96-3.01c2.93-0.03,2.29-2.15,2.41-3.85c-0.17-0.4-0.34-0.81-0.51-1.22c-0.5-1.02-1-2.05-1.5-3.07
	l-0.12,0.04c-0.42-0.81-0.84-1.61-1.27-2.43c-0.15-0.22-0.27-0.44-0.36-0.67c-0.05-0.11-0.09-0.22-0.13-0.34
	c-0.07-0.22-0.13-0.45-0.16-0.68c0-0.02-0.01-0.03-0.01-0.05c-0.01-0.04-0.01-0.09-0.01-0.13c-0.02-0.1-0.03-0.2-0.04-0.3v-0.03
	c0-0.01,0-0.01,0-0.02c-0.11-1.51,0.31-3.09-0.04-4.57v-0.01c0-0.01,0-0.01,0.01-0.02c0-0.01,0-0.01,0.01-0.03
	c0.03-0.02,0.06-0.05,0.11-0.08c0.02-0.02,0.05-0.03,0.08-0.05c0.02-0.01,0.06-0.03,0.09-0.05c0.17-0.09,0.36-0.19,0.5-0.28h0.01
	c-0.02-0.14-0.06-0.27-0.12-0.4c-0.02-0.03-0.04-0.06-0.06-0.08c-0.02-0.03-0.03-0.05-0.05-0.08l-0.01-0.01
	c-0.02-0.03-0.04-0.06-0.06-0.09c-0.06-0.09-0.12-0.18-0.18-0.27c-0.02-0.39-0.05-0.77-0.07-1.15c-0.49,0.1-1,0.35-1.43,0.26
	c-0.74-0.16-1.92-0.42-2.04-0.87c-0.17-0.66,0.18-1.79,0.71-2.27c1.54-1.37,1.54-3.78-0.04-4.98c-0.53-0.4-0.93-1.35-0.92-2.05
	c0.05-2.34-0.36-4.31-2.14-6.11c-1.2-1.18-1.7-2.7-0.19-4.62c0.88-1.13,0.32-3.38,0.38-5.13c0.03-0.84-0.23-1.75-0.01-2.52
	c0.69-2.35,0.23-3.28-2.21-3.92c-2.02-0.54-2.76-1.85-2.41-3.89c0.32-1.87,0.49-3.77,0.78-6.11c0.97,0.76,1.42,1.11,1.89,1.48
	c0.45-0.74,0.84-1.38,1.23-2.02c-0.11-0.99-0.22-1.97-0.33-2.96c-0.39-0.19-1.13-0.35-1.15-0.56c-0.09-1.52-0.05-3.04-0.04-4.56
	c-0.19-0.98-0.37-1.95-0.56-2.92c-0.4-1.16-1.04-2.31-1.16-3.5c-0.22-2.32-1.41-3.96-3.76-4.6c-2.27-0.6-3.17-2.76-2.12-5.07
	c-0.29-0.98-0.57-1.95-0.86-2.92c-1.66,0.44-2.6,0.35-2.76-1.91c-0.12-1.75-1.36-3.39-1.95-5.14c-0.31-0.89-0.36-1.88-0.42-2.84
	c-0.07-1.18-0.24-1.99-1.61-2.57c-0.8-0.33-1.07-1.93-1.58-2.96c0.2-0.13,0.38-0.26,0.57-0.39c-1.27-0.64-2.54-1.28-4.16-2.11
	c0-1.6-0.06-3.53,0.05-5.47c0.02-0.54,0.56-1.05,0.86-1.58c0.08-0.38,0.14-0.75,0.22-1.12c-0.08-0.48-0.17-0.95-0.25-1.42
	c-0.24-0.39-0.6-0.74-0.69-1.16c-0.15-0.77-0.14-1.56-0.2-2.35c-0.78,0.19-1.56,0.36-2.33,0.57c-0.31,0.09-0.61,0.27-0.89,0.4
	c-1.84-2.36-1.47-3.68,1.19-5.56c1.5,0.64,2.81,1.19,4.11,1.74c0.14,0,0.29,0,0.43-0.01c0.07-0.25,0.15-0.52,0.21-0.78
	c0.01-0.31,0.03-0.63,0.04-0.94c-0.05-0.28-0.09-0.55-0.14-0.83c-0.15,0.01-0.31,0.02-0.47,0.03c-0.99-1.55-1.99-3.1-2.98-4.65
	c-0.76-0.13-1.17,0-1.4,0.26c-0.04,0.05-0.08,0.09-0.1,0.14c-0.04,0.06-0.06,0.12-0.08,0.18c-0.03,0.06-0.05,0.13-0.06,0.2
	c-0.02,0.08-0.03,0.16-0.04,0.24c0,0.03-0.01,0.05-0.01,0.07c-0.01,0.14-0.02,0.28-0.03,0.43c-0.01,0.1-0.01,0.2-0.02,0.3
	c0,0.06-0.01,0.12-0.01,0.18c-0.02,0.18-0.05,0.35-0.11,0.51c-0.02,0.07-0.05,0.14-0.09,0.2s-0.08,0.12-0.13,0.17
	c-0.26-0.02-0.47-0.07-0.65-0.14c-0.18-0.07-0.31-0.17-0.41-0.28c-0.43-0.45-0.32-1.17-0.08-1.82c1.07-2.82,0.99-5.52-0.18-8.29
	v-0.01c-0.27-0.62-0.17-1.49,0.01-2.18c0.06-0.24,0.13-0.48,0.21-0.71c0.06-0.24,0.13-0.48,0.21-0.72c0.43-1.42,0.9-2.78,1.28-3.98
	c0.04,0.07,0.11,0.26,0.2,0.44c0.02-1.86,0.04-3.72,0.06-5.57c-0.15-0.39-0.29-0.78-0.43-1.18c0.49-0.02,0.98-0.03,1.47-0.05
	c0.42-0.53,0.85-1.06,1.27-1.59c0.07-0.35,0.06-0.76,0.16-1.09c0.03-0.11,0.07-0.22,0.13-0.31c0.19-0.28,0.32-0.55,0.41-0.82
	c0.04-0.13,0.07-0.26,0.09-0.39c0.04-0.29,0.04-0.57-0.01-0.85c-0.02-0.13-0.05-0.26-0.09-0.39c-0.04-0.14-0.08-0.28-0.14-0.42
	c-0.05-0.15-0.11-0.29-0.17-0.43c-0.1-0.22-0.21-0.45-0.32-0.68c-0.06-0.11-0.12-0.23-0.17-0.34c-0.25-0.51-0.19-1.18-0.22-1.8
	c-0.01-0.09-0.01-0.17-0.02-0.26c0.01-0.09-0.01-0.16-0.04-0.24h-0.01v-0.01c-0.05-0.04-0.09-0.08-0.14-0.11
	c-0.37-0.31-0.75-0.61-1.03-0.93c-0.08-0.08-0.14-0.16-0.2-0.24s-0.11-0.16-0.15-0.25c-0.04-0.08-0.08-0.17-0.1-0.26v-0.01
	c-0.03-0.09-0.04-0.18-0.04-0.27c0-0.12,0.02-0.24,0.05-0.36c0.04-0.12,0.09-0.24,0.16-0.36v-0.01c0.03-0.04,0.05-0.09,0.09-0.14
	c0.03-0.04,0.07-0.09,0.11-0.14s0.08-0.1,0.13-0.16c0.04-0.05,0.1-0.1,0.15-0.16c0.07-0.07,0.15-0.14,0.23-0.22
	c0.21-0.19,0-1.27-0.34-1.57c-1.45-1.29-2.55-2.66-2.64-4.73c-0.08-1.63-1.15-2.3-3.01-2c-0.05-0.84-0.09-1.68-0.13-2.51
	c-0.09-1.65-0.16-3.27-0.26-4.87c-0.05-0.8-0.11-1.6-0.17-2.4c-0.01-0.15-0.03-0.3-0.05-0.44c-0.01-0.03-0.01-0.07-0.02-0.1
	c0-0.02-0.01-0.04-0.01-0.06c-0.02-0.14-0.05-0.27-0.09-0.39c-0.04-0.15-0.09-0.3-0.15-0.44c0-0.01-0.01-0.03-0.02-0.04
	c-0.05-0.12-0.12-0.25-0.2-0.36c0-0.02-0.01-0.04-0.03-0.06c-0.04-0.05-0.08-0.11-0.12-0.16c-0.06-0.08-0.12-0.15-0.19-0.22
	c-0.04-0.03-0.08-0.07-0.13-0.11c-0.06-0.06-0.13-0.11-0.21-0.16c-0.05-0.03-0.1-0.06-0.15-0.09c-0.09-0.06-0.2-0.11-0.31-0.15
	c-0.16-0.07-0.34-0.13-0.54-0.17c-0.02,0-0.04-0.01-0.07-0.01c-0.06-0.01-0.12-0.03-0.18-0.06c-0.16-0.06-0.32-0.15-0.45-0.26
	c-0.07-0.05-0.13-0.11-0.19-0.17c-0.08-0.09-0.15-0.18-0.21-0.29c-0.03-0.05-0.07-0.1-0.09-0.16c-0.03-0.06-0.06-0.12-0.08-0.18
	c-0.06-0.16-0.11-0.33-0.15-0.52c-0.03-0.16-0.05-0.33-0.06-0.51c-0.01-0.02-0.01-0.03-0.01-0.05c-0.01-0.11-0.01-0.22-0.01-0.34
	c0-0.18,0.01-0.37,0.03-0.56c0.02-0.2,0.04-0.4,0.08-0.6c0.03-0.16,0.06-0.33,0.1-0.49c0.08-0.33,0.18-0.66,0.3-0.97
	c0.06-0.15,0.12-0.3,0.19-0.45c0.04-0.09,0.08-0.18,0.13-0.26c0.04-0.09,0.09-0.17,0.14-0.25c0.05-0.1,0.11-0.2,0.18-0.29
	c0.04-0.07,0.09-0.13,0.14-0.2c0.04-0.06,0.09-0.12,0.14-0.18c0.06-0.08,0.13-0.16,0.21-0.23c0-0.01,0.01-0.02,0.02-0.03
	c0.1-0.1,0.19-0.19,0.29-0.26c0.16-0.12,0.33-0.22,0.51-0.29c-0.02-0.27-0.05-0.56-0.08-0.84c-1.1-0.53-2.2-1.05-3.44-1.63
	c-0.64-2.49-1.33-5.17-2.14-8.28c-0.97,0.32-2.39,0.46-2.49,0.9c-0.18,0.81,0.36,1.82,0.7,2.72c0.28,0.71,0.72,1.37,0.98,2.07
	c0.04,0.11,0.08,0.2,0.1,0.31l0.01,0.01c0.02,0.07,0.01,0.15-0.01,0.24c-0.01,0.05-0.02,0.1-0.05,0.16
	c-0.01,0.05-0.03,0.1-0.06,0.15c-0.01,0.04-0.03,0.07-0.05,0.1c-0.12,0.23-0.3,0.43-0.46,0.51c-0.1,0.05-0.26,0.06-0.42,0.04
	c-0.05,0-0.1-0.01-0.14-0.02c-0.05-0.01-0.1-0.02-0.15-0.04c-0.2-0.05-0.38-0.14-0.49-0.24c-0.02-0.03-0.04-0.05-0.06-0.08
	c-0.05-0.09-0.11-0.17-0.17-0.25c-0.06-0.08-0.12-0.15-0.17-0.22c-0.06-0.07-0.12-0.14-0.18-0.2s-0.13-0.12-0.19-0.17
	c-0.06-0.06-0.12-0.11-0.19-0.15c-0.09-0.07-0.18-0.13-0.27-0.17c-0.1-0.06-0.2-0.11-0.31-0.15c0-0.01-0.01-0.01-0.02-0.01
	c-0.1-0.04-0.21-0.08-0.32-0.11c-0.12-0.03-0.24-0.06-0.36-0.08c-0.18-0.03-0.37-0.05-0.56-0.06c-0.18-0.01-0.36-0.02-0.54-0.02
	c-0.66,0-1.34,0.05-2-0.01c-1-0.09-1.98-0.4-3.47-0.72c3.38-2.03,3.48-2.3,2.8-5.54c-0.06-0.3,0.06-0.68,0.19-0.98
	c1.09-2.57,1.03-5.25,0.42-7.83c-0.64-2.69-1.7-3.28-3.83-2.85h-0.01c0.03,0.17,0.05,0.35,0.08,0.53c0.01,0.03,0.01,0.06,0.02,0.09
	c0.01,0.07,0.02,0.13,0.03,0.2c0.01,0.14,0.04,0.27,0.06,0.41c0.06,0.41,0.12,0.82,0.18,1.23h-0.01c-0.05,0.02-0.1,0.04-0.15,0.05
	c-0.15,0.06-0.29,0.11-0.44,0.15c-0.17-0.14-0.33-0.31-0.5-0.46c-0.17-0.16-0.35-0.3-0.54-0.41c-1.04-0.6-1.91-0.69-1.98,0.9
	c-0.01,0.21,0,0.42-0.01,0.63c-0.01,0.5-0.02,0.92-0.04,1.26c-0.02,0.26-0.04,0.49-0.08,0.67c-0.01,0.06-0.02,0.12-0.04,0.17
	c0,0.03-0.01,0.06-0.02,0.09c-0.03,0.07-0.05,0.14-0.08,0.19c-0.04,0.07-0.08,0.14-0.14,0.19c-0.34,0.3-0.98,0.09-2.23-0.37
	c-0.55,0.55-1.1,1.09-1.64,1.63c-1.63,1.62-3.24,3.21-4.92,4.88c0.03,0.04,0.07,0.1,0.12,0.16c0.04,0.05,0.08,0.11,0.12,0.17
	s0.09,0.12,0.13,0.19c0.09,0.13,0.18,0.29,0.27,0.44c0.3,0.58,0.91,1.42,0.72,1.73c-0.35,0.54-1.17,0.97-1.84,1.06
	c-0.41,0.06-0.83,0.1-1.25,0.14c-1.25,0.1-2.52,0.14-3.78,0.18c-2.49,0.06-4.85-3.81-4.1-6.23c0.35-1.15,0.43-2.96-0.23-3.66
	c-0.71-0.78-2.42-0.72-3.71-0.83c-0.07-0.01-0.16,0.04-0.24,0.12c-0.03,0.03-0.07,0.06-0.1,0.1c-0.1,0.11-0.2,0.25-0.29,0.4
	c-0.03,0.05-0.05,0.1-0.08,0.15c-0.03,0.04-0.05,0.09-0.07,0.14c-0.01,0.04-0.03,0.07-0.04,0.1c-0.03,0.06-0.05,0.12-0.06,0.18
	c-0.04,0.2-0.08,0.4-0.11,0.61c-0.03,0.2-0.06,0.41-0.08,0.62c-0.02,0.14-0.03,0.28-0.04,0.41c-0.02,0.19-0.03,0.39-0.05,0.58
	c-0.03,0.26-0.05,0.52-0.08,0.79h0.01c0.1,0.05,0.22,0.1,0.34,0.14c0.02,0,0.03,0.01,0.05,0.01c0.06,0.02,0.14,0.04,0.21,0.06
	c0.22,0.05,0.45,0.1,0.67,0.16c0.12,0.03,0.24,0.07,0.36,0.12c0.06,0.02,0.11,0.05,0.16,0.08c0.06,0.02,0.1,0.05,0.15,0.09
	c0.05,0.03,0.09,0.07,0.13,0.11c0.04,0.04,0.07,0.08,0.1,0.13c0.03,0.05,0.06,0.1,0.08,0.16c0.03,0.06,0.04,0.12,0.05,0.19
	c0.01,0.06,0.02,0.13,0.02,0.21c0,0.06,0,0.12-0.01,0.18c-0.01,0.13-0.04,0.27-0.09,0.43c-0.02,0.08-0.05,0.16-0.08,0.25
	c0,0.01,0.02,0.03,0.04,0.05c0.05,0.03,0.12,0.07,0.21,0.12c0.06,0.04,0.12,0.07,0.2,0.11c0.11,0.06,0.23,0.12,0.35,0.18
	c0.09,0.04,0.17,0.09,0.25,0.13c0.17,0.08,0.33,0.16,0.46,0.23c-0.15,0.22-0.31,0.43-0.47,0.65c-0.48,0.07-0.96,0.14-1.41,0.2
	c-0.19,0.45-0.27,0.81-0.26,1.1c0,0.19,0.03,0.34,0.1,0.48c0.06,0.14,0.16,0.27,0.27,0.37c0.11,0.1,0.24,0.19,0.39,0.27
	c0.14,0.08,0.3,0.15,0.46,0.22h0.01c0.16,0.06,0.33,0.13,0.5,0.19c0.19,0.08,0.39,0.16,0.57,0.25c0.01,0,0.01,0.01,0.02,0.01
	s0.01,0.01,0.02,0.01s0.01,0.01,0.02,0.01c0.07,0.05,0.15,0.09,0.21,0.14c0.09,0.06,0.16,0.12,0.23,0.19
	c0.04,0.03,0.07,0.07,0.1,0.11c0.04,0.03,0.06,0.07,0.09,0.11c-0.05,0.07-0.1,0.14-0.14,0.21c-0.09,0.14-0.19,0.27-0.28,0.4
	c-0.21,0.32-0.4,0.59-0.48,0.72c0.21,1.2,0.36,2.06,0.57,3.27c1.37,0.55,1.65,1.8,1.29,3.69c-0.01,0.03-0.01,0.05-0.01,0.08
	c-0.03,0.16-0.05,0.33-0.07,0.5c-0.02,0.14-0.03,0.29-0.04,0.44c-0.02,0.3-0.03,0.59-0.03,0.89c-0.01,1.13,0.1,2.29,0.06,3.43
	c-0.01,0.19-0.03,0.37-0.04,0.56c-0.02,0.2-0.04,0.4-0.06,0.6c-0.05,0.41-0.13,0.81-0.21,1.21c-0.05,0.25-0.11,0.51-0.17,0.76
	c-0.18,0.77-0.38,1.55-0.55,2.38v0.01c-0.14-0.04-0.27-0.09-0.4-0.13c-0.25-0.08-0.49-0.15-0.71-0.22c-0.28-0.09-0.54-0.17-0.8-0.25
	c-0.13-0.04-0.26-0.08-0.39-0.12c-0.13-0.04-0.27-0.08-0.41-0.12c-0.51,2.1-1,4.11-1.55,6.39V472c-0.07-0.06-0.13-0.12-0.2-0.18
	c-0.07-0.05-0.14-0.1-0.2-0.15c-0.07-0.05-0.14-0.1-0.2-0.14c-0.07-0.04-0.13-0.08-0.2-0.12c0,0,0,0-0.01,0
	c-0.17-0.09-0.33-0.16-0.5-0.21c-0.12-0.04-0.25-0.07-0.38-0.08c-0.12-0.02-0.24-0.03-0.36-0.03c-0.17,0-0.34,0.02-0.5,0.05
	c-0.11,0.01-0.22,0.03-0.33,0.06c-0.28,0.06-0.56,0.15-0.85,0.25c-0.34,0.11-0.69,0.23-1.06,0.34c-0.07,0.02-0.14,0.04-0.21,0.07
	c-0.07,0.02-0.14,0.04-0.21,0.07c-0.27,0.09-0.52,0.18-0.76,0.29c-0.01,0-0.02,0.01-0.03,0.01c-0.11,0.05-0.22,0.1-0.33,0.16
	c-0.11,0.05-0.23,0.11-0.34,0.18c-0.11,0.06-0.22,0.12-0.33,0.19c-0.21,0.13-0.41,0.26-0.61,0.4c-0.15,0.11-0.3,0.22-0.44,0.34
	c-0.13,0.1-0.25,0.21-0.38,0.32c-0.01,0.01-0.03,0.02-0.04,0.03c-0.11,0.09-0.22,0.19-0.33,0.3c-0.18,0.15-0.36,0.32-0.54,0.5
	c-0.19,0.17-0.38,0.36-0.58,0.55c-0.2,0.2-0.4,0.38-0.56,0.54c-0.08,0.08-0.16,0.15-0.23,0.23c-0.08,0.08-0.15,0.15-0.21,0.23
	c-0.06,0.07-0.12,0.14-0.17,0.21c-0.04,0.07-0.09,0.14-0.12,0.22c-0.03,0.07-0.06,0.14-0.07,0.21c-0.01,0.02-0.01,0.05-0.01,0.07
	c-0.02,0.06-0.03,0.13-0.03,0.2c0,0.09,0.01,0.18,0.03,0.28c0.03,0.18,0.1,0.39,0.21,0.63c0.06,0.11,0.12,0.24,0.2,0.37
	c0.29,0.51,0.47,1.08,0.47,1.67c0,0.1-0.01,0.21-0.02,0.32c0,0.05-0.01,0.1-0.02,0.15c0,0.05-0.02,0.11-0.03,0.16
	c-0.04,0.21-0.11,0.43-0.2,0.65c-0.05,0.13-0.12,0.26-0.19,0.39c-0.04,0.07-0.08,0.13-0.12,0.2s-0.09,0.13-0.14,0.2
	s-0.1,0.15-0.15,0.23c-0.06,0.08-0.11,0.16-0.17,0.24c-0.06,0.09-0.11,0.17-0.16,0.26c-0.05,0.09-0.1,0.18-0.15,0.27
	c-0.05,0.09-0.09,0.18-0.13,0.28c-0.03,0.07-0.06,0.14-0.08,0.21c-0.02,0.05-0.03,0.1-0.05,0.15c0,0.01-0.01,0.02-0.01,0.03
	s-0.01,0.02-0.01,0.03c-0.01,0.03-0.01,0.07-0.02,0.1c-0.01,0.03-0.01,0.07-0.01,0.1c-0.02,0.08-0.02,0.17-0.02,0.25v0.01
	c0,0.04,0,0.08,0.01,0.12c0,0.03,0.01,0.07,0.02,0.12c0,0.04,0.01,0.09,0.03,0.14c0.02,0.07,0.04,0.13,0.07,0.2v0.01
	c0.06,0.13,0.14,0.26,0.27,0.39c0.05,0.06,0.12,0.13,0.19,0.19s0.14,0.13,0.23,0.19c0.08,0.07,0.17,0.12,0.27,0.18
	c0,0.01,0.01,0.01,0.01,0.01c-0.26,0.09-0.53,0.18-0.79,0.27c-0.79,0.27-1.57,0.54-2.32,0.8c-0.25,0.08-0.49,0.17-0.73,0.25
	c-0.09,0.03-0.18,0.06-0.27,0.09c-0.36,0.13-0.7,0.25-1.03,0.36c-0.25,0.09-0.5,0.17-0.73,0.25c-0.17,1.25-0.32,2.39-0.45,3.52
	c-0.06,0.48-0.27,1.06-0.07,1.41c0.07,0.14,0.14,0.27,0.19,0.41c0.03,0.06,0.06,0.12,0.08,0.18c0,0.01,0.01,0.02,0.01,0.03
	c0.04,0.11,0.08,0.22,0.11,0.33c0.01,0.03,0.02,0.06,0.03,0.09c0.04,0.15,0.07,0.3,0.09,0.45c0.09,0.6,0.02,1.2-0.21,1.84
	c-0.05,0.16-0.12,0.32-0.19,0.48c-0.23,0.53,0.37,1.87,0.97,2.25c1.33,0.84,1.71,1.78,1.63,2.84c-0.02,0.19-0.05,0.38-0.09,0.57
	c-0.02,0.09-0.05,0.2-0.07,0.3c-0.08,0.29-0.18,0.59-0.3,0.9c-0.04,0.11-0.08,0.21-0.12,0.32c-0.62,1.59-0.96,3.28-1.42,4.94v0.01
	c0.12,0.56,0.24,1.12,0.36,1.69c0.32,1.69,0.64,3.38,0.96,5.08c-0.02,1.28-0.03,2.55-0.04,3.82c-0.56,0.6-1.03,1.32-1.69,1.76
	c-0.76,0.53-1.67,0.83-2.53,1.23c0.39,3.58-2.1,5.21-4.61,6.82c-0.52,0.3-1.03,0.6-1.54,0.89c-0.23,0.09-0.46,0.16-0.69,0.25
	c-1.14,1.22-2.42,2.03-4.18,1.41c-0.55,0.26-1.11,0.53-1.66,0.79c-0.15,0.31-0.31,0.61-0.46,0.92c0,0.21,0.08,0.47-0.02,0.62
	c-0.32,0.46-0.7,0.88-1.06,1.32c-0.05-0.57-0.11-1.13-0.16-1.7c-0.7-0.57-1.4-0.78-2.1-0.78c-1,0-1.99,0.43-2.98,0.87
	c-0.37,1.15-0.62,2.39-1.19,3.44c-0.31,0.55-1.19,0.78-1.82,1.15c-0.38-0.75-1.08-1.52-1.07-2.26c0.04-1.17-0.34-1.41-1.38-1.48
	c-3.21-0.24-6-3.34-6.02-6.6c0-0.91,0.04-1.82,0.06-2.73c-1-1.35-3.45-1.95-2.52-4.28c0.64-1.59,0-2.64-0.91-3.72
	c-1.75-1.96-2.3-4.27-2.03-6.83c-0.44-1.71-0.88-3.41-1.32-5.12c-0.51-0.11-1.03-0.22-1.55-0.33c-1.27-0.24-1.35-0.87-0.27-2.25
	c0-0.5,0.01-1,0.02-1.5c-0.32-0.03-0.6-0.06-0.86-0.08c-0.24-0.03-0.46-0.05-0.65-0.08c-0.6-0.09-0.99-0.19-1.24-0.38
	c-0.04-0.03-0.07-0.06-0.1-0.09c-0.06-0.05-0.1-0.11-0.13-0.18c-0.02-0.04-0.04-0.07-0.05-0.11c-0.01-0.02-0.01-0.04-0.02-0.06
	c-0.01-0.03-0.02-0.07-0.02-0.11c-0.06-0.25-0.05-0.57-0.01-0.98c0.02-0.21,0.05-0.43,0.08-0.68c0-0.01,0-0.01,0-0.02
	c-0.39-0.62-0.77-1.24-1.14-1.85c-0.6-0.4-1.2-0.81-1.8-1.21c-0.38-0.06-0.76-0.12-1.14-0.18c-1.02,0.07-2.04,0.15-3.06,0.24
	c-0.39,0.47-0.77,0.95-1.15,1.43c-0.06,0.42-0.12,0.84-0.18,1.26c-0.02,0.25-0.02,0.51-0.04,0.75v0.01
	c-0.17,1.19-0.34,2.39-0.51,3.58c0.01,1.07,0.02,2.12,0.03,3.18c0.22,0.88,0.45,1.77,0.67,2.65c-0.01,0.29-0.04,0.58-0.06,0.87
	c0.08,0.11,0.13,0.22,0.16,0.35c0.45,1.33,0.89,2.66,1.33,3.99c0.02,0.4,0.05,0.81,0.07,1.22h0.11c0.15,0.27,0.31,0.53,0.47,0.8
	c0.09,0.55,0.07,1.14,0.3,1.63c0.82,1.71,1.12,3.37-0.6,4.65c-1.26,0.95-3.99,0.68-5.2-0.67c-0.11-0.11-0.19-0.22-0.27-0.34
	l-0.33-0.27l-1.65,2.06l-3.86,5.37l-8.15,4.01l-0.09,0.06c-0.02,0.02-1.33,1.18-2.73,1.44c-1.07,0.19-2.68,0.52-4.04,0.8l-1.57,0.31
	c-1.36,0.28-5.53,1.11-7.57,0.98c-0.72-0.05-1.72-0.15-2.83-0.26c-2.15-0.21-4.57-0.44-6.14-0.44c-0.84,0-1.34,0.08-1.74,0.16
	c-0.74,0.12-1.19,0.2-3.31-0.43c-3.31-0.96-5.98-1.8-6.01-1.81l-0.21,0.52l-1.49,1.22l-2.97-1.22c0,0-0.88-0.22-1.98-0.77
	c0,0-2.31-0.11-2.76,0c-0.44,0.11-0.77,0.55-0.77,0.55s-0.77,1-1.65,1.66l-2.64-0.11l-3.96-0.33l-2.64-0.34l-0.23-0.88l0.11-1.43
	l-0.11-1.21l-0.11-0.77c0,0-1.21-0.66-2.31-0.55c0,0-0.11,0.77-0.88,1.65c0,0-1.21,0.11-2.53,0.22l-2.31-2.53l2.09-0.44l0.66-0.88
	l0.11-1.54l-0.99,0.77l-0.77-0.55l-0.55-0.88l-0.77-0.55l0.11-0.77l-0.5-0.67l-4.71-1.63l-0.96,0.76c0,0,0,0-0.33,0.22
	c-0.29,0.19-0.93,0.96-1.08,1.15c0.01,0,0.02-0.01,0.03-0.02c0.03-0.02,0.06-0.03,0.1-0.03c0.23-0.07,0.59-0.01,0.96,0.06
	c0.25,0.04,0.49,0.09,0.71,0.11c-0.18,0.59-0.2,1.55-0.58,1.72c-0.24,0.11-0.46,0.21-0.67,0.33c-0.2,0.11-0.38,0.23-0.53,0.36
	c-0.11,0.1-0.2,0.2-0.28,0.32c-0.07,0.11-0.12,0.23-0.16,0.36c-0.06,0.23-0.04,0.5,0.06,0.81c0.06,0.2,0.16,0.41,0.3,0.64
	c1.97,3.37,2.57,3.74,4.73,2.86c2.1-0.85,4.03-0.13,5.07,1.73c0.14,0.24,0.4,0.43,0.69,0.6c0.15,0.08,0.3,0.16,0.46,0.23
	c0.07,0.03,0.15,0.07,0.23,0.11c0.08,0.04,0.15,0.08,0.22,0.11c0.09,0.04,0.17,0.09,0.25,0.13c0.06,0.04,0.12,0.07,0.17,0.11
	c0.06,0.03,0.11,0.07,0.16,0.11c0.1,0.07,0.2,0.14,0.27,0.22c0.11,0.1,0.19,0.21,0.24,0.32c0.08,0.15,0.11,0.3,0.07,0.46
	c0,0.04-0.02,0.08-0.04,0.13c-0.01,0.05-0.03,0.09-0.06,0.13c-0.05,0.08-0.11,0.17-0.2,0.25c-0.07,0.07-0.16,0.15-0.26,0.22
	c-0.08,0.06-0.17,0.12-0.27,0.18c-0.09,0.06-0.18,0.11-0.25,0.17c-0.08,0.05-0.15,0.11-0.21,0.17c-0.24,0.21-0.39,0.43-0.47,0.68
	c-0.02,0.04-0.03,0.09-0.04,0.14c-0.01,0.05-0.02,0.11-0.02,0.16c-0.02,0.19-0.01,0.39,0.03,0.61c0.03,0.15,0.07,0.32,0.12,0.5
	c0.01,0.05,0.02,0.1,0.04,0.15c0.01,0.06,0.01,0.11,0.01,0.17c0,0.08-0.01,0.16-0.02,0.25c-0.03,0.25-0.12,0.52-0.23,0.77
	c-0.03,0.07-0.06,0.14-0.1,0.2c-0.03,0.06-0.06,0.12-0.1,0.18c-0.02,0.06-0.05,0.12-0.09,0.18c-0.02,0.04-0.05,0.07-0.09,0.09
	c-0.05,0.05-0.12,0.11-0.2,0.15c-0.05,0.03-0.1,0.06-0.16,0.08c-0.04,0.02-0.09,0.04-0.14,0.05c-0.11,0.04-0.22,0.06-0.32,0.07
	c-0.09,0.02-0.18,0.02-0.26,0c-0.04,0.01-0.07,0-0.1-0.01c-0.3-0.08-0.54-0.7-0.63-1.11c-0.11-0.47,0.13-1.07-0.08-1.45
	c-0.28-0.54-0.78-1.04-1.3-1.32c-0.32-0.16-1.23,0.05-1.26,0.21c-0.04,0.23-0.07,0.48-0.07,0.73c0,0.13,0.01,0.26,0.03,0.38
	c0,0.01,0,0.02,0,0.02c0.02,0.13,0.05,0.25,0.08,0.37c0.02,0.08,0.06,0.16,0.09,0.23c0.27,0.53,0.55,1.05,0.83,1.57
	c0.55,1.07,1.12,2.14,1.69,3.21c0.85,1.59,1.71,3.19,2.55,4.78c0.22,0.42,0.25,0.92,0.37,1.38c0.29,1.02,0.72,2.03,0.8,3.07
	c0.14,1.54-0.15,3.03,2,3.58c1.18,0.29,1.4,3.2,0.55,4.33c-0.3,0.4-0.59,0.8-1.04,1.39h2.53c-0.08,0.73-0.1,1.47-0.28,2.18
	c-0.27,1.09,1.16,3.79,2.4,4.01c1.15,0.22,1.6,0.74,1.46,1.85c0.12,0.13,0.25,0.24,0.36,0.37h2.43c0.11,0.19,0.22,0.37,0.33,0.54
	c-0.51,0.54-1.01,1.07-1.51,1.59c-0.01,0.13,0,0.26,0.02,0.38c1.89,1.39,2.33,1.25,4.08-1.31c0.91,0.89,2.59,0.81,2.65,2.81
	c0.01,0.71,0.8,1.8,2.42,1.6c2.26-0.28,4.6,0.18,6.9,0.27c1.87,0.07,3.5-0.33,4.86-1.89c0.54-0.61,1.91-0.47,2.97-0.69
	c0.27,0.36,0.54,1.08,0.99,1.23c1.57,0.53,1.55,1.78,1.64,3.03c0.01,0.2-0.21,0.47-0.14,0.59c0.83,1.36,1.58,2.79,2.59,4.01
	c1.14,1.38,2.72,1.61,4.36,0.94c0.64-0.27,1.21-0.68,1.81-1.02c-0.59-0.64-1.27-1.88-1.75-1.81c-2.45,0.38-2.7-1.96-3.81-3.03
	c-0.85-0.81,0.4-1.33,1.3-1.34c2.99-0.02,5.99-0.01,8.98-0.31c1.07-0.65-0.43-4.66,2.66-2.16c0.64,0.03,1.27,0.04,1.9,0.07
	c0.8-1.78-0.19-2.7-1.57-3.55c-0.52-0.32-0.84-0.95-1.26-1.43c0.51-0.28,1.01-0.77,1.53-0.8c3.76-0.25,7.61-0.89,10.97,1.6
	c-0.84,2.14-0.74,2.28,1.48,2.35c0.62,0.02,1.41-0.12,1.83,0.2c1.61,1.2,2.24-0.1,3.06-0.78c-1.25-0.63-2.76-0.94-3.49-1.87
	c-1.15-1.45-0.17-2.93,1.32-3.45c2.56-0.91,5.24-1.46,7.88-2.15c0.28-0.47,0.55-0.94,0.82-1.41c0.48-0.36,1.22-1.13,1.39-1.02
	c0.9,0.58,3.01-0.49,2.68,1.83c-0.01,0.13,0.05,0.23,0.17,0.3c0.05-0.08,0.1-0.17,0.16-0.25c0.11-0.17,0.24-0.34,0.35-0.52
	c0.3-0.43,0.58-0.86,0.61-1.3c0.11-2.18,0.23-4.18,2.83-4.95c0.35-0.1,0.46-1.03,0.66-1.58c0.41-1.07,0.42-2.59,2.26-1.83
	c0.55-3.23,1.08-6.31,1.59-9.35c0.29-0.02,0.43-0.06,0.56-0.03c4.23,0.71,5.45,3.21,4.48,7.23c-0.19,0.77,0.41,1.86,0.9,2.63
	c1.36,2.14,0.94,5.05-1.13,5.95c-0.16-0.83-0.24-1.64-0.49-2.4c-0.11-0.34-0.51-0.69-0.85-0.81c-0.2-0.07-0.74,0.25-0.81,0.48
	c-0.3,0.93-0.3,1.96-0.72,2.81c-0.36,0.72-1.13,1.25-1.29,1.41c0.95,1.37,1.54,2.46,2.37,3.33c0.57,0.6,1.47,0.89,2.37,1.42
	c-2.26,2.32,0.77,3.04,1.35,4.55c0.04,0.1,0.75,0.06,1.08-0.07c0.94-0.35,1.82-0.95,2.78-1.1c0.45-0.07,1.25,0.57,1.5,1.08
	c0.43,0.9,0.49,2,0.86,2.94c0.38,0.98,0.96,1.87,1.45,2.81c0.2-0.06,0.41-0.12,0.62-0.18c-0.21,0.86-0.4,1.73-0.6,2.6
	c0,0.01,0.07,0.1,0.07,0.1h0.01c0.31,0.06,0.61,0.1,0.9,0.12c0.3,0.03,0.59,0.04,0.88,0.04c0.24,0,0.48-0.01,0.71-0.03
	c0.19-0.02,0.38-0.04,0.56-0.07c0.15-0.02,0.29-0.05,0.43-0.09c0.07-0.01,0.14-0.03,0.21-0.05c0.09-0.02,0.17-0.04,0.25-0.07
	c0.01,0,0.01,0,0.02-0.01c0.16-0.04,0.32-0.1,0.47-0.16c0.2-0.08,0.4-0.17,0.59-0.27c0.19-0.09,0.37-0.2,0.55-0.32
	c0.09-0.05,0.18-0.11,0.27-0.18c0.09-0.06,0.17-0.13,0.26-0.19c0.17-0.14,0.33-0.28,0.49-0.43c0.57-0.54,1.08-1.19,1.53-1.93
	c0.11-0.19,0.22-0.38,0.33-0.57c0.11-0.2,0.21-0.41,0.31-0.62c0.09-0.21,0.19-0.42,0.28-0.64h0.01c0.24,0.06,0.46,0.11,0.69,0.16
	c0.05,1.69,0.51,3.51,0.07,5.05c-0.14,0.5-0.2,0.96-0.2,1.4c0,0.19,0.01,0.38,0.04,0.57c0.02,0.14,0.04,0.27,0.06,0.39
	c0,0.01,0.01,0.03,0.01,0.04c0.02,0.07,0.03,0.13,0.05,0.2c0.01,0.04,0.02,0.08,0.03,0.11c0,0.02,0.01,0.04,0.01,0.06
	c0.02,0.08,0.04,0.15,0.07,0.23c0.01,0.02,0.01,0.03,0.02,0.05c0.01,0.04,0.03,0.08,0.04,0.12c0,0.01,0,0.01,0,0.01
	c0.01,0.04,0.03,0.08,0.04,0.11c0.01,0.03,0.02,0.06,0.04,0.09c0.04,0.12,0.09,0.24,0.14,0.35c0.12,0.29,0.26,0.58,0.4,0.87
	c0.17,0.34,0.34,0.68,0.51,1.03c0.1,0.21,0.19,0.44,0.26,0.67s0.12,0.48,0.16,0.72c0.05,0.24,0.08,0.49,0.09,0.74
	c0.02,0.25,0.03,0.5,0.04,0.74c0.03,0.71,0.06,1.35,0.31,1.87c0.1,0.19,0.22,0.37,0.39,0.52c0.07,0.07,0.14,0.13,0.23,0.19
	c0.08,0.05,0.17,0.11,0.27,0.16c0.09,0.04,0.19,0.09,0.29,0.12c0.13,0.05,0.26,0.09,0.41,0.13h0.01c0.11,0.03,0.23,0.06,0.34,0.1
	c0.1,0.04,0.21,0.07,0.31,0.12c0.16,0.06,0.32,0.13,0.48,0.21c0.19,0.09,0.38,0.19,0.57,0.3c0.06,0.03,0.12,0.07,0.19,0.11
	c0.21,0.12,0.42,0.26,0.62,0.39c0.14,0.09,0.27,0.17,0.4,0.27c0.13,0.08,0.26,0.17,0.39,0.25v0.01c0.04,0.02,0.07,0.05,0.1,0.09
	c0.06,0.06,0.11,0.13,0.16,0.22c0.03,0.04,0.05,0.09,0.07,0.13c0.02,0.05,0.04,0.09,0.06,0.14c0.06,0.14,0.1,0.28,0.11,0.42
	c0,0,0.01,0.01,0.01,0.02c0.01,0.13,0,0.26-0.04,0.34c-0.25,0.46-0.67,1.1-1.05,1.45c-0.03,0.03-0.07,0.06-0.1,0.09
	c-0.03,0.03-0.07,0.06-0.11,0.08c-0.05,0.03-0.1,0.06-0.14,0.07c-0.03,0.02-0.06,0.03-0.09,0.03h-0.04
	c-0.01-0.01-0.02-0.01-0.03-0.01c-0.09-0.02-0.18-0.03-0.26-0.04c-0.1-0.01-0.19-0.03-0.27-0.03c-0.07-0.01-0.14-0.01-0.2-0.01
	c-0.08-0.01-0.16-0.01-0.23-0.01c-0.09,0-0.18,0.01-0.25,0.02c-0.08,0.01-0.16,0.03-0.22,0.05c-0.05,0.01-0.08,0.03-0.12,0.05
	c-0.05,0.02-0.09,0.05-0.12,0.08c-0.02,0.01-0.04,0.03-0.05,0.05c-0.02,0.02-0.04,0.05-0.05,0.08c-0.01,0.01-0.02,0.02-0.02,0.04
	c-0.01,0.02-0.02,0.04-0.02,0.05c-0.02,0.06-0.03,0.13-0.03,0.2c0,0.34,0.19,0.8,0.5,1.38v0.01c0.01,0,0.01,0.01-0.01,0.03
	c-0.01,0.03-0.04,0.06-0.07,0.1c-0.02,0.02-0.04,0.04-0.06,0.06l-0.06,0.06c-0.03,0.03-0.06,0.05-0.09,0.09
	c-0.04,0.02-0.06,0.06-0.09,0.08c0.16,0.27,0.31,0.54,0.46,0.81c0.6,0.13,1.23,0.17,1.77,0.42c0.59,0.26,1.08,0.72,1.62,1.1
	c-0.59,0.34-1.15,0.67-1.73,1c0.03,0.28,0.05,0.56,0.08,0.84c-0.03,0.16-0.04,0.33-0.07,0.49c0.31,0.83,0.64,1.64,0.96,2.46v0.01
	c0.28,0.55,0.58,1.11,0.86,1.66l0.01,0.01h-0.02c0.09,0.11,0.17,0.21,0.25,0.32c0.03,0.04,0.06,0.08,0.09,0.12
	c0.01,0,0.02,0.01,0.02,0.01v0.01c0.03,0.42,0.07,0.81,0.1,1.23c0.54,0.8,1.23,1.56,1.59,2.44c0.65,1.58,1.1,3.25,1.64,4.88
	c0.2,0.37,0.4,0.75,0.6,1.13c0.22,0.32,0.44,0.65,0.66,0.97c0.33,1.52,0.67,3.06,1,4.58v1.69c-0.06,0.72-0.13,1.43-0.2,2.15
	c0.07,0.41,0.13,0.82,0.2,1.23c0.4,2.12,0.81,4.23,1.21,6.36c0.07,0.27,0.13,0.54,0.19,0.81c0.05,0.3,0.11,0.6,0.16,0.9
	c0.08,0.11,0.14,0.22,0.18,0.34c-0.03,0.31-0.07,0.6-0.1,0.91c0.14,0.28,0.29,0.56,0.42,0.85c0.45,0.09,0.9,0.18,1.35,0.28
	c0.12,0.03,0.23,0.07,0.34,0.12c0.14-0.01,0.28-0.02,0.42-0.03c0.25-0.05,0.51-0.11,0.76-0.16c0.31,0.07,0.62,0.13,0.93,0.21
	c0.14,0.53,0.27,1.07,0.41,1.62c0.14,2.95-0.04,5.96,0.54,8.83c0.34,1.7,1.86,3.17,2.86,4.73c0.65,1.19,1.29,2.37,1.98,3.53
	c0.19,0.32,0.56,0.53,0.84,0.79c0.17,0.42,0.33,0.84,0.5,1.25c0.59,1.55,1.19,3.1,1.78,4.64c0.15,0.55,0.3,1.1,0.45,1.65
	c0.02,2.14,0.04,4.28,0.05,6.41c-0.01,0.85-0.03,1.69-0.04,2.52c0.02,0.42,0.04,0.83,0.06,1.23c0.09,0.1,0.1,0.2,0.05,0.32
	c0.84,0.66,1.67,1.32,2.51,1.97c0.08,0.24,0.16,0.5,0.24,0.74c0.43,1.14,1.06,2.25,1.23,3.42c0.25,1.76,0.19,3.57,0.25,5.24
	c1.54-0.75,2.59-1.34,3.7-1.72c0.21-0.06,1.08,0.94,0.99,1.11c-0.54,1.03-1.27,1.95-1.93,2.91c-1.13,1.68-2.26,3.35-3.39,5.03
	c-0.19,0.28-0.3,0.61-0.45,0.91c-0.02,1.44-0.03,2.88-0.04,4.31l0.02,0.03c1.3-0.03,2.59-0.06,3.89-0.09h0.01
	c0.31-0.2,0.62-0.39,0.94-0.58c0.07-0.03,0.13-0.08,0.18-0.15c0.04-0.25,0.08-0.71,0.11-0.71c1.62,0.06,3.26,0.04,4.85,0.31
	c0.38,0.07,0.6,1.08,0.9,1.65c-0.5,0.11-1,0.22-1.5,0.33c-0.52,0.04-1.05,0.08-1.57,0.11c-0.04,0.8-0.07,1.59-0.09,2.39
	c0.38-0.02,0.78-0.04,1.17-0.05c0.6-0.13,1.2-0.26,1.79-0.39c-0.16,0.43-0.32,0.86-0.48,1.29c-0.12,0.15-0.25,0.3-0.39,0.45
	c-0.14,0.08-0.28,0.14-0.42,0.22c-0.14,0.06-0.28,0.14-0.43,0.21c-0.27,0.01-0.53,0.03-0.8,0.04c-0.48,0.18-0.95,0.35-1.42,0.52
	l-0.16,0.16c-0.01,0.93-0.01,1.86-0.02,2.78c0.06,0.14,0.12,0.3,0.18,0.44c0.1,0.19,0.19,0.38,0.29,0.57
	c0.1,0.18,0.19,0.37,0.29,0.56c0.24,1.15,0.5,2.29,0.75,3.44c0.17,0.02,0.34,0.03,0.51,0.04l0.04-0.03c0.25-0.17,0.51-0.33,0.75-0.5
	c0.38-0.46,0.74-0.92,1.1-1.38c0.23,0.11,0.46,0.21,0.69,0.32c-0.24,0.92-0.32,1.91-0.75,2.72c-1.04,1.98-0.66,2.98,1.54,3.55
	c0.13-0.05,0.27-0.08,0.4-0.12c1.13-1.22,2.26-2.44,3.55-3.84c0.33,0.42,0.69,0.87,1.05,1.31c0.15,0.15,0.3,0.29,0.44,0.44
	c0.15,0.27,0.3,0.54,0.45,0.82v0.85c0.07,0.1,0.13,0.21,0.16,0.33c1.24,0.93,0.31,1.56-0.18,2.42c-0.72,1.26-1.17,2.69-1.74,4.04
	c-0.38,0.92-0.5,2.19-1.19,2.71c-1.62,1.24-1.88,2.77-1.8,4.6c0.05,0.93-0.19,1.88-0.3,2.82c0.04,0.26,0.07,0.52,0.11,0.78
	c0.19,0.47,0.39,0.93,0.59,1.41c0.4,0.78,0.82,1.55,1.23,2.34c-0.88,0.18-1.75,0.38-2.63,0.52c-0.47,0.07-0.96,0.02-1.45,0.02
	c-0.4,1.28-0.69,2.62-1.27,3.83c-0.27,0.58-1.07,0.92-1.64,1.37c-0.12,0.12-0.23,0.24-0.36,0.36c-1.09,2.66-0.62,3.74,2.28,5.22
	c0.41,0.15,1.05,0.18,1.19,0.46c0.8,1.63,1.49,3.31,2.21,4.98c0.17,0.26,0.33,0.52,0.5,0.77c0.28,0.43,0.55,0.85,0.83,1.28
	l0.01,0.01c0.14,0.28,0.28,0.56,0.42,0.84c0.17,0.26,0.33,0.52,0.49,0.78c0.25,0.32,0.5,0.63,0.74,0.94
	c0.06,0.11,0.08,0.22,0.09,0.34c0.11,0.17,0.22,0.34,0.34,0.51c0.17,0.25,0.34,0.51,0.51,0.76c0.39,0.6,0.77,1.2,1.16,1.81
	c0.29,0.39,0.59,0.79,0.88,1.19c0.18,0.83,0.35,1.66,0.52,2.49c0.11,0.06,0.22,0.07,0.33,0.03c0.25,0.14,0.51,0.26,0.75,0.4
	c-0.17,0.13-0.35,0.27-0.54,0.41h-0.01l-0.18,1.32c-0.01,1.1-0.01,2.21-0.01,3.32c0.06,1.85,0.12,3.69,0.18,5.54
	c-0.05,0.21-0.09,0.42-0.14,0.63c-0.04,0.21-0.09,0.42-0.13,0.62c-0.09,0.57-0.17,1.14-0.27,1.7c0,0.43-0.01,0.85-0.02,1.27
	c0.04,0.26,0.08,0.54,0.13,0.8c0.24,0.58,0.49,1.16,0.74,1.74c0.03,0.12,0.05,0.24,0.08,0.35c0.22,0.33,0.44,0.67,0.66,1
	c0.09,0.36,0.18,0.73,0.27,1.09c0.21,0.19,0.43,0.37,0.64,0.56c0.29,0.28,0.58,0.55,0.87,0.83c1.28,1.54,2.56,3.08,3.84,4.62
	c2.09,1.62,3.27,3.79,3.81,6.35c0.13,0.15,0.27,0.29,0.4,0.45c1.26,1.13,2.51,2.26,3.77,3.39c0.29,0.15,0.57,0.31,0.87,0.46
	c0.86,1.11,1.7,2.22,2.56,3.32l0.12-0.05c0.23,0.72,0.47,1.45,0.71,2.18c0.05,0.54,0.09,1.07,0.13,1.62l0.66,3.04
	c0.46,1.4,0.92,2.8,1.38,4.19h-0.01c0.53,0.86,1.05,1.73,1.57,2.6c0.86,1.14,1.73,2.29,2.59,3.43c0.57,0.69,1.13,1.37,1.7,2.06h0.01
	c0.42,0.7,0.85,1.4,1.27,2.11c0.8,1.84,1.62,3.69,2.42,5.52c1.03,2.39,2.06,4.77,3.09,7.15c1.62,0.63,3.2,0.9,4.61-0.47
	c0.22-2.7-0.38-5.2-1.77-7.52c-0.26-0.28-0.52-0.56-0.77-0.83c-0.4-1.01-0.79-2.01-1.19-3.01c-0.15-0.57-0.31-1.12-0.47-1.68
	c-0.18-0.33-0.37-0.66-0.55-0.98c-0.07-0.15-0.14-0.29-0.2-0.43c-0.3-0.39-0.61-0.77-0.91-1.16c-0.59-0.96-1.2-1.93-1.79-2.89
	c-0.24-0.45-0.49-0.9-0.73-1.35c-0.19-0.25-0.37-0.51-0.55-0.76c-0.28-0.42-0.55-0.83-0.83-1.24l-0.01-0.04
	c-0.19-0.35-0.37-0.7-0.54-1.06v-0.01c-0.04-0.5-0.07-1.01-0.11-1.52c0.01-2.11,0.02-4.23,0.04-6.35c0.07-0.4,0.15-0.79,0.23-1.18
	c-0.1-1.14-0.18-2.27-0.27-3.41c-0.06-0.44-0.13-0.88-0.21-1.32c-0.12-2.26-0.24-4.51-0.35-6.76c-1.56-2.25-3.12-4.51-4.68-6.77
	c-0.13-0.13-0.28-0.25-0.41-0.39c-2.86-1.55-3.26-4.46-3.72-7.19c-0.25-1.5,0.24-3.13,0.4-4.7c0.26-0.3,0.53-0.6,0.8-0.89l0.12,0.07
	c0.03-0.26,0.05-0.52,0.09-0.79c0.01-1.2,0.02-2.41,0.02-3.62c-0.05-0.66-0.09-1.33-0.13-2c0.12-1.69,0.24-3.38,0.35-5.07
	c-0.02-0.27-0.04-0.54-0.06-0.82c-0.07-0.19-0.15-0.38-0.22-0.58c-0.26-0.34-0.51-0.68-0.77-1.01c-0.09-0.02-0.17-0.06-0.25-0.11
	c-0.19-0.35-0.37-0.7-0.56-1.05c-0.04-0.36-0.08-0.72-0.13-1.08c0.03-0.31,0.06-0.63,0.1-0.94l0.14,0.05
	c0.14-0.27,0.28-0.55,0.42-0.82c0.07-0.22,0.15-0.45,0.23-0.68c0.25-0.3,0.49-0.61,0.75-0.93c0.29-0.26,0.58-0.53,0.88-0.79
	c0.27-0.29,0.55-0.57,0.82-0.86c0.36-0.24,0.72-0.47,1.07-0.72c0.39-0.1,0.77-0.2,1.16-0.3c0.36-0.14,0.72-0.27,1.07-0.41
	c0.04-0.13,0.13-0.18,0.25-0.17c0.15-0.29,0.29-0.57,0.44-0.86c0.17-1.34,0.35-2.68,0.54-4.02c0.06-0.37,0.13-0.74,0.19-1.11
	c0.51-2.1,1.94-2.78,4.06-1.93c3.04,1.21,4.47,0.54,5.56-2.55c0.36-1.03,0.57-2.35,1.32-2.97c1.11-0.91,2.65-1.81,3.99-1.79
	c1.6,0.04,3.4,0.75,3.91,2.79l0.63,1.14c0.31,0.64,0.63,1.27,0.95,1.91c0.03,0.39,0.06,0.78,0.09,1.18c0.15,2.1,0.28,4.21,0.43,6.31
	c0.27,0.31,0.54,0.62,0.81,0.92c0.76,0.33,1.52,0.67,2.28,1l0.11,0.07l0.06,0.01c0.34,0.05,0.68,0.09,1.03,0.14
	c0.27,0.02,0.55,0.02,0.82,0.04c0.24-0.06,0.52-0.24,0.69-0.16c1.98,1,3.73,0.96,5.5-0.65c2.11-1.93,3.45-1.71,4.33,0.39
	c0.04,0.11,0.11,0.21,0.2,0.29c0.11,0.12,0.22,0.22,0.34,0.34l-0.03,0.12c0.39,0.32,0.77,0.65,1.16,0.97
	c0.07,0.05,0.14,0.11,0.21,0.16c0.05,0.04,0.11,0.08,0.16,0.12c0.03,0.02,0.07,0.05,0.1,0.08c0.35,0.53,0.69,1.05,1.03,1.58
	c0.24,0.6,0.48,1.19,0.72,1.78c0,0.28-0.02,0.56-0.03,0.83l0.15-0.06c1.33,1.56,1.24,3.33,0.77,5.15c0.03,0.4,0.05,0.78,0.09,1.18
	l2.79,3.21c0.28-0.01,0.57-0.02,0.86-0.02c0.56-0.33,1.13-0.64,1.71-0.96c0.25-0.18,0.5-0.36,0.76-0.53
	c0.45-0.38,0.91-0.76,1.37-1.14c1.12-0.85,2.23-1.72,3.35-2.58C627.6,762.97,627.56,761.57,627.51,760.18z M463.84,500.28
	c-0.05,0.21-0.09,0.41-0.14,0.61v0.01c-0.27-0.16-0.53-0.32-0.79-0.47c0.2-0.32,0.41-0.64,0.61-0.97c0.15,0.07,0.3,0.14,0.45,0.21
	h0.01C463.93,499.87,463.88,500.08,463.84,500.28z M471.07,504.07c-0.21-0.13-0.36-0.23-0.51-0.32c0.08-0.08,0.15-0.16,0.23-0.24
	c0.04-0.04,0.08-0.08,0.12-0.11c0.04-0.03,0.08-0.06,0.13-0.08c0.02-0.01,0.06,0,0.11,0.03c0.03,0.02,0.06,0.05,0.1,0.08
	c0.08,0.07,0.14,0.15,0.15,0.21C471.42,503.76,471.21,503.91,471.07,504.07z M474.27,512.41L474.27,512.41
	c-0.32-0.86-0.64-1.72-0.96-2.58c0.3-0.11,0.6-0.21,0.89-0.32c0.31,0.87,0.61,1.74,0.92,2.62
	C474.84,512.22,474.55,512.31,474.27,512.41z M518.02,525.41c-0.06,0.67-0.86,1.27-1.34,1.9c-0.47-0.56-0.93-1.13-1.65-2.02
	c0.19-0.19,0.37-0.35,0.53-0.51c0.17-0.16,0.32-0.31,0.46-0.44c0.08-0.07,0.15-0.14,0.21-0.2c0.14-0.14,0.27-0.26,0.4-0.38
	c0.07-0.07,0.14-0.13,0.2-0.19v0.01c0.08,0.11,0.17,0.22,0.26,0.33c0.1,0.11,0.2,0.22,0.3,0.34c0,0,0,0,0.01,0.01
	c0.17,0.19,0.33,0.39,0.44,0.58c0.05,0.09,0.1,0.17,0.13,0.26c0.01,0.03,0.02,0.05,0.02,0.07c0.02,0.06,0.03,0.12,0.03,0.18V525.41z
	"/>
<path class="st2" d="M537.62,712.4c-0.17-0.01-0.34-0.03-0.5-0.04C537.28,712.38,537.45,712.39,537.62,712.4z"/>
<path class="st4" d="M599.56,754.08c-0.02,0-0.04,0-0.06-0.01C599.5,754.07,599.56,754.08,599.56,754.08z"/>
<path class="st2" d="M612.48,754.48c-0.12-0.11-0.23-0.23-0.35-0.34C612.24,754.25,612.36,754.36,612.48,754.48z"/>
<path class="st2" d="M614.07,755.92c-0.16-0.12-0.32-0.24-0.47-0.35C613.76,755.68,613.92,755.8,614.07,755.92z"/>
<path class="st2" d="M545.5,760.22c-0.11-0.17-0.22-0.34-0.33-0.51C545.28,759.88,545.39,760.05,545.5,760.22z"/>
<path class="st1" d="M614.13,629.23c0.12,0.18,0.23,0.36,0.35,0.53C614.37,629.58,614.25,629.41,614.13,629.23z"/>
<path class="st2" d="M510.5,496.87c0-1.55,0-3.1,0-4.66C510.5,493.77,510.5,495.32,510.5,496.87z"/>
<path class="st2" d="M534.83,452.59c-0.35-1.04-0.69-2.09-1.04-3.13C535.31,450.11,535.05,451.36,534.83,452.59z"/>
<path class="st2" d="M573.7,443.02c-0.01,1.06-0.02,2.11-0.03,3.17C573.68,445.14,573.69,444.08,573.7,443.02z"/>
<path class="st2" d="M534.99,454.13c-0.03-0.28-0.06-0.57-0.1-0.85C534.92,453.56,534.96,453.85,534.99,454.13z"/>
<path class="st3" d="M568.95,431.29c0.12-0.28,0.24-0.56,0.36-0.84C569.19,430.73,569.07,431.01,568.95,431.29z"/>
<path class="st3" d="M511.83,487.62c0.12-0.16,0.23-0.32,0.35-0.49C512.06,487.3,511.95,487.46,511.83,487.62z"/>
<path class="st3" d="M464.72,603.98c-0.11-0.57-0.23-1.14-0.34-1.71C464.5,602.85,464.61,603.41,464.72,603.98z"/>
<path class="st3" d="M471.08,615.38c-0.1-0.14-0.19-0.29-0.29-0.43C470.89,615.09,470.98,615.23,471.08,615.38z"/>
<path class="st2" d="M484.31,619.19c-0.15,0.13-0.29,0.27-0.44,0.4C484.02,619.46,484.16,619.33,484.31,619.19z"/>
<path class="st2" d="M532.93,736.95c-0.7-0.23-1.4-0.46-2.09-0.68C531.53,736.49,532.23,736.72,532.93,736.95z"/>
<path class="st2" d="M538.08,735.58c-0.28,0.45-0.57,0.9-0.85,1.35C537.51,736.48,537.8,736.03,538.08,735.58z"/>
<path class="st2" d="M533.48,702.91c-0.01,0.48-0.01,0.95-0.02,1.43C533.47,703.86,533.48,703.38,533.48,702.91z"/>
<path class="st3" d="M524.89,739.38c-0.27-0.43-0.55-0.86-0.82-1.29C524.34,738.52,524.62,738.95,524.89,739.38z"/>
<path class="st2" d="M538.77,730.03c-0.19,0.35-0.39,0.69-0.58,1.04C538.38,730.73,538.58,730.38,538.77,730.03z"/>
<path class="st2" d="M539,726.69c-0.04,0.28-0.09,0.57-0.13,0.85C538.92,727.26,538.96,726.97,539,726.69z"/>
<path class="st2" d="M539.53,724.92c-0.14,0.37-0.27,0.73-0.41,1.1C539.26,725.65,539.4,725.28,539.53,724.92z"/>
<path class="st2" d="M539.82,723.3c-0.03,0.28-0.06,0.57-0.1,0.85C539.75,723.87,539.78,723.59,539.82,723.3z"/>
<path class="st2" d="M533.51,707.13c0.09,0.31,0.18,0.63,0.27,0.94C533.69,707.76,533.6,707.44,533.51,707.13z"/>
<path class="st5" d="M524.06,704.34c0.12-0.16,0.23-0.32,0.35-0.48C524.29,704.02,524.18,704.18,524.06,704.34z"/>
<path class="st2" d="M523.64,706.39c0.11-0.16,0.23-0.32,0.34-0.49C523.87,706.07,523.76,706.23,523.64,706.39z"/>
<path class="st1" d="M457.13,582.49c-1.06,2.18-2.45,3.16-3.57,2.37c-0.48-0.34-0.99-1.33-0.82-1.77
	C453.34,581.52,455.3,581.32,457.13,582.49z"/>
<path class="st1" d="M588.41,539.79c-0.28-0.64-0.56-1.27-0.84-1.91C587.84,538.51,588.12,539.15,588.41,539.79z"/>
<path class="st1" d="M589.58,540.86c-0.35-0.3-0.69-0.61-1.04-0.91C588.89,540.25,589.24,540.55,589.58,540.86z"/>
<path class="st1" d="M433.9,621.31c0.18,0.42,0.35,0.84,0.53,1.26c-1.2,0.95-0.87,2.35-0.06,2.91c1.56,1.08,1.36,2.47,1.31,3.9
	c-0.07,1.95-0.33,3.9-0.36,5.85c-0.02,1.14,0.25,2.29,0.39,3.44c-0.03,0.43-0.05,0.85-0.08,1.28c-0.66,1.62-1.34,3.24-1.95,4.88
	c-0.04,0.1,0.44,0.4,0.68,0.61c-0.1,0.15-0.2,0.29-0.29,0.44c-1.36,0.45-2.71,0.95-4.1,1.32c-0.9,0.25-2.08,0.74-2.74,0.38
	c-1.43-0.78-2-0.15-2.37,0.96c-0.69,2.05-1.25,4.13-1.86,6.2c-1.12-0.27-3.19-0.51-3.19-0.81c-0.06-2.08,1.11-3.58,3.37-4.29
	c-0.71-1.52-1.33-2.88-1.96-4.24c0.05-2.25,0.09-4.5,0.14-6.75c1.51-1.29,0.85-2.77,0.36-4.23c-0.13-0.14-0.25-0.28-0.38-0.42
	c0.04-0.54,0.08-1.08,0.12-1.62c0.23-0.87,0.45-1.74,0.68-2.61c0.27-0.19,0.74-0.34,0.77-0.56c0.35-2.32,1.08-4.69,0.82-6.96
	c-0.33-2.92,0.23-5.63,0.63-8.43c0.08-0.55-0.64-1.21-0.99-1.83c-0.14-0.14-0.28-0.29-0.43-0.43c0.08-0.42,0.16-0.84,0.23-1.26
	c0.2-0.29,0.41-0.59,0.61-0.88c0.01-0.55,0.02-1.11,0.03-1.66c1.68,0.03,2.14,0.9,1.83,2.47c-0.09,0.46,0.08,1.21,0.41,1.46
	c0.28,0.21,0.96-0.11,1.46-0.18c0.91-0.13,1.81-0.25,2.72-0.37c0.13,0.13,0.25,0.26,0.38,0.39c-0.24,0.73-0.46,1.46-0.73,2.18
	c-0.3,0.77-0.87,1.5-0.92,2.28c-0.07,1.09,0.1,2.25,0.44,3.29c0.2,0.63,0.82,1.33,1.42,1.56
	C431.79,621.18,432.87,621.16,433.9,621.31z"/>
<path class="st1" d="M430.25,611.12c-0.91,0.12-1.82,0.24-2.72,0.37c-0.5,0.07-1.18,0.4-1.46,0.18c-0.33-0.25-0.51-0.99-0.41-1.46
	c0.31-1.57-0.15-2.44-1.83-2.47c-0.23-1.43-0.47-2.86-0.7-4.3c-0.08-0.67-0.16-1.35-0.25-2.02c0-0.3,0-0.61-0.01-0.91
	c0.07-0.26,0.14-0.51,0.2-0.77c0.82-0.75,1.65-1.51,2.47-2.26c0.22,0.08,0.44,0.15,0.66,0.23c0.06,0.24,0.12,0.47,0.18,0.71
	c0.14,0.28,0.28,0.57,0.42,0.85c0.07,0.13,0.14,0.26,0.2,0.39c-0.01,0.3-0.03,0.61-0.04,0.91c-0.21,0.55-0.42,1.09-0.63,1.64
	c-1.4,0.97-0.42,2.05,0.08,2.84c0.63,1.02,1.64,1.81,2.48,2.71C429.35,608.9,429.8,610.01,430.25,611.12z"/>
<path class="st1" d="M434.85,606.5c1.37,0.46,2.73,0.92,4.1,1.39c0.17,0.46,0.25,0.98,0.52,1.36c1.22,1.74,1.37,3.36-0.33,4.89
	c-0.67,0.55-1.34,1.1-2.01,1.65c-0.46-0.68-0.97-1.34-1.35-2.06c-0.27-0.52-0.37-1.14-0.55-1.72c-0.12-0.16-0.24-0.31-0.36-0.47
	c0,0,0.01,0.01,0.01,0.01c-0.15-0.41-0.31-0.83-0.46-1.24c-0.01-0.85-0.02-1.7-0.02-2.54C434.55,607.34,434.7,606.92,434.85,606.5
	L434.85,606.5z"/>
<path class="st1" d="M433.9,621.31c-1.03-0.14-2.12-0.13-3.06-0.49c-0.6-0.23-1.22-0.94-1.42-1.56c-0.34-1.04-0.5-2.2-0.44-3.29
	c0.05-0.77,0.62-1.51,0.92-2.28c0.27-0.71,0.49-1.45,0.73-2.18c0.4,0.31,0.79,0.63,1.19,0.94
	C431.91,615.55,431.53,618.75,433.9,621.31z"/>
<path class="st3" d="M434.42,610.3c0.15,0.41,0.31,0.83,0.46,1.24C434.73,611.13,434.57,610.71,434.42,610.3z"/>
<path class="st3" d="M434.87,611.53c0.12,0.16,0.24,0.31,0.36,0.47C435.11,611.84,434.99,611.69,434.87,611.53z"/>
<path class="st1" d="M611.87,618.08c0.12,0.05,0.3,0.08,0.33,0.16c0.03,0.08-0.08,0.23-0.14,0.34c-0.12-0.05-0.3-0.08-0.33-0.16
	C611.7,618.34,611.82,618.2,611.87,618.08z"/>
<path class="st1" d="M612.43,616.58c0.11,0.16,0.22,0.32,0.34,0.48C612.65,616.9,612.54,616.74,612.43,616.58z"/>
<path class="st1" d="M522.75,703.39c-0.16,0.4-0.32,0.79-0.47,1.19c0,0,0,0.01,0,0.01c-0.42,0.58-0.83,1.17-1.25,1.75
	c-0.12,0.12-0.23,0.24-0.35,0.36c-0.42-0.05-0.84-0.09-1.26-0.14c-0.13-0.22-0.26-0.44-0.39-0.65c-0.77-3.59,1.51-6.4,2.4-9.56
	c0.64-2.29,1.21-4.64-0.16-6.91c-0.2-0.28-0.39-0.56-0.58-0.84c-0.05-1.14-0.1-2.28-0.14-3.42c0.05-0.55,0.09-1.1,0.14-1.65
	c0.52-0.72,1.04-1.44,1.55-2.16c0.28-0.56,0.56-1.12,0.84-1.68c0.19-0.04,0.37-0.08,0.56-0.12c0.39,0.11,1.09,0.17,1.11,0.33
	c0.47,3.16,3.39,5.61,2.65,9.1c-0.11,0.43-0.22,0.87-0.33,1.3c-0.08,0.25-0.16,0.5-0.24,0.75c-0.51,1.16-1.01,2.32-1.52,3.47
	c-0.06,0.25-0.13,0.5-0.19,0.75c-0.23,0.88-0.46,1.75-0.69,2.63c-0.04,0.25-0.08,0.51-0.12,0.76c-0.25,0.74-0.49,1.47-0.74,2.21
	c0.02,0.28,0.03,0.55,0.05,0.83c0,0-0.12-0.06-0.12-0.06C523.23,702.23,522.99,702.81,522.75,703.39z"/>
<path class="st3" d="M503.76,604.36c0.29,0.56,0.58,1.12,0.87,1.68C504.34,605.48,504.05,604.92,503.76,604.36z"/>
<path class="st3" d="M504.63,606.03c0.12,0.15,0.24,0.31,0.36,0.46C504.86,606.34,504.74,606.19,504.63,606.03z"/>
<path class="st3" d="M494.02,589.15c0.41,0.43,0.82,0.85,1.23,1.28C494.84,590,494.43,589.57,494.02,589.15z"/>
<path class="st3" d="M484.34,575.53c0.12,0.16,0.24,0.32,0.36,0.49C484.58,575.86,484.46,575.7,484.34,575.53z"/>
<path class="st1" d="M421.22,645.4c0.63,1.36,1.26,2.71,1.96,4.24c-2.26,0.71-3.43,2.21-3.37,4.29c0.01,0.3,2.08,0.54,3.19,0.81
	c0.08,0.09,0.17,0.18,0.25,0.26c-1.22,1.17-2.44,2.35-3.66,3.52c-0.68,0-1.37,0-2.05,0c-0.31-0.41-0.62-0.83-0.93-1.24
	c0.02-0.99,0.03-1.98,0.05-2.96c1.79-1.23,2.91-2.84,2.88-5.1c0.17-0.42,0.34-0.83,0.51-1.25
	C420.44,647.11,420.83,646.26,421.22,645.4z"/>
<path class="st1" d="M423,654.74c0.61-2.07,1.17-4.16,1.86-6.2c0.37-1.11,0.94-1.74,2.37-0.96c0.66,0.36,1.84-0.13,2.74-0.38
	c1.38-0.38,2.73-0.88,4.1-1.32c-0.7,0.55-1.4,1.12-2.12,1.66c-0.59,0.44-1.2,0.84-1.8,1.26c-0.13,0.02-0.25,0.05-0.36,0.09
	c-0.29,0.12-0.57,0.23-0.86,0.35c-0.28,0.14-0.56,0.29-0.85,0.43c-1.95,0.09-2.24,1.76-2.99,3.05c-0.49,0.84-1.21,1.53-1.83,2.29
	C423.17,654.91,423.08,654.83,423,654.74z"/>
<path class="st3" d="M428.92,649.23c0.29-0.12,0.57-0.23,0.86-0.35C429.5,649,429.21,649.11,428.92,649.23z"/>
<path class="st1" d="M435.7,638.67c-0.14-1.15-0.41-2.29-0.39-3.44c0.03-1.95,0.28-3.9,0.36-5.85c0.05-1.43,0.25-2.82-1.31-3.9
	c-0.81-0.56-1.13-1.96,0.06-2.91c1.54,1.84,2.27,3.94,2.07,6.36C436.22,632.17,435.97,635.42,435.7,638.67z"/>
<path class="st1" d="M434.36,645.43c-0.24-0.21-0.72-0.5-0.68-0.61c0.61-1.64,1.28-3.26,1.95-4.88
	C435.2,641.77,434.78,643.6,434.36,645.43z"/>
<path class="st2" d="M579.27,461.4c-0.15-0.58-0.31-1.16-0.46-1.74C578.97,460.24,579.12,460.82,579.27,461.4z"/>
<path class="st2" d="M578.66,458.92c-0.07-0.18-0.14-0.37-0.21-0.55C578.52,458.56,578.59,458.74,578.66,458.92z"/>
<path class="st2" d="M473.21,501.21c-3.22-0.29-3.28-0.34-3.01-2.76c0.3,0.6,0.61,1.2,0.69,1.35
	C471.89,500.41,472.55,500.81,473.21,501.21z"/>
<path class="st2" d="M473.46,504.96c-1.28-0.24-1.35-0.88-0.27-2.26C473.28,503.46,473.37,504.21,473.46,504.96z"/>
<path class="st1" d="M587.45,529.04c0.03-0.28,0.07-0.56,0.1-0.85C587.52,528.48,587.49,528.76,587.45,529.04z"/>
<path class="st1" d="M474.27,512.4c-0.32-0.86-0.64-1.71-0.95-2.57c0.3-0.11,0.59-0.22,0.89-0.32c0.3,0.87,0.61,1.74,0.91,2.62
	C474.83,512.22,474.55,512.31,474.27,512.4z"/>
<path class="st1" d="M498.29,533.63c0.27-0.12,0.54-0.24,0.81-0.36c0.14,0.04,0.28,0.08,0.43,0.12c0,0.21,0.08,0.47-0.02,0.61
	c-0.32,0.47-0.7,0.89-1.06,1.32C498.4,534.76,498.34,534.2,498.29,533.63z"/>
<path class="st2" d="M461.19,502.47c0.17-1.2,0.34-2.39,0.51-3.59C461.53,500.08,461.36,501.28,461.19,502.47z"/>
<path class="st2" d="M463.07,495.43c1.02-0.08,2.04-0.16,3.06-0.24C465.11,495.28,464.09,495.36,463.07,495.43z"/>
<path class="st1" d="M463.97,499.67c-0.09,0.41-0.18,0.82-0.27,1.23c-0.27-0.16-0.53-0.31-0.8-0.47c0.2-0.32,0.41-0.64,0.61-0.96
	C463.67,499.53,463.82,499.6,463.97,499.67z"/>
<path class="st1" d="M471.07,504.07c-0.21-0.13-0.36-0.23-0.52-0.32c0.16-0.15,0.3-0.34,0.49-0.43c0.06-0.03,0.34,0.2,0.35,0.33
	C471.42,503.76,471.21,503.91,471.07,504.07z"/>
<path class="st2" d="M461.74,498.13c0.06-0.42,0.12-0.84,0.18-1.26C461.85,497.29,461.8,497.71,461.74,498.13z"/>
<path class="st2" d="M499.53,533.39c-0.14-0.04-0.28-0.08-0.43-0.12c0.3-0.27,0.59-0.53,0.89-0.8
	C499.84,532.78,499.68,533.08,499.53,533.39z"/>
<path class="st3" d="M376.48,541.36c0.55,0.7,1.1,1.39,1.65,2.09C377.58,542.75,377.03,542.06,376.48,541.36z"/>
<path class="st3" d="M376.03,539.21c0.14,0.71,0.28,1.41,0.42,2.12C376.31,540.62,376.17,539.92,376.03,539.21z"/>
<path class="st3" d="M374.4,535.78c0.4,0.72,0.81,1.45,1.21,2.17C375.21,537.22,374.81,536.5,374.4,535.78z"/>
<path class="st2" d="M366.42,518.46c-0.04,0.28-0.08,0.56-0.11,0.84C366.34,519.03,366.38,518.75,366.42,518.46z"/>
<path class="st3" d="M374.01,534.88c0.11,0.17,0.22,0.34,0.33,0.51C374.23,535.22,374.12,535.05,374.01,534.88z"/>
<path class="st2" d="M437.8,576.82c0.89,0.04,1.78,0.07,2.67,0.11C439.58,576.89,438.69,576.86,437.8,576.82z"/>
<path class="st2" d="M434.85,576.43c0.28,0.14,0.56,0.28,0.83,0.42C435.41,576.71,435.13,576.57,434.85,576.43z"/>
<path class="st2" d="M398.45,581.12c-0.13-0.15-0.25-0.31-0.38-0.46C398.2,580.82,398.32,580.97,398.45,581.12z"/>
<path class="st1" d="M493.86,583.3c2.1,0.08,2.49,1.19,2.25,2.65c-0.11,0.65-0.6,1.24-0.92,1.86c-1.07-1.02-2.14-2.05-3.21-3.07
	C492.6,584.26,493.23,583.78,493.86,583.3z"/>
<path class="st2" d="M525.3,694.52c0.51-1.16,1.01-2.32,1.52-3.47C526.31,692.21,525.8,693.37,525.3,694.52z"/>
<path class="st2" d="M524.41,697.9c0.23-0.88,0.46-1.75,0.69-2.63C524.87,696.15,524.64,697.03,524.41,697.9z"/>
<path class="st2" d="M527.05,690.3c0.11-0.43,0.22-0.87,0.33-1.3C527.27,689.43,527.16,689.86,527.05,690.3z"/>
<path class="st2" d="M439.09,573.92c-0.16,0.27-0.31,0.54-0.47,0.8C438.77,574.46,438.93,574.19,439.09,573.92z"/>
<path class="st3" d="M383.66,562.49c-0.13-0.29-0.27-0.57-0.4-0.86C383.4,561.92,383.53,562.2,383.66,562.49z"/>
<path class="st1" d="M572.95,623.01c-0.71,0.29-1.31,0.76-1.81,0.68c-0.4-0.07-0.99-0.85-0.95-1.26c0.05-0.51,0.65-0.97,1.02-1.46
	C571.58,621.4,571.94,621.83,572.95,623.01z"/>
<path class="st1" d="M422.03,614.85c0.18-0.67,0.36-1.34,0.54-2.01c0.27-0.28,0.54-0.56,0.82-0.85c0.35,0.61,1.06,1.28,0.99,1.83
	c-0.39,2.8-0.95,5.51-0.63,8.43c0.25,2.26-0.47,4.64-0.82,6.96c-0.03,0.22-0.51,0.38-0.77,0.56
	C422.1,624.8,422.06,619.82,422.03,614.85z"/>
<path class="st1" d="M421.36,638.65c0.12-1.41,0.24-2.82,0.36-4.23C422.21,635.88,422.87,637.36,421.36,638.65z"/>
<path class="st1" d="M423.37,609.66c0.14-0.08,0.28-0.16,0.42-0.24c-0.2,0.29-0.41,0.59-0.61,0.88c0.02-0.16,0.03-0.32,0.05-0.48
	C423.29,609.78,423.34,609.73,423.37,609.66z"/>
<path class="st3" d="M427.01,599.69c-0.01,0.3-0.03,0.61-0.04,0.91C426.99,600.29,427,599.99,427.01,599.69z"/>
<path class="st3" d="M522.28,704.59c-0.42,0.58-0.83,1.17-1.25,1.75C521.44,705.76,521.86,705.18,522.28,704.59z"/>
<path class="st1" d="M423.37,609.66c-0.04,0.06-0.08,0.12-0.14,0.16c-0.11-0.07-0.15-0.17-0.11-0.3
	C423.22,609.55,423.3,609.6,423.37,609.66z"/>
<path class="st6" d="M362.41,515.41c-0.1,0.31-0.2,0.62-0.3,0.93C362.21,516.03,362.31,515.72,362.41,515.41z"/>
<path class="st1" d="M417.58,614.92c-1.41-0.62-1.48-1.83-1.31-3.11c0.11-0.88,0.08-1.84,0.45-2.61c0.41-0.85,1.2-1.51,1.82-2.26
	c0.62,0.71,1.69,1.37,1.78,2.14c0.27,2.17,0.43,4.49-1.97,5.82C418.09,614.91,417.83,614.91,417.58,614.92z"/>
<path class="st1" d="M415.44,605.21c-0.73,1.58-1.47,3.15-0.55,4.94c0.11,0.21-0.28,0.95-0.41,0.94c-0.54-0.03-1.08-0.25-1.62-0.4
	c-0.34-0.17-0.68-0.33-1.01-0.5c0,0-0.01-0.05-0.01-0.05c-0.92-2.3,1-3.8,1.75-5.56C414.01,603.59,414.96,604.49,415.44,605.21z"/>
<g>
	<text transform="matrix(1 0 0 1 517.7617 593.4453)" class="st0 st7 st8">CHATTOGRAM</text>
</g>
<ellipse class="st9" cx="552.35" cy="574.44" rx="8.92" ry="0.87"/>
<g>
	<g>
		<circle class="st10" cx="552.35" cy="555.65" r="3.95"/>
	</g>
	<g>
		<path class="st10" d="M552.35,561.97c-3.48,0-6.31-2.83-6.31-6.31s2.83-6.31,6.31-6.31c3.48,0,6.31,2.83,6.31,6.31
			S555.83,561.97,552.35,561.97z M552.35,550.53c-2.83,0-5.13,2.3-5.13,5.13s2.3,5.13,5.13,5.13c2.83,0,5.13-2.3,5.13-5.13
			S555.18,550.53,552.35,550.53z"/>
	</g>
	<polygon class="st10" points="553.61,561.71 552.35,574.88 552.35,574.9 552.35,574.88 551.1,561.71 552.35,561.68 552.35,561.68 	
		"/>
</g>
</svg>
