<?xml version="1.0" encoding="utf-8"?>
<!-- Generator: Adobe Illustrator 27.6.1, SVG Export Plug-In . SVG Version: 6.00 Build 0)  -->
<svg version="1.1" id="Layer_1" xmlns="http://www.w3.org/2000/svg" xmlns:xlink="http://www.w3.org/1999/xlink" x="0px" y="0px"
	 viewBox="0 0 661.87 864" style="enable-background:new 0 0 661.87 864;" xml:space="preserve">
<style type="text/css">
	.st0{fill:#FFFFFF;}
	.st1{fill:#5FA440;}
	.st2{fill:#A0C88D;}
	.st3{fill:#D9F1CB;}
	.st4{fill:#B4B0BC;}
	.st5{fill:#F6FAF8;}
	.st6{fill:#EBBF7A;}
	.st7{fill:#487C2D;}
	.st8{fill:#FF0000;}
	.st9{fill:#B2AE18;}
	.st10{fill:#FFFF2E;}
	.st11{fill:#F9E8B9;}
	.st12{fill:#8E8813;}
	.st13{fill:#CCAA19;}
	.st14{fill:#EDAACF;}
	.st15{fill:#CB336F;}
	.st16{fill:#998014;}
	.st17{fill:#163784;}
	.st18{fill:#C3E1F3;}
	.st19{fill:#3470B0;}
	.st20{fill:#FBFDFA;}
	.st21{fill:#E8E8E8;}
	.st22{fill:#3C3C3C;}
	.st23{fill:#133685;}
	.st24{fill:#112C63;}
	.st25{fill:#E59936;}
	.st26{fill:#E19A39;}
	.st27{fill:#EB5E55;}
	.st28{fill:#8C7752;}
	.st29{fill:#AF732B;}
	.st30{fill:#6772DB;}
	.st31{fill:#4F5CA8;}
	.st32{fill:#D13270;}
	.st33{fill:#DCDCDE;}
	.st34{fill:#CC4D4A;}
	.st35{font-family:'Roboto-Black';}
	.st36{font-size:12px;}
	.st37{fill:#25527A;}
	.st38{fill:#773E84;}
	.st39{fill:#773B85;}
	.st40{fill:#4D2756;}
</style>
<path class="st0" d="M34.05,847.74c0.14,0.14,0.28,0.28,0.42,0.42C34.33,848.02,34.19,847.88,34.05,847.74z"/>
<path class="st19" d="M251.37,358.07c-0.42,1.04-1.24,2.09-1.2,3.12c0.16,4.46,0.57,8.91,0.88,13.37c0.24,0.41,0.47,0.81,0.7,1.22
	c0.08,0.3,0.15,0.59,0.23,0.89c0.01,0.15,0.01,0.3,0.02,0.46l-0.08,0.17c-1.4,3.06-2.79,6.1-4.19,9.16
	c-0.09,0.13-0.19,0.25-0.29,0.37c-0.52,0.26-1.05,0.52-1.38,0.68c-0.8-1.02-1.47-1.89-2.15-2.76c-2.19,1.83-2.04,3.07,0.16,4.25
	c0.25,1.53,0.48,3.07,0.72,4.6v0.44c-0.02,0.43-0.03,0.86-0.05,1.3c-2.45,3.78-2.41,7.57-0.08,11.38c0.14,0.3,0.28,0.59,0.42,0.88
	c-0.13,0.38-0.39,0.78-0.36,1.14c0.3,3.08-1.07,5.06-3.88,6.22c-0.36,0.15-0.57,0.71-0.85,1.08c-0.77,0.25-1.57,0.47-2.32,0.77
	c-1.5,0.59-2.97,1.24-4.45,1.87c-2.69-0.15-5.38-0.31-8.08-0.47l-0.07-0.03c-0.72-0.66-1.37-1.42-2.17-1.96
	c-0.88-0.58-1.89-0.96-2.84-1.43c-1.3-0.74-2.6-1.48-3.89-2.22c-0.52-0.46-1.05-0.91-1.57-1.36c-0.12-0.08-0.24-0.16-0.35-0.24
	c-2.73-1.58-5.33-3.42-8.58-3.81c-0.44-0.35-0.87-0.69-1.31-1.03c-0.03-0.07-0.08-0.13-0.14-0.17c-0.24-0.23-0.47-0.45-0.72-0.68
	c-0.03-0.06-0.09-0.12-0.15-0.15c-0.9-0.48-1.79-0.96-2.68-1.44c-0.41-0.03-0.82-0.07-1.24-0.11c-0.76,0.01-1.52,0.03-2.29,0.03
	c-0.5-0.01-1-0.01-1.51-0.02c-1.01-0.26-2.02-0.79-3.01-0.74c-5.27,0.25-10.45,0.23-15.03-3.01c-0.6-0.42-1.52-0.38-2.3-0.55
	c-0.47-0.06-1.09,0.04-1.41-0.22c-1.13-0.91-2.22-1.92-3.17-3.03c-0.08-0.08,1.08-1.22,1.66-1.87c0.14-0.15,0.23-0.34,0.36-0.54
	c-0.15-0.31-0.3-0.63-0.46-0.91c-1.97-3.49-3.9-7-5.94-10.45c-0.49-0.84-1.33-1.48-2.01-2.21c-0.15-0.14-0.31-0.29-0.47-0.43
	c-0.14-0.14-0.28-0.26-0.41-0.4c-0.16-0.28-0.32-0.56-0.47-0.83c0.03-0.57,0.08-1.13,0.11-1.68c0.36-1.95-0.95-2.93-2.26-3.88
	c-4.07-2.95-8.14-2.62-12.21,0.03c-0.29,0.13-0.58,0.26-0.86,0.39c-0.43,0.43-0.87,0.85-1.31,1.28c-0.12,0.15-0.24,0.3-0.36,0.45
	c-0.12,0.14-0.23,0.3-0.34,0.45c-0.18,0.26-0.36,0.52-0.53,0.79c-0.12,0.16-0.24,0.32-0.36,0.47c-0.41,0.37-0.83,0.74-1.24,1.1
	c-2.17,0.03-4.33,0.06-6.48,0.09c-2.88-1.17-4.83-3.28-6.15-6.04c-0.58-1.21-1.14-2.44-1.71-3.66c0.16-0.66,0.32-1.32,0.48-1.98
	c0.9-3.56-0.47-6.72-1.7-9.9c-0.05-0.26-0.1-0.52-0.15-0.78c-0.3-0.99-0.58-1.97-0.88-2.96c0.16-1.74-0.96-2.58-2.39-2.68
	c-1.49-0.11-3.02,0.25-4.52,0.47c-0.11,0.02-0.14,0.62-0.19,0.95c-0.04,0.11-0.07,0.22-0.09,0.33c-0.96,0.19-1.93,0.36-2.89,0.55
	c-2.23-2.22-4.86-3.31-8.02-2.97c-0.71,0.3-1.41,0.59-2.12,0.88c-1.83-0.03-3.67-0.05-5.5-0.08c-0.7-0.14-1.41-0.27-2.12-0.41h-0.01
	c-0.55-0.44-1.09-0.89-1.64-1.33c-0.08-0.25-0.14-0.51-0.21-0.75c-1.21-4.36-4.85-6.5-8.19-8.85c-1.63-1.14-3.45-1.99-5.19-2.97
	c-0.4-0.31-0.8-0.63-1.19-0.94c-0.43-0.28-0.86-0.56-1.3-0.85v0.01c-0.28-0.15-0.57-0.3-0.85-0.45c-0.14-0.13-0.28-0.26-0.41-0.4
	c-0.15-0.11-0.3-0.23-0.46-0.35c-0.58-0.29-1.17-0.58-1.76-0.87c-1.34-0.96-2.55-2.3-4.04-2.78c-3.06-1.01-6.28-1.54-9.44-2.28
	c-1.42-1.01-2.84-2.01-4.26-3.02c-0.33-0.33-0.59-0.78-0.98-0.98c-1.57-0.82-7.14-5.09-8.09-6.27c-0.02-1.26-0.03-2.53-0.05-3.79
	c0.7-3.27-0.11-5.61-2.28-6.59c-0.1-0.09-0.21-0.18-0.33-0.25c-0.3-0.37-0.6-0.74-0.9-1.11c-1.16-1.84-2.33-3.67-3.49-5.51
	c-0.08-1.12-0.18-2.23-0.26-3.34c0.85-0.67,1.85-1.2,2.51-2.01c1.67-2.06,1.23-4.57,1.2-6.97l0.04-0.03
	c0.76-0.3,1.55-0.91,2.28-0.85c2.09,0.17,2.73-1.02,2.97-2.72c0.12-0.9,0.18-1.8,0.26-2.71c0.96-0.72,1.92-1.44,2.89-2.16
	c0.03-0.12,0.06-0.23,0.1-0.35c0.15-0.28,0.31-0.57,0.47-0.85c3.27-1.02,4-2.91,2.35-5.78c-0.46-0.8-0.55-1.8-0.8-2.72
	c-0.12-0.16-0.23-0.3-0.34-0.47c-0.57-0.56-1.13-1.11-1.71-1.67c0.03-0.41,0.05-0.84,0.07-1.26c0.12-0.29,0.23-0.58,0.34-0.86
	c2.49-0.81,4.93-1.85,7.48-2.35c2.02-0.41,4.34-0.94,6.04,1.11c0.14,0.14,0.27,0.29,0.41,0.43l0.01,0.01
	c0.14,0.15,0.27,0.3,0.41,0.45c0.43,1.56,0.71,3.19,1.36,4.65c0.32,0.72,1.35,1.12,2.06,1.67c1.97,0.58,3.93,1.3,5.94,1.66
	c0.46,0.08,1.13-1.07,1.71-1.65c0.11-0.15,0.23-0.3,0.34-0.46c0.59-1.39,1.19-2.78,1.78-4.18c1.84-1.23,3.78-2.36,4.03-4.93
	c0.05-0.52,0.3-1.19,0.69-1.48c1.74-1.28,2.04-3.19,2.42-5.08c0.15-0.28,0.3-0.55,0.46-0.82c1.72-0.74,2.27-2.08,1.96-3.86
	c0.33-0.83,0.65-1.67,0.98-2.51c0.28-0.28,0.57-0.56,0.85-0.84c0.26-0.58,0.52-1.15,0.77-1.73c-0.14-1.35-0.26-2.69-0.45-4.03
	c-0.21-1.46-0.49-2.92-0.74-4.38c1.65-1.75,0.68-3.65,0.3-5.51c0-0.3-0.01-0.59-0.01-0.88c0.59-0.85,1.19-1.69,1.78-2.54l0.01-0.02
	c0.65-0.04,1.3-0.11,1.95-0.13c2.84-0.08,5.11,1.3,7.31,2.89c0.41,0.2,0.81,0.41,1.23,0.63c0.3,0.07,0.59,0.14,0.89,0.21
	c1.96,1.56,3.58,1.54,4.74-0.07l0.1-0.12c0.08-0.27,0.16-0.54,0.25-0.8c0.59-0.74,1.19-1.48,1.78-2.23c0.25-0.07,0.5-0.14,0.75-0.21
	l0.08-0.12c0.28-0.02,0.56-0.03,0.84-0.05c0.41-0.13,0.81-0.25,1.22-0.37c1.28-0.06,2.56-0.12,3.83-0.18h0.43
	c0.15,0.06,0.31,0.12,0.47,0.18c0.69,0.14,1.4,0.27,2.1,0.41c0.44,0.03,0.88,0.04,1.32,0.07c0.14,0.03,0.28,0.08,0.41,0.12
	c0.69,0.35,1.37,0.69,2.06,1.04c0.56,0.61,1.12,1.22,1.68,1.82c0.11,0.11,0.22,0.22,0.33,0.33c0.14,0.07,0.29,0.13,0.43,0.19
	c1.03,1.82,2.12,1.07,3.2,0.07c0.31,0,0.63,0,0.94-0.01c0.46,0.2,0.91,0.4,1.38,0.59c0.28,0.07,0.57,0.14,0.85,0.21
	c2.01,0.98,3.72,0.19,4.15-1.91c1.58-2.96,1.58-2.96,4.44-1.47c0.49,0.25,0.97,0.51,1.46,0.76l0.09-0.05
	c-0.03,0.03-0.07,0.07-0.08,0.07c1.16,1.06,2.19,2.3,3.5,3.13c2.87,1.81,4.38,1.19,5.45-1.99c-0.07-0.52-0.26-1.46-0.18-1.49
	c2.63-0.78,1.41-2.88,1.44-4.41c0.06-2.78,0.73-3.77,3.44-4.33l-0.01,0.12c1.26,2.24,3.27,1.73,5.19,1.35
	c2.37-0.45,4.22,0.38,5.72,2.31c0.52,0.67,1.61,1.28,2.43,1.27c2.51-0.03,5.01-0.5,7.53-0.58c1.28-0.03,2.66,0.16,3.83,0.66
	c1.53,0.67,1.54,2.07,0.24,3.17c-2.58,2.17-2.62,3.62-0.28,6.04c1.53,1.58,3.05,3.2,4.41,4.93c0.63,0.8,0.8,1.94,1.3,2.87
	c1.4,2.63,3.12,3.09,5.71,1.63c0.73-0.41,1.5-0.76,2.29-1.04c2.25-0.8,5.86,1.54,6.08,3.92c0.24,2.62,3.31,4.13,5.28,2.4
	c2.28-2,4.38-1.79,6.7-0.32c0.35,0.21,0.76,0.31,1.14,0.47c2.19,0.86,4.54,1.46,6.53,2.67c3.32,2.01,5.53,2.08,8.43-0.58
	c1.24-1.13,2.48-2,4.25-1.64c0.08,0.15,0.16,0.31,0.24,0.47c-0.01,0.85-0.02,1.69-0.03,2.54c-0.05,0.41-0.11,0.82-0.16,1.23
	c-1,1.03-2.23,1.93-2.95,3.13c-1,1.67-2.33,3.61-2.23,5.37c0.13,2.69,1.35,5.34,2.11,8c0.05,0.57,0.09,1.13,0.14,1.68
	c0.74,1.99,1.44,3.99,2.25,5.94c0.78,1.89,1.68,3.72,2.52,5.58c0.14,0.15,0.29,0.31,0.43,0.47l0.78,0.78l0.07,0.06
	c0.36,0.58,0.72,1.14,1.08,1.72c0.04,1.11,0.08,2.22,0.14,3.33c0.21,0.58,0.31,1.26,0.68,1.73c0.9,1.14,1.42,2.3,0.9,3.76
	c-0.39,1.39-1.18,2.8-1.07,4.15c0.28,3.86,3.17,6.75,4.21,10.36c0.14,0.11,0.28,0.23,0.42,0.34c1.41,0.83,2.43,1.86,2.01,3.69
	c-0.13,0.31-0.25,0.63-0.38,0.95c-0.03,0.26-0.05,0.53-0.08,0.8c0.14,0.32,0.29,0.63,0.43,0.95c0.04,0.96,0.08,1.91,0.11,2.87
	c-0.02,0.28-0.03,0.56-0.03,0.84c-0.69,1.65-1.55,3.25-1.97,4.96c-0.2,0.85,0.41,1.9,0.64,2.84c0.47,0.53,0.92,1.07,1.39,1.59
	l2.36,2.54c0.12,0.57,0.23,1.13,0.35,1.7c0.05,1.67,0.09,3.34,0.14,5c0.28,1.05,0.47,2.13,0.86,3.14c1.22,3.17,2.63,6.28,1.01,9.73
	c-0.89,1.9-1.77,3.82-2.66,5.72C251.62,357.76,251.5,357.91,251.37,358.07L251.37,358.07z"/>
<path class="st2" d="M577.04,809.22c-0.01,2.12-0.02,4.23-0.04,6.35C577.02,813.45,577.03,811.34,577.04,809.22z"/>
<path class="st3" d="M567.18,806.67c-0.85-1.11-1.71-2.22-2.56-3.33C565.47,804.46,566.33,805.56,567.18,806.67z"/>
<path class="st2" d="M583.7,828.69c0.39,1,0.79,2,1.18,3.01C584.49,830.69,584.1,829.69,583.7,828.69z"/>
<path class="st3" d="M576.03,825.74c-0.57-0.68-1.14-1.37-1.7-2.05C574.9,824.37,575.47,825.05,576.03,825.74z"/>
<path class="st3" d="M577.31,827.85c-0.42-0.7-0.85-1.41-1.27-2.11C576.46,826.44,576.88,827.15,577.31,827.85z"/>
<path class="st2" d="M548.83,778.74c0.09-0.42,0.17-0.84,0.26-1.25C549.01,777.91,548.92,778.33,548.83,778.74z"/>
<path class="st2" d="M624.29,766.94c-0.46,0.38-0.91,0.76-1.37,1.14C623.38,767.7,623.83,767.32,624.29,766.94z"/>
<path class="st2" d="M581.57,824.44c0.3,0.39,0.6,0.77,0.91,1.16C582.17,825.21,581.87,824.83,581.57,824.44z"/>
<path class="st2" d="M582.68,826.02c0.18,0.33,0.37,0.65,0.55,0.98C583.04,826.68,582.86,826.35,582.68,826.02z"/>
<path class="st2" d="M577.12,817.1c0.18,0.35,0.36,0.71,0.54,1.06C577.47,817.81,577.29,817.45,577.12,817.1z"/>
<path class="st2" d="M550.15,785.6c-0.22-0.33-0.44-0.66-0.65-0.99C549.71,784.93,549.93,785.26,550.15,785.6z"/>
<path class="st1" d="M549.12,767.32c-0.07-0.27-0.14-0.54-0.2-0.82c0.25,0.13,0.5,0.27,0.75,0.4
	C549.48,767.04,549.3,767.18,549.12,767.32z"/>
<path class="st3" d="M568.24,762.79c0.26,0.34,0.52,0.67,0.78,1.01C568.75,763.46,568.49,763.13,568.24,762.79z"/>
<path class="st2" d="M567.43,761.63c0.19,0.35,0.37,0.7,0.56,1.05C567.8,762.33,567.62,761.98,567.43,761.63z"/>
<path class="st2" d="M567.39,759.61c-0.03,0.31-0.06,0.63-0.09,0.94C567.33,760.24,567.36,759.92,567.39,759.61z"/>
<path class="st3" d="M567.96,758.84c-0.14,0.27-0.28,0.55-0.42,0.82C567.68,759.39,567.82,759.12,567.96,758.84z"/>
<path class="st2" d="M545.08,759.38c-0.25-0.31-0.49-0.63-0.74-0.94C544.59,758.75,544.84,759.06,545.08,759.38z"/>
<path class="st2" d="M568.94,757.23c-0.25,0.31-0.5,0.62-0.75,0.93C568.44,757.85,568.69,757.54,568.94,757.23z"/>
<path class="st2" d="M543.85,757.64c-0.14-0.28-0.28-0.56-0.42-0.84C543.57,757.09,543.71,757.37,543.85,757.64z"/>
<path class="st2" d="M545.5,760.22c-0.11-0.17-0.22-0.34-0.33-0.51C545.28,759.88,545.39,760.05,545.5,760.22z"/>
<path class="st4" d="M252.39,334.01c0.05,1.67,0.09,3.34,0.14,5C252.49,337.34,252.44,335.67,252.39,334.01z"/>
<path class="st4" d="M203.35,405.11c-0.9-0.48-1.79-0.96-2.69-1.43C201.56,404.15,202.46,404.63,203.35,405.11z"/>
<path class="st4" d="M199.44,403.56c-0.76,0.01-1.52,0.02-2.28,0.03C197.91,403.58,198.67,403.57,199.44,403.56z"/>
<path class="st4" d="M241.21,284.9c0.36,0.57,0.72,1.15,1.09,1.72C241.93,286.05,241.57,285.47,241.21,284.9z"/>
<path class="st4" d="M205.67,407.14c-0.44-0.35-0.87-0.69-1.31-1.04C204.8,406.45,205.24,406.8,205.67,407.14z"/>
<path class="st18" d="M238.3,250.13c-0.01,0.85-0.02,1.69-0.03,2.54C238.28,251.82,238.29,250.98,238.3,250.13z"/>
<path class="st4" d="M135.35,230.92c0.46,0.2,0.92,0.39,1.37,0.59C136.27,231.31,135.81,231.11,135.35,230.92z"/>
<path class="st4" d="M106.28,230.01c0.41,0.21,0.82,0.42,1.23,0.63C107.1,230.42,106.69,230.21,106.28,230.01z"/>
<path class="st4" d="M240.36,284.06c0.26,0.26,0.52,0.52,0.78,0.78C240.88,284.58,240.62,284.32,240.36,284.06z"/>
<path class="st4" d="M249.57,313.97c-0.13,0.32-0.25,0.63-0.38,0.95C249.32,314.6,249.44,314.28,249.57,313.97z"/>
<path class="st4" d="M249.12,315.71c0.14,0.32,0.29,0.63,0.43,0.95C249.41,316.35,249.26,316.03,249.12,315.71z"/>
<path class="st4" d="M204.23,405.94c-0.24-0.23-0.48-0.45-0.72-0.68C203.75,405.49,203.99,405.71,204.23,405.94z"/>
<path class="st4" d="M115.26,227.63c0.25-0.07,0.51-0.14,0.76-0.21C115.77,227.49,115.51,227.56,115.26,227.63z"/>
<path class="st4" d="M113.24,230.66c0.08-0.27,0.16-0.54,0.25-0.81C113.4,230.12,113.32,230.39,113.24,230.66z"/>
<path class="st4" d="M247.14,309.94c0.14,0.11,0.28,0.23,0.42,0.34C247.42,310.17,247.28,310.05,247.14,309.94z"/>
<path class="st4" d="M214.6,411.19c-0.12-0.08-0.23-0.16-0.35-0.24C214.37,411.03,214.49,411.11,214.6,411.19z"/>
<path class="st18" d="M251.74,357.61c-0.12,0.15-0.25,0.3-0.37,0.45C251.5,357.91,251.62,357.76,251.74,357.61z"/>
<path class="st18" d="M69.97,263.27c0.14,0.14,0.27,0.29,0.41,0.43C70.24,263.55,70.1,263.41,69.97,263.27z"/>
<path class="st18" d="M70.39,263.71c0.13,0.15,0.27,0.3,0.4,0.45C70.66,264.01,70.52,263.86,70.39,263.71z"/>
<path class="st18" d="M58.09,268.77c-0.11-0.16-0.22-0.31-0.34-0.47C57.86,268.45,57.98,268.61,58.09,268.77z"/>
<path class="st18" d="M81.86,270.48c0.11-0.15,0.23-0.3,0.34-0.45C82.09,270.17,81.97,270.33,81.86,270.48z"/>
<path class="st33" d="M122.06,409.33c-0.44,0.4-0.87,0.81-1.31,1.21C121.19,410.14,121.62,409.74,122.06,409.33z"/>
<path class="st14" d="M111.93,416.86c-0.02,0.29-0.04,0.59-0.06,0.88C111.89,417.45,111.91,417.15,111.93,416.86z"/>
<path class="st14" d="M124.44,369.86c-0.09,0.3-0.18,0.59-0.27,0.89C124.26,370.46,124.35,370.16,124.44,369.86z"/>
<path class="st14" d="M111.79,418.13c-0.15,0.24-0.31,0.47-0.46,0.71C111.48,418.6,111.63,418.36,111.79,418.13z"/>
<path class="st4" d="M152.91,211.58c0.4,0.44,0.8,0.88,1.2,1.32C153.71,212.46,153.31,212.02,152.91,211.58z"/>
<path class="st6" d="M293.63,220.96c-0.3-0.13-0.6-0.25-0.9-0.38C293.03,220.7,293.33,220.83,293.63,220.96z"/>
<path class="st19" d="M250.61,310.6c-1.92-0.93-2.15-2.7-2.65-4.55c-0.47-1.74-1.78-3.24-2.74-4.84c-0.17-0.29-0.48-0.52-0.59-0.83
	c-0.61-1.82,2.24-5.33,4.42-5.25c-0.35,3.21,2.33,3.12,4.3,3.86c0.32,0.21,0.63,0.42,0.95,0.63c0.11,0.07,0.22,0.14,0.34,0.2
	c0.48,1.2,0.96,2.39,1.44,3.59c-0.03,1.3-0.05,2.59-0.08,3.89c-1.9,1.42-1.73,3.46-1.6,5.47c-0.57,0.89-1.14,1.78-1.7,2.67
	c-0.46-0.02-0.92-0.03-1.38-0.05c0.01-0.61,0.02-1.21,0.03-1.82c0-0.39-0.01-0.78-0.01-1.16c-0.07-0.3-0.13-0.6-0.2-0.9
	C250.95,311.21,250.78,310.9,250.61,310.6z"/>
<path class="st19" d="M236.21,267.45c-0.71-2.19-0.51-2.47,2-2.89c0,0,0-0.01,0-0.01c0.14,0.15,0.29,0.29,0.43,0.44
	c0.03,0.13,0.05,0.25,0.08,0.38c-0.35,1.65-0.08,3.03,1.67,3.75c0.19,0.89,0.61,1.82,0.49,2.67c-0.11,0.81-0.79,1.55-1.45,2.74
	c-0.46-0.58-0.97-1.02-1.19-1.57C237.5,271.14,236.87,269.29,236.21,267.45z"/>
<path class="st19" d="M237.36,262.75c-0.69,0.07-1.83,0.42-2,0.15c-0.38-0.61-0.57-1.61-0.34-2.29c0.41-1.28,1.17-2.44,2-4.08
	c0.67,0.84,1.15,1.45,1.64,2.06C240.45,260.68,237.97,261.43,237.36,262.75z"/>
<path class="st19" d="M251.1,291.38c-0.57-1.06-0.92-2.07,0.64-2.61c0.29,0.11,0.59,0.22,0.88,0.33c0.86,1.12,1.72,2.23,2.58,3.35
	c0.27,0.7,0.55,1.41,0.82,2.11c-0.03,0.38-0.06,0.76-0.09,1.14c-0.69-0.43-1.48-0.75-2.06-1.3
	C252.88,293.47,252.01,292.4,251.1,291.38z"/>
<path class="st19" d="M248.01,291.59c-0.21,0.94-0.42,1.89-0.63,2.83c-0.24,0.02-0.48,0.04-0.72,0.06c-0.66-1.5-1.31-3-1.97-4.51
	C246.68,288.7,247.39,290.06,248.01,291.59z"/>
<path class="st19" d="M250.93,293.07c1.12,1.21,2.24,2.41,3.36,3.61c-0.03,0.27-0.06,0.55-0.09,0.82c-2.58-0.21-3.49-1.27-3.71-4.38
	C250.64,293.11,250.79,293.09,250.93,293.07z"/>
<path class="st18" d="M256.02,294.56c-0.27-0.7-0.55-1.41-0.82-2.11C255.47,293.15,255.74,293.86,256.02,294.56z"/>
<path class="st18" d="M252.62,289.1c-0.29-0.11-0.59-0.22-0.88-0.33C252.03,288.88,252.32,288.99,252.62,289.1z"/>
<path class="st18" d="M250.14,329.69c-0.16-0.03-0.31-0.06-0.47-0.09C249.82,329.63,249.98,329.66,250.14,329.69z"/>
<path class="st18" d="M238.64,264.99c-0.14-0.15-0.28-0.29-0.43-0.44C238.35,264.7,238.49,264.84,238.64,264.99z"/>
<path class="st19" d="M253.46,362.66c-0.69-1.04-1.2-1.48-1.23-1.95c-0.08-1.15,2.26-3.28,3.3-3.01c0.38,0.1,0.96,0.97,0.87,1.1
	C255.61,360,254.68,361.1,253.46,362.66z"/>
<path class="st11" d="M255.62,362.31c-0.42,0.29-0.84,0.59-1.26,0.88C254.77,362.89,255.2,362.6,255.62,362.31z"/>
<path class="st19" d="M149.5,373.72c1.24-0.25,2.55-0.33,3.71-0.78c2.67-1.05,7.03,0.56,8.61,3.34c-0.61-0.03-1.46,0.17-1.78-0.15
	c-1.49-1.49-4.15-1.89-6.09-1.25c-1.59,0.52-3.38,0.45-5.08,0.65c-0.05-0.22-0.1-0.44-0.15-0.65
	C148.98,374.48,149.24,374.1,149.5,373.72z"/>
<path class="st14" d="M168.62,390.62c-0.3-0.57-0.61-1.14-0.91-1.71C168.02,389.48,168.32,390.05,168.62,390.62z"/>
<path class="st4" d="M251.32,312.4c0,0.39,0.01,0.78,0.01,1.16C251.33,313.18,251.33,312.79,251.32,312.4z"/>
<path class="st4" d="M250.61,310.6c0.17,0.3,0.34,0.6,0.52,0.9C250.95,311.2,250.78,310.9,250.61,310.6z"/>
<path class="st33" d="M240.2,232.33c-0.23,0.42-0.46,0.84-0.7,1.26C239.74,233.17,239.97,232.75,240.2,232.33z"/>
<path class="st6" d="M258.54,302.61c-0.02,0.15-0.04,0.3-0.06,0.45C258.51,302.91,258.52,302.76,258.54,302.61z"/>
<g>
	<text transform="matrix(1 0 0 1 138.1585 322.0914)" class="st0 st35 st36">RAJSHAHI</text>
</g>
<ellipse class="st37" cx="166.26" cy="305.93" rx="8.92" ry="0.87"/>
<g>
	<g>
		<circle class="st8" cx="166.26" cy="287.14" r="3.95"/>
	</g>
	<g>
		<path class="st8" d="M166.26,293.45c-3.48,0-6.31-2.83-6.31-6.31c0-3.48,2.83-6.31,6.31-6.31c3.48,0,6.31,2.83,6.31,6.31
			C172.57,290.62,169.74,293.45,166.26,293.45z M166.26,282.01c-2.83,0-5.13,2.3-5.13,5.13s2.3,5.13,5.13,5.13
			c2.83,0,5.13-2.3,5.13-5.13S169.09,282.01,166.26,282.01z"/>
	</g>
	<polygon class="st8" points="167.51,293.19 166.26,306.36 166.26,306.38 166.26,306.36 165.01,293.19 166.26,293.17 166.26,293.17 
			"/>
</g>
</svg>
