<?xml version="1.0" encoding="utf-8"?>
<!-- Generator: Adobe Illustrator 27.6.1, SVG Export Plug-In . SVG Version: 6.00 Build 0)  -->
<svg version="1.1" id="Layer_1" xmlns="http://www.w3.org/2000/svg" xmlns:xlink="http://www.w3.org/1999/xlink" x="0px" y="0px"
	 viewBox="0 0 661.87 864" style="enable-background:new 0 0 661.87 864;" xml:space="preserve">
<style type="text/css">
	.st0{fill:#FFFFFF;}
	.st1{fill:#5FA440;}
	.st2{fill:#A0C88D;}
	.st3{fill:#D9F1CB;}
	.st4{fill:#B4B0BC;}
	.st5{fill:#F6FAF8;}
	.st6{fill:#EBBF7A;}
	.st7{fill:#487C2D;}
	.st8{fill:#FF0000;}
	.st9{fill:#B2AE18;}
	.st10{fill:#FFFF2E;}
	.st11{fill:#F9E8B9;}
	.st12{fill:#8E8813;}
	.st13{fill:#CCAA19;}
	.st14{fill:#EDAACF;}
	.st15{fill:#CB336F;}
	.st16{fill:#998014;}
	.st17{fill:#163784;}
	.st18{fill:#C3E1F3;}
	.st19{fill:#3470B0;}
	.st20{fill:#FBFDFA;}
	.st21{fill:#E8E8E8;}
	.st22{fill:#3C3C3C;}
	.st23{fill:#133685;}
	.st24{fill:#112C63;}
	.st25{fill:#E59936;}
	.st26{fill:#E19A39;}
	.st27{fill:#EB5E55;}
	.st28{fill:#8C7752;}
	.st29{fill:#AF732B;}
	.st30{fill:#6772DB;}
	.st31{font-family:'Roboto-Black';}
	.st32{font-size:12px;}
	.st33{fill:#4F5CA8;}
	.st34{fill:#D13270;}
	.st35{fill:#DCDCDE;}
	.st36{fill:#CC4D4A;}
	.st37{fill:#25527A;}
	.st38{fill:#773E84;}
	.st39{fill:#773B85;}
	.st40{fill:#4D2756;}
</style>
<path class="st30" d="M279.79,215.79h-0.01c-0.8-0.08-1.53-0.04-2.14,0.22c-0.23,0.09-0.43,0.21-0.62,0.37
	c-0.06,0.05-0.12,0.1-0.18,0.16c-0.35,0.34-0.63,0.81-0.84,1.44c-0.57-0.19-1.12-0.37-1.64-0.54c-0.53-0.17-1.03-0.34-1.54-0.51
	c0.32-0.46,0.64-0.91,0.96-1.36c0.35-0.12,0.7-0.23,1.05-0.34c1.34-0.2,2.67-0.39,4.01-0.59c0.26,0.01,0.51,0.02,0.77,0.03
	C279.67,215.04,279.73,215.41,279.79,215.79z"/>
<path class="st18" d="M251.74,357.61c-0.12,0.15-0.25,0.3-0.37,0.45C251.5,357.91,251.62,357.76,251.74,357.61z"/>
<path class="st30" d="M439.89,300.23c-0.75-2.69-2.81-3.55-6.28-2.85c-3.36,0.67-4.25-0.13-3.89-3.52c0.04-0.42,0.22-0.82,0.26-1.24
	c0.37-3.51,0.46-6.95-0.93-10.38c-0.92-2.29-1.47-4.8-1.75-7.27c-0.35-3.1-1.7-4.21-4.73-3.25c-2.74,0.87-5.46,1.78-8.19,2.69
	c-1.94,0.66-4.6-0.01-5.69-1.66c-1.77-2.68-3.41-5.45-5.11-8.17c-0.52-0.83-0.93-1.76-1.57-2.48c-1.92-2.17-2.47-4.65-1.21-7.2
	c0.85-1.72,1.92-3.35,2.96-4.98c1.56-2.48,1.38-4-0.54-6.02c-0.63-0.66-1.19-1.66-1.27-2.54c-0.16-2.01-0.02-4.05,0-6.06
	c-0.29,0.06-0.58,0.13-0.87,0.2c-0.29,0.07-0.57,0.15-0.86,0.23c-1.58,0.43-3.14,0.94-4.74,1.25c-0.71,0.14-1.42,0.24-2.15,0.28
	c-0.04,0-0.08,0.01-0.12,0.01c-0.35,0.01-0.7,0.01-1.05,0c-0.3-0.01-0.61-0.03-0.92-0.07c0,0,0-0.01-0.01,0
	c-0.16-0.02-0.31-0.04-0.47-0.07c-0.11-0.02-0.22-0.01-0.33,0.02c-0.25,0.06-0.52,0.22-0.77,0.39c-0.2,0.14-0.4,0.29-0.58,0.41
	c-0.06,0.04-0.12,0.08-0.18,0.11c-0.36-0.18-0.72-0.35-1.08-0.52c-1.07-0.5-2.13-0.98-3.08-1.63c-0.56-0.39-0.69-1.4-1.05-2.24
	c-1.59,0.21-2.55,3.13-4.66,1.22c-0.28,0.02-0.56,0.04-0.84,0.06c-1.9,2.59-3.89,2.73-5.07,0.36c-0.56-0.15-1.11-0.28-1.67-0.43
	c-0.74-0.48-1.48-0.95-2.21-1.45c-0.48-0.32-0.92-0.69-1.39-1.03c-0.21,0.49-0.41,0.98-0.41,0.98c-1.76,0.91-3.12,1.64-4.51,2.33
	c-0.34,0.18-0.95,0.49-1.08,0.37c-1.64-1.55-3.22-0.21-4.73,0.14c-2,0.46-3.56-0.03-4.98-1.37c-0.25-0.25-0.55-0.64-0.82-0.63
	c-0.92,0.05-2.32-0.06-2.62,0.43c-0.4,0.67,0.05,1.86,0.18,3.34c-0.41,0.03-1.7,0.47-2.06,0.08c-1.76-1.96-3.66-0.56-5.5-0.57
	c-0.9,0-1.79-0.19-2.7-0.28c-1.17-0.14-2.18-0.79-3.5,0.21c-1.98,1.51-4.37,0.3-4.73-2.06c-0.26-1.72-1.31-2.81-2.95-3.48
	c-0.91-0.38-1.68-1.1-2.52-1.67c-0.27-0.02-0.55-0.03-0.82-0.04c-1.71,0.44-3.4,1.04-5.13,1.28c-2.12,0.3-4.29,0.33-6.44,0.4
	c-0.58,0.02-1.17-0.24-1.56-0.34v-3.31c-0.13-0.04-0.26-0.09-0.38-0.13c-0.16,0.02-0.31,0.05-0.46,0.07
	c-0.44,1.58-1.11,2.71-3.12,2.59c-0.98-0.05-1.98,0.66-3,0.85c-0.82,0.15-1.69,0.03-2.54,0.03c-0.03-0.21-0.08-0.42-0.12-0.62
	c0.44-0.25,0.86-0.61,1.33-0.7c3.17-0.67,3.17-0.65,2.79-3.56c-0.05-0.09-0.12-0.13-0.23-0.11c-0.62,0.07-1.25,0.14-1.87,0.2
	c-0.71,0.21-1.49,0.73-2.12,0.58c-0.97-0.24-2.23-0.69-2.68-1.45c-1.79-3.02-5.05-3.49-7.77-4.87c-0.46-0.24-1.1-0.21-1.65-0.15
	c-1.75,0.19-3.06-0.23-4.06-1.89c-0.46-0.74-1.69-1.02-2.65-1.55c0.05-0.44,0.13-1.05,0.2-1.67c-0.95-0.02-1.89-0.03-2.85-0.04
	h-0.01c-0.8-0.08-1.53-0.04-2.14,0.22c-0.23,0.1-0.43,0.22-0.62,0.37c-0.06,0.05-0.12,0.1-0.18,0.16c-0.35,0.34-0.63,0.81-0.84,1.44
	v0.01c-0.57-0.19-1.12-0.37-1.64-0.55c-0.53-0.17-1.03-0.34-1.54-0.51c-0.67,0.18-1.34,0.36-2.02,0.53v0.01h0.01
	c-0.05,0.31-0.13,0.56-0.24,0.76c0,0,0.01,0.01,0,0.01c-0.07,0.13-0.15,0.24-0.24,0.33c-0.14,0.14-0.29,0.23-0.46,0.28
	c-0.55,0.18-1.24-0.02-1.81-0.24c-2.01-0.79-3.25-3.04-3.25-5.32c0-0.28,0.02-0.56,0.06-0.84v-0.01c0.03-0.28,0.09-0.56,0.17-0.83
	c0.02-0.04,0.03-0.08,0.05-0.13c0.01-0.04,0.03-0.09,0.04-0.14c0.03-0.09,0.05-0.18,0.05-0.25c0-0.03-0.01-0.05-0.03-0.07
	c-1.28-1.22-2.42-2.86-3.96-3.49c-0.93-0.38-1.75-0.07-2.39,0.59c-0.11,0.11-0.22,0.24-0.32,0.38c-0.1,0.13-0.19,0.28-0.28,0.43
	c-0.04,0.07-0.09,0.15-0.12,0.23c-0.08,0.16-0.15,0.31-0.22,0.48c-0.03,0.08-0.06,0.17-0.09,0.25c-0.38,1.14-0.63,2.37-2.45,0.82
	c-0.03,0.15-0.06,0.3-0.09,0.44c-0.06,0.29-0.11,0.56-0.17,0.83c-0.08,0.4-0.15,0.78-0.23,1.15c-0.05,0.25-0.1,0.49-0.15,0.74
	c0,0.24,0.01,0.48,0.01,0.71c2.2,0.14,2.9,0.93,3.01,3.34c0.03,0.64-0.02,1.2-0.22,1.63c-0.08,0.18-0.19,0.34-0.33,0.46
	c-0.05,0.05-0.1,0.09-0.15,0.12c-0.15,0.12-0.33,0.21-0.55,0.27c-0.25,0.07-0.56,0.1-0.92,0.09h-0.01
	c-0.11,0.14-0.23,0.27-0.35,0.41c-0.15,0.15-0.3,0.3-0.44,0.45v0.01c0,0.83,0,1.68,0.01,2.53c0.17-0.05,0.35-0.07,0.53-0.1
	c0.12-0.02,0.24-0.05,0.35-0.07c0.06-0.02,0.12-0.04,0.17-0.05c0.11-0.04,0.21-0.09,0.3-0.15c0.78-0.56,1.47-1.51,2.36-0.2
	c0.08,0.11,0.14,0.22,0.2,0.32c0.11,0.22,0.18,0.42,0.21,0.62c0.15,0.8-0.29,1.49-1.04,2.11c-0.13,0.1-0.25,0.21-0.37,0.32
	c-0.11,0.11-0.23,0.23-0.35,0.34c-0.11,0.11-0.22,0.22-0.34,0.34c-0.11,0.11-0.23,0.22-0.34,0.34c0.52,0.39,1.37,0.8,1.77,1.18
	l0.09,0.09c0.04,0.05,0.08,0.1,0.09,0.14c0.03,0.05,0.05,0.1,0.04,0.15c-0.01,0.14-0.03,0.29-0.06,0.43c-0.18,1-0.72,1.98-1.28,2.86
	c-0.15,0.24-1.21-0.1-1.85-0.17c-0.58,0.3-1.16,0.61-1.74,0.91c0.05,0.28,0.1,0.56,0.15,0.84c0.05,0.28,0.1,0.56,0.15,0.84
	c0.1,0.58,0.18,1.16,0.17,1.74c0,0.38-0.29,0.88-0.64,1.2c-0.11,0.11-0.23,0.2-0.35,0.25c-0.11,0.05-0.23,0.07-0.36,0.09
	c-0.53,0.08-1.15-0.04-1.71-0.04c-0.28,0.15-0.56,0.3-0.83,0.46c0.11,0.62,0.25,1.23,0.36,1.85c0.1,0.52,0.19,1.05,0.24,1.57
	c0.01,0.06,0.01,0.12,0,0.17c0.01,0.05,0.01,0.11,0.01,0.16c0,0.4-0.06,0.74-0.18,1.04c-0.06,0.14-0.13,0.28-0.22,0.4
	c-0.08,0.13-0.18,0.25-0.29,0.35c-0.16,0.16-0.36,0.3-0.58,0.42c-0.07,0.04-0.15,0.08-0.22,0.11c-0.16,0.07-0.32,0.13-0.5,0.18
	c-0.17,0.05-0.36,0.09-0.55,0.13c-0.06,0.13-0.11,0.27-0.17,0.4c0.04,0.15,0.07,0.28,0.11,0.43c0.57,0.62,1.26,1.16,1.66,1.87
	c0.08,0.14,0.14,0.27,0.18,0.39c0.02,0.05,0.04,0.11,0.04,0.16c0.03,0.17,0.01,0.3-0.05,0.41c-0.04,0.08-0.1,0.15-0.17,0.21
	c-0.03,0.02-0.07,0.05-0.1,0.07c-0.06,0.04-0.13,0.08-0.21,0.11c-0.11,0.05-0.24,0.1-0.36,0.15c-0.17,0.06-0.33,0.13-0.48,0.2
	c-0.04,0.02-0.08,0.04-0.11,0.06c-0.56,0.34-1.08,0.74-1.61,1.12c-0.18,0.13-0.35,0.26-0.53,0.39c-0.01,1.74,0.09,3.49,0,5.2
	c-0.02,0.52-0.07,1.03-0.14,1.54c-0.02,0.18-0.06,0.36-0.11,0.53v0.01c-0.07,0.26-0.14,0.52-0.2,0.77c-0.16,0.7-0.2,1.37,0.41,2.06
	c0.31,0.24,0.62,0.47,0.93,0.7c0.13,0.49,0.25,0.97,0.39,1.45c0.02,0.14,0.05,0.26,0.1,0.38c1.36,0.72,0.35,1.38,0.06,2.19
	c-0.22,0.62-0.43,1.51-0.34,2.12c0.02,0.12,0.05,0.23,0.09,0.32c0.03,0.06,0.06,0.11,0.1,0.16c2.08,2.59,1.82,5.34,0.83,8.12
	c-0.59,1.67,0.02,2.8,0.74,4.24c1.05,2.1,2.73,2.98,4.72,3.77c0.17,0.07,0.29,0.27,0.39,0.53c0.03,0.08,0.06,0.18,0.09,0.28
	c0.02,0.07,0.04,0.14,0.06,0.22c0.04,0.15,0.07,0.31,0.11,0.46c0.02,0.08,0.04,0.16,0.06,0.23c0.03,0.09,0.06,0.19,0.09,0.27v0.01
	c0,0.19,0.01,0.39,0.01,0.57c0.67,0.02,1.34,0.04,2.01,0.04c0.26-0.04,0.51-0.07,0.76-0.1c0.26-0.03,0.51-0.07,0.77-0.11
	c0.87-0.12,1.78-0.25,2.82-0.4h0.01c0,0.23-0.01,0.45-0.02,0.66c0,0.21-0.02,0.42-0.02,0.62c-0.02,0.47-0.02,0.9,0.07,1.32
	c0.09,0.43,0.22,0.84,0.39,1.25c0.17,0.41,0.36,0.8,0.57,1.19c0.4,0.77,0.95,1.46,1.44,2.18c-0.88,0.39-1.76,0.79-2.65,1.18
	c-0.08,0.28-0.17,0.56-0.24,0.84c0.04,0.04,0.09,0.07,0.14,0.1c0.04,0.03,0.09,0.06,0.13,0.09c0.22,0.13,0.42,0.26,0.41,0.38
	c-0.2,2.1-0.2,4.27-1,6.23c-0.18,0.46-0.41,0.9-0.7,1.33c1.58,1.7,4.2,4.31,4.81,3.55c0.64-0.81,2-3.15,3.03-4.78l35.23,0.46
	l0.74,4.1l0.89,2.86l1.98,4.18l2.2,1.1l3.31,2.21c0,0,2.64,1.54,0.66,4.4c-1.98,2.86,1.32,5.94,1.32,5.94s2.43,1.1,0,6.83
	c-2.42,5.72,1.54,5.72,1.54,5.72s0.89,3.09,1.55,5.29c0.66,2.2,4.4,3.3,7.05,1.76c2.64-1.54,5.51,0,5.51,0h3.74l2.87-2.64l1.76-2.2
	l2.21-1.33l1.54,1.11l2.2,1.54l3.75,0.88l0.66,1.98l1.1,1.54l1.32,2.64l1.99,1.32c0,0,0,0,1.76,0s2.2,0,3.08-0.22
	c0.89-0.22,1.99-0.44,1.99-0.44c2.64-0.88,2.64-0.88,2.64-0.88s-0.44-1.98-0.44-3.3s-0.22-2.64,0-3.74c0.22-1.1,0-2.43,0-2.43
	s-0.22,0,0-1.54s0-2.64,0-2.64l0.22-3.52l-0.66-1.54l-1.32-1.54l-1.32-1.77c-0.66-1.76-1.11-3.3-1.11-3.3s-0.66-1.54,0-1.98
	c0.67-0.44,0.67-0.44,0.67-0.44l1.54-0.66l1.54-0.22c0,0,0.65,2.34,1.98,1.5c0.02-0.02,0.05-0.03,0.07-0.04
	c1.26-0.79,1.28-0.57,2.58,0.08c1.32,0.66,1.32,0.66,1.32,0.66l1.1-1.32c0,0,1.55-0.44,1.77-1.1c0.22-0.66,0.66-2.2,0.66-2.2
	s1.76-1.32,1.76-0.44s0.44,1.98,0.44,1.98l0.22,1.54l0.66,2.42l1.54-0.22l1.33-1.76l1.54-1.1l2.64-0.44c0,0,2.21,1.54,2.87-4.41
	c0.66-5.94,4.41-7.7,7.49-6.82c3.09,0.88,5.07-1.54,9.7-0.88c4.62,0.66,10.57,0.44,12.12-1.98c0.44-0.69,0.91-1.87,1.43-3.09
	c1.3-3.09,2.9-6.42,4.96-2.64c0.55,1.02,0.97,1.93,1.33,2.72c1.5,3.31,1.89,4.48,6.16,2.35c5.29-2.65,8.86,1.62,8.86,1.62h0.01
	l0.01-0.01c0.6-1.04,1.38-1.95,2-2.98l0.42-0.75c0.43-0.8,0.82-1.61,1.18-2.44C439.61,301.78,440.08,300.88,439.89,300.23z
	 M368.82,237.81c-0.73-0.77-1.46-1.55-2.2-2.32v-0.01c0.11-0.09,0.22-0.18,0.33-0.27c0.2-0.16,0.4-0.33,0.6-0.5
	c0.64,0.86,1.28,1.72,1.91,2.58C369.25,237.46,369.03,237.64,368.82,237.81z M382.79,238.36c-0.61-0.49-1.21-0.98-1.81-1.48
	c0.13-0.14,0.25-0.28,0.37-0.42c0.12-0.15,0.25-0.29,0.37-0.43l0.01,0.01c0.56,0.52,1.13,1.05,1.69,1.58
	C383.21,237.87,383,238.11,382.79,238.36z"/>
<path class="st30" d="M401.96,235.25c-0.01,0.01-0.01,0.03-0.02,0.04c-0.29,0.07-0.58,0.13-0.86,0.21
	c-0.29,0.07-0.57,0.15-0.86,0.23c-1.58,0.43-3.14,0.94-4.74,1.25c-0.71,0.14-1.42,0.24-2.15,0.28c-0.04,0-0.08,0.01-0.12,0.01
	c-0.35,0.01-0.7,0.01-1.05,0c-0.3-0.01-0.61-0.03-0.92-0.07c0,0,0-0.01-0.01,0c-0.15-0.03-0.31-0.05-0.47-0.08
	c-0.11-0.02-0.22-0.01-0.33,0.03c-0.25,0.06-0.52,0.22-0.77,0.39c-0.2,0.14-0.4,0.29-0.58,0.41c-0.06,0.03-0.12,0.07-0.18,0.1
	c-0.36-0.18-0.72-0.35-1.08-0.51c-1.07-0.5-2.13-0.98-3.08-1.63c-0.56-0.39-0.69-1.4-1.05-2.24c-1.59,0.21-2.55,3.13-4.66,1.22
	c0.73-0.51,1.45-1.03,2.18-1.54c0.37-0.22,0.74-0.44,1.12-0.66c1.69-0.44,3.19-0.5,3.75,1.69c0.06,0.22,0.7,0.3,1.07,0.44
	c0.11,0.03,0.21,0.07,0.31,0.13c0.58,0.4,1.19,1.19,1.73,1.14c3.55-0.32,7.08-0.83,10.62-1.27c0.23-0.01,0.46-0.03,0.68-0.04h1.06
	c0.13,0.07,0.27,0.14,0.4,0.21C401.98,235.08,401.99,235.16,401.96,235.25z"/>
<path class="st14" d="M441.29,228.21c0.13-0.15,0.25-0.31,0.38-0.46C441.54,227.9,441.42,228.05,441.29,228.21z"/>
<path class="st30" d="M270.81,217.47c-0.05,0.31-0.13,0.56-0.24,0.76c0,0,0.01,0.01,0,0.01c-0.07,0.13-0.15,0.24-0.24,0.33
	c-0.14,0.14-0.29,0.23-0.46,0.28c-0.55,0.18-1.24-0.02-1.81-0.24c-2.01-0.79-3.25-3.04-3.25-5.32c0-0.28,0.02-0.56,0.06-0.84v-0.01
	c0.03-0.28,0.09-0.56,0.17-0.83c0.02-0.04,0.03-0.08,0.05-0.13c0.01-0.04,0.03-0.09,0.04-0.14c0.03-0.09,0.05-0.18,0.05-0.25
	c0-0.03-0.01-0.05-0.03-0.07c-1.28-1.22-2.42-2.86-3.96-3.49c-0.93-0.38-1.75-0.07-2.39,0.59c-0.11,0.11-0.22,0.24-0.32,0.38
	c-0.1,0.13-0.19,0.28-0.28,0.43c-0.04,0.07-0.09,0.15-0.12,0.23c-0.08,0.15-0.16,0.31-0.22,0.48c-0.03,0.08-0.06,0.17-0.09,0.25
	c-0.38,1.14-0.63,2.37-2.45,0.82c-0.03,0.15-0.06,0.3-0.09,0.44c-0.06,0.29-0.11,0.56-0.17,0.83c-0.08,0.4-0.16,0.78-0.23,1.15
	c-0.05,0.25-0.1,0.49-0.15,0.74c-0.24-0.78-0.89-1.72-0.66-2.31c1.22-3.02,2.56-6.01,4.06-8.91c0.88-1.68,3.77-2.08,6.33-1.18
	c-0.52,1.97-0.32,3.77,0.56,5.69c0.64,1.38,0.71,3.1,0.74,4.68c0.06,4.02,1.1,5.25,5.09,5.63H270.81z"/>
<path class="st30" d="M371.45,234.88c-0.74-0.48-1.48-0.95-2.21-1.45c-0.48-0.32-0.92-0.69-1.39-1.03
	c-0.21,0.49-0.41,0.98-0.41,0.98c-1.76,0.91-3.12,1.64-4.51,2.33c-0.34,0.18-0.95,0.49-1.08,0.37c-1.64-1.55-3.22-0.21-4.73,0.14
	c-2,0.46-3.56-0.03-4.98-1.37c-0.25-0.25-0.55-0.64-0.82-0.63c-0.92,0.05-2.32-0.06-2.62,0.43c-0.4,0.67,0.05,1.86,0.18,3.34
	c-0.41,0.03-1.7,0.47-2.06,0.08c-1.76-1.96-3.66-0.56-5.5-0.57c-0.9,0-1.79-0.19-2.7-0.28c-1.17-0.14-2.18-0.79-3.5,0.21
	c-1.98,1.51-4.37,0.3-4.73-2.06c-0.26-1.72-1.31-2.81-2.95-3.48c-0.91-0.38-1.68-1.1-2.52-1.67c0.14-0.14,0.29-0.28,0.42-0.42h0.86
	c0.27,0.04,0.54,0.08,0.8,0.11c0.85,0.54,1.7,1.07,2.55,1.6c0.15,0.11,0.29,0.2,0.45,0.3c0.16,0.16,0.32,0.31,0.48,0.47
	c0.54,0.73,1.08,1.46,1.63,2.18c0.15,0.14,0.29,0.28,0.43,0.41c0.41,0.28,0.8,0.77,1.21,0.78c1.32,0.07,2.65-0.05,3.97-0.09
	c3.84,2.55,6.74,0.26,9.68-1.87c2.95-0.51,5.9-1.75,8.89-0.09c0.17,0.09,0.51-0.13,0.77-0.21c0.12-0.01,0.23-0.03,0.36-0.05
	c2.62,1.14,5.19,1.2,7.67-0.38c0.16-0.18,0.32-0.38,0.48-0.57C368.76,231.38,369.7,231.79,371.45,234.88z"/>
<path class="st30" d="M303.37,226.83c-0.71,0.21-1.49,0.73-2.12,0.58c-0.97-0.24-2.23-0.69-2.68-1.45
	c-1.79-3.02-5.05-3.49-7.77-4.87c-0.46-0.24-1.1-0.21-1.65-0.15c-1.75,0.19-3.06-0.23-4.06-1.89c-0.46-0.74-1.69-1.02-2.65-1.55
	c0.05-0.44,0.13-1.05,0.2-1.67c0.29-0.02,0.59-0.03,0.88-0.05c0.27,0.17,0.53,0.34,0.8,0.51c0.42,0.28,0.86,0.55,1.28,0.83
	c1.95,2.02,4.3,3.25,7.13,3.46c0.3,0.12,0.6,0.25,0.9,0.38c0.55,0.02,1.09,0.03,1.64,0.06c0.44,0.13,0.87,0.28,1.3,0.41
	c0.26,0.2,0.52,0.39,0.78,0.59c1.14,1.09,2.27,2.18,3.42,3.27C301.63,225.8,302.5,226.32,303.37,226.83z"/>
<path class="st6" d="M293.63,220.96c-0.3-0.13-0.6-0.25-0.9-0.38C293.03,220.7,293.33,220.83,293.63,220.96z"/>
<path class="st30" d="M310.13,228.15c-0.44,1.58-1.11,2.71-3.12,2.59c-0.98-0.05-1.98,0.66-3,0.85c-0.82,0.15-1.69,0.03-2.54,0.03
	c-0.03-0.21-0.08-0.42-0.12-0.62c0.44-0.25,0.86-0.61,1.33-0.7c3.17-0.67,3.17-0.65,2.79-3.56c0.28-0.02,0.56-0.03,0.84-0.04
	c0.42,0.07,0.84,0.16,1.26,0.23c0.26,0.02,0.51,0.05,0.77,0.06c0.34,0.2,0.68,0.39,1.02,0.59c0.12,0.03,0.24,0.06,0.36,0.09
	C309.86,227.83,309.99,227.99,310.13,228.15z"/>
<path class="st26" d="M430.66,357.68c0.57-0.43,1.14-0.85,1.71-1.28C431.81,356.82,431.23,357.25,430.66,357.68z"/>
<path class="st30" d="M245.88,259.08c-0.16,0.7-0.2,1.37,0.41,2.06c-0.03,0.25-0.05,0.49-0.08,0.73c-0.45,0.7-0.91,1.4-1.36,2.1
	c-0.13,0.16-0.26,0.32-0.39,0.49c-0.23,0.45-0.46,0.89-0.69,1.34h-0.01c-0.15,0.12-0.3,0.24-0.45,0.36
	c-0.74,0.28-1.47,0.55-2.21,0.83c0.06-0.96,0.11-1.91,0.16-2.87c0.52-0.6,1.04-1.21,1.56-1.81c0.07-0.24,0.14-0.47,0.21-0.7
	c0.05-0.73,0.09-1.45,0.14-2.18c-0.12-0.55-0.23-1.1-0.34-1.66c-0.1-0.31-0.2-0.62-0.29-0.93c-0.36-1.56-0.72-3.13-1.08-4.7
	c0.48-0.67,0.95-1.35,1.43-2.03c0.28-0.14,0.57-0.29,0.85-0.43c0.38,0.13,0.77,0.25,1.15,0.38c0.47,0.3,0.93,0.61,1.4,0.92
	l0.04,0.04v0.01c-0.01,1.74,0.09,3.49,0,5.2c-0.03,0.52-0.08,1.03-0.15,1.54c-0.03,0.18-0.06,0.36-0.1,0.53v0.01
	C246.01,258.57,245.94,258.83,245.88,259.08z"/>
<path class="st30" d="M254.71,286.58c-0.29,0.18-0.59,0.35-0.88,0.52c0,0-0.14,0.1-0.15,0.1c-0.23-1.68-1.41-1.91-2.79-1.83
	c-0.12-0.05-0.25-0.09-0.38-0.11c-3.14-4.05-4.35-8.62-3.77-13.71c0.05-0.49-0.28-1.02-0.44-1.54c-0.17-0.55-0.34-1.11-0.52-1.67
	c0.03-0.56,0.07-1.13,0.1-1.69l0.12,0.03c0.08-0.18,0.15-0.35,0.23-0.53c0.06-0.38,0.12-0.77,0.17-1.15l0.18,0.01l0.16-0.05
	c0.11-0.16,0.23-0.32,0.34-0.47c0.07-0.24,0.13-0.48,0.2-0.71c0.14-0.04,0.29-0.07,0.43-0.11c1.36,0.72,0.35,1.38,0.06,2.19
	c-0.22,0.62-0.43,1.51-0.34,2.12c0.02,0.12,0.05,0.23,0.09,0.32c0.03,0.06,0.06,0.11,0.1,0.16c2.08,2.59,1.82,5.34,0.83,8.12
	c-0.59,1.67,0.02,2.8,0.74,4.24c1.05,2.1,2.73,2.98,4.72,3.77c0.17,0.07,0.29,0.27,0.39,0.53c0.03,0.09,0.06,0.18,0.09,0.28
	c0.02,0.07,0.04,0.14,0.06,0.22c0.03,0.15,0.07,0.31,0.11,0.46c0.02,0.08,0.04,0.16,0.06,0.23
	C254.65,286.4,254.68,286.5,254.71,286.58z"/>
<path class="st30" d="M260.87,294.99c0.03-0.81,0.06-1.63,0.09-2.45c-0.38-0.6-0.75-1.2-1.13-1.8c-0.65-0.62-1.31-1.25-1.96-1.88
	c-0.13-0.13-0.26-0.25-0.39-0.38c-0.25-0.42-0.5-0.85-0.75-1.27c0.26-0.03,0.51-0.07,0.76-0.11c0.26-0.03,0.51-0.07,0.77-0.11
	c0.87-0.12,1.78-0.25,2.82-0.4h0.01c0,0.23-0.01,0.45-0.02,0.66c0,0.21-0.02,0.42-0.02,0.62c-0.02,0.47-0.02,0.9,0.07,1.32
	c0.09,0.43,0.22,0.84,0.39,1.25c0.17,0.41,0.36,0.8,0.57,1.19c0.4,0.77,0.95,1.46,1.44,2.18
	C262.64,294.2,261.76,294.6,260.87,294.99z"/>
<path class="st30" d="M249.96,248.53c-0.01,0.07-0.03,0.13-0.06,0.19c-0.04,0.08-0.1,0.15-0.17,0.21c-0.03,0.02-0.07,0.05-0.1,0.07
	c-0.06,0.04-0.13,0.08-0.21,0.11c-0.11,0.05-0.24,0.1-0.36,0.15c-0.17,0.06-0.34,0.12-0.48,0.2c-0.04,0.02-0.08,0.04-0.11,0.06
	c-0.56,0.34-1.08,0.74-1.61,1.12c-0.18,0.13-0.35,0.26-0.53,0.38l-0.04-0.04c-0.02-0.58-0.05-1.15-0.07-1.73
	c0.05-0.4,0.1-0.8,0.15-1.2l0.18,0.01l0.17-0.04c0.45-0.71,0.9-1.42,1.35-2.13c0.57,0.62,1.26,1.16,1.66,1.87
	c0.08,0.14,0.14,0.27,0.18,0.39c0.02,0.05,0.04,0.11,0.04,0.16C249.96,248.39,249.97,248.47,249.96,248.53z"/>
<path class="st6" d="M242.82,262.31c-0.52,0.6-1.04,1.21-1.56,1.81C241.78,263.52,242.3,262.91,242.82,262.31z"/>
<path class="st6" d="M243.16,259.43c-0.04,0.73-0.09,1.45-0.13,2.18C243.08,260.88,243.12,260.16,243.16,259.43z"/>
<path class="st6" d="M243.77,265.8c0.23-0.45,0.46-0.89,0.69-1.34C244.23,264.91,244,265.35,243.77,265.8z"/>
<path class="st18" d="M252.62,289.1c-0.29-0.11-0.59-0.22-0.88-0.33C252.03,288.88,252.32,288.99,252.62,289.1z"/>
<path class="st6" d="M243.31,266.16c0.15-0.12,0.3-0.24,0.45-0.36C243.61,265.92,243.46,266.04,243.31,266.16z"/>
<path class="st6" d="M246.23,266.15c-0.08,0.18-0.16,0.35-0.23,0.53C246.08,266.5,246.15,266.33,246.23,266.15z"/>
<path class="st30" d="M324.1,230.18c-1.71,0.44-3.4,1.04-5.13,1.28c-2.12,0.3-4.29,0.33-6.44,0.4c-0.58,0.02-1.17-0.24-1.56-0.34
	v-3.31c0.28-0.01,0.56-0.04,0.84-0.06c0.43,0.16,0.85,0.33,1.27,0.49c0.71,0.11,1.42,0.21,2.12,0.31c1.4,0.03,2.78,0.07,4.18,0.1
	c0.17,0,0.34,0,0.51-0.01c0.94,0.03,1.89,0.05,2.83,0.08C323.17,229.47,323.64,229.82,324.1,230.18z"/>
<path class="st30" d="M257.82,226.37c-0.13,0.1-0.25,0.21-0.37,0.32c-0.11,0.11-0.23,0.23-0.35,0.34c-0.11,0.11-0.22,0.22-0.34,0.34
	c-0.11,0.11-0.23,0.22-0.34,0.34l-0.01,0.01c-0.91-0.23-1.81-0.45-2.46-0.61c0.27-1.12,0.53-2.17,0.78-3.22h0.01
	c0.17-0.05,0.35-0.07,0.53-0.1c0.12-0.02,0.24-0.05,0.35-0.07c0.06-0.02,0.12-0.04,0.17-0.05c0.11-0.04,0.21-0.09,0.3-0.15
	c0.78-0.56,1.47-1.51,2.36-0.2c0.08,0.11,0.14,0.22,0.2,0.32c0.11,0.22,0.18,0.42,0.21,0.62
	C259.01,225.06,258.57,225.75,257.82,226.37z"/>
<path class="st30" d="M261.31,296.4c-0.2,2.1-0.2,4.27-1,6.23c-0.18,0.46-0.41,0.9-0.7,1.33c-0.08,0.12-0.16,0.24-0.25,0.36
	c-0.27-0.01-0.54-0.02-0.81-0.02c-0.02-0.41-0.04-0.83-0.06-1.24c0.01-0.1,0.03-0.19,0.04-0.29c0.01-0.05,0.01-0.11,0.02-0.16
	c-0.01-0.85-0.01-1.69-0.01-2.54c0.54-1.29,1.08-2.59,1.62-3.88c0.16-0.12,0.31-0.24,0.46-0.36h0.01c0.04,0.04,0.09,0.07,0.14,0.1
	c0.04,0.03,0.09,0.06,0.13,0.09C261.12,296.15,261.32,296.28,261.31,296.4z"/>
<path class="st30" d="M257.7,217.92c0.03,0.64-0.02,1.2-0.22,1.63c-0.08,0.18-0.19,0.34-0.33,0.46c-0.05,0.05-0.1,0.09-0.15,0.12
	c-0.15,0.12-0.33,0.21-0.55,0.27c-0.25,0.07-0.56,0.1-0.92,0.09c-0.28-1.97-0.56-3.94-0.84-5.91
	C256.89,214.72,257.59,215.51,257.7,217.92z"/>
<path class="st30" d="M250.67,242.43c0,0.4-0.06,0.74-0.18,1.04c-0.06,0.14-0.13,0.28-0.22,0.4c-0.08,0.13-0.18,0.25-0.29,0.35
	c-0.16,0.16-0.36,0.3-0.58,0.42c-0.07,0.04-0.15,0.08-0.22,0.11c-0.16,0.07-0.32,0.13-0.5,0.18c-0.17,0.05-0.36,0.09-0.55,0.13
	c0.4-2.1,0.8-4.19,1.2-6.28c0.24-0.04,0.49-0.08,0.73-0.12v0.02c0.11,0.62,0.25,1.23,0.36,1.85c0.1,0.52,0.18,1.04,0.23,1.57
	c0,0.06,0.01,0.11,0.01,0.17C250.67,242.32,250.67,242.38,250.67,242.43z"/>
<path class="st30" d="M258.41,229.27c-0.01,0.14-0.03,0.29-0.06,0.43c-0.18,1-0.72,1.98-1.28,2.86c-0.15,0.24-1.21-0.1-1.85-0.17
	c0.29-0.42,0.57-0.84,0.86-1.26c2.24-0.93,0.72-2.22,0.33-3.41v-0.01h0.01c0.52,0.39,1.37,0.8,1.77,1.18l0.09,0.09
	c0.04,0.05,0.08,0.1,0.09,0.14C258.4,229.17,258.42,229.22,258.41,229.27z"/>
<path class="st30" d="M253.95,236.72c0,0.38-0.29,0.88-0.64,1.2c-0.11,0.11-0.23,0.19-0.35,0.24c-0.11,0.05-0.23,0.08-0.36,0.1
	c-0.53,0.08-1.15-0.04-1.71-0.04v-0.01h0.01c0.85-1.64,1.71-3.27,2.58-4.91c0.05,0.28,0.1,0.56,0.15,0.84
	c0.05,0.28,0.1,0.56,0.15,0.84C253.88,235.56,253.96,236.14,253.95,236.72z"/>
<path class="st30" d="M378.19,234.95c-1.9,2.59-3.89,2.73-5.07,0.36L378.19,234.95z"/>
<path class="st30" d="M369.46,237.29c-0.21,0.17-0.43,0.35-0.64,0.52c-0.73-0.77-1.46-1.55-2.2-2.32h0.01
	c0.11-0.1,0.21-0.19,0.32-0.28c0.2-0.16,0.4-0.33,0.6-0.5C368.19,235.57,368.83,236.43,369.46,237.29z"/>
<path class="st30" d="M383.42,237.62c-0.21,0.25-0.42,0.49-0.63,0.74c-0.61-0.49-1.21-0.98-1.81-1.48c0.13-0.14,0.25-0.28,0.37-0.42
	c0.13-0.14,0.26-0.28,0.38-0.42C382.29,236.56,382.86,237.09,383.42,237.62z"/>
<path class="st26" d="M250.05,238.67c0.28-0.15,0.57-0.3,0.85-0.46C250.62,238.37,250.34,238.52,250.05,238.67z"/>
<path class="st30" d="M255.17,220.9c-0.15,0.15-0.3,0.3-0.44,0.45c-0.01-0.14-0.02-0.28-0.03-0.42
	C254.85,220.92,255.01,220.91,255.17,220.9z"/>
<path class="st6" d="M400.49,234.78c0.35,0,0.7,0,1.06,0C401.2,234.78,400.84,234.78,400.49,234.78z"/>
<path class="st11" d="M255.13,228.17c0.15,0.12,0.31,0.25,0.46,0.37C255.44,228.41,255.29,228.29,255.13,228.17z"/>
<path class="st6" d="M319.89,229.05c-0.17,0-0.34,0.01-0.51,0.01C319.55,229.05,319.72,229.05,319.89,229.05z"/>
<path class="st6" d="M309.36,227.58c-0.34-0.19-0.68-0.39-1.02-0.58C308.68,227.19,309.02,227.39,309.36,227.58z"/>
<path class="st6" d="M246.74,264.96c0.11-0.16,0.22-0.31,0.34-0.47C246.97,264.64,246.85,264.8,246.74,264.96z"/>
<path class="st6" d="M258.54,302.61c-0.02,0.15-0.04,0.3-0.06,0.45C258.51,302.91,258.52,302.76,258.54,302.61z"/>
<g>
	<text transform="matrix(1 0 0 1 296.8002 291.6942)" class="st0 st31 st32">MYMENSINGH</text>
</g>
<ellipse class="st33" cx="334.27" cy="276.43" rx="8.92" ry="0.87"/>
<g>
	<g>
		<circle class="st8" cx="334.27" cy="257.64" r="3.95"/>
	</g>
	<g>
		<path class="st8" d="M334.27,263.95c-3.48,0-6.31-2.83-6.31-6.31c0-3.48,2.83-6.31,6.31-6.31s6.31,2.83,6.31,6.31
			C340.58,261.12,337.75,263.95,334.27,263.95z M334.27,252.51c-2.83,0-5.13,2.3-5.13,5.13s2.3,5.13,5.13,5.13s5.13-2.3,5.13-5.13
			S337.1,252.51,334.27,252.51z"/>
	</g>
	<polygon class="st8" points="335.52,263.69 334.27,276.86 334.27,276.88 334.27,276.86 333.02,263.69 334.27,263.67 334.27,263.67 
			"/>
</g>
</svg>
