<?xml version="1.0" encoding="utf-8"?>
<!-- Generator: Adobe Illustrator 27.6.1, SVG Export Plug-In . SVG Version: 6.00 Build 0)  -->
<svg version="1.1" id="Layer_1" xmlns="http://www.w3.org/2000/svg" xmlns:xlink="http://www.w3.org/1999/xlink" x="0px" y="0px"
	 viewBox="0 0 661.87 864" style="enable-background:new 0 0 661.87 864;" xml:space="preserve">
<style type="text/css">
	.st0{fill:#FFFFFF;}
	.st1{fill:#5FA440;}
	.st2{fill:#A0C88D;}
	.st3{fill:#D9F1CB;}
	.st4{fill:#B4B0BC;}
	.st5{fill:#F6FAF8;}
	.st6{fill:#EBBF7A;}
	.st7{fill:#487C2D;}
	.st8{fill:#FF0000;}
	.st9{fill:#B2AE18;}
	.st10{fill:#FFFF2E;}
	.st11{fill:#F9E8B9;}
	.st12{fill:#8E8813;}
	.st13{fill:#CCAA19;}
	.st14{fill:#EDAACF;}
	.st15{fill:#CB336F;}
	.st16{font-family:'Roboto-Black';}
	.st17{font-size:12px;}
	.st18{fill:#998014;}
	.st19{fill:#163784;}
	.st20{fill:#C3E1F3;}
	.st21{fill:#3470B0;}
	.st22{fill:#FBFDFA;}
	.st23{fill:#E8E8E8;}
	.st24{fill:#3C3C3C;}
	.st25{fill:#133685;}
	.st26{fill:#112C63;}
	.st27{fill:#E59936;}
	.st28{fill:#E19A39;}
	.st29{fill:#EB5E55;}
	.st30{fill:#8C7752;}
	.st31{fill:#AF732B;}
	.st32{fill:#6772DB;}
	.st33{fill:#4F5CA8;}
	.st34{fill:#D13270;}
	.st35{fill:#DCDCDE;}
	.st36{fill:#CC4D4A;}
	.st37{fill:#25527A;}
	.st38{fill:#773E84;}
	.st39{fill:#773B85;}
	.st40{fill:#4D2756;}
</style>
<path class="st13" d="M597.26,267.46c-0.19,0.07-0.55,0.11-0.57,0.22c-0.39,2.39-2.27,3.27-4.11,4.34c-0.75,0.44-1.18,1.45-1.77,2.2
	c-2.65,1.3-5.2,1.7-7.55-0.68c-0.66-0.66-1.5-1.13-2.26-1.68c-1.49-1.15-2.9-2.42-4.51-3.37c-0.98-0.58-2.28-0.63-3.43-0.92
	c-0.41-0.01-0.84-0.04-1.25-0.06c-0.84,0-1.67,0-2.51,0.01c-0.29-0.01-0.58-0.01-0.88-0.02c-0.41,0.28-0.82,0.56-1.23,0.84
	c-0.83,0.73-1.25,1.98-1.25,3.28c0,1.27,0.41,2.58,1.22,3.46l0.18,0.09l0.19-0.01c0.21,0.24,0.4,0.5,0.6,0.74
	c0.15,0.41,0.28,0.82,0.43,1.23c-0.03,3.69-0.05,7.39-0.06,11.08l-1.32,4.65c-1.01,2.41-2.02,4.81-3.02,7.22
	c-0.11,0.15-0.23,0.29-0.34,0.45c-0.05,0.12-0.1,0.25-0.17,0.37c-0.41,1.27-0.81,2.54-1.22,3.81c0.04,0.57,0.07,1.14,0.12,1.72
	c-0.1,0.41-0.2,0.83-0.3,1.24c-0.19,0.4-0.37,0.81-0.56,1.2c0.36,4.7-1.45,8.14-5.82,10.12c-1.94,0.88-2.59,2.63-2.6,4.58
	c-0.01,1.45,0.3,2.89,0.47,4.34c-0.02,3.14-0.05,6.28-0.07,9.42c-1.19,1.01-2.38,2.02-3.57,3.02c0.02,0.16-0.04,0.27-0.17,0.33
	c-1.86,0.4-3.72,0.8-5.57,1.21h-3.01c-1.55-0.48-3.09-0.95-4.64-1.43c-0.29-0.01-0.59-0.03-0.89-0.05
	c-0.22-0.09-0.61-0.33-0.66-0.26c-0.5,0.54-1.31,1.12-1.35,1.73c-0.1,1.58,0.68,2.74,2.38,3.05c1.43,0.7,1.15,1.98,0.82,3.05
	c-0.15,0.5-1.16,1.23-1.48,1.1c-0.81-0.32-2.02-1.04-2.06-1.66c-0.13-2.29-1.58-2.07-3.07-2c-2.62,0.49-3.62,1.87-2.71,4.23
	c1.08,2.83,1.18,5.64,0.58,8.56c-0.22,1.07-0.32,2.18-0.47,3.27c-1.54-0.05-1.06,1.1-1.18,1.93c-0.33,2.38,0.12,4.95-1.61,6.98
	c-0.54,0.65-1.33,1.08-2.01,1.61c-0.35-0.71-0.64-1.45-1.06-2.12c-0.9-1.41-1.61-3.12-2.88-4.03c-0.94-0.67-1.38-1.12-1.39-2.2
	c-0.07-2.89-0.83-3.5-3.61-2.84c-1.37,0.32-2.46,0.44-3.49-0.95c-0.82-1.14-2.87-0.58-3.41,0.7c-0.15,0.15-0.3,0.3-0.45,0.46
	c-0.34,0.63-1.08,1.34-0.96,1.87c0.4,1.86,1.09,3.65,1.68,5.47c0,0.91,0.01,1.81,0.03,2.72c-1.39,0.78-2.78,1.57-4.17,2.35h-0.77
	c-1.42-0.74-2.84-1.48-4.26-2.22c-0.1-0.26-0.2-0.53-0.29-0.79c-0.32-2.32-0.58-4.66-1.01-6.97c-0.07-0.44-0.78-0.76-1.2-1.14
	c-0.44,0.27-0.88,0.54-1.31,0.81c-0.13,0.34-0.25,0.67-0.37,1.01c-0.38,2.45-1.31,4.94-1.05,7.31c0.5,4.67-1.38,7.55-5.34,9.48
	c-0.28,0.04-0.55,0.08-0.82,0.12c-0.17-0.03-0.34-0.06-0.51-0.09c-0.66,0.25-1.33,0.51-2,0.76c-2.41,0.04-4.83,0.08-7.24,0.12h-1.7
	c-1.56-0.34-3.12-0.67-4.66-1.01c-0.42-0.37-0.83-0.74-1.25-1.11c-0.57-0.48-1.16-0.95-1.73-1.43c-0.12-0.02-0.23-0.04-0.34-0.06
	c-0.73,0.07-1.45,0.14-2.18,0.22h-2.49c-0.83,0.27-1.65,0.54-2.49,0.81c-0.14,0.17-0.27,0.33-0.4,0.5
	c-0.12,0.96-0.23,1.93-0.35,2.88c0.09,0.1,0.18,0.18,0.26,0.27c0.11,0.15,0.22,0.3,0.33,0.45c0.66,3.86,0.37,7.6-1.42,11.14
	c-0.29,0.15-0.57,0.3-0.86,0.45c-1.47-0.27-2.94-0.53-4.41-0.8c-0.26-0.07-0.51-0.15-0.76-0.22c-0.16-0.38-0.3-0.77-0.45-1.15
	c-0.06-0.43-0.12-0.86-0.19-1.28c0.02-0.23,0.04-0.47,0.05-0.7c0.01-0.23,0.03-0.47,0.04-0.7c0.03-0.47,0.06-0.93,0.09-1.4
	c0-0.06,0.01-0.12,0.01-0.18c0-1.83-0.01-3.66-0.01-5.49c-0.14-0.58-0.27-1.15-0.41-1.75v-0.01c-0.32-2.16-0.72-4.3-0.99-6.46
	c-0.04-0.36-0.08-0.72-0.12-1.08c-0.04-0.36-0.08-0.72-0.1-1.08c-0.01-0.12,0.01-0.24,0.05-0.37c0.01-0.05,0.03-0.1,0.05-0.15
	c0.01-0.05,0.04-0.1,0.06-0.15c0.05-0.1,0.1-0.2,0.16-0.3c0.01,0,0.01,0,0.01-0.01c0.08-0.13,0.17-0.26,0.27-0.39
	c0.03-0.04,0.07-0.09,0.11-0.13c0.06-0.08,0.12-0.16,0.19-0.24c0.21-0.25,0.43-0.5,0.61-0.73c0.36-0.44,0.97-0.68,1.46-1.01
	c1.1-1.51,0.83-2.33-0.95-3.01c-0.47-0.17-0.86-0.56-1.29-0.86c0.36-0.47,0.64-1,1.07-1.39c0.29-0.27,0.87-0.25,1.1-0.54
	c0.72-0.9,2.01-2.08,1.81-2.79c-0.3-1.04-1.61-1.9-2.65-2.58c-1.23-0.82-2.3-0.17-3.06,0.9c-0.53,0.73-0.75,1.78-1.4,2.29
	c-3.2,2.43-9.57,1.77-12.07-1.69c-0.86-1.18-2.07-2.11-3.12-3.15c0.02-0.13,0.05-0.28,0.05-0.41c0.12-4.86,0.81-5.38,5.52-4.81
	c0.93,0.11,2.27-0.41,2.86-1.11c0.77-0.93,0.94-2.15-0.42-3.27c-0.82-0.67-1.35-1.99-0.02-3.09c2.38-1.98,2.31-2.93-0.04-4.91
	c-1.01-0.85-2.17-1.74-1.1-3.33c2.14-3.17,1.4-5.34-2.34-6.31c-1.8-0.47-2.25-1.41-1.5-2.88c1.12-2.23,2.42-4.37,3.68-6.53
	c1.27-2.18,1.22-3.22-0.86-4.55c-1.81-1.15-2.96-2.69-3.62-4.62c-0.18-0.5,0.18-1.29,0.49-1.83l0.01-0.01c0.6-1.04,1.38-1.95,2-2.98
	l0.42-0.75c0.43-0.8,0.82-1.61,1.18-2.44c0.3-0.73,0.77-1.63,0.58-2.28c-0.75-2.69-2.81-3.55-6.28-2.85
	c-3.36,0.67-4.25-0.13-3.89-3.52c0.04-0.42,0.22-0.82,0.26-1.24c0.37-3.51,0.46-6.95-0.93-10.38c-0.92-2.29-1.47-4.8-1.75-7.27
	c-0.35-3.1-1.7-4.21-4.73-3.25c-2.74,0.87-5.46,1.78-8.19,2.69c-1.94,0.66-4.6-0.01-5.69-1.66c-1.77-2.68-3.41-5.45-5.11-8.17
	c-0.52-0.83-0.93-1.76-1.57-2.48c-1.92-2.17-2.47-4.65-1.21-7.2c0.85-1.72,1.92-3.35,2.96-4.98c1.56-2.48,1.38-4-0.54-6.02
	c-0.63-0.66-1.19-1.66-1.27-2.54c-0.16-2.01-0.02-4.05,0-6.06c0.01-0.01,0.01-0.03,0.01-0.05c0.03-0.09,0.02-0.17-0.01-0.26v-0.01
	c0.25-0.06,0.5-0.13,0.75-0.2c0.17,0.01,0.34,0.02,0.51,0.04c0.8,0.06,1.6,0.17,2.36,0.03c0.58-0.11,1.16-0.21,1.74-0.31
	c0.78-0.14,1.55-0.29,2.3-0.51c0.19-0.05,0.38-0.11,0.56-0.17c0.33-0.11,0.65-0.23,0.97-0.38c0.18-0.08,0.37-0.17,0.55-0.27
	c0.09-0.05,0.19-0.1,0.28-0.16c0.18-0.11,0.36-0.23,0.54-0.35c0.29-0.2,0.58-0.44,0.85-0.7v-0.01c0.01-0.14,0.01-0.26-0.02-0.38
	c0.26-0.05,0.53-0.08,0.8-0.12c0.84-0.26,1.69-0.53,2.53-0.8c2.93-1.44,6.04-1.54,9.21-1.4c0.75,0.03,1.51-0.11,2.26-0.18
	c0.41,0.02,0.81,0.03,1.21,0.03c2.84,0.2,5.68,0.55,8.51,0.51c1.15-0.02,2.29-0.91,3.43-1.41v-0.04c0.14-0.16,0.25-0.3,0.38-0.45
	c2.72-1.11,5.99-0.35,7.9,1.79c2.39,2.69,4.79,5.39,8.93,3.18c1.23,0.55,2.41,1.21,3.68,1.63c1.65,0.56,3.35,0.96,5.05,1.37
	c0.98,0.24,1.99,0.32,2.96,0.56c0.51,0.12,0.96,0.43,1.45,0.66c0.83,0.02,1.66,0.03,2.48,0.05l0.11-0.11l-0.04-0.15
	c0.23-0.18,0.46-0.36,0.7-0.53c1.87-0.17,3.74-0.29,5.6-0.53c0.43-0.06,0.81-0.54,1.22-0.82l0.02-0.02
	c0.36-0.35,0.71-0.73,1.09-1.05c0.78-0.67,1.57-1.31,2.36-1.96c0.56,0.31,1.13,0.63,1.68,0.94c0.29,1.43,0.58,2.86,0.87,4.29
	c0.58,0.25,1.17,0.51,1.75,0.76c0.4,0.09,0.79,0.18,1.18,0.26h0.83c0.39-0.07,0.77-0.15,1.16-0.22c1.3,0.07,2.6,0.27,3.88,0.16
	c0.7-0.07,1.36-0.66,2.02-1.02c0.45-0.98,0.89-1.97,1.33-2.95c0.75-0.06,1.5-0.21,2.23-0.14c0.84,0.07,1.67,0.34,2.5,0.52
	c0.35,0.09,0.96,0.34,1.04,0.23c1.06-1.46,2.38-0.78,3.76-0.77c2.78,0.02,5.57-0.35,8.33-0.72c2.26-0.3,4.49-0.81,6.72-1.3
	c0.57-0.13,1.09-0.52,1.64-0.79c0.13-0.04,0.27-0.07,0.4-0.11c0.15-0.1,0.3-0.18,0.45-0.28c0.93-0.22,1.85-0.45,2.77-0.69
	c0.12,0.03,0.2-0.01,0.25-0.12c0.23,0.03,0.45,0.06,0.68,0.09c1.19,0.27,2.37,0.54,3.55,0.81c1.01-0.2,2.01-0.4,3-0.6
	c0.43-0.05,0.85-0.11,1.27-0.17c0.43-0.08,0.85-0.16,1.27-0.24c1.66-0.01,3.31-0.01,4.96-0.01c0.44,0.08,0.86,0.16,1.29,0.26
	c2.69,1.37,5.76,2.16,7.61,4.86l0.06,0.07c0.28,0.21,0.57,0.43,0.85,0.64c1.65,0.06,3.32,0.13,4.99,0.17
	c1.76,0.03,3.58,0.64,4.04,2.24c0.75,2.66,2.72,3.58,4.84,4.55c0.65,0.27,1.3,0.74,1.97,0.78c1.75,0.11,3.51,0.04,5.28,0.04
	c1.22-0.01,2.09,0.23,2.21,1.81c0.05,0.73,0.76,1.75,1.43,2.03c1.67,0.7,3.49,1.06,5.25,1.55c0.28,0.18,0.56,0.35,0.85,0.53
	c0.71,1.51,1.82,2.96,2.06,4.55c0.82,5.26,0.87,5.45,5.93,6.45c0.16,0.58,0.32,1.17,0.49,1.76c0.14,0.21,0.27,0.41,0.41,0.62
	c0.99,1.34,1.98,2.67,2.97,4.01C597.24,266.93,597.25,267.2,597.26,267.46z"/>
<path class="st10" d="M441.43,419.73c-0.05,0.12-0.1,0.23-0.15,0.35c-0.12-0.05-0.3-0.07-0.34-0.16c-0.01-0.04,0-0.09,0.04-0.15
	c0.03-0.06,0.07-0.13,0.1-0.19C441.19,419.63,441.31,419.68,441.43,419.73z"/>
<path class="st14" d="M462.77,378.44c-0.83,0.27-1.66,0.54-2.49,0.81C461.1,378.98,461.94,378.71,462.77,378.44z"/>
<path class="st14" d="M441.29,228.21c0.13-0.15,0.25-0.31,0.38-0.46C441.54,227.9,441.42,228.05,441.29,228.21z"/>
<path class="st15" d="M467.78,378.28l-0.18,0.03c0,0-0.16-0.09-0.16-0.09C467.55,378.24,467.66,378.26,467.78,378.28z"/>
<path class="st6" d="M400.49,234.78c0.35,0,0.7,0,1.06,0C401.2,234.78,400.84,234.78,400.49,234.78z"/>
<g>
	<text transform="matrix(1 0 0 1 472.4012 306.7832)" class="st0 st16 st17">SYLHET</text>
</g>
<ellipse class="st18" cx="494.56" cy="292.3" rx="8.92" ry="0.87"/>
<g>
	<g>
		<circle class="st8" cx="494.56" cy="273.51" r="3.95"/>
	</g>
	<g>
		<path class="st8" d="M494.56,279.83c-3.48,0-6.31-2.83-6.31-6.31c0-3.48,2.83-6.31,6.31-6.31c3.48,0,6.31,2.83,6.31,6.31
			C500.87,277,498.04,279.83,494.56,279.83z M494.56,268.39c-2.83,0-5.13,2.3-5.13,5.13c0,2.83,2.3,5.13,5.13,5.13
			s5.13-2.3,5.13-5.13C499.68,270.69,497.38,268.39,494.56,268.39z"/>
	</g>
	<polygon class="st8" points="495.81,279.57 494.56,292.74 494.56,292.76 494.55,292.74 493.3,279.57 494.55,279.54 494.56,279.54 	
		"/>
</g>
</svg>
