<?xml version="1.0" encoding="utf-8"?>
<!-- Generator: Adobe Illustrator 27.6.1, SVG Export Plug-In . SVG Version: 6.00 Build 0)  -->
<svg version="1.1" id="Layer_1" xmlns="http://www.w3.org/2000/svg" xmlns:xlink="http://www.w3.org/1999/xlink" x="0px" y="0px"
	 viewBox="0 0 661.87 864" style="enable-background:new 0 0 661.87 864;" xml:space="preserve">
<style type="text/css">
	.st0{fill:#FFFFFF;}
	.st1{fill:#5FA440;}
	.st2{fill:#A0C88D;}
	.st3{fill:#D9F1CB;}
	.st4{fill:#B4B0BC;}
	.st5{fill:#F6FAF8;}
	.st6{fill:#EBBF7A;}
	.st7{fill:#487C2D;}
	.st8{fill:#FF0000;}
	.st9{fill:#B2AE18;}
	.st10{fill:#FFFF2E;}
	.st11{fill:#F9E8B9;}
	.st12{fill:#8E8813;}
	.st13{fill:#CCAA19;}
	.st14{fill:#EDAACF;}
	.st15{fill:#CB336F;}
	.st16{fill:#998014;}
	.st17{fill:#163784;}
	.st18{fill:#C3E1F3;}
	.st19{fill:#3470B0;}
	.st20{fill:#FBFDFA;}
	.st21{fill:#E8E8E8;}
	.st22{fill:#3C3C3C;}
	.st23{fill:#133685;}
	.st24{font-family:'Roboto-Black';}
	.st25{font-size:12px;}
	.st26{fill:#112C63;}
	.st27{fill:#E59936;}
	.st28{fill:#E19A39;}
	.st29{fill:#EB5E55;}
	.st30{fill:#8C7752;}
	.st31{fill:#AF732B;}
	.st32{fill:#6772DB;}
	.st33{fill:#4F5CA8;}
	.st34{fill:#D13270;}
	.st35{fill:#DCDCDE;}
	.st36{fill:#CC4D4A;}
	.st37{fill:#25527A;}
	.st38{fill:#773E84;}
	.st39{fill:#773B85;}
	.st40{fill:#4D2756;}
</style>
<path class="st0" d="M34.05,847.74c0.14,0.14,0.28,0.28,0.42,0.42C34.33,848.02,34.19,847.88,34.05,847.74z"/>
<path class="st17" d="M320.97,648.27c0.05,2.11-0.7,4.24-1.19,6.34c-0.15,0.63-0.58,1.19-1.02,2.03c-0.62-0.8-1.02-1.32-1.52-1.96
	c-1.56,1.62,0.13,1.98,0.88,2.58c-0.76,1.01-1.33,2.01-2.15,2.73c-0.42,0.36-1.52,0.52-1.94,0.23c-1.59-1.09-3.04-2.4-4.44-3.55
	c-5.57,3.58-7.7,8.63-8.45,14.52c-0.87-0.27-1.52-0.47-2.21-0.69c-0.23,0.47-0.6,0.85-0.57,1.21c0.22,2.09,0.25,4.04-1.2,5.87
	c-0.59,0.74,0.2,1.52,1.2,1.17c1.04-0.37,2-0.97,3.18-1.57c0.95,1.92,3.04,2.93,2.47,5.93c-0.36,1.92,0.89,4.08-1.81,5.15
	c-0.04,0.02,0.02,0.26,0,0.08c1.97,1.68,3.08,4.18,5.77,4.54c0.09,0.01,0.12,0.27,0.23,0.34c0.85,0.6,1.68,1.22,2.57,1.76
	c1.59,0.96,3.21,0.39,4.81-0.03c0.01,0.26,0.02,0.53,0.03,0.8l-0.03,0.06c-4.9,3.11-9.73,1.85-14.48-0.34
	c-2.16-0.99-3.02-2.79-2.54-5.17c0.6-0.47,1.21-0.92,1.81-1.39c1.58-1.12,2.54-4.11,1.93-5.99c-0.08-0.8-0.18-1.61-0.26-2.4
	c-1.69-0.67-1.99,0.69-2.16,1.72c-0.19,1.13,0.01,2.31,0.04,3.48c-1.54,1.93-3.08,3.86-4.61,5.79c-1.26-0.25-2.52-0.48-3.78-0.73
	c-0.4-0.18-0.8-0.36-1.2-0.55c-0.09-0.82-0.19-1.65-0.29-2.47c0.07-0.28,0.13-0.57,0.19-0.85c-0.02-1.96-0.03-3.93-0.04-5.89
	c0.01-0.86,0.03-1.72,0.04-2.57c0.13-0.42,0.26-0.85,0.39-1.27c0.15-0.19,0.3-0.37,0.46-0.56c0.28-0.24,0.56-0.47,0.85-0.7
	c0.43-0.14,0.87-0.27,1.3-0.41c2.45-0.55,3.85-2.79,4.28-5.65c0.3-1.95,1.09-4,2.22-5.6c2.07-2.92,4.49-5.6,6.9-8.25
	c0.61-0.67,1.74-0.98,2.68-1.21c1.23-0.3,2.51-0.34,3.78-0.49c0.27-0.05,0.53-0.1,0.8-0.15c0.41-0.23,0.8-0.46,1.21-0.69
	c0.46-1.97,0.92-3.95,1.38-5.93c0.36-0.85,0.71-1.7,1.07-2.55c0-0.26,0.01-0.52,0.01-0.79c-0.14-0.39-0.26-0.79-0.4-1.18
	c-0.58,0.3-1.33,0.47-1.68,0.94c-1.73,2.32-2.29,4.97-1.94,7.82c-0.14,0.3-0.29,0.62-0.43,0.92c-1.36,0.08-2.79,0.43-4.09,0.17
	c-1.97-0.41-2.91,0.45-3.83,1.99c-0.82,1.38-1.75,2.82-2.99,3.79c-3.13,2.45-6.25,4.92-6.81,9.16c-0.3,2.21-0.81,4.13-2.67,5.5
	c-2.78,0.52-4.43-1.41-6.28-2.89c-0.13-0.43-0.26-0.86-0.39-1.3c-0.03-0.7-0.08-1.41-0.11-2.1c0.05-0.41,0.09-0.83,0.14-1.24
	c0.65-0.21,1.3-0.47,1.96-0.63c3.44-0.81,4.66-4.03,2.69-7.07c0.03-2.97,0.73-5.46,3.85-6.81c1.11-0.47,1.85-1.81,3.01-3.02
	c-3.39-0.43-7.61,2.32-8.06,4.98c-0.34,2.03-0.32,4.12-0.47,6.19c-0.79,0.73-1.52,1.51-2.36,2.17c-2.71,2.11-2.55,5.01-2.27,7.96
	c0.35,1.82,0.93,3.68-0.96,5.08c-3.39,0.07-5-1.45-6.32-5.93c0.05-0.3,0.21-0.63,0.14-0.91c-0.85-3.5-1.91-6.98-0.65-10.62
	c0.06-0.18-0.21-0.47-0.32-0.7c-0.03-0.85-0.04-1.7-0.06-2.55v-1.69c-0.43-1.03-0.86-2.07-1.3-3.11c-0.14-0.24-0.28-0.47-0.42-0.7
	c-0.24-0.6-0.48-1.2-0.72-1.8c-0.04-0.39-0.08-0.77-0.12-1.16c-0.09-0.3-0.18-0.58-0.26-0.88c-0.04-0.27-0.08-0.54-0.13-0.81
	c-0.09-0.3-0.18-0.59-0.27-0.89c-0.06-0.27-0.12-0.53-0.18-0.8c-0.09-0.3-0.19-0.58-0.28-0.88c-0.18-0.41-0.36-0.82-0.54-1.24
	c-0.13-0.42-0.25-0.85-0.37-1.27c-0.18-0.42-0.35-0.85-0.52-1.27c-0.02-0.57-0.03-1.13-0.05-1.7c0.01-0.41,0.03-0.84,0.04-1.26
	c0.14-0.15,0.29-0.3,0.44-0.46h3.12c0.69,1.83,1.37,3.63,2.13,5.65c-1.19,1.45-1.18,1.44,0.48,3.33c0.31,0.36,0.74,1.07,0.59,1.29
	c-1.63,2.52,0.14,5.06-0.1,7.58c-0.11,1.1-0.04,2.22-0.02,3.33c0.03,1.87,0.1,3.73,0.13,5.6c0.03,1.89,0.01,3.78,0.01,5.39
	c1.94-0.2,3.43-0.36,4.99-0.52c0.17-0.96,0.01-2.47,0.68-3.37c1.3-1.74,1.46-3.6,1.68-5.61c0.16-1.52-0.25-3.78,2.54-3.75
	c0.31,0,0.68-0.99,0.95-1.55c0.67-1.37,1.04-3.68,1.99-3.94c2.12-0.58,4.37-1.8,6.87-0.41c1.02,0.57,2.18,0.88,2.19,2.04
	c0,0.49-1.26,0.99-2.07,1.57c0.1,1.65-1.28,3.67-2.3,3.01c-1.5-0.94-2.12-0.08-3.45,1.23c1.26,0.38,2.26,1.06,2.95,0.82
	c2.06-0.69,3.88-0.73,5.82,0.38c0.64,0.37,1.64,0.13,2.74,0.18c-0.48-1.12-0.73-1.67-0.96-2.22c1.54-1.19,2.84-2.73,4.48-3.32
	c1.53-0.56,3.43-0.12,5.43-0.12c-0.06-0.47-0.19-1.43-0.32-2.41c-1.84,0.08-3.5,0.24-5.15,0.18c-0.48-0.02-0.94-0.66-1.4-1.02
	c0.45-0.33,0.86-0.83,1.37-0.97c1.75-0.5,3.56-0.79,5.29-1.34c0.65-0.2,1.14-0.89,1.7-1.35c-0.51-0.4-1.05-0.77-1.52-1.2
	c-0.48-0.45-0.91-0.96-1.35-1.43c0.51-0.36,0.99-0.91,1.55-1.02c1.84-0.36,3.69-0.62,5.55-0.78c0.52-0.04,1.48,0.32,1.54,0.63
	C320.24,642.63,320.9,645.45,320.97,648.27z"/>
<path class="st18" d="M290.18,681c0.01,1.96,0.03,3.93,0.04,5.89C290.21,684.93,290.2,682.97,290.18,681z"/>
<path class="st18" d="M290.62,677.16c-0.13,0.42-0.26,0.85-0.39,1.27C290.36,678.01,290.49,677.59,290.62,677.16z"/>
<path class="st18" d="M291.92,675.9c-0.28,0.23-0.56,0.47-0.84,0.7C291.36,676.37,291.64,676.14,291.92,675.9z"/>
<path class="st17" d="M344.41,693.68c-1.01,0.69-2.01,1.37-3.02,2.06c-0.27-0.01-0.53-0.01-0.8-0.02c-0.79-0.76-2.52-1.35-0.48-2.63
	c0.5-0.19,1-0.37,1.5-0.56c0.12,0.03,0.19-0.02,0.22-0.13c0.29-0.28,0.57-0.55,0.86-0.83c0,0,0,0,0,0c0.67,0,1.33,0,2.05,0
	C344.6,692.4,344.51,693.04,344.41,693.68z"/>
<path class="st17" d="M408.24,650.51c-0.28,1.13-0.56,2.26-0.85,3.38c-0.09,0.09-0.12,0.2-0.07,0.32c-2.34,0.82-2.68,0.65-3.91-1.99
	c-0.01-0.72-0.03-1.45-0.05-2.17c0.06-0.27,0.12-0.54,0.18-0.81c2-1.95,1.02-4.46,1.28-6.75c0.28-0.3,0.56-0.59,0.84-0.89
	c0.83,0.02,1.65,0.04,2.48,0.05c0.08,0.11,0.12,0.24,0.12,0.37C408.26,644.86,408.25,647.68,408.24,650.51z"/>
<path class="st17" d="M393.89,643.31c-0.14,0.42-0.27,0.84-0.41,1.27c-0.19,0.98-0.39,1.95-0.58,2.93c-0.08,0.15-0.17,0.3-0.25,0.45
	c-0.58,1.21-0.93,2.63-1.78,3.6c-2,2.28-4.13,4.42-5.04,7.42c-0.16-0.58-0.57-1.23-0.45-1.74c0.47-1.93,1.1-3.81,1.69-5.71
	c0.23-0.74,0.52-1.46,0.78-2.19c0.62,0.4,1.24,0.8,1.96,1.27c2.53-1.96,1.29-4.77,1.23-6.81c1.1-1.4,1.9-2.43,2.71-3.46
	c-0.01,0.55-0.02,1.1-0.03,1.64C393.77,642.43,393.83,642.87,393.89,643.31z"/>
<path class="st17" d="M374.77,677.98c-3.52,0.04-3.79,0.29-4.73,3.59c-0.21,0.72-0.86,1.3-1.31,1.95c-0.36-0.28-0.95-0.49-1.05-0.84
	c-0.3-1.12-0.78-2.39-0.5-3.4c0.3-1.09,1.39-1.95,2.14-2.91c0.28-0.03,0.55-0.05,0.83-0.08c0.88-0.1,1.76-0.2,2.65-0.31
	c0.11-0.14,0.23-0.28,0.34-0.42l0.04-0.05c0.1-0.15,0.2-0.29,0.29-0.44c0.07-0.25,0.13-0.5,0.2-0.75c0.51-0.16,1.02-0.32,1.53-0.47
	c0.28,0.28,0.55,0.55,0.83,0.83c0.03,0.7,0.05,1.4,0.08,2.1c-0.09,0.08-0.15,0.18-0.19,0.29
	C375.54,677.36,375.16,677.67,374.77,677.98z"/>
<path class="st17" d="M384.06,682.27c0,0.55,0,1.11,0,1.66c-0.15,0.27-0.3,0.54-0.45,0.81c0,0,0.03-0.03,0.03-0.03
	c-0.81-0.01-1.63-0.02-2.44-0.03c0.05-0.12,0.02-0.23-0.09-0.31c-0.25-0.45-0.49-0.9-0.74-1.35c0,0,0.01,0,0.01,0
	C381.37,680.54,381.9,680.43,384.06,682.27z"/>
<path class="st17" d="M380.37,683.02c0.25,0.45,0.49,0.9,0.74,1.35C380.86,683.92,380.61,683.47,380.37,683.02z"/>
<path class="st17" d="M352.54,680.43c0-0.47,0-0.95,0-1.42c0.19-0.35,0.37-0.7,0.56-1.05c0.76-0.52,1.5-1.46,2.27-1.48
	c2.22-0.05,3.85-0.8,4.95-2.76c0.15-0.27,0.71-0.31,1.01-0.43c0.47,0.87,0.81,1.68,1.3,2.38c0.89,1.27,2.15,2.48-0.22,3.55
	c-0.31,0.14-0.66,0.66-0.65,0.99c0.06,1.7-0.57,2.24-2.35,2.6c-1.1,0.22-1.91,2.07-2.79,3.24c-0.9,1.2-1.6,2.59-2.65,3.64
	c-0.4,0.4-1.84,0.42-2.25,0.03c-0.79-0.76-0.54-1.74,0.6-2.24c1.49,0.14,1.56-1.03,1.13-1.73c-0.71-1.13-0.67-2.07-0.33-3.27
	C353.27,681.89,352.75,681.11,352.54,680.43z"/>
<path class="st17" d="M353.1,677.96c-0.19,0.35-0.37,0.7-0.56,1.05C352.73,678.65,352.91,678.3,353.1,677.96z"/>
<path class="st17" d="M331.31,686.91c-0.71,1.75-1.28,3.58-2.22,5.19c-0.26,0.44-1.62,0.23-2.48,0.31
	c-0.06-0.27-0.12-0.54-0.18-0.82c0-1.15,0.01-2.31,0.01-3.46c0.06-0.27,0.11-0.54,0.17-0.81c0.14-0.57,0.27-1.13,0.41-1.7
	c0.15-0.56,0.3-1.12,0.44-1.68c0.1-0.58,0.2-1.17,0.29-1.75c0.13-0.28,0.25-0.56,0.38-0.84c0.76-1.25,1.51-2.5,2.27-3.75
	c0.1-0.08,0.16-0.19,0.19-0.31c0.24-0.46,0.47-0.93,0.71-1.39c0.05-0.34,0.1-0.67,0.15-1.01c0.94-1.07,1.88-2.13,2.82-3.2
	c0.67,0,1.33,0,2.27,0c-0.44,1-0.77,1.76-1.1,2.51c-0.25,0.31-0.59,0.59-0.72,0.94c-0.83,2.18-1.72,4.36-2.39,6.59
	C331.84,683.42,331.64,685.19,331.31,686.91z"/>
<path class="st17" d="M383.6,684.74c0.15-0.27,0.3-0.54,0.45-0.81C383.91,684.19,383.76,684.47,383.6,684.74z"/>
<path class="st17" d="M361.21,597.2c-0.55-2-1.87-3.25-3.73-4.16c-1.69-0.82-3.22-1.96-4.87-2.88c-0.38-0.22-0.94-0.11-1.43-0.15
	c-1.18,0.42-2.34,0.98-3.56,1.21c-1.26,0.25-1.97,0.4-1.67,2.08c0.53,2.89,0.46,5.78-2.77,7.61c-0.17-0.32-0.55-0.73-0.5-1.06
	c0.5-2.68,1.13-5.33,1.65-8c0.42-2.19,1.68-3.07,3.85-2.68c0.68-0.19,1.34-0.39,2.02-0.59c0.15-0.11,0.29-0.22,0.43-0.33
	c0.09-0.11,0.18-0.23,0.27-0.34c0.25-0.43,0.51-0.86,0.77-1.28c0.06-0.27,0.13-0.52,0.2-0.78c-0.61-1.95-1.3-3.88-1.8-5.86
	c-0.65-2.51-1.1-5.06-1.72-7.58c-0.26-1.05-0.72-2.05-1.09-3.08c-0.42-0.7-0.83-1.4-1.24-2.11c-1.63-0.32-3.41-1.38-4.44,1.05
	c-0.06,0.16-0.88,0.06-1.35,0c-1.17-0.14-2.34-0.28-3.5-0.5c-0.69-0.13-1.49-0.27-1.94-0.7c-0.27-0.24-0.16-1.33,0.17-1.63
	c0.48-0.44,1.28-0.59,1.98-0.72c0.28-0.05,0.63,0.24,0.94,0.39c1.55,0.79,2.21,0.18,2.23-1.42c0.01-0.71,0.01-1.41,0.01-2.22
	c2.62-0.59,2.72-3.01,3.33-4.94c0.46-1.42,0.17-3.08,0.58-4.52c0.33-1.15,1.02-2.37,1.93-3.12c1.02-0.85,2.29-0.53,3.39,0.46
	c1,0.89,3.9,0.38,4.46-0.81c0.68-1.43,0.5-2.8-0.83-3.93c-0.84-0.71-1.5-1.63-2.25-2.45c-0.35-0.8-0.49-2.01-1.1-2.34
	c-1.78-0.97-1.49-2.47-1.48-3.97c0-0.55-0.01-1.11-0.01-1.68c-1.05-0.72-2.11-1.45-3.17-2.17c0.34,1.32,0.69,2.62,1.03,3.93
	c-0.17,0.07-0.34,0.13-0.5,0.2c-0.89-1.36-1.79-2.72-2.91-4.42c-0.57,0.67-1.35,1.62-2.28,2.75c1.63,0.81,4.3,0.2,3.76,2.83
	c-0.13,0.68-1.94,1.03-3.35,1.71c-0.19,0.97-0.74,2.16,1.46,3.07c1.87,0.78,0.95,3,0.7,4.53c-0.26,1.62-0.59,5.78-0.3,7.66
	c0.08,0.44-0.34,1.1-0.72,1.44c-0.44,0.39-1.1,0.51-1.84,0.83c0.52,0.88,0.96,1.62,1.33,2.22c-1.21,1.31-2.31,2.51-3.25,3.52
	c-0.95-0.5-2.31-1.5-2.49-1.31c-1.17,1.17-2.42,2.48-2.96,3.99c-0.43,1.16,0.16,2.67,0.29,3.91c-1.92-0.41-3.68-1.24-5.3-1.01
	c-1.91,0.27-2.65,2.08-2.23,4.72c-1.58-1.08-2.67-1.83-3.86-2.66c-0.38,0.28-0.86,0.62-1.41,1.02c-0.47-0.56-0.87-1.03-1.27-1.5
	c-0.07,0.17-0.16,0.35-0.23,0.53c-0.99-0.33-1.97-0.79-2.98-0.97c-1.26-0.22-2.75-0.77-3.08,1.37c-0.07,0.54-0.63,1-0.97,1.5
	c-0.17-0.07-0.34-0.16-0.5-0.23c0.05-0.44,0.14-0.88,0.15-1.32c0.05-1.33-0.39-1.83-1.89-1.62c-2.02,0.27-4.09,0.28-6.12,0.14
	c-1.94-0.12-2.8,0.43-2.84,2.36c-0.04,1.88-0.01,3.76-0.01,6.18c2.04,0.44,4.48,0.97,6.96,1.51c1.9-1.76,3.34-1.43,3.95,1.19
	c-1.21,0.12-2.4,0.24-3.58,0.35c-0.17,0.15-0.33,0.29-0.49,0.43c2.67,1.54,2.82,4.22,3.79,6.54c0.17,0.4,2.38-0.04,3.75-0.1
	c-0.61-1.56-1.03-2.59-1.21-3.04c1.27-1.21,2.17-1.96,2.93-2.81c0.79-0.9,3.95-1.1,5.29-0.29c0.6,0.35,1.26,0.59,2.14,1.01
	c0.06-1.73-1.04-3.55,1.87-3.91c0,0.9-0.15,1.82,0.05,2.65c0.12,0.52,0.73,0.93,1.12,1.39c0.25-0.48,0.83-1.08,0.72-1.43
	c-0.72-1.97,0.23-2.52,2.19-2.67c-1.2,2.74,1.11,3.04,2.53,3.57c2.28,0.85,3.85,1.9,3.57,4.67c-0.04,0.43,0.76,1.36,1.16,1.35
	c1.35-0.03,2.73-0.24,4-0.7c0.24-0.08,0.05-1.63-0.12-2.47c-0.06-0.28-0.66-0.45-1.04-0.68c4.05-4.04-0.68-5.48-1.94-8.05
	c3.28-0.64,6.71,1.27,9.77-1.21c0.48,3,0.93,5.86,1.38,8.72c0.12-0.04,0.24-0.07,0.35-0.11c-0.24,1.42-0.49,2.86-0.81,4.71
	c-1.2,0-2.48-0.1-3.74,0.03c-0.86,0.1-2.15,0.31-2.4,0.84c-0.37,0.83,0.05,2,0.04,3.01c-0.01,0.71-0.1,1.44-0.31,2.11
	c-0.19,0.56-0.99,1.27-0.84,1.54c0.99,1.81,0,3.51-0.03,5.24c-0.03,1.49,2.09,2.07,3.82,1.21c0.78-0.38,1.71-0.47,2.58-0.7
	c0.25,0.13,0.5,0.25,0.75,0.38c-0.11-2.29-0.23-4.59-0.3-6.87c-0.03-0.67,0.06-1.35,0.11-2.02c0.61,0.26,1.39,0.36,1.82,0.8
	c0.91,0.95,1.55,0.95,2.87,0.49c1.33-0.47,3.37-0.23,4.55,0.54c1.16,0.76-0.18,3.78-1.73,4.77c-0.56,0.35-0.89,1.09-1.31,1.66
	c0.65,0.27,1.29,0.65,1.97,0.78c0.6,0.12,1.25-0.07,1.87-0.06c0.64,0,1.66-0.11,1.82,0.19c0.34,0.67,0.39,1.58,0.32,2.37
	c-0.05,0.58-0.48,1.14-0.77,1.7c-0.29,0.55-0.61,1.09-1.1,1.97c0.75,0.44,1.51,0.88,2.27,1.33c0.17-0.7,0.33-1.4,0.49-2.1
	c0.21-0.25,0.41-0.5,0.61-0.75c0.1-1.56,0.18-3.11,0.28-4.66C361.98,600.25,361.63,598.72,361.21,597.2z M332.95,578.09
	c-1.92-0.07-3.44-1.81-3.35-3.8c0.1-2.31,1.67-3.81,3.89-3.73c1.4,0.06,3.71,2.49,3.64,3.84
	C337.05,576.21,334.81,578.18,332.95,578.09z"/>
<path class="st17" d="M337.13,574.4c-0.08,1.81-2.32,3.78-4.18,3.69c-1.92-0.07-3.44-1.81-3.35-3.8c0.1-2.31,1.67-3.81,3.89-3.73
	C334.89,570.62,337.2,573.05,337.13,574.4z"/>
<path class="st17" d="M367.2,550.12c0.42,0,0.85,0,1.27,0c1.27,0.46,2.54,0.92,3.81,1.38c0.17,0.21,0.34,0.41,0.5,0.62
	c1.41,2.35,1.37,4.62-0.11,6.51c-0.26,0.06-0.52,0.13-0.78,0.19c-1.47,0.74-2.94,1.48-4.41,2.22c-1.06,0.01-2.12,0.02-3.17,0.03
	c-2.41,0.15-4.82,0.26-7.23,0.46c-1.16,0.1-1.77,0.68-1.09,1.91c0.07,0.25,0.14,0.5,0.2,0.75c0.11,0.3,0.21,0.59,0.32,0.89
	l0.06-0.04c0.04,0.7,0.09,1.4,0.13,2.1c0.01,0.42,0.02,0.84,0.02,1.26c-0.16,1.13-0.31,2.26-0.47,3.39
	c-0.46,0.83-0.92,1.66-1.38,2.49c-0.35,0.21-0.73,0.37-1.04,0.63c-1.32,1.13-2.18,1.16-2.34-0.87c-0.01-0.19-0.31-0.35-0.47-0.53
	c-0.08-0.41-0.15-0.82-0.23-1.23c-0.23-0.72-0.45-1.44-0.68-2.15c-0.1-0.43-0.21-0.87-0.31-1.3c-0.18-0.62-0.37-1.24-0.55-1.87
	l-0.06-0.09c-0.33-0.22-0.67-0.43-1-0.65c-0.29-0.13-0.57-0.26-0.86-0.4c-0.14-0.13-0.27-0.35-0.43-0.37
	c-2.43-0.39-2.45-0.41-1.44-2.58c0.2-0.42,0.36-0.86,0.54-1.29c-0.02-0.68-0.04-1.36-0.06-2.03c-0.05-0.29-0.1-0.57-0.15-0.86
	c0.18-2.28,0.36-4.55,0.54-6.83c0.95-0.56,1.83-1.05,2.99-0.27c2.47,1.64,4.14,1.46,5.73-1c1-1.54,2.11-1.81,3.65-1.59
	c0.37,0.09,0.81,0.37,1.08,0.25c1.45-0.61,2.65-0.43,4.04,0.4C364.73,550.19,366.06,549.99,367.2,550.12z"/>
<path class="st17" d="M370.95,542.6c0,0.27,0,0.54-0.01,0.82c-1.48,1.34-3.03,1.41-4.39-0.06c-1.16-1.26-2.09-2.72-3.16-4.06
	c-0.48-0.61-1.04-1.14-1.57-1.71c-0.5,0.52-1,1.05-1.49,1.57c-0.44,0.24-0.88,0.48-1.32,0.72c-0.32-0.01-0.64-0.01-0.95-0.02
	c-2.02-0.2-4.04-0.4-6.06-0.59c-0.16-0.01-0.32-0.02-0.48-0.03c0.02-1.4,0.05-2.8,0.07-4.21c0,0,0.01-0.01,0.01-0.01
	c1.86-1.01,2.66-2.67,2.85-4.7c1.02-2.05,3.26-2.34,4.99-3.3c0.31-0.17,1.24,0.77,1.88,1.2c0.39,0.29,0.78,0.58,1.17,0.87
	c0,0,0.04,0.04,0.04,0.04c0.14,0.12,0.28,0.23,0.43,0.35c0,0,0.05,0.01,0.05,0.01c0.39,0.57,0.78,1.13,1.17,1.7
	c0.04,0.14,0.09,0.28,0.13,0.42c0.26,0.68,0.43,1.42,0.8,2.04c0.46,0.77,1.45,1.4,1.56,2.18c0.32,2.44,2.11,3.78,3.54,5.41
	C370.45,541.68,370.7,542.14,370.95,542.6z"/>
<path class="st17" d="M347.35,530.7c-0.16,0.03-0.32,0.06-0.48,0.09c-1.27-2.07-1.05-4.29-0.69-6.53c0.21-0.06,0.42-0.12,0.62-0.17
	c1.06,1.03,2.1,1.16,3.1-0.07c0.14,0,0.27-0.03,0.39-0.1c1.71,0.89,1.76,1.92,0.3,3.27c-1.03,0.96-1.93,2.06-2.89,3.1
	C347.59,530.42,347.47,530.56,347.35,530.7z"/>
<path class="st17" d="M354.17,523.13c0.67-0.01,1.34-0.01,2-0.02c0.37,1.4-0.46,2.29-1.5,2.83c-0.4,0.2-1.2-0.39-1.8-0.61
	C353.42,524.4,353.79,523.77,354.17,523.13z"/>
<path class="st3" d="M376.48,541.36c0.55,0.7,1.1,1.39,1.65,2.09C377.58,542.75,377.03,542.06,376.48,541.36z"/>
<path class="st3" d="M376.03,539.21c0.14,0.71,0.28,1.41,0.42,2.12C376.31,540.62,376.17,539.92,376.03,539.21z"/>
<path class="st3" d="M374.4,535.78c0.4,0.72,0.81,1.45,1.21,2.17C375.21,537.22,374.81,536.5,374.4,535.78z"/>
<path class="st4" d="M364.17,531.17c-0.39-0.57-0.78-1.13-1.17-1.7C363.39,530.03,363.78,530.6,364.17,531.17z"/>
<path class="st4" d="M359.02,539.86c0.44-0.24,0.88-0.48,1.32-0.72C359.9,539.38,359.46,539.62,359.02,539.86z"/>
<path class="st4" d="M362.49,529.06c-0.39-0.29-0.78-0.58-1.17-0.87C361.71,528.48,362.1,528.77,362.49,529.06z"/>
<path class="st3" d="M374.01,534.88c0.11,0.17,0.22,0.34,0.33,0.51C374.23,535.22,374.12,535.05,374.01,534.88z"/>
<path class="st18" d="M347.35,530.7c0.12-0.14,0.24-0.28,0.36-0.42C347.59,530.42,347.47,530.56,347.35,530.7z"/>
<path class="st4" d="M362.95,529.45c-0.14-0.12-0.28-0.23-0.43-0.35C362.67,529.22,362.81,529.33,362.95,529.45z"/>
<path class="st2" d="M398.45,581.12c-0.13-0.15-0.25-0.31-0.38-0.46C398.2,580.82,398.32,580.97,398.45,581.12z"/>
<path class="st17" d="M316.48,647.52c0.35-0.85,0.71-1.7,1.06-2.55C317.19,645.82,316.83,646.67,316.48,647.52z"/>
<path class="st18" d="M286.04,669.11c-0.04-0.7-0.08-1.4-0.11-2.1C285.97,667.71,286,668.41,286.04,669.11z"/>
<path class="st17" d="M313.89,654.14c0.4-0.23,0.8-0.46,1.21-0.68C314.69,653.68,314.29,653.91,313.89,654.14z"/>
<path class="st17" d="M280.98,614.56c-0.22,1.16-0.44,2.31-0.69,3.6c0.5,0.06,0.97,0.2,1.43,0.17c1.9-0.15,2.34,0.93,2.12,2.51
	c-0.34,2.41,0.47,3.37,2.99,3.43c1.4,0.03,2.81,0.05,4.21,0.12c0.14,0.01,0.26,0.28,0.7,0.8c-1.01,0.14-1.75,0.34-2.49,0.33
	c-1.9-0.01-3.6,0.37-5.43,1.13c-1.57,0.65-3.72-0.12-5.61-0.25c-0.86-0.06-1.72-0.11-2.58-0.17c-0.04,0.78-0.24,1.61-0.07,2.35
	c0.52,2.22-0.1,3.2-2.26,3.46c-0.6,0.07-1.16,0.48-1.73,0.73c0.05-1,0.09-2.01,0.14-3.01c0.53-0.84,1.06-1.68,1.59-2.53
	c0,0,0.04-0.05,0.04-0.05c0.55-1.4,1.09-2.81,1.64-4.21c0.04-0.13,0.08-0.27,0.12-0.4c0.46-1.19,0.93-2.39,1.39-3.58
	c0.16-0.2,0.31-0.41,0.46-0.61c0.61-0.73,1.21-1.46,1.82-2.19c0,0,0.02-0.02,0.02-0.02c0.72-0.54,1.44-1.09,2.16-1.63L280.98,614.56
	z"/>
<path class="st19" d="M276.49,618.98c-0.46,1.19-0.93,2.39-1.39,3.58C275.56,621.37,276.03,620.18,276.49,618.98z"/>
<path class="st19" d="M274.98,622.97c-0.55,1.4-1.09,2.81-1.64,4.21C273.88,625.77,274.43,624.37,274.98,622.97z"/>
<path class="st19" d="M278.77,616.19c-0.61,0.73-1.21,1.46-1.82,2.19C277.56,617.64,278.17,616.92,278.77,616.19z"/>
<path class="st19" d="M282.17,612.8c-0.35,0.32-0.71,0.64-1.06,0.96C281.47,613.44,281.82,613.12,282.17,612.8z"/>
<path class="st17" d="M338.29,646.52c-0.81,1.54-1.68,3.06-2.4,4.63c-0.64,1.41-1.58,2.91-1.57,4.37c0.03,2.51-0.63,4.56-2.28,6.38
	c-0.41,0.41-0.83,0.83-1.24,1.24c-2.51,1.77-3.29,4.42-3.72,7.25c-0.06,0.12-0.1,0.25-0.14,0.38c-0.35,1.16-0.7,2.31-1.06,3.47
	c-0.04,0.27-0.08,0.55-0.14,0.82c-0.42,2.1-0.85,4.21-1.27,6.31c-0.09,0.37-0.18,0.75-0.26,1.13c-0.88,2.6-1.76,5.2-2.64,7.79
	c-1.72,1.41-3.44,2.83-5.16,4.25c-0.27,0.12-0.54,0.25-0.82,0.37c-0.14-1.32-0.31-2.63-0.4-3.95c-0.08-1.35,0.19-2.15,1.94-1.67
	c2.78,0.77,3.02,0.44,3.28-2.52c0.08-0.88,0.43-1.77,0.8-2.59c0.57-1.25,1.7-2.34,0.87-3.89c2.32-2.07,0.73-3.7-0.44-5.56
	c-0.31-0.5,0.52-1.71,0.85-2.7c-1.49-1.79-1.37-2.51,0.38-4.1c0.39-0.35,0.27-1.35,0.24-2.05c-0.05-1.3-0.74-2.9-0.2-3.83
	c0.61-1.07,2.18-1.75,3.47-2.18c1.2-0.39,2.15,0.32,2.36,1.74c0.05,0.36,0.36,0.69,0.76,1.41c0.5-1.93,0.94-3.48,1.3-5.04
	c0.31-1.36,0.46-2.76,0.82-4.11c0.58-2.12,0.06-3.42-1.79-4.55c-0.61-0.38-1-1.12-1.5-1.69c0.73-0.46,1.44-0.93,2.18-1.35
	c0.16-0.08,0.45-0.08,0.62-0.01C333.51,647.37,335.91,646.6,338.29,646.52z"/>
<path class="st17" d="M343.53,682.71c-1.81,0.53-3.62,1.06-5.44,1.6c-2.4-2.5-2.41-5.02,0.14-7.46c1.56-1.49,2.02-4.01,0.08-7.25
	c-0.13-0.29-0.25-0.58-0.38-0.88c0-0.44,0.01-0.87,0.01-1.31c0.75-0.8,1.51-1.6,2.26-2.4c0,0,0.04-0.05,0.04-0.05
	c0.64,0,1.28,0.01,1.92,0.01l0.11,0.07c0,0,0.11-0.07,0.11-0.07c0.21,0.39,0.42,0.77,0.63,1.16c0.16,0.31,0.31,0.63,0.47,0.94
	c0.86,0.4,1.71,0.79,2.57,1.19c2.45,1.63,3.32,6.22,1.98,7.91c-0.61,0.77-1.64,1.21-2.48,1.81c-0.67,1.57-1.34,3.13-2.01,4.7
	C343.55,682.69,343.53,682.71,343.53,682.71z"/>
<path class="st17" d="M333.98,669.84l-0.12,0c0,0-0.07,0.11-0.07,0.11c-0.5,0.5-0.98,1.02-1.51,1.5c-0.6,0.55-1.24,1.07-1.87,1.61
	c-1.5-0.62-0.32-1.65-0.11-2.18c0.75-1.96,1.79-3.82,2.75-5.71c0.15-0.3,0.4-0.64,0.68-0.78c0.64-0.29,1.33-0.46,2-0.68
	c0.17,0.76,0.62,1.6,0.44,2.26c-0.33,1.22-1.04,2.35-1.59,3.51C334.39,669.6,334.19,669.72,333.98,669.84z"/>
<path class="st17" d="M330.41,677.62c-0.76,1.25-1.51,2.5-2.27,3.75C328.9,680.12,329.65,678.87,330.41,677.62z"/>
<path class="st17" d="M325.9,674.25c0.35-1.16,0.71-2.31,1.06-3.47C326.61,671.94,326.25,673.1,325.9,674.25z"/>
<path class="st17" d="M331.31,675.92c-0.24,0.46-0.47,0.93-0.71,1.39C330.84,676.84,331.07,676.38,331.31,675.92z"/>
<path class="st17" d="M337.95,668.72c0.13,0.29,0.25,0.58,0.38,0.88C338.2,669.31,338.07,669.02,337.95,668.72z"/>
<path class="st17" d="M333.98,669.84c0.2-0.12,0.41-0.24,0.61-0.36C334.39,669.6,334.19,669.72,333.98,669.84z"/>
<path class="st17" d="M342.69,691.57c-0.29,0.28-0.57,0.55-0.86,0.83C342.11,692.12,342.4,691.85,342.69,691.57z"/>
<path class="st17" d="M347.69,664.47c0-0.14,0.01-0.28,0.01-0.42c0.43-1.49,0.98-2.96,1.26-4.47c0.27-1.45,0.89-2.73,2.36-2.65
	c1.77,0.1,2.44-0.91,3.2-2.08c1.82-2.78,3.99-3.75,5.98-2.81c0.43-1.05,0.86-2.11,1.29-3.17c0.39-0.27,0.79-0.55,1.18-0.82
	c0.13-0.05,0.27-0.1,0.4-0.15c0.16,0,0.32-0.01,0.48-0.01c0.11,0.05,0.23,0.09,0.35,0.1c-0.09,0.99-0.18,1.98-0.27,2.97
	c-0.07,0.27-0.13,0.55-0.2,0.82c-0.09,0.86-0.19,1.71-0.28,2.57c-0.09,0.34-0.19,0.69-0.28,1.03c-0.36,0.1-0.72,0.2-1.08,0.3
	c-0.38-0.68-0.75-1.35-1.22-2.2c-2.09,2.95-1.1,6.21-1.23,9.3c-0.03,0.14-0.06,0.27-0.08,0.41c-1.01,2.09-2.02,4.18-3.03,6.28
	c-0.42,0.41-0.85,0.81-1.27,1.21c-0.13,0.05-0.22,0.13-0.29,0.25c-1.02,0.16-2.03,0.32-3.05,0.48c-0.43-0.21-0.85-0.42-1.28-0.63
	c-0.03-0.13-0.08-0.26-0.15-0.38c-0.12-1.01-0.24-2.01-0.36-3.02c0.24-0.36,0.47-0.72,0.71-1.08l-0.05-0.14c0,0,0.06,0.14,0.06,0.14
	c0.92-0.47,1.95-0.81,2.75-1.44c1-0.79,1.47-1.83,0.12-2.99c-1.18,0.97-2.32,1.91-3.47,2.85
	C349.39,664.64,348.54,664.56,347.69,664.47z"/>
<path class="st17" d="M348.08,693.96c0.98,0.81,1.73,1.44,2.49,2.07c-0.71,0.5-1.54,1.5-2.11,1.37c-0.89-0.2-1.62-1.17-2.41-1.82
	C346.61,695.13,347.17,694.68,348.08,693.96z"/>
<path class="st17" d="M368.1,671.23c-0.13-0.14-0.27-0.29-0.4-0.43c-0.06-0.13-0.11-0.26-0.17-0.4c0.01-0.56,0.01-1.13,0.02-1.69
	c2.5-3.61,4.93-7.25,5.91-11.68c-0.74,0.12-1.21,0.41-1.49,0.84c-0.99,1.46-1.93,2.96-2.86,4.47c-0.54,0.87-0.99,1.78-1.54,2.64
	c-0.65,1.01-1.35,1.98-2.03,2.97c-0.57-0.17-1.14-0.33-1.72-0.5c-0.28-0.44-0.55-0.88-0.83-1.31c-0.03-0.12-0.07-0.25-0.11-0.37
	c0-0.15-0.01-0.3-0.01-0.45c-0.01-0.27-0.02-0.53-0.02-0.8c0-0.44,0-0.88,0-1.32c0.05-0.26,0.1-0.52,0.15-0.78
	c0.13-0.15,0.27-0.3,0.4-0.45c0.15-0.22,0.29-0.45,0.45-0.66c2.19-2.68,3.89-5.41,1.78-9c-0.36-0.61-0.23-1.7,0.02-2.45
	c0.68-2.07,1.54-4.08,2.33-6.11c0.04-0.13,0.07-0.27,0.08-0.41c0.29-0.7,0.59-1.4,0.88-2.1c0.09-0.29,0.18-0.58,0.27-0.87
	c0.47-0.7,0.94-1.39,1.41-2.09l-0.02,0.02c0.7-1.43,1.39-2.85,2.09-4.28c0.08-0.32,0.16-0.64,0.24-0.96
	c0.08-0.96,0.15-1.92,0.23-2.88c0.01-1.4,0.02-2.8,0.02-4.19c0.17-0.73,0.48-1.46,0.48-2.19c0-3.22-0.09-6.45-0.14-9.67
	c-0.01-2.26,0.01-4.51-0.06-6.76c-0.01-0.29-0.47-0.56-0.72-0.84c-0.33-0.82-0.66-1.64-0.98-2.46c-0.2-0.54-0.39-1.08-0.59-1.62
	c1.21-1.65,0.58-4.3-1.44-6.09c0.01-0.15-0.03-0.27-0.13-0.38c-0.63-0.83-1.08-2.01-1.92-2.43c-1.62-0.81-3.45-1.2-5.2-1.76
	c-0.14-0.17-0.29-0.34-0.43-0.5c-0.25-0.43-0.5-0.86-0.75-1.3c-0.72-1.68-1.63-3.15-3.43-3.08c-2.27-4.47-0.38-8.65,0.12-12.89
	c0.31-0.89,0.61-1.78,0.92-2.67c0.08-0.55,0.15-1.11,0.23-1.66c0.02-0.42,0.04-0.83,0.06-1.25c0-0.29,0-0.57-0.01-0.86
	c0.1-0.58,0.19-1.15,0.29-1.73c0.86-0.98,1.72-1.96,2.59-2.94c0.46-0.08,0.91-0.15,1.37-0.23c0.55-0.02,1.09-0.05,1.64-0.07
	c1.57,0.01,3.15,0.02,4.72,0.02c0.77,0.01,1.55,0.02,2.33,0.03c0.74,1.22,1.47,2.44,2.21,3.66c0.07,0.36,0.14,0.73,0.21,1.09
	c0.25,2.98,0.48,5.96,0.76,8.93c0.02,0.2,0.35,0.37,0.54,0.56c0.04,0.71,0.08,1.43,0.12,2.14c0.02,0.26,0.03,0.52,0.05,0.78
	c0.72,0.71,1.44,1.42,2.16,2.13l-0.04,0.2c2.27,0.91,4.54,1.83,6.81,2.74c2.1,0.8,1.61,2.65,1.73,4.26c0.05,1.3-0.37,2.91,0.24,3.85
	c2.19,3.39,4.97,6.27,8.94,7.66c0.69,1.29,1.37,2.59,2.06,3.88c0.04,0.65,0.09,1.31,0.13,1.96c0,2.4-0.01,4.8-0.01,7.2
	c-0.13,0.7-0.25,1.41-0.38,2.11c-0.41,0.98-0.83,1.97-1.24,2.95c-0.38,1.5-1.42,3.23-1,4.45c0.9,2.59,1.03,5.11,0.85,7.74
	c0,0-0.15,0.03-0.14,0.02c-1.49,1.68-1.51,3.84-1.9,5.88c-0.12,0.61-0.28,1.21-0.42,1.82c-0.05-2.27-0.49-4.62-0.06-6.8
	c0.57-2.83,0.2-4.5-2.31-5.95c-0.43-0.25-0.71-0.75-0.96-1.03c1.58-0.94,2.87-1.71,3.83-2.29c-0.19-1.9-0.38-3.41-0.47-4.92
	c-0.14-2.27-0.25-4.54-0.26-6.81c0-0.47,0.36-1.15,0.75-1.38c1.32-0.76,2.55-1.68,1.8-3.29c-0.85-1.83-1.46-4.24-4.07-4.32
	c-3.72-0.12-5.86-1.99-6.6-5.52c-0.31-1.46-0.32-2.98-0.46-4.47c-0.07-0.75-0.12-1.49-0.18-2.24c-0.59,0.47-1.17,0.94-1.77,1.39
	c-0.08,0.06-0.26-0.02-0.39-0.04c-0.47-2.03-0.45-1.87-2.69-1.61c-0.87,0.1-1.85-0.71-2.78-1.11c0.49-0.64,0.96-1.3,1.49-1.91
	c0.4-0.46,0.87-0.86,1.74-1.72c-2.38,0.12-4.09,0.1-5.77,0.34c-0.66,0.09-1.49,0.63-1.78,1.21c-0.2,0.39,0.39,1.19,0.63,1.8
	c0.29,0.73,0.98,1.55,0.82,2.15c-0.58,2.25-1.45,4.43-2.19,6.65c-0.11,0.32-0.06,0.69-0.08,1.04c1.65-1.89,3.68-1.97,5.79-1.72
	c0.63,0.07,1.73,0.19,1.77,0.45c0.14,0.75,0.01,1.65-0.33,2.34c-0.1,0.21-1.18-0.1-1.81-0.06c-0.72,0.05-1.79-0.02-2.1,0.41
	c-1.58,2.16-1.34,4.69-1.1,7.19c0.32,3.36,1.35,6.87,0.71,10.04c-0.79,3.95,1.07,7.06,1.75,10.53c0.12,0.61,1.3,1.1,2.08,1.46
	c0.51,0.24,1.17,0.14,2.12,0.23c-0.58,1.1-1.01,1.89-1.26,2.38c-1.1-0.4-2-1.05-2.82-0.96c-1.19,0.14-3.78,6.3-3.33,7.47
	c0.05,0.13,0.22,0.23,0.23,0.35c0.16,2.01,1.27,4.02,0.15,6.15c-0.82-0.28-1.49-0.51-2.19-0.75c-0.68,3.45-0.68,3.45-2.86,2.86
	c-0.44,1.3-0.56,2.85-1.37,3.83c-1.08,1.31-0.6,1.82,0.5,2.39c1.37,0.7,2.76,1.35,4.41,2.15c0.36-0.22,1.05-0.63,2.41-1.46
	c0,1.88,0.05,3.23-0.01,4.58c-0.08,1.62,0.02,2.87,2.24,2.2c0.46-0.14,1.11,0.35,1.67,0.54c0.7,0.24,1.39,0.47,2.09,0.7
	c-0.74,0.61-1.42,1.62-2.25,1.76c-1.83,0.32-2.33,1.21-1.99,2.87c-0.62,1.49-1.05,3.09-1.9,4.43
	C373.28,672.32,370.16,672.71,368.1,671.23z"/>
<path class="st17" d="M410.77,633.59c-0.29,0.56-0.57,1.12-0.86,1.68c-0.12,0.07-0.14,0.16-0.06,0.27c-0.36,0.5-0.68,1.04-1.09,1.5
	c-0.66,0.73-1.36,1.98-2.07,1.99c-1.59,0.04-0.95-1.48-1.03-2.42c-0.02-0.27,0.05-0.56,0.08-0.83c0,0-0.01,0-0.01,0
	c0.24-0.45,0.49-0.91,0.73-1.36c0.19-0.27,0.38-0.54,0.56-0.81c0.25-0.72,0.5-1.43,0.76-2.15c0,0,0.04,0.04,0.04,0.04
	c0.38-0.88,1.03-1.75,1.09-2.66c0.16-2.37,0.07-4.75,0.08-7.13c1.58-1.43,2.72-1.07,3.49,0.84
	C412.94,626.4,413.03,630.18,410.77,633.59z"/>
<path class="st17" d="M412.04,613.33c2.78,0.05,3.29,0.58,3.31,3.38c0,0.55,0.06,1.09,0.1,1.64c-2.29,1.39-3.86,0.67-4.25-1.96
	c-0.09-0.61-0.07-1.24-0.1-1.86c0.18-0.28,0.36-0.55,0.54-0.83C411.77,613.58,411.91,613.45,412.04,613.33z"/>
<path class="st20" d="M406.47,634.42c-0.24,0.45-0.49,0.91-0.73,1.36C405.98,635.33,406.23,634.88,406.47,634.42z"/>
<path class="st17" d="M412.09,634.95c0.36,0,0.73-0.01,1.09-0.01c-0.23,2.08-0.46,4.17-0.69,6.25c-0.46,0.97,0.91,2.76-1.31,2.95
	c0-2.82-0.01-5.63-0.01-8.45C411.48,635.44,411.78,635.19,412.09,634.95z"/>
<path class="st17" d="M380.79,661.12c-0.7-0.23-1.4-0.46-2.09-0.7c-0.56-0.19-1.21-0.68-1.67-0.54c-2.22,0.67-2.31-0.58-2.24-2.2
	c0.07-1.34,0.01-2.69,0.01-4.58c-1.36,0.83-2.04,1.24-2.41,1.46c-1.65-0.8-3.04-1.45-4.41-2.15c-1.11-0.57-1.59-1.08-0.5-2.39
	c0.81-0.98,0.94-2.52,1.37-3.83c2.18,0.59,2.18,0.59,2.86-2.86c0.7,0.24,1.37,0.47,2.19,0.75c1.12-2.13,0.01-4.14-0.15-6.15
	c-0.01-0.12-0.18-0.22-0.23-0.35c-0.45-1.17,2.13-7.33,3.33-7.47c0.82-0.1,1.72,0.56,2.82,0.96c0.26-0.48,0.68-1.28,1.26-2.38
	c-0.94-0.09-1.6,0.01-2.12-0.23c-0.78-0.36-1.96-0.85-2.08-1.46c-0.67-3.47-2.54-6.58-1.75-10.53c0.64-3.17-0.39-6.68-0.71-10.04
	c-0.24-2.5-0.48-5.03,1.1-7.19c0.31-0.43,1.37-0.35,2.1-0.41c0.62-0.05,1.7,0.27,1.81,0.06c0.33-0.69,0.47-1.59,0.33-2.34
	c-0.05-0.26-1.14-0.37-1.77-0.45c-2.11-0.24-4.14-0.17-5.79,1.72c0.02-0.35-0.02-0.72,0.08-1.04c0.73-2.22,1.6-4.39,2.19-6.65
	c0.16-0.61-0.53-1.43-0.82-2.15c-0.24-0.61-0.83-1.41-0.63-1.8c0.3-0.57,1.12-1.11,1.78-1.21c1.68-0.24,3.39-0.22,5.77-0.34
	c-0.88,0.86-1.35,1.26-1.74,1.72c-0.53,0.61-1,1.27-1.49,1.91c0.93,0.4,1.91,1.21,2.78,1.11c2.24-0.25,2.22-0.41,2.69,1.61
	c0.13,0.02,0.31,0.1,0.39,0.04c0.6-0.45,1.19-0.92,1.77-1.39c0.06,0.75,0.11,1.49,0.18,2.24c0.14,1.49,0.15,3.01,0.46,4.47
	c0.74,3.53,2.88,5.4,6.6,5.52c2.61,0.09,3.22,2.49,4.07,4.32c0.75,1.61-0.48,2.53-1.8,3.29c-0.4,0.23-0.76,0.91-0.75,1.38
	c0.01,2.27,0.12,4.54,0.26,6.81c0.09,1.52,0.29,3.02,0.47,4.92c-0.96,0.58-2.26,1.35-3.83,2.29c0.25,0.28,0.53,0.79,0.96,1.03
	c2.51,1.45,2.88,3.12,2.31,5.95c-0.43,2.18,0.01,4.53,0.06,6.8c0.01,0.15,0.01,0.3,0.02,0.44c0,0.13,0,0.27,0.01,0.4
	c-0.03,0.28-0.06,0.56-0.1,0.84c-0.81,1.03-1.61,2.06-2.71,3.46c0.07,2.04,1.3,4.85-1.23,6.81c-0.72-0.47-1.34-0.87-1.96-1.27
	c-0.26,0.73-0.55,1.45-0.78,2.19c-0.59,1.89-1.22,3.78-1.69,5.71c-0.12,0.51,0.28,1.16,0.45,1.74c-0.03,0.14-0.06,0.27-0.09,0.41
	c-1.1,0.11-1.76-0.21-1.64-1.49c0.12-1.23,0.16-2.47,0.24-3.75c-1.24-0.59-2.04-0.18-2.29,1.12c-0.36,1.91-0.61,3.84-0.91,5.76
	C381.04,661.1,380.92,661.13,380.79,661.12z M382.52,616.43c0.02-0.02,0.59-0.29,0.63-0.62c0.2-2.06,1.57-2.22,3.17-2.13
	c0.63,0.04,1.27,0.07,1.89-0.01c1.86-0.25,1.66-1.81,1.79-3.06c0.14-1.36-0.77-1.57-1.9-1.59c-1.24-0.02-2.71,0.2-3.68-0.38
	c-1.5-0.89-2.9-1.06-4.34-0.41c-0.98,0.44-2.42,1.24-2.5,1.99c-0.1,1.01,0.76,2.26,1.5,3.17
	C379.95,614.44,381.13,615.23,382.52,616.43z M378.36,649.05c-0.23-0.23-0.45-0.46-0.68-0.7c-0.41,0.39-0.82,0.79-1.23,1.18
	c0.18,0.19,0.36,0.38,0.54,0.57C377.45,649.75,377.91,649.4,378.36,649.05z M391.56,640.66c-0.12-0.05-0.26-0.17-0.35-0.13
	c-0.08,0.03-0.11,0.22-0.16,0.33c0.12,0.05,0.26,0.17,0.34,0.14C391.48,640.96,391.51,640.78,391.56,640.66z"/>
<path class="st17" d="M373.18,675.5c0.1-0.15,0.2-0.29,0.29-0.44C373.38,675.2,373.28,675.35,373.18,675.5z"/>
<path class="st17" d="M381.15,661.04c0.3-1.92,0.55-3.85,0.91-5.76c0.25-1.3,1.05-1.71,2.29-1.12c-0.08,1.28-0.12,2.52-0.24,3.75
	c-0.12,1.28,0.54,1.6,1.64,1.49c-0.13,0.41-0.26,0.82-0.39,1.22C383.94,660.76,382.55,660.9,381.15,661.04z"/>
<path class="st4" d="M351.66,586.62c-0.25,0.43-0.51,0.86-0.76,1.29C351.15,587.48,351.41,587.05,351.66,586.62z"/>
<path class="st4" d="M350.63,588.25c-0.14,0.11-0.29,0.22-0.43,0.33C350.34,588.47,350.49,588.36,350.63,588.25z"/>
<path class="st4" d="M350.8,572.28c-0.23-0.72-0.45-1.44-0.68-2.15C350.35,570.85,350.58,571.57,350.8,572.28z"/>
<path class="st21" d="M349.81,568.83c-0.18-0.62-0.37-1.24-0.55-1.87C349.45,567.59,349.63,568.21,349.81,568.83z"/>
<path class="st4" d="M346,561.59c-0.02-0.68-0.04-1.36-0.06-2.03C345.96,560.24,345.98,560.91,346,561.59z"/>
<path class="st21" d="M349.2,566.88c-0.33-0.22-0.67-0.43-1-0.65C348.53,566.45,348.87,566.66,349.2,566.88z"/>
<path class="st4" d="M356.2,564.19c0.11,0.3,0.21,0.59,0.32,0.89C356.41,564.78,356.31,564.49,356.2,564.19z"/>
<path class="st17" d="M342.5,526.84c0.04-0.16,0.08-0.31,0.13-0.47c0.54,0.16,1.07,0.32,1.61,0.48c0.09,1.17,0.18,2.34,0.27,3.5
	c-0.9-0.6-1.8-1.2-2.7-1.8c0.11-0.43,0.21-0.85,0.32-1.28c0,0,0.07-0.02,0.07-0.02C342.3,527.11,342.4,526.97,342.5,526.84z"/>
<path class="st17" d="M344.73,531.15c-0.11-0.18-0.21-0.36-0.32-0.54C344.52,530.79,344.62,530.97,344.73,531.15z"/>
<path class="st6" d="M354.58,520.2c0.13-0.15,0.25-0.3,0.38-0.44C354.84,519.91,354.71,520.05,354.58,520.2z"/>
<path class="st17" d="M280.11,550.2c-0.28,1.48-0.68,2.95-0.82,4.45c-0.18,1.97,0.91,2.83,2.83,2.75c0.49-0.02,0.99-0.03,1.48,0
	c0.98,0.07,2.43-0.36,2.35,1.28c-0.07,1.43-0.31,3.05-2.44,2.95c-0.77-0.04-1.57-0.1-2.32,0.03c-0.57,0.1-1.45,0.4-1.57,0.8
	c-0.84,2.86-3.22,5.29-2.16,8.71c0.35,1.13,0.16,2.74-1.61,3.15c0.13-2.38,0.33-4.76,0.35-7.13c0.01-1.46,0-3-0.44-4.36
	c-0.63-1.97,0.15-3.47,0.79-5.21c0.63-1.7,0.76-3.62,0.84-5.46c0.02-0.45-0.97-1.02-1.58-1.38c-0.52-0.3-1.17-0.37-1.75-0.54
	C276.07,550.23,278.09,550.22,280.11,550.2z"/>
<path class="st17" d="M275.77,577.65c-0.01,1.38-0.09,2.77-0.02,4.15c0.04,0.75,0.3,1.5,0.54,2.22c0.37,1.06,0.81,2.09,1.22,3.13
	c-1.86-1.1-2.84-2.74-3-4.89c-0.03-0.41-0.05-0.87-0.23-1.22C273.35,579.25,274.19,578.3,275.77,577.65z"/>
<path class="st17" d="M339.2,644.3c-0.3,0.73-0.6,1.45-0.9,2.17c-0.08-1.07-0.16-2.13-0.24-3.2c0,0.01,0.01,0.01,0.01,0.01
	C338.45,643.62,338.82,643.96,339.2,644.3z"/>
<path class="st17" d="M301.97,674.96c-0.4,0.2-0.83,0.36-1.24,0.53c-0.07-0.28-0.14-0.56-0.19-0.84c0.43-0.08,0.85-0.17,1.3-0.21
	C301.86,674.45,302,674.95,301.97,674.96z"/>
<path class="st17" d="M362.12,631.29c-1.58-2.35-1.84-4.6-0.3-7.18c0.5-0.84,0.24-2.56-0.3-3.5c-1.46-2.53-1.55-3-0.09-4.49
	c-0.19-2.61-0.33-4.67-0.48-6.74l0.06-0.07c-0.76-0.45-1.52-0.9-2.28-1.34c0.49-0.87,0.81-1.41,1.1-1.96
	c0.29-0.56,0.72-1.12,0.77-1.7c0.08-0.79,0.03-1.7-0.32-2.37c-0.16-0.3-1.18-0.19-1.81-0.19c-0.63-0.01-1.28,0.19-1.88,0.07
	c-0.68-0.14-1.31-0.52-1.96-0.79c0.42-0.57,0.74-1.3,1.3-1.66c1.56-0.99,2.89-4,1.74-4.77c-1.18-0.77-3.22-1.01-4.55-0.54
	c-1.32,0.46-1.96,0.46-2.87-0.49c-0.43-0.44-1.2-0.54-1.82-0.8c-0.04,0.67-0.14,1.35-0.11,2.01c0.08,2.29,0.19,4.58,0.3,6.87
	c-0.25-0.13-0.5-0.25-0.75-0.38c-0.86,0.23-1.79,0.32-2.58,0.7c-1.73,0.85-3.85,0.28-3.82-1.21c0.03-1.74,1.02-3.44,0.03-5.24
	c-0.15-0.27,0.65-0.98,0.84-1.54c0.21-0.67,0.3-1.41,0.3-2.11c0.02-1.02-0.41-2.18-0.03-3.01c0.25-0.53,1.54-0.74,2.4-0.84
	c1.26-0.14,2.55-0.03,3.74-0.03c0.32-1.85,0.57-3.28,0.81-4.71c-0.11,0.03-0.23,0.07-0.35,0.11c-0.46-2.86-0.91-5.72-1.39-8.72
	c-3.06,2.47-6.48,0.57-9.77,1.2c1.26,2.57,5.99,4.01,1.94,8.05c0.38,0.24,0.98,0.41,1.04,0.69c0.17,0.84,0.36,2.39,0.12,2.47
	c-1.26,0.46-2.65,0.67-4,0.69c-0.4,0.01-1.2-0.91-1.16-1.35c0.28-2.77-1.29-3.82-3.57-4.67c-1.42-0.52-3.73-0.83-2.53-3.57
	c-1.96,0.15-2.9,0.7-2.19,2.67c0.12,0.35-0.47,0.95-0.72,1.43c-0.39-0.46-1-0.87-1.12-1.4c-0.19-0.83-0.05-1.74-0.05-2.65
	c-2.91,0.36-1.81,2.18-1.87,3.91c-0.88-0.41-1.54-0.65-2.13-1.01c-1.35-0.81-4.5-0.61-5.29,0.29c-0.76,0.85-1.66,1.6-2.93,2.81
	c0.18,0.45,0.59,1.48,1.21,3.05c-1.38,0.06-3.59,0.5-3.76,0.09c-0.96-2.32-1.12-4.99-3.78-6.53c0.16-0.14,0.32-0.29,0.48-0.43
	c1.19-0.11,2.37-0.23,3.58-0.36c-0.61-2.62-2.05-2.95-3.94-1.19c-2.48-0.54-4.92-1.08-6.96-1.52c0-2.41-0.03-4.29,0.01-6.17
	c0.03-1.94,0.9-2.49,2.84-2.36c2.03,0.14,4.11,0.13,6.12-0.14c1.51-0.21,1.95,0.29,1.9,1.62c-0.02,0.44-0.1,0.88-0.15,1.32
	c0.16,0.08,0.33,0.16,0.5,0.24c0.34-0.5,0.9-0.96,0.97-1.51c0.33-2.14,1.82-1.59,3.07-1.37c1.02,0.19,1.99,0.64,2.98,0.97
	c0.08-0.18,0.16-0.36,0.24-0.53c0.4,0.47,0.8,0.94,1.27,1.51c0.55-0.4,1.02-0.74,1.41-1.02c1.19,0.83,2.29,1.58,3.86,2.67
	c-0.41-2.64,0.32-4.45,2.23-4.72c1.62-0.23,3.38,0.6,5.3,1.01c-0.13-1.24-0.72-2.75-0.3-3.91c0.54-1.51,1.79-2.82,2.96-3.99
	c0.19-0.19,1.54,0.8,2.49,1.31c0.94-1.02,2.04-2.21,3.25-3.52c-0.36-0.6-0.8-1.35-1.33-2.23c0.74-0.31,1.4-0.44,1.84-0.83
	c0.39-0.34,0.8-1,0.73-1.44c-0.3-1.88,0.03-6.04,0.3-7.65c0.25-1.53,1.17-3.76-0.7-4.54c-2.19-0.91-1.65-2.1-1.46-3.07
	c1.41-0.68,3.22-1.02,3.35-1.71c0.54-2.62-2.13-2.01-3.77-2.83c0.93-1.13,1.72-2.07,2.29-2.75c1.12,1.7,2.01,3.06,2.9,4.42
	c0.17-0.07,0.34-0.13,0.51-0.19c-0.35-1.31-0.69-2.62-1.03-3.93c-0.08-0.29-0.16-0.57-0.24-0.85c-0.11-0.18-0.21-0.36-0.32-0.54
	c0.06-0.08,0.09-0.16,0.1-0.25c-0.9-0.6-1.8-1.2-2.7-1.8c-0.41,0.15-0.84,0.3-1.25,0.46c-0.08,0.47-0.08,1-0.29,1.41
	c-0.22,0.43-0.75,1.12-0.96,1.05c-0.49-0.14-0.96-0.61-1.27-1.06c-0.26-0.37-0.3-0.91-0.43-1.38c-0.81-0.44-1.63-0.88-2.44-1.32
	c-1.35,0.66-2.82,1.15-3.17,2.97c-0.1,0.54-0.66,1.1-1.15,1.43c-0.96,0.65-1.55,1.19-1.57,2.62c-0.01,0.78-1.56,1.79-2.6,2.22
	c-1.08,0.44-2.4,0.31-3.61,0.4c-1.12,0.07-2.33,0.39-3.34,0.08c-3.07-0.94-6.15-0.47-9.23-0.47c-0.5,0-1.35-0.8-1.44-1.35
	c-0.25-1.41-0.22-2.88-0.2-4.32c0.01-0.98,0.32-1.97,0.24-2.94c-0.07-0.76-0.48-1.52-0.83-2.24c-0.3-0.61-0.74-1.17-1.11-1.74
	c-0.73,0.28-1.46,0.56-2.18,0.83c1.24,1.76-0.03,1.73-1.24,1.74c-0.15,0.55-0.31,1.11-0.47,1.67c0.74-0.1,1.5-0.21,2.63-0.36v3.36
	c-0.97-0.17-1.57-0.27-1.77-0.3c-1.17,1.22-2.12,2.22-2.99,3.12c-0.97-0.29-1.76-0.52-2.55-0.75c-0.12,0.13-0.25,0.25-0.36,0.37
	c-0.1,0.96,0.02,2.01-0.36,2.83c-0.3,0.63-1.18,1.25-1.88,1.36c-0.45,0.07-1.04-0.8-1.57-1.24c-0.29,0.59-0.58,1.18-0.87,1.77
	c-0.01,0.39,0.03,0.8-0.03,1.18c-0.08,0.61-0.47,1.34-0.25,1.81c0.55,1.22-0.11,1.83-1,2.12c-2.07,0.67-2.05,2.28-1.75,3.85
	c0.3,1.57-0.22,2.07-1.69,2.09c-1.11,0.03-2.22,0.24-3.33,0.36c-1.79,0.01-3.6,0.03-5.4,0.04c-0.28,1.48-0.68,2.95-0.81,4.44
	c-0.19,1.96,0.91,2.84,2.83,2.75c0.49-0.02,0.98-0.03,1.47,0.01c0.99,0.07,2.43-0.36,2.35,1.28c-0.07,1.43-0.31,3.06-2.44,2.95
	c-0.78-0.03-1.57-0.1-2.32,0.03c-0.58,0.11-1.46,0.41-1.57,0.8c-0.84,2.85-3.23,5.29-2.16,8.71c0.35,1.13,0.16,2.73-1.62,3.15
	c-0.03,1.11-0.05,2.22-0.08,3.32c-0.02,1.39-0.09,2.77-0.02,4.15c0.03,0.74,0.29,1.5,0.54,2.22c0.36,1.06,0.8,2.09,1.22,3.13
	c0,0.25,0.01,0.48,0.01,0.73c0.03,0.56-0.01,1.13,0.09,1.68c0.47,2.54,0.99,5.06,1.5,7.59c0.61,3.04-0.29,3.9-3.31,3.27
	c-0.69-0.14-1.4-0.24-2.08-0.19c-1.74,0.12-1.84,1.62-1.79,2.76c0.05,1.22,0.95,1.26,2.16,1c0.73-0.16,1.69,0.82,2.56,1.29
	c0.18,0.97,0.35,1.93,0.52,2.89c0.19,0.14,0.4,0.3,0.59,0.45c-0.2,0.14-0.41,0.28-0.61,0.42c-0.04,0.57-0.09,1.13-0.14,1.69
	c0.28,1.73-0.21,2.27-2.11,2.31c-0.14,0.05-0.27,0.1-0.4,0.15c-0.52,0.58-1.03,1.17-1.56,1.75c0.45,2.12,1.31,2.55,2.84,1.12
	c1.07-1.01,1.78-2.4,2.65-3.61c0.24-0.46,0.38-1.02,0.73-1.36c1.69-1.7,3.45-3.35,5.17-5.01c0.26-2.63,0.64-5.19,3.79-5.99
	c0.39-1.02,0.83-1.06,1.3-0.05l0.08,0.09c0.21,0.84,0.85,2.01,0.52,2.45c-0.41,0.55-1.62,0.51-2.48,0.72
	c-0.15,0.02-0.27,0.08-0.36,0.19c-0.32,1.02-0.63,2.03-0.96,3.05c-0.06,0.3-0.13,0.59-0.19,0.89c-0.23,0.41-0.46,0.81-0.69,1.21
	c-0.2,0.14-0.41,0.27-0.62,0.41c-0.4,0.59-0.8,1.18-1.2,1.77c-0.46,0.67-0.91,1.34-1.37,2c-0.36,0.32-0.7,0.64-1.06,0.96l-0.09,0.08
	c-0.03,0.24-0.04,0.47-0.07,0.7l0.03,0.03c-0.22,1.16-0.44,2.32-0.69,3.61c0.5,0.06,0.96,0.2,1.42,0.16
	c1.9-0.15,2.34,0.93,2.12,2.51c-0.34,2.41,0.47,3.38,2.99,3.44c1.41,0.03,2.81,0.05,4.22,0.12c0.14,0.01,0.25,0.29,0.69,0.8
	c-1.01,0.14-1.74,0.33-2.48,0.33c-1.9-0.02-3.61,0.36-5.43,1.13c-1.57,0.65-3.72-0.12-5.61-0.25c-0.86-0.06-1.72-0.11-2.58-0.17
	c-0.03,0.78-0.25,1.61-0.08,2.34c0.52,2.22-0.09,3.2-2.25,3.46c-0.6,0.08-1.16,0.48-1.74,0.74v1.2h3.12
	c0.69,1.83,1.37,3.63,2.13,5.65c-1.19,1.45-1.18,1.44,0.48,3.33c0.31,0.36,0.74,1.07,0.59,1.29c-1.63,2.52,0.14,5.06-0.1,7.58
	c-0.11,1.1-0.04,2.22-0.02,3.33c0.03,1.87,0.1,3.73,0.13,5.6c0.03,1.89,0.01,3.78,0.01,5.39c1.94-0.2,3.43-0.36,4.99-0.52
	c0.17-0.96,0.01-2.47,0.68-3.37c1.3-1.74,1.46-3.6,1.68-5.61c0.16-1.52-0.25-3.78,2.54-3.75c0.31,0,0.68-0.99,0.95-1.55
	c0.67-1.37,1.04-3.68,1.99-3.94c2.12-0.58,4.37-1.8,6.87-0.41c1.02,0.57,2.18,0.88,2.19,2.04c0,0.49-1.26,0.99-2.07,1.57
	c0.1,1.65-1.28,3.67-2.3,3.01c-1.5-0.94-2.12-0.08-3.45,1.23c1.26,0.38,2.26,1.06,2.95,0.82c2.06-0.69,3.88-0.73,5.82,0.38
	c0.64,0.37,1.64,0.13,2.74,0.18c-0.48-1.12-0.73-1.67-0.96-2.22c1.54-1.19,2.84-2.73,4.48-3.32c1.53-0.56,3.43-0.12,5.43-0.12
	c-0.06-0.47-0.19-1.43-0.32-2.41c-1.84,0.08-3.5,0.24-5.15,0.18c-0.48-0.02-0.94-0.66-1.4-1.02c0.45-0.33,0.86-0.83,1.37-0.97
	c1.75-0.5,3.56-0.79,5.29-1.34c0.65-0.2,1.14-0.89,1.7-1.35c-0.51-0.4-1.05-0.77-1.52-1.2c-0.48-0.45-0.91-0.96-1.35-1.43
	c0.51-0.36,0.99-0.91,1.55-1.02c1.84-0.36,3.69-0.62,5.55-0.78c0.52-0.04,1.48,0.32,1.54,0.63c0.56,2.8,1.23,5.62,1.3,8.45
	c0.05,2.11-0.7,4.24-1.19,6.34c-0.15,0.63-0.58,1.19-1.02,2.03c-0.62-0.8-1.02-1.32-1.52-1.96c-1.56,1.62,0.13,1.98,0.88,2.58
	c-0.76,1.01-1.33,2.01-2.15,2.73c-0.42,0.36-1.52,0.52-1.94,0.23c-1.59-1.09-3.04-2.4-4.44-3.55c-5.57,3.58-7.7,8.63-8.45,14.52
	c-0.87-0.27-1.52-0.47-2.21-0.69c-0.23,0.47-0.6,0.85-0.57,1.21c0.22,2.09,0.25,4.04-1.2,5.87c-0.59,0.74,0.2,1.52,1.2,1.17
	c1.04-0.37,2-0.97,3.18-1.57c0.95,1.92,3.04,2.93,2.47,5.93c-0.36,1.92,0.89,4.08-1.81,5.15c-0.04,0.02,0.02,0.26,0,0.08
	c1.97,1.68,3.08,4.18,5.77,4.54c0.09,0.01,0.12,0.27,0.23,0.34c0.85,0.6,1.68,1.22,2.57,1.76c1.59,0.96,3.21,0.39,4.81-0.03
	l0.03-0.03c-0.14-1.32-0.31-2.63-0.4-3.95c-0.08-1.35,0.19-2.15,1.94-1.67c2.78,0.77,3.02,0.44,3.28-2.52
	c0.08-0.88,0.43-1.77,0.8-2.59c0.57-1.25,1.7-2.34,0.87-3.89c2.32-2.07,0.73-3.7-0.44-5.56c-0.31-0.5,0.52-1.71,0.85-2.7
	c-1.49-1.79-1.37-2.51,0.38-4.1c0.39-0.35,0.27-1.35,0.24-2.05c-0.05-1.3-0.74-2.9-0.2-3.83c0.61-1.07,2.18-1.75,3.47-2.18
	c1.2-0.39,2.15,0.32,2.36,1.74c0.05,0.36,0.36,0.69,0.76,1.41c0.5-1.93,0.94-3.48,1.3-5.04c0.31-1.36,0.46-2.76,0.82-4.11
	c0.58-2.12,0.06-3.42-1.79-4.55c-0.61-0.38-1-1.12-1.5-1.69c0.73-0.46,1.44-0.93,2.18-1.35c0.16-0.08,0.45-0.08,0.62-0.01
	c2.34,1.08,4.75,0.31,7.13,0.24l0.01-0.05c-0.08-1.07-0.16-2.13-0.24-3.2c-0.15-0.09-0.3-0.19-0.45-0.3
	c-0.56-0.32-1.13-0.65-1.68-0.97c0.09-1.02,0.15-2.04,0.29-3.06c0.23-1.79,0.46-3.6,0.79-5.38c0.11-0.59,0.53-1.12,0.81-1.68
	c0.36,0.47,1.03,0.93,1.05,1.41c0.04,1.31-0.1,2.64-0.33,3.94c-0.38,2.15,0.16,4.07,1.24,5.9c0.65,1.6,0.68,3.06-0.39,4.61
	c-0.66,0.96-0.83,2.25-1.27,3.38c-0.69,1.76-1.41,3.5-2.12,5.26c0.71,0.87,1.18,2.02,2.73,1.8c0.38-0.05,1.23,0.69,1.26,1.13
	c0.14,1.89,1.33,1.88,2.69,1.72c0.12-0.14,0.25-0.3,0.36-0.44c1.41-2.23,2.8-4.47,4.21-6.7c0.45-0.72,0.9-1.44,1.35-2.16
	c0.22-0.46,0.44-0.92,0.66-1.39c0.03-0.24,0.06-0.47,0.08-0.7c0.28-0.87,0.57-1.74,0.85-2.62c0.15-0.12,0.3-0.25,0.46-0.37
	c0.06-0.13,0.11-0.25,0.16-0.37c0.26-0.28,0.52-0.56,0.78-0.85c0.18-0.23,0.36-0.46,0.52-0.69l-0.03-0.06
	c0.22-2.2,2.23-1.37,3.99-1.94c0.19-2.26,0.41-4.53,0.56-6.79c0.1-1.44,0.11-2.77,2.26-2.09c0.64,0.2,1.5-0.16,2.24-0.32
	C362.45,633.27,362.91,632.47,362.12,631.29z M332.97,532.96c0.58-0.82,4.1-1.49,4.68-0.7c0.36,0.47,0.36,1.3,0.29,1.95
	c-0.03,0.29-0.65,0.7-1.02,0.72c-1.78,0.08-3.56,0.03-5.7,0.03C332.03,534.04,332.56,533.54,332.97,532.96z M329.5,561.9
	c0.21,0.27,0.42,0.53,0.63,0.8c-0.58,0.47-1.13,0.96-1.75,1.35c-0.07,0.04-0.51-0.5-0.77-0.77
	C328.24,562.83,328.87,562.37,329.5,561.9z M300.72,675.5c-0.07-0.28-0.14-0.56-0.19-0.84c0.43-0.08,0.85-0.17,1.3-0.21
	c0.03,0,0.18,0.5,0.14,0.52C301.57,675.17,301.14,675.33,300.72,675.5z M351.47,640.52c0.08-0.03,0.23,0.08,0.35,0.14
	c-0.05,0.12-0.08,0.3-0.16,0.34c-0.08,0.03-0.23-0.08-0.35-0.14C351.36,640.74,351.39,640.55,351.47,640.52z M304.97,579.65
	c0.36-0.24,0.73-0.47,1.09-0.69c0.21,0.64,0.62,1.32,0.55,1.94c-0.04,0.39-0.84,1-1.25,0.96c-0.52-0.04-1.01-0.63-1.52-0.99
	C304.22,580.46,304.59,580.06,304.97,579.65z M287.4,571.32c0.69,0.85,1.27,1.3,1.44,1.86c0.07,0.25-0.73,1.04-1.12,1.03
	c-0.42-0.02-1.08-0.62-1.18-1.06C286.46,572.74,286.97,572.19,287.4,571.32z M288.92,583.21c0.79-0.01,1.57,0,2.29,0
	c-0.91,1.21-1.6,2.23-2.4,3.16c-0.37,0.43-0.96,0.67-1.46,1c-0.3-0.48-0.8-0.95-0.87-1.46C286.18,583.65,286.6,583.23,288.92,583.21
	z M279.07,577.16c6.14-1.36,7.24-0.63,6.29,3.75C279.93,581.92,278.39,580.98,279.07,577.16z M358.84,610.95
	c-0.08,0.03-0.23-0.08-0.35-0.14c0.05-0.12,0.08-0.3,0.16-0.34s0.23,0.08,0.35,0.14C358.95,610.73,358.93,610.91,358.84,610.95z"/>
<path class="st17" d="M363.74,651.78c-0.09,0.86-0.19,1.71-0.28,2.57C363.55,653.49,363.64,652.64,363.74,651.78z"/>
<path class="st17" d="M361.79,648.87c0.39-0.27,0.79-0.55,1.18-0.82C362.58,648.33,362.18,648.6,361.79,648.87z"/>
<path class="st17" d="M356.53,669.47c-0.42,0.41-0.85,0.81-1.27,1.22C355.68,670.28,356.1,669.88,356.53,669.47z"/>
<path class="st19" d="M378.15,582.13c2.27,0.91,4.54,1.83,6.81,2.74C382.69,583.96,380.42,583.04,378.15,582.13z"/>
<path class="st4" d="M365.1,562.58c1.57,0.01,3.15,0.02,4.72,0.02C368.25,562.6,366.67,562.59,365.1,562.58z"/>
<path class="st4" d="M358.02,573.99c0.31-0.89,0.61-1.78,0.92-2.67C358.63,572.21,358.32,573.1,358.02,573.99z"/>
<path class="st4" d="M359.22,567.55c0.1-0.58,0.19-1.15,0.29-1.73C359.41,566.4,359.31,566.97,359.22,567.55z"/>
<path class="st4" d="M359.16,569.66c0.02-0.42,0.04-0.83,0.06-1.25C359.2,568.83,359.18,569.24,359.16,569.66z"/>
<path class="st4" d="M362.08,591.25c-0.25-0.43-0.5-0.86-0.75-1.3C361.58,590.39,361.83,590.82,362.08,591.25z"/>
<path class="st19" d="M375.98,579.02c0.02,0.26,0.03,0.52,0.05,0.78C376.01,579.54,375.99,579.28,375.98,579.02z"/>
<path class="st17" d="M363,662.4c0.13-0.15,0.27-0.3,0.4-0.45C363.27,662.1,363.13,662.25,363,662.4z"/>
<path class="st17" d="M382.52,616.43c-1.39-1.2-2.57-1.99-3.43-3.04c-0.74-0.91-1.6-2.16-1.5-3.17c0.08-0.75,1.51-1.55,2.5-1.99
	c1.44-0.65,2.84-0.48,4.34,0.41c0.97,0.57,2.43,0.35,3.68,0.38c1.12,0.02,2.04,0.24,1.9,1.59c-0.13,1.25,0.06,2.81-1.79,3.06
	c-0.62,0.08-1.26,0.05-1.89,0.01c-1.6-0.09-2.97,0.07-3.17,2.13C383.12,616.14,382.54,616.41,382.52,616.43z"/>
<path class="st17" d="M378.36,649.05c-0.46,0.35-0.91,0.7-1.37,1.05c-0.18-0.19-0.36-0.38-0.54-0.57c0.41-0.39,0.82-0.79,1.23-1.18
	C377.91,648.58,378.14,648.82,378.36,649.05z"/>
<path class="st17" d="M391.56,640.66c-0.05,0.12-0.08,0.3-0.16,0.33c-0.08,0.03-0.23-0.08-0.34-0.14c0.05-0.12,0.08-0.3,0.16-0.33
	C391.3,640.49,391.44,640.61,391.56,640.66z"/>
<path class="st17" d="M393.84,639.11c0.06,0.09,0.12,0.19,0.17,0.29c0.01,0.01-0.1,0.07-0.16,0.11
	C393.84,639.37,393.83,639.24,393.84,639.11z"/>
<path class="st17" d="M308.34,522.75c0.16-0.05,0.32-0.11,0.47-0.16c1.51,0.22,3.38-0.47,4.16,1.65c0.03,0.07,0.39,0.02,0.59,0.03
	c0,0,0.04,0.07,0.04,0.07c0.11,1.28,0.23,2.56,0.34,3.83c-0.04,0.17-0.08,0.34-0.12,0.51c-2.4,0.92-0.1,1.61,0.12,2.4
	c0.04,0.28,0.08,0.55,0.13,0.83c0.19,2.46,3.94,5.04,6.84,4.71c3.71-0.42,6.06-2.53,6.91-6.22c0.22-1.75,0.24-3.33-2.12-3.64
	c-0.29-0.04-0.46-0.95-0.69-1.46c0.39-0.32,0.78-0.64,1.17-0.95c0.1-0.04,0.21-0.06,0.32-0.07c0.46-0.26,0.91-0.54,1.38-0.77
	c0.43-0.21,0.89-0.35,1.33-0.52c-0.57,1.05-1.13,2.11-1.7,3.16c0.1,0.15,0.2,0.29,0.3,0.44c1-0.45,2-0.89,3.03-1.35
	c-0.35-0.9-0.59-1.53-0.84-2.17c1.71,1,3.43,2,5.14,3c0.01,0.1,0.04,0.19,0.08,0.28c-0.02,0.46-0.03,0.92-0.05,1.38
	c-1.36,0.66-2.82,1.15-3.17,2.97c-0.1,0.54-0.66,1.1-1.16,1.43c-0.96,0.65-1.55,1.19-1.57,2.61c-0.01,0.78-1.56,1.79-2.6,2.22
	c-1.08,0.44-2.39,0.31-3.6,0.39c-1.12,0.07-2.33,0.39-3.34,0.08c-3.07-0.94-6.14-0.47-9.22-0.48c-0.5,0-1.35-0.8-1.44-1.34
	c-0.25-1.41-0.22-2.88-0.21-4.32c0.01-0.98,0.32-1.97,0.24-2.93c-0.07-0.77-0.48-1.53-0.83-2.24c-0.3-0.62-0.73-1.17-1.11-1.75
	C307.56,523.82,307.95,523.29,308.34,522.75z"/>
<path class="st17" d="M365.09,620.04v0.83c-0.13,2.96-0.25,5.93-0.38,8.9c-1.45,2.92-2.89,5.84-4.33,8.76
	c-1.02,2.06-1.74,4.35-4.12,5.36c-1.4,0.27-2.78,0.54-4.18,0.81c0.22-2.2,2.23-1.37,3.99-1.94c0.19-2.26,0.41-4.53,0.56-6.79
	c0.1-1.44,0.11-2.77,2.26-2.09c0.64,0.2,1.5-0.16,2.24-0.32c1.33-0.3,1.79-1.09,1-2.28c-1.58-2.35-1.84-4.6-0.3-7.18
	c0.5-0.84,0.24-2.56-0.3-3.5c-1.46-2.53-1.55-3-0.09-4.49c-0.19-2.61-0.33-4.67-0.48-6.74c0.2,0.2,0.41,0.4,0.61,0.6
	C362.73,613.33,363.9,616.68,365.09,620.04z"/>
<path class="st17" d="M285.36,580.91c-5.43,1.01-6.97,0.07-6.28-3.75C285.21,575.8,286.31,576.53,285.36,580.91z"/>
<path class="st17" d="M285.51,550.16c-0.02-0.47-0.04-0.94-0.07-1.42c0.19-0.15,0.37-0.3,0.56-0.45c1.35-1.51,2.91-2.89,3.99-4.57
	c1.05-1.63,1.62-3.58,2.4-5.38c0.39,0.13,0.78,0.26,1.16,0.4c-0.01,0.4,0.02,0.8-0.03,1.19c-0.08,0.61-0.47,1.34-0.26,1.81
	c0.55,1.23-0.11,1.83-0.99,2.12c-2.07,0.67-2.05,2.28-1.75,3.86c0.3,1.56-0.23,2.06-1.7,2.09
	C287.72,549.82,286.61,550.03,285.51,550.16z"/>
<path class="st17" d="M303.28,528.59c0.75-0.1,1.5-0.21,2.64-0.36c0,1.13,0,2.17,0,3.36c-0.98-0.17-1.58-0.28-1.77-0.31
	c-1.17,1.22-2.13,2.22-2.99,3.12c-0.97-0.29-1.76-0.52-2.54-0.75c0.45-1.26,0.61-2.76,1.43-3.7
	C300.73,529.16,302.17,529.02,303.28,528.59z"/>
<path class="st17" d="M331.21,534.96c0.82-0.91,1.34-1.41,1.76-1.99c0.58-0.82,4.09-1.49,4.68-0.71c0.35,0.47,0.36,1.31,0.28,1.95
	c-0.03,0.29-0.65,0.7-1.02,0.72C335.13,535,333.35,534.96,331.21,534.96z"/>
<path class="st17" d="M291.22,583.21c-0.91,1.22-1.6,2.24-2.4,3.16c-0.37,0.43-0.97,0.67-1.46,1c-0.3-0.49-0.8-0.94-0.87-1.46
	c-0.31-2.27,0.11-2.68,2.44-2.7C289.71,583.21,290.5,583.21,291.22,583.21z"/>
<path class="st17" d="M297.36,533.97c0.29,0.02,0.59,0.04,0.88,0.06c-0.1,0.95,0.02,2.01-0.37,2.83c-0.3,0.64-1.18,1.25-1.87,1.36
	c-0.45,0.07-1.05-0.79-1.58-1.24c0.47-0.42,0.96-0.82,1.39-1.27c0.52-0.53,0.99-1.11,1.48-1.66L297.36,533.97z"/>
<path class="st17" d="M337.6,529.04c0.99-0.01,1.97-0.02,2.96-0.03c-0.09,0.47-0.08,1-0.29,1.41c-0.22,0.43-0.76,1.12-0.96,1.06
	c-0.49-0.15-0.96-0.61-1.27-1.06C337.77,530.04,337.74,529.5,337.6,529.04z"/>
<path class="st17" d="M306.06,578.95c0.21,0.65,0.62,1.32,0.55,1.94c-0.04,0.39-0.84,1-1.25,0.96c-0.53-0.04-1.01-0.63-1.51-0.99
	c0.38-0.41,0.75-0.81,1.13-1.22C305.33,579.42,305.69,579.18,306.06,578.95z"/>
<path class="st17" d="M287.4,571.32c0.7,0.85,1.27,1.3,1.44,1.87c0.07,0.24-0.73,1.04-1.12,1.03c-0.43-0.01-1.08-0.62-1.17-1.06
	C286.46,572.74,286.97,572.19,287.4,571.32z"/>
<path class="st17" d="M330.13,562.71c-0.58,0.47-1.13,0.96-1.75,1.36c-0.07,0.04-0.51-0.5-0.77-0.77c0.63-0.46,1.27-0.93,1.9-1.39
	C329.71,562.17,329.92,562.44,330.13,562.71z"/>
<path class="st17" d="M303.75,526.92c0.41-0.58,0.82-1.15,1.23-1.73C306.22,526.95,304.95,526.91,303.75,526.92z"/>
<path class="st17" d="M351.82,640.66c-0.05,0.12-0.08,0.3-0.16,0.34c-0.08,0.03-0.23-0.08-0.35-0.14c0.05-0.12,0.08-0.3,0.16-0.34
	C351.55,640.49,351.7,640.61,351.82,640.66z"/>
<path class="st17" d="M359,610.61c-0.05,0.12-0.08,0.3-0.16,0.34c-0.08,0.03-0.23-0.08-0.35-0.14c0.05-0.12,0.08-0.3,0.16-0.34
	S358.89,610.56,359,610.61z"/>
<path class="st17" d="M368.44,614.14c0.6,0.83,1.19,1.66,1.79,2.49c0.03,0.67,0.06,1.34,0.08,1.72c-0.73,0.49-1.34,0.9-1.96,1.3
	c-0.38,0.02-0.76,0.04-1.13,0.07c-0.14-0.04-0.27-0.09-0.41-0.13c-0.15-0.87-0.23-1.75-0.45-2.6c-0.37-1.45-0.4-3.38-1.35-4.19
	c-1.34-1.14-1.69-2.23-1.59-3.75c0.24-0.31,0.49-0.62,0.73-0.93c0.47,0.01,0.95,0.03,1.42,0.04
	C366.53,610.16,367.49,612.15,368.44,614.14z"/>
<path class="st17" d="M370.18,604.39c0.37,1.41,0.74,2.83,1.11,4.24c-0.27,0.57-0.5,1.17-0.83,1.7c-0.24,0.37-0.63,0.63-0.95,0.94
	c-0.24-0.43-0.61-0.85-0.7-1.31c-0.16-0.89-0.16-1.82-0.23-2.73c0.1-0.66,0.08-1.38,0.36-1.94
	C369.13,604.88,369.75,604.68,370.18,604.39z"/>
<path class="st22" d="M342.5,526.84c-0.1,0.14-0.21,0.27-0.31,0.41C342.3,527.11,342.4,526.97,342.5,526.84z"/>
<path class="st22" d="M326.18,524.34c-0.39,0.32-0.78,0.64-1.17,0.95C325.4,524.98,325.79,524.66,326.18,524.34z"/>
<path class="st23" d="M329.2,522.98c0.26,0.03,0.53,0.05,0.79,0.08c0.25,0.63,0.49,1.27,0.84,2.17c-1.03,0.46-2.03,0.9-3.03,1.35
	c-0.1-0.15-0.2-0.29-0.3-0.44C328.07,525.09,328.64,524.03,329.2,522.98z"/>
<path class="st17" d="M365.09,620.04c0,0.28,0,0.55,0,0.83C365.09,620.6,365.09,620.32,365.09,620.04z"/>
<g>
	<text transform="matrix(1 0 0 1 299.1441 620.8013)" class="st0 st24 st25">BARISAL</text>
</g>
<ellipse class="st26" cx="319.84" cy="605.05" rx="8.92" ry="0.87"/>
<g>
	<g>
		<circle class="st8" cx="319.84" cy="586.26" r="3.95"/>
	</g>
	<g>
		<path class="st8" d="M319.84,592.57c-3.48,0-6.31-2.83-6.31-6.31s2.83-6.31,6.31-6.31c3.48,0,6.31,2.83,6.31,6.31
			S323.32,592.57,319.84,592.57z M319.84,581.13c-2.83,0-5.13,2.3-5.13,5.13s2.3,5.13,5.13,5.13s5.13-2.3,5.13-5.13
			S322.66,581.13,319.84,581.13z"/>
	</g>
	<polygon class="st8" points="321.09,592.31 319.84,605.48 319.84,605.5 319.84,605.48 318.58,592.31 319.84,592.29 319.84,592.29 	
		"/>
</g>
</svg>
