<?xml version="1.0" encoding="utf-8"?>
<!-- Generator: Adobe Illustrator 27.6.1, SVG Export Plug-In . SVG Version: 6.00 Build 0)  -->
<svg version="1.1" id="Layer_1" xmlns="http://www.w3.org/2000/svg" xmlns:xlink="http://www.w3.org/1999/xlink" x="0px" y="0px"
	 viewBox="0 0 661.87 864" style="enable-background:new 0 0 661.87 864;" xml:space="preserve">
<style type="text/css">
	.st0{fill:#FFFFFF;}
	.st1{fill:#5FA440;}
	.st2{fill:#A0C88D;}
	.st3{fill:#D9F1CB;}
	.st4{fill:#B4B0BC;}
	.st5{fill:#F6FAF8;}
	.st6{fill:#EBBF7A;}
	.st7{fill:#487C2D;}
	.st8{fill:#FF0000;}
	.st9{fill:#B2AE18;}
	.st10{fill:#FFFF2E;}
	.st11{fill:#F9E8B9;}
	.st12{fill:#8E8813;}
	.st13{fill:#CCAA19;}
	.st14{fill:#EDAACF;}
	.st15{fill:#CB336F;}
	.st16{fill:#998014;}
	.st17{fill:#163784;}
	.st18{fill:#C3E1F3;}
	.st19{fill:#3470B0;}
	.st20{fill:#FBFDFA;}
	.st21{fill:#E8E8E8;}
	.st22{fill:#3C3C3C;}
	.st23{fill:#133685;}
	.st24{fill:#112C63;}
	.st25{fill:#E59936;}
	.st26{fill:#E19A39;}
	.st27{fill:#EB5E55;}
	.st28{fill:#8C7752;}
	.st29{fill:#AF732B;}
	.st30{fill:#6772DB;}
	.st31{fill:#4F5CA8;}
	.st32{fill:#D13270;}
	.st33{fill:#DCDCDE;}
	.st34{font-family:'Roboto-Black';}
	.st35{font-size:12px;}
	.st36{fill:#CC4D4A;}
	.st37{fill:#25527A;}
	.st38{fill:#773E84;}
	.st39{fill:#773B85;}
	.st40{fill:#4D2756;}
</style>
<path class="st0" d="M34.05,847.74c0.14,0.14,0.28,0.28,0.42,0.42C34.33,848.02,34.19,847.88,34.05,847.74z"/>
<path class="st2" d="M577.04,809.22c-0.01,2.12-0.02,4.23-0.04,6.35C577.02,813.45,577.03,811.34,577.04,809.22z"/>
<path class="st3" d="M567.18,806.67c-0.85-1.11-1.71-2.22-2.56-3.33C565.47,804.46,566.33,805.56,567.18,806.67z"/>
<path class="st2" d="M583.7,828.69c0.39,1,0.79,2,1.18,3.01C584.49,830.69,584.1,829.69,583.7,828.69z"/>
<path class="st3" d="M576.03,825.74c-0.57-0.68-1.14-1.37-1.7-2.05C574.9,824.37,575.47,825.05,576.03,825.74z"/>
<path class="st3" d="M577.31,827.85c-0.42-0.7-0.85-1.41-1.27-2.11C576.46,826.44,576.88,827.15,577.31,827.85z"/>
<path class="st2" d="M548.83,778.74c0.09-0.42,0.17-0.84,0.26-1.25C549.01,777.91,548.92,778.33,548.83,778.74z"/>
<path class="st2" d="M624.29,766.94c-0.46,0.38-0.91,0.76-1.37,1.14C623.38,767.7,623.83,767.32,624.29,766.94z"/>
<path class="st2" d="M581.57,824.44c0.3,0.39,0.6,0.77,0.91,1.16C582.17,825.21,581.87,824.83,581.57,824.44z"/>
<path class="st2" d="M582.68,826.02c0.18,0.33,0.37,0.65,0.55,0.98C583.04,826.68,582.86,826.35,582.68,826.02z"/>
<path class="st2" d="M577.12,817.1c0.18,0.35,0.36,0.71,0.54,1.06C577.47,817.81,577.29,817.45,577.12,817.1z"/>
<path class="st2" d="M550.15,785.6c-0.22-0.33-0.44-0.66-0.65-0.99C549.71,784.93,549.93,785.26,550.15,785.6z"/>
<path class="st1" d="M549.12,767.32c-0.07-0.27-0.14-0.54-0.2-0.82c0.25,0.13,0.5,0.27,0.75,0.4
	C549.48,767.04,549.3,767.18,549.12,767.32z"/>
<path class="st3" d="M568.24,762.79c0.26,0.34,0.52,0.67,0.78,1.01C568.75,763.46,568.49,763.13,568.24,762.79z"/>
<path class="st2" d="M567.43,761.63c0.19,0.35,0.37,0.7,0.56,1.05C567.8,762.33,567.62,761.98,567.43,761.63z"/>
<path class="st2" d="M567.39,759.61c-0.03,0.31-0.06,0.63-0.09,0.94C567.33,760.24,567.36,759.92,567.39,759.61z"/>
<path class="st3" d="M567.96,758.84c-0.14,0.27-0.28,0.55-0.42,0.82C567.68,759.39,567.82,759.12,567.96,758.84z"/>
<path class="st2" d="M545.08,759.38c-0.25-0.31-0.49-0.63-0.74-0.94C544.59,758.75,544.84,759.06,545.08,759.38z"/>
<path class="st2" d="M568.94,757.23c-0.25,0.31-0.5,0.62-0.75,0.93C568.44,757.85,568.69,757.54,568.94,757.23z"/>
<path class="st2" d="M545.5,760.22c-0.11-0.17-0.22-0.34-0.33-0.51C545.28,759.88,545.39,760.05,545.5,760.22z"/>
<path class="st4" d="M214.6,411.19c-0.12-0.08-0.23-0.16-0.35-0.24C214.37,411.03,214.49,411.11,214.6,411.19z"/>
<path class="st32" d="M264.96,689.1L264.96,689.1L264.96,689.1L264.96,689.1z M223.81,508.63c0.03,0.03,0.05,0.06,0.08,0.09
	c0.08-0.21,0.21-0.36,0.36-0.51C224.12,508.33,223.98,508.45,223.81,508.63z M206.03,705.76L206.03,705.76h0.17H206.03z
	 M166.52,387.96l-0.11,0.12L166.52,387.96L166.52,387.96L166.52,387.96z"/>
<path class="st27" d="M277.79,597.99c-0.45-1.73-1.1-3.54-0.95-5.25c0.24-2.73-1.13-4.6-2.43-6.65c-0.47-0.73-0.77-1.57-1.08-2.39
	c-0.45-1.15-0.79-2.34-1.25-3.5c-0.56-1.4-0.65-2.52,0.97-3.34c0.45-0.23,0.76-1.09,0.8-1.68c0.14-2.34-0.35-4.61,0.89-6.97
	c0.75-1.44,0.92-3.54-0.48-5.32c-0.55-0.69-0.43-2.22-0.12-3.21c0.47-1.48,1.41-2.8,2.07-4.23c0.6-1.3-0.6-3.24-2.11-3.61
	c-1.85-0.47-3.58-1.13-4.11-3.28c-0.86-1.69-1.74-3.39-2.6-5.09c-2.11-0.22-3.39-1.34-3.75-3.44c-1.98-0.52-1.74-2.07-1.64-3.55
	c0-0.23-0.01-0.45-0.01-0.67c-1.42-1.01-2.84-2.01-4.25-3.03c-0.27-0.27-0.54-0.54-0.81-0.81c-0.4-0.22-1.04-0.35-1.16-0.67
	c-0.68-1.77-1.22-3.59-1.81-5.39c-1.05-1.57-1.9-3.33-3.2-4.64c-1-1.02-2.84-1.24-3.79-2.28c-0.84-0.91-1.11-2.45-1.34-3.75
	c-0.08-0.45,0.65-1.18,1.19-1.52c0.21-0.14,0.95,0.31,1.3,0.64c1.37,1.28,2.47,1.09,2.81-0.71c0.37-1.98,1.12-3.28,3.32-3.61
	c0.49-0.08,1.27-1.58,1.07-2.12c-0.36-0.98-1.28-2-2.62-0.91c-0.48,0.4-1.01,0.76-1.39,1.24c-0.99,1.24-3,1.77-4.39,0.85
	c-1.35-0.89-1.82-2.21-1.06-3.78v-1.04c-0.01-3.16,0-3.08-3.2-2.84c-1.35,0.11-2.94,0.08-2.71-2.08c0-0.14-0.04-0.27-0.1-0.4
	c-1.56-1-0.14-2.01,0.03-2.98c0.16-0.88,0.61-1.7,0.93-2.55c-2.83-0.11-4.71-2.19-4.63-5.16c0.03-0.11,0.03-0.21-0.01-0.31
	c-0.44-0.36-1.22-0.69-1.27-1.11c-0.24-2.13-0.55-4.32-0.27-6.42c0.09-0.74,1.79-1.27,2.9-1.98c-0.43-2.95-0.91-6.25-1.39-9.55
	v-0.01c-2.04,0.13-1.69-1.32-1.68-2.55v-0.01h-0.15c-1.39,0-2.12-0.78-2.38-2.12c-0.9-0.12-1.79-0.3-2.68-0.35
	c-0.88-0.03-1.77,0.08-2.45,0.11c-0.93,0.7-1.69,1.63-2.62,1.84c-0.67,0.15-2.1-0.55-2.21-1.08c-0.22-1.03-0.06-2.4,0.49-3.29
	c0.81-1.3,2.87-1.85,2.23-3.99l-0.14-0.04l-0.15,0.03c-1.35,0.05-1.45-0.87-1.38-1.85c0.09-1.46-0.06-2.62-1.92-2.86
	c-0.41-0.05-0.67-1.12-1-1.72c-0.03-0.52-0.07-1.04-0.1-1.56c-1.31-0.33-4.81-3.86-5.01-5.06c-0.47-2.78-1.94-4.24-4.77-4.72
	c-0.67,0.15-1.34,0.3-2.01,0.45c-1.23,1.41-3.14,1.57-4.27,0.38c-1.63-1.72-3.8-3.09-3.73-5.88c-2.42-0.73-0.96-2.7-1.22-4.09
	c-0.07-0.37,0.79-0.92,1.23-1.39c0.01-0.23,0.02-0.46,0.03-0.69c0.55-1.76,1.25-3.49,1.61-5.28c0.52-2.65,1.46-5,3-7.27
	c0.74-1.09,0.31-2.98,0.39-4.51c0.05-0.82-0.19-1.82,1.19-1.68l0.19,0.01c-1.3-0.87-2.6-1.74-3.89-2.62
	c-0.3-0.25-0.61-0.52-0.91-0.77c-0.11-0.06-0.21-0.13-0.3-0.22c-1.74-0.34-3.49-0.69-5.24-1.02c-1.63,0.02-3.25,0.03-4.88,0.04
	c-0.73-0.23-1.46-0.46-2.18-0.69c-0.42-0.02-0.85-0.03-1.29-0.04c-3.23,1.17-6.38,0.24-9.55-0.33c-0.85,0.22-1.68,0.44-2.8,0.73
	c-0.8-0.84-1.69-1.91-2.72-2.84c-0.85-0.76-1.78-1.58-2.83-1.99c-2.41-0.95-3.78-2.84-3.45-5.46c0.14-1.21,0.52-2.4,0.67-3.1
	c-0.3-1.43-0.52-2.45-0.74-3.46l-0.12,0.11l0.11-0.12c-1.36,0.29-2.3,0.19-1.39-1.57c-0.29-0.7-0.58-1.41-0.86-2.11
	c-0.38-0.43-0.76-0.86-1.14-1.3c-0.97,0.06-1.85,0.01-1.7-1.35l0.07-0.13c-2.56-0.09-3.36-0.76-3.36-3.12
	c-3.37,0-6.75-0.08-10.11,0.07c-0.76,0.04-1.88,0.78-2.15,1.46c-0.68,1.71-1.94,1.96-3.39,1.8c-1.86-0.21-3.7-0.62-5.54-0.95
	c-0.14-0.03-0.3-0.19-0.39-0.15c-2.56,1.04-3.12-1.63-4.74-2.56c-0.55,0.22-1.16,0.47-1.85,0.75c-0.3-1.8-0.47-3.49-0.9-5.1
	c-0.19-0.72-0.88-1.31-1.34-1.96c-0.53,0.56-1.45,1.08-1.52,1.7c-0.26,2.21-0.26,4.45-0.28,6.68c-0.01,0.36,0.34,0.89,0.66,1.03
	c2.2,0.96,2.44,2.81,2.15,4.79c3.61,1.19,4.14,2.68,2.45,6.24c-0.24,0.51-0.08,1.2-0.14,1.8c-0.09,0.94-0.2,1.88-0.35,2.81
	c-0.14,0.93-0.34,1.85-0.58,3.12c0.87-0.19,1.19-0.28,1.51-0.31c0.34-0.03,0.68-0.01,1.26-0.01c-0.06,0.64-0.03,1.19-0.19,1.68
	c-0.32,1.08-0.21,1.86,0.92,2.45c0.43,0.23,0.95,1.03,0.84,1.39c-0.14,0.48-0.9,1.13-1.34,1.09c-1.35-0.14-2.68-0.56-4.18-0.91
	c-0.74,0.47-1.9,1.2-3.43,2.16c-0.14,2.35-1.78,4.33-4.3,5.6c-0.43,0.22-1.19,0.15-1.65-0.08c-1.96-0.99-3.64,0-5.05,0.96
	c-1.07,0.73-1.54,2.23,0.14,3.18c-1.41,1.74-2.75,3.34-4.01,4.99c-0.99,1.31-0.45,3.54,1.11,4.01c1.63,0.5,1.39,1.43,1.13,2.61
	c-0.52,2.29-0.87,4.64-1.53,6.89c-0.41,1.41-1.24,2.68-2.02,4.33c0.21,0.14,0.93,0.59,1.65,1.06c0.17-0.22,0.34-0.43,0.51-0.64
	c0.05,0.04,0.09,0.08,0.14,0.14c-0.21,0.17-0.42,0.34-0.64,0.51c0.06,1.12,0.05,2.25,0.2,3.36c0.08,0.52,0.34,1.17,0.74,1.45
	c0.2,0.14,1.04-0.25,1.32-0.61c1-1.28,1.41-0.87,2.01,0.37c0.47,0.93,1.4,1.64,2.36,2.73c0.58-1.37,0.9-2.12,1.3-3.08
	c1.11,1.07,1.98,2.33,0.8,3.39c-1.81,1.63-0.79,3.25-0.31,4.73c1.02,3.2,3.28,5.26,6.67,5.82c1.63,0.28,2.45,1.13,2.72,2.75
	c0.08,0.52,0.61,0.98,1.28,1.98c0.19-1.1,0.28-1.6,0.36-2.1c0.28-1.66,1.5-2.05,2.92-2.18c1.36-0.13,2.58,0.01,2.78,1.74
	c0.27,2.26,0.52,4.53,0.85,7.31c0.41-0.75,0.68-1.36,1.06-1.89c0.51-0.69,1.1-1.33,1.65-2c0.38,0.76,1.11,1.53,1.08,2.29
	c-0.11,3.8-1.16,4.66-4.79,4.56c-0.53-0.02-1.41,0.68-1.57,1.22c-0.46,1.52-0.35,1.55-2.14,1.42c-0.16,1.82-0.32,3.65-0.48,5.47
	c0.15,0.08,0.3,0.17,0.44,0.25c0.34-0.34,0.63-0.74,1.02-0.99c0.4-0.25,0.89-0.36,1.33-0.52c0.05,0.56,0.36,1.41,0.11,1.65
	c-1.9,1.8-3.29,4.37-6.38,4.46c-0.34,0.39-0.68,0.78-1.02,1.17c1.61,0.36,0.98,1.4,0.43,2.01c-1.85,2.07-0.69,4.16-0.11,6.19
	c0.17,0.58,0.96,1.14,1.6,1.4c2.06,0.83,4.18,1.52,6.34,2.29c0.94-0.45,2.15-1.03,3.36-1.62c0.42-0.03,0.85-0.08,1.28-0.11
	c1.27-0.23,2.81-1.3,3.23,1.06l-0.06,0.13c1.79,0.07,3.95-0.47,5.27,0.36c1.83,1.13,4.3,0.34,5.71,2.32
	c0.29,0.41,1.12,0.43,1.7,0.63c1.06,0.37,2.11,0.74,3.16,1.11c2.09,0.2,2.52,0.85,1.75,2.62c-0.39,0.87-3.18,3.17-4.15,3.45
	c-0.46,0.14-0.89,0.36-1.31,0.54c0.47,3.4,0.15,3.74-2.78,5.42c-1.12,0.63-1.78,2.04-2.75,2.98c-0.5,0.48-1.23,1.01-1.85,1.01
	c-1.82,0.01-2.08,1.02-2,2.48c0.14,2.51,0.31,5.04,0.33,7.55c0.01,0.58-0.44,1.26-0.85,1.74c-1.43,1.65-1.3,4.43,0.14,6.07
	c1.03,1.17,2.03,0.92,3.2,0.47c1.82-0.7,2.48-0.34,2.16,1.57c-0.36,2.19-1.17,4.31-1.78,6.46c0.62,1.38,1.23,2.76,1.85,4.14
	c0.41,0.18,0.82,0.36,1.23,0.53c1.44,0.39,2.87,0.78,4.31,1.17c0.13,0.14,0.26,0.3,0.39,0.44c1.26,1.74,1.07,4.02-0.26,5.43
	c-0.42,0.45-0.47,1.27-0.63,1.94c-0.3,1.21-0.56,2.43-0.83,3.65c-0.42,0.49-0.75,1.26-1.28,1.44c-2.79,0.94-2.81,3.02-2.43,5.34
	c1.87,1.79,3.45,3.72,2.84,6.56c-0.08,0.36-0.59,0.62-0.91,0.92l-0.06,0.08c-0.08,0.17-0.16,0.34-0.25,0.51
	c0.27,2.39,0.55,4.77,0.82,7.17c2.83,2.09,2.12,6.61-1.32,8.38c-0.56,2.35,0.44,3.74,2.69,3.88c0.67,0.04,1.33,0.31,1.99,0.47
	c0.39-0.27,0.91-0.85,1.15-0.75c0.41,0.16,0.89,0.74,0.92,1.17c0.12,1.47-0.01,2.95,0.08,4.43c0.04,0.72,0.36,1.42,0.56,2.12
	c0.63-0.26,1.35-0.39,1.84-0.8c1.2-1.03,2.27-0.86,3.22-0.09c-0.38,1.89-0.69,3.62-1.08,5.34c-0.1,0.47-0.35,1.13-0.69,1.26
	c-2.18,0.79-1.57,2.61-1.8,4.22c-0.27,1.87-0.8,3.73-1.43,5.53c-0.43,1.22,0.17,1.58,1.02,2.12c1.98,1.24,1.85,3.15-0.23,4.38
	c0.57,0.39,1.13,0.79,1.7,1.18c0.49-0.04,0.99-0.06,1.47-0.14c0.62-0.1,1.23-0.25,1.85-0.39c-0.19,0.74-0.28,1.52-0.58,2.21
	c-0.3,0.69-0.74,1.37-1.3,1.88c-0.41,0.39-1.08,0.5-2.12,0.93c0.96,0.76,1.93,1.68,3.05,2.38c1.96,1.24,2.14,1.8,1.05,3.97
	c-0.15,0.29,0.01,1.07,0.1,1.09c0.58,0.08,1.23,0.14,1.76-0.06c0.61-0.21,1.12-0.69,1.67-1.05c0.12,0.15,0.25,0.3,0.36,0.46
	c-0.36,0.52-0.74,1.03-1.1,1.55c0.19-0.03,0.38-0.05,0.58-0.08c0.35,1.45,0.71,2.89,1.03,4.34c0.13,0.54,0.14,1.11,0.21,1.67
	c0.47-0.24,0.93-0.48,1.41-0.69c0.3-0.14,0.61-0.23,1.18-0.44v8.26h-3.57c-0.14,0.02-0.28,0.04-0.41,0.08
	c-0.25,1.19-0.62,2.37-0.71,3.56c-0.05,0.74,0.14,1.63,0.54,2.24c0.96,1.51,0.71,3.1-0.88,4.22c0.04,0.12,0.04,0.25,0.02,0.36
	c0.18,0.3,0.35,0.59,0.52,0.88c0.34,0.66,0.67,1.31,1,1.96c0.1,1.85,0.19,3.7,0.3,5.55c-0.11,0.17-0.22,0.34-0.34,0.5
	c-0.07,0.52-0.14,1.05-0.22,1.57c0.01,0.61,0.02,1.22,0.02,1.82c0.16,1.12,0.31,2.23,0.47,3.34c0.11,0.85,0.35,1.71,0.31,2.56
	c-0.05,1.13-0.31,2.27-0.48,3.4c0.6,1.68,1.2,3.38,1.8,5.06l0.11,0.02c0.33,0.84,1.05,1.75,0.91,2.5c-0.39,2.07-0.05,3.87,1.15,5.54
	l0.05,0.04c0.55,0.26,1.09,0.53,1.63,0.8c0.18,0.15,0.36,0.3,0.53,0.46c0.14,0.1,0.29,0.2,0.42,0.3c0.31,0.26,0.62,0.52,0.93,0.8
	c2-0.05,2.58-1.7,3.49-3.04c0.98-1.44,2.15-1.34,2.4,0.37c0.54,3.6,2.63,6.53,3.7,9.88c0.55,1.7,0.96,3.7-0.66,5.28
	c-0.37,0.65-0.75,1.3-1.13,1.96c0.09,0.28,0.31,0.59,0.26,0.85c-0.45,2.29,1.06,4.11,3.3,4.44c0.23,0.03,0.45,0.05,0.66,0.05
	c1.9,0,3.01-1.35,4.35-2.39c0.15-0.13,0.31-0.25,0.47-0.37h0.02c0.12-0.01,0.25-0.01,0.36-0.02c0.14,0.01,0.28,0.03,0.42,0.03
	c0.32-0.22,0.65-0.44,0.97-0.66l0.16-0.11c-0.09-0.6-0.19-1.2-0.29-1.79l-0.01-0.01c-0.46-0.19-0.92-0.39-1.39-0.58l-0.13-0.14
	c-0.32-0.49-1.03-1.15-0.91-1.44c0.84-1.89,1.86-3.69,2.83-5.53c0.05-0.24,0.11-0.48,0.16-0.73c0.75-1.99,0.14-3.77-0.8-5.53
	c-0.39-0.73-0.68-1.55-0.84-2.36c-0.36-1.75,0.14-2.11,1.87-1.66c0.52,0.14,1.16-0.15,1.75-0.25c0.02-0.14,0.03-0.28,0.05-0.42
	c-0.47-4.62,1.74-8.17,5.82-9.38c0.17-0.4,0.34-0.8,0.51-1.19c-0.47-2.22-1.02-4.43-1.37-6.66c-0.15-0.99,0.11-2.04,0.19-3.06
	c0.34-0.06,0.69-0.12,1.03-0.17c0.46,0.9,0.92,1.79,1.38,2.69c0.2,0.14,0.41,0.29,0.6,0.44c-0.12,0.12-0.24,0.24-0.36,0.36
	c0.1,0.25,0.2,0.5,0.3,0.75c0.48,1.19,0.96,2.4,1.45,3.59c0.07,0.37,0.14,0.75,0.19,1.13c0.01,0.75,0.01,1.51,0.02,2.27
	c-0.05,0.4-0.1,0.8-0.15,1.19c-0.25,0.71-0.49,1.41-0.74,2.12c-0.25,0.3-0.5,0.59-0.75,0.89c-0.08,0.28-0.17,0.57-0.25,0.85
	c-0.19,0.41-0.39,0.81-0.58,1.21c-0.08,0.97-0.14,1.95-0.22,2.91c0.02,0.73,0.03,1.46,0.05,2.18c0.01,2.11,0.03,4.22,0.03,6.31v1.3
	c0.12,0.22,0.23,0.42,0.35,0.64h0.17l-0.17,0.01c0.08,0.48,0.18,0.96,0.27,1.44c0.12,0.26,0.24,0.52,0.36,0.78
	c0.38,0.45,0.77,0.9,1.16,1.35c0.14,0.2,0.27,0.41,0.41,0.63c1.12-0.03,2.23-0.08,3.34-0.11c0.74-0.43,1.47-0.86,2.21-1.3l0.02-0.02
	c0.26-0.3,0.52-0.59,0.79-0.89c0.03-0.13,0.05-0.27,0.04-0.41c0.1-0.17,0.2-0.33,0.3-0.5l0.02-0.02c0.03-0.26,0.07-0.52,0.1-0.8
	c0.81-0.85,1.63-1.71,2.43-2.56c0.47-1.8,1.19-3.59,1.31-5.42c0.08-1.27-0.47-2.69-1.08-3.88c-1.08-2.11-0.7-3.73,1.3-5.17
	c0.59-0.42,1.04-1.25,1.25-1.99c0.39-1.37,0.74-2.45,2.56-2.45c2.19,0.01,1.99-2.18,2.73-3.48c-0.04-0.24-0.08-0.47-0.13-0.7
	c-0.21-0.82-0.42-1.64-0.63-2.46c-0.02-1.5-0.03-3-0.04-4.49c-1.41,0.52-2.65,2.1-4.36,0.62c0.17-1.58,0.46-3.24,0.47-4.91
	c0.01-0.58-0.52-1.29-1.01-1.73c-1.28-1.14-1.29-1.95,0.29-2.82c0.25,0.76,0.47,1.5,0.63,1.96c1.19-1.47,2.49-2.88,3.52-4.47
	c0.29-0.45-0.18-1.41-0.32-2.29c-1.46,0.83-2.44,1.38-3.42,1.94c-0.16-0.19-0.33-0.37-0.49-0.57c0.6-0.63,1.25-1.24,1.79-1.93
	c0.41-0.52,0.68-1.17,1.01-1.75c-0.62-0.2-1.27-0.65-1.84-0.56c-1.52,0.24-2.62-0.14-2.69-1.77c-0.13-2.85-0.29-5.74-0.01-8.57
	c0.28-2.78,0.09-3.86-2.28-5.03c0.63-1.61,1.28-3.26,1.92-4.92c0.14-2.16,0.1-4.36,0.51-6.48c0.19-1.02,1.24-1.88,1.85-2.74
	c2.99,1.16,4.57,4.88,3.94,8.72c-0.18,1.07-0.21,2.17-0.34,3.47c-1.96,0.57-1.7,2.59-1.15,3.83c0.59,1.35,2.18,2.26,3.43,3.26
	c0.1,0.08,1.21-0.63,1.25-1.03c0.13-1.07-0.03-2.18-0.15-3.26c-0.15-1.42-0.01-2.51,1.57-3.25c2-0.94,3.98-2.12,4.34-4.68
	c0-0.82,0.01-1.65,0.01-2.47c-0.11-0.58-0.47-1.57-0.3-1.67c2.28-1.36,1.59-3.82,2.18-5.77c3.41,0.58,4.31,1.93,3.76,5.11
	c-0.27,1.54-0.07,3.17-0.31,4.71c-0.15,1.02-1,1.95-1.06,2.95c-0.08,1.3,0.31,2.62,0.5,3.94c0.08,0.64,0.17,1.29,0.32,2.48
	c-1.1-0.77-1.73-1.2-2.58-1.79c-0.31,0.77-0.56,1.39-0.82,1.99c-0.27,0.63-0.57,1.24-0.83,1.81c0.14,0.21,0.23,0.41,0.3,0.41
	c2.62-0.06,3.78,0.47,2.92,3.72c-0.64,2.43,0.18,5.26,0.33,7.91c0.09,1.64-0.41,2.78-2.35,2.54c-0.06,0.07-0.08,0.14-0.07,0.23
	c-0.06,0.62,0.13,1.44-0.19,1.81c-1.53,1.75-1.07,3.71-0.71,5.6c0.25,1.26,0.13,2.18-1.02,2.91c-1.35,0.86-1.37,1.63,0.19,2.39
	c0.46,0.22,0.84,0.95,0.94,1.51c0.36,1.85,0.69,3.72,0.8,5.6c0.05,0.96-0.41,1.96-0.67,2.94c-0.14,0.52-0.32,1.04-0.51,1.55
	c-0.37,1.02-0.74,2.05-1.14,3.06c-0.2,0.52-0.69,1.02-0.68,1.51c0.12,3.01-1.9,3.47-4.42,3.55c0.27,1.79,0.52,3.43,0.8,5.31
	c1.16,0.21,1.24,1.02,0.85,2.4c-0.8,2.88,0.03,5.69,1.52,8.09c0.46,0.74,2.34,0.58,4.01,0.92c-0.28-1.49-0.46-2.41-0.55-2.92
	c-1.18-0.63-2.07-1.11-2.78-1.5c1.66-3.35,4.7-3.56,6.98-3.89c1.73,0.77,3.06,1.79,4.43,1.84c1.37,0.05,2.82-0.81,4.13-1.48
	c0.18-0.09-0.03-1.5-0.41-2.04c-1.02-1.43-2.25-2.74-3.84-1.93c-1.65-2.17-3.06-4.28-4.76-6.13c-0.74-0.8-1.24-1.25-0.91-2.45
	c0.7-2.55,1.21-5.15,1.71-7.75c0.11-0.57-0.14-1.19-0.22-1.79c0.19-0.14,0.37-0.27,0.55-0.41c0.5,0.63,1.01,1.25,1.51,1.88
	c0.41-0.07,0.84-0.13,1.25-0.19c0.1-0.18,0.2-0.51,0.28-0.51c1.78,0.17,3.83,4.17,2.84,5.6c-0.25,0.37-0.79,0.54-1.36,0.91
	c0.52,1.25,0.96,2.57,1.61,3.81c0.23,0.45,0.87,0.73,1.39,0.96c1.18,0.53,2.39,1.02,3.61,1.46c1.06,0.37,1.79,0.18,2.31-1.05
	c0.37-0.86,1.19-1.7,2.01-2.17c1.56-0.87,2.67-0.39,3.01,1.52c0.12,0.73,0.47,1.41,0.58,1.73c1.97-0.4,3.66-0.74,5.35-1.08
	l-0.03-0.03c0.47-0.96-1.71-3.11,1.3-2.92v-2.78c1.41-0.09,2.73-0.06,4-0.3c1.54-0.29,3.06-0.78,2.69-2.92
	c-0.74-0.27-1.5-0.54-2.51-0.91c-0.14,0.21-0.49,0.69-0.98,1.37c-0.29-0.49-0.74-0.92-0.68-1.23c0.59-2.58-0.43-4.43-2.31-6.09
	c-0.68-0.59-1.11-1.55,0.37-2.07c0.43-0.15,0.92-0.78,0.99-1.25c0.25-1.66,0.35-3.35,0.45-5.03c0.03-0.52-0.12-1.03-0.57-1.53
	c-0.03,0.35,0.05,0.78-0.13,1.02c-0.41,0.59-0.94,1.1-1.42,1.64c-0.25-0.65-0.91-1.5-0.7-1.91c0.72-1.4,1.02-2.34-0.8-3.12
	c-2.06-0.87-2.99,0.31-3.91,1.74c-0.25,0.38-0.43,0.8-0.66,1.23c-1.89-1.22-1.94-2.29-0.29-3.31c2.15-1.31,2.15-1.31-0.03-2.53
	c-0.1-0.06-0.13-0.24-0.34-0.64c1.38-0.74,2.38-2.12,4.42-1.19c1.09,0.48,2.47,0.38,3.72,0.44c0.32,0.02,0.91-0.35,0.96-0.6
	c0.06-0.38-0.15-0.93-0.44-1.22c-0.31-0.32-0.85-0.42-1.26-0.61c0.49-2.39,0.88-2.49,4.14-1.08c1.12-2.53-0.54-4.49-1.32-6.63
	c-0.12-0.32-0.51-0.74-0.41-0.91c1.12-2.16-0.66-3.51-1.34-5.17c-0.36-0.9-0.47-1.89-0.83-2.78c-0.32-0.8-0.98-1.5-1.19-2.31
	c-0.19-0.69,0.04-1.5,0.11-2.24c0.08-0.76,0.49-1.69,0.19-2.25c-1.32-2.52-0.93-3.23,2.08-3.29c0.19-0.4,0.37-0.8,0.56-1.2
	c-0.19-0.41-0.29-0.84-0.29-1.26c0-1.35,0.98-2.65,2.72-3.46c0-1.09,0.23-2.26-1.27-2.71c-0.24-0.07-0.25-0.85-0.47-1.68
	c2.26,1.01,3.31,0.41,3.46-1.61c-0.11-0.13-0.22-0.25-0.32-0.38c-0.18-0.14-0.36-0.3-0.53-0.44h0.04c-1.6-1.1-1.61-2.15-0.01-3.3
	l-0.03,0.01c0.17-0.14,0.34-0.3,0.51-0.44c0.1,0.03,0.21,0.03,0.31-0.02c0.3-0.58,0.44-1.38,0.91-1.68
	c1.63-1.03,1.86-2.41,1.49-4.14c-0.21-1.01-0.19-2.06-0.28-3.09c-2.34,0.05-3.24-0.64-3.34-2.58c-0.11-2.07,0.85-3.11,3.16-3.25
	c0.97-0.06,1.97-0.03,2.94,0.12C277.87,599.71,278.12,599.27,277.79,597.99z M214.39,639.72c-0.05-0.4-0.1-0.79-0.15-1.18
	c0.18-0.03,0.35-0.05,0.52-0.08c0.04,0.4,0.08,0.8,0.11,1.18C214.71,639.67,214.55,639.69,214.39,639.72z M224.24,508.22
	c-0.14,0.14-0.27,0.3-0.36,0.51c-0.03-0.03-0.05-0.06-0.08-0.09C223.98,508.45,224.12,508.33,224.24,508.22z M229.1,636.05
	c-0.33-0.47-0.97-0.99-0.9-1.36c0.11-0.55,0.74-1,1.16-1.49c0.36,0.4,0.71,0.8,1.29,1.44C229.99,635.24,229.54,635.65,229.1,636.05z
	 M232.07,633.85c-0.26-0.04-0.53-0.09-0.8-0.14c0.1-0.56,0.19-1.12,0.3-1.68c0.17,0.02,0.34,0.03,0.5,0.05V633.85z M234.56,623.27
	c-0.12-0.05-0.3-0.08-0.34-0.16c-0.03-0.08,0.08-0.23,0.14-0.35c0.12,0.05,0.3,0.08,0.33,0.16
	C234.72,623.01,234.61,623.15,234.56,623.27z M235.55,700.12c-0.52,0-1.04,0.04-1.55-0.04c-0.08-0.01-0.08-0.57-0.12-0.88h1.68
	C235.55,699.51,235.55,699.82,235.55,700.12z M238.87,697.63c0.08,0.21,0.17,0.43,0.25,0.64c-0.64,0.72-1.3,1.44-1.94,2.16
	c-0.27-0.08-0.54-0.16-0.81-0.25c0.1-0.8-0.04-1.79,0.39-2.31C237.09,697.48,238.14,697.69,238.87,697.63z M265.11,681.49
	c0.08-0.05,0.3,0.15,0.54,0.29c-0.2,0.17-0.32,0.36-0.47,0.37c-0.16,0.02-0.34-0.11-0.52-0.18
	C264.82,681.8,264.93,681.58,265.11,681.49z M261.4,665.05l0.36,0.15l-0.15,0.36c-0.12-0.05-0.3-0.08-0.34-0.16
	C261.23,665.31,261.35,665.17,261.4,665.05z M265.66,650.25c0.27-0.08,1.31,1.04,1.23,1.44c-0.14,0.66-0.83,1.4-1.47,1.68
	c-0.34,0.14-1.07-0.62-2.15-1.3C264.39,651.16,264.95,650.47,265.66,650.25z"/>
<path class="st27" d="M217.96,636.54c0.14-2.16,0.1-4.36,0.51-6.48c0.2-1.02,1.24-1.88,1.85-2.75c2.99,1.17,4.58,4.89,3.94,8.72
	c-0.18,1.07-0.22,2.17-0.34,3.47c-1.96,0.57-1.71,2.59-1.16,3.84c0.59,1.34,2.19,2.26,3.43,3.26c0.1,0.08,1.21-0.62,1.26-1.04
	c0.13-1.06-0.04-2.17-0.16-3.25c-0.15-1.42-0.01-2.51,1.56-3.25c2-0.94,3.98-2.12,4.34-4.68c0.68,1.33,0.73,2.56-0.45,3.69
	c-1.03,0.99-2,2.05-2.99,3.08c-0.27,1.54-0.64,3.07-0.74,4.61c-0.02,0.39,0.82,0.84,1.26,1.26c3.19,2.62,3.75,5.43,2.2,9.23
	c-0.61,1.5-0.67,3.22-0.98,4.85c-0.16,0.27-0.4,0.53-0.47,0.82c-0.72,3.1-1.4,6.21-2.1,9.31c-0.14,0.14-0.28,0.27-0.42,0.41
	c-0.75-0.12-1.5-0.23-2.25-0.35c-0.06-1.86-0.13-3.71-0.19-5.57c0.03-0.22,0.06-0.43,0.09-0.65c0.18-0.36,0.35-0.72,0.53-1.08
	c0.29-1.6,1.11-3.34,0.76-4.78c-0.73-2.98-2.08-5.8-3.17-8.69c-0.13-0.16-0.26-0.32-0.39-0.48c-0.13-0.39-0.25-0.78-0.38-1.17
	c-0.19-0.38-0.38-0.77-0.57-1.15c-0.06-0.18-0.11-0.36-0.17-0.53c-0.17-0.35-0.34-0.69-0.51-1.04c-0.33-1.37-0.66-2.75-0.99-4.12
	c0.36-1.81,0.64-3.65,1.1-5.43c0.74-2.88-0.05-5.45-2.45-6.49c0,1.11,0.09,2.05-0.02,2.96c-0.13,1.02-0.45,2.01-0.69,3.01
	c-0.38,0.18-0.75,0.36-1.13,0.55C218.07,636.64,217.96,636.54,217.96,636.54z"/>
<path class="st27" d="M235.19,660.47c-0.05,0.62,0.13,1.44-0.19,1.81c-1.53,1.75-1.07,3.7-0.7,5.6c0.24,1.26,0.12,2.17-1.02,2.91
	c-1.35,0.86-1.37,1.63,0.2,2.39c0.46,0.22,0.84,0.95,0.94,1.51c0.36,1.85,0.69,3.72,0.79,5.6c0.05,0.97-0.41,1.96-0.66,2.94
	c-0.14,0.53-0.32,1.04-0.51,1.55c-0.37,1.02-0.74,2.05-1.14,3.06c-0.2,0.51-0.69,1.01-0.67,1.5c0.11,3.01-1.91,3.47-4.42,3.55
	c0.27,1.79,0.52,3.43,0.8,5.3c1.16,0.22,1.25,1.02,0.86,2.4c-0.8,2.88,0.03,5.69,1.53,8.09c0.46,0.74,2.34,0.58,4.01,0.93
	c-0.28-1.5-0.46-2.42-0.55-2.93c-1.17-0.63-2.06-1.1-2.79-1.49c1.66-3.35,4.7-3.56,6.99-3.9c1.73,0.76,3.06,1.79,4.43,1.84
	c1.38,0.04,2.82-0.82,4.13-1.48c0.18-0.09-0.02-1.5-0.41-2.04c-1.03-1.44-2.25-2.74-3.84-1.93c-1.65-2.17-3.06-4.28-4.76-6.14
	c-0.73-0.8-1.24-1.25-0.91-2.45c0.7-2.55,1.21-5.15,1.71-7.74c0.11-0.56-0.14-1.19-0.22-1.79c0.18-0.13,0.37-0.27,0.55-0.4
	c0.5,0.63,1,1.25,1.5,1.88c-0.25,0.84-0.51,1.68-0.76,2.53c-0.06,0.12-0.09,0.25-0.09,0.39c-0.5,0.93-1.45,1.86-1.43,2.78
	c0.04,3.04,1.1,5.68,3.74,7.59c1.8,1.3,3.5,2.8,5.05,4.4c2.02,2.08,1.57,3.89-1.02,5.05c-0.74,0.33-1.42,0.8-2.13,1.2
	c-1.54-0.39-3.07-0.78-4.61-1.18c-0.89-0.4-1.77-1.07-2.68-1.12c-0.74-0.04-1.85,0.46-2.18,1.06c-0.31,0.57,0.02,1.65,0.35,2.38
	c0.39,0.87,1.09,1.6,1.65,2.38c-0.01,0.28-0.02,0.56-0.03,0.84c-2.36,3.55-6.62,1.6-7.5-1.47c-0.24-0.82-0.71-1.57-1.07-2.35
	c-0.46-2.97-0.62-5.96-1.91-8.82c-0.51-1.12,0.38-2.86,0.63-4.33c0.61-0.53,1.18-1.14,1.85-1.58c4.8-3.15,3.98-7.77,3.31-12.37
	c-0.04-0.27-0.09-0.54-0.13-0.81c-0.05-0.2-0.1-0.39-0.15-0.59c-0.16-0.34-0.32-0.68-0.48-1.03c-0.09-1.46-0.18-2.92-0.27-4.38
	c0.23-0.36,0.45-0.72,0.68-1.08c1.56-1.41,0.99-3.19,0.84-4.9c0.04-0.26,0.08-0.52,0.12-0.78
	C233.46,663.41,234.32,661.94,235.19,660.47z"/>
<path class="st27" d="M225.36,674.18c0.05,0.88,0.11,1.76,0.16,2.64c-0.06,0.26-0.13,0.52-0.19,0.77c-0.18,0.07-0.37,0.15-0.55,0.22
	c-0.01-1.49-0.03-2.99-0.04-4.48c0.12,0.03,0.24,0.04,0.37,0.04C225.2,673.64,225.28,673.91,225.36,674.18z"/>
<path class="st14" d="M195.95,714.01c-0.46-0.19-0.93-0.39-1.39-0.58C195.02,713.62,195.49,713.82,195.95,714.01z"/>
<path class="st14" d="M213.79,708.53c0.26-0.29,0.52-0.59,0.78-0.88C214.32,707.94,214.06,708.24,213.79,708.53z"/>
<polygon class="st4" points="206.03,705.76 206.2,705.76 206.03,705.76 "/>
<path class="st14" d="M214.62,707.24c0.1-0.16,0.2-0.33,0.3-0.49C214.82,706.91,214.72,707.07,214.62,707.24z"/>
<path class="st14" d="M231.7,677.03c0.05,0.2,0.1,0.39,0.15,0.59C231.8,677.42,231.75,677.23,231.7,677.03z"/>
<path class="st27" d="M271.64,683.1c-0.75-0.27-1.49-0.54-2.5-0.91c-0.15,0.21-0.49,0.69-0.99,1.37c-0.28-0.49-0.75-0.92-0.67-1.23
	c0.6-2.58-0.43-4.43-2.32-6.08c-0.68-0.6-1.11-1.56,0.38-2.07c0.43-0.15,0.92-0.78,0.99-1.25c0.25-1.66,0.35-3.35,0.45-5.03
	c0.03-0.51-0.12-1.03-0.57-1.53c-0.03,0.35,0.05,0.78-0.12,1.03c-0.41,0.59-0.94,1.1-1.42,1.64c-0.26-0.65-0.91-1.5-0.7-1.91
	c0.72-1.4,1.02-2.35-0.81-3.13c-2.05-0.87-2.99,0.31-3.9,1.73c-0.25,0.38-0.44,0.81-0.66,1.23c-1.89-1.21-1.94-2.29-0.29-3.3
	c2.15-1.32,2.15-1.31-0.03-2.54c-0.1-0.06-0.13-0.24-0.34-0.64c1.38-0.74,2.37-2.11,4.42-1.19c1.09,0.49,2.47,0.39,3.72,0.44
	c0.33,0.01,0.92-0.34,0.96-0.6c0.06-0.39-0.15-0.93-0.44-1.22c-0.31-0.32-0.84-0.42-1.26-0.61c0.49-2.39,0.88-2.48,4.14-1.08
	c1.12-2.53-0.54-4.49-1.32-6.63c-0.12-0.32-0.51-0.73-0.42-0.91c1.12-2.16-0.66-3.51-1.34-5.17c-0.36-0.89-0.48-1.89-0.83-2.78
	c-0.32-0.8-0.98-1.5-1.19-2.32c-0.18-0.69,0.05-1.49,0.11-2.24c0.07-0.76,0.49-1.69,0.19-2.25c-1.32-2.52-0.93-3.22,2.08-3.29
	c-0.08,0.61-0.17,1.22-0.23,1.83c-0.3,3.25-0.54,6.49,1.87,9.18c0.33,0.98,0.67,1.97,1,2.95c0.35,1.71,0.7,3.42,1.05,5.13
	c0.06,0.27,0.12,0.53,0.18,0.8c0,0.14-0.01,0.28-0.01,0.41c0,0.14,0,0.28-0.01,0.43c0,1.69,0.01,3.38,0.01,5.08
	c-0.09,0.43-0.18,0.85-0.27,1.28c-0.09,0.15-0.18,0.29-0.27,0.44c-0.25,0.54-0.49,1.08-0.74,1.62c-0.15,0.18-0.29,0.35-0.44,0.53
	c-0.23,0.15-0.46,0.3-0.7,0.45c-0.75,0.26-1.49,0.52-2.24,0.79c-0.29-0.01-0.58-0.01-0.86-0.02c-1.39-1.33-2.85-2.01-4.75,0.12
	c2.15,0.8,4.29,1.6,6.44,2.4c0.02,0.13,0.05,0.26,0.09,0.38c0.33,0.73,0.67,1.46,1,2.19c0.08,0.39,0.16,0.77,0.23,1.16
	c-0.02,1.01-0.05,2.02-0.07,3.02c0,0-0.04,0.01-0.04,0.01c-0.16,0.57-0.32,1.15-0.49,1.72c-0.07,0.43-0.15,0.86-0.22,1.28
	c0.07,0.57,0.14,1.14,0.21,1.71c0.02,0.14,0.05,0.27,0.1,0.39c0,0.28-0.01,0.56-0.01,0.83c0.14,0.27,0.28,0.54,0.41,0.81
	c0,0,0.05,0.03,0.05,0.03c0.37,0.69,0.68,1.41,1.12,2.05c0.76,1.13,1.6,2.21,2.4,3.31L271.64,683.1z"/>
<path class="st27" d="M266.63,688.73c-0.56,0.13-1.11,0.25-1.67,0.38c0-0.9,0-1.81,0-2.79c1.4-0.09,2.72-0.06,4-0.3
	c1.54-0.29,3.06-0.78,2.68-2.92c0,0,0.13-0.14,0.13-0.14c0.21,0.05,0.43,0.1,0.64,0.15c0.78,2.18-0.2,3.75-2.39,4.23
	C268.85,687.6,267.76,688.25,266.63,688.73z"/>
<path class="st27" d="M166.97,690.14c-0.02-0.23-0.04-0.46-0.06-0.69c-0.47-0.98-0.93-1.96-1.4-2.95c0,0,0-0.02,0-0.02
	c-0.1-0.17-0.21-0.34-0.31-0.51c-0.16-0.52-0.41-1.03-0.44-1.55c-0.04-0.68-0.13-1.71,0.24-1.97c0.51-0.36,1.42-0.14,2.16-0.17
	c0.56,1.33,1.23,2.63,1.66,4c0.71,2.29,1.27,4.64,1.9,6.96c0,0.15,0,0.3-0.01,0.45c-0.65,1.66-1.96,3.31-0.1,5.03
	c0,0,0.03,0.04,0.03,0.04c0.41,0.27,0.82,0.55,1.22,0.82c0.2,0.05,0.41,0.11,0.62,0.16c0.79,0.2,1.57,0.4,2.36,0.61
	c0.3,0.17,0.61,0.34,0.91,0.51c0.4,0.42,0.8,0.83,1.2,1.25c1.63,2.57,1.7,4.98,0.17,6.39c-1.41,1.3-3.12,0.94-4.04-0.76
	c-0.94-1.74-1.99-3.41-2.99-5.11c-0.74-0.67-1.39-1.53-2.24-1.98c-1.73-0.92-1.84-2.23-1.34-3.85c0.14-0.45,0.24-0.92,0.35-1.38
	c0.04-0.38,0.09-0.76,0.13-1.14C167.95,692.89,168.02,691.51,166.97,690.14z"/>
<path class="st27" d="M162.74,626.04c0.49-0.04,0.98-0.06,1.47-0.14c0.62-0.1,1.23-0.26,1.85-0.39c-0.18,0.74-0.27,1.52-0.58,2.21
	c-0.31,0.69-0.75,1.37-1.29,1.89c-0.41,0.39-1.08,0.5-2.12,0.93c0.95,0.75,1.93,1.67,3.04,2.38c1.97,1.24,2.14,1.8,1.05,3.97
	c-0.15,0.29,0.01,1.08,0.1,1.09c0.58,0.08,1.23,0.14,1.77-0.05c0.6-0.21,1.11-0.69,1.66-1.05c0.12,0.15,0.25,0.3,0.37,0.45
	c-0.37,0.52-0.74,1.03-1.11,1.55c0.19-0.02,0.39-0.05,0.58-0.07c0.35,1.45,0.71,2.89,1.04,4.34c0.12,0.54,0.14,1.11,0.21,1.67
	c0.47-0.23,0.93-0.48,1.41-0.69c0.3-0.14,0.61-0.23,1.18-0.44c0,2.72,0,5.24,0,8.26c-1.18,0-2.38,0-3.57,0
	c1.52-1.25,2.09-2.84,1.27-4.66c-0.49-1.09-1.32-2.04-2-3.05c0.17-1.71-0.62-2.9-1.94-3.9c-1.09-0.82-2.12-1.6-2.13-3.32
	c0-0.77-1.14-1.59-1.88-2.27c-0.52-0.48-1.22-0.77-1.84-1.14c-0.39-1.75-1.42-3.53,0.99-4.85
	C162.77,628.48,162.6,626.98,162.74,626.04z"/>
<path class="st27" d="M169.37,652.01c-0.25,1.19-0.62,2.37-0.71,3.57c-0.05,0.74,0.14,1.62,0.54,2.24c0.97,1.5,0.72,3.1-0.87,4.22
	c-0.1-0.01-0.21,0-0.31,0.03c0,0-0.07-0.08-0.07-0.08c-0.68-1.27-1.36-2.53-2.04-3.8c0-0.31-0.01-0.62-0.01-0.93
	c0.42-0.71,0.85-1.43,1.27-2.14c0.29-0.42,0.58-0.85,0.87-1.27C168.49,653.24,168.93,652.63,169.37,652.01z"/>
<path class="st14" d="M165.52,686.51c0.47,0.98,0.93,1.96,1.4,2.95C166.45,688.47,165.98,687.49,165.52,686.51z"/>
<path class="st14" d="M168.86,663.29c0.33,0.65,0.67,1.31,1,1.96C169.53,664.6,169.2,663.95,168.86,663.29z"/>
<path class="st21" d="M174.84,700.34c-0.79-0.2-1.57-0.4-2.36-0.61C173.27,699.94,174.05,700.14,174.84,700.34z"/>
<path class="st14" d="M169.6,672.87c0.01,0.61,0.01,1.21,0.02,1.82C169.61,674.09,169.6,673.48,169.6,672.87z"/>
<path class="st14" d="M173.95,697.16c0.54,0.27,1.09,0.54,1.63,0.8C175.04,697.7,174.49,697.43,173.95,697.16z"/>
<path class="st21" d="M176.96,702.1c-0.4-0.42-0.8-0.83-1.2-1.25C176.15,701.27,176.55,701.69,176.96,702.1z"/>
<path class="st21" d="M171.87,699.58c-0.41-0.27-0.82-0.55-1.22-0.82C171.05,699.03,171.46,699.3,171.87,699.58z"/>
<path class="st21" d="M176.11,698.43c0.14,0.1,0.29,0.21,0.43,0.31C176.4,698.63,176.26,698.53,176.11,698.43z"/>
<path class="st14" d="M165.2,685.98c0.1,0.17,0.21,0.34,0.31,0.51C165.41,686.32,165.3,686.15,165.2,685.98z"/>
<path class="st14" d="M170.16,670.81c-0.11,0.17-0.22,0.33-0.34,0.5C169.93,671.14,170.04,670.98,170.16,670.81z"/>
<path class="st27" d="M160.98,504.15c-0.39,0.87-3.18,3.17-4.15,3.45c-0.46,0.14-0.89,0.36-1.31,0.54c0.47,3.4,0.15,3.74-2.78,5.42
	c-1.12,0.63-1.78,2.04-2.75,2.98c-0.5,0.48-1.23,1.01-1.85,1.01c-1.82,0.01-2.08,1.02-2,2.48c0.14,2.51,0.31,5.04,0.33,7.55
	c0.01,0.58-0.44,1.26-0.85,1.74c-1.43,1.65-1.3,4.43,0.14,6.07c1.03,1.17,2.03,0.92,3.2,0.47c1.82-0.7,2.48-0.34,2.16,1.57
	c-0.36,2.19-1.17,4.31-1.78,6.46c-0.25-1.01-0.63-2.01-0.72-3.02c-0.14-1.79-0.8-3.07-2.64-3.54c-0.29-0.13-0.58-0.25-0.86-0.37
	c-2.41-2.48-2.39-5.27-1.03-8.23c0.14-0.3,0.17-0.64,0.25-0.96c0.17-2.74,0.41-5.47,0.49-8.21c0.06-1.85,1.24-2.96,2.59-3.57
	c2.49-1.12,3.79-2.81,3.82-5.52c0.52-0.74,1.03-1.48,1.55-2.22c0.14-0.17,0.29-0.34,0.43-0.51c0.78-0.39,1.52-0.95,2.34-1.13
	c2.78-0.62,3.57-2.58,3.68-5.08C161.32,501.73,161.75,502.39,160.98,504.15z"/>
<path class="st27" d="M157.49,595.95c0.39-0.27,0.9-0.85,1.15-0.75c0.41,0.16,0.89,0.73,0.93,1.17c0.12,1.47-0.01,2.96,0.08,4.43
	c0.04,0.72,0.37,1.41,0.56,2.12c0.62-0.26,1.35-0.39,1.84-0.81c1.2-1.03,2.26-0.86,3.21-0.09c-0.37,1.89-0.69,3.62-1.08,5.35
	c-0.1,0.46-0.34,1.13-0.68,1.26c-2.18,0.79-1.57,2.6-1.81,4.22c-0.27,1.87-0.8,3.73-1.43,5.53c-0.43,1.22,0.17,1.58,1.02,2.12
	c1.98,1.24,1.85,3.16-0.23,4.39c-0.91-0.18-1.81-0.36-2.72-0.53c0,0-0.03-0.03-0.03-0.03c0.12-1.86,0.23-3.73,0.35-5.59
	c1.31-1.49,1.44-3.03,0.19-4.63c0.33-1.24,0.44-2.59,1.04-3.68c1.47-2.68,1.84-4.96,0.37-5.86c-1.48-0.91-1.51-2.1-1.63-3.56
	c-0.11-1.44-0.7-2.83-1.07-4.25C157.52,596.46,157.5,596.21,157.49,595.95z"/>
<path class="st27" d="M127.31,485.77c1.6,0.35,0.98,1.39,0.43,2.01c-1.85,2.07-0.69,4.16-0.11,6.19c0.17,0.58,0.96,1.14,1.6,1.4
	c2.06,0.83,4.18,1.52,6.34,2.28c0.94-0.45,2.15-1.03,3.36-1.61c-0.46,0.49-0.99,0.93-1.38,1.47c-1.58,2.19-2.33,2.22-4.5,0.63
	c-0.91-0.66-2.14-0.96-3.28-1.21c-0.86-0.19-1.8-0.06-2.7-0.07l0,0c-0.18-0.41-0.37-0.83-0.55-1.24c-0.1-0.29-0.2-0.58-0.3-0.87
	c-0.02-0.29-0.03-0.58-0.05-0.86c-0.31-0.68-0.61-1.36-0.92-2.04c0.04-1.71,0.07-3.43,0.11-5.14c0,0,0,0,0,0
	c0.28-0.28,0.56-0.56,0.84-0.85l0,0C126.58,485.83,126.94,485.8,127.31,485.77z"/>
<path class="st27" d="M156.07,500.42c-0.64,0.41-1.28,0.84-1.92,1.25c-0.26,0.03-0.53,0.08-0.8,0.11c-0.75-0.34-1.51-0.68-2.26-1.02
	l-0.03-0.03c-0.23-0.33-0.46-0.66-0.69-0.99c-0.96-0.2-1.91-0.5-2.89-0.59c-0.74-0.07-1.5,0.11-2.24,0.18
	c-0.27-0.13-0.55-0.25-0.82-0.39c-0.35-0.62-0.7-1.23-1.05-1.84c1.79,0.07,3.95-0.47,5.27,0.36c1.83,1.13,4.3,0.34,5.71,2.32
	C154.66,500.2,155.49,500.23,156.07,500.42z"/>
<path class="st14" d="M152.77,508.25c-0.52,0.74-1.03,1.48-1.55,2.22C151.74,509.73,152.25,508.99,152.77,508.25z"/>
<path class="st14" d="M126.52,495.62c0.18,0.41,0.37,0.83,0.55,1.24C126.89,496.45,126.7,496.04,126.52,495.62z"/>
<path class="st14" d="M150.39,499.75c0.23,0.33,0.46,0.66,0.68,0.99C150.84,500.41,150.61,500.08,150.39,499.75z"/>
<path class="st14" d="M144.43,498.95c0.27,0.13,0.55,0.26,0.82,0.38C144.98,499.21,144.71,499.08,144.43,498.95z"/>
<path class="st14" d="M126.21,485.86c-0.28,0.28-0.56,0.56-0.84,0.85C125.65,486.43,125.93,486.14,126.21,485.86z"/>
<path class="st27" d="M161.49,381.51c-2.57-0.09-3.36-0.76-3.36-3.11c-3.37,0-6.75-0.09-10.11,0.07c-0.76,0.04-1.88,0.77-2.15,1.46
	c-0.67,1.71-1.94,1.96-3.39,1.8c-1.86-0.2-3.7-0.62-5.54-0.95c-0.13-0.02-0.29-0.19-0.38-0.15c-2.56,1.04-3.13-1.62-4.74-2.56
	c-0.55,0.22-1.16,0.47-1.86,0.76c-0.3-1.81-0.48-3.49-0.9-5.1c-0.19-0.72-0.88-1.31-1.34-1.96c-0.53,0.56-1.44,1.08-1.51,1.7
	c-0.26,2.21-0.26,4.45-0.28,6.68c0,0.35,0.35,0.89,0.67,1.03c2.2,0.96,2.43,2.81,2.14,4.8c3.61,1.19,4.14,2.68,2.46,6.24
	c-0.24,0.51-0.08,1.2-0.14,1.81c-0.1,0.94-0.2,1.88-0.35,2.81c-0.14,0.93-0.34,1.84-0.58,3.11c0.87-0.18,1.19-0.28,1.51-0.31
	c0.34-0.03,0.68-0.01,1.27-0.01c-0.06,0.64-0.04,1.18-0.19,1.67c-0.33,1.08-0.22,1.86,0.91,2.45c0.44,0.23,0.95,1.03,0.84,1.39
	c-0.15,0.48-0.9,1.13-1.34,1.09c-1.36-0.13-2.69-0.56-4.18-0.9c-0.75,0.47-1.9,1.2-3.43,2.16c-0.14,2.35-1.78,4.33-4.3,5.59
	c-0.44,0.22-1.19,0.15-1.65-0.08c-1.96-0.99-3.65,0-5.05,0.96c-1.07,0.72-1.54,2.23,0.14,3.18c-1.4,1.74-2.75,3.33-4.01,5
	c-0.99,1.31-0.45,3.54,1.11,4.01c1.62,0.5,1.39,1.43,1.12,2.6c-0.53,2.29-0.87,4.64-1.52,6.89c-0.41,1.4-1.24,2.68-2.03,4.32
	c0.21,0.13,0.93,0.6,1.65,1.06l0,0c0.06,1.12,0.05,2.25,0.2,3.36c0.07,0.52,0.34,1.17,0.73,1.45c0.21,0.15,1.04-0.25,1.32-0.61
	c1-1.28,1.4-0.87,2.02,0.37c0.47,0.94,1.39,1.64,2.35,2.72c0.58-1.36,0.9-2.12,1.31-3.08c1.11,1.06,1.98,2.33,0.8,3.39
	c-1.81,1.63-0.79,3.25-0.32,4.74c1.02,3.2,3.29,5.25,6.67,5.83c1.62,0.28,2.45,1.13,2.72,2.75c0.09,0.53,0.61,0.98,1.28,1.98
	c0.19-1.11,0.28-1.6,0.37-2.1c0.28-1.66,1.5-2.05,2.92-2.18c1.37-0.13,2.58,0.01,2.79,1.74c0.27,2.26,0.52,4.53,0.84,7.3
	c0.42-0.75,0.68-1.36,1.06-1.88c0.5-0.7,1.1-1.33,1.65-2c0.38,0.76,1.1,1.53,1.08,2.28c-0.12,3.81-1.16,4.66-4.79,4.56
	c-0.53-0.01-1.41,0.69-1.58,1.22c-0.46,1.51-0.34,1.55-2.14,1.42c-0.16,1.83-0.32,3.65-0.48,5.48c0.15,0.08,0.29,0.17,0.44,0.25
	c0.34-0.34,0.63-0.74,1.02-0.99c0.39-0.25,0.88-0.35,1.33-0.52c0.05,0.56,0.36,1.4,0.1,1.65c-1.89,1.81-3.29,4.37-6.38,4.47
	c0.03-0.29,0.07-0.59,0.1-0.88c0.11-0.14,0.21-0.27,0.32-0.41c0.01-0.32,0.01-0.64,0.02-0.95c0,0,0.16-0.12,0.16-0.12l-0.11-0.16
	c-0.01-0.15-0.02-0.29-0.03-0.44c0.06-0.11,0.11-0.23,0.15-0.35c0.34-0.33,0.74-0.62,1-1.01c1.46-2.19,1.33-4.66,1.22-7.13
	c0.05-0.14,0.09-0.27,0.14-0.41c0.42-0.43,0.83-0.85,1.25-1.28c0,0,0.01-0.01,0.01-0.01c0.28-0.42,0.56-0.84,0.84-1.26
	c0,0,0.01-0.01,0.01-0.01c0.28-0.42,0.56-0.84,0.84-1.26c0,0,0-0.01,0-0.01c1.69-1.81,1.71-4.85,0.05-7.19c0,0,0-0.01,0-0.01
	c-0.63-0.26-1.42-0.89-1.84-0.7c-0.63,0.29-1.04,1.12-1.46,1.78c-0.37,0.58-0.63,1.24-0.93,1.86c-0.72-0.61-1.5-1.17-2.15-1.85
	c-0.51-0.53-0.87-1.21-1.29-1.83c-4.49-0.55-7.13-3.35-8.86-7.26c-0.11-0.16-0.23-0.32-0.34-0.48c0,0,0-0.01,0-0.01
	c-0.01-0.91-0.01-1.82-0.03-2.74c-0.06-1.94-1.46-2.93-3.38-2.38c-0.47,0.13-0.91,0.36-1.38,0.45c-2.02,0.41-3.11-0.55-2.96-2.61
	c0.06-0.82,0.23-1.64,0.35-2.46c0-0.24,0-0.48,0-0.71c-0.4-0.36-0.8-0.72-1.2-1.07c-0.26-0.03-0.52-0.06-0.78-0.09
	c-0.33-0.33-0.66-0.66-1-0.99c-0.01-0.29-0.02-0.57-0.03-0.86c0-0.44,0-0.88,0-1.32c0-0.29,0.01-0.57,0.01-0.86
	c0.26-0.73,0.52-1.45,0.79-2.18c0.21-1.23,0.42-2.46,0.64-3.69c0.69-2.47,1.66-4.82,0.7-7.56c-0.38-1.09,0.38-2.59,0.62-3.9
	c0.42-0.43,0.84-0.85,1.26-1.28c0.13-0.02,0.24-0.07,0.35-0.15c0.16-0.24,0.31-0.47,0.46-0.71c0.05-0.12,0.08-0.25,0.08-0.39
	c0.02-0.29,0.04-0.59,0.06-0.88c-0.01-1.24-0.02-2.48-0.04-3.73c0.14-0.61,0.29-1.23,0.43-1.84c0.12-0.2,0.23-0.4,0.35-0.6
	c0.14-0.05,0.28-0.11,0.43-0.16c1.18,0.24,2.4,0.38,3.54,0.76c1.54,0.51,2.91,0.58,4.08-0.72c0,0,0.02-0.02,0.02-0.02
	c0.44-0.4,0.87-0.81,1.31-1.21c0.27-0.43,0.55-0.86,0.82-1.28c1.59-2.09,3.16-4.2,6.04-4.6c0.08-0.01,0.12-0.38,0.18-0.58
	c0.56-1.35,0.02-2.55-0.25-3.89c-0.49-2.47-0.34-5.06-0.36-7.61c0-0.24,0.73-0.48,1.12-0.72c0.42-0.73,1.35-1.81,1.14-2.12
	c-0.53-0.79-1.57-1.23-1.99-1.52c-0.79-1.48-1.38-2.72-2.1-3.88c-0.59-0.94-1.36-1.76-2.04-2.64c0-1.55-0.01-3.11-0.01-4.66
	c-0.02-0.84-0.03-1.68-0.05-2.53c-0.18-0.39-0.36-0.79-0.53-1.18c0.05-0.46,0.1-0.92,0.15-1.38c0.09-0.3,0.18-0.59,0.27-0.89
	c0.99-1.63,2.16-1.55,3.44-0.36c0.75,1.44,1.57,2.86,2.23,4.34c1.44,3.25,3.83,5.15,7.41,5.47c1.02,0.19,2.03,0.38,3.04,0.57
	c0.41-0.07,0.82-0.14,1.23-0.21c0.35-0.11,0.7-0.23,1.05-0.35c0.53-0.17,1.07-0.34,1.6-0.51c0,0,0.09,0.08,0.09,0.08l-0.04-0.12
	c0.5-0.25,1-0.49,1.5-0.74c0.13-0.05,0.26-0.1,0.38-0.16c1.1-0.26,2.19-0.57,3.3-0.76c0.75-0.13,1.52-0.1,2.28-0.14
	c1.28-0.29,2.56-0.58,3.84-0.87c0.44,0,0.88-0.01,1.32-0.01c0.44,0.28,0.88,0.57,1.32,0.85c0.16,0.17,0.31,0.34,0.47,0.51
	c0.65,0.88,1.31,1.76,1.96,2.65c0.14,0.13,0.28,0.27,0.43,0.4C161.35,380.84,161.42,381.17,161.49,381.51z"/>
<path class="st33" d="M122.06,409.33c-0.44,0.4-0.87,0.81-1.31,1.21C121.19,410.14,121.62,409.74,122.06,409.33z"/>
<path class="st14" d="M111.93,416.86c-0.02,0.29-0.04,0.59-0.06,0.88C111.89,417.45,111.91,417.15,111.93,416.86z"/>
<path class="st14" d="M124.44,369.86c-0.09,0.3-0.18,0.59-0.27,0.89C124.26,370.46,124.35,370.16,124.44,369.86z"/>
<path class="st14" d="M111.79,418.13c-0.15,0.24-0.31,0.47-0.46,0.71C111.48,418.6,111.63,418.36,111.79,418.13z"/>
<path class="st14" d="M117.39,453.23c0.11,0.16,0.23,0.32,0.34,0.48C117.62,453.56,117.5,453.39,117.39,453.23z"/>
<path class="st14" d="M132.53,471.46c-0.42,0.43-0.83,0.85-1.25,1.28C131.7,472.31,132.11,471.89,132.53,471.46z"/>
<path class="st14" d="M133.37,470.19c-0.28,0.42-0.56,0.84-0.84,1.26C132.82,471.03,133.09,470.61,133.37,470.19z"/>
<path class="st14" d="M134.22,468.92c-0.28,0.42-0.56,0.84-0.84,1.26C133.66,469.76,133.94,469.34,134.22,468.92z"/>
<path class="st14" d="M107.77,435.41c-0.26,0.73-0.52,1.45-0.79,2.18C107.25,436.86,107.51,436.13,107.77,435.41z"/>
<path class="st14" d="M108.79,441.71c0.4,0.36,0.8,0.72,1.2,1.07C109.58,442.42,109.18,442.06,108.79,441.71z"/>
<path class="st14" d="M107,440.62c0.33,0.33,0.67,0.66,1,0.99C107.67,441.28,107.34,440.95,107,440.62z"/>
<path class="st4" d="M128.81,482.08l0.11,0.16c0,0-0.16,0.12-0.16,0.12C128.77,482.27,128.79,482.18,128.81,482.08z"/>
<path class="st32" d="M128.75,483.32c-0.11,0.14-0.21,0.27-0.32,0.41C128.54,483.59,128.64,483.45,128.75,483.32z"/>
<path class="st14" d="M194.32,716.57c0.12-0.01,0.24-0.01,0.36-0.02c0,0-0.18,0.05-0.18,0.05L194.32,716.57z"/>
<path class="st14" d="M193.84,716.94c0.15-0.12,0.31-0.24,0.46-0.37C194.15,716.69,194,716.82,193.84,716.94z"/>
<path class="st27" d="M178.4,404.09c-0.84,0.22-1.69,0.44-2.8,0.72c-0.8-0.84-1.69-1.91-2.72-2.83c-0.85-0.77-1.78-1.58-2.82-1.99
	c-2.42-0.95-3.78-2.84-3.46-5.46c0.15-1.21,0.52-2.4,0.67-3.09c-0.31-1.44-0.53-2.46-0.75-3.48c0.4,0.32,0.79,0.64,1.19,0.96
	c0.3,0.57,0.61,1.14,0.91,1.71c0,0.3,0,0.6,0,0.89c-0.32,1.21-0.89,2.42-0.89,3.62c0,0.93,0.72,1.86,1.11,2.79
	c2.12,1.39,4.25,2.78,6.38,4.17C176.28,402.76,177.34,403.42,178.4,404.09z"/>
<path class="st14" d="M160.85,380.1c-0.65-0.88-1.31-1.76-1.96-2.65C159.55,378.34,160.2,379.22,160.85,380.1z"/>
<path class="st27" d="M166.53,387.96c-1.37,0.29-2.32,0.19-1.41-1.57C165.59,386.91,166.06,387.44,166.53,387.96z"/>
<path class="st14" d="M191.42,405.14c-0.73-0.23-1.45-0.46-2.18-0.69C189.97,404.69,190.69,404.91,191.42,405.14z"/>
<path class="st14" d="M168.62,390.62c-0.3-0.57-0.61-1.14-0.91-1.71C168.02,389.48,168.32,390.05,168.62,390.62z"/>
<path class="st14" d="M158.43,376.94c-0.44-0.28-0.88-0.57-1.32-0.85C157.55,376.38,157.99,376.66,158.43,376.94z"/>
<path class="st14" d="M202.76,407.12c-0.3-0.26-0.61-0.52-0.91-0.78C202.15,406.6,202.45,406.86,202.76,407.12z"/>
<path class="st14" d="M140.56,379.87c-1.01-0.19-2.03-0.38-3.04-0.57C138.53,379.5,139.54,379.69,140.56,379.87z"/>
<path class="st14" d="M142.84,379.32c-0.35,0.12-0.7,0.23-1.05,0.35C142.14,379.55,142.49,379.43,142.84,379.32z"/>
<polygon class="st14" points="144.49,378.77 144.53,378.89 144.44,378.8 "/>
<path class="st27" d="M237,627.77c-0.42,0.25-0.95,0.42-1.25,0.78c-0.89,1.08-1.7,2.23-2.53,3.36c-0.12-0.58-0.48-1.57-0.31-1.67
	c2.28-1.36,1.6-3.82,2.18-5.78c3.41,0.58,4.31,1.93,3.76,5.11c-0.27,1.54-0.07,3.17-0.31,4.72c-0.16,1.01-1,1.94-1.06,2.94
	c-0.08,1.3,0.31,2.63,0.5,3.95c0.09,0.64,0.17,1.28,0.32,2.48c-1.1-0.77-1.73-1.2-2.58-1.79c-0.32,0.77-0.56,1.38-0.82,1.99
	c-0.27,0.62-0.57,1.24-0.83,1.81c0.15,0.21,0.23,0.41,0.3,0.41c2.63-0.06,3.79,0.48,2.92,3.71c-0.65,2.43,0.18,5.26,0.33,7.91
	c0.09,1.64-0.41,2.77-2.35,2.54c0.14-0.56,0.28-1.13,0.42-1.69c1.52-3.73,0.7-7.98-2.01-10.74c-0.73-0.74-1.43-1.54-1.96-2.42
	c-0.93-1.52-0.97-2.94,0.7-4.12c2.46-1.73,4.07-4.09,4.47-7.1c0.22-1.59,0.09-3.23,0.12-4.85c0.1-0.13,0.19-0.26,0.29-0.39
	c0.01-0.29,0.02-0.58,0.02-0.87C237.2,627.97,237.1,627.87,237,627.77z"/>
<path class="st27" d="M223.06,655.14c1.69,2.17,3.33,4.39,2.07,7.33c-0.47,1.11-1.25,2.13-2.07,3.03c-1.54,1.7-1.68,2.89-0.36,4.77
	c0.7,1.01,1.37,2.04,2.06,3.06c-1.42,0.51-2.66,2.1-4.37,0.62c0.17-1.59,0.46-3.25,0.48-4.91c0.01-0.58-0.53-1.29-1.01-1.73
	c-1.28-1.15-1.28-1.95,0.29-2.82c0.24,0.76,0.48,1.49,0.62,1.95c1.19-1.47,2.49-2.88,3.52-4.47c0.3-0.45-0.17-1.4-0.32-2.3
	c-1.46,0.83-2.44,1.38-3.42,1.94c-0.17-0.19-0.33-0.38-0.5-0.57c0.6-0.64,1.25-1.25,1.79-1.94c0.41-0.52,0.67-1.16,1-1.75
	c-0.61-0.2-1.27-0.65-1.84-0.56c-1.53,0.24-2.62-0.15-2.69-1.77c-0.12-2.85-0.29-5.73-0.01-8.56c0.28-2.79,0.09-3.86-2.28-5.03
	c0.63-1.61,1.28-3.26,1.92-4.91c0,0,0.12,0.1,0.12,0.1c-0.97,2.84-0.7,3.95,1.27,5.21l0.12,0.08c0.08,1.73,0.16,3.46,0.24,5.19
	c-0.04,0.4-0.07,0.8-0.11,1.21c-0.16,0.61-0.33,1.22-0.49,1.83c0,1.08,0,2.16,0,3.25c0.17,0.46,0.34,0.92,0.5,1.38c0,0,0,0,0,0
	c0.22,0.38,0.43,0.75,0.65,1.13c0.33-0.29,0.79-0.51,0.97-0.88c0.34-0.65,0.52-1.38,0.94-2.59
	C222.6,653.76,222.83,654.45,223.06,655.14z"/>
<path class="st27" d="M243.9,690.98c-0.18-1.63-0.36-3.26-0.54-4.89c1.4-1.01,1.68-2.05,0.22-3.31c-0.61-0.52-1.02-1.28-1.52-1.93
	c0.09-0.18,0.2-0.52,0.28-0.51c1.78,0.16,3.82,4.17,2.83,5.6c-0.25,0.36-0.78,0.54-1.36,0.91c0.51,1.25,0.96,2.58,1.6,3.81
	c0.23,0.44,0.88,0.73,1.39,0.96c1.18,0.53,2.39,1.02,3.61,1.45c1.06,0.37,1.79,0.18,2.31-1.05c0.37-0.87,1.18-1.71,2.02-2.17
	c1.56-0.87,2.68-0.39,3.01,1.53c0.13,0.73,0.48,1.42,0.59,1.73c1.96-0.4,3.65-0.74,5.34-1.08c-0.52,2.09-2.36,2.38-3.95,2.42
	c-0.92,0.02-1.88-1.05-2.81-1.65c-0.6-0.38-1.26-1.2-1.74-1.1c-0.67,0.14-1.5,0.85-1.74,1.5c-0.52,1.43-1.05,1.31-2.46,1.02
	C248.32,693.68,245.99,692.68,243.9,690.98z"/>
<path class="st27" d="M236.15,468.93c0.7,2.36,1.35,4.74,2.1,7.08c0.38,1.2,0.92,2.35,1.39,3.52c0.1,0.42,0.21,0.83,0.31,1.25
	c-0.15,0.31-0.3,0.63-0.45,0.94c-0.61-0.25-1.34-0.37-1.81-0.78c-1.03-0.9-1.72-0.55-2.05,0.51c-0.25,0.82-0.24,1.77-0.15,2.64
	c0.13,1.31,0.44,2.6,0.67,3.9c-0.44-0.37-1.22-0.7-1.26-1.11c-0.24-2.13-0.55-4.32-0.28-6.41c0.1-0.74,1.79-1.27,2.9-1.98
	C237.11,475.53,236.63,472.23,236.15,468.93z"/>
<path class="st27" d="M273.77,605.22c0.96,0.02,1.92,0.03,2.89,0.05c0.17,0.97,0.35,1.93,0.52,2.9c0,0.29-0.01,0.58-0.01,0.87
	c-0.05,0.56-0.1,1.13-0.14,1.69c-0.7,0.77-1.41,1.54-2.11,2.31c-0.13,0.05-0.27,0.1-0.4,0.15c-0.59,0.45-1.19,0.9-1.79,1.35
	c-0.1,0.02-0.19,0.05-0.27,0.1c-0.27-0.17-0.53-0.35-0.8-0.52c0.29-0.57,0.44-1.38,0.91-1.67c1.63-1.03,1.86-2.41,1.49-4.14
	C273.83,607.3,273.85,606.25,273.77,605.22z"/>
<path class="st27" d="M206.69,413.49c-0.2,1.12-0.39,2.24-0.59,3.35c-0.25,0.29-0.51,0.58-0.76,0.87c-1.95,1.93-2.37,4.48-3.04,6.99
	c-0.35,1.34-1.34,2.51-2.04,3.76c0.55-1.76,1.25-3.48,1.61-5.28c0.52-2.65,1.47-5,3.01-7.27c0.74-1.09,0.31-2.98,0.39-4.51
	c0.04-0.82-0.19-1.82,1.19-1.68C206.54,410.98,206.61,412.24,206.69,413.49z"/>
<path class="st27" d="M224.72,457.48c0.57,0.5,1.13,1.01,1.7,1.51c-0.52,0.51-0.96,1.18-1.58,1.5c-1.29,0.66-2.26,2.54-1.76,3.89
	c0.1,0.27,0.54,0.68,0.65,0.63c0.46-0.2,0.96-0.48,1.26-0.87c1.61-2.11,5.21-2.08,6.96,0.1c-0.89-0.12-1.79-0.31-2.69-0.35
	c-0.88-0.04-1.77,0.07-2.45,0.11c-0.93,0.7-1.69,1.63-2.62,1.84c-0.66,0.15-2.09-0.56-2.21-1.09c-0.22-1.03-0.06-2.4,0.5-3.29
	C223.3,460.17,225.35,459.62,224.72,457.48z"/>
<path class="st27" d="M210.23,439.69c0.63-0.18,1.34-0.65,1.86-0.49c0.82,0.25,1.76,0.77,2.22,1.46c1.73,2.62,2.54,5.89,5.51,7.64
	c0.22,0.13,0.14,0.77,0.2,1.18c-1.31-0.33-4.81-3.86-5.01-5.07C214.54,441.63,213.07,440.17,210.23,439.69z"/>
<path class="st27" d="M200.23,434.63c0.98,0.99,1.96,1.97,2.94,2.96l0.02,0.03c0.71,2.77,2.9,2.59,5.04,2.53
	c-1.23,1.41-3.14,1.56-4.27,0.38C202.33,438.8,200.17,437.42,200.23,434.63z"/>
<path class="st27" d="M246.69,504.89c-0.28,0.15-0.55,0.3-0.83,0.45c0-0.35,0-0.69,0-1.04c0-3.16,0-3.08-3.19-2.83
	c-1.35,0.1-2.94,0.08-2.71-2.08c1.32,0.25,2.68,0.79,3.97,0.67c2.16-0.2,2.77,0.11,2.8,2.32
	C246.73,503.21,246.7,504.05,246.69,504.89z"/>
<path class="st27" d="M271.68,618.69c1.08,1.72,0.66,4.09-1.72,6c0-1.09,0.23-2.26-1.28-2.71c-0.23-0.07-0.25-0.85-0.46-1.69
	C270.48,621.31,271.53,620.71,271.68,618.69z"/>
<path class="st27" d="M263.27,652.06c1.12-0.9,1.68-1.59,2.4-1.81c0.27-0.08,1.31,1.04,1.22,1.44c-0.15,0.66-0.83,1.39-1.47,1.67
	C265.08,653.51,264.35,652.75,263.27,652.06z"/>
<path class="st27" d="M220.12,451.03c0.68,0.21,1.36,0.42,2.05,0.62c0.25,0.13,0.51,0.26,0.76,0.39c0.31,0.42,0.62,0.84,0.93,1.25
	l-0.01,0c0.19,1.39,0.38,2.78,0.57,4.16c-1.34,0.05-1.45-0.88-1.38-1.85c0.1-1.47-0.05-2.62-1.92-2.87
	C220.72,452.69,220.45,451.63,220.12,451.03z"/>
<path class="st27" d="M236.19,488.3c0.39,0.2,0.79,0.4,1.18,0.61c0,0.12,0.02,0.24,0.07,0.35c0.28,0.42,0.55,0.84,0.83,1.25
	c0.26,0.29,0.53,0.58,0.79,0.87c0.43,0.41,0.86,0.81,1.3,1.22c0.15,0.28,0.31,0.57,0.46,0.85
	C237.99,493.35,236.11,491.26,236.19,488.3z"/>
<path class="st27" d="M240.82,493.45c0.44,0.3,0.89,0.6,1.33,0.9c-0.03,0.56-0.06,1.12-0.09,1.68c-1.38,0.51-2.19,1.44-2.21,2.96
	c-1.56-1-0.14-2.01,0.04-2.98C240.05,495.12,240.5,494.3,240.82,493.45z"/>
<path class="st27" d="M270.68,548.09c-0.23,0.15-0.46,0.31-0.69,0.46c-0.87-1.69-1.73-3.39-2.6-5.08c0,0,0.05-0.05,0.05-0.05
	c0.55,0.31,1.09,0.63,1.64,0.94c-0.02,0.12-0.01,0.23,0.03,0.34c-0.02,0.14,0.01,0.27,0.07,0.4c0.68,0.73,1.36,1.45,2.04,2.18
	c0.01,0.2,0.01,0.39,0.02,0.59C271.05,547.94,270.86,548.02,270.68,548.09z"/>
<path class="st27" d="M236.37,700.19c0.1-0.79-0.04-1.79,0.39-2.31c0.32-0.4,1.38-0.19,2.11-0.25c0.08,0.22,0.17,0.43,0.25,0.65
	c-0.65,0.72-1.29,1.44-1.94,2.16C236.92,700.35,236.65,700.27,236.37,700.19z"/>
<path class="st27" d="M269.96,624.69c-0.81,1.57-1.62,3.15-2.44,4.72C266.7,627.65,267.68,625.75,269.96,624.69z"/>
<path class="st27" d="M230.65,634.64c-0.66,0.6-1.1,1-1.55,1.41c-0.32-0.46-0.97-0.99-0.89-1.36c0.11-0.55,0.74-0.99,1.15-1.48
	C229.72,633.6,230.07,634,230.65,634.64z"/>
<path class="st27" d="M255.17,526.07c0.59,1.97,1.17,3.93,1.76,5.9c-0.4-0.22-1.04-0.34-1.16-0.67c-0.67-1.77-1.22-3.59-1.81-5.39
	C254.36,525.96,254.77,526.01,255.17,526.07z"/>
<path class="st27" d="M261.14,533.69c0.28,0.71,0.56,1.41,0.84,2.12c-1.41-1.01-2.83-2.02-4.25-3.03c0.69,0.12,1.38,0.25,2.07,0.37
	C260.25,533.33,260.7,533.51,261.14,533.69z"/>
<path class="st27" d="M263.64,540.02c0.27,0.02,0.54,0.03,0.81,0.05c0,0,0-0.01,0-0.01c0.14,0.17,0.28,0.33,0.41,0.5
	c0.13,0.12,0.26,0.24,0.39,0.36c0.73,0.83,1.46,1.67,2.19,2.5c0,0-0.05,0.05-0.05,0.05C265.28,543.25,264,542.13,263.64,540.02z"/>
<path class="st27" d="M200.24,429.16c-0.61,1.83-1.29,3.65,0,5.48c-2.43-0.72-0.97-2.7-1.23-4.09
	C198.94,430.17,199.8,429.62,200.24,429.16z"/>
<path class="st27" d="M262,536.48c0.55,1.18,1.1,2.36,1.65,3.55C261.66,539.51,261.9,537.96,262,536.48z"/>
<path class="st27" d="M231.95,464.24c0.84,0.71,1.68,1.42,2.53,2.13C232.99,466.43,232.21,465.64,231.95,464.24z"/>
<path class="st27" d="M143.44,496.99c-1.08-0.35-2.16-0.71-3.24-1.06C141.47,495.7,143.02,494.63,143.44,496.99z"/>
<path class="st14" d="M208.09,682.74c-0.48-1.19-0.96-2.39-1.45-3.58C207.12,680.35,207.61,681.55,208.09,682.74z"/>
<path class="st27" d="M235.54,700.12c-0.52,0-1.04,0.04-1.54-0.04c-0.09-0.01-0.08-0.57-0.12-0.88c0.56,0,1.12,0,1.68,0
	C235.55,699.51,235.55,699.82,235.54,700.12z"/>
<path class="st27" d="M234.48,466.38c0.56,0.85,1.12,1.7,1.68,2.54C234.12,469.05,234.46,467.61,234.48,466.38z"/>
<path class="st27" d="M270.86,614.57c0,1.1,0.01,2.2,0.01,3.31C269.27,616.77,269.26,615.72,270.86,614.57z"/>
<path class="st27" d="M264.97,689.1c-0.44,0.97-0.87,1.95-1.31,2.92C264.13,691.06,261.94,688.91,264.97,689.1z"/>
<path class="st27" d="M231.27,633.72c0.1-0.56,0.2-1.11,0.3-1.67c0.17,0.02,0.33,0.03,0.5,0.05c0,0.59,0,1.18,0,1.76
	C231.8,633.81,231.54,633.76,231.27,633.72z"/>
<path class="st27" d="M214.39,639.71c-0.05-0.39-0.1-0.79-0.15-1.18c0.17-0.02,0.34-0.05,0.52-0.07c0.04,0.4,0.07,0.79,0.11,1.19
	C214.71,639.67,214.55,639.69,214.39,639.71z"/>
<path class="st27" d="M265.65,681.78c-0.2,0.17-0.32,0.36-0.46,0.37c-0.16,0.02-0.34-0.11-0.52-0.18c0.14-0.17,0.25-0.39,0.43-0.48
	C265.2,681.44,265.41,681.64,265.65,681.78z"/>
<path class="st15" d="M224.24,508.22c-0.14,0.14-0.27,0.3-0.36,0.51c-0.03-0.03-0.05-0.06-0.08-0.09
	C223.98,508.45,224.12,508.33,224.24,508.22z"/>
<path class="st15" d="M111,441.01c0.17-0.21,0.34-0.43,0.51-0.64c0.05,0.05,0.09,0.09,0.14,0.14
	C111.43,440.67,111.21,440.84,111,441.01C111,441.01,111,441.01,111,441.01z"/>
<path class="st27" d="M261.75,665.21c-0.05,0.12-0.1,0.23-0.15,0.35c-0.12-0.05-0.3-0.08-0.33-0.16c-0.03-0.09,0.08-0.23,0.13-0.35
	C261.51,665.1,261.63,665.15,261.75,665.21z"/>
<path class="st27" d="M234.55,623.27c-0.12-0.05-0.3-0.08-0.33-0.16c-0.03-0.08,0.08-0.23,0.13-0.35c0.12,0.05,0.3,0.08,0.33,0.16
	C234.72,623.01,234.6,623.15,234.55,623.27z"/>
<path class="st15" d="M271.33,614.14c-0.17,0.15-0.34,0.29-0.51,0.44C270.99,614.43,271.16,614.28,271.33,614.14z"/>
<path class="st15" d="M270.83,617.87c0.18,0.14,0.35,0.29,0.53,0.43C271.18,618.16,271,618.02,270.83,617.87z"/>
<path class="st14" d="M223.51,648.88c-0.19-0.38-0.38-0.77-0.57-1.15C223.13,648.11,223.32,648.5,223.51,648.88z"/>
<path class="st14" d="M222.77,647.2c-0.17-0.35-0.34-0.69-0.51-1.04C222.43,646.5,222.6,646.85,222.77,647.2z"/>
<path class="st14" d="M226.16,665.08c0.18-0.36,0.35-0.72,0.53-1.08C226.51,664.36,226.34,664.72,226.16,665.08z"/>
<path class="st14" d="M224.28,650.53c-0.13-0.16-0.26-0.32-0.39-0.48C224.02,650.21,224.15,650.37,224.28,650.53z"/>
<path class="st21" d="M237,627.77c0.1,0.1,0.21,0.2,0.31,0.3C237.2,627.97,237.1,627.87,237,627.77z"/>
<path class="st21" d="M237.28,628.94c-0.1,0.13-0.19,0.26-0.29,0.39C237.09,629.2,237.19,629.07,237.28,628.94z"/>
<path class="st14" d="M219.1,650.15c0.16-0.61,0.33-1.22,0.49-1.83C219.43,648.93,219.27,649.54,219.1,650.15z"/>
<path class="st14" d="M219.61,654.78c-0.17-0.46-0.34-0.92-0.5-1.38C219.28,653.86,219.44,654.32,219.61,654.78z"/>
<path class="st18" d="M286.04,669.11c-0.04-0.7-0.08-1.4-0.11-2.1C285.97,667.71,286,668.41,286.04,669.11z"/>
<path class="st4" d="M268.08,666.62c0.08,0.39,0.16,0.77,0.23,1.16C268.24,667.39,268.16,667.01,268.08,666.62z"/>
<path class="st27" d="M240.36,492.6c-0.43-0.41-0.86-0.81-1.3-1.22C239.5,491.79,239.93,492.2,240.36,492.6z"/>
<path class="st26" d="M238.27,490.51c-0.28-0.42-0.56-0.84-0.83-1.25C237.72,489.68,237.99,490.1,238.27,490.51z"/>
<path class="st26" d="M239.96,480.78c-0.1-0.42-0.21-0.83-0.31-1.25C239.75,479.95,239.86,480.36,239.96,480.78z"/>
<path class="st26" d="M205.34,417.72c0.25-0.29,0.51-0.58,0.76-0.87C205.85,417.14,205.59,417.43,205.34,417.72z"/>
<path class="st26" d="M269.18,545.1c-0.06-0.13-0.09-0.26-0.07-0.4c0.07,0.09,0.14,0.17,0.19,0.27
	C269.31,544.99,269.22,545.06,269.18,545.1z"/>
<path class="st26" d="M264.86,540.55c-0.14-0.17-0.28-0.33-0.41-0.5C264.58,540.22,264.72,540.39,264.86,540.55z"/>
<path class="st25" d="M222.93,452.05c0.31,0.42,0.62,0.84,0.93,1.25C223.55,452.88,223.24,452.46,222.93,452.05z"/>
<g>
	<text transform="matrix(1 0 0 1 186.5825 567.2947)" class="st0 st34 st35">KHULNA</text>
</g>
<ellipse class="st36" cx="206.57" cy="551.16" rx="8.92" ry="0.87"/>
<g>
	<g>
		<circle class="st8" cx="206.57" cy="532.37" r="3.95"/>
	</g>
	<g>
		<path class="st8" d="M206.57,538.68c-3.48,0-6.31-2.83-6.31-6.31c0-3.48,2.83-6.31,6.31-6.31c3.48,0,6.31,2.83,6.31,6.31
			C212.88,535.85,210.05,538.68,206.57,538.68z M206.57,527.24c-2.83,0-5.13,2.3-5.13,5.13s2.3,5.13,5.13,5.13
			c2.83,0,5.13-2.3,5.13-5.13S209.4,527.24,206.57,527.24z"/>
	</g>
	<polygon class="st8" points="207.82,538.42 206.57,551.59 206.57,551.61 206.57,551.59 205.32,538.42 206.57,538.4 206.57,538.4 	
		"/>
</g>
</svg>
