<svg width="1898" height="800" viewBox="0 0 1898 800" fill="none" xmlns="http://www.w3.org/2000/svg">
<g clip-path="url(#clip0_1122_1036)">
<rect width="1898" height="800" fill="#F7F8FB"/>
<rect x="1180.22" y="798.669" width="787.948" height="60" rx="30" transform="rotate(-30 1180.22 798.669)" fill="url(#paint0_linear_1122_1036)"/>
<rect x="-56.5642" y="266.932" width="655.659" height="60" rx="30" transform="rotate(-30 -56.5642 266.932)" fill="url(#paint1_linear_1122_1036)"/>
<rect x="1371.7" y="792.956" width="393.911" height="60" rx="30" transform="rotate(-30 1371.7 792.956)" fill="url(#paint2_linear_1122_1036)"/>
<circle cx="833" cy="118" r="35" fill="#EDEDFF"/>
<g opacity="0.5">
<circle cx="601" cy="800" r="115" stroke="url(#paint3_linear_1122_1036)" stroke-width="18"/>
<circle cx="601.5" cy="800.5" r="81.5" stroke="url(#paint4_linear_1122_1036)" stroke-width="18"/>
<circle cx="601" cy="800" r="49" stroke="url(#paint5_linear_1122_1036)" stroke-width="18"/>
</g>
<rect x="-65.334" y="284.816" width="279" height="279" transform="rotate(33.7119 -65.334 284.816)" fill="#A321B9" fill-opacity="0.07"/>
<rect width="1898" height="800" fill="url(#paint6_linear_1122_1036)"/>
</g>
<defs>
<linearGradient id="paint0_linear_1122_1036" x1="1180.22" y1="828.669" x2="1968.17" y2="828.669" gradientUnits="userSpaceOnUse">
<stop stop-color="#FFFAEF" stop-opacity="0"/>
<stop offset="1" stop-color="#FFFBEF"/>
</linearGradient>
<linearGradient id="paint1_linear_1122_1036" x1="-56.5642" y1="296.932" x2="599.094" y2="296.932" gradientUnits="userSpaceOnUse">
<stop stop-color="#FFFBF1"/>
<stop offset="1" stop-color="#FFEDED"/>
</linearGradient>
<linearGradient id="paint2_linear_1122_1036" x1="1371.7" y1="822.956" x2="1765.61" y2="822.956" gradientUnits="userSpaceOnUse">
<stop stop-color="#FFEDF4" stop-opacity="0"/>
<stop offset="1" stop-color="#FFEDF4"/>
</linearGradient>
<linearGradient id="paint3_linear_1122_1036" x1="601" y1="676" x2="601" y2="924" gradientUnits="userSpaceOnUse">
<stop stop-color="#EAE5FA"/>
<stop offset="1" stop-color="#F7F4FF"/>
</linearGradient>
<linearGradient id="paint4_linear_1122_1036" x1="601.5" y1="710" x2="601.5" y2="891" gradientUnits="userSpaceOnUse">
<stop stop-color="#EAE5FA"/>
<stop offset="1" stop-color="#F7F4FF"/>
</linearGradient>
<linearGradient id="paint5_linear_1122_1036" x1="601" y1="742" x2="601" y2="858" gradientUnits="userSpaceOnUse">
<stop stop-color="#EAE5FA"/>
<stop offset="1" stop-color="#F7F4FF"/>
</linearGradient>
<linearGradient id="paint6_linear_1122_1036" x1="949" y1="178.5" x2="949" y2="400" gradientUnits="userSpaceOnUse">
<stop stop-color="white"/>
<stop offset="1" stop-color="white" stop-opacity="0"/>
</linearGradient>
<clipPath id="clip0_1122_1036">
<rect width="1898" height="800" fill="white"/>
</clipPath>
</defs>
</svg>
