<svg width="944" height="653" viewBox="0 0 944 653" fill="none" xmlns="http://www.w3.org/2000/svg">
<rect width="944" height="653" fill="#F1F1F1"/>
<path d="M551 145C555.971 145 560 140.971 560 136C560 131.029 555.971 127 551 127C546.029 127 542 131.029 542 136C542 140.971 546.029 145 551 145Z" fill="#D9D9D9"/>
<path d="M416 240C420.971 240 425 235.971 425 231C425 226.029 420.971 222 416 222C411.029 222 407 226.029 407 231C407 235.971 411.029 240 416 240Z" fill="#D9D9D9"/>
<path d="M209 154C213.971 154 218 149.971 218 145C218 140.029 213.971 136 209 136C204.029 136 200 140.029 200 145C200 149.971 204.029 154 209 154Z" fill="#D9D9D9"/>
</svg>
