<svg width="512" height="512" viewBox="0 0 512 512" fill="none" xmlns="http://www.w3.org/2000/svg">
<g clip-path="url(#clip0_1134_24)">
<path d="M416 208C416 253.9 401.1 296.3 376 330.7L502.6 457.4C515.1 469.9 515.1 490.2 502.6 502.7C490.1 515.2 469.8 515.2 457.3 502.7L330.7 376C296.3 401.2 253.9 416 208 416C93.1 416 0 322.9 0 208C0 93.1 93.1 0 208 0C322.9 0 416 93.1 416 208ZM208 352C226.91 352 245.636 348.275 263.106 341.039C280.577 333.802 296.452 323.195 309.823 309.823C323.195 296.452 333.802 280.577 341.039 263.106C348.275 245.636 352 226.91 352 208C352 189.09 348.275 170.364 341.039 152.894C333.802 135.423 323.195 119.548 309.823 106.177C296.452 92.805 280.577 82.198 263.106 74.9613C245.636 67.7247 226.91 64 208 64C189.09 64 170.364 67.7247 152.894 74.9613C135.423 82.198 119.548 92.805 106.177 106.177C92.805 119.548 82.198 135.423 74.9613 152.894C67.7247 170.364 64 189.09 64 208C64 226.91 67.7247 245.636 74.9613 263.106C82.198 280.577 92.805 296.452 106.177 309.823C119.548 323.195 135.423 333.802 152.894 341.039C170.364 348.275 189.09 352 208 352Z" fill="white"/>
<g clip-path="url(#clip1_1134_24)">
<path d="M203 146.281C179.908 146.281 160.925 156.745 146.369 170.214C132.733 182.87 123.312 197.895 118.496 208.5C123.312 219.105 132.733 234.13 146.333 246.786C160.925 260.255 179.908 270.719 203 270.719C226.092 270.719 245.075 260.255 259.631 246.786C273.267 234.13 282.687 219.105 287.504 208.5C282.687 197.895 273.267 182.87 259.667 170.214C245.075 156.745 226.092 146.281 203 146.281ZM134.787 157.806C151.469 142.322 174.383 129.312 203 129.312C231.617 129.312 254.531 142.322 271.212 157.806C287.787 173.184 298.873 191.531 304.15 204.152C305.319 206.945 305.319 210.055 304.15 212.848C298.873 225.469 287.787 243.852 271.212 259.194C254.531 274.678 231.617 287.688 203 287.688C174.383 287.688 151.469 274.678 134.787 259.194C118.212 243.852 107.127 225.469 101.885 212.848C100.717 210.055 100.717 206.945 101.885 204.152C107.127 191.531 118.212 173.148 134.787 157.806ZM203 236.781C218.654 236.781 231.333 224.125 231.333 208.5C231.333 192.875 218.654 180.219 203 180.219C202.752 180.219 202.54 180.219 202.292 180.219C202.752 182.022 203 183.931 203 185.875C203 198.354 192.835 208.5 180.333 208.5C178.385 208.5 176.473 208.253 174.667 207.793C174.667 208.04 174.667 208.253 174.667 208.5C174.667 224.125 187.346 236.781 203 236.781ZM203 163.25C215.023 163.25 226.554 168.017 235.055 176.503C243.557 184.989 248.333 196.499 248.333 208.5C248.333 220.501 243.557 232.011 235.055 240.497C226.554 248.983 215.023 253.75 203 253.75C190.977 253.75 179.446 248.983 170.944 240.497C162.443 232.011 157.667 220.501 157.667 208.5C157.667 196.499 162.443 184.989 170.944 176.503C179.446 168.017 190.977 163.25 203 163.25Z" fill="white"/>
</g>
</g>
<defs>
<clipPath id="clip0_1134_24">
<rect width="512" height="512" fill="white"/>
</clipPath>
<clipPath id="clip1_1134_24">
<rect width="204" height="181" fill="white" transform="translate(101 118)"/>
</clipPath>
</defs>
</svg>
