<svg width="82" height="78" viewBox="0 0 82 78" fill="none" xmlns="http://www.w3.org/2000/svg">
<g opacity="0.25" clip-path="url(#clip0_1223_8)">
<path d="M66.8497 69.9046C66.8332 71.8212 65.1694 73.5276 63.3189 73.5252C61.4282 73.5252 59.788 71.8425 59.814 69.9117C59.8282 68.9698 60.2111 68.071 60.8805 67.4082C61.5499 66.7454 62.4525 66.3715 63.3945 66.3666C64.321 66.3803 65.2044 66.7601 65.8518 67.423C66.4992 68.0859 66.8579 68.978 66.8497 69.9046Z" fill="white"/>
<path d="M16.9451 16.0911C16.9476 15.6397 17.0391 15.1932 17.2145 14.7772C17.3898 14.3611 17.6455 13.9838 17.9669 13.6668C18.2883 13.3498 18.6691 13.0993 19.0875 12.9297C19.5059 12.7601 19.9536 12.6747 20.4051 12.6785C22.2532 12.6785 23.813 14.2997 23.787 16.1857C23.7634 18.0244 22.1989 19.622 20.4169 19.6267C19.4885 19.6155 18.6023 19.2374 17.9519 18.5749C17.3014 17.9125 16.9394 17.0195 16.9451 16.0911Z" fill="white"/>
<path d="M77.5581 4.83453C78.467 4.83453 79.3386 5.19558 79.9813 5.83824C80.6239 6.4809 80.985 7.35253 80.985 8.26139C80.985 9.17025 80.6239 10.0419 79.9813 10.6845C79.3386 11.3272 78.467 11.6882 77.5581 11.6882C77.1143 11.6942 76.6738 11.6117 76.2622 11.4456C75.8506 11.2794 75.4763 11.0329 75.161 10.7205C74.8457 10.4081 74.5958 10.036 74.4259 9.62596C74.256 9.21591 74.1695 8.77613 74.1714 8.33229C74.1617 7.87962 74.2419 7.42951 74.4073 7.00802C74.5726 6.58652 74.82 6.20201 75.1349 5.87672C75.4499 5.55144 75.8262 5.29184 76.2421 5.11295C76.6581 4.93406 77.1054 4.83943 77.5581 4.83453Z" fill="white"/>
<path d="M29.8609 5.22682C29.8641 5.50634 29.812 5.78374 29.7079 6.04315C29.6037 6.30256 29.4494 6.53889 29.2539 6.73863C29.0583 6.93837 28.8253 7.09761 28.5681 7.20722C28.311 7.31684 28.0347 7.37469 27.7552 7.37747C27.1918 7.35477 26.6583 7.11827 26.2631 6.7161C25.868 6.31393 25.6409 5.77631 25.6282 5.21264C25.638 4.64752 25.8685 4.10866 26.2704 3.71121C26.6723 3.31376 27.2136 3.08924 27.7788 3.08563C28.9676 3.06435 29.8609 3.99079 29.8609 5.22682Z" fill="white"/>
<path d="M22.2249 26.8656C22.6823 26.8726 23.1192 27.056 23.4447 27.3773C23.7702 27.6987 23.959 28.1334 23.9718 28.5906C23.9846 29.0478 23.8204 29.4923 23.5134 29.8314C23.2065 30.1705 22.7804 30.378 22.3242 30.4106C22.0839 30.4185 21.8445 30.3783 21.62 30.2925C21.3955 30.2066 21.1903 30.0767 21.0166 29.9105C20.843 29.7443 20.7042 29.5451 20.6085 29.3246C20.5129 29.1041 20.4622 28.8667 20.4595 28.6263C20.4582 28.3943 20.5031 28.1644 20.5914 27.9499C20.6797 27.7354 20.8098 27.5406 20.9741 27.3768C21.1383 27.213 21.3335 27.0835 21.5482 26.9957C21.7629 26.9079 21.993 26.8637 22.2249 26.8656Z" fill="white"/>
<path d="M80.153 27.0169C80.4417 27.0192 80.7232 27.1069 80.9622 27.269C81.2012 27.431 81.3868 27.6602 81.4958 27.9275C81.6048 28.1949 81.6322 28.4886 81.5747 28.7715C81.5171 29.0544 81.3771 29.314 81.1722 29.5175C80.9674 29.721 80.707 29.8593 80.4237 29.9151C80.1404 29.9709 79.8469 29.9415 79.5802 29.8308C79.3136 29.7201 79.0856 29.533 78.9251 29.293C78.7646 29.053 78.6787 28.7709 78.6782 28.4821C78.6785 28.289 78.717 28.0978 78.7913 27.9196C78.8656 27.7413 78.9744 27.5795 79.1114 27.4434C79.2484 27.3072 79.411 27.1995 79.5897 27.1263C79.7684 27.0531 79.9598 27.0159 80.153 27.0169Z" fill="white"/>
<path d="M10.8974 58.1493C10.8761 58.6503 10.6351 58.941 10.153 58.9457C10.0516 58.9547 9.9494 58.9417 9.85344 58.9077C9.75748 58.8737 9.66998 58.8194 9.59688 58.7486C9.52378 58.6777 9.46679 58.5919 9.4298 58.4971C9.39281 58.4022 9.37668 58.3005 9.38251 58.1989C9.37702 58.1044 9.39159 58.0097 9.42528 57.9212C9.45896 57.8327 9.511 57.7523 9.57797 57.6853C9.64493 57.6184 9.72531 57.5663 9.81382 57.5327C9.90233 57.499 9.99697 57.4844 10.0915 57.4899C10.1887 57.4737 10.2883 57.4784 10.3836 57.5038C10.4788 57.5292 10.5676 57.5746 10.6439 57.637C10.7201 57.6994 10.7822 57.7774 10.826 57.8657C10.8697 57.9541 10.894 58.0507 10.8974 58.1493Z" fill="white"/>
<path d="M53.589 65.4284C53.5181 65.842 53.3006 66.1043 52.8563 66.1067C52.763 66.1182 52.6682 66.108 52.5794 66.0769C52.4906 66.0458 52.4101 65.9947 52.3443 65.9275C52.2784 65.8603 52.229 65.7788 52.1997 65.6894C52.1705 65.5999 52.1623 65.505 52.1757 65.4118C52.1694 65.3171 52.1835 65.2221 52.2169 65.1333C52.2503 65.0444 52.3023 64.9637 52.3694 64.8966C52.4366 64.8295 52.5173 64.7774 52.6061 64.744C52.695 64.7106 52.79 64.6966 52.8847 64.7028C53.2983 64.7147 53.5346 65.0006 53.589 65.4284Z" fill="white"/>
<path d="M16.9264 55.0013C17.3991 55.0722 17.6472 55.3132 17.6189 55.7457C17.6208 55.8389 17.6025 55.9313 17.5652 56.0167C17.5279 56.102 17.4724 56.1782 17.4028 56.24C17.3331 56.3018 17.2508 56.3478 17.1616 56.3747C17.0724 56.4015 16.9785 56.4087 16.8862 56.3957C16.7934 56.4002 16.7008 56.3841 16.615 56.3485C16.5292 56.3128 16.4524 56.2585 16.3902 56.1895C16.3279 56.1205 16.2819 56.0385 16.2552 55.9495C16.2286 55.8605 16.2222 55.7667 16.2363 55.6748C16.2576 55.2187 16.5624 55.058 16.9264 55.0013Z" fill="white"/>
<path d="M41.7179 68.1179C42.1693 68.1533 42.4434 68.3802 42.4458 68.8151C42.4458 69.3043 42.1409 69.5383 41.6659 69.5241C41.5722 69.5316 41.4781 69.5174 41.3908 69.4825C41.3035 69.4476 41.2255 69.3931 41.1628 69.323C41.1001 69.253 41.0545 69.1695 41.0294 69.0789C41.0043 68.9883 41.0006 68.8932 41.0183 68.8009C41.0152 68.7089 41.0313 68.6174 41.0656 68.532C41.0999 68.4466 41.1516 68.3693 41.2174 68.305C41.2832 68.2408 41.3618 68.1909 41.4479 68.1587C41.5341 68.1265 41.626 68.1126 41.7179 68.1179Z" fill="white"/>
<path d="M65.7106 57.7168C65.3183 57.6601 65.0915 57.4474 65.1198 57.0338C65.1174 56.955 65.1314 56.8767 65.1609 56.8036C65.1904 56.7306 65.2348 56.6645 65.2913 56.6096C65.3478 56.5547 65.4151 56.5122 65.4889 56.4847C65.5627 56.4572 65.6415 56.4454 65.7201 56.45C65.8065 56.4427 65.8934 56.4536 65.9752 56.4823C66.0571 56.5109 66.1319 56.5565 66.1949 56.6161C66.2578 56.6757 66.3074 56.7479 66.3405 56.8281C66.3735 56.9082 66.3892 56.9944 66.3866 57.0811C66.3913 57.471 66.1101 57.6813 65.7106 57.7168Z" fill="white"/>
<path d="M16.4086 59.5909C16.3141 59.9241 16.1203 60.1581 15.754 60.1179C15.6838 60.1131 15.6154 60.0935 15.5532 60.0604C15.4911 60.0273 15.4367 59.9816 15.3934 59.926C15.3501 59.8705 15.3191 59.8065 15.3022 59.7382C15.2853 59.6698 15.283 59.5987 15.2955 59.5295C15.289 59.4509 15.3016 59.372 15.332 59.2994C15.3624 59.2267 15.4098 59.1624 15.4703 59.1119C15.5308 59.0614 15.6025 59.0261 15.6794 59.0092C15.7563 58.9922 15.8362 58.9939 15.9123 59.0143C16.052 59.0313 16.1803 59.0998 16.2721 59.2065C16.3639 59.3132 16.4126 59.4502 16.4086 59.5909Z" fill="white"/>
<path d="M68.8158 4.11838C68.8194 4.19514 68.8066 4.27179 68.7783 4.34322C68.75 4.41466 68.7067 4.47924 68.6515 4.53267C68.5963 4.58611 68.5303 4.62717 68.458 4.65313C68.3857 4.67909 68.3087 4.68935 68.2321 4.68322C68.1624 4.69023 68.092 4.68165 68.026 4.65812C67.96 4.63459 67.9001 4.59668 67.8505 4.54715C67.801 4.49762 67.7631 4.43769 67.7396 4.37171C67.716 4.30573 67.7075 4.23535 67.7145 4.16565C67.707 4.09676 67.7133 4.02707 67.7332 3.96067C67.753 3.89427 67.7859 3.8325 67.8299 3.779C67.8739 3.72549 67.9282 3.68133 67.9896 3.64911C68.0509 3.61688 68.1181 3.59725 68.1871 3.59135C68.5653 3.537 68.7354 3.78515 68.8158 4.11838Z" fill="white"/>
<path d="M69.05 54.798C69.0441 54.8666 69.0246 54.9334 68.9927 54.9944C68.9608 55.0554 68.917 55.1095 68.8641 55.1534C68.8111 55.1974 68.7499 55.2304 68.684 55.2506C68.6182 55.2707 68.549 55.2775 68.4805 55.2707C68.4127 55.2706 68.3456 55.2567 68.2833 55.2298C68.2211 55.203 68.1649 55.1638 68.1182 55.1147C68.0715 55.0655 68.0353 55.0074 68.0117 54.9438C67.9881 54.8802 67.9777 54.8126 67.9811 54.7448C67.9844 54.6771 68.0015 54.6108 68.0313 54.5499C68.061 54.4889 68.1028 54.4347 68.1541 54.3904C68.2055 54.3461 68.2653 54.3127 68.3299 54.2921C68.3945 54.2716 68.4626 54.2644 68.5301 54.271C68.6683 54.2741 68.7998 54.3308 68.8968 54.4292C68.9939 54.5276 69.0488 54.6598 69.05 54.798Z" fill="white"/>
<path d="M68.6599 0.972774C68.5902 0.98145 68.5193 0.974458 68.4526 0.952306C68.3859 0.930155 68.325 0.893403 68.2743 0.844727C68.2236 0.79605 68.1843 0.736674 68.1595 0.670925C68.1346 0.605175 68.1247 0.534708 68.1305 0.464654C68.1405 0.34215 68.1948 0.227477 68.2832 0.142066C68.3715 0.0566555 68.488 0.0063533 68.6108 0.000562098C68.7335 -0.00522911 68.8542 0.0338869 68.9503 0.110599C69.0463 0.18731 69.1111 0.296367 69.1326 0.417387C69.1448 0.486006 69.1417 0.556476 69.1234 0.623748C69.1052 0.69102 69.0723 0.75343 69.0272 0.806507C68.982 0.859583 68.9256 0.902014 68.8622 0.930759C68.7987 0.959503 68.7296 0.973851 68.6599 0.972774Z" fill="white"/>
<path d="M43.8448 14.9591C43.5801 14.9355 43.3721 14.8291 43.3438 14.529C43.3178 14.1745 43.5494 14.0327 43.8614 14.0185C44.1733 14.0043 44.308 14.2147 44.3104 14.4912C44.3149 14.5536 44.306 14.6162 44.2843 14.6749C44.2625 14.7336 44.2284 14.7869 44.1843 14.8313C44.1401 14.8756 44.087 14.91 44.0284 14.9321C43.9699 14.9541 43.9073 14.9633 43.8448 14.9591Z" fill="white"/>
<path d="M39.3357 15.6918C39.0544 15.6492 38.863 15.5192 38.8819 15.2191C38.8836 15.1576 38.8979 15.097 38.9239 15.0413C38.9499 14.9855 38.9872 14.9357 39.0333 14.8949C39.0794 14.8541 39.1333 14.8233 39.1919 14.8042C39.2504 14.7852 39.3122 14.7784 39.3735 14.7842C39.6784 14.7842 39.8036 14.9686 39.7942 15.2569C39.7994 15.3174 39.7909 15.3783 39.7693 15.435C39.7477 15.4918 39.7137 15.5429 39.6696 15.5847C39.6256 15.6265 39.5727 15.6578 39.5149 15.6764C39.457 15.6949 39.3958 15.7001 39.3357 15.6918Z" fill="white"/>
<path d="M10.089 21.4536C10.0957 21.5099 10.0904 21.5669 10.0733 21.621C10.0563 21.675 10.0279 21.7248 9.99015 21.7671C9.95237 21.8093 9.90603 21.8431 9.85421 21.866C9.80239 21.889 9.74628 21.9007 9.6896 21.9003C9.39655 21.9263 9.21693 21.8057 9.19566 21.4914C9.1904 21.4367 9.19662 21.3815 9.21393 21.3293C9.23124 21.2771 9.25927 21.2291 9.2962 21.1884C9.33313 21.1477 9.37817 21.1152 9.42841 21.0929C9.47866 21.0705 9.53301 21.059 9.58798 21.0589C9.6475 21.0464 9.70903 21.0472 9.76823 21.0611C9.82743 21.075 9.88287 21.1017 9.93064 21.1393C9.9784 21.1769 10.0173 21.2246 10.0447 21.2789C10.0721 21.3332 10.0872 21.3928 10.089 21.4536Z" fill="white"/>
<path d="M72.9755 24.9608C73.0309 24.9542 73.0871 24.9601 73.1399 24.978C73.1928 24.996 73.2409 25.0255 73.2808 25.0645C73.3207 25.1035 73.3513 25.1509 73.3705 25.2033C73.3897 25.2557 73.3968 25.3118 73.3915 25.3673C73.3974 25.4132 73.3939 25.4599 73.3813 25.5045C73.3686 25.5491 73.3471 25.5906 73.3179 25.6266C73.2888 25.6626 73.2526 25.6924 73.2116 25.714C73.1706 25.7356 73.1257 25.7487 73.0795 25.7525C73.0262 25.7643 72.9709 25.7643 72.9176 25.7524C72.8642 25.7405 72.8142 25.717 72.7709 25.6837C72.7276 25.6503 72.6922 25.6079 72.6671 25.5593C72.6421 25.5108 72.6279 25.4573 72.6258 25.4027C72.5974 25.1404 72.7605 25.0199 72.9755 24.9608Z" fill="white"/>
<path d="M74.3461 39.0345C74.1098 39.0203 73.9325 38.914 73.9372 38.6469C73.9333 38.5928 73.9414 38.5386 73.961 38.488C73.9806 38.4375 74.0112 38.3919 74.0505 38.3546C74.0899 38.3173 74.137 38.2892 74.1885 38.2723C74.2401 38.2554 74.2947 38.2502 74.3485 38.257C74.3946 38.2547 74.4408 38.2619 74.4841 38.2779C74.5275 38.294 74.5671 38.3187 74.6007 38.3505C74.6343 38.3823 74.661 38.4205 74.6794 38.463C74.6978 38.5054 74.7074 38.5511 74.7077 38.5973C74.7173 38.6505 74.7152 38.7051 74.7016 38.7574C74.6879 38.8097 74.663 38.8583 74.6285 38.9C74.5941 38.9416 74.551 38.9752 74.5022 38.9985C74.4534 39.0217 74.4001 39.034 74.3461 39.0345Z" fill="white"/>
<path d="M50.3487 63.6677C50.3468 63.7594 50.3101 63.847 50.2461 63.9126C50.182 63.9783 50.0954 64.0172 50.0038 64.0214C49.9121 64.0256 49.8223 63.9948 49.7525 63.9353C49.6827 63.8758 49.6382 63.7919 49.6279 63.7008C49.6216 63.6544 49.6256 63.6073 49.6395 63.5627C49.6535 63.518 49.6771 63.477 49.7087 63.4425C49.7402 63.408 49.779 63.3809 49.8222 63.363C49.8654 63.3452 49.9121 63.337 49.9588 63.3392C50.1856 63.3297 50.292 63.4644 50.3487 63.6677Z" fill="white"/>
<path d="M45.1683 76.8717C45.1752 76.9179 45.1719 76.9651 45.1587 77.0099C45.1455 77.0547 45.1227 77.0961 45.0919 77.1312C45.0611 77.1662 45.023 77.1942 44.9802 77.2131C44.9375 77.2319 44.8912 77.2413 44.8445 77.2404C44.7984 77.2485 44.7511 77.2459 44.7061 77.2329C44.6611 77.2198 44.6197 77.1967 44.5851 77.1652C44.5504 77.1338 44.5234 77.0948 44.5061 77.0513C44.4888 77.0078 44.4817 76.961 44.4853 76.9143C44.4835 76.836 44.5107 76.7598 44.5618 76.7005C44.6129 76.6411 44.6841 76.6028 44.7618 76.5929C44.8071 76.5802 44.8545 76.5776 44.9009 76.5853C44.9473 76.593 44.9914 76.6108 45.0302 76.6374C45.0689 76.664 45.1014 76.6987 45.1252 76.7392C45.1491 76.7797 45.1638 76.8249 45.1683 76.8717Z" fill="white"/>
<path d="M77.6195 57.8302C77.696 57.8223 77.7728 57.8417 77.8364 57.885C77.8999 57.9282 77.9462 57.9925 77.9669 58.0665C78.0118 58.2792 77.8748 58.4092 77.6739 58.4423C77.6359 58.4505 77.5966 58.4508 77.5585 58.4431C77.5205 58.4355 77.4843 58.4202 77.4524 58.398C77.4205 58.3758 77.3935 58.3474 77.3731 58.3143C77.3526 58.2813 77.3392 58.2444 77.3336 58.206C77.2887 58.0004 77.4045 57.8751 77.6195 57.8302Z" fill="white"/>
<path d="M54.6902 73.0336C54.6932 73.079 54.6854 73.1245 54.6674 73.1662C54.6494 73.208 54.6216 73.2448 54.5865 73.2737C54.5514 73.3026 54.5099 73.3227 54.4654 73.3323C54.421 73.3419 54.3749 73.3408 54.331 73.3291C54.2935 73.3266 54.257 73.3163 54.2238 73.2989C54.1905 73.2815 54.1613 73.2573 54.1379 73.228C54.1146 73.1986 54.0976 73.1647 54.0881 73.1283C54.0786 73.092 54.0768 73.0541 54.0828 73.0171C54.0817 72.9719 54.0906 72.9271 54.1091 72.8858C54.1276 72.8446 54.155 72.808 54.1895 72.7787C54.2239 72.7495 54.2645 72.7283 54.3082 72.7168C54.3519 72.7053 54.3977 72.7037 54.442 72.7122C54.5172 72.7228 54.5852 72.7624 54.6315 72.8224C54.6779 72.8825 54.699 72.9583 54.6902 73.0336Z" fill="white"/>
<path d="M0.574294 28.8627C0.571215 28.9389 0.538259 29.0109 0.482543 29.0631C0.426826 29.1153 0.352822 29.1435 0.276512 29.1415C0.0968973 29.1415 0.00236335 29.0376 0 28.8603C0 28.6476 0.0968976 28.5082 0.326142 28.5413C0.363603 28.5459 0.39977 28.558 0.432556 28.5767C0.465343 28.5954 0.494101 28.6204 0.51717 28.6503C0.54024 28.6802 0.557165 28.7143 0.566969 28.7508C0.576773 28.7872 0.579263 28.8253 0.574294 28.8627Z" fill="white"/>
<path d="M15.7375 36.6239C15.305 36.6239 15.1916 36.5341 15.1892 36.3663C15.1869 36.3288 15.1924 36.2913 15.2054 36.256C15.2183 36.2208 15.2384 36.1886 15.2643 36.1616C15.2903 36.1345 15.3216 36.1131 15.3563 36.0987C15.391 36.0843 15.4282 36.0772 15.4657 36.0779C15.503 36.0728 15.541 36.0758 15.577 36.0867C15.6131 36.0976 15.6464 36.1161 15.6746 36.141C15.7029 36.1659 15.7254 36.1966 15.7408 36.231C15.7561 36.2653 15.7639 36.3026 15.7635 36.3403C15.7635 36.4797 15.669 36.6097 15.7375 36.6239Z" fill="white"/>
<path d="M4.56112 19.0973C4.48622 19.0907 4.41702 19.0546 4.36871 18.997C4.32041 18.9394 4.29695 18.865 4.30351 18.7901C4.29896 18.7454 4.30474 18.7002 4.32041 18.6581C4.33608 18.616 4.36122 18.5781 4.39388 18.5473C4.42655 18.5164 4.46586 18.4935 4.50879 18.4803C4.55172 18.4671 4.59712 18.4639 4.64147 18.471C4.67901 18.472 4.71593 18.4809 4.74984 18.4971C4.78376 18.5132 4.81392 18.5362 4.8384 18.5647C4.86288 18.5932 4.88114 18.6265 4.89199 18.6625C4.90285 18.6984 4.90607 18.7362 4.90144 18.7735C4.90589 18.8186 4.9 18.8641 4.88421 18.9066C4.86843 18.949 4.84317 18.9873 4.81035 19.0185C4.77754 19.0497 4.73803 19.0731 4.69484 19.0867C4.65165 19.1004 4.60591 19.104 4.56112 19.0973Z" fill="white"/>
<path d="M12.8848 26.3741C12.8712 26.4389 12.8338 26.4964 12.7801 26.5353C12.7263 26.5742 12.6601 26.5917 12.5941 26.5844C12.3767 26.5844 12.2278 26.4662 12.2467 26.2559C12.2495 26.209 12.2628 26.1633 12.2857 26.1222C12.3085 26.0811 12.3402 26.0456 12.3785 26.0184C12.4168 25.9912 12.4608 25.9729 12.5071 25.965C12.5534 25.957 12.6009 25.9595 12.6461 25.9723C12.8234 26.0006 12.9108 26.1259 12.8848 26.3741Z" fill="white"/>
<path d="M63.742 29.4062C63.5766 29.3731 63.4631 29.2904 63.475 29.1061C63.4748 29.0681 63.4826 29.0305 63.4978 28.9957C63.5131 28.9609 63.5355 28.9297 63.5635 28.9041C63.5916 28.8785 63.6247 28.859 63.6607 28.847C63.6968 28.835 63.7349 28.8307 63.7727 28.8343C63.8105 28.8316 63.8483 28.8376 63.8834 28.8516C63.9186 28.8657 63.95 28.8876 63.9755 28.9155C64.001 28.9435 64.0198 28.9769 64.0305 29.0131C64.0412 29.0494 64.0436 29.0877 64.0374 29.125C64.028 29.3093 63.9027 29.3802 63.742 29.4062Z" fill="white"/>
<path d="M7.37112 15.2805C7.35222 15.4577 7.28132 15.5877 7.08752 15.5783C7.02484 15.5783 6.96473 15.5534 6.92041 15.509C6.87609 15.4647 6.85119 15.4046 6.85119 15.3419C6.84187 15.304 6.84075 15.2646 6.84792 15.2262C6.85509 15.1878 6.87037 15.1514 6.89275 15.1194C6.91512 15.0874 6.94407 15.0605 6.97766 15.0406C7.01126 15.0207 7.04871 15.0082 7.08752 15.004C7.2695 14.9803 7.32386 15.1363 7.37112 15.2805Z" fill="white"/>
<path d="M37.6386 74.5226C37.8041 74.5533 37.9175 74.6478 37.8939 74.8227C37.8702 74.9976 37.7544 75.1039 37.5866 75.059C37.5363 75.0372 37.4913 75.0048 37.4546 74.964C37.4179 74.9232 37.3904 74.875 37.3739 74.8227C37.3432 74.6336 37.4637 74.5391 37.6386 74.5226Z" fill="white"/>
<path d="M15.6689 46.3751C15.6027 46.5712 15.5224 46.687 15.3404 46.6752C15.3104 46.6732 15.2811 46.6651 15.2544 46.6513C15.2277 46.6376 15.2041 46.6185 15.185 46.5952C15.166 46.5719 15.1519 46.545 15.1437 46.5161C15.1354 46.4872 15.1332 46.4569 15.1372 46.4271C15.1372 46.2735 15.2459 46.134 15.4278 46.1907C15.5247 46.2096 15.598 46.3136 15.6689 46.3751Z" fill="white"/>
<path d="M28.9156 16.0628C28.7455 16.0439 28.6202 15.9541 28.6226 15.7839C28.6236 15.7461 28.6325 15.709 28.6488 15.6749C28.6651 15.6408 28.6884 15.6105 28.7171 15.586C28.7459 15.5615 28.7794 15.5433 28.8157 15.5326C28.8519 15.5219 28.89 15.5189 28.9275 15.5239C28.959 15.5218 28.9907 15.5265 29.0203 15.5377C29.0499 15.5488 29.0768 15.5661 29.0992 15.5885C29.1216 15.6109 29.1389 15.6378 29.1501 15.6674C29.1612 15.697 29.1659 15.7287 29.1638 15.7603C29.1695 15.7968 29.1674 15.834 29.1577 15.8697C29.148 15.9053 29.1308 15.9385 29.1074 15.9671C29.084 15.9956 29.0548 16.0189 29.0218 16.0354C28.9887 16.0519 28.9526 16.0612 28.9156 16.0628Z" fill="white"/>
<path d="M38.9929 74.1303C39.0006 74.1693 39.0001 74.2096 38.9913 74.2484C38.9825 74.2872 38.9657 74.3238 38.9418 74.3557C38.918 74.3875 38.8877 74.414 38.8529 74.4334C38.8181 74.4528 38.7796 74.4647 38.74 74.4682C38.5533 74.4919 38.4611 74.3572 38.4516 74.1941C38.4469 74.1336 38.4656 74.0736 38.5039 74.0265C38.5422 73.9795 38.5971 73.9489 38.6573 73.9412C38.8227 73.9199 38.955 73.9648 38.9929 74.1303Z" fill="white"/>
<path d="M52.5892 12.7375C52.5941 12.7969 52.5763 12.856 52.5395 12.9029C52.5027 12.9498 52.4495 12.9811 52.3906 12.9904C52.2063 13.0211 52.1141 12.9124 52.1118 12.7399C52.1105 12.7093 52.1159 12.6789 52.1276 12.6506C52.1393 12.6224 52.157 12.5971 52.1795 12.5764C52.202 12.5557 52.2287 12.5401 52.2578 12.5308C52.287 12.5215 52.3178 12.5186 52.3481 12.5224C52.4081 12.521 52.4663 12.5424 52.5111 12.5824C52.5559 12.6223 52.5838 12.6778 52.5892 12.7375Z" fill="white"/>
<path d="M23.6475 5.80814C23.5152 5.80814 23.3757 5.77741 23.3994 5.6238C23.4135 5.52926 23.527 5.43945 23.6168 5.38746C23.6357 5.37564 23.7751 5.47963 23.8082 5.55053C23.872 5.68052 23.7846 5.76796 23.6475 5.80814Z" fill="white"/>
<path d="M69.0027 56.5398C69.1303 56.5398 69.2391 56.5847 69.2391 56.7265C69.238 56.7675 69.2276 56.8077 69.2088 56.8442C69.19 56.8806 69.1632 56.9123 69.1303 56.9369C69.1045 56.9517 69.0755 56.9601 69.0457 56.9616C69.0159 56.963 68.9862 56.9574 68.959 56.9452C68.9318 56.933 68.9079 56.9145 68.8892 56.8913C68.8705 56.8681 68.8576 56.8408 68.8515 56.8116C68.7947 56.6769 68.8562 56.5847 69.0027 56.5398Z" fill="white"/>
<path d="M53.1847 55.559C53.1587 55.6961 53.0713 55.7741 52.9484 55.7363C52.9094 55.7201 52.8747 55.695 52.8472 55.663C52.8197 55.631 52.8001 55.5929 52.79 55.552C52.7813 55.5228 52.7799 55.492 52.7859 55.4622C52.792 55.4324 52.8053 55.4046 52.8247 55.3812C52.8441 55.3578 52.869 55.3396 52.8972 55.3281C52.9254 55.3167 52.9559 55.3124 52.9862 55.3156C53.1162 55.3251 53.18 55.4243 53.1847 55.559Z" fill="white"/>
<path d="M68.8679 18.8562C68.719 18.7901 68.6315 18.705 68.6977 18.5726C68.7171 18.537 68.7453 18.507 68.7797 18.4855C68.8141 18.464 68.8534 18.4517 68.8939 18.4497C68.9238 18.4508 68.9529 18.4595 68.9785 18.4751C69.0041 18.4907 69.0253 18.5125 69.04 18.5386C69.0547 18.5647 69.0625 18.5942 69.0625 18.6241C69.0626 18.6541 69.055 18.6835 69.0404 18.7097C69.0097 18.7759 68.9199 18.8161 68.8679 18.8562Z" fill="white"/>
<path d="M2.45773 19.5346C2.41283 19.6385 2.39392 19.7709 2.2214 19.7425C2.19263 19.74 2.16479 19.7311 2.13997 19.7163C2.11515 19.7016 2.09399 19.6814 2.07808 19.6573C2.06216 19.6332 2.05191 19.6058 2.04808 19.5772C2.04425 19.5486 2.04694 19.5194 2.05596 19.492C2.06963 19.4545 2.09161 19.4205 2.12026 19.3927C2.14891 19.3649 2.18348 19.3439 2.2214 19.3313C2.38447 19.2935 2.41992 19.4235 2.45773 19.5346Z" fill="white"/>
<path d="M21.5964 54.9895C22.2267 54.0142 22.8569 53.0366 23.4871 52.0566C23.6644 51.78 23.9385 51.7706 24.2245 51.773C25.4298 51.773 26.6375 51.773 27.8451 51.773C28.0129 51.773 28.2516 51.6808 28.3178 51.91C28.384 52.1393 28.1855 52.2953 28.0153 52.4229C27.9153 52.4969 27.8045 52.5551 27.6868 52.5954C25.6496 53.3044 23.6266 54.0607 21.7524 55.1644L21.5964 54.9895Z" fill="white"/>
<path d="M40.2997 63.4408C39.8625 61.4391 39.5907 59.4586 39.2102 57.4923C39.1747 57.2985 39.2102 57.0952 39.4253 57.0362C39.5954 56.9913 39.6923 57.1543 39.7798 57.2725C40.432 58.2178 41.0772 59.1632 41.7343 60.092C41.8192 60.2036 41.8673 60.3388 41.872 60.479C41.8767 60.6191 41.8376 60.7573 41.7602 60.8742C41.2781 61.7345 40.7889 62.5877 40.2997 63.4408Z" fill="white"/>
<path fill-rule="evenodd" clip-rule="evenodd" d="M32.9285 64.6461C33.498 63.3014 33.9165 61.8977 34.1764 60.4606C34.1892 60.3934 34.1967 60.3192 34.2043 60.2436C34.2331 59.958 34.2639 59.6525 34.5947 59.6264C34.9179 59.6008 34.9885 59.8968 35.053 60.1669L35.053 60.1669C35.072 60.2464 35.0904 60.3236 35.1146 60.3897C35.1998 60.6327 35.2646 60.8838 35.343 61.1875C35.3844 61.3475 35.4295 61.5222 35.4833 61.7179C36.13 60.4143 36.0869 59.1518 36.0418 57.8282C36.0248 57.3281 36.0074 56.8194 36.0269 56.2964L35.5587 56.8148L35.5586 56.815C34.8589 57.5897 34.2384 58.2767 33.621 58.9717C32.9675 59.7229 32.2521 60.4178 31.4822 61.0491C31.4468 61.0781 31.4114 61.1076 31.3758 61.1373C30.9504 61.4918 30.5061 61.862 29.9129 61.5218C29.377 61.2137 29.4363 60.6702 29.4905 60.1737L29.4905 60.1736C29.497 60.114 29.5035 60.0551 29.5088 59.9974C29.6951 58.3908 30.0056 56.801 30.4376 55.2424C30.4769 55.0887 30.5121 54.9336 30.5556 54.7425L30.5556 54.7424L30.6006 54.5452C30.2278 54.6117 29.978 54.805 29.7407 54.9885C29.6411 55.0656 29.5436 55.141 29.4402 55.2045C28.9416 55.5141 28.4311 55.7694 27.8875 55.3771C27.3737 55.0062 27.5208 54.4918 27.6583 54.0114L27.6819 53.9283C27.7032 53.8473 27.7259 53.7677 27.7493 53.6858C27.7676 53.6221 27.7862 53.557 27.8048 53.4887C27.4819 53.3556 27.2421 53.4857 27.0158 53.6086C26.9489 53.6449 26.8832 53.6805 26.8169 53.7085C25.0919 54.4171 23.4219 55.2528 21.8208 56.209L21.7648 56.2426C21.358 56.4873 20.9258 56.7474 20.4784 56.2751C20.0105 55.7812 20.2421 55.3416 20.5139 54.9068C20.9588 54.1715 21.4178 53.4427 21.9173 52.6497L21.9175 52.6494C22.097 52.3643 22.2818 52.0709 22.4731 51.7659H20.235C20.1973 51.7659 20.1593 51.7664 20.1212 51.767C19.7832 51.772 19.4354 51.7771 19.2613 51.3948C19.0675 50.9694 19.318 50.6291 19.5945 50.3148C22.0035 47.5786 24.8557 45.2672 28.0317 43.4776C28.7903 43.0475 28.977 42.7379 28.6178 41.8493C26.7744 37.3069 27.4881 32.9607 30.1303 28.9761C34.0299 23.0984 39.6688 19.8512 46.558 18.7333C47.8862 18.5183 48.9213 18.0669 49.843 17.0554C52.5829 14.076 55.7363 11.5052 59.2066 9.42175C59.4701 9.25738 59.7422 9.10748 60.022 8.97271C61.258 8.3866 62.0828 8.94671 61.9316 10.3056C61.3738 15.3467 60.1307 20.2104 57.9564 24.8001C57.3604 25.9608 57.2417 27.3084 57.6255 28.5554C59.1546 33.9722 59.0908 39.337 56.4628 44.4324C54.6052 48.0341 51.9464 50.8323 47.7987 51.7895C47.1962 51.9278 47.21 52.301 47.2264 52.7453L47.2268 52.7561C47.3337 55.8704 46.9436 58.9817 46.0711 61.9732C45.9035 62.5654 45.7021 63.1492 45.5008 63.7325L45.4661 63.8331C45.4286 63.9862 45.3459 64.1244 45.2287 64.2298C45.1115 64.3352 44.9653 64.4029 44.8091 64.424C44.412 64.4689 44.1781 64.2254 44.0032 63.9064C43.5589 63.0934 43.1146 62.2804 42.6135 61.3682C42.201 61.835 41.954 62.3365 41.7159 62.8199C41.6021 63.051 41.4902 63.278 41.3633 63.4952C41.3016 63.6018 41.2412 63.7095 41.1808 63.8171L41.1808 63.8172L41.1808 63.8172L41.1807 63.8172L41.1807 63.8173L41.1807 63.8173L41.1807 63.8173L41.1806 63.8174L41.1806 63.8174L41.1806 63.8174L41.1806 63.8175L41.1806 63.8175L41.1805 63.8175L41.1805 63.8176L41.1805 63.8176L41.1805 63.8177L41.1804 63.8177L41.1804 63.8177C41.0282 64.0891 40.8758 64.3607 40.7016 64.6178L40.6911 64.6331C40.4858 64.9318 40.2567 65.2654 39.8082 65.1306C39.3521 64.9935 39.189 64.6579 39.1536 64.2136C39.0023 62.2946 38.7613 60.385 38.4446 58.4471C37.4614 58.9079 36.9746 59.4964 37.0951 60.6828C37.3504 63.1548 37.4803 65.6458 36.795 68.0919C36.4901 69.1743 36.1143 70.2189 35.4431 71.1453C35.0721 71.6511 34.6136 72.0576 33.9708 71.5235C33.6754 71.2871 33.5761 71.4006 33.4319 71.6724C32.3158 73.7691 30.5028 75.1454 28.69 76.5217L28.6898 76.5218L28.6896 76.5219C28.1302 76.9466 27.5709 77.3713 27.032 77.8171C26.9339 77.9213 26.8008 77.9857 26.6582 77.9979C26.5156 78.0101 26.3735 77.9693 26.2592 77.8832C25.9897 77.6634 26.0701 77.3704 26.1717 77.1104C26.6757 75.8398 27.1892 74.5786 27.7037 73.3151L27.8828 72.8753C27.9379 72.7374 28.0027 72.6084 28.0673 72.4798C28.1135 72.3879 28.1595 72.2963 28.2018 72.2017L28.2199 72.1618C28.3178 71.9463 28.4212 71.7187 28.1475 71.5518C27.924 71.4156 27.8249 71.5712 27.7319 71.717C27.7039 71.7609 27.6765 71.8039 27.6465 71.8378C26.8881 72.701 26.0131 73.4543 25.0468 74.0759L24.9985 74.1059C24.5401 74.3913 24.0575 74.6918 23.6146 73.9932C23.4254 73.6905 23.268 73.8724 23.134 74.0273C23.1005 74.0659 23.0686 74.1029 23.0379 74.1302C22.5756 74.5302 22.1177 74.9352 21.6597 75.3403L21.6596 75.3404L21.6594 75.3406L21.6591 75.3408L21.6587 75.3412L21.6578 75.342C21.2314 75.7192 20.8048 76.0965 20.3744 76.47C20.3478 76.4927 20.321 76.5163 20.2941 76.5399L20.294 76.54C20.0419 76.7619 19.7737 76.9978 19.3936 76.7843C19.0285 76.5792 19.1191 76.2441 19.2035 75.9321C19.2164 75.8846 19.2291 75.8376 19.24 75.7917C19.3422 75.4054 19.4296 75.0144 19.5169 74.6234C19.8076 73.3228 20.0982 72.0225 20.9322 70.8995C21.1368 70.6246 20.9447 70.4802 20.7365 70.3238C20.5456 70.1804 20.3412 70.0269 20.417 69.7533C18.9659 71.0626 17.5156 72.3719 16.066 73.6812C15.8837 73.8496 15.6868 74.0014 15.4776 74.135C15.3758 74.2093 15.2509 74.2449 15.1253 74.2353C14.9997 74.2258 14.8816 74.1718 14.7922 74.083C14.7074 74.0126 14.6499 73.9147 14.6297 73.8064C14.6094 73.6981 14.6276 73.5861 14.6811 73.4898C14.9491 72.8031 15.1817 72.1007 15.4143 71.3982L15.4143 71.3982C16.0496 69.4798 16.6849 67.5615 18.0394 65.9649L18.0624 65.9386C18.2568 65.716 18.3982 65.5542 18.0229 65.3268C17.5053 65.0124 17.6495 64.5209 17.7866 64.0742C18.0513 63.2588 18.5641 62.5876 19.0935 61.9472C20.8587 59.805 22.904 57.9099 25.1744 56.313C25.5389 56.0191 25.967 55.8143 26.4246 55.715L26.4762 55.707C26.8613 55.6468 27.2744 55.5823 27.5165 55.9963C27.7693 56.4288 27.5165 56.7691 27.247 57.0834C26.7634 57.6117 26.2165 58.0785 25.6187 58.4731C25.1018 58.8525 24.5662 59.2059 24.014 59.5318C24.4176 58.8768 24.9791 58.3662 25.5468 57.8499L25.5468 57.8499C26.0462 57.3957 26.5505 56.9372 26.9563 56.372C26.791 56.3251 26.6168 56.3193 26.4487 56.3551C26.2806 56.391 26.1239 56.4674 25.9921 56.5776C23.2766 58.4281 20.8093 60.5504 18.9304 63.2777C18.8771 63.3551 18.8115 63.4384 18.743 63.5255C18.4412 63.9089 18.0822 64.3652 18.4577 64.7099C18.8073 65.0308 19.1922 64.7167 19.5578 64.4185C19.6742 64.3235 19.7886 64.2301 19.8994 64.1593C19.9801 64.1071 20.0543 64.045 20.1292 63.9823C20.3393 63.8065 20.5547 63.6261 20.9345 63.6488C20.5485 64.1294 20.1323 64.5828 19.7167 65.0356C18.906 65.9188 18.0976 66.7995 17.5195 67.8745C16.8229 69.1697 16.3453 70.582 15.8608 72.0144C15.7371 72.3802 15.613 72.7472 15.4847 73.114C15.8212 73.1013 15.9953 72.9093 16.1589 72.7289C16.2079 72.6749 16.2559 72.622 16.3071 72.5752C16.9365 71.9953 17.5623 71.4119 18.1881 70.8285L18.1891 70.8276C18.9047 70.1605 19.6203 69.4934 20.3413 68.8316C20.7322 68.4768 21.0439 68.0436 21.256 67.5601C22.062 65.729 23.3112 64.1274 24.8908 62.8996C25.4708 62.4265 25.8848 61.7808 26.0725 61.0562C26.3726 60.0967 26.7437 59.1537 27.7268 58.6196C27.5938 58.994 27.4229 59.3518 27.2525 59.7087C26.9808 60.2776 26.7104 60.8438 26.5971 61.4698C26.7559 61.6061 26.902 61.5434 27.0448 61.4821C27.0975 61.4595 27.1498 61.437 27.2021 61.4249C27.244 61.4142 27.2865 61.4022 27.3293 61.3901C27.6271 61.3058 27.9376 61.218 28.1215 61.5549C28.306 61.8928 28.1049 62.1344 27.9124 62.3657L27.9123 62.3658C27.8854 62.3981 27.8587 62.4302 27.8332 62.4624C27.021 63.4414 26.1242 64.3469 25.1531 65.1684C25.4463 64.3354 25.9274 63.7538 26.3945 63.1891C26.5899 62.9528 26.783 62.7194 26.9587 62.4718C24.6143 63.2092 21.5821 67.0355 21.2867 69.7179C21.7136 69.567 21.9941 69.2631 22.2691 68.9652C22.4249 68.7964 22.5789 68.6296 22.7567 68.4937C22.7898 68.4679 22.8224 68.436 22.8554 68.4037C22.9802 68.2816 23.1105 68.154 23.2955 68.3353C23.4547 68.4899 23.3339 68.6664 23.2298 68.8184L23.2175 68.8363C22.9395 69.3193 22.6234 69.7792 22.2722 70.2118C20.788 71.7834 20.3201 73.7568 19.8663 75.9831C20.7452 75.3073 21.5051 74.603 22.2461 73.9163C22.6349 73.5559 23.0185 73.2004 23.4113 72.8564C24.0735 72.2765 24.5289 71.5264 24.9865 70.7726C25.3178 70.227 25.6502 69.6795 26.063 69.1932C25.999 70.1262 25.5562 70.8998 25.0911 71.7124C24.7314 72.3408 24.3584 72.9925 24.1369 73.7592C25.4229 73.1905 26.2119 72.3709 26.9965 71.5558L27.0391 71.5116C27.6631 70.8636 28.1184 70.0641 28.5739 69.2642C28.7015 69.0401 28.8291 68.8161 28.9605 68.5953C29.093 69.0551 28.9521 69.4591 28.8086 69.8708C28.6961 70.1934 28.582 70.5206 28.5965 70.883C28.9452 70.8279 29.1233 70.6022 29.2946 70.3849L29.2946 70.3849C29.3098 70.3656 29.325 70.3464 29.3402 70.3274L29.367 70.2941L29.3764 70.2827C30.7944 68.5787 31.6121 66.6432 31.6358 64.4003C31.6441 64.1212 31.6678 63.8427 31.7067 63.5661C31.7256 63.4054 31.7941 63.2494 31.9761 63.2376C32.1581 63.2257 32.2408 63.3628 32.3093 63.5094C32.3479 63.6012 32.3763 63.6985 32.4055 63.7984C32.4889 64.0841 32.5783 64.3904 32.9285 64.6461ZM37.0101 57.8941C37.0277 57.6199 37.0429 57.3455 37.0582 57.0711L37.0582 57.0711C37.0943 56.423 37.1304 55.7748 37.1968 55.1289C37.3546 53.5507 37.417 51.9644 37.3835 50.3786C37.3599 49.1 36.8494 48.7928 35.7528 49.4333C34.4203 50.211 33.1824 51.1301 31.9469 52.0475L31.9468 52.0475L31.9467 52.0476L31.9466 52.0477L31.9465 52.0477L31.9464 52.0478L31.9463 52.0479L31.9463 52.0479L31.9462 52.048L31.9461 52.0481L31.946 52.0482L31.9459 52.0482L31.9458 52.0483L31.9457 52.0484L31.9456 52.0484L31.9455 52.0485L31.9454 52.0486L31.9453 52.0486C31.3604 52.4829 30.776 52.9169 30.1824 53.3352C29.7651 53.6509 29.3225 53.9315 28.8589 54.1742C29.5516 52.1188 30.4719 50.1473 31.6027 48.2965C33.1002 45.7493 34.856 43.3632 36.8423 41.1757C37.2979 40.667 37.6474 40.0724 37.8703 39.4269C40.4109 32.351 43.8591 25.7832 48.7417 20.0119C49.2357 19.4258 49.7131 19.1824 50.4835 19.2651C53.121 19.5534 55.3331 20.5177 56.7866 22.8692C56.9752 23.1322 57.0862 23.4428 57.1071 23.7657C57.128 24.0887 57.0579 24.411 56.9048 24.6961C53.804 31.2497 50.0747 37.3896 45.1613 42.7592C44.6981 43.2613 44.3647 43.869 44.1899 44.5293C42.961 49.0394 40.8747 53.2704 38.0452 56.9913C37.8719 57.2181 37.6881 57.4366 37.5043 57.6551C37.4124 57.7643 37.3205 57.8736 37.2299 57.9839L37.0101 57.8941ZM60.4262 9.84956C58.5537 10.9536 56.7773 12.2129 55.1157 13.6144C57.1411 13.8602 58.5993 14.7393 59.892 16.1337C60.4338 14.1542 60.7976 12.1302 60.9792 10.0859C61.0288 9.61322 60.7003 9.68648 60.4262 9.84956ZM57.5712 22.7535C56.1366 20.2153 53.9009 19.0927 51.1074 18.6389C52.6081 18.301 54.1538 18.7453 56.7534 20.1845C55.9806 19.0312 55.8766 19.0029 50.6962 17.9275C50.7279 17.7974 50.7989 17.6802 50.8995 17.5919C51.0001 17.5035 51.1255 17.4482 51.2586 17.4336C53.6078 16.8877 56.4249 18.0575 57.7649 20.1302C58.474 21.2221 58.4574 21.5222 57.5712 22.7535ZM51.9205 16.7411C55.7893 17.1168 55.7893 17.1168 58.6088 20.1277C59.2351 18.9153 58.4741 17.5541 56.6023 16.5378C54.7778 15.5476 52.5634 15.6445 51.9205 16.7411ZM59.3226 18.1213C57.0609 15.7414 56.8931 15.6563 53.4638 15.134C53.8467 14.3707 54.4943 14.1887 55.234 14.2785C56.8773 14.5083 58.3722 15.3529 59.4171 16.6418C59.756 17.0355 59.6177 17.361 59.4698 17.7089C59.4135 17.8414 59.3558 17.9772 59.3226 18.1213ZM35.3368 55.1785C34.3944 54.4366 33.3003 53.9113 32.1321 53.64C31.6192 53.5975 31.5058 53.9543 31.4254 54.2663C31.3451 54.5783 31.2813 54.8997 31.7067 55.0202C32.6882 55.3168 33.6278 55.7377 34.5025 56.2728C34.8624 56.4836 35.021 56.2544 35.1765 56.0296C35.2354 55.9444 35.2939 55.8598 35.3628 55.8001C35.416 55.7663 35.4594 55.7191 35.4886 55.6632C35.5178 55.6074 35.5318 55.5448 35.5291 55.4818C35.5265 55.4188 35.5073 55.3577 35.4736 55.3044C35.4398 55.2512 35.3926 55.2078 35.3368 55.1785ZM32.3848 53.1862C32.5049 53.0955 32.6126 52.9985 32.715 52.9061C33.0398 52.6133 33.3122 52.3676 33.765 52.5221C33.8691 52.5576 33.974 52.592 34.0791 52.6265C34.8563 52.8817 35.6409 53.1393 36.1614 53.8243C36.2458 53.9749 36.2857 54.1463 36.2764 54.3187C36.2672 54.491 36.2093 54.6573 36.1094 54.798C35.9383 55.0222 35.7672 54.8684 35.6068 54.7244C35.5457 54.6695 35.4862 54.616 35.4288 54.5853C35.1879 54.4706 34.9527 54.3387 34.717 54.2065L34.7169 54.2064L34.7169 54.2064L34.7168 54.2063L34.7167 54.2063L34.7166 54.2063L34.7165 54.2062L34.7164 54.2062L34.7163 54.2061L34.7163 54.2061L34.7162 54.206L34.7161 54.206L34.716 54.2059C34.4664 54.0659 34.2163 53.9257 33.9588 53.8054C33.6172 53.6459 33.2932 53.5259 32.9284 53.3909C32.7581 53.3278 32.5789 53.2614 32.3848 53.1862ZM31.0261 57.3977C31.6112 57.6649 32.2118 57.8969 32.8246 58.0925C33.0281 58.1089 33.2316 58.0606 33.406 57.9545C33.5804 57.8484 33.7169 57.69 33.7959 57.5017C33.9584 57.1654 33.689 57.0587 33.4536 56.9654L33.4536 56.9654L33.4535 56.9654C33.3945 56.942 33.3376 56.9194 33.2901 56.8943C32.749 56.5942 32.1818 56.3579 31.6146 56.1215L31.6145 56.1215C31.3711 56.0175 31.0473 55.8875 30.9717 56.3271C30.9549 56.4223 30.915 56.5232 30.8748 56.625C30.7621 56.9102 30.6465 57.2027 31.0261 57.3977ZM33.9708 52.0495C34.6018 51.6926 35.9962 51.9951 36.2254 52.5009C36.2521 52.5699 36.2644 52.6437 36.2616 52.7176C36.2587 52.7916 36.2408 52.8642 36.2089 52.931C36.1254 53.0883 36.0004 53.019 35.8877 52.9565C35.8632 52.9429 35.8393 52.9297 35.8166 52.9192L33.9708 52.0495ZM31.5742 59.65C31.8649 59.7682 32.0114 59.5224 32.1556 59.2411C31.9467 58.9089 31.6074 58.8159 31.2689 58.7231C31.1211 58.6826 30.9734 58.6421 30.8368 58.5818C30.5272 58.4447 30.4043 58.6739 30.4398 58.8937C30.516 59.3618 30.8782 59.4548 31.233 59.5459C31.3512 59.5762 31.4685 59.6063 31.5742 59.65ZM34.9988 51.3098C35.1272 51.2264 35.2427 51.1249 35.3531 51.0277C35.6246 50.7888 35.866 50.5765 36.197 50.726C36.4333 50.8324 36.4333 51.5154 36.2726 51.6453C35.9651 51.8874 35.6958 51.7182 35.3916 51.5273C35.2681 51.4497 35.1387 51.3685 34.9988 51.3098ZM31.0127 60.403C31.1088 60.3045 31.2125 60.1983 31.3378 60.1132C31.2518 60.063 31.1712 60.0046 31.0938 59.9486C30.8288 59.7567 30.6028 59.5931 30.3358 59.884C30.1774 60.0565 30.1491 60.5268 30.3523 60.6379C30.6321 60.7931 30.8045 60.6164 31.0127 60.403ZM30.6952 58.0429C31.4941 57.8822 32.1014 58.2225 32.7041 58.5699L32.6025 58.8299L30.6952 58.0429ZM32.6041 55.8341C32.2722 55.6963 31.9145 55.6315 31.5553 55.6441L33.4791 56.4429C33.2345 56.1796 32.9361 55.9719 32.6041 55.8341ZM32.763 41.0292L37.3952 33.8422C36.8708 33.8142 36.7261 34.0846 36.6007 34.3187C36.5781 34.361 36.5561 34.4022 36.5326 34.4402C36.2114 34.9389 35.8867 35.4357 35.5621 35.9324L35.5618 35.9329C34.5944 37.4134 33.6271 38.8936 32.7512 40.4242C32.2306 41.3291 31.4189 41.6941 30.6002 42.0623L30.6001 42.0623C30.3968 42.1538 30.193 42.2454 29.9932 42.3456C29.5599 42.5584 29.4626 42.1912 29.382 41.8872C29.3632 41.8164 29.3453 41.7491 29.3243 41.6933C27.8118 37.6472 28.1569 33.7312 30.3973 30.0633C33.9045 24.3179 39.215 21.1369 45.6598 19.6645C46.0914 19.5646 46.5325 19.5024 46.9728 19.4404C47.1159 19.4202 47.259 19.4 47.4016 19.3785C47.4288 19.3785 47.4599 19.4037 47.506 19.441C47.532 19.462 47.5627 19.4869 47.6001 19.5133C47.3438 19.8461 47.0857 20.1772 46.828 20.5079L46.828 20.508L46.8279 20.508L46.8278 20.5081C46.2896 21.1987 45.7529 21.8873 45.2368 22.5856C41.7012 27.3625 38.9328 32.6619 37.0312 38.2924C36.6862 39.3158 36.1662 39.9255 35.1405 40.1831C34.6431 40.3115 34.1685 40.4943 33.614 40.708C33.3518 40.809 33.0718 40.9169 32.763 41.0292ZM33.0278 42.6812C31.3073 44.471 29.5868 46.2617 27.8662 48.0531C27.7813 48.0892 27.7295 48.1586 27.6781 48.2336C27.7257 48.1596 27.7658 48.0809 27.7977 47.9987C28.2613 47.2034 28.8898 46.5189 29.5035 45.8505C29.6813 45.6569 29.8578 45.4646 30.0287 45.2714C30.5633 44.6671 31.1153 44.0839 31.6676 43.5003L31.6683 43.4995C31.9021 43.2525 32.1359 43.0055 32.3684 42.7568C28.0401 44.4902 24.1451 47.1525 20.9582 50.5559C22.3644 50.9198 23.3404 50.5251 24.0943 49.4711C24.515 48.8732 24.9877 48.287 25.6967 47.9798L23.5248 50.6646C23.7612 50.6646 23.9723 50.6572 24.1655 50.6504H24.1656H24.1656C24.5402 50.6373 24.8483 50.6265 25.146 50.6764C26.5357 50.9104 27.5543 50.5086 28.3555 49.2749C28.7432 48.6769 29.26 48.1634 29.7772 47.6495C30.004 47.4241 30.2309 47.1986 30.447 46.9659C29.9914 47.7035 29.4617 48.3753 28.9277 49.0528C28.5171 49.5735 28.1039 50.0977 27.7197 50.6575C28.4831 50.8915 28.9345 50.778 29.3126 50.0808C30.8464 47.259 32.5008 44.5317 34.5663 42.0596C34.5795 42.0413 34.596 42.0227 34.613 42.0034C34.6906 41.9154 34.7811 41.8129 34.6396 41.6578C33.9731 41.7926 33.4792 42.2085 33.0278 42.6812ZM48.2572 45.974L48.2552 45.9773C47.789 46.7455 47.3106 47.5338 46.8131 48.3532C46.7237 47.9358 46.637 47.5346 46.5529 47.1453L46.5528 47.1447C46.3146 46.042 46.097 45.0347 45.8961 44.0235C45.8527 43.8002 46.0191 43.6185 46.1707 43.4531C46.1923 43.4294 46.2137 43.4061 46.2341 43.3831C50.2663 38.8026 53.6747 33.7087 56.3705 28.234C56.3869 28.1997 56.4155 28.172 56.4575 28.1313C56.4821 28.1075 56.5113 28.0792 56.5454 28.0426C56.8791 28.5801 56.9978 29.1686 57.1146 29.7479L57.1147 29.7485C57.1402 29.8745 57.1655 30.0001 57.1929 30.1247C58.3982 35.662 57.9397 40.9559 54.7374 45.7913C53.0949 48.2752 50.8875 50.0713 48.0066 50.9907C47.333 51.2057 47.1274 51.0947 47.014 50.3455C46.8581 49.5237 47.0349 48.6736 47.5056 47.9821C48.2935 46.7684 49.0387 45.5266 49.7833 44.2859L49.7841 44.2846C50.0309 43.8733 50.2777 43.4622 50.5259 43.0522C50.6467 42.8509 50.7522 42.6416 50.8572 42.4334C50.9124 42.3238 50.9675 42.2145 51.0246 42.1068L50.7103 41.9343C49.9053 43.2583 49.1012 44.5832 48.2572 45.974ZM44.2322 61.8504C44.3662 62.0622 44.5045 62.2807 44.6508 62.5073C46.1373 58.863 46.5178 51.0403 45.3574 47.9018C45.2912 48.1297 45.2257 48.357 45.1603 48.5837C44.5509 50.6966 43.957 52.7558 43.0201 54.6917C43.0529 54.3881 43.1227 54.0897 43.228 53.8031C43.9935 51.6037 44.6249 49.3599 45.1187 47.0841C45.1256 47.0492 45.1329 47.0143 45.1401 46.9793C45.2292 46.5484 45.3218 46.1009 44.9131 45.607C43.9205 49.2158 42.3205 52.4276 40.4464 55.5141C40.2029 55.9135 40.2502 56.2444 40.7229 56.5729C41.081 55.7868 41.4319 55.0196 41.7795 54.2596C41.9963 53.7857 42.2117 53.3146 42.4269 52.8436C42.1055 54.0732 41.6907 55.2765 41.1861 56.4429C41.1737 56.4734 41.1608 56.5037 41.148 56.534C41.0368 56.797 40.9287 57.0527 41.1152 57.3197C41.5023 57.8784 41.8984 58.4293 42.3277 59.0263C42.4777 59.2349 42.6317 59.4491 42.7908 59.6713C43.1088 58.9951 43.3842 58.3989 43.6504 57.8228C43.7442 57.6196 43.8369 57.4189 43.9299 57.2181C43.8212 57.9781 43.6056 58.7188 43.2895 59.4184C43.1429 59.7776 43.0484 60.0896 43.3155 60.4606C43.6312 60.9003 43.9204 61.3574 44.2322 61.8504Z" fill="white"/>
<path d="M38.409 28.5176C38.279 29.1841 38.279 29.1841 37.8465 29.5622C37.8299 29.0163 37.8299 29.0163 38.409 28.5176Z" fill="white"/>
<path d="M53.7331 35.8345C53.8017 36.4419 53.5441 36.7799 53.0596 37.1249C53.0249 36.8666 53.071 36.6039 53.1916 36.3728C53.3122 36.1418 53.5014 35.9537 53.7331 35.8345Z" fill="white"/>
<path d="M27.8664 48.053C27.6853 48.4346 27.4002 48.7574 27.0439 48.9842C27.1978 48.5889 27.4589 48.2443 27.7979 47.9892L27.8664 48.053Z" fill="white"/>
<path fill-rule="evenodd" clip-rule="evenodd" d="M38.811 41.5113C38.8048 41.0338 38.9117 40.5617 39.123 40.1335C41.0988 35.5604 43.5614 31.2496 46.2651 27.0807C47.5105 25.1593 49.8101 25.034 51.1383 26.6931C51.8473 27.577 52.0009 28.5838 51.5046 29.5764C49.2051 34.1589 46.6337 38.5831 43.5567 42.6977C42.8476 43.643 41.9165 44.2362 40.6663 44.0046C39.4751 43.7825 38.804 42.8773 38.811 41.5113ZM47.5741 27.3477C48.7097 27.4974 49.7589 28.0341 50.5448 28.8674C50.7953 29.1273 50.7528 29.34 50.6015 29.6024C49.7161 31.2031 48.8369 32.8063 47.964 34.4118C47.7726 34.7639 47.6119 34.8537 47.2834 34.5347C46.4649 33.7181 45.4172 33.1699 44.2796 32.963C43.7715 32.878 43.8589 32.6487 44.0432 32.3344C44.9886 30.8029 45.9253 29.2699 46.8533 27.7353C47.0423 27.4423 47.2669 27.2674 47.5741 27.3477ZM47.0659 35.0806C46.1737 34.205 45.0347 33.6235 43.8021 33.4145C43.5091 33.327 43.3295 33.5846 43.1735 33.8682C42.926 34.3379 42.6809 34.8088 42.4357 35.2799L42.4357 35.2799L42.4357 35.2799C41.995 36.1266 41.554 36.9737 41.0985 37.815C40.881 38.2215 40.9212 38.4058 41.4152 38.4933C42.3375 38.651 43.1986 39.0598 43.9038 39.675C44.3079 40.0271 44.5371 40.0058 44.816 39.5332C45.5439 38.309 46.3049 37.1036 47.0659 35.9007C47.2503 35.6124 47.3637 35.3666 47.0659 35.0806ZM39.5907 41.3955C39.6577 40.8065 39.9346 40.2453 40.2157 39.6756C40.3012 39.5024 40.387 39.3285 40.4675 39.1527C40.5 39.0642 40.5662 38.9921 40.6516 38.9522C40.7371 38.9124 40.8349 38.908 40.9236 38.94C41.0052 38.9596 41.0889 38.9764 41.173 38.9932L41.173 38.9932L41.173 38.9932C41.3324 39.0252 41.4936 39.0576 41.6468 39.1101C41.7434 39.1436 41.8445 39.1772 41.9482 39.2116C42.7906 39.4914 43.7986 39.8263 43.866 40.5565C43.9416 41.3766 42.9608 42.2274 42.2116 42.8679C41.9851 43.0869 41.6952 43.2288 41.3833 43.2734C41.0714 43.3179 40.7533 43.2629 40.4746 43.116C39.8388 42.7804 39.6119 42.1801 39.5907 41.3955ZM47.7468 26.8396C49.2948 25.8943 50.6844 26.6033 50.8971 28.4112C50.0125 27.6062 48.922 27.0621 47.7468 26.8396Z" fill="white"/>
</g>
<defs>
<clipPath id="clip0_1223_8">
<rect width="82" height="78" fill="white"/>
</clipPath>
</defs>
</svg>
