<svg width="1440" height="120" viewBox="0 0 1440 120" fill="none" xmlns="http://www.w3.org/2000/svg">
<g clip-path="url(#clip0_1318_111)">
<rect width="1440" height="120" fill="white"/>
<path d="M-73 -4.03871L315.176 -159.122C315.176 -159.122 865.863 149 436.5 68C7.1369 -13 7.13689 196.546 7.13689 196.546L-73 -4.03871Z" fill="#E8E8E8"/>
<path d="M-51 0.793808L337.176 -154.289C337.176 -154.289 887.863 153.833 458.5 72.8325C29.1369 -8.1675 29.1369 201.378 29.1369 201.378L-51 0.793808Z" fill="url(#paint0_linear_1318_111)"/>
<g opacity="0.25" clip-path="url(#clip1_1318_111)">
<path d="M1196.85 90.9046C1196.83 92.8213 1195.17 94.5276 1193.32 94.5252C1191.43 94.5252 1189.79 92.8425 1189.81 90.9117C1189.83 89.9698 1190.21 89.071 1190.88 88.4082C1191.55 87.7454 1192.45 87.3715 1193.39 87.3666C1194.32 87.3803 1195.2 87.7601 1195.85 88.423C1196.5 89.0859 1196.86 89.978 1196.85 90.9046Z" fill="#7C7C7C"/>
<path d="M1146.95 37.0911C1146.95 36.6397 1147.04 36.1932 1147.21 35.7771C1147.39 35.3611 1147.65 34.9838 1147.97 34.6668C1148.29 34.3498 1148.67 34.0993 1149.09 33.9297C1149.51 33.7601 1149.95 33.6747 1150.41 33.6784C1152.25 33.6784 1153.81 35.2997 1153.79 37.1857C1153.76 39.0243 1152.2 40.622 1150.42 40.6267C1149.49 40.6155 1148.6 40.2373 1147.95 39.5749C1147.3 38.9125 1146.94 38.0195 1146.95 37.0911Z" fill="#7C7C7C"/>
<path d="M1207.56 25.8345C1208.47 25.8345 1209.34 26.1956 1209.98 26.8382C1210.62 27.4809 1210.98 28.3525 1210.98 29.2614C1210.98 30.1702 1210.62 31.0419 1209.98 31.6845C1209.34 32.3272 1208.47 32.6882 1207.56 32.6882C1207.11 32.6942 1206.67 32.6117 1206.26 32.4455C1205.85 32.2794 1205.48 32.0329 1205.16 31.7205C1204.85 31.4081 1204.6 31.036 1204.43 30.6259C1204.26 30.2159 1204.17 29.7761 1204.17 29.3323C1204.16 28.8796 1204.24 28.4295 1204.41 28.008C1204.57 27.5865 1204.82 27.202 1205.13 26.8767C1205.45 26.5514 1205.83 26.2918 1206.24 26.1129C1206.66 25.934 1207.11 25.8394 1207.56 25.8345Z" fill="#7C7C7C"/>
<path d="M1159.86 26.2268C1159.86 26.5063 1159.81 26.7837 1159.71 27.0431C1159.6 27.3025 1159.45 27.5389 1159.25 27.7386C1159.06 27.9384 1158.83 28.0976 1158.57 28.2072C1158.31 28.3168 1158.03 28.3747 1157.76 28.3775C1157.19 28.3548 1156.66 28.1183 1156.26 27.7161C1155.87 27.3139 1155.64 26.7763 1155.63 26.2126C1155.64 25.6475 1155.87 25.1086 1156.27 24.7112C1156.67 24.3137 1157.21 24.0892 1157.78 24.0856C1158.97 24.0643 1159.86 24.9908 1159.86 26.2268Z" fill="#7C7C7C"/>
<path d="M1152.22 47.8656C1152.68 47.8726 1153.12 48.056 1153.44 48.3773C1153.77 48.6987 1153.96 49.1334 1153.97 49.5906C1153.98 50.0478 1153.82 50.4923 1153.51 50.8314C1153.21 51.1705 1152.78 51.378 1152.32 51.4106C1152.08 51.4185 1151.84 51.3783 1151.62 51.2925C1151.4 51.2066 1151.19 51.0767 1151.02 50.9105C1150.84 50.7443 1150.7 50.5451 1150.61 50.3246C1150.51 50.1041 1150.46 49.8667 1150.46 49.6263C1150.46 49.3943 1150.5 49.1644 1150.59 48.9499C1150.68 48.7354 1150.81 48.5406 1150.97 48.3768C1151.14 48.213 1151.33 48.0835 1151.55 47.9957C1151.76 47.9079 1151.99 47.8637 1152.22 47.8656Z" fill="#7C7C7C"/>
<path d="M1210.15 48.0169C1210.44 48.0192 1210.72 48.1069 1210.96 48.269C1211.2 48.431 1211.39 48.6602 1211.5 48.9275C1211.6 49.1949 1211.63 49.4886 1211.57 49.7715C1211.52 50.0544 1211.38 50.314 1211.17 50.5175C1210.97 50.721 1210.71 50.8593 1210.42 50.9151C1210.14 50.9709 1209.85 50.9415 1209.58 50.8308C1209.31 50.7201 1209.09 50.533 1208.93 50.293C1208.76 50.053 1208.68 49.7709 1208.68 49.4821C1208.68 49.289 1208.72 49.0978 1208.79 48.9196C1208.87 48.7413 1208.97 48.5795 1209.11 48.4434C1209.25 48.3072 1209.41 48.1995 1209.59 48.1263C1209.77 48.0531 1209.96 48.0159 1210.15 48.0169Z" fill="#7C7C7C"/>
<path d="M1140.9 79.1493C1140.88 79.6503 1140.64 79.941 1140.15 79.9457C1140.05 79.9547 1139.95 79.9417 1139.85 79.9077C1139.76 79.8737 1139.67 79.8194 1139.6 79.7486C1139.52 79.6777 1139.47 79.5919 1139.43 79.4971C1139.39 79.4022 1139.38 79.3005 1139.38 79.1989C1139.38 79.1044 1139.39 79.0097 1139.43 78.9212C1139.46 78.8327 1139.51 78.7523 1139.58 78.6853C1139.64 78.6184 1139.73 78.5663 1139.81 78.5327C1139.9 78.499 1140 78.4844 1140.09 78.4899C1140.19 78.4737 1140.29 78.4784 1140.38 78.5038C1140.48 78.5292 1140.57 78.5746 1140.64 78.637C1140.72 78.6994 1140.78 78.7774 1140.83 78.8657C1140.87 78.9541 1140.89 79.0507 1140.9 79.1493Z" fill="#7C7C7C"/>
<path d="M1183.59 86.4284C1183.52 86.842 1183.3 87.1043 1182.86 87.1067C1182.76 87.1182 1182.67 87.108 1182.58 87.0769C1182.49 87.0458 1182.41 86.9947 1182.34 86.9275C1182.28 86.8603 1182.23 86.7788 1182.2 86.6894C1182.17 86.5999 1182.16 86.505 1182.18 86.4118C1182.17 86.3171 1182.18 86.2221 1182.22 86.1333C1182.25 86.0444 1182.3 85.9637 1182.37 85.8966C1182.44 85.8295 1182.52 85.7774 1182.61 85.744C1182.69 85.7106 1182.79 85.6966 1182.88 85.7028C1183.3 85.7147 1183.53 86.0006 1183.59 86.4284Z" fill="#7C7C7C"/>
<path d="M1146.93 76.0013C1147.4 76.0722 1147.65 76.3132 1147.62 76.7457C1147.62 76.8389 1147.6 76.9313 1147.57 77.0167C1147.53 77.102 1147.47 77.1782 1147.4 77.24C1147.33 77.3018 1147.25 77.3478 1147.16 77.3747C1147.07 77.4015 1146.98 77.4087 1146.89 77.3957C1146.79 77.4002 1146.7 77.3841 1146.61 77.3485C1146.53 77.3128 1146.45 77.2585 1146.39 77.1895C1146.33 77.1205 1146.28 77.0385 1146.26 76.9495C1146.23 76.8605 1146.22 76.7667 1146.24 76.6748C1146.26 76.2187 1146.56 76.058 1146.93 76.0013Z" fill="#7C7C7C"/>
<path d="M1171.72 89.1179C1172.17 89.1534 1172.44 89.3802 1172.45 89.8151C1172.45 90.3043 1172.14 90.5383 1171.67 90.5241C1171.57 90.5316 1171.48 90.5174 1171.39 90.4825C1171.3 90.4476 1171.23 90.3931 1171.16 90.3231C1171.1 90.253 1171.05 90.1695 1171.03 90.0789C1171 89.9883 1171 89.8932 1171.02 89.8009C1171.02 89.709 1171.03 89.6174 1171.07 89.532C1171.1 89.4466 1171.15 89.3693 1171.22 89.305C1171.28 89.2408 1171.36 89.1909 1171.45 89.1587C1171.53 89.1265 1171.63 89.1126 1171.72 89.1179Z" fill="#7C7C7C"/>
<path d="M1195.71 78.7168C1195.32 78.6601 1195.09 78.4474 1195.12 78.0338C1195.12 77.9551 1195.13 77.8767 1195.16 77.8037C1195.19 77.7306 1195.23 77.6645 1195.29 77.6096C1195.35 77.5547 1195.42 77.5122 1195.49 77.4847C1195.56 77.4572 1195.64 77.4454 1195.72 77.4501C1195.81 77.4427 1195.89 77.4537 1195.98 77.4823C1196.06 77.5109 1196.13 77.5565 1196.19 77.6161C1196.26 77.6757 1196.31 77.7479 1196.34 77.8281C1196.37 77.9082 1196.39 77.9944 1196.39 78.0811C1196.39 78.471 1196.11 78.6814 1195.71 78.7168Z" fill="#7C7C7C"/>
<path d="M1146.41 80.5909C1146.31 80.9241 1146.12 81.1581 1145.75 81.1179C1145.68 81.1131 1145.62 81.0935 1145.55 81.0604C1145.49 81.0273 1145.44 80.9816 1145.39 80.926C1145.35 80.8705 1145.32 80.8065 1145.3 80.7382C1145.29 80.6698 1145.28 80.5987 1145.3 80.5295C1145.29 80.4509 1145.3 80.372 1145.33 80.2993C1145.36 80.2267 1145.41 80.1624 1145.47 80.1119C1145.53 80.0614 1145.6 80.0261 1145.68 80.0092C1145.76 79.9922 1145.84 79.9939 1145.91 80.0142C1146.05 80.0313 1146.18 80.0998 1146.27 80.2065C1146.36 80.3131 1146.41 80.4502 1146.41 80.5909Z" fill="#7C7C7C"/>
<path d="M1198.82 25.1184C1198.82 25.1952 1198.81 25.2718 1198.78 25.3433C1198.75 25.4147 1198.71 25.4793 1198.65 25.5327C1198.6 25.5861 1198.53 25.6272 1198.46 25.6532C1198.39 25.6791 1198.31 25.6894 1198.23 25.6833C1198.16 25.6903 1198.09 25.6817 1198.03 25.6582C1197.96 25.6346 1197.9 25.5967 1197.85 25.5472C1197.8 25.4976 1197.76 25.4377 1197.74 25.3717C1197.72 25.3058 1197.71 25.2354 1197.71 25.1657C1197.71 25.0968 1197.71 25.0271 1197.73 24.9607C1197.75 24.8943 1197.79 24.8325 1197.83 24.779C1197.87 24.7255 1197.93 24.6814 1197.99 24.6491C1198.05 24.6169 1198.12 24.5973 1198.19 24.5914C1198.57 24.537 1198.74 24.7852 1198.82 25.1184Z" fill="#7C7C7C"/>
<path d="M1199.05 75.798C1199.04 75.8666 1199.02 75.9334 1198.99 75.9944C1198.96 76.0554 1198.92 76.1095 1198.86 76.1534C1198.81 76.1974 1198.75 76.2304 1198.68 76.2506C1198.62 76.2707 1198.55 76.2775 1198.48 76.2707C1198.41 76.2706 1198.35 76.2567 1198.28 76.2298C1198.22 76.203 1198.16 76.1638 1198.12 76.1147C1198.07 76.0655 1198.04 76.0074 1198.01 75.9438C1197.99 75.8802 1197.98 75.8126 1197.98 75.7448C1197.98 75.6771 1198 75.6108 1198.03 75.5499C1198.06 75.4889 1198.1 75.4347 1198.15 75.3904C1198.21 75.3461 1198.27 75.3127 1198.33 75.2921C1198.39 75.2716 1198.46 75.2644 1198.53 75.271C1198.67 75.2741 1198.8 75.3308 1198.9 75.4292C1198.99 75.5276 1199.05 75.6598 1199.05 75.798Z" fill="#7C7C7C"/>
<path d="M1198.66 21.9728C1198.59 21.9815 1198.52 21.9745 1198.45 21.9523C1198.39 21.9302 1198.32 21.8934 1198.27 21.8447C1198.22 21.7961 1198.18 21.7367 1198.16 21.6709C1198.13 21.6052 1198.12 21.5347 1198.13 21.4647C1198.14 21.3422 1198.19 21.2275 1198.28 21.1421C1198.37 21.0567 1198.49 21.0064 1198.61 21.0006C1198.73 20.9948 1198.85 21.0339 1198.95 21.1106C1199.05 21.1873 1199.11 21.2964 1199.13 21.4174C1199.14 21.486 1199.14 21.5565 1199.12 21.6237C1199.11 21.691 1199.07 21.7534 1199.03 21.8065C1198.98 21.8596 1198.93 21.902 1198.86 21.9308C1198.8 21.9595 1198.73 21.9739 1198.66 21.9728Z" fill="#7C7C7C"/>
<path d="M1173.84 35.9591C1173.58 35.9355 1173.37 35.8291 1173.34 35.529C1173.32 35.1745 1173.55 35.0327 1173.86 35.0185C1174.17 35.0043 1174.31 35.2146 1174.31 35.4912C1174.31 35.5536 1174.31 35.6162 1174.28 35.6749C1174.26 35.7336 1174.23 35.7869 1174.18 35.8313C1174.14 35.8756 1174.09 35.91 1174.03 35.932C1173.97 35.9541 1173.91 35.9633 1173.84 35.9591Z" fill="#7C7C7C"/>
<path d="M1169.34 36.6917C1169.05 36.6492 1168.86 36.5192 1168.88 36.2191C1168.88 36.1575 1168.9 36.097 1168.92 36.0413C1168.95 35.9855 1168.99 35.9357 1169.03 35.8949C1169.08 35.8541 1169.13 35.8232 1169.19 35.8042C1169.25 35.7852 1169.31 35.7784 1169.37 35.7842C1169.68 35.7842 1169.8 35.9686 1169.79 36.2569C1169.8 36.3174 1169.79 36.3783 1169.77 36.435C1169.75 36.4918 1169.71 36.5429 1169.67 36.5847C1169.63 36.6265 1169.57 36.6578 1169.51 36.6763C1169.46 36.6949 1169.4 36.7001 1169.34 36.6917Z" fill="#7C7C7C"/>
<path d="M1140.09 42.4536C1140.1 42.5099 1140.09 42.5669 1140.07 42.621C1140.06 42.675 1140.03 42.7248 1139.99 42.7671C1139.95 42.8093 1139.91 42.8431 1139.85 42.866C1139.8 42.889 1139.75 42.9007 1139.69 42.9003C1139.4 42.9263 1139.22 42.8057 1139.2 42.4914C1139.19 42.4367 1139.2 42.3815 1139.21 42.3293C1139.23 42.2771 1139.26 42.2291 1139.3 42.1884C1139.33 42.1477 1139.38 42.1152 1139.43 42.0929C1139.48 42.0705 1139.53 42.059 1139.59 42.0589C1139.65 42.0464 1139.71 42.0472 1139.77 42.0611C1139.83 42.075 1139.88 42.1017 1139.93 42.1393C1139.98 42.1769 1140.02 42.2246 1140.04 42.2789C1140.07 42.3332 1140.09 42.3928 1140.09 42.4536Z" fill="#7C7C7C"/>
<path d="M1202.98 45.9608C1203.03 45.9542 1203.09 45.9601 1203.14 45.978C1203.19 45.9959 1203.24 46.0255 1203.28 46.0645C1203.32 46.1035 1203.35 46.1509 1203.37 46.2033C1203.39 46.2557 1203.4 46.3117 1203.39 46.3673C1203.4 46.4132 1203.39 46.4599 1203.38 46.5045C1203.37 46.5491 1203.35 46.5906 1203.32 46.6266C1203.29 46.6626 1203.25 46.6923 1203.21 46.714C1203.17 46.7356 1203.13 46.7487 1203.08 46.7525C1203.03 46.7643 1202.97 46.7642 1202.92 46.7524C1202.86 46.7405 1202.81 46.717 1202.77 46.6836C1202.73 46.6503 1202.69 46.6078 1202.67 46.5593C1202.64 46.5108 1202.63 46.4573 1202.63 46.4027C1202.6 46.1404 1202.76 46.0199 1202.98 45.9608Z" fill="#7C7C7C"/>
<path d="M1204.35 60.0345C1204.11 60.0203 1203.93 59.914 1203.94 59.6469C1203.93 59.5928 1203.94 59.5386 1203.96 59.488C1203.98 59.4375 1204.01 59.3919 1204.05 59.3546C1204.09 59.3173 1204.14 59.2892 1204.19 59.2723C1204.24 59.2554 1204.29 59.2502 1204.35 59.257C1204.39 59.2547 1204.44 59.2619 1204.48 59.2779C1204.53 59.294 1204.57 59.3187 1204.6 59.3505C1204.63 59.3823 1204.66 59.4205 1204.68 59.4629C1204.7 59.5054 1204.71 59.5511 1204.71 59.5973C1204.72 59.6505 1204.72 59.7051 1204.7 59.7574C1204.69 59.8096 1204.66 59.8583 1204.63 59.8999C1204.59 59.9416 1204.55 59.9752 1204.5 59.9984C1204.45 60.0217 1204.4 60.034 1204.35 60.0345Z" fill="#7C7C7C"/>
<path d="M1180.35 84.6677C1180.35 84.7594 1180.31 84.847 1180.25 84.9127C1180.18 84.9783 1180.1 85.0172 1180 85.0214C1179.91 85.0256 1179.82 84.9948 1179.75 84.9353C1179.68 84.8758 1179.64 84.7919 1179.63 84.7008C1179.62 84.6545 1179.63 84.6073 1179.64 84.5627C1179.65 84.518 1179.68 84.477 1179.71 84.4425C1179.74 84.408 1179.78 84.3809 1179.82 84.363C1179.87 84.3452 1179.91 84.337 1179.96 84.3392C1180.19 84.3297 1180.29 84.4645 1180.35 84.6677Z" fill="#7C7C7C"/>
<path d="M1175.17 97.8717C1175.18 97.9179 1175.17 97.9651 1175.16 98.0099C1175.15 98.0547 1175.12 98.0961 1175.09 98.1312C1175.06 98.1662 1175.02 98.1942 1174.98 98.2131C1174.94 98.2319 1174.89 98.2413 1174.84 98.2404C1174.8 98.2485 1174.75 98.2459 1174.71 98.2329C1174.66 98.2198 1174.62 98.1967 1174.59 98.1652C1174.55 98.1338 1174.52 98.0948 1174.51 98.0513C1174.49 98.0078 1174.48 97.961 1174.49 97.9143C1174.48 97.836 1174.51 97.7598 1174.56 97.7005C1174.61 97.6411 1174.68 97.6028 1174.76 97.5929C1174.81 97.5802 1174.85 97.5776 1174.9 97.5853C1174.95 97.593 1174.99 97.6108 1175.03 97.6374C1175.07 97.664 1175.1 97.6987 1175.13 97.7392C1175.15 97.7797 1175.16 97.8249 1175.17 97.8717Z" fill="#7C7C7C"/>
<path d="M1207.62 78.8302C1207.7 78.8223 1207.77 78.8417 1207.84 78.885C1207.9 78.9282 1207.95 78.9925 1207.97 79.0666C1208.01 79.2793 1207.87 79.4092 1207.67 79.4423C1207.64 79.4505 1207.6 79.4508 1207.56 79.4432C1207.52 79.4355 1207.48 79.4202 1207.45 79.398C1207.42 79.3759 1207.39 79.3474 1207.37 79.3143C1207.35 79.2813 1207.34 79.2444 1207.33 79.206C1207.29 79.0004 1207.4 78.8751 1207.62 78.8302Z" fill="#7C7C7C"/>
<path d="M1184.69 94.0336C1184.69 94.079 1184.69 94.1245 1184.67 94.1662C1184.65 94.208 1184.62 94.2448 1184.59 94.2737C1184.55 94.3026 1184.51 94.3227 1184.47 94.3323C1184.42 94.3419 1184.37 94.3408 1184.33 94.3291C1184.29 94.3266 1184.26 94.3163 1184.22 94.2989C1184.19 94.2815 1184.16 94.2573 1184.14 94.228C1184.11 94.1986 1184.1 94.1647 1184.09 94.1283C1184.08 94.092 1184.08 94.0541 1184.08 94.0171C1184.08 93.9719 1184.09 93.9271 1184.11 93.8858C1184.13 93.8446 1184.16 93.808 1184.19 93.7787C1184.22 93.7495 1184.26 93.7283 1184.31 93.7168C1184.35 93.7053 1184.4 93.7037 1184.44 93.7122C1184.52 93.7228 1184.59 93.7624 1184.63 93.8224C1184.68 93.8825 1184.7 93.9583 1184.69 94.0336Z" fill="#7C7C7C"/>
<path d="M1130.57 49.8627C1130.57 49.9389 1130.54 50.0109 1130.48 50.0631C1130.43 50.1153 1130.35 50.1435 1130.28 50.1415C1130.1 50.1415 1130 50.0376 1130 49.8603C1130 49.6476 1130.1 49.5082 1130.33 49.5413C1130.36 49.5459 1130.4 49.5579 1130.43 49.5767C1130.47 49.5954 1130.49 49.6204 1130.52 49.6503C1130.54 49.6801 1130.56 49.7143 1130.57 49.7508C1130.58 49.7872 1130.58 49.8252 1130.57 49.8627Z" fill="#7C7C7C"/>
<path d="M1145.74 57.6239C1145.31 57.6239 1145.19 57.5341 1145.19 57.3663C1145.19 57.3288 1145.19 57.2913 1145.21 57.256C1145.22 57.2208 1145.24 57.1886 1145.26 57.1616C1145.29 57.1345 1145.32 57.1131 1145.36 57.0987C1145.39 57.0843 1145.43 57.0772 1145.47 57.0779C1145.5 57.0728 1145.54 57.0758 1145.58 57.0867C1145.61 57.0976 1145.65 57.1161 1145.67 57.141C1145.7 57.1659 1145.73 57.1966 1145.74 57.231C1145.76 57.2653 1145.76 57.3026 1145.76 57.3403C1145.76 57.4797 1145.67 57.6097 1145.74 57.6239Z" fill="#7C7C7C"/>
<path d="M1134.56 40.0973C1134.49 40.0907 1134.42 40.0546 1134.37 39.997C1134.32 39.9394 1134.3 39.865 1134.3 39.7901C1134.3 39.7454 1134.3 39.7002 1134.32 39.6581C1134.34 39.616 1134.36 39.5781 1134.39 39.5473C1134.43 39.5164 1134.47 39.4935 1134.51 39.4803C1134.55 39.4671 1134.6 39.4639 1134.64 39.471C1134.68 39.472 1134.72 39.4809 1134.75 39.4971C1134.78 39.5132 1134.81 39.5362 1134.84 39.5647C1134.86 39.5932 1134.88 39.6265 1134.89 39.6625C1134.9 39.6984 1134.91 39.7362 1134.9 39.7735C1134.91 39.8186 1134.9 39.8641 1134.88 39.9066C1134.87 39.949 1134.84 39.9873 1134.81 40.0185C1134.78 40.0497 1134.74 40.0731 1134.69 40.0867C1134.65 40.1004 1134.61 40.104 1134.56 40.0973Z" fill="#7C7C7C"/>
<path d="M1142.88 47.3741C1142.87 47.4389 1142.83 47.4964 1142.78 47.5353C1142.73 47.5742 1142.66 47.5917 1142.59 47.5844C1142.38 47.5844 1142.23 47.4662 1142.25 47.2559C1142.25 47.209 1142.26 47.1633 1142.29 47.1222C1142.31 47.0811 1142.34 47.0456 1142.38 47.0184C1142.42 46.9912 1142.46 46.9729 1142.51 46.965C1142.55 46.957 1142.6 46.9595 1142.65 46.9723C1142.82 47.0006 1142.91 47.1259 1142.88 47.3741Z" fill="#7C7C7C"/>
<path d="M1193.74 50.4062C1193.58 50.3731 1193.46 50.2904 1193.47 50.1061C1193.47 50.0681 1193.48 50.0305 1193.5 49.9957C1193.51 49.9609 1193.54 49.9297 1193.56 49.9041C1193.59 49.8785 1193.62 49.859 1193.66 49.847C1193.7 49.835 1193.73 49.8307 1193.77 49.8343C1193.81 49.8316 1193.85 49.8376 1193.88 49.8516C1193.92 49.8657 1193.95 49.8876 1193.98 49.9155C1194 49.9435 1194.02 49.9769 1194.03 50.0131C1194.04 50.0494 1194.04 50.0877 1194.04 50.125C1194.03 50.3093 1193.9 50.3802 1193.74 50.4062Z" fill="#7C7C7C"/>
<path d="M1137.37 36.2805C1137.35 36.4577 1137.28 36.5877 1137.09 36.5783C1137.02 36.5783 1136.96 36.5534 1136.92 36.509C1136.88 36.4647 1136.85 36.4046 1136.85 36.3419C1136.84 36.304 1136.84 36.2645 1136.85 36.2262C1136.86 36.1878 1136.87 36.1514 1136.89 36.1194C1136.92 36.0874 1136.94 36.0605 1136.98 36.0406C1137.01 36.0207 1137.05 36.0082 1137.09 36.004C1137.27 35.9803 1137.32 36.1363 1137.37 36.2805Z" fill="#7C7C7C"/>
<path d="M1167.64 95.5226C1167.8 95.5533 1167.92 95.6478 1167.89 95.8227C1167.87 95.9976 1167.75 96.1039 1167.59 96.059C1167.54 96.0372 1167.49 96.0048 1167.45 95.964C1167.42 95.9232 1167.39 95.875 1167.37 95.8227C1167.34 95.6336 1167.46 95.5391 1167.64 95.5226Z" fill="#7C7C7C"/>
<path d="M1145.67 67.3751C1145.6 67.5712 1145.52 67.687 1145.34 67.6752C1145.31 67.6732 1145.28 67.6651 1145.25 67.6513C1145.23 67.6375 1145.2 67.6184 1145.19 67.5952C1145.17 67.5719 1145.15 67.545 1145.14 67.5161C1145.14 67.4872 1145.13 67.4569 1145.14 67.4271C1145.14 67.2734 1145.25 67.134 1145.43 67.1907C1145.52 67.2096 1145.6 67.3136 1145.67 67.3751Z" fill="#7C7C7C"/>
<path d="M1158.92 37.0628C1158.75 37.0439 1158.62 36.9541 1158.62 36.7839C1158.62 36.7461 1158.63 36.709 1158.65 36.6749C1158.67 36.6408 1158.69 36.6105 1158.72 36.586C1158.75 36.5615 1158.78 36.5433 1158.82 36.5326C1158.85 36.5219 1158.89 36.5189 1158.93 36.5239C1158.96 36.5218 1158.99 36.5265 1159.02 36.5377C1159.05 36.5488 1159.08 36.5661 1159.1 36.5885C1159.12 36.6109 1159.14 36.6378 1159.15 36.6674C1159.16 36.697 1159.17 36.7287 1159.16 36.7603C1159.17 36.7968 1159.17 36.834 1159.16 36.8697C1159.15 36.9053 1159.13 36.9385 1159.11 36.9671C1159.08 36.9956 1159.05 37.0189 1159.02 37.0354C1158.99 37.0519 1158.95 37.0612 1158.92 37.0628Z" fill="#7C7C7C"/>
<path d="M1168.99 95.1303C1169 95.1693 1169 95.2095 1168.99 95.2484C1168.98 95.2872 1168.97 95.3238 1168.94 95.3556C1168.92 95.3875 1168.89 95.414 1168.85 95.4334C1168.82 95.4528 1168.78 95.4647 1168.74 95.4682C1168.55 95.4918 1168.46 95.3571 1168.45 95.1941C1168.45 95.1336 1168.47 95.0736 1168.5 95.0265C1168.54 94.9794 1168.6 94.9489 1168.66 94.9412C1168.82 94.9199 1168.96 94.9648 1168.99 95.1303Z" fill="#7C7C7C"/>
<path d="M1182.59 33.7375C1182.59 33.7969 1182.58 33.856 1182.54 33.9029C1182.5 33.9498 1182.45 33.981 1182.39 33.9904C1182.21 34.0211 1182.11 33.9124 1182.11 33.7399C1182.11 33.7093 1182.12 33.6789 1182.13 33.6506C1182.14 33.6224 1182.16 33.597 1182.18 33.5763C1182.2 33.5556 1182.23 33.5401 1182.26 33.5308C1182.29 33.5215 1182.32 33.5186 1182.35 33.5224C1182.41 33.521 1182.47 33.5424 1182.51 33.5823C1182.56 33.6223 1182.58 33.6778 1182.59 33.7375Z" fill="#7C7C7C"/>
<path d="M1153.65 26.8082C1153.52 26.8082 1153.38 26.7774 1153.4 26.6238C1153.41 26.5293 1153.53 26.4395 1153.62 26.3875C1153.64 26.3757 1153.78 26.4796 1153.81 26.5505C1153.87 26.6805 1153.78 26.768 1153.65 26.8082Z" fill="#7C7C7C"/>
<path d="M1199 77.5398C1199.13 77.5398 1199.24 77.5847 1199.24 77.7265C1199.24 77.7675 1199.23 77.8077 1199.21 77.8442C1199.19 77.8806 1199.16 77.9123 1199.13 77.9369C1199.1 77.9517 1199.08 77.9601 1199.05 77.9616C1199.02 77.963 1198.99 77.9574 1198.96 77.9452C1198.93 77.933 1198.91 77.9145 1198.89 77.8913C1198.87 77.8681 1198.86 77.8408 1198.85 77.8116C1198.79 77.6769 1198.86 77.5847 1199 77.5398Z" fill="#7C7C7C"/>
<path d="M1183.18 76.559C1183.16 76.6961 1183.07 76.7741 1182.95 76.7363C1182.91 76.7201 1182.87 76.695 1182.85 76.663C1182.82 76.631 1182.8 76.5929 1182.79 76.5519C1182.78 76.5228 1182.78 76.492 1182.79 76.4622C1182.79 76.4324 1182.81 76.4046 1182.82 76.3812C1182.84 76.3578 1182.87 76.3396 1182.9 76.3281C1182.93 76.3167 1182.96 76.3124 1182.99 76.3156C1183.12 76.3251 1183.18 76.4243 1183.18 76.559Z" fill="#7C7C7C"/>
<path d="M1198.87 39.8562C1198.72 39.7901 1198.63 39.705 1198.7 39.5726C1198.72 39.537 1198.75 39.507 1198.78 39.4855C1198.81 39.464 1198.85 39.4517 1198.89 39.4497C1198.92 39.4508 1198.95 39.4595 1198.98 39.4751C1199 39.4907 1199.03 39.5125 1199.04 39.5386C1199.05 39.5647 1199.06 39.5942 1199.06 39.6241C1199.06 39.6541 1199.05 39.6835 1199.04 39.7097C1199.01 39.7759 1198.92 39.8161 1198.87 39.8562Z" fill="#7C7C7C"/>
<path d="M1132.46 40.5346C1132.41 40.6386 1132.39 40.7709 1132.22 40.7425C1132.19 40.7401 1132.16 40.7311 1132.14 40.7163C1132.12 40.7016 1132.09 40.6814 1132.08 40.6573C1132.06 40.6332 1132.05 40.6058 1132.05 40.5772C1132.04 40.5486 1132.05 40.5195 1132.06 40.492C1132.07 40.4545 1132.09 40.4205 1132.12 40.3927C1132.15 40.3649 1132.18 40.3439 1132.22 40.3313C1132.38 40.2935 1132.42 40.4235 1132.46 40.5346Z" fill="#7C7C7C"/>
<path d="M1151.6 75.9895C1152.23 75.0142 1152.86 74.0366 1153.49 73.0566C1153.66 72.78 1153.94 72.7706 1154.22 72.773C1155.43 72.773 1156.64 72.773 1157.85 72.773C1158.01 72.773 1158.25 72.6808 1158.32 72.91C1158.38 73.1393 1158.19 73.2953 1158.02 73.4229C1157.92 73.4969 1157.8 73.5551 1157.69 73.5954C1155.65 74.3044 1153.63 75.0607 1151.75 76.1644L1151.6 75.9895Z" fill="#7C7C7C"/>
<path d="M1170.3 84.4408C1169.86 82.4391 1169.59 80.4586 1169.21 78.4923C1169.17 78.2985 1169.21 78.0952 1169.43 78.0361C1169.6 77.9912 1169.69 78.1543 1169.78 78.2725C1170.43 79.2178 1171.08 80.1632 1171.73 81.092C1171.82 81.2035 1171.87 81.3388 1171.87 81.4789C1171.88 81.6191 1171.84 81.7572 1171.76 81.8742C1171.28 82.7345 1170.79 83.5877 1170.3 84.4408Z" fill="#7C7C7C"/>
<path fill-rule="evenodd" clip-rule="evenodd" d="M1162.93 85.6461C1163.5 84.3014 1163.92 82.8977 1164.18 81.4606C1164.19 81.3934 1164.2 81.3192 1164.2 81.2436C1164.23 80.958 1164.26 80.6525 1164.59 80.6264C1164.92 80.6008 1164.99 80.8969 1165.05 81.1669L1165.05 81.1669C1165.07 81.2464 1165.09 81.3236 1165.11 81.3897C1165.2 81.6327 1165.26 81.8838 1165.34 82.1875C1165.38 82.3475 1165.43 82.5222 1165.48 82.7179C1166.13 81.4143 1166.09 80.1518 1166.04 78.8282C1166.02 78.3282 1166.01 77.8194 1166.03 77.2964L1165.56 77.8149L1165.56 77.815C1164.86 78.5897 1164.24 79.2767 1163.62 79.9717C1162.97 80.7229 1162.25 81.4178 1161.48 82.0491C1161.45 82.0781 1161.41 82.1076 1161.38 82.1373C1160.95 82.4918 1160.51 82.862 1159.91 82.5218C1159.38 82.2137 1159.44 81.6702 1159.49 81.1737L1159.49 81.1736C1159.5 81.114 1159.5 81.0552 1159.51 80.9974C1159.7 79.3908 1160.01 77.801 1160.44 76.2424C1160.48 76.0887 1160.51 75.9336 1160.56 75.7425L1160.56 75.7424L1160.6 75.5452C1160.23 75.6118 1159.98 75.805 1159.74 75.9885C1159.64 76.0656 1159.54 76.141 1159.44 76.2046C1158.94 76.5142 1158.43 76.7694 1157.89 76.3771C1157.37 76.0062 1157.52 75.4918 1157.66 75.0114L1157.68 74.9283C1157.7 74.8473 1157.73 74.7677 1157.75 74.6858C1157.77 74.6221 1157.79 74.557 1157.8 74.4888C1157.48 74.3556 1157.24 74.4858 1157.02 74.6086C1156.95 74.6449 1156.88 74.6805 1156.82 74.7086C1155.09 75.4171 1153.42 76.2528 1151.82 77.209L1151.76 77.2426C1151.36 77.4873 1150.93 77.7474 1150.48 77.2752C1150.01 76.7812 1150.24 76.3416 1150.51 75.9068C1150.96 75.1715 1151.42 74.4427 1151.92 73.6497L1151.92 73.6494C1152.1 73.3643 1152.28 73.0709 1152.47 72.7659H1150.23C1150.2 72.7659 1150.16 72.7664 1150.12 72.767C1149.78 72.772 1149.44 72.7771 1149.26 72.3948C1149.07 71.9694 1149.32 71.6291 1149.59 71.3148C1152 68.5786 1154.86 66.2673 1158.03 64.4776C1158.79 64.0475 1158.98 63.7379 1158.62 62.8493C1156.77 58.3069 1157.49 53.9607 1160.13 49.9761C1164.03 44.0985 1169.67 40.8512 1176.56 39.7334C1177.89 39.5183 1178.92 39.0669 1179.84 38.0554C1182.58 35.076 1185.74 32.5052 1189.21 30.4218C1189.47 30.2574 1189.74 30.1075 1190.02 29.9727C1191.26 29.3866 1192.08 29.9467 1191.93 31.3057C1191.37 36.3467 1190.13 41.2104 1187.96 45.8001C1187.36 46.9608 1187.24 48.3084 1187.63 49.5554C1189.15 54.9722 1189.09 60.337 1186.46 65.4324C1184.61 69.0342 1181.95 71.8324 1177.8 72.7895C1177.2 72.9278 1177.21 73.301 1177.23 73.7454L1177.23 73.7561C1177.33 76.8704 1176.94 79.9818 1176.07 82.9732C1175.9 83.5654 1175.7 84.1492 1175.5 84.7325L1175.47 84.8331C1175.43 84.9862 1175.35 85.1245 1175.23 85.2298C1175.11 85.3352 1174.97 85.4029 1174.81 85.424C1174.41 85.4689 1174.18 85.2255 1174 84.9064C1173.56 84.0934 1173.11 83.2804 1172.61 82.3682C1172.2 82.835 1171.95 83.3365 1171.72 83.8199C1171.6 84.051 1171.49 84.2781 1171.36 84.4952C1171.3 84.6019 1171.24 84.7095 1171.18 84.8172L1171.18 84.8172L1171.18 84.8172L1171.18 84.8173L1171.18 84.8173L1171.18 84.8173L1171.18 84.8174L1171.18 84.8174L1171.18 84.8174L1171.18 84.8175L1171.18 84.8175L1171.18 84.8175L1171.18 84.8176L1171.18 84.8176L1171.18 84.8176L1171.18 84.8177L1171.18 84.8177L1171.18 84.8177C1171.03 85.0891 1170.88 85.3607 1170.7 85.6178L1170.69 85.6331C1170.49 85.9318 1170.26 86.2654 1169.81 86.1306C1169.35 85.9935 1169.19 85.6579 1169.15 85.2136C1169 83.2946 1168.76 81.385 1168.44 79.4471C1167.46 79.9079 1166.97 80.4964 1167.1 81.6828C1167.35 84.1549 1167.48 86.6458 1166.79 89.0919C1166.49 90.1743 1166.11 91.2189 1165.44 92.1453C1165.07 92.6511 1164.61 93.0576 1163.97 92.5235C1163.68 92.2871 1163.58 92.4006 1163.43 92.6724C1162.32 94.7691 1160.5 96.1455 1158.69 97.5217L1158.69 97.5219L1158.69 97.5219C1158.13 97.9466 1157.57 98.3713 1157.03 98.8171C1156.93 98.9213 1156.8 98.9857 1156.66 98.9979C1156.52 99.0101 1156.37 98.9693 1156.26 98.8832C1155.99 98.6635 1156.07 98.3704 1156.17 98.1104C1156.68 96.8398 1157.19 95.5787 1157.7 94.3151L1157.88 93.8753C1157.94 93.7375 1158 93.6084 1158.07 93.4798C1158.11 93.3879 1158.16 93.2963 1158.2 93.2018L1158.22 93.1618C1158.32 92.9464 1158.42 92.7187 1158.15 92.5518C1157.92 92.4156 1157.82 92.5712 1157.73 92.717C1157.7 92.7609 1157.68 92.8039 1157.65 92.8378C1156.89 93.701 1156.01 94.4543 1155.05 95.0759L1155 95.1059C1154.54 95.3913 1154.06 95.6918 1153.61 94.9932C1153.43 94.6905 1153.27 94.8724 1153.13 95.0273C1153.1 95.066 1153.07 95.1029 1153.04 95.1303C1152.58 95.5302 1152.12 95.9352 1151.66 96.3404L1151.66 96.3404L1151.66 96.3406L1151.66 96.3408L1151.66 96.3412L1151.66 96.342C1151.23 96.7192 1150.8 97.0965 1150.37 97.47C1150.35 97.4928 1150.32 97.5163 1150.29 97.54L1150.29 97.5401C1150.04 97.7619 1149.77 97.9978 1149.39 97.7843C1149.03 97.5792 1149.12 97.2441 1149.2 96.9321C1149.22 96.8846 1149.23 96.8376 1149.24 96.7917C1149.34 96.4055 1149.43 96.0144 1149.52 95.6234C1149.81 94.3228 1150.1 93.0225 1150.93 91.8996C1151.14 91.6246 1150.94 91.4802 1150.74 91.3238C1150.55 91.1804 1150.34 91.0269 1150.42 90.7533C1148.97 92.0626 1147.52 93.3719 1146.07 94.6812C1145.88 94.8496 1145.69 95.0014 1145.48 95.135C1145.38 95.2093 1145.25 95.2449 1145.13 95.2353C1145 95.2258 1144.88 95.1718 1144.79 95.083C1144.71 95.0126 1144.65 94.9147 1144.63 94.8064C1144.61 94.6981 1144.63 94.5861 1144.68 94.4898C1144.95 93.8031 1145.18 93.1007 1145.41 92.3982L1145.41 92.3982C1146.05 90.4799 1146.68 88.5616 1148.04 86.9649L1148.06 86.9386C1148.26 86.716 1148.4 86.5543 1148.02 86.3268C1147.51 86.0125 1147.65 85.5209 1147.79 85.0742C1148.05 84.2588 1148.56 83.5877 1149.09 82.9472C1150.86 80.805 1152.9 78.91 1155.17 77.313C1155.54 77.0191 1155.97 76.8143 1156.42 76.715L1156.48 76.707C1156.86 76.6469 1157.27 76.5823 1157.52 76.9963C1157.77 77.4288 1157.52 77.7691 1157.25 78.0834C1156.76 78.6118 1156.22 79.0785 1155.62 79.4731C1155.1 79.8526 1154.57 80.2059 1154.01 80.5318C1154.42 79.8768 1154.98 79.3662 1155.55 78.8499L1155.55 78.8499C1156.05 78.3957 1156.55 77.9372 1156.96 77.372C1156.79 77.3251 1156.62 77.3193 1156.45 77.3552C1156.28 77.391 1156.12 77.4674 1155.99 77.5777C1153.28 79.4282 1150.81 81.5505 1148.93 84.2778C1148.88 84.3551 1148.81 84.4384 1148.74 84.5255C1148.44 84.9089 1148.08 85.3652 1148.46 85.7099C1148.81 86.0308 1149.19 85.7168 1149.56 85.4185C1149.67 85.3235 1149.79 85.2301 1149.9 85.1593C1149.98 85.1071 1150.05 85.045 1150.13 84.9824C1150.34 84.8065 1150.55 84.6262 1150.93 84.6488C1150.55 85.1294 1150.13 85.5828 1149.72 86.0356C1148.91 86.9188 1148.1 87.7996 1147.52 88.8745C1146.82 90.1697 1146.35 91.582 1145.86 93.0144C1145.74 93.3802 1145.61 93.7472 1145.48 94.114C1145.82 94.1013 1146 93.9093 1146.16 93.7289C1146.21 93.6749 1146.26 93.622 1146.31 93.5752C1146.94 92.9954 1147.56 92.412 1148.19 91.8286L1148.19 91.8276C1148.9 91.1605 1149.62 90.4934 1150.34 89.8316C1150.73 89.4768 1151.04 89.0436 1151.26 88.5601C1152.06 86.729 1153.31 85.1274 1154.89 83.8996C1155.47 83.4266 1155.88 82.7808 1156.07 82.0562C1156.37 81.0967 1156.74 80.1537 1157.73 79.6196C1157.59 79.994 1157.42 80.3519 1157.25 80.7087C1156.98 81.2776 1156.71 81.8438 1156.6 82.4698C1156.76 82.6061 1156.9 82.5434 1157.04 82.4821C1157.1 82.4595 1157.15 82.437 1157.2 82.4249C1157.24 82.4142 1157.29 82.4022 1157.33 82.3901C1157.63 82.3058 1157.94 82.218 1158.12 82.5549C1158.31 82.8928 1158.1 83.1344 1157.91 83.3657L1157.91 83.3658C1157.89 83.3981 1157.86 83.4302 1157.83 83.4624C1157.02 84.4414 1156.12 85.3469 1155.15 86.1684C1155.45 85.3355 1155.93 84.7538 1156.39 84.1891C1156.59 83.9528 1156.78 83.7194 1156.96 83.4719C1154.61 84.2092 1151.58 88.0355 1151.29 90.7179C1151.71 90.567 1151.99 90.2631 1152.27 89.9652C1152.42 89.7964 1152.58 89.6296 1152.76 89.4937C1152.79 89.468 1152.82 89.436 1152.86 89.4037C1152.98 89.2816 1153.11 89.1541 1153.3 89.3353C1153.45 89.4899 1153.33 89.6664 1153.23 89.8185L1153.22 89.8364C1152.94 90.3193 1152.62 90.7792 1152.27 91.2118C1150.79 92.7834 1150.32 94.7569 1149.87 96.9831C1150.75 96.3073 1151.51 95.603 1152.25 94.9163C1152.63 94.5559 1153.02 94.2004 1153.41 93.8564C1154.07 93.2765 1154.53 92.5264 1154.99 91.7726C1155.32 91.227 1155.65 90.6795 1156.06 90.1932C1156 91.1262 1155.56 91.8998 1155.09 92.7124C1154.73 93.3408 1154.36 93.9925 1154.14 94.7592C1155.42 94.1905 1156.21 93.3709 1157 92.5558L1157.04 92.5117C1157.66 91.8636 1158.12 91.0641 1158.57 90.2642C1158.7 90.0402 1158.83 89.8161 1158.96 89.5953C1159.09 90.0551 1158.95 90.4592 1158.81 90.8708C1158.7 91.1934 1158.58 91.5207 1158.6 91.883C1158.95 91.828 1159.12 91.6022 1159.29 91.3849L1159.29 91.3849C1159.31 91.3656 1159.32 91.3464 1159.34 91.3274L1159.37 91.2941L1159.38 91.2827C1160.79 89.5788 1161.61 87.6432 1161.64 85.4003C1161.64 85.1212 1161.67 84.8427 1161.71 84.5661C1161.73 84.4054 1161.79 84.2494 1161.98 84.2376C1162.16 84.2258 1162.24 84.3628 1162.31 84.5094C1162.35 84.6012 1162.38 84.6985 1162.41 84.7984C1162.49 85.0841 1162.58 85.3904 1162.93 85.6461ZM1167.01 78.8941C1167.03 78.6199 1167.04 78.3456 1167.06 78.0712L1167.06 78.0711C1167.09 77.423 1167.13 76.7748 1167.2 76.129C1167.35 74.5507 1167.42 72.9644 1167.38 71.3786C1167.36 70.1001 1166.85 69.7928 1165.75 70.4333C1164.42 71.211 1163.18 72.1301 1161.95 73.0475L1161.95 73.0475L1161.95 73.0476L1161.95 73.0477L1161.95 73.0478L1161.95 73.0478L1161.95 73.0479L1161.95 73.048L1161.95 73.048L1161.95 73.0481L1161.95 73.0482L1161.95 73.0482L1161.95 73.0483L1161.95 73.0484L1161.95 73.0484L1161.95 73.0485L1161.95 73.0486L1161.95 73.0486C1161.36 73.483 1160.78 73.9169 1160.18 74.3352C1159.77 74.6509 1159.32 74.9316 1158.86 75.1742C1159.55 73.1188 1160.47 71.1474 1161.6 69.2965C1163.1 66.7494 1164.86 64.3632 1166.84 62.1757C1167.3 61.667 1167.65 61.0724 1167.87 60.4269C1170.41 53.351 1173.86 46.7833 1178.74 41.012C1179.24 40.4258 1179.71 40.1824 1180.48 40.2651C1183.12 40.5535 1185.33 41.5177 1186.79 43.8692C1186.98 44.1322 1187.09 44.4428 1187.11 44.7658C1187.13 45.0887 1187.06 45.411 1186.9 45.6961C1183.8 52.2497 1180.07 58.3897 1175.16 63.7592C1174.7 64.2613 1174.36 64.869 1174.19 65.5293C1172.96 70.0394 1170.87 74.2704 1168.05 77.9913C1167.87 78.2182 1167.69 78.4366 1167.5 78.6551C1167.41 78.7643 1167.32 78.8736 1167.23 78.9839L1167.01 78.8941ZM1190.43 30.8496C1188.55 31.9536 1186.78 33.213 1185.12 34.6144C1187.14 34.8602 1188.6 35.7393 1189.89 37.1337C1190.43 35.1542 1190.8 33.1302 1190.98 31.0859C1191.03 30.6132 1190.7 30.6865 1190.43 30.8496ZM1187.57 43.7535C1186.14 41.2153 1183.9 40.0927 1181.11 39.6389C1182.61 39.301 1184.15 39.7453 1186.75 41.1846C1185.98 40.0312 1185.88 40.0029 1180.7 38.9276C1180.73 38.7974 1180.8 38.6802 1180.9 38.5919C1181 38.5035 1181.13 38.4483 1181.26 38.4336C1183.61 37.8877 1186.42 39.0575 1187.76 41.1302C1188.47 42.2221 1188.46 42.5222 1187.57 43.7535ZM1181.92 37.7411C1185.79 38.1169 1185.79 38.1168 1188.61 41.1278C1189.24 39.9154 1188.47 38.5541 1186.6 37.5378C1184.78 36.5476 1182.56 36.6445 1181.92 37.7411ZM1189.32 39.1213C1187.06 36.7414 1186.89 36.6563 1183.46 36.134C1183.85 35.3707 1184.49 35.1887 1185.23 35.2785C1186.88 35.5083 1188.37 36.3529 1189.42 37.6419C1189.76 38.0355 1189.62 38.361 1189.47 38.7089C1189.41 38.8415 1189.36 38.9773 1189.32 39.1213ZM1165.34 76.1786C1164.39 75.4366 1163.3 74.9114 1162.13 74.64C1161.62 74.5975 1161.51 74.9543 1161.43 75.2663C1161.35 75.5783 1161.28 75.8997 1161.71 76.0202C1162.69 76.3168 1163.63 76.7377 1164.5 77.2728C1164.86 77.4836 1165.02 77.2544 1165.18 77.0296C1165.24 76.9444 1165.29 76.8599 1165.36 76.8001C1165.42 76.7663 1165.46 76.7191 1165.49 76.6633C1165.52 76.6074 1165.53 76.5448 1165.53 76.4818C1165.53 76.4188 1165.51 76.3577 1165.47 76.3044C1165.44 76.2512 1165.39 76.2078 1165.34 76.1786ZM1162.38 74.1862C1162.5 74.0955 1162.61 73.9985 1162.72 73.9061C1163.04 73.6133 1163.31 73.3676 1163.76 73.5221C1163.87 73.5576 1163.97 73.592 1164.08 73.6265C1164.86 73.8817 1165.64 74.1394 1166.16 74.8243C1166.25 74.9749 1166.29 75.1463 1166.28 75.3187C1166.27 75.4911 1166.21 75.6573 1166.11 75.798C1165.94 76.0222 1165.77 75.8684 1165.61 75.7244C1165.55 75.6695 1165.49 75.616 1165.43 75.5853C1165.19 75.4707 1164.95 75.3387 1164.72 75.2065L1164.72 75.2065L1164.72 75.2064L1164.72 75.2064L1164.72 75.2063L1164.72 75.2063L1164.72 75.2062L1164.72 75.2062L1164.72 75.2061L1164.72 75.2061L1164.72 75.206L1164.72 75.206L1164.72 75.206C1164.47 75.0659 1164.22 74.9257 1163.96 74.8054C1163.62 74.6459 1163.29 74.526 1162.93 74.3909C1162.76 74.3278 1162.58 74.2614 1162.38 74.1862ZM1161.03 78.3977C1161.61 78.6649 1162.21 78.8969 1162.82 79.0925C1163.03 79.109 1163.23 79.0607 1163.41 78.9546C1163.58 78.8485 1163.72 78.69 1163.8 78.5017C1163.96 78.1655 1163.69 78.0587 1163.45 77.9655L1163.45 77.9654L1163.45 77.9654C1163.39 77.942 1163.34 77.9195 1163.29 77.8943C1162.75 77.5942 1162.18 77.3579 1161.61 77.1215L1161.61 77.1215C1161.37 77.0175 1161.05 76.8875 1160.97 77.3271C1160.95 77.4223 1160.92 77.5232 1160.87 77.6251C1160.76 77.9102 1160.65 78.2027 1161.03 78.3977ZM1163.97 73.0495C1164.6 72.6926 1166 72.9951 1166.23 73.5009C1166.25 73.5699 1166.26 73.6437 1166.26 73.7176C1166.26 73.7916 1166.24 73.8642 1166.21 73.931C1166.13 74.0883 1166 74.019 1165.89 73.9565C1165.86 73.943 1165.84 73.9297 1165.82 73.9192L1163.97 73.0495ZM1161.57 80.65C1161.86 80.7682 1162.01 80.5224 1162.16 80.2412C1161.95 79.9089 1161.61 79.8159 1161.27 79.7232C1161.12 79.6826 1160.97 79.6421 1160.84 79.5818C1160.53 79.4447 1160.4 79.674 1160.44 79.8937C1160.52 80.3618 1160.88 80.4548 1161.23 80.5459C1161.35 80.5762 1161.47 80.6063 1161.57 80.65ZM1165 72.3098C1165.13 72.2264 1165.24 72.1249 1165.35 72.0277C1165.62 71.7889 1165.87 71.5765 1166.2 71.726C1166.43 71.8324 1166.43 72.5154 1166.27 72.6454C1165.97 72.8874 1165.7 72.7183 1165.39 72.5273C1165.27 72.4497 1165.14 72.3685 1165 72.3098ZM1161.01 81.403C1161.11 81.3045 1161.21 81.1983 1161.34 81.1132C1161.25 81.063 1161.17 81.0046 1161.09 80.9486C1160.83 80.7568 1160.6 80.5931 1160.34 80.884C1160.18 81.0565 1160.15 81.5268 1160.35 81.6379C1160.63 81.7931 1160.8 81.6164 1161.01 81.403ZM1160.7 79.0429C1161.49 78.8822 1162.1 79.2225 1162.7 79.57L1162.6 79.8299L1160.7 79.0429ZM1162.6 76.8341C1162.27 76.6963 1161.91 76.6315 1161.56 76.6441L1163.48 77.4429C1163.23 77.1796 1162.94 76.9719 1162.6 76.8341ZM1162.76 62.0292L1167.4 54.8423C1166.87 54.8142 1166.73 55.0846 1166.6 55.3187C1166.58 55.3611 1166.56 55.4022 1166.53 55.4402C1166.21 55.9389 1165.89 56.4357 1165.56 56.9324L1165.56 56.9329C1164.59 58.4134 1163.63 59.8936 1162.75 61.4242C1162.23 62.3291 1161.42 62.6941 1160.6 63.0623L1160.6 63.0623C1160.4 63.1538 1160.19 63.2454 1159.99 63.3456C1159.56 63.5584 1159.46 63.1912 1159.38 62.8872C1159.36 62.8165 1159.35 62.7491 1159.32 62.6933C1157.81 58.6473 1158.16 54.7312 1160.4 51.0633C1163.9 45.318 1169.21 42.1369 1175.66 40.6645C1176.09 40.5646 1176.53 40.5025 1176.97 40.4404C1177.12 40.4202 1177.26 40.4 1177.4 40.3786C1177.43 40.3786 1177.46 40.4037 1177.51 40.4411C1177.53 40.462 1177.56 40.4869 1177.6 40.5133C1177.34 40.8461 1177.09 41.1772 1176.83 41.5079L1176.83 41.508L1176.83 41.5081L1176.83 41.5081C1176.29 42.1987 1175.75 42.8873 1175.24 43.5856C1171.7 48.3625 1168.93 53.6619 1167.03 59.2924C1166.69 60.3158 1166.17 60.9255 1165.14 61.1831C1164.64 61.3115 1164.17 61.4944 1163.61 61.708C1163.35 61.809 1163.07 61.9169 1162.76 62.0292ZM1163.03 63.6812C1161.31 65.471 1159.59 67.2617 1157.87 69.0531C1157.78 69.0892 1157.73 69.1586 1157.68 69.2336C1157.73 69.1596 1157.77 69.0809 1157.8 68.9987C1158.26 68.2034 1158.89 67.5189 1159.5 66.8505C1159.68 66.6569 1159.86 66.4646 1160.03 66.2714C1160.56 65.6672 1161.12 65.0839 1161.67 64.5003L1161.67 64.4995C1161.9 64.2526 1162.14 64.0055 1162.37 63.7568C1158.04 65.4902 1154.15 68.1526 1150.96 71.5559C1152.36 71.9198 1153.34 71.5252 1154.09 70.4711C1154.52 69.8732 1154.99 69.2871 1155.7 68.9798L1153.52 71.6646C1153.76 71.6646 1153.97 71.6572 1154.17 71.6504H1154.17H1154.17C1154.54 71.6373 1154.85 71.6265 1155.15 71.6764C1156.54 71.9104 1157.55 71.5086 1158.36 70.2749C1158.74 69.6769 1159.26 69.1634 1159.78 68.6495C1160 68.4241 1160.23 68.1986 1160.45 67.9659C1159.99 68.7035 1159.46 69.3753 1158.93 70.0528C1158.52 70.5736 1158.1 71.0977 1157.72 71.6575C1158.48 71.8915 1158.93 71.778 1159.31 71.0808C1160.85 68.259 1162.5 65.5317 1164.57 63.0596C1164.58 63.0413 1164.6 63.0227 1164.61 63.0034C1164.69 62.9155 1164.78 62.8129 1164.64 62.6579C1163.97 62.7926 1163.48 63.2085 1163.03 63.6812ZM1178.26 66.9741L1178.26 66.9773C1177.79 67.7455 1177.31 68.5338 1176.81 69.3532C1176.72 68.9358 1176.64 68.5346 1176.55 68.1453L1176.55 68.1447C1176.31 67.0421 1176.1 66.0347 1175.9 65.0235C1175.85 64.8002 1176.02 64.6185 1176.17 64.4531C1176.19 64.4294 1176.21 64.4061 1176.23 64.3831C1180.27 59.8026 1183.67 54.7087 1186.37 49.234C1186.39 49.1997 1186.42 49.172 1186.46 49.1314C1186.48 49.1075 1186.51 49.0792 1186.55 49.0426C1186.88 49.5801 1187 50.1686 1187.11 50.7479L1187.11 50.7485C1187.14 50.8745 1187.17 51.0001 1187.19 51.1247C1188.4 56.662 1187.94 61.9559 1184.74 66.7913C1183.09 69.2752 1180.89 71.0713 1178.01 71.9907C1177.33 72.2058 1177.13 72.0947 1177.01 71.3455C1176.86 70.5237 1177.03 69.6736 1177.51 68.9821C1178.29 67.7684 1179.04 66.5266 1179.78 65.2859L1179.78 65.2846C1180.03 64.8733 1180.28 64.4622 1180.53 64.0522C1180.65 63.8509 1180.75 63.6416 1180.86 63.4334C1180.91 63.3238 1180.97 63.2145 1181.02 63.1069L1180.71 62.9343C1179.91 64.2583 1179.1 65.5832 1178.26 66.9741ZM1174.23 82.8504C1174.37 83.0623 1174.5 83.2807 1174.65 83.5073C1176.14 79.863 1176.52 72.0403 1175.36 68.9018C1175.29 69.1297 1175.23 69.357 1175.16 69.5837C1174.55 71.6967 1173.96 73.7559 1173.02 75.6917C1173.05 75.3881 1173.12 75.0897 1173.23 74.8031C1173.99 72.6037 1174.62 70.3599 1175.12 68.0841C1175.13 68.0493 1175.13 68.0143 1175.14 67.9793C1175.23 67.5484 1175.32 67.1009 1174.91 66.607C1173.92 70.2158 1172.32 73.4276 1170.45 76.5142C1170.2 76.9136 1170.25 77.2444 1170.72 77.5729C1171.08 76.7869 1171.43 76.0196 1171.78 75.2596C1172 74.7857 1172.21 74.3146 1172.43 73.8436C1172.11 75.0732 1171.69 76.2765 1171.19 77.4429C1171.17 77.4734 1171.16 77.5038 1171.15 77.534C1171.04 77.797 1170.93 78.0527 1171.12 78.3198C1171.5 78.8784 1171.9 79.4293 1172.33 80.0263C1172.48 80.2349 1172.63 80.4491 1172.79 80.6713C1173.11 79.9951 1173.38 79.399 1173.65 78.8228C1173.74 78.6196 1173.84 78.419 1173.93 78.2181C1173.82 78.9781 1173.61 79.7188 1173.29 80.4184C1173.14 80.7776 1173.05 81.0896 1173.32 81.4606C1173.63 81.9004 1173.92 82.3574 1174.23 82.8504Z" fill="#7C7C7C"/>
<path d="M1168.41 49.5176C1168.28 50.1841 1168.28 50.1841 1167.85 50.5622C1167.83 50.0163 1167.83 50.0163 1168.41 49.5176Z" fill="#7C7C7C"/>
<path d="M1183.73 56.8345C1183.8 57.4419 1183.54 57.7799 1183.06 58.1249C1183.02 57.8666 1183.07 57.6039 1183.19 57.3728C1183.31 57.1418 1183.5 56.9537 1183.73 56.8345Z" fill="#7C7C7C"/>
<path d="M1157.87 69.053C1157.69 69.4346 1157.4 69.7574 1157.04 69.9842C1157.2 69.5889 1157.46 69.2443 1157.8 68.9892L1157.87 69.053Z" fill="#7C7C7C"/>
<path fill-rule="evenodd" clip-rule="evenodd" d="M1168.81 62.5113C1168.8 62.0338 1168.91 61.5617 1169.12 61.1335C1171.1 56.5604 1173.56 52.2496 1176.27 48.0807C1177.51 46.1593 1179.81 46.034 1181.14 47.6931C1181.85 48.577 1182 49.5838 1181.5 50.5764C1179.21 55.1589 1176.63 59.5831 1173.56 63.6977C1172.85 64.643 1171.92 65.2362 1170.67 65.0046C1169.48 64.7825 1168.8 63.8773 1168.81 62.5113ZM1177.57 48.3477C1178.71 48.4974 1179.76 49.0341 1180.54 49.8674C1180.8 50.1273 1180.75 50.34 1180.6 50.6024C1179.72 52.2031 1178.84 53.8063 1177.96 55.4118C1177.77 55.7639 1177.61 55.8537 1177.28 55.5347C1176.46 54.7181 1175.42 54.1699 1174.28 53.9631C1173.77 53.878 1173.86 53.6487 1174.04 53.3344C1174.99 51.803 1175.93 50.2699 1176.85 48.7353C1177.04 48.4423 1177.27 48.2674 1177.57 48.3477ZM1177.07 56.0806C1176.17 55.205 1175.03 54.6235 1173.8 54.4145C1173.51 54.327 1173.33 54.5846 1173.17 54.8682C1172.93 55.3379 1172.68 55.8088 1172.44 56.2799L1172.44 56.2799L1172.44 56.2799C1171.99 57.1266 1171.55 57.9738 1171.1 58.815C1170.88 59.2215 1170.92 59.4059 1171.42 59.4933C1172.34 59.651 1173.2 60.0598 1173.9 60.675C1174.31 61.0271 1174.54 61.0058 1174.82 60.5332C1175.54 59.309 1176.3 58.1037 1177.07 56.9007C1177.25 56.6124 1177.36 56.3666 1177.07 56.0806ZM1169.59 62.3955C1169.66 61.8065 1169.93 61.2453 1170.22 60.6756C1170.3 60.5024 1170.39 60.3285 1170.47 60.1527C1170.5 60.0642 1170.57 59.9921 1170.65 59.9522C1170.74 59.9124 1170.83 59.908 1170.92 59.94C1171.01 59.9596 1171.09 59.9764 1171.17 59.9932L1171.17 59.9932L1171.17 59.9932C1171.33 60.0252 1171.49 60.0576 1171.65 60.1102C1171.74 60.1436 1171.84 60.1772 1171.95 60.2116C1172.79 60.4914 1173.8 60.8263 1173.87 61.5565C1173.94 62.3766 1172.96 63.2274 1172.21 63.8679C1171.99 64.0869 1171.7 64.2288 1171.38 64.2734C1171.07 64.3179 1170.75 64.2629 1170.47 64.116C1169.84 63.7804 1169.61 63.1801 1169.59 62.3955ZM1177.75 47.8396C1179.29 46.8943 1180.68 47.6033 1180.9 49.4112C1180.01 48.6062 1178.92 48.0621 1177.75 47.8396Z" fill="#7C7C7C"/>
</g>
<circle cx="1517" cy="-7" r="226" fill="#D2D2D2" fill-opacity="0.15"/>
<circle cx="1065" cy="14" r="10" fill="#D2D2D2" fill-opacity="0.15"/>
<circle cx="1573.5" cy="-393.5" r="545.5" fill="#D2D2D2" fill-opacity="0.15"/>
</g>
<defs>
<linearGradient id="paint0_linear_1318_111" x1="13.8682" y1="78.7942" x2="586.548" y2="89.2288" gradientUnits="userSpaceOnUse">
<stop stop-color="#F5F5F5"/>
<stop offset="1" stop-color="#FCFCFC"/>
</linearGradient>
<clipPath id="clip0_1318_111">
<rect width="1440" height="120" fill="white"/>
</clipPath>
<clipPath id="clip1_1318_111">
<rect width="82" height="78" fill="white" transform="translate(1130 21)"/>
</clipPath>
</defs>
</svg>
